%TF.GenerationSoftware,KiCad,Pcbnew,9.0.0*%
%TF.CreationDate,2025-04-09T21:01:40+02:00*%
%TF.ProjectId,left,6c656674-2e6b-4696-9361-645f70636258,1*%
%TF.SameCoordinates,Original*%
%TF.FileFunction,Profile,NP*%
%FSLAX46Y46*%
G04 Gerber Fmt 4.6, Leading zero omitted, Abs format (unit mm)*
G04 Created by KiCad (PCBNEW 9.0.0) date 2025-04-09 21:01:40*
%MOMM*%
%LPD*%
G01*
G04 APERTURE LIST*
%TA.AperFunction,Profile*%
%ADD10C,0.150000*%
%TD*%
G04 APERTURE END LIST*
D10*
X267668181Y-140593217D02*
X278772221Y-147927051D01*
X138207916Y-105851569D02*
G75*
G02*
X136419905Y-107949007I-1997016J-108431D01*
G01*
X248527218Y-192341803D02*
X231279566Y-185394832D01*
X160355448Y-82064196D02*
G75*
G02*
X158460137Y-84070530I-1999948J-9104D01*
G01*
X262506092Y-206493683D02*
X249214954Y-192803809D01*
X230532342Y-185250001D02*
X209815749Y-185250005D01*
X264795737Y-74328501D02*
G75*
G02*
X266794199Y-76329263I-1537J-1999999D01*
G01*
X160355445Y-82064197D02*
X160329120Y-76260586D01*
X160329120Y-76260586D02*
G75*
G02*
X162330591Y-74251600I1999880J9086D01*
G01*
X279669996Y-191371575D02*
G75*
G02*
X279084196Y-192785785I-1999896J-25D01*
G01*
X279084200Y-192785789D02*
X265355262Y-206514738D01*
X170224383Y-162359432D02*
G75*
G02*
X171708590Y-161700036I1484117J-1340468D01*
G01*
X159723776Y-172998589D02*
X124368883Y-172955046D01*
X124368883Y-172955046D02*
G75*
G02*
X122382214Y-171164108I2417J2000046D01*
G01*
X162330591Y-74251513D02*
X264795737Y-74328501D01*
X230532342Y-185250001D02*
G75*
G02*
X231279566Y-185394832I-42J-2000199D01*
G01*
X205774243Y-161700000D02*
G75*
G02*
X207774195Y-163695751I-43J-2000000D01*
G01*
X170224383Y-162359432D02*
X161210446Y-172339162D01*
X205774243Y-161700000D02*
X171708590Y-161700004D01*
X279669989Y-149595912D02*
X279669996Y-191371575D01*
X139087061Y-85085826D02*
X158460137Y-84070533D01*
X122382297Y-171164099D02*
X116173165Y-112088086D01*
X116173165Y-112088086D02*
G75*
G02*
X117953162Y-109890049I1988935J209086D01*
G01*
X267668181Y-140593217D02*
G75*
G02*
X266770402Y-138923598I1102319J1668917D01*
G01*
X161210446Y-172339162D02*
G75*
G02*
X159723776Y-172998547I-1484146J1340562D01*
G01*
X137194680Y-87191532D02*
G75*
G02*
X139087059Y-85085783I1997120J108432D01*
G01*
X278772221Y-147927051D02*
G75*
G02*
X279669987Y-149595912I-1102221J-1668849D01*
G01*
X209815749Y-185250005D02*
G75*
G02*
X207815799Y-183254250I-49J1999905D01*
G01*
X248527218Y-192341803D02*
G75*
G02*
X249214948Y-192803814I-747118J-1854997D01*
G01*
X266794229Y-76329263D02*
X266770406Y-138923598D01*
X265355262Y-206514738D02*
G75*
G02*
X262506042Y-206493733I-1414262J1414138D01*
G01*
X138207916Y-105851569D02*
X137194680Y-87191532D01*
X117953155Y-109889982D02*
X136419910Y-107949053D01*
X207815758Y-183254250D02*
X207774233Y-163695751D01*
M02*
