%TF.GenerationSoftware,KiCad,Pcbnew,9.0.0*%
%TF.CreationDate,2025-04-09T21:01:40+02:00*%
%TF.ProjectId,left,6c656674-2e6b-4696-9361-645f70636258,1*%
%TF.SameCoordinates,Original*%
%TF.FileFunction,Soldermask,Top*%
%TF.FilePolarity,Negative*%
%FSLAX46Y46*%
G04 Gerber Fmt 4.6, Leading zero omitted, Abs format (unit mm)*
G04 Created by KiCad (PCBNEW 9.0.0) date 2025-04-09 21:01:40*
%MOMM*%
%LPD*%
G01*
G04 APERTURE LIST*
G04 Aperture macros list*
%AMRoundRect*
0 Rectangle with rounded corners*
0 $1 Rounding radius*
0 $2 $3 $4 $5 $6 $7 $8 $9 X,Y pos of 4 corners*
0 Add a 4 corners polygon primitive as box body*
4,1,4,$2,$3,$4,$5,$6,$7,$8,$9,$2,$3,0*
0 Add four circle primitives for the rounded corners*
1,1,$1+$1,$2,$3*
1,1,$1+$1,$4,$5*
1,1,$1+$1,$6,$7*
1,1,$1+$1,$8,$9*
0 Add four rect primitives between the rounded corners*
20,1,$1+$1,$2,$3,$4,$5,0*
20,1,$1+$1,$4,$5,$6,$7,0*
20,1,$1+$1,$6,$7,$8,$9,0*
20,1,$1+$1,$8,$9,$2,$3,0*%
%AMFreePoly0*
4,1,15,1.095355,1.135355,1.535355,0.695355,1.550000,0.660000,1.550000,-1.100000,1.535355,-1.135355,1.500000,-1.150000,-1.500000,-1.150000,-1.535355,-1.135355,-1.550000,-1.100000,-1.550000,0.660000,-1.535355,0.695355,-1.095355,1.135355,-1.060000,1.150000,1.060000,1.150000,1.095355,1.135355,1.095355,1.135355,$1*%
%AMFreePoly1*
4,1,15,1.535355,1.135355,1.550000,1.100000,1.550000,-0.660000,1.535355,-0.695355,1.095355,-1.135355,1.060000,-1.150000,-1.060000,-1.150000,-1.095355,-1.135355,-1.535355,-0.695355,-1.550000,-0.660000,-1.550000,1.100000,-1.535355,1.135355,-1.500000,1.150000,1.500000,1.150000,1.535355,1.135355,1.535355,1.135355,$1*%
G04 Aperture macros list end*
%ADD10FreePoly0,90.000000*%
%ADD11FreePoly1,90.000000*%
%ADD12O,1.700000X1.200000*%
%ADD13C,7.300000*%
%ADD14RoundRect,0.050000X0.775000X0.500000X-0.775000X0.500000X-0.775000X-0.500000X0.775000X-0.500000X0*%
%ADD15C,1.800000*%
%ADD16O,1.800000X1.800000*%
%ADD17RoundRect,0.050000X0.500000X0.400000X-0.500000X0.400000X-0.500000X-0.400000X0.500000X-0.400000X0*%
%ADD18C,1.000000*%
%ADD19RoundRect,0.050000X0.350000X0.750000X-0.350000X0.750000X-0.350000X-0.750000X0.350000X-0.750000X0*%
%ADD20C,2.000000*%
%ADD21C,3.100000*%
%ADD22C,4.200000*%
%ADD23RoundRect,0.050000X-0.889000X-0.889000X0.889000X-0.889000X0.889000X0.889000X-0.889000X0.889000X0*%
%ADD24C,2.005000*%
%ADD25RoundRect,0.050000X-0.841255X-0.934308X0.934308X-0.841255X0.841255X0.934308X-0.934308X0.841255X0*%
%ADD26RoundRect,0.050000X-1.257044X0.021942X-0.021942X-1.257044X1.257044X-0.021942X0.021942X1.257044X0*%
%ADD27RoundRect,0.050000X-0.791204X-0.977056X0.977056X-0.791204X0.791204X0.977056X-0.977056X0.791204X0*%
%ADD28RoundRect,0.260000X0.665000X-0.390000X0.665000X0.390000X-0.665000X0.390000X-0.665000X-0.390000X0*%
%ADD29O,1.850000X1.300000*%
%ADD30RoundRect,0.050000X-1.165689X-0.470969X0.470969X-1.165689X1.165689X0.470969X-0.470969X1.165689X0*%
G04 APERTURE END LIST*
D10*
%TO.C,RE1*%
X271619986Y-162800002D03*
D11*
X260419986Y-162800002D03*
D12*
X263519986Y-155300002D03*
X266019986Y-155300002D03*
X268519986Y-155300002D03*
X268519986Y-169800002D03*
X263519986Y-169800002D03*
%TD*%
D13*
%TO.C,H3*%
X220419997Y-99000003D03*
%TD*%
%TO.C,H1*%
X163419998Y-99500002D03*
%TD*%
D14*
%TO.C,RST1*%
X227544994Y-75650003D03*
X227544994Y-77350003D03*
X222294994Y-75650003D03*
X222294994Y-77350003D03*
%TD*%
D15*
%TO.C,MCU1*%
X261289995Y-78850002D03*
X261289995Y-81390002D03*
X261289995Y-83930002D03*
X261289993Y-86470002D03*
X261289995Y-89010002D03*
X261289995Y-91550002D03*
X261289995Y-94090002D03*
X261289994Y-96630002D03*
X261289995Y-99170002D03*
X261289995Y-101710002D03*
X261289995Y-104250002D03*
X261289995Y-106789998D03*
X246049996Y-106790002D03*
X246049995Y-104250002D03*
X246049995Y-101710002D03*
X246049995Y-99170002D03*
X246049997Y-96630002D03*
X246049995Y-94090002D03*
X246049995Y-91550002D03*
X246049995Y-89010002D03*
X246049996Y-86470002D03*
X246049995Y-83930002D03*
X246049995Y-81390002D03*
X246049995Y-78850002D03*
%TD*%
D16*
%TO.C,DISP1*%
X248589989Y-111400005D03*
X251129991Y-111400005D03*
X253669991Y-111400005D03*
X256209991Y-111400005D03*
D15*
X258749992Y-111400005D03*
%TD*%
D13*
%TO.C,H5*%
X274019994Y-177800002D03*
%TD*%
D17*
%TO.C,PWR1*%
X234269990Y-77335004D03*
X241569990Y-77335004D03*
D18*
X236419990Y-76225005D03*
X239419990Y-76225004D03*
D17*
X234269990Y-75125004D03*
X241569990Y-75125004D03*
D19*
X240169990Y-77985004D03*
X237169990Y-77985004D03*
X235669990Y-77985004D03*
%TD*%
D13*
%TO.C,H4*%
X220419994Y-136999995D03*
%TD*%
%TO.C,H2*%
X163419988Y-137500004D03*
%TD*%
D20*
%TO.C,S13*%
X186839992Y-124999996D03*
D21*
X188109992Y-122459996D03*
D22*
X191919992Y-124999996D03*
D21*
X194459992Y-119919996D03*
D20*
X196999992Y-124999996D03*
%TD*%
%TO.C,S25*%
X215339996Y-172650005D03*
D21*
X216609996Y-170110005D03*
D22*
X220419996Y-172650005D03*
D21*
X222959996Y-167570005D03*
D20*
X225499996Y-172650005D03*
%TD*%
D23*
%TO.C,D9*%
X169110000Y-133000004D03*
D24*
X176730000Y-133000004D03*
%TD*%
D20*
%TO.C,S3*%
X124759964Y-121843964D03*
D21*
X125757504Y-119185127D03*
D22*
X129812135Y-121312959D03*
D21*
X131807216Y-115995285D03*
D20*
X134864306Y-120781954D03*
%TD*%
D23*
%TO.C,D19*%
X207109994Y-95000008D03*
D24*
X214729994Y-95000008D03*
%TD*%
D23*
%TO.C,D17*%
X207109992Y-132999993D03*
D24*
X214729992Y-132999993D03*
%TD*%
D25*
%TO.C,D4*%
X149768253Y-159228431D03*
D24*
X157377811Y-158829631D03*
%TD*%
D20*
%TO.C,S5*%
X147243927Y-135327784D03*
D21*
X148379253Y-132724798D03*
D22*
X152316965Y-135061917D03*
D21*
X154587617Y-129855946D03*
D20*
X157390003Y-134796050D03*
%TD*%
D23*
%TO.C,D18*%
X207109994Y-113999999D03*
D24*
X214729994Y-113999999D03*
%TD*%
D23*
%TO.C,D21*%
X226109991Y-136000001D03*
D24*
X233729991Y-136000001D03*
%TD*%
D20*
%TO.C,S4*%
X148238311Y-154301748D03*
D21*
X149373637Y-151698762D03*
D22*
X153311349Y-154035881D03*
D21*
X155582001Y-148829910D03*
D20*
X158384387Y-153770014D03*
%TD*%
%TO.C,S27*%
X260744828Y-186917890D03*
D21*
X263454168Y-186067019D03*
D22*
X264273693Y-190572136D03*
D21*
X269692375Y-188870395D03*
D20*
X267802558Y-194226382D03*
%TD*%
%TO.C,S14*%
X186839994Y-106000000D03*
D21*
X188109994Y-103460000D03*
D22*
X191919994Y-106000000D03*
D21*
X194459994Y-100920000D03*
D20*
X196999994Y-106000000D03*
%TD*%
D23*
%TO.C,D13*%
X188109995Y-129999998D03*
D24*
X195729995Y-129999998D03*
%TD*%
D20*
%TO.C,S7*%
X145255163Y-97379872D03*
D21*
X146390489Y-94776886D03*
D22*
X150328201Y-97114005D03*
D21*
X152598853Y-91908034D03*
D20*
X155401239Y-96848138D03*
%TD*%
D23*
%TO.C,D25*%
X216609991Y-177650000D03*
D24*
X224229991Y-177650000D03*
%TD*%
D23*
%TO.C,D8*%
X169109989Y-152000000D03*
D24*
X176729989Y-152000000D03*
%TD*%
D26*
%TO.C,D27*%
X258030348Y-191304739D03*
D24*
X263323644Y-196786109D03*
%TD*%
D23*
%TO.C,D14*%
X188109993Y-111000002D03*
D24*
X195729993Y-111000002D03*
%TD*%
D23*
%TO.C,D24*%
X245109991Y-144999995D03*
D24*
X252729991Y-144999995D03*
%TD*%
D20*
%TO.C,S26*%
X239493828Y-175165090D03*
D21*
X241655326Y-173323236D03*
D22*
X244169993Y-177150004D03*
D21*
X248492989Y-173466296D03*
D20*
X248846158Y-179134918D03*
%TD*%
%TO.C,S20*%
X224839988Y-149999999D03*
D21*
X226109988Y-147459999D03*
D22*
X229919988Y-149999999D03*
D21*
X232459988Y-144919999D03*
D20*
X234999988Y-149999999D03*
%TD*%
D23*
%TO.C,D10*%
X169109997Y-114000004D03*
D24*
X176729997Y-114000004D03*
%TD*%
D23*
%TO.C,D28*%
X262209989Y-172800004D03*
D24*
X269829989Y-172800004D03*
%TD*%
D20*
%TO.C,S15*%
X186839991Y-87000005D03*
D21*
X188109991Y-84460005D03*
D22*
X191919991Y-87000005D03*
D21*
X194459991Y-81920005D03*
D20*
X196999991Y-87000005D03*
%TD*%
D27*
%TO.C,D1*%
X130517739Y-164475653D03*
D24*
X138095993Y-163679149D03*
%TD*%
D20*
%TO.C,S24*%
X243839992Y-140000007D03*
D21*
X245109992Y-137460007D03*
D22*
X248919992Y-140000007D03*
D21*
X251459992Y-134920007D03*
D20*
X253999992Y-140000007D03*
%TD*%
D23*
%TO.C,D11*%
X169109990Y-95000003D03*
D24*
X176729990Y-95000003D03*
%TD*%
D23*
%TO.C,D16*%
X207109991Y-152000008D03*
D24*
X214729991Y-152000008D03*
%TD*%
D25*
%TO.C,D7*%
X146785100Y-102306546D03*
D24*
X154394658Y-101907746D03*
%TD*%
D20*
%TO.C,S18*%
X205839997Y-109000002D03*
D21*
X207109997Y-106460002D03*
D22*
X210919997Y-109000002D03*
D21*
X213459997Y-103920002D03*
D20*
X215999997Y-109000002D03*
%TD*%
D28*
%TO.C,JST1*%
X241669995Y-126050002D03*
D29*
X241669993Y-128050002D03*
%TD*%
D23*
%TO.C,D15*%
X188109988Y-92000009D03*
D24*
X195729988Y-92000009D03*
%TD*%
D20*
%TO.C,S9*%
X167839994Y-128000006D03*
D21*
X169109994Y-125460006D03*
D22*
X172919994Y-128000006D03*
D21*
X175459994Y-122920006D03*
D20*
X177999994Y-128000006D03*
%TD*%
%TO.C,S8*%
X167839993Y-146999999D03*
D21*
X169109993Y-144459999D03*
D22*
X172919993Y-146999999D03*
D21*
X175459993Y-141919999D03*
D20*
X177999993Y-146999999D03*
%TD*%
D23*
%TO.C,D22*%
X226109991Y-117000000D03*
D24*
X233729991Y-117000000D03*
%TD*%
D20*
%TO.C,S10*%
X167839993Y-109000001D03*
D21*
X169109993Y-106460001D03*
D22*
X172919993Y-109000001D03*
D21*
X175459993Y-103920001D03*
D20*
X177999993Y-109000001D03*
%TD*%
%TO.C,S6*%
X146249540Y-116353829D03*
D21*
X147384866Y-113750843D03*
D22*
X151322578Y-116087962D03*
D21*
X153593230Y-110881991D03*
D20*
X156395616Y-115822095D03*
%TD*%
D23*
%TO.C,D23*%
X226109993Y-98000003D03*
D24*
X233729993Y-98000003D03*
%TD*%
D20*
%TO.C,S22*%
X224839994Y-112000001D03*
D21*
X226109994Y-109460001D03*
D22*
X229919994Y-112000001D03*
D21*
X232459994Y-106920001D03*
D20*
X234999994Y-112000001D03*
%TD*%
%TO.C,S21*%
X224839997Y-131000002D03*
D21*
X226109997Y-128460002D03*
D22*
X229919997Y-131000002D03*
D21*
X232459997Y-125920002D03*
D20*
X234999997Y-131000002D03*
%TD*%
%TO.C,S11*%
X167839994Y-90000009D03*
D21*
X169109994Y-87460009D03*
D22*
X172919994Y-90000009D03*
D21*
X175459994Y-84920009D03*
D20*
X177999994Y-90000009D03*
%TD*%
%TO.C,S23*%
X224839989Y-93000004D03*
D21*
X226109989Y-90460004D03*
D22*
X229919989Y-93000004D03*
D21*
X232459989Y-87920004D03*
D20*
X234999989Y-93000004D03*
%TD*%
D27*
%TO.C,D3*%
X126545653Y-126683826D03*
D24*
X134123907Y-125887322D03*
%TD*%
D20*
%TO.C,S2*%
X126746013Y-140739879D03*
D21*
X127743553Y-138081042D03*
D22*
X131798184Y-140208874D03*
D21*
X133793265Y-134891200D03*
D20*
X136850355Y-139677869D03*
%TD*%
D27*
%TO.C,D2*%
X128531698Y-145579741D03*
D24*
X136109952Y-144783237D03*
%TD*%
D23*
%TO.C,D20*%
X226109989Y-155000007D03*
D24*
X233729989Y-155000007D03*
%TD*%
D20*
%TO.C,S16*%
X205839992Y-147000003D03*
D21*
X207109992Y-144460003D03*
D22*
X210919992Y-147000003D03*
D21*
X213459992Y-141920003D03*
D20*
X215999992Y-147000003D03*
%TD*%
%TO.C,S19*%
X205839988Y-90000001D03*
D21*
X207109988Y-87460001D03*
D22*
X210919988Y-90000001D03*
D21*
X213459988Y-84920001D03*
D20*
X215999988Y-90000001D03*
%TD*%
D30*
%TO.C,D26*%
X238709214Y-180263844D03*
D24*
X245723460Y-183241218D03*
%TD*%
D25*
%TO.C,D5*%
X148773869Y-140254467D03*
D24*
X156383427Y-139855667D03*
%TD*%
D23*
%TO.C,D12*%
X188109993Y-148999999D03*
D24*
X195729993Y-148999999D03*
%TD*%
D25*
%TO.C,D6*%
X147779489Y-121280507D03*
D24*
X155389047Y-120881707D03*
%TD*%
D20*
%TO.C,S1*%
X128732049Y-159635792D03*
D21*
X129729589Y-156976955D03*
D22*
X133784220Y-159104787D03*
D21*
X135779301Y-153787113D03*
D20*
X138836391Y-158573782D03*
%TD*%
%TO.C,S12*%
X186839990Y-143999997D03*
D21*
X188109990Y-141459997D03*
D22*
X191919990Y-143999997D03*
D21*
X194459990Y-138919997D03*
D20*
X196999990Y-143999997D03*
%TD*%
%TO.C,S17*%
X205840000Y-128000000D03*
D21*
X207110000Y-125460000D03*
D22*
X210920000Y-128000000D03*
D21*
X213460000Y-122920000D03*
D20*
X216000000Y-128000000D03*
%TD*%
M02*
