%TF.GenerationSoftware,KiCad,Pcbnew,9.0.0*%
%TF.CreationDate,2025-04-09T21:01:40+02:00*%
%TF.ProjectId,left,6c656674-2e6b-4696-9361-645f70636258,1*%
%TF.SameCoordinates,Original*%
%TF.FileFunction,Soldermask,Bot*%
%TF.FilePolarity,Negative*%
%FSLAX46Y46*%
G04 Gerber Fmt 4.6, Leading zero omitted, Abs format (unit mm)*
G04 Created by KiCad (PCBNEW 9.0.0) date 2025-04-09 21:01:40*
%MOMM*%
%LPD*%
G01*
G04 APERTURE LIST*
G04 Aperture macros list*
%AMRoundRect*
0 Rectangle with rounded corners*
0 $1 Rounding radius*
0 $2 $3 $4 $5 $6 $7 $8 $9 X,Y pos of 4 corners*
0 Add a 4 corners polygon primitive as box body*
4,1,4,$2,$3,$4,$5,$6,$7,$8,$9,$2,$3,0*
0 Add four circle primitives for the rounded corners*
1,1,$1+$1,$2,$3*
1,1,$1+$1,$4,$5*
1,1,$1+$1,$6,$7*
1,1,$1+$1,$8,$9*
0 Add four rect primitives between the rounded corners*
20,1,$1+$1,$2,$3,$4,$5,0*
20,1,$1+$1,$4,$5,$6,$7,0*
20,1,$1+$1,$6,$7,$8,$9,0*
20,1,$1+$1,$8,$9,$2,$3,0*%
%AMFreePoly0*
4,1,15,1.095355,1.135355,1.535355,0.695355,1.550000,0.660000,1.550000,-1.100000,1.535355,-1.135355,1.500000,-1.150000,-1.500000,-1.150000,-1.535355,-1.135355,-1.550000,-1.100000,-1.550000,0.660000,-1.535355,0.695355,-1.095355,1.135355,-1.060000,1.150000,1.060000,1.150000,1.095355,1.135355,1.095355,1.135355,$1*%
%AMFreePoly1*
4,1,15,1.535355,1.135355,1.550000,1.100000,1.550000,-0.660000,1.535355,-0.695355,1.095355,-1.135355,1.060000,-1.150000,-1.060000,-1.150000,-1.095355,-1.135355,-1.535355,-0.695355,-1.550000,-0.660000,-1.550000,1.100000,-1.535355,1.135355,-1.500000,1.150000,1.500000,1.150000,1.535355,1.135355,1.535355,1.135355,$1*%
G04 Aperture macros list end*
%ADD10FreePoly0,90.000000*%
%ADD11FreePoly1,90.000000*%
%ADD12O,1.700000X1.200000*%
%ADD13C,7.300000*%
%ADD14C,1.800000*%
%ADD15O,1.800000X1.800000*%
%ADD16C,1.000000*%
%ADD17C,2.000000*%
%ADD18C,3.100000*%
%ADD19C,4.200000*%
%ADD20RoundRect,0.050000X-1.275000X-1.250000X1.275000X-1.250000X1.275000X1.250000X-1.275000X1.250000X0*%
%ADD21RoundRect,0.050000X-0.889000X-0.889000X0.889000X-0.889000X0.889000X0.889000X-0.889000X0.889000X0*%
%ADD22RoundRect,0.050000X-0.450000X-0.600000X0.450000X-0.600000X0.450000X0.600000X-0.450000X0.600000X0*%
%ADD23C,2.005000*%
%ADD24RoundRect,0.050000X-1.137355X-1.376426X1.398676X-1.109879X1.137355X1.376426X-1.398676X1.109879X0*%
%ADD25RoundRect,0.050000X-0.841255X-0.934308X0.934308X-0.841255X0.841255X0.934308X-0.934308X0.841255X0*%
%ADD26RoundRect,0.050000X-0.417982X-0.622729X0.480785X-0.575627X0.417982X0.622729X-0.480785X0.575627X0*%
%ADD27RoundRect,0.050000X-1.207833X-1.315015X1.338673X-1.181559X1.207833X1.315015X-1.338673X1.181559X0*%
%ADD28RoundRect,0.050000X-1.784864X0.048835X-0.013485X-1.785481X1.784864X-0.048835X0.013485X1.785481X0*%
%ADD29RoundRect,0.050000X-1.257044X0.021942X-0.021942X-1.257044X1.257044X-0.021942X0.021942X1.257044X0*%
%ADD30RoundRect,0.050000X-0.744200X-0.093092X-0.119008X-0.740498X0.744200X0.093092X0.119008X0.740498X0*%
%ADD31RoundRect,0.050000X-1.662058X-0.652449X0.685230X-1.648813X1.662058X0.652449X-0.685230X1.648813X0*%
%ADD32RoundRect,0.050000X-0.791204X-0.977056X0.977056X-0.791204X0.791204X0.977056X-0.977056X0.791204X0*%
%ADD33RoundRect,0.050000X-0.384818X-0.643751X0.510252X-0.549675X0.384818X0.643751X-0.510252X0.549675X0*%
%ADD34RoundRect,0.260000X0.665000X-0.390000X0.665000X0.390000X-0.665000X0.390000X-0.665000X-0.390000X0*%
%ADD35O,1.850000X1.300000*%
%ADD36RoundRect,0.050000X-1.165689X-0.470969X0.470969X-1.165689X1.165689X0.470969X-0.470969X1.165689X0*%
%ADD37RoundRect,0.050000X-0.648666X-0.376474X0.179789X-0.728132X0.648666X0.376474X-0.179789X0.728132X0*%
G04 APERTURE END LIST*
D10*
%TO.C,RE1*%
X271619986Y-162800002D03*
D11*
X260419986Y-162800002D03*
D12*
X263519986Y-155300002D03*
X266019986Y-155300002D03*
X268519986Y-155300002D03*
X268519986Y-169800002D03*
X263519986Y-169800002D03*
%TD*%
D13*
%TO.C,H3*%
X220419997Y-99000003D03*
%TD*%
%TO.C,H1*%
X163419998Y-99500002D03*
%TD*%
D14*
%TO.C,MCU1*%
X261289995Y-78850002D03*
X261289995Y-81390002D03*
X261289995Y-83930002D03*
X261289993Y-86470002D03*
X261289995Y-89010002D03*
X261289995Y-91550002D03*
X261289995Y-94090002D03*
X261289994Y-96630002D03*
X261289995Y-99170002D03*
X261289995Y-101710002D03*
X261289995Y-104250002D03*
X261289995Y-106789998D03*
X246049996Y-106790002D03*
X246049995Y-104250002D03*
X246049995Y-101710002D03*
X246049995Y-99170002D03*
X246049997Y-96630002D03*
X246049995Y-94090002D03*
X246049995Y-91550002D03*
X246049995Y-89010002D03*
X246049996Y-86470002D03*
X246049995Y-83930002D03*
X246049995Y-81390002D03*
X246049995Y-78850002D03*
%TD*%
D15*
%TO.C,DISP1*%
X248589989Y-111400005D03*
X251129991Y-111400005D03*
X253669991Y-111400005D03*
X256209991Y-111400005D03*
D14*
X258749992Y-111400005D03*
%TD*%
D13*
%TO.C,H5*%
X274019994Y-177800002D03*
%TD*%
D16*
%TO.C,PWR1*%
X236419990Y-76225005D03*
X239419990Y-76225004D03*
%TD*%
D13*
%TO.C,H4*%
X220419994Y-136999995D03*
%TD*%
%TO.C,H2*%
X163419988Y-137500004D03*
%TD*%
D17*
%TO.C,S13*%
X186839992Y-124999996D03*
D18*
X188109992Y-122459996D03*
D19*
X191919992Y-124999996D03*
D18*
X194459992Y-119919996D03*
D17*
X196999992Y-124999996D03*
D20*
X184834992Y-122459996D03*
X197761992Y-119919996D03*
%TD*%
D17*
%TO.C,S25*%
X215339996Y-172650005D03*
D18*
X216609996Y-170110005D03*
D19*
X220419996Y-172650005D03*
D18*
X222959996Y-167570005D03*
D17*
X225499996Y-172650005D03*
D20*
X213334996Y-170110005D03*
X226261996Y-167570005D03*
%TD*%
D21*
%TO.C,D9*%
X169110000Y-133000004D03*
D22*
X171270000Y-133000004D03*
X174570000Y-133000004D03*
D23*
X176730000Y-133000004D03*
%TD*%
D17*
%TO.C,S3*%
X124759964Y-121843964D03*
D18*
X125757504Y-119185127D03*
D19*
X129812135Y-121312959D03*
D18*
X131807216Y-115995285D03*
D17*
X134864306Y-120781954D03*
D24*
X122500445Y-119527458D03*
X135091127Y-115650131D03*
%TD*%
D21*
%TO.C,D19*%
X207109994Y-95000008D03*
D22*
X209269994Y-95000008D03*
X212569994Y-95000008D03*
D23*
X214729994Y-95000008D03*
%TD*%
D21*
%TO.C,D17*%
X207109992Y-132999993D03*
D22*
X209269992Y-132999993D03*
X212569992Y-132999993D03*
D23*
X214729992Y-132999993D03*
%TD*%
D25*
%TO.C,D4*%
X149768253Y-159228431D03*
D26*
X151925293Y-159115385D03*
X155220771Y-158942677D03*
D23*
X157377811Y-158829631D03*
%TD*%
D17*
%TO.C,S5*%
X147243927Y-135327784D03*
D18*
X148379253Y-132724798D03*
D19*
X152316965Y-135061917D03*
D18*
X154587617Y-129855946D03*
D17*
X157390003Y-134796050D03*
D27*
X145108741Y-132896198D03*
X157885092Y-129683132D03*
%TD*%
D21*
%TO.C,D18*%
X207109994Y-113999999D03*
D22*
X209269994Y-113999999D03*
X212569994Y-113999999D03*
D23*
X214729994Y-113999999D03*
%TD*%
D21*
%TO.C,D21*%
X226109991Y-136000001D03*
D22*
X228269991Y-136000001D03*
X231569991Y-136000001D03*
D23*
X233729991Y-136000001D03*
%TD*%
D17*
%TO.C,S4*%
X148238311Y-154301748D03*
D18*
X149373637Y-151698762D03*
D19*
X153311349Y-154035881D03*
D18*
X155582001Y-148829910D03*
D17*
X158384387Y-153770014D03*
D27*
X146103125Y-151870162D03*
X158879476Y-148657096D03*
%TD*%
D17*
%TO.C,S27*%
X260744828Y-186917890D03*
D18*
X263454168Y-186067019D03*
D19*
X264273693Y-190572136D03*
D18*
X269692375Y-188870395D03*
D17*
X267802558Y-194226382D03*
D28*
X261179162Y-183711181D03*
X271986133Y-191245655D03*
%TD*%
D17*
%TO.C,S14*%
X186839994Y-106000000D03*
D18*
X188109994Y-103460000D03*
D19*
X191919994Y-106000000D03*
D18*
X194459994Y-100920000D03*
D17*
X196999994Y-106000000D03*
D20*
X184834994Y-103460000D03*
X197761994Y-100920000D03*
%TD*%
D21*
%TO.C,D13*%
X188109995Y-129999998D03*
D22*
X190269995Y-129999998D03*
X193569995Y-129999998D03*
D23*
X195729995Y-129999998D03*
%TD*%
D17*
%TO.C,S7*%
X145255163Y-97379872D03*
D18*
X146390489Y-94776886D03*
D19*
X150328201Y-97114005D03*
D18*
X152598853Y-91908034D03*
D17*
X155401239Y-96848138D03*
D27*
X143119977Y-94948286D03*
X155896328Y-91735220D03*
%TD*%
D21*
%TO.C,D25*%
X216609991Y-177650000D03*
D22*
X218769991Y-177650000D03*
X222069991Y-177650000D03*
D23*
X224229991Y-177650000D03*
%TD*%
D21*
%TO.C,D8*%
X169109989Y-152000000D03*
D22*
X171269989Y-152000000D03*
X174569989Y-152000000D03*
D23*
X176729989Y-152000000D03*
%TD*%
D29*
%TO.C,D27*%
X258030348Y-191304739D03*
D30*
X259530810Y-192858513D03*
X261823182Y-195232335D03*
D23*
X263323644Y-196786109D03*
%TD*%
D21*
%TO.C,D14*%
X188109993Y-111000002D03*
D22*
X190269993Y-111000002D03*
X193569993Y-111000002D03*
D23*
X195729993Y-111000002D03*
%TD*%
D21*
%TO.C,D24*%
X245109991Y-144999995D03*
D22*
X247269991Y-144999995D03*
X250569991Y-144999995D03*
D23*
X252729991Y-144999995D03*
%TD*%
D17*
%TO.C,S26*%
X239493828Y-175165090D03*
D18*
X241655326Y-173323236D03*
D19*
X244169993Y-177150004D03*
D18*
X248492989Y-173466296D03*
D17*
X248846158Y-179134918D03*
D31*
X238640673Y-172043592D03*
X251532496Y-174756492D03*
%TD*%
D17*
%TO.C,S20*%
X224839988Y-149999999D03*
D18*
X226109988Y-147459999D03*
D19*
X229919988Y-149999999D03*
D18*
X232459988Y-144919999D03*
D17*
X234999988Y-149999999D03*
D20*
X222834988Y-147459999D03*
X235761988Y-144919999D03*
%TD*%
D21*
%TO.C,D10*%
X169109997Y-114000004D03*
D22*
X171269997Y-114000004D03*
X174569997Y-114000004D03*
D23*
X176729997Y-114000004D03*
%TD*%
D21*
%TO.C,D28*%
X262209989Y-172800004D03*
D22*
X264369989Y-172800004D03*
X267669989Y-172800004D03*
D23*
X269829989Y-172800004D03*
%TD*%
D17*
%TO.C,S15*%
X186839991Y-87000005D03*
D18*
X188109991Y-84460005D03*
D19*
X191919991Y-87000005D03*
D18*
X194459991Y-81920005D03*
D17*
X196999991Y-87000005D03*
D20*
X184834991Y-84460005D03*
X197761991Y-81920005D03*
%TD*%
D32*
%TO.C,D1*%
X130517739Y-164475653D03*
D33*
X132665905Y-164249873D03*
X135947827Y-163904929D03*
D23*
X138095993Y-163679149D03*
%TD*%
D17*
%TO.C,S24*%
X243839992Y-140000007D03*
D18*
X245109992Y-137460007D03*
D19*
X248919992Y-140000007D03*
D18*
X251459992Y-134920007D03*
D17*
X253999992Y-140000007D03*
D20*
X241834992Y-137460007D03*
X254761992Y-134920007D03*
%TD*%
D21*
%TO.C,D11*%
X169109990Y-95000003D03*
D22*
X171269990Y-95000003D03*
X174569990Y-95000003D03*
D23*
X176729990Y-95000003D03*
%TD*%
D21*
%TO.C,D16*%
X207109991Y-152000008D03*
D22*
X209269991Y-152000008D03*
X212569991Y-152000008D03*
D23*
X214729991Y-152000008D03*
%TD*%
D25*
%TO.C,D7*%
X146785100Y-102306546D03*
D26*
X148942140Y-102193500D03*
X152237618Y-102020792D03*
D23*
X154394658Y-101907746D03*
%TD*%
D17*
%TO.C,S18*%
X205839997Y-109000002D03*
D18*
X207109997Y-106460002D03*
D19*
X210919997Y-109000002D03*
D18*
X213459997Y-103920002D03*
D17*
X215999997Y-109000002D03*
D20*
X203834997Y-106460002D03*
X216761997Y-103920002D03*
%TD*%
D34*
%TO.C,JST1*%
X241669995Y-126050002D03*
D35*
X241669993Y-128050002D03*
%TD*%
D21*
%TO.C,D15*%
X188109988Y-92000009D03*
D22*
X190269988Y-92000009D03*
X193569988Y-92000009D03*
D23*
X195729988Y-92000009D03*
%TD*%
D17*
%TO.C,S9*%
X167839994Y-128000006D03*
D18*
X169109994Y-125460006D03*
D19*
X172919994Y-128000006D03*
D18*
X175459994Y-122920006D03*
D17*
X177999994Y-128000006D03*
D20*
X165834994Y-125460006D03*
X178761994Y-122920006D03*
%TD*%
D17*
%TO.C,S8*%
X167839993Y-146999999D03*
D18*
X169109993Y-144459999D03*
D19*
X172919993Y-146999999D03*
D18*
X175459993Y-141919999D03*
D17*
X177999993Y-146999999D03*
D20*
X165834993Y-144459999D03*
X178761993Y-141919999D03*
%TD*%
D21*
%TO.C,D22*%
X226109991Y-117000000D03*
D22*
X228269991Y-117000000D03*
X231569991Y-117000000D03*
D23*
X233729991Y-117000000D03*
%TD*%
D17*
%TO.C,S10*%
X167839993Y-109000001D03*
D18*
X169109993Y-106460001D03*
D19*
X172919993Y-109000001D03*
D18*
X175459993Y-103920001D03*
D17*
X177999993Y-109000001D03*
D20*
X165834993Y-106460001D03*
X178761993Y-103920001D03*
%TD*%
D17*
%TO.C,S6*%
X146249540Y-116353829D03*
D18*
X147384866Y-113750843D03*
D19*
X151322578Y-116087962D03*
D18*
X153593230Y-110881991D03*
D17*
X156395616Y-115822095D03*
D27*
X144114354Y-113922243D03*
X156890705Y-110709177D03*
%TD*%
D21*
%TO.C,D23*%
X226109993Y-98000003D03*
D22*
X228269993Y-98000003D03*
X231569993Y-98000003D03*
D23*
X233729993Y-98000003D03*
%TD*%
D17*
%TO.C,S22*%
X224839994Y-112000001D03*
D18*
X226109994Y-109460001D03*
D19*
X229919994Y-112000001D03*
D18*
X232459994Y-106920001D03*
D17*
X234999994Y-112000001D03*
D20*
X222834994Y-109460001D03*
X235761994Y-106920001D03*
%TD*%
D17*
%TO.C,S21*%
X224839997Y-131000002D03*
D18*
X226109997Y-128460002D03*
D19*
X229919997Y-131000002D03*
D18*
X232459997Y-125920002D03*
D17*
X234999997Y-131000002D03*
D20*
X222834997Y-128460002D03*
X235761997Y-125920002D03*
%TD*%
D17*
%TO.C,S11*%
X167839994Y-90000009D03*
D18*
X169109994Y-87460009D03*
D19*
X172919994Y-90000009D03*
D18*
X175459994Y-84920009D03*
D17*
X177999994Y-90000009D03*
D20*
X165834994Y-87460009D03*
X178761994Y-84920009D03*
%TD*%
D17*
%TO.C,S23*%
X224839989Y-93000004D03*
D18*
X226109989Y-90460004D03*
D19*
X229919989Y-93000004D03*
D18*
X232459989Y-87920004D03*
D17*
X234999989Y-93000004D03*
D20*
X222834989Y-90460004D03*
X235761989Y-87920004D03*
%TD*%
D32*
%TO.C,D3*%
X126545653Y-126683826D03*
D33*
X128693819Y-126458046D03*
X131975741Y-126113102D03*
D23*
X134123907Y-125887322D03*
%TD*%
D17*
%TO.C,S2*%
X126746013Y-140739879D03*
D18*
X127743553Y-138081042D03*
D19*
X131798184Y-140208874D03*
D18*
X133793265Y-134891200D03*
D17*
X136850355Y-139677869D03*
D24*
X124486494Y-138423373D03*
X137077176Y-134546046D03*
%TD*%
D32*
%TO.C,D2*%
X128531698Y-145579741D03*
D33*
X130679864Y-145353961D03*
X133961786Y-145009017D03*
D23*
X136109952Y-144783237D03*
%TD*%
D21*
%TO.C,D20*%
X226109989Y-155000007D03*
D22*
X228269989Y-155000007D03*
X231569989Y-155000007D03*
D23*
X233729989Y-155000007D03*
%TD*%
D17*
%TO.C,S16*%
X205839992Y-147000003D03*
D18*
X207109992Y-144460003D03*
D19*
X210919992Y-147000003D03*
D18*
X213459992Y-141920003D03*
D17*
X215999992Y-147000003D03*
D20*
X203834992Y-144460003D03*
X216761992Y-141920003D03*
%TD*%
D17*
%TO.C,S19*%
X205839988Y-90000001D03*
D18*
X207109988Y-87460001D03*
D19*
X210919988Y-90000001D03*
D18*
X213459988Y-84920001D03*
D17*
X215999988Y-90000001D03*
D20*
X203834988Y-87460001D03*
X216761988Y-84920001D03*
%TD*%
D36*
%TO.C,D26*%
X238709214Y-180263844D03*
D37*
X240697504Y-181107825D03*
X243735170Y-182397237D03*
D23*
X245723460Y-183241218D03*
%TD*%
D25*
%TO.C,D5*%
X148773869Y-140254467D03*
D26*
X150930909Y-140141421D03*
X154226387Y-139968713D03*
D23*
X156383427Y-139855667D03*
%TD*%
D21*
%TO.C,D12*%
X188109993Y-148999999D03*
D22*
X190269993Y-148999999D03*
X193569993Y-148999999D03*
D23*
X195729993Y-148999999D03*
%TD*%
D25*
%TO.C,D6*%
X147779489Y-121280507D03*
D26*
X149936529Y-121167461D03*
X153232007Y-120994753D03*
D23*
X155389047Y-120881707D03*
%TD*%
D17*
%TO.C,S1*%
X128732049Y-159635792D03*
D18*
X129729589Y-156976955D03*
D19*
X133784220Y-159104787D03*
D18*
X135779301Y-153787113D03*
D17*
X138836391Y-158573782D03*
D24*
X126472530Y-157319286D03*
X139063212Y-153441959D03*
%TD*%
D17*
%TO.C,S12*%
X186839990Y-143999997D03*
D18*
X188109990Y-141459997D03*
D19*
X191919990Y-143999997D03*
D18*
X194459990Y-138919997D03*
D17*
X196999990Y-143999997D03*
D20*
X184834990Y-141459997D03*
X197761990Y-138919997D03*
%TD*%
D17*
%TO.C,S17*%
X205840000Y-128000000D03*
D18*
X207110000Y-125460000D03*
D19*
X210920000Y-128000000D03*
D18*
X213460000Y-122920000D03*
D17*
X216000000Y-128000000D03*
D20*
X203835000Y-125460000D03*
X216762000Y-122920000D03*
%TD*%
M02*
