M48
; DRILL file {KiCad 9.0.0} date 2025-04-09T21:02:47+0200
; FORMAT={-:-/ absolute / metric / decimal}
; #@! TF.CreationDate,2025-04-09T21:02:47+02:00
; #@! TF.GenerationSoftware,Kicad,Pcbnew,9.0.0
; #@! TF.FileFunction,Plated,1,2,PTH
FMAT,2
METRIC
; #@! TA.AperFunction,Plated,PTH,ViaDrill
T1C0.300
; #@! TA.AperFunction,Plated,PTH,ComponentDrill
T2C0.500
; #@! TA.AperFunction,Plated,PTH,ComponentDrill
T3C0.750
; #@! TA.AperFunction,Plated,PTH,ComponentDrill
T4C0.991
; #@! TA.AperFunction,Plated,PTH,ComponentDrill
T5C1.000
; #@! TA.AperFunction,Plated,PTH,ComponentDrill
T6C1.500
; #@! TA.AperFunction,Plated,PTH,ComponentDrill
T7C3.200
%
G90
G05
T1
X235.664Y-79.595
X236.471Y-138.195
X237.122Y-157.294
X241.664Y-141.274
X253.0Y-91.75
X254.0Y-90.75
X255.0Y-89.75
X255.0Y-93.25
X255.0Y-94.75
X256.0Y-92.25
X273.138Y-169.8
T3
X241.67Y-128.05
X241.67Y-126.05
T4
X126.546Y-126.684
X128.532Y-145.58
X130.518Y-164.476
X134.124Y-125.887
X136.11Y-144.783
X138.096Y-163.679
X146.785Y-102.307
X147.779Y-121.281
X148.774Y-140.254
X149.768Y-159.228
X154.395Y-101.908
X155.389Y-120.882
X156.383Y-139.856
X157.378Y-158.83
X169.11Y-152.0
X169.11Y-95.0
X169.11Y-114.0
X169.11Y-133.0
X176.73Y-152.0
X176.73Y-95.0
X176.73Y-114.0
X176.73Y-133.0
X188.11Y-92.0
X188.11Y-111.0
X188.11Y-149.0
X188.11Y-130.0
X195.73Y-92.0
X195.73Y-111.0
X195.73Y-149.0
X195.73Y-130.0
X207.11Y-152.0
X207.11Y-133.0
X207.11Y-95.0
X207.11Y-114.0
X214.73Y-152.0
X214.73Y-133.0
X214.73Y-95.0
X214.73Y-114.0
X216.61Y-177.65
X224.23Y-177.65
X226.11Y-155.0
X226.11Y-117.0
X226.11Y-136.0
X226.11Y-98.0
X233.73Y-155.0
X233.73Y-117.0
X233.73Y-136.0
X233.73Y-98.0
X238.709Y-180.264
X245.11Y-145.0
X245.723Y-183.241
X252.73Y-145.0
X258.03Y-191.305
X262.21Y-172.8
X263.324Y-196.786
X269.83Y-172.8
T5
X246.05Y-78.85
X246.05Y-81.39
X246.05Y-83.93
X246.05Y-89.01
X246.05Y-91.55
X246.05Y-94.09
X246.05Y-99.17
X246.05Y-101.71
X246.05Y-104.25
X246.05Y-86.47
X246.05Y-106.79
X246.05Y-96.63
X248.59Y-111.4
X251.13Y-111.4
X253.67Y-111.4
X256.21Y-111.4
X258.75Y-111.4
X261.29Y-86.47
X261.29Y-96.63
X261.29Y-78.85
X261.29Y-81.39
X261.29Y-83.93
X261.29Y-89.01
X261.29Y-91.55
X261.29Y-94.09
X261.29Y-99.17
X261.29Y-101.71
X261.29Y-104.25
X261.29Y-106.79
T7
X163.42Y-137.5
X163.42Y-99.5
X220.42Y-137.0
X220.42Y-99.0
X274.02Y-177.8
T2
G00X263.77Y-155.3
M15
G01X263.27Y-155.3
M16
G05
G00X263.77Y-169.8
M15
G01X263.27Y-169.8
M16
G05
G00X266.27Y-155.3
M15
G01X265.77Y-155.3
M16
G05
G00X268.77Y-155.3
M15
G01X268.27Y-155.3
M16
G05
G00X268.77Y-169.8
M15
G01X268.27Y-169.8
M16
G05
T6
G00X260.42Y-163.2
M15
G01X260.42Y-162.4
M16
G05
G00X271.62Y-163.2
M15
G01X271.62Y-162.4
M16
G05
M30
