M48
; DRILL file {KiCad 9.0.0} date 2025-04-09T21:02:47+0200
; FORMAT={-:-/ absolute / metric / decimal}
; #@! TF.CreationDate,2025-04-09T21:02:47+02:00
; #@! TF.GenerationSoftware,Kicad,Pcbnew,9.0.0
; #@! TF.FileFunction,NonPlated,1,2,NPTH
FMAT,2
METRIC
; #@! TA.AperFunction,NonPlated,NPTH,ComponentDrill
T1C0.900
; #@! TA.AperFunction,NonPlated,NPTH,ComponentDrill
T2C1.900
; #@! TA.AperFunction,NonPlated,NPTH,ComponentDrill
T3C3.000
; #@! TA.AperFunction,NonPlated,NPTH,ComponentDrill
T4C4.100
%
G90
G05
T1
X236.42Y-76.225
X239.42Y-76.225
T2
X124.76Y-121.844
X126.746Y-140.74
X128.732Y-159.636
X134.864Y-120.782
X136.85Y-139.678
X138.836Y-158.574
X145.255Y-97.38
X146.25Y-116.354
X147.244Y-135.328
X148.238Y-154.302
X155.401Y-96.848
X156.396Y-115.822
X157.39Y-134.796
X158.384Y-153.77
X167.84Y-109.0
X167.84Y-147.0
X167.84Y-90.0
X167.84Y-128.0
X178.0Y-109.0
X178.0Y-147.0
X178.0Y-90.0
X178.0Y-128.0
X186.84Y-144.0
X186.84Y-87.0
X186.84Y-125.0
X186.84Y-106.0
X197.0Y-144.0
X197.0Y-87.0
X197.0Y-125.0
X197.0Y-106.0
X205.84Y-90.0
X205.84Y-147.0
X205.84Y-109.0
X205.84Y-128.0
X215.34Y-172.65
X216.0Y-90.0
X216.0Y-147.0
X216.0Y-109.0
X216.0Y-128.0
X224.84Y-150.0
X224.84Y-93.0
X224.84Y-112.0
X224.84Y-131.0
X225.5Y-172.65
X235.0Y-150.0
X235.0Y-93.0
X235.0Y-112.0
X235.0Y-131.0
X239.494Y-175.165
X243.84Y-140.0
X248.846Y-179.135
X254.0Y-140.0
X260.745Y-186.918
X267.803Y-194.226
T3
X125.758Y-119.185
X127.744Y-138.081
X129.73Y-156.977
X131.807Y-115.995
X133.793Y-134.891
X135.779Y-153.787
X146.39Y-94.777
X147.385Y-113.751
X148.379Y-132.725
X149.374Y-151.699
X152.599Y-91.908
X153.593Y-110.882
X154.588Y-129.856
X155.582Y-148.83
X169.11Y-106.46
X169.11Y-144.46
X169.11Y-87.46
X169.11Y-125.46
X175.46Y-103.92
X175.46Y-141.92
X175.46Y-84.92
X175.46Y-122.92
X188.11Y-141.46
X188.11Y-84.46
X188.11Y-122.46
X188.11Y-103.46
X194.46Y-138.92
X194.46Y-81.92
X194.46Y-119.92
X194.46Y-100.92
X207.11Y-87.46
X207.11Y-144.46
X207.11Y-106.46
X207.11Y-125.46
X213.46Y-84.92
X213.46Y-141.92
X213.46Y-103.92
X213.46Y-122.92
X216.61Y-170.11
X222.96Y-167.57
X226.11Y-147.46
X226.11Y-90.46
X226.11Y-109.46
X226.11Y-128.46
X232.46Y-144.92
X232.46Y-87.92
X232.46Y-106.92
X232.46Y-125.92
X241.655Y-173.323
X245.11Y-137.46
X248.493Y-173.466
X251.46Y-134.92
X263.454Y-186.067
X269.692Y-188.87
T4
X129.812Y-121.313
X131.798Y-140.209
X133.784Y-159.105
X150.328Y-97.114
X151.323Y-116.088
X152.317Y-135.062
X153.311Y-154.036
X172.92Y-109.0
X172.92Y-147.0
X172.92Y-90.0
X172.92Y-128.0
X191.92Y-144.0
X191.92Y-87.0
X191.92Y-125.0
X191.92Y-106.0
X210.92Y-90.0
X210.92Y-147.0
X210.92Y-109.0
X210.92Y-128.0
X220.42Y-172.65
X229.92Y-150.0
X229.92Y-93.0
X229.92Y-112.0
X229.92Y-131.0
X244.17Y-177.15
X248.92Y-140.0
X264.274Y-190.572
M30
