%TF.GenerationSoftware,KiCad,Pcbnew,9.0.0*%
%TF.CreationDate,2025-04-09T21:02:47+02:00*%
%TF.ProjectId,left,6c656674-2e6b-4696-9361-645f70636258,1*%
%TF.SameCoordinates,Original*%
%TF.FileFunction,Drillmap*%
%TF.FilePolarity,Positive*%
%FSLAX45Y45*%
G04 Gerber Fmt 4.5, Leading zero omitted, Abs format (unit mm)*
G04 Created by KiCad (PCBNEW 9.0.0) date 2025-04-09 21:02:47*
%MOMM*%
%LPD*%
G01*
G04 APERTURE LIST*
%ADD10C,0.150000*%
%ADD11C,0.200000*%
%ADD12C,0.100000*%
%ADD13C,0.190000*%
%ADD14C,0.300000*%
%ADD15C,0.410000*%
G04 APERTURE END LIST*
D10*
X26766818Y-14059322D02*
X27877222Y-14792705D01*
X13820792Y-10585157D02*
G75*
G02*
X13641990Y-10794901I-199702J-10843D01*
G01*
X24852722Y-19234180D02*
X23127957Y-18539483D01*
X16035545Y-8206420D02*
G75*
G02*
X15846014Y-8407053I-199995J-910D01*
G01*
X26250609Y-20649368D02*
X24921495Y-19280381D01*
X23053234Y-18525000D02*
X20981575Y-18525001D01*
X26479574Y-7432850D02*
G75*
G02*
X26679420Y-7632926I-154J-200000D01*
G01*
X16035544Y-8206420D02*
X16032912Y-7626059D01*
X16032912Y-7626059D02*
G75*
G02*
X16233059Y-7425160I199988J909D01*
G01*
X27967000Y-19137158D02*
G75*
G02*
X27908420Y-19278579I-199990J-3D01*
G01*
X27908420Y-19278579D02*
X26535526Y-20651474D01*
X17022438Y-16235943D02*
G75*
G02*
X17170859Y-16170004I148412J-134047D01*
G01*
X15972378Y-17299859D02*
X12436888Y-17295505D01*
X12436888Y-17295505D02*
G75*
G02*
X12238221Y-17116411I242J200005D01*
G01*
X16233059Y-7425151D02*
X26479574Y-7432850D01*
X23053234Y-18525000D02*
G75*
G02*
X23127957Y-18539483I-4J-200020D01*
G01*
X20577424Y-16170000D02*
G75*
G02*
X20777420Y-16369575I-4J-200000D01*
G01*
X17022438Y-16235943D02*
X16121045Y-17233916D01*
X20577424Y-16170000D02*
X17170859Y-16170000D01*
X27966999Y-14959591D02*
X27967000Y-19137158D01*
X13908706Y-8508583D02*
X15846014Y-8407053D01*
X12238230Y-17116410D02*
X11617316Y-11208809D01*
X11617316Y-11208809D02*
G75*
G02*
X11795316Y-10989005I198894J20909D01*
G01*
X26766818Y-14059322D02*
G75*
G02*
X26677040Y-13892360I110232J166892D01*
G01*
X16121045Y-17233916D02*
G75*
G02*
X15972378Y-17299855I-148415J134056D01*
G01*
X13719468Y-8719153D02*
G75*
G02*
X13908706Y-8508578I199712J10843D01*
G01*
X27877222Y-14792705D02*
G75*
G02*
X27966999Y-14959591I-110222J-166885D01*
G01*
X20981575Y-18525001D02*
G75*
G02*
X20781580Y-18325425I-5J199991D01*
G01*
X24852722Y-19234180D02*
G75*
G02*
X24921495Y-19280381I-74712J-185500D01*
G01*
X26679423Y-7632926D02*
X26677041Y-13892360D01*
X26535526Y-20651474D02*
G75*
G02*
X26250604Y-20649373I-141426J141414D01*
G01*
X13820792Y-10585157D02*
X13719468Y-8719153D01*
X11795315Y-10988998D02*
X13641991Y-10794905D01*
X20781576Y-18325425D02*
X20777423Y-16369575D01*
D11*
D12*
X23596999Y-7577500D02*
X23686999Y-7667500D01*
X23686999Y-7577500D02*
X23596999Y-7667500D01*
X23896999Y-7577500D02*
X23986999Y-7667500D01*
X23986999Y-7577500D02*
X23896999Y-7667500D01*
D13*
X12570996Y-12184396D02*
G75*
G02*
X12380996Y-12184396I-95000J0D01*
G01*
X12380996Y-12184396D02*
G75*
G02*
X12570996Y-12184396I95000J0D01*
G01*
X12769601Y-14073988D02*
G75*
G02*
X12579601Y-14073988I-95000J0D01*
G01*
X12579601Y-14073988D02*
G75*
G02*
X12769601Y-14073988I95000J0D01*
G01*
X12968205Y-15963579D02*
G75*
G02*
X12778205Y-15963579I-95000J0D01*
G01*
X12778205Y-15963579D02*
G75*
G02*
X12968205Y-15963579I95000J0D01*
G01*
X13581431Y-12078195D02*
G75*
G02*
X13391431Y-12078195I-95000J0D01*
G01*
X13391431Y-12078195D02*
G75*
G02*
X13581431Y-12078195I95000J0D01*
G01*
X13780035Y-13967787D02*
G75*
G02*
X13590035Y-13967787I-95000J0D01*
G01*
X13590035Y-13967787D02*
G75*
G02*
X13780035Y-13967787I95000J0D01*
G01*
X13978639Y-15857378D02*
G75*
G02*
X13788639Y-15857378I-95000J0D01*
G01*
X13788639Y-15857378D02*
G75*
G02*
X13978639Y-15857378I95000J0D01*
G01*
X14620516Y-9737987D02*
G75*
G02*
X14430516Y-9737987I-95000J0D01*
G01*
X14430516Y-9737987D02*
G75*
G02*
X14620516Y-9737987I95000J0D01*
G01*
X14719954Y-11635383D02*
G75*
G02*
X14529954Y-11635383I-95000J0D01*
G01*
X14529954Y-11635383D02*
G75*
G02*
X14719954Y-11635383I95000J0D01*
G01*
X14819393Y-13532778D02*
G75*
G02*
X14629393Y-13532778I-95000J0D01*
G01*
X14629393Y-13532778D02*
G75*
G02*
X14819393Y-13532778I95000J0D01*
G01*
X14918831Y-15430175D02*
G75*
G02*
X14728831Y-15430175I-95000J0D01*
G01*
X14728831Y-15430175D02*
G75*
G02*
X14918831Y-15430175I95000J0D01*
G01*
X15635124Y-9684814D02*
G75*
G02*
X15445124Y-9684814I-95000J0D01*
G01*
X15445124Y-9684814D02*
G75*
G02*
X15635124Y-9684814I95000J0D01*
G01*
X15734562Y-11582209D02*
G75*
G02*
X15544562Y-11582209I-95000J0D01*
G01*
X15544562Y-11582209D02*
G75*
G02*
X15734562Y-11582209I95000J0D01*
G01*
X15834000Y-13479605D02*
G75*
G02*
X15644000Y-13479605I-95000J0D01*
G01*
X15644000Y-13479605D02*
G75*
G02*
X15834000Y-13479605I95000J0D01*
G01*
X15933439Y-15377001D02*
G75*
G02*
X15743439Y-15377001I-95000J0D01*
G01*
X15743439Y-15377001D02*
G75*
G02*
X15933439Y-15377001I95000J0D01*
G01*
X16878999Y-10900000D02*
G75*
G02*
X16688999Y-10900000I-95000J0D01*
G01*
X16688999Y-10900000D02*
G75*
G02*
X16878999Y-10900000I95000J0D01*
G01*
X16878999Y-14700000D02*
G75*
G02*
X16688999Y-14700000I-95000J0D01*
G01*
X16688999Y-14700000D02*
G75*
G02*
X16878999Y-14700000I95000J0D01*
G01*
X16878999Y-9000001D02*
G75*
G02*
X16688999Y-9000001I-95000J0D01*
G01*
X16688999Y-9000001D02*
G75*
G02*
X16878999Y-9000001I95000J0D01*
G01*
X16878999Y-12800001D02*
G75*
G02*
X16688999Y-12800001I-95000J0D01*
G01*
X16688999Y-12800001D02*
G75*
G02*
X16878999Y-12800001I95000J0D01*
G01*
X17894999Y-10900000D02*
G75*
G02*
X17704999Y-10900000I-95000J0D01*
G01*
X17704999Y-10900000D02*
G75*
G02*
X17894999Y-10900000I95000J0D01*
G01*
X17894999Y-14700000D02*
G75*
G02*
X17704999Y-14700000I-95000J0D01*
G01*
X17704999Y-14700000D02*
G75*
G02*
X17894999Y-14700000I95000J0D01*
G01*
X17894999Y-9000001D02*
G75*
G02*
X17704999Y-9000001I-95000J0D01*
G01*
X17704999Y-9000001D02*
G75*
G02*
X17894999Y-9000001I95000J0D01*
G01*
X17894999Y-12800001D02*
G75*
G02*
X17704999Y-12800001I-95000J0D01*
G01*
X17704999Y-12800001D02*
G75*
G02*
X17894999Y-12800001I95000J0D01*
G01*
X18778999Y-14400000D02*
G75*
G02*
X18588999Y-14400000I-95000J0D01*
G01*
X18588999Y-14400000D02*
G75*
G02*
X18778999Y-14400000I95000J0D01*
G01*
X18778999Y-8700001D02*
G75*
G02*
X18588999Y-8700001I-95000J0D01*
G01*
X18588999Y-8700001D02*
G75*
G02*
X18778999Y-8700001I95000J0D01*
G01*
X18778999Y-12500000D02*
G75*
G02*
X18588999Y-12500000I-95000J0D01*
G01*
X18588999Y-12500000D02*
G75*
G02*
X18778999Y-12500000I95000J0D01*
G01*
X18778999Y-10600000D02*
G75*
G02*
X18588999Y-10600000I-95000J0D01*
G01*
X18588999Y-10600000D02*
G75*
G02*
X18778999Y-10600000I95000J0D01*
G01*
X19794999Y-14400000D02*
G75*
G02*
X19604999Y-14400000I-95000J0D01*
G01*
X19604999Y-14400000D02*
G75*
G02*
X19794999Y-14400000I95000J0D01*
G01*
X19794999Y-8700001D02*
G75*
G02*
X19604999Y-8700001I-95000J0D01*
G01*
X19604999Y-8700001D02*
G75*
G02*
X19794999Y-8700001I95000J0D01*
G01*
X19794999Y-12500000D02*
G75*
G02*
X19604999Y-12500000I-95000J0D01*
G01*
X19604999Y-12500000D02*
G75*
G02*
X19794999Y-12500000I95000J0D01*
G01*
X19794999Y-10600000D02*
G75*
G02*
X19604999Y-10600000I-95000J0D01*
G01*
X19604999Y-10600000D02*
G75*
G02*
X19794999Y-10600000I95000J0D01*
G01*
X20678999Y-9000000D02*
G75*
G02*
X20488999Y-9000000I-95000J0D01*
G01*
X20488999Y-9000000D02*
G75*
G02*
X20678999Y-9000000I95000J0D01*
G01*
X20678999Y-14700000D02*
G75*
G02*
X20488999Y-14700000I-95000J0D01*
G01*
X20488999Y-14700000D02*
G75*
G02*
X20678999Y-14700000I95000J0D01*
G01*
X20679000Y-10900000D02*
G75*
G02*
X20489000Y-10900000I-95000J0D01*
G01*
X20489000Y-10900000D02*
G75*
G02*
X20679000Y-10900000I95000J0D01*
G01*
X20679000Y-12800000D02*
G75*
G02*
X20489000Y-12800000I-95000J0D01*
G01*
X20489000Y-12800000D02*
G75*
G02*
X20679000Y-12800000I95000J0D01*
G01*
X21629000Y-17265001D02*
G75*
G02*
X21439000Y-17265001I-95000J0D01*
G01*
X21439000Y-17265001D02*
G75*
G02*
X21629000Y-17265001I95000J0D01*
G01*
X21694999Y-9000000D02*
G75*
G02*
X21504999Y-9000000I-95000J0D01*
G01*
X21504999Y-9000000D02*
G75*
G02*
X21694999Y-9000000I95000J0D01*
G01*
X21694999Y-14700000D02*
G75*
G02*
X21504999Y-14700000I-95000J0D01*
G01*
X21504999Y-14700000D02*
G75*
G02*
X21694999Y-14700000I95000J0D01*
G01*
X21695000Y-10900000D02*
G75*
G02*
X21505000Y-10900000I-95000J0D01*
G01*
X21505000Y-10900000D02*
G75*
G02*
X21695000Y-10900000I95000J0D01*
G01*
X21695000Y-12800000D02*
G75*
G02*
X21505000Y-12800000I-95000J0D01*
G01*
X21505000Y-12800000D02*
G75*
G02*
X21695000Y-12800000I95000J0D01*
G01*
X22578999Y-15000000D02*
G75*
G02*
X22388999Y-15000000I-95000J0D01*
G01*
X22388999Y-15000000D02*
G75*
G02*
X22578999Y-15000000I95000J0D01*
G01*
X22578999Y-9300000D02*
G75*
G02*
X22388999Y-9300000I-95000J0D01*
G01*
X22388999Y-9300000D02*
G75*
G02*
X22578999Y-9300000I95000J0D01*
G01*
X22578999Y-11200000D02*
G75*
G02*
X22388999Y-11200000I-95000J0D01*
G01*
X22388999Y-11200000D02*
G75*
G02*
X22578999Y-11200000I95000J0D01*
G01*
X22579000Y-13100000D02*
G75*
G02*
X22389000Y-13100000I-95000J0D01*
G01*
X22389000Y-13100000D02*
G75*
G02*
X22579000Y-13100000I95000J0D01*
G01*
X22645000Y-17265001D02*
G75*
G02*
X22455000Y-17265001I-95000J0D01*
G01*
X22455000Y-17265001D02*
G75*
G02*
X22645000Y-17265001I95000J0D01*
G01*
X23594999Y-15000000D02*
G75*
G02*
X23404999Y-15000000I-95000J0D01*
G01*
X23404999Y-15000000D02*
G75*
G02*
X23594999Y-15000000I95000J0D01*
G01*
X23594999Y-9300000D02*
G75*
G02*
X23404999Y-9300000I-95000J0D01*
G01*
X23404999Y-9300000D02*
G75*
G02*
X23594999Y-9300000I95000J0D01*
G01*
X23594999Y-11200000D02*
G75*
G02*
X23404999Y-11200000I-95000J0D01*
G01*
X23404999Y-11200000D02*
G75*
G02*
X23594999Y-11200000I95000J0D01*
G01*
X23595000Y-13100000D02*
G75*
G02*
X23405000Y-13100000I-95000J0D01*
G01*
X23405000Y-13100000D02*
G75*
G02*
X23595000Y-13100000I95000J0D01*
G01*
X24044383Y-17516509D02*
G75*
G02*
X23854383Y-17516509I-95000J0D01*
G01*
X23854383Y-17516509D02*
G75*
G02*
X24044383Y-17516509I95000J0D01*
G01*
X24478999Y-14000001D02*
G75*
G02*
X24288999Y-14000001I-95000J0D01*
G01*
X24288999Y-14000001D02*
G75*
G02*
X24478999Y-14000001I95000J0D01*
G01*
X24979616Y-17913492D02*
G75*
G02*
X24789616Y-17913492I-95000J0D01*
G01*
X24789616Y-17913492D02*
G75*
G02*
X24979616Y-17913492I95000J0D01*
G01*
X25494999Y-14000001D02*
G75*
G02*
X25304999Y-14000001I-95000J0D01*
G01*
X25304999Y-14000001D02*
G75*
G02*
X25494999Y-14000001I95000J0D01*
G01*
X26169483Y-18691789D02*
G75*
G02*
X25979483Y-18691789I-95000J0D01*
G01*
X25979483Y-18691789D02*
G75*
G02*
X26169483Y-18691789I95000J0D01*
G01*
X26875256Y-19422638D02*
G75*
G02*
X26685256Y-19422638I-95000J0D01*
G01*
X26685256Y-19422638D02*
G75*
G02*
X26875256Y-19422638I95000J0D01*
G01*
D14*
X12575750Y-11768513D02*
X12575750Y-12068513D01*
X12425750Y-11918513D02*
X12725750Y-11918513D01*
X12774355Y-13658104D02*
X12774355Y-13958104D01*
X12624355Y-13808104D02*
X12924355Y-13808104D01*
X12972959Y-15547695D02*
X12972959Y-15847695D01*
X12822959Y-15697695D02*
X13122959Y-15697695D01*
X13180722Y-11449528D02*
X13180722Y-11749528D01*
X13030722Y-11599528D02*
X13330722Y-11599528D01*
X13379326Y-13339120D02*
X13379326Y-13639120D01*
X13229326Y-13489120D02*
X13529326Y-13489120D01*
X13577930Y-15228711D02*
X13577930Y-15528711D01*
X13427930Y-15378711D02*
X13727930Y-15378711D01*
X14639049Y-9327689D02*
X14639049Y-9627689D01*
X14489049Y-9477689D02*
X14789049Y-9477689D01*
X14738487Y-11225084D02*
X14738487Y-11525084D01*
X14588487Y-11375084D02*
X14888487Y-11375084D01*
X14837925Y-13122480D02*
X14837925Y-13422480D01*
X14687925Y-13272480D02*
X14987925Y-13272480D01*
X14937364Y-15019876D02*
X14937364Y-15319876D01*
X14787364Y-15169876D02*
X15087364Y-15169876D01*
X15259885Y-9040803D02*
X15259885Y-9340803D01*
X15109885Y-9190803D02*
X15409885Y-9190803D01*
X15359323Y-10938199D02*
X15359323Y-11238199D01*
X15209323Y-11088199D02*
X15509323Y-11088199D01*
X15458762Y-12835595D02*
X15458762Y-13135595D01*
X15308762Y-12985595D02*
X15608762Y-12985595D01*
X15558200Y-14732991D02*
X15558200Y-15032991D01*
X15408200Y-14882991D02*
X15708200Y-14882991D01*
X16910999Y-10496000D02*
X16910999Y-10796000D01*
X16760999Y-10646000D02*
X17060999Y-10646000D01*
X16910999Y-14296000D02*
X16910999Y-14596000D01*
X16760999Y-14446000D02*
X17060999Y-14446000D01*
X16910999Y-8596001D02*
X16910999Y-8896001D01*
X16760999Y-8746001D02*
X17060999Y-8746001D01*
X16910999Y-12396001D02*
X16910999Y-12696001D01*
X16760999Y-12546001D02*
X17060999Y-12546001D01*
X17545999Y-10242000D02*
X17545999Y-10542000D01*
X17395999Y-10392000D02*
X17695999Y-10392000D01*
X17545999Y-14042000D02*
X17545999Y-14342000D01*
X17395999Y-14192000D02*
X17695999Y-14192000D01*
X17545999Y-8342001D02*
X17545999Y-8642001D01*
X17395999Y-8492001D02*
X17695999Y-8492001D01*
X17545999Y-12142001D02*
X17545999Y-12442001D01*
X17395999Y-12292001D02*
X17695999Y-12292001D01*
X18810999Y-13996000D02*
X18810999Y-14296000D01*
X18660999Y-14146000D02*
X18960999Y-14146000D01*
X18810999Y-8296000D02*
X18810999Y-8596001D01*
X18660999Y-8446001D02*
X18960999Y-8446001D01*
X18810999Y-12096000D02*
X18810999Y-12396000D01*
X18660999Y-12246000D02*
X18960999Y-12246000D01*
X18810999Y-10196000D02*
X18810999Y-10496000D01*
X18660999Y-10346000D02*
X18960999Y-10346000D01*
X19445999Y-13742000D02*
X19445999Y-14042000D01*
X19295999Y-13892000D02*
X19595999Y-13892000D01*
X19445999Y-8042000D02*
X19445999Y-8342000D01*
X19295999Y-8192000D02*
X19595999Y-8192000D01*
X19445999Y-11842000D02*
X19445999Y-12142000D01*
X19295999Y-11992000D02*
X19595999Y-11992000D01*
X19445999Y-9942000D02*
X19445999Y-10242000D01*
X19295999Y-10092000D02*
X19595999Y-10092000D01*
X20710999Y-8596000D02*
X20710999Y-8896000D01*
X20560999Y-8746000D02*
X20860999Y-8746000D01*
X20710999Y-14296000D02*
X20710999Y-14596000D01*
X20560999Y-14446000D02*
X20860999Y-14446000D01*
X20711000Y-10496000D02*
X20711000Y-10796000D01*
X20561000Y-10646000D02*
X20861000Y-10646000D01*
X20711000Y-12396000D02*
X20711000Y-12696000D01*
X20561000Y-12546000D02*
X20861000Y-12546000D01*
X21345999Y-8342000D02*
X21345999Y-8642000D01*
X21195999Y-8492000D02*
X21495999Y-8492000D01*
X21345999Y-14042000D02*
X21345999Y-14342000D01*
X21195999Y-14192000D02*
X21495999Y-14192000D01*
X21346000Y-10242000D02*
X21346000Y-10542000D01*
X21196000Y-10392000D02*
X21496000Y-10392000D01*
X21346000Y-12142000D02*
X21346000Y-12442000D01*
X21196000Y-12292000D02*
X21496000Y-12292000D01*
X21661000Y-16861001D02*
X21661000Y-17161001D01*
X21511000Y-17011001D02*
X21811000Y-17011001D01*
X22296000Y-16607000D02*
X22296000Y-16907001D01*
X22146000Y-16757000D02*
X22446000Y-16757000D01*
X22610999Y-14596000D02*
X22610999Y-14896000D01*
X22460999Y-14746000D02*
X22760999Y-14746000D01*
X22610999Y-8896000D02*
X22610999Y-9196000D01*
X22460999Y-9046000D02*
X22760999Y-9046000D01*
X22610999Y-10796000D02*
X22610999Y-11096000D01*
X22460999Y-10946000D02*
X22760999Y-10946000D01*
X22611000Y-12696000D02*
X22611000Y-12996000D01*
X22461000Y-12846000D02*
X22761000Y-12846000D01*
X23245999Y-14342000D02*
X23245999Y-14642000D01*
X23095999Y-14492000D02*
X23395999Y-14492000D01*
X23245999Y-8642000D02*
X23245999Y-8942000D01*
X23095999Y-8792000D02*
X23395999Y-8792000D01*
X23245999Y-10542000D02*
X23245999Y-10842000D01*
X23095999Y-10692000D02*
X23395999Y-10692000D01*
X23246000Y-12442000D02*
X23246000Y-12742000D01*
X23096000Y-12592000D02*
X23396000Y-12592000D01*
X24165533Y-17182324D02*
X24165533Y-17482324D01*
X24015533Y-17332324D02*
X24315533Y-17332324D01*
X24510999Y-13596001D02*
X24510999Y-13896001D01*
X24360999Y-13746001D02*
X24660999Y-13746001D01*
X24849299Y-17196630D02*
X24849299Y-17496630D01*
X24699299Y-17346630D02*
X24999299Y-17346630D01*
X25145999Y-13342001D02*
X25145999Y-13642001D01*
X24995999Y-13492001D02*
X25295999Y-13492001D01*
X26345417Y-18456702D02*
X26345417Y-18756702D01*
X26195417Y-18606702D02*
X26495417Y-18606702D01*
X26969237Y-18737040D02*
X26969237Y-19037040D01*
X26819237Y-18887040D02*
X27119237Y-18887040D01*
D15*
X13126172Y-12276254D02*
X13126172Y-11986338D01*
X12836255Y-11986338D01*
X12836255Y-12276254D01*
X13126172Y-12276254D01*
X13324777Y-14165846D02*
X13324777Y-13875929D01*
X13034860Y-13875929D01*
X13034860Y-14165846D01*
X13324777Y-14165846D01*
X13523380Y-16055437D02*
X13523380Y-15765520D01*
X13233464Y-15765520D01*
X13233464Y-16055437D01*
X13523380Y-16055437D01*
X15177778Y-9856359D02*
X15177778Y-9566442D01*
X14887862Y-9566442D01*
X14887862Y-9856359D01*
X15177778Y-9856359D01*
X15277216Y-11753754D02*
X15277216Y-11463838D01*
X14987299Y-11463838D01*
X14987299Y-11753754D01*
X15277216Y-11753754D01*
X15376655Y-13651150D02*
X15376655Y-13361233D01*
X15086738Y-13361233D01*
X15086738Y-13651150D01*
X15376655Y-13651150D01*
X15476093Y-15548546D02*
X15476093Y-15258630D01*
X15186177Y-15258630D01*
X15186177Y-15548546D01*
X15476093Y-15548546D01*
X17436958Y-11044958D02*
X17436958Y-10755042D01*
X17147041Y-10755042D01*
X17147041Y-11044958D01*
X17436958Y-11044958D01*
X17436958Y-14844958D02*
X17436958Y-14555042D01*
X17147041Y-14555042D01*
X17147041Y-14844958D01*
X17436958Y-14844958D01*
X17436958Y-9144959D02*
X17436958Y-8855043D01*
X17147041Y-8855043D01*
X17147041Y-9144959D01*
X17436958Y-9144959D01*
X17436958Y-12944959D02*
X17436958Y-12655042D01*
X17147041Y-12655042D01*
X17147041Y-12944959D01*
X17436958Y-12944959D01*
X19336957Y-14544958D02*
X19336957Y-14255041D01*
X19047041Y-14255041D01*
X19047041Y-14544958D01*
X19336957Y-14544958D01*
X19336957Y-8844959D02*
X19336957Y-8555042D01*
X19047041Y-8555042D01*
X19047041Y-8844959D01*
X19336957Y-8844959D01*
X19336958Y-12644958D02*
X19336958Y-12355041D01*
X19047041Y-12355041D01*
X19047041Y-12644958D01*
X19336958Y-12644958D01*
X19336958Y-10744958D02*
X19336958Y-10455042D01*
X19047041Y-10455042D01*
X19047041Y-10744958D01*
X19336958Y-10744958D01*
X21236957Y-9144958D02*
X21236957Y-8855042D01*
X20947041Y-8855042D01*
X20947041Y-9144958D01*
X21236957Y-9144958D01*
X21236958Y-14844959D02*
X21236958Y-14555042D01*
X20947041Y-14555042D01*
X20947041Y-14844959D01*
X21236958Y-14844959D01*
X21236958Y-11044959D02*
X21236958Y-10755042D01*
X20947041Y-10755042D01*
X20947041Y-11044959D01*
X21236958Y-11044959D01*
X21236958Y-12944958D02*
X21236958Y-12655042D01*
X20947042Y-12655042D01*
X20947042Y-12944958D01*
X21236958Y-12944958D01*
X22186958Y-17409959D02*
X22186958Y-17120042D01*
X21897041Y-17120042D01*
X21897041Y-17409959D01*
X22186958Y-17409959D01*
X23136957Y-15144958D02*
X23136957Y-14855042D01*
X22847040Y-14855042D01*
X22847040Y-15144958D01*
X23136957Y-15144958D01*
X23136957Y-9444959D02*
X23136957Y-9155042D01*
X22847041Y-9155042D01*
X22847041Y-9444959D01*
X23136957Y-9444959D01*
X23136958Y-11344958D02*
X23136958Y-11055042D01*
X22847041Y-11055042D01*
X22847041Y-11344958D01*
X23136958Y-11344958D01*
X23136958Y-13244958D02*
X23136958Y-12955042D01*
X22847041Y-12955042D01*
X22847041Y-13244958D01*
X23136958Y-13244958D01*
X24561958Y-17859959D02*
X24561958Y-17570042D01*
X24272041Y-17570042D01*
X24272041Y-17859959D01*
X24561958Y-17859959D01*
X25036957Y-14144959D02*
X25036957Y-13855042D01*
X24747041Y-13855042D01*
X24747041Y-14144959D01*
X25036957Y-14144959D01*
X26572328Y-19202172D02*
X26572328Y-18912255D01*
X26282411Y-18912255D01*
X26282411Y-19202172D01*
X26572328Y-19202172D01*
D11*
X11869497Y-21029042D02*
X11869497Y-20829042D01*
X11869497Y-20829042D02*
X11917116Y-20829042D01*
X11917116Y-20829042D02*
X11945688Y-20838566D01*
X11945688Y-20838566D02*
X11964735Y-20857613D01*
X11964735Y-20857613D02*
X11974259Y-20876661D01*
X11974259Y-20876661D02*
X11983783Y-20914756D01*
X11983783Y-20914756D02*
X11983783Y-20943328D01*
X11983783Y-20943328D02*
X11974259Y-20981423D01*
X11974259Y-20981423D02*
X11964735Y-21000470D01*
X11964735Y-21000470D02*
X11945688Y-21019518D01*
X11945688Y-21019518D02*
X11917116Y-21029042D01*
X11917116Y-21029042D02*
X11869497Y-21029042D01*
X12069497Y-21029042D02*
X12069497Y-20895709D01*
X12069497Y-20933804D02*
X12079021Y-20914756D01*
X12079021Y-20914756D02*
X12088545Y-20905232D01*
X12088545Y-20905232D02*
X12107592Y-20895709D01*
X12107592Y-20895709D02*
X12126640Y-20895709D01*
X12193307Y-21029042D02*
X12193307Y-20895709D01*
X12193307Y-20829042D02*
X12183783Y-20838566D01*
X12183783Y-20838566D02*
X12193307Y-20848090D01*
X12193307Y-20848090D02*
X12202831Y-20838566D01*
X12202831Y-20838566D02*
X12193307Y-20829042D01*
X12193307Y-20829042D02*
X12193307Y-20848090D01*
X12317116Y-21029042D02*
X12298069Y-21019518D01*
X12298069Y-21019518D02*
X12288545Y-21000470D01*
X12288545Y-21000470D02*
X12288545Y-20829042D01*
X12421878Y-21029042D02*
X12402831Y-21019518D01*
X12402831Y-21019518D02*
X12393307Y-21000470D01*
X12393307Y-21000470D02*
X12393307Y-20829042D01*
X12650450Y-21029042D02*
X12650450Y-20829042D01*
X12650450Y-20829042D02*
X12717116Y-20971899D01*
X12717116Y-20971899D02*
X12783783Y-20829042D01*
X12783783Y-20829042D02*
X12783783Y-21029042D01*
X12964735Y-21029042D02*
X12964735Y-20924280D01*
X12964735Y-20924280D02*
X12955212Y-20905232D01*
X12955212Y-20905232D02*
X12936164Y-20895709D01*
X12936164Y-20895709D02*
X12898069Y-20895709D01*
X12898069Y-20895709D02*
X12879021Y-20905232D01*
X12964735Y-21019518D02*
X12945688Y-21029042D01*
X12945688Y-21029042D02*
X12898069Y-21029042D01*
X12898069Y-21029042D02*
X12879021Y-21019518D01*
X12879021Y-21019518D02*
X12869497Y-21000470D01*
X12869497Y-21000470D02*
X12869497Y-20981423D01*
X12869497Y-20981423D02*
X12879021Y-20962375D01*
X12879021Y-20962375D02*
X12898069Y-20952851D01*
X12898069Y-20952851D02*
X12945688Y-20952851D01*
X12945688Y-20952851D02*
X12964735Y-20943328D01*
X13059973Y-20895709D02*
X13059973Y-21095709D01*
X13059973Y-20905232D02*
X13079021Y-20895709D01*
X13079021Y-20895709D02*
X13117116Y-20895709D01*
X13117116Y-20895709D02*
X13136164Y-20905232D01*
X13136164Y-20905232D02*
X13145688Y-20914756D01*
X13145688Y-20914756D02*
X13155212Y-20933804D01*
X13155212Y-20933804D02*
X13155212Y-20990947D01*
X13155212Y-20990947D02*
X13145688Y-21009994D01*
X13145688Y-21009994D02*
X13136164Y-21019518D01*
X13136164Y-21019518D02*
X13117116Y-21029042D01*
X13117116Y-21029042D02*
X13079021Y-21029042D01*
X13079021Y-21029042D02*
X13059973Y-21019518D01*
X13240926Y-21009994D02*
X13250450Y-21019518D01*
X13250450Y-21019518D02*
X13240926Y-21029042D01*
X13240926Y-21029042D02*
X13231402Y-21019518D01*
X13231402Y-21019518D02*
X13240926Y-21009994D01*
X13240926Y-21009994D02*
X13240926Y-21029042D01*
X13240926Y-20905232D02*
X13250450Y-20914756D01*
X13250450Y-20914756D02*
X13240926Y-20924280D01*
X13240926Y-20924280D02*
X13231402Y-20914756D01*
X13231402Y-20914756D02*
X13240926Y-20905232D01*
X13240926Y-20905232D02*
X13240926Y-20924280D01*
D12*
X11518720Y-21312558D02*
X11608720Y-21402558D01*
X11608720Y-21312558D02*
X11518720Y-21402558D01*
D11*
X11907592Y-21249042D02*
X11926640Y-21249042D01*
X11926640Y-21249042D02*
X11945688Y-21258566D01*
X11945688Y-21258566D02*
X11955212Y-21268090D01*
X11955212Y-21268090D02*
X11964735Y-21287137D01*
X11964735Y-21287137D02*
X11974259Y-21325232D01*
X11974259Y-21325232D02*
X11974259Y-21372851D01*
X11974259Y-21372851D02*
X11964735Y-21410947D01*
X11964735Y-21410947D02*
X11955212Y-21429994D01*
X11955212Y-21429994D02*
X11945688Y-21439518D01*
X11945688Y-21439518D02*
X11926640Y-21449042D01*
X11926640Y-21449042D02*
X11907592Y-21449042D01*
X11907592Y-21449042D02*
X11888545Y-21439518D01*
X11888545Y-21439518D02*
X11879021Y-21429994D01*
X11879021Y-21429994D02*
X11869497Y-21410947D01*
X11869497Y-21410947D02*
X11859973Y-21372851D01*
X11859973Y-21372851D02*
X11859973Y-21325232D01*
X11859973Y-21325232D02*
X11869497Y-21287137D01*
X11869497Y-21287137D02*
X11879021Y-21268090D01*
X11879021Y-21268090D02*
X11888545Y-21258566D01*
X11888545Y-21258566D02*
X11907592Y-21249042D01*
X12059973Y-21429994D02*
X12069497Y-21439518D01*
X12069497Y-21439518D02*
X12059973Y-21449042D01*
X12059973Y-21449042D02*
X12050450Y-21439518D01*
X12050450Y-21439518D02*
X12059973Y-21429994D01*
X12059973Y-21429994D02*
X12059973Y-21449042D01*
X12164735Y-21449042D02*
X12202831Y-21449042D01*
X12202831Y-21449042D02*
X12221878Y-21439518D01*
X12221878Y-21439518D02*
X12231402Y-21429994D01*
X12231402Y-21429994D02*
X12250450Y-21401423D01*
X12250450Y-21401423D02*
X12259973Y-21363328D01*
X12259973Y-21363328D02*
X12259973Y-21287137D01*
X12259973Y-21287137D02*
X12250450Y-21268090D01*
X12250450Y-21268090D02*
X12240926Y-21258566D01*
X12240926Y-21258566D02*
X12221878Y-21249042D01*
X12221878Y-21249042D02*
X12183783Y-21249042D01*
X12183783Y-21249042D02*
X12164735Y-21258566D01*
X12164735Y-21258566D02*
X12155212Y-21268090D01*
X12155212Y-21268090D02*
X12145688Y-21287137D01*
X12145688Y-21287137D02*
X12145688Y-21334756D01*
X12145688Y-21334756D02*
X12155212Y-21353804D01*
X12155212Y-21353804D02*
X12164735Y-21363328D01*
X12164735Y-21363328D02*
X12183783Y-21372851D01*
X12183783Y-21372851D02*
X12221878Y-21372851D01*
X12221878Y-21372851D02*
X12240926Y-21363328D01*
X12240926Y-21363328D02*
X12250450Y-21353804D01*
X12250450Y-21353804D02*
X12259973Y-21334756D01*
X12383783Y-21249042D02*
X12402831Y-21249042D01*
X12402831Y-21249042D02*
X12421878Y-21258566D01*
X12421878Y-21258566D02*
X12431402Y-21268090D01*
X12431402Y-21268090D02*
X12440926Y-21287137D01*
X12440926Y-21287137D02*
X12450450Y-21325232D01*
X12450450Y-21325232D02*
X12450450Y-21372851D01*
X12450450Y-21372851D02*
X12440926Y-21410947D01*
X12440926Y-21410947D02*
X12431402Y-21429994D01*
X12431402Y-21429994D02*
X12421878Y-21439518D01*
X12421878Y-21439518D02*
X12402831Y-21449042D01*
X12402831Y-21449042D02*
X12383783Y-21449042D01*
X12383783Y-21449042D02*
X12364735Y-21439518D01*
X12364735Y-21439518D02*
X12355212Y-21429994D01*
X12355212Y-21429994D02*
X12345688Y-21410947D01*
X12345688Y-21410947D02*
X12336164Y-21372851D01*
X12336164Y-21372851D02*
X12336164Y-21325232D01*
X12336164Y-21325232D02*
X12345688Y-21287137D01*
X12345688Y-21287137D02*
X12355212Y-21268090D01*
X12355212Y-21268090D02*
X12364735Y-21258566D01*
X12364735Y-21258566D02*
X12383783Y-21249042D01*
X12574259Y-21249042D02*
X12593307Y-21249042D01*
X12593307Y-21249042D02*
X12612354Y-21258566D01*
X12612354Y-21258566D02*
X12621878Y-21268090D01*
X12621878Y-21268090D02*
X12631402Y-21287137D01*
X12631402Y-21287137D02*
X12640926Y-21325232D01*
X12640926Y-21325232D02*
X12640926Y-21372851D01*
X12640926Y-21372851D02*
X12631402Y-21410947D01*
X12631402Y-21410947D02*
X12621878Y-21429994D01*
X12621878Y-21429994D02*
X12612354Y-21439518D01*
X12612354Y-21439518D02*
X12593307Y-21449042D01*
X12593307Y-21449042D02*
X12574259Y-21449042D01*
X12574259Y-21449042D02*
X12555212Y-21439518D01*
X12555212Y-21439518D02*
X12545688Y-21429994D01*
X12545688Y-21429994D02*
X12536164Y-21410947D01*
X12536164Y-21410947D02*
X12526640Y-21372851D01*
X12526640Y-21372851D02*
X12526640Y-21325232D01*
X12526640Y-21325232D02*
X12536164Y-21287137D01*
X12536164Y-21287137D02*
X12545688Y-21268090D01*
X12545688Y-21268090D02*
X12555212Y-21258566D01*
X12555212Y-21258566D02*
X12574259Y-21249042D01*
X12726640Y-21449042D02*
X12726640Y-21315709D01*
X12726640Y-21334756D02*
X12736164Y-21325232D01*
X12736164Y-21325232D02*
X12755212Y-21315709D01*
X12755212Y-21315709D02*
X12783783Y-21315709D01*
X12783783Y-21315709D02*
X12802831Y-21325232D01*
X12802831Y-21325232D02*
X12812354Y-21344280D01*
X12812354Y-21344280D02*
X12812354Y-21449042D01*
X12812354Y-21344280D02*
X12821878Y-21325232D01*
X12821878Y-21325232D02*
X12840926Y-21315709D01*
X12840926Y-21315709D02*
X12869497Y-21315709D01*
X12869497Y-21315709D02*
X12888545Y-21325232D01*
X12888545Y-21325232D02*
X12898069Y-21344280D01*
X12898069Y-21344280D02*
X12898069Y-21449042D01*
X12993307Y-21449042D02*
X12993307Y-21315709D01*
X12993307Y-21334756D02*
X13002831Y-21325232D01*
X13002831Y-21325232D02*
X13021878Y-21315709D01*
X13021878Y-21315709D02*
X13050450Y-21315709D01*
X13050450Y-21315709D02*
X13069497Y-21325232D01*
X13069497Y-21325232D02*
X13079021Y-21344280D01*
X13079021Y-21344280D02*
X13079021Y-21449042D01*
X13079021Y-21344280D02*
X13088545Y-21325232D01*
X13088545Y-21325232D02*
X13107593Y-21315709D01*
X13107593Y-21315709D02*
X13136164Y-21315709D01*
X13136164Y-21315709D02*
X13155212Y-21325232D01*
X13155212Y-21325232D02*
X13164735Y-21344280D01*
X13164735Y-21344280D02*
X13164735Y-21449042D01*
X13555212Y-21239518D02*
X13383783Y-21496661D01*
X13812355Y-21249042D02*
X13831402Y-21249042D01*
X13831402Y-21249042D02*
X13850450Y-21258566D01*
X13850450Y-21258566D02*
X13859974Y-21268090D01*
X13859974Y-21268090D02*
X13869497Y-21287137D01*
X13869497Y-21287137D02*
X13879021Y-21325232D01*
X13879021Y-21325232D02*
X13879021Y-21372851D01*
X13879021Y-21372851D02*
X13869497Y-21410947D01*
X13869497Y-21410947D02*
X13859974Y-21429994D01*
X13859974Y-21429994D02*
X13850450Y-21439518D01*
X13850450Y-21439518D02*
X13831402Y-21449042D01*
X13831402Y-21449042D02*
X13812355Y-21449042D01*
X13812355Y-21449042D02*
X13793307Y-21439518D01*
X13793307Y-21439518D02*
X13783783Y-21429994D01*
X13783783Y-21429994D02*
X13774259Y-21410947D01*
X13774259Y-21410947D02*
X13764736Y-21372851D01*
X13764736Y-21372851D02*
X13764736Y-21325232D01*
X13764736Y-21325232D02*
X13774259Y-21287137D01*
X13774259Y-21287137D02*
X13783783Y-21268090D01*
X13783783Y-21268090D02*
X13793307Y-21258566D01*
X13793307Y-21258566D02*
X13812355Y-21249042D01*
X13964736Y-21429994D02*
X13974259Y-21439518D01*
X13974259Y-21439518D02*
X13964736Y-21449042D01*
X13964736Y-21449042D02*
X13955212Y-21439518D01*
X13955212Y-21439518D02*
X13964736Y-21429994D01*
X13964736Y-21429994D02*
X13964736Y-21449042D01*
X14098069Y-21249042D02*
X14117117Y-21249042D01*
X14117117Y-21249042D02*
X14136164Y-21258566D01*
X14136164Y-21258566D02*
X14145688Y-21268090D01*
X14145688Y-21268090D02*
X14155212Y-21287137D01*
X14155212Y-21287137D02*
X14164736Y-21325232D01*
X14164736Y-21325232D02*
X14164736Y-21372851D01*
X14164736Y-21372851D02*
X14155212Y-21410947D01*
X14155212Y-21410947D02*
X14145688Y-21429994D01*
X14145688Y-21429994D02*
X14136164Y-21439518D01*
X14136164Y-21439518D02*
X14117117Y-21449042D01*
X14117117Y-21449042D02*
X14098069Y-21449042D01*
X14098069Y-21449042D02*
X14079021Y-21439518D01*
X14079021Y-21439518D02*
X14069497Y-21429994D01*
X14069497Y-21429994D02*
X14059974Y-21410947D01*
X14059974Y-21410947D02*
X14050450Y-21372851D01*
X14050450Y-21372851D02*
X14050450Y-21325232D01*
X14050450Y-21325232D02*
X14059974Y-21287137D01*
X14059974Y-21287137D02*
X14069497Y-21268090D01*
X14069497Y-21268090D02*
X14079021Y-21258566D01*
X14079021Y-21258566D02*
X14098069Y-21249042D01*
X14231402Y-21249042D02*
X14355212Y-21249042D01*
X14355212Y-21249042D02*
X14288545Y-21325232D01*
X14288545Y-21325232D02*
X14317117Y-21325232D01*
X14317117Y-21325232D02*
X14336164Y-21334756D01*
X14336164Y-21334756D02*
X14345688Y-21344280D01*
X14345688Y-21344280D02*
X14355212Y-21363328D01*
X14355212Y-21363328D02*
X14355212Y-21410947D01*
X14355212Y-21410947D02*
X14345688Y-21429994D01*
X14345688Y-21429994D02*
X14336164Y-21439518D01*
X14336164Y-21439518D02*
X14317117Y-21449042D01*
X14317117Y-21449042D02*
X14259974Y-21449042D01*
X14259974Y-21449042D02*
X14240926Y-21439518D01*
X14240926Y-21439518D02*
X14231402Y-21429994D01*
X14536164Y-21249042D02*
X14440926Y-21249042D01*
X14440926Y-21249042D02*
X14431402Y-21344280D01*
X14431402Y-21344280D02*
X14440926Y-21334756D01*
X14440926Y-21334756D02*
X14459974Y-21325232D01*
X14459974Y-21325232D02*
X14507593Y-21325232D01*
X14507593Y-21325232D02*
X14526640Y-21334756D01*
X14526640Y-21334756D02*
X14536164Y-21344280D01*
X14536164Y-21344280D02*
X14545688Y-21363328D01*
X14545688Y-21363328D02*
X14545688Y-21410947D01*
X14545688Y-21410947D02*
X14536164Y-21429994D01*
X14536164Y-21429994D02*
X14526640Y-21439518D01*
X14526640Y-21439518D02*
X14507593Y-21449042D01*
X14507593Y-21449042D02*
X14459974Y-21449042D01*
X14459974Y-21449042D02*
X14440926Y-21439518D01*
X14440926Y-21439518D02*
X14431402Y-21429994D01*
X14717117Y-21315709D02*
X14717117Y-21449042D01*
X14669497Y-21239518D02*
X14621878Y-21382375D01*
X14621878Y-21382375D02*
X14745688Y-21382375D01*
X14812355Y-21249042D02*
X14812355Y-21287137D01*
X14888545Y-21249042D02*
X14888545Y-21287137D01*
X15183783Y-21525232D02*
X15174259Y-21515709D01*
X15174259Y-21515709D02*
X15155212Y-21487137D01*
X15155212Y-21487137D02*
X15145688Y-21468090D01*
X15145688Y-21468090D02*
X15136164Y-21439518D01*
X15136164Y-21439518D02*
X15126640Y-21391899D01*
X15126640Y-21391899D02*
X15126640Y-21353804D01*
X15126640Y-21353804D02*
X15136164Y-21306185D01*
X15136164Y-21306185D02*
X15145688Y-21277613D01*
X15145688Y-21277613D02*
X15155212Y-21258566D01*
X15155212Y-21258566D02*
X15174259Y-21229994D01*
X15174259Y-21229994D02*
X15183783Y-21220470D01*
X15250450Y-21268090D02*
X15259974Y-21258566D01*
X15259974Y-21258566D02*
X15279021Y-21249042D01*
X15279021Y-21249042D02*
X15326640Y-21249042D01*
X15326640Y-21249042D02*
X15345688Y-21258566D01*
X15345688Y-21258566D02*
X15355212Y-21268090D01*
X15355212Y-21268090D02*
X15364736Y-21287137D01*
X15364736Y-21287137D02*
X15364736Y-21306185D01*
X15364736Y-21306185D02*
X15355212Y-21334756D01*
X15355212Y-21334756D02*
X15240926Y-21449042D01*
X15240926Y-21449042D02*
X15364736Y-21449042D01*
X15602831Y-21449042D02*
X15602831Y-21249042D01*
X15688545Y-21449042D02*
X15688545Y-21344280D01*
X15688545Y-21344280D02*
X15679021Y-21325232D01*
X15679021Y-21325232D02*
X15659974Y-21315709D01*
X15659974Y-21315709D02*
X15631402Y-21315709D01*
X15631402Y-21315709D02*
X15612355Y-21325232D01*
X15612355Y-21325232D02*
X15602831Y-21334756D01*
X15812355Y-21449042D02*
X15793307Y-21439518D01*
X15793307Y-21439518D02*
X15783783Y-21429994D01*
X15783783Y-21429994D02*
X15774260Y-21410947D01*
X15774260Y-21410947D02*
X15774260Y-21353804D01*
X15774260Y-21353804D02*
X15783783Y-21334756D01*
X15783783Y-21334756D02*
X15793307Y-21325232D01*
X15793307Y-21325232D02*
X15812355Y-21315709D01*
X15812355Y-21315709D02*
X15840926Y-21315709D01*
X15840926Y-21315709D02*
X15859974Y-21325232D01*
X15859974Y-21325232D02*
X15869498Y-21334756D01*
X15869498Y-21334756D02*
X15879021Y-21353804D01*
X15879021Y-21353804D02*
X15879021Y-21410947D01*
X15879021Y-21410947D02*
X15869498Y-21429994D01*
X15869498Y-21429994D02*
X15859974Y-21439518D01*
X15859974Y-21439518D02*
X15840926Y-21449042D01*
X15840926Y-21449042D02*
X15812355Y-21449042D01*
X15993307Y-21449042D02*
X15974260Y-21439518D01*
X15974260Y-21439518D02*
X15964736Y-21420470D01*
X15964736Y-21420470D02*
X15964736Y-21249042D01*
X16145688Y-21439518D02*
X16126641Y-21449042D01*
X16126641Y-21449042D02*
X16088545Y-21449042D01*
X16088545Y-21449042D02*
X16069498Y-21439518D01*
X16069498Y-21439518D02*
X16059974Y-21420470D01*
X16059974Y-21420470D02*
X16059974Y-21344280D01*
X16059974Y-21344280D02*
X16069498Y-21325232D01*
X16069498Y-21325232D02*
X16088545Y-21315709D01*
X16088545Y-21315709D02*
X16126641Y-21315709D01*
X16126641Y-21315709D02*
X16145688Y-21325232D01*
X16145688Y-21325232D02*
X16155212Y-21344280D01*
X16155212Y-21344280D02*
X16155212Y-21363328D01*
X16155212Y-21363328D02*
X16059974Y-21382375D01*
X16231402Y-21439518D02*
X16250450Y-21449042D01*
X16250450Y-21449042D02*
X16288545Y-21449042D01*
X16288545Y-21449042D02*
X16307593Y-21439518D01*
X16307593Y-21439518D02*
X16317117Y-21420470D01*
X16317117Y-21420470D02*
X16317117Y-21410947D01*
X16317117Y-21410947D02*
X16307593Y-21391899D01*
X16307593Y-21391899D02*
X16288545Y-21382375D01*
X16288545Y-21382375D02*
X16259974Y-21382375D01*
X16259974Y-21382375D02*
X16240926Y-21372851D01*
X16240926Y-21372851D02*
X16231402Y-21353804D01*
X16231402Y-21353804D02*
X16231402Y-21344280D01*
X16231402Y-21344280D02*
X16240926Y-21325232D01*
X16240926Y-21325232D02*
X16259974Y-21315709D01*
X16259974Y-21315709D02*
X16288545Y-21315709D01*
X16288545Y-21315709D02*
X16307593Y-21325232D01*
X16383783Y-21525232D02*
X16393307Y-21515709D01*
X16393307Y-21515709D02*
X16412355Y-21487137D01*
X16412355Y-21487137D02*
X16421879Y-21468090D01*
X16421879Y-21468090D02*
X16431402Y-21439518D01*
X16431402Y-21439518D02*
X16440926Y-21391899D01*
X16440926Y-21391899D02*
X16440926Y-21353804D01*
X16440926Y-21353804D02*
X16431402Y-21306185D01*
X16431402Y-21306185D02*
X16421879Y-21277613D01*
X16421879Y-21277613D02*
X16412355Y-21258566D01*
X16412355Y-21258566D02*
X16393307Y-21229994D01*
X16393307Y-21229994D02*
X16383783Y-21220470D01*
X16745688Y-21525232D02*
X16736164Y-21515709D01*
X16736164Y-21515709D02*
X16717117Y-21487137D01*
X16717117Y-21487137D02*
X16707593Y-21468090D01*
X16707593Y-21468090D02*
X16698069Y-21439518D01*
X16698069Y-21439518D02*
X16688545Y-21391899D01*
X16688545Y-21391899D02*
X16688545Y-21353804D01*
X16688545Y-21353804D02*
X16698069Y-21306185D01*
X16698069Y-21306185D02*
X16707593Y-21277613D01*
X16707593Y-21277613D02*
X16717117Y-21258566D01*
X16717117Y-21258566D02*
X16736164Y-21229994D01*
X16736164Y-21229994D02*
X16745688Y-21220470D01*
X16821879Y-21315709D02*
X16821879Y-21449042D01*
X16821879Y-21334756D02*
X16831403Y-21325232D01*
X16831403Y-21325232D02*
X16850450Y-21315709D01*
X16850450Y-21315709D02*
X16879022Y-21315709D01*
X16879022Y-21315709D02*
X16898069Y-21325232D01*
X16898069Y-21325232D02*
X16907593Y-21344280D01*
X16907593Y-21344280D02*
X16907593Y-21449042D01*
X17031403Y-21449042D02*
X17012355Y-21439518D01*
X17012355Y-21439518D02*
X17002831Y-21429994D01*
X17002831Y-21429994D02*
X16993307Y-21410947D01*
X16993307Y-21410947D02*
X16993307Y-21353804D01*
X16993307Y-21353804D02*
X17002831Y-21334756D01*
X17002831Y-21334756D02*
X17012355Y-21325232D01*
X17012355Y-21325232D02*
X17031403Y-21315709D01*
X17031403Y-21315709D02*
X17059974Y-21315709D01*
X17059974Y-21315709D02*
X17079022Y-21325232D01*
X17079022Y-21325232D02*
X17088545Y-21334756D01*
X17088545Y-21334756D02*
X17098069Y-21353804D01*
X17098069Y-21353804D02*
X17098069Y-21410947D01*
X17098069Y-21410947D02*
X17088545Y-21429994D01*
X17088545Y-21429994D02*
X17079022Y-21439518D01*
X17079022Y-21439518D02*
X17059974Y-21449042D01*
X17059974Y-21449042D02*
X17031403Y-21449042D01*
X17155212Y-21315709D02*
X17231403Y-21315709D01*
X17183784Y-21249042D02*
X17183784Y-21420470D01*
X17183784Y-21420470D02*
X17193307Y-21439518D01*
X17193307Y-21439518D02*
X17212355Y-21449042D01*
X17212355Y-21449042D02*
X17231403Y-21449042D01*
X17450450Y-21315709D02*
X17450450Y-21515709D01*
X17450450Y-21325232D02*
X17469498Y-21315709D01*
X17469498Y-21315709D02*
X17507593Y-21315709D01*
X17507593Y-21315709D02*
X17526641Y-21325232D01*
X17526641Y-21325232D02*
X17536165Y-21334756D01*
X17536165Y-21334756D02*
X17545688Y-21353804D01*
X17545688Y-21353804D02*
X17545688Y-21410947D01*
X17545688Y-21410947D02*
X17536165Y-21429994D01*
X17536165Y-21429994D02*
X17526641Y-21439518D01*
X17526641Y-21439518D02*
X17507593Y-21449042D01*
X17507593Y-21449042D02*
X17469498Y-21449042D01*
X17469498Y-21449042D02*
X17450450Y-21439518D01*
X17659974Y-21449042D02*
X17640926Y-21439518D01*
X17640926Y-21439518D02*
X17631403Y-21420470D01*
X17631403Y-21420470D02*
X17631403Y-21249042D01*
X17821879Y-21449042D02*
X17821879Y-21344280D01*
X17821879Y-21344280D02*
X17812355Y-21325232D01*
X17812355Y-21325232D02*
X17793307Y-21315709D01*
X17793307Y-21315709D02*
X17755212Y-21315709D01*
X17755212Y-21315709D02*
X17736165Y-21325232D01*
X17821879Y-21439518D02*
X17802831Y-21449042D01*
X17802831Y-21449042D02*
X17755212Y-21449042D01*
X17755212Y-21449042D02*
X17736165Y-21439518D01*
X17736165Y-21439518D02*
X17726641Y-21420470D01*
X17726641Y-21420470D02*
X17726641Y-21401423D01*
X17726641Y-21401423D02*
X17736165Y-21382375D01*
X17736165Y-21382375D02*
X17755212Y-21372851D01*
X17755212Y-21372851D02*
X17802831Y-21372851D01*
X17802831Y-21372851D02*
X17821879Y-21363328D01*
X17888546Y-21315709D02*
X17964736Y-21315709D01*
X17917117Y-21249042D02*
X17917117Y-21420470D01*
X17917117Y-21420470D02*
X17926641Y-21439518D01*
X17926641Y-21439518D02*
X17945688Y-21449042D01*
X17945688Y-21449042D02*
X17964736Y-21449042D01*
X18107593Y-21439518D02*
X18088546Y-21449042D01*
X18088546Y-21449042D02*
X18050450Y-21449042D01*
X18050450Y-21449042D02*
X18031403Y-21439518D01*
X18031403Y-21439518D02*
X18021879Y-21420470D01*
X18021879Y-21420470D02*
X18021879Y-21344280D01*
X18021879Y-21344280D02*
X18031403Y-21325232D01*
X18031403Y-21325232D02*
X18050450Y-21315709D01*
X18050450Y-21315709D02*
X18088546Y-21315709D01*
X18088546Y-21315709D02*
X18107593Y-21325232D01*
X18107593Y-21325232D02*
X18117117Y-21344280D01*
X18117117Y-21344280D02*
X18117117Y-21363328D01*
X18117117Y-21363328D02*
X18021879Y-21382375D01*
X18288546Y-21449042D02*
X18288546Y-21249042D01*
X18288546Y-21439518D02*
X18269498Y-21449042D01*
X18269498Y-21449042D02*
X18231403Y-21449042D01*
X18231403Y-21449042D02*
X18212355Y-21439518D01*
X18212355Y-21439518D02*
X18202831Y-21429994D01*
X18202831Y-21429994D02*
X18193307Y-21410947D01*
X18193307Y-21410947D02*
X18193307Y-21353804D01*
X18193307Y-21353804D02*
X18202831Y-21334756D01*
X18202831Y-21334756D02*
X18212355Y-21325232D01*
X18212355Y-21325232D02*
X18231403Y-21315709D01*
X18231403Y-21315709D02*
X18269498Y-21315709D01*
X18269498Y-21315709D02*
X18288546Y-21325232D01*
X18364736Y-21525232D02*
X18374260Y-21515709D01*
X18374260Y-21515709D02*
X18393307Y-21487137D01*
X18393307Y-21487137D02*
X18402831Y-21468090D01*
X18402831Y-21468090D02*
X18412355Y-21439518D01*
X18412355Y-21439518D02*
X18421879Y-21391899D01*
X18421879Y-21391899D02*
X18421879Y-21353804D01*
X18421879Y-21353804D02*
X18412355Y-21306185D01*
X18412355Y-21306185D02*
X18402831Y-21277613D01*
X18402831Y-21277613D02*
X18393307Y-21258566D01*
X18393307Y-21258566D02*
X18374260Y-21229994D01*
X18374260Y-21229994D02*
X18364736Y-21220470D01*
D13*
X11608720Y-21621558D02*
G75*
G02*
X11418720Y-21621558I-95000J0D01*
G01*
X11418720Y-21621558D02*
G75*
G02*
X11608720Y-21621558I95000J0D01*
G01*
D11*
X11974259Y-21713042D02*
X11859973Y-21713042D01*
X11917116Y-21713042D02*
X11917116Y-21513042D01*
X11917116Y-21513042D02*
X11898069Y-21541613D01*
X11898069Y-21541613D02*
X11879021Y-21560661D01*
X11879021Y-21560661D02*
X11859973Y-21570185D01*
X12059973Y-21693994D02*
X12069497Y-21703518D01*
X12069497Y-21703518D02*
X12059973Y-21713042D01*
X12059973Y-21713042D02*
X12050450Y-21703518D01*
X12050450Y-21703518D02*
X12059973Y-21693994D01*
X12059973Y-21693994D02*
X12059973Y-21713042D01*
X12164735Y-21713042D02*
X12202831Y-21713042D01*
X12202831Y-21713042D02*
X12221878Y-21703518D01*
X12221878Y-21703518D02*
X12231402Y-21693994D01*
X12231402Y-21693994D02*
X12250450Y-21665423D01*
X12250450Y-21665423D02*
X12259973Y-21627328D01*
X12259973Y-21627328D02*
X12259973Y-21551137D01*
X12259973Y-21551137D02*
X12250450Y-21532090D01*
X12250450Y-21532090D02*
X12240926Y-21522566D01*
X12240926Y-21522566D02*
X12221878Y-21513042D01*
X12221878Y-21513042D02*
X12183783Y-21513042D01*
X12183783Y-21513042D02*
X12164735Y-21522566D01*
X12164735Y-21522566D02*
X12155212Y-21532090D01*
X12155212Y-21532090D02*
X12145688Y-21551137D01*
X12145688Y-21551137D02*
X12145688Y-21598756D01*
X12145688Y-21598756D02*
X12155212Y-21617804D01*
X12155212Y-21617804D02*
X12164735Y-21627328D01*
X12164735Y-21627328D02*
X12183783Y-21636851D01*
X12183783Y-21636851D02*
X12221878Y-21636851D01*
X12221878Y-21636851D02*
X12240926Y-21627328D01*
X12240926Y-21627328D02*
X12250450Y-21617804D01*
X12250450Y-21617804D02*
X12259973Y-21598756D01*
X12383783Y-21513042D02*
X12402831Y-21513042D01*
X12402831Y-21513042D02*
X12421878Y-21522566D01*
X12421878Y-21522566D02*
X12431402Y-21532090D01*
X12431402Y-21532090D02*
X12440926Y-21551137D01*
X12440926Y-21551137D02*
X12450450Y-21589232D01*
X12450450Y-21589232D02*
X12450450Y-21636851D01*
X12450450Y-21636851D02*
X12440926Y-21674947D01*
X12440926Y-21674947D02*
X12431402Y-21693994D01*
X12431402Y-21693994D02*
X12421878Y-21703518D01*
X12421878Y-21703518D02*
X12402831Y-21713042D01*
X12402831Y-21713042D02*
X12383783Y-21713042D01*
X12383783Y-21713042D02*
X12364735Y-21703518D01*
X12364735Y-21703518D02*
X12355212Y-21693994D01*
X12355212Y-21693994D02*
X12345688Y-21674947D01*
X12345688Y-21674947D02*
X12336164Y-21636851D01*
X12336164Y-21636851D02*
X12336164Y-21589232D01*
X12336164Y-21589232D02*
X12345688Y-21551137D01*
X12345688Y-21551137D02*
X12355212Y-21532090D01*
X12355212Y-21532090D02*
X12364735Y-21522566D01*
X12364735Y-21522566D02*
X12383783Y-21513042D01*
X12574259Y-21513042D02*
X12593307Y-21513042D01*
X12593307Y-21513042D02*
X12612354Y-21522566D01*
X12612354Y-21522566D02*
X12621878Y-21532090D01*
X12621878Y-21532090D02*
X12631402Y-21551137D01*
X12631402Y-21551137D02*
X12640926Y-21589232D01*
X12640926Y-21589232D02*
X12640926Y-21636851D01*
X12640926Y-21636851D02*
X12631402Y-21674947D01*
X12631402Y-21674947D02*
X12621878Y-21693994D01*
X12621878Y-21693994D02*
X12612354Y-21703518D01*
X12612354Y-21703518D02*
X12593307Y-21713042D01*
X12593307Y-21713042D02*
X12574259Y-21713042D01*
X12574259Y-21713042D02*
X12555212Y-21703518D01*
X12555212Y-21703518D02*
X12545688Y-21693994D01*
X12545688Y-21693994D02*
X12536164Y-21674947D01*
X12536164Y-21674947D02*
X12526640Y-21636851D01*
X12526640Y-21636851D02*
X12526640Y-21589232D01*
X12526640Y-21589232D02*
X12536164Y-21551137D01*
X12536164Y-21551137D02*
X12545688Y-21532090D01*
X12545688Y-21532090D02*
X12555212Y-21522566D01*
X12555212Y-21522566D02*
X12574259Y-21513042D01*
X12726640Y-21713042D02*
X12726640Y-21579709D01*
X12726640Y-21598756D02*
X12736164Y-21589232D01*
X12736164Y-21589232D02*
X12755212Y-21579709D01*
X12755212Y-21579709D02*
X12783783Y-21579709D01*
X12783783Y-21579709D02*
X12802831Y-21589232D01*
X12802831Y-21589232D02*
X12812354Y-21608280D01*
X12812354Y-21608280D02*
X12812354Y-21713042D01*
X12812354Y-21608280D02*
X12821878Y-21589232D01*
X12821878Y-21589232D02*
X12840926Y-21579709D01*
X12840926Y-21579709D02*
X12869497Y-21579709D01*
X12869497Y-21579709D02*
X12888545Y-21589232D01*
X12888545Y-21589232D02*
X12898069Y-21608280D01*
X12898069Y-21608280D02*
X12898069Y-21713042D01*
X12993307Y-21713042D02*
X12993307Y-21579709D01*
X12993307Y-21598756D02*
X13002831Y-21589232D01*
X13002831Y-21589232D02*
X13021878Y-21579709D01*
X13021878Y-21579709D02*
X13050450Y-21579709D01*
X13050450Y-21579709D02*
X13069497Y-21589232D01*
X13069497Y-21589232D02*
X13079021Y-21608280D01*
X13079021Y-21608280D02*
X13079021Y-21713042D01*
X13079021Y-21608280D02*
X13088545Y-21589232D01*
X13088545Y-21589232D02*
X13107593Y-21579709D01*
X13107593Y-21579709D02*
X13136164Y-21579709D01*
X13136164Y-21579709D02*
X13155212Y-21589232D01*
X13155212Y-21589232D02*
X13164735Y-21608280D01*
X13164735Y-21608280D02*
X13164735Y-21713042D01*
X13555212Y-21503518D02*
X13383783Y-21760661D01*
X13812355Y-21513042D02*
X13831402Y-21513042D01*
X13831402Y-21513042D02*
X13850450Y-21522566D01*
X13850450Y-21522566D02*
X13859974Y-21532090D01*
X13859974Y-21532090D02*
X13869497Y-21551137D01*
X13869497Y-21551137D02*
X13879021Y-21589232D01*
X13879021Y-21589232D02*
X13879021Y-21636851D01*
X13879021Y-21636851D02*
X13869497Y-21674947D01*
X13869497Y-21674947D02*
X13859974Y-21693994D01*
X13859974Y-21693994D02*
X13850450Y-21703518D01*
X13850450Y-21703518D02*
X13831402Y-21713042D01*
X13831402Y-21713042D02*
X13812355Y-21713042D01*
X13812355Y-21713042D02*
X13793307Y-21703518D01*
X13793307Y-21703518D02*
X13783783Y-21693994D01*
X13783783Y-21693994D02*
X13774259Y-21674947D01*
X13774259Y-21674947D02*
X13764736Y-21636851D01*
X13764736Y-21636851D02*
X13764736Y-21589232D01*
X13764736Y-21589232D02*
X13774259Y-21551137D01*
X13774259Y-21551137D02*
X13783783Y-21532090D01*
X13783783Y-21532090D02*
X13793307Y-21522566D01*
X13793307Y-21522566D02*
X13812355Y-21513042D01*
X13964736Y-21693994D02*
X13974259Y-21703518D01*
X13974259Y-21703518D02*
X13964736Y-21713042D01*
X13964736Y-21713042D02*
X13955212Y-21703518D01*
X13955212Y-21703518D02*
X13964736Y-21693994D01*
X13964736Y-21693994D02*
X13964736Y-21713042D01*
X14098069Y-21513042D02*
X14117117Y-21513042D01*
X14117117Y-21513042D02*
X14136164Y-21522566D01*
X14136164Y-21522566D02*
X14145688Y-21532090D01*
X14145688Y-21532090D02*
X14155212Y-21551137D01*
X14155212Y-21551137D02*
X14164736Y-21589232D01*
X14164736Y-21589232D02*
X14164736Y-21636851D01*
X14164736Y-21636851D02*
X14155212Y-21674947D01*
X14155212Y-21674947D02*
X14145688Y-21693994D01*
X14145688Y-21693994D02*
X14136164Y-21703518D01*
X14136164Y-21703518D02*
X14117117Y-21713042D01*
X14117117Y-21713042D02*
X14098069Y-21713042D01*
X14098069Y-21713042D02*
X14079021Y-21703518D01*
X14079021Y-21703518D02*
X14069497Y-21693994D01*
X14069497Y-21693994D02*
X14059974Y-21674947D01*
X14059974Y-21674947D02*
X14050450Y-21636851D01*
X14050450Y-21636851D02*
X14050450Y-21589232D01*
X14050450Y-21589232D02*
X14059974Y-21551137D01*
X14059974Y-21551137D02*
X14069497Y-21532090D01*
X14069497Y-21532090D02*
X14079021Y-21522566D01*
X14079021Y-21522566D02*
X14098069Y-21513042D01*
X14231402Y-21513042D02*
X14364736Y-21513042D01*
X14364736Y-21513042D02*
X14279021Y-21713042D01*
X14526640Y-21579709D02*
X14526640Y-21713042D01*
X14479021Y-21503518D02*
X14431402Y-21646375D01*
X14431402Y-21646375D02*
X14555212Y-21646375D01*
X14659974Y-21598756D02*
X14640926Y-21589232D01*
X14640926Y-21589232D02*
X14631402Y-21579709D01*
X14631402Y-21579709D02*
X14621878Y-21560661D01*
X14621878Y-21560661D02*
X14621878Y-21551137D01*
X14621878Y-21551137D02*
X14631402Y-21532090D01*
X14631402Y-21532090D02*
X14640926Y-21522566D01*
X14640926Y-21522566D02*
X14659974Y-21513042D01*
X14659974Y-21513042D02*
X14698069Y-21513042D01*
X14698069Y-21513042D02*
X14717117Y-21522566D01*
X14717117Y-21522566D02*
X14726640Y-21532090D01*
X14726640Y-21532090D02*
X14736164Y-21551137D01*
X14736164Y-21551137D02*
X14736164Y-21560661D01*
X14736164Y-21560661D02*
X14726640Y-21579709D01*
X14726640Y-21579709D02*
X14717117Y-21589232D01*
X14717117Y-21589232D02*
X14698069Y-21598756D01*
X14698069Y-21598756D02*
X14659974Y-21598756D01*
X14659974Y-21598756D02*
X14640926Y-21608280D01*
X14640926Y-21608280D02*
X14631402Y-21617804D01*
X14631402Y-21617804D02*
X14621878Y-21636851D01*
X14621878Y-21636851D02*
X14621878Y-21674947D01*
X14621878Y-21674947D02*
X14631402Y-21693994D01*
X14631402Y-21693994D02*
X14640926Y-21703518D01*
X14640926Y-21703518D02*
X14659974Y-21713042D01*
X14659974Y-21713042D02*
X14698069Y-21713042D01*
X14698069Y-21713042D02*
X14717117Y-21703518D01*
X14717117Y-21703518D02*
X14726640Y-21693994D01*
X14726640Y-21693994D02*
X14736164Y-21674947D01*
X14736164Y-21674947D02*
X14736164Y-21636851D01*
X14736164Y-21636851D02*
X14726640Y-21617804D01*
X14726640Y-21617804D02*
X14717117Y-21608280D01*
X14717117Y-21608280D02*
X14698069Y-21598756D01*
X14812355Y-21513042D02*
X14812355Y-21551137D01*
X14888545Y-21513042D02*
X14888545Y-21551137D01*
X15183783Y-21789232D02*
X15174259Y-21779709D01*
X15174259Y-21779709D02*
X15155212Y-21751137D01*
X15155212Y-21751137D02*
X15145688Y-21732090D01*
X15145688Y-21732090D02*
X15136164Y-21703518D01*
X15136164Y-21703518D02*
X15126640Y-21655899D01*
X15126640Y-21655899D02*
X15126640Y-21617804D01*
X15126640Y-21617804D02*
X15136164Y-21570185D01*
X15136164Y-21570185D02*
X15145688Y-21541613D01*
X15145688Y-21541613D02*
X15155212Y-21522566D01*
X15155212Y-21522566D02*
X15174259Y-21493994D01*
X15174259Y-21493994D02*
X15183783Y-21484470D01*
X15355212Y-21513042D02*
X15259974Y-21513042D01*
X15259974Y-21513042D02*
X15250450Y-21608280D01*
X15250450Y-21608280D02*
X15259974Y-21598756D01*
X15259974Y-21598756D02*
X15279021Y-21589232D01*
X15279021Y-21589232D02*
X15326640Y-21589232D01*
X15326640Y-21589232D02*
X15345688Y-21598756D01*
X15345688Y-21598756D02*
X15355212Y-21608280D01*
X15355212Y-21608280D02*
X15364736Y-21627328D01*
X15364736Y-21627328D02*
X15364736Y-21674947D01*
X15364736Y-21674947D02*
X15355212Y-21693994D01*
X15355212Y-21693994D02*
X15345688Y-21703518D01*
X15345688Y-21703518D02*
X15326640Y-21713042D01*
X15326640Y-21713042D02*
X15279021Y-21713042D01*
X15279021Y-21713042D02*
X15259974Y-21703518D01*
X15259974Y-21703518D02*
X15250450Y-21693994D01*
X15536164Y-21579709D02*
X15536164Y-21713042D01*
X15488545Y-21503518D02*
X15440926Y-21646375D01*
X15440926Y-21646375D02*
X15564736Y-21646375D01*
X15793307Y-21713042D02*
X15793307Y-21513042D01*
X15879021Y-21713042D02*
X15879021Y-21608280D01*
X15879021Y-21608280D02*
X15869498Y-21589232D01*
X15869498Y-21589232D02*
X15850450Y-21579709D01*
X15850450Y-21579709D02*
X15821879Y-21579709D01*
X15821879Y-21579709D02*
X15802831Y-21589232D01*
X15802831Y-21589232D02*
X15793307Y-21598756D01*
X16002831Y-21713042D02*
X15983783Y-21703518D01*
X15983783Y-21703518D02*
X15974260Y-21693994D01*
X15974260Y-21693994D02*
X15964736Y-21674947D01*
X15964736Y-21674947D02*
X15964736Y-21617804D01*
X15964736Y-21617804D02*
X15974260Y-21598756D01*
X15974260Y-21598756D02*
X15983783Y-21589232D01*
X15983783Y-21589232D02*
X16002831Y-21579709D01*
X16002831Y-21579709D02*
X16031402Y-21579709D01*
X16031402Y-21579709D02*
X16050450Y-21589232D01*
X16050450Y-21589232D02*
X16059974Y-21598756D01*
X16059974Y-21598756D02*
X16069498Y-21617804D01*
X16069498Y-21617804D02*
X16069498Y-21674947D01*
X16069498Y-21674947D02*
X16059974Y-21693994D01*
X16059974Y-21693994D02*
X16050450Y-21703518D01*
X16050450Y-21703518D02*
X16031402Y-21713042D01*
X16031402Y-21713042D02*
X16002831Y-21713042D01*
X16183783Y-21713042D02*
X16164736Y-21703518D01*
X16164736Y-21703518D02*
X16155212Y-21684470D01*
X16155212Y-21684470D02*
X16155212Y-21513042D01*
X16336164Y-21703518D02*
X16317117Y-21713042D01*
X16317117Y-21713042D02*
X16279021Y-21713042D01*
X16279021Y-21713042D02*
X16259974Y-21703518D01*
X16259974Y-21703518D02*
X16250450Y-21684470D01*
X16250450Y-21684470D02*
X16250450Y-21608280D01*
X16250450Y-21608280D02*
X16259974Y-21589232D01*
X16259974Y-21589232D02*
X16279021Y-21579709D01*
X16279021Y-21579709D02*
X16317117Y-21579709D01*
X16317117Y-21579709D02*
X16336164Y-21589232D01*
X16336164Y-21589232D02*
X16345688Y-21608280D01*
X16345688Y-21608280D02*
X16345688Y-21627328D01*
X16345688Y-21627328D02*
X16250450Y-21646375D01*
X16421879Y-21703518D02*
X16440926Y-21713042D01*
X16440926Y-21713042D02*
X16479021Y-21713042D01*
X16479021Y-21713042D02*
X16498069Y-21703518D01*
X16498069Y-21703518D02*
X16507593Y-21684470D01*
X16507593Y-21684470D02*
X16507593Y-21674947D01*
X16507593Y-21674947D02*
X16498069Y-21655899D01*
X16498069Y-21655899D02*
X16479021Y-21646375D01*
X16479021Y-21646375D02*
X16450450Y-21646375D01*
X16450450Y-21646375D02*
X16431402Y-21636851D01*
X16431402Y-21636851D02*
X16421879Y-21617804D01*
X16421879Y-21617804D02*
X16421879Y-21608280D01*
X16421879Y-21608280D02*
X16431402Y-21589232D01*
X16431402Y-21589232D02*
X16450450Y-21579709D01*
X16450450Y-21579709D02*
X16479021Y-21579709D01*
X16479021Y-21579709D02*
X16498069Y-21589232D01*
X16574260Y-21789232D02*
X16583783Y-21779709D01*
X16583783Y-21779709D02*
X16602831Y-21751137D01*
X16602831Y-21751137D02*
X16612355Y-21732090D01*
X16612355Y-21732090D02*
X16621879Y-21703518D01*
X16621879Y-21703518D02*
X16631402Y-21655899D01*
X16631402Y-21655899D02*
X16631402Y-21617804D01*
X16631402Y-21617804D02*
X16621879Y-21570185D01*
X16621879Y-21570185D02*
X16612355Y-21541613D01*
X16612355Y-21541613D02*
X16602831Y-21522566D01*
X16602831Y-21522566D02*
X16583783Y-21493994D01*
X16583783Y-21493994D02*
X16574260Y-21484470D01*
X16936165Y-21789232D02*
X16926641Y-21779709D01*
X16926641Y-21779709D02*
X16907593Y-21751137D01*
X16907593Y-21751137D02*
X16898069Y-21732090D01*
X16898069Y-21732090D02*
X16888545Y-21703518D01*
X16888545Y-21703518D02*
X16879022Y-21655899D01*
X16879022Y-21655899D02*
X16879022Y-21617804D01*
X16879022Y-21617804D02*
X16888545Y-21570185D01*
X16888545Y-21570185D02*
X16898069Y-21541613D01*
X16898069Y-21541613D02*
X16907593Y-21522566D01*
X16907593Y-21522566D02*
X16926641Y-21493994D01*
X16926641Y-21493994D02*
X16936165Y-21484470D01*
X17012355Y-21579709D02*
X17012355Y-21713042D01*
X17012355Y-21598756D02*
X17021879Y-21589232D01*
X17021879Y-21589232D02*
X17040926Y-21579709D01*
X17040926Y-21579709D02*
X17069498Y-21579709D01*
X17069498Y-21579709D02*
X17088545Y-21589232D01*
X17088545Y-21589232D02*
X17098069Y-21608280D01*
X17098069Y-21608280D02*
X17098069Y-21713042D01*
X17221879Y-21713042D02*
X17202831Y-21703518D01*
X17202831Y-21703518D02*
X17193307Y-21693994D01*
X17193307Y-21693994D02*
X17183784Y-21674947D01*
X17183784Y-21674947D02*
X17183784Y-21617804D01*
X17183784Y-21617804D02*
X17193307Y-21598756D01*
X17193307Y-21598756D02*
X17202831Y-21589232D01*
X17202831Y-21589232D02*
X17221879Y-21579709D01*
X17221879Y-21579709D02*
X17250450Y-21579709D01*
X17250450Y-21579709D02*
X17269498Y-21589232D01*
X17269498Y-21589232D02*
X17279022Y-21598756D01*
X17279022Y-21598756D02*
X17288545Y-21617804D01*
X17288545Y-21617804D02*
X17288545Y-21674947D01*
X17288545Y-21674947D02*
X17279022Y-21693994D01*
X17279022Y-21693994D02*
X17269498Y-21703518D01*
X17269498Y-21703518D02*
X17250450Y-21713042D01*
X17250450Y-21713042D02*
X17221879Y-21713042D01*
X17345688Y-21579709D02*
X17421879Y-21579709D01*
X17374260Y-21513042D02*
X17374260Y-21684470D01*
X17374260Y-21684470D02*
X17383784Y-21703518D01*
X17383784Y-21703518D02*
X17402831Y-21713042D01*
X17402831Y-21713042D02*
X17421879Y-21713042D01*
X17640926Y-21579709D02*
X17640926Y-21779709D01*
X17640926Y-21589232D02*
X17659974Y-21579709D01*
X17659974Y-21579709D02*
X17698069Y-21579709D01*
X17698069Y-21579709D02*
X17717117Y-21589232D01*
X17717117Y-21589232D02*
X17726641Y-21598756D01*
X17726641Y-21598756D02*
X17736165Y-21617804D01*
X17736165Y-21617804D02*
X17736165Y-21674947D01*
X17736165Y-21674947D02*
X17726641Y-21693994D01*
X17726641Y-21693994D02*
X17717117Y-21703518D01*
X17717117Y-21703518D02*
X17698069Y-21713042D01*
X17698069Y-21713042D02*
X17659974Y-21713042D01*
X17659974Y-21713042D02*
X17640926Y-21703518D01*
X17850450Y-21713042D02*
X17831403Y-21703518D01*
X17831403Y-21703518D02*
X17821879Y-21684470D01*
X17821879Y-21684470D02*
X17821879Y-21513042D01*
X18012355Y-21713042D02*
X18012355Y-21608280D01*
X18012355Y-21608280D02*
X18002831Y-21589232D01*
X18002831Y-21589232D02*
X17983784Y-21579709D01*
X17983784Y-21579709D02*
X17945688Y-21579709D01*
X17945688Y-21579709D02*
X17926641Y-21589232D01*
X18012355Y-21703518D02*
X17993307Y-21713042D01*
X17993307Y-21713042D02*
X17945688Y-21713042D01*
X17945688Y-21713042D02*
X17926641Y-21703518D01*
X17926641Y-21703518D02*
X17917117Y-21684470D01*
X17917117Y-21684470D02*
X17917117Y-21665423D01*
X17917117Y-21665423D02*
X17926641Y-21646375D01*
X17926641Y-21646375D02*
X17945688Y-21636851D01*
X17945688Y-21636851D02*
X17993307Y-21636851D01*
X17993307Y-21636851D02*
X18012355Y-21627328D01*
X18079022Y-21579709D02*
X18155212Y-21579709D01*
X18107593Y-21513042D02*
X18107593Y-21684470D01*
X18107593Y-21684470D02*
X18117117Y-21703518D01*
X18117117Y-21703518D02*
X18136165Y-21713042D01*
X18136165Y-21713042D02*
X18155212Y-21713042D01*
X18298069Y-21703518D02*
X18279022Y-21713042D01*
X18279022Y-21713042D02*
X18240926Y-21713042D01*
X18240926Y-21713042D02*
X18221879Y-21703518D01*
X18221879Y-21703518D02*
X18212355Y-21684470D01*
X18212355Y-21684470D02*
X18212355Y-21608280D01*
X18212355Y-21608280D02*
X18221879Y-21589232D01*
X18221879Y-21589232D02*
X18240926Y-21579709D01*
X18240926Y-21579709D02*
X18279022Y-21579709D01*
X18279022Y-21579709D02*
X18298069Y-21589232D01*
X18298069Y-21589232D02*
X18307593Y-21608280D01*
X18307593Y-21608280D02*
X18307593Y-21627328D01*
X18307593Y-21627328D02*
X18212355Y-21646375D01*
X18479022Y-21713042D02*
X18479022Y-21513042D01*
X18479022Y-21703518D02*
X18459974Y-21713042D01*
X18459974Y-21713042D02*
X18421879Y-21713042D01*
X18421879Y-21713042D02*
X18402831Y-21703518D01*
X18402831Y-21703518D02*
X18393307Y-21693994D01*
X18393307Y-21693994D02*
X18383784Y-21674947D01*
X18383784Y-21674947D02*
X18383784Y-21617804D01*
X18383784Y-21617804D02*
X18393307Y-21598756D01*
X18393307Y-21598756D02*
X18402831Y-21589232D01*
X18402831Y-21589232D02*
X18421879Y-21579709D01*
X18421879Y-21579709D02*
X18459974Y-21579709D01*
X18459974Y-21579709D02*
X18479022Y-21589232D01*
X18555212Y-21789232D02*
X18564736Y-21779709D01*
X18564736Y-21779709D02*
X18583784Y-21751137D01*
X18583784Y-21751137D02*
X18593307Y-21732090D01*
X18593307Y-21732090D02*
X18602831Y-21703518D01*
X18602831Y-21703518D02*
X18612355Y-21655899D01*
X18612355Y-21655899D02*
X18612355Y-21617804D01*
X18612355Y-21617804D02*
X18602831Y-21570185D01*
X18602831Y-21570185D02*
X18593307Y-21541613D01*
X18593307Y-21541613D02*
X18583784Y-21522566D01*
X18583784Y-21522566D02*
X18564736Y-21493994D01*
X18564736Y-21493994D02*
X18555212Y-21484470D01*
X11508720Y-21831558D02*
X11508720Y-22031558D01*
X11408720Y-21931558D02*
X11608720Y-21931558D01*
X11850450Y-21823042D02*
X11974259Y-21823042D01*
X11974259Y-21823042D02*
X11907592Y-21899232D01*
X11907592Y-21899232D02*
X11936164Y-21899232D01*
X11936164Y-21899232D02*
X11955212Y-21908756D01*
X11955212Y-21908756D02*
X11964735Y-21918280D01*
X11964735Y-21918280D02*
X11974259Y-21937328D01*
X11974259Y-21937328D02*
X11974259Y-21984947D01*
X11974259Y-21984947D02*
X11964735Y-22003994D01*
X11964735Y-22003994D02*
X11955212Y-22013518D01*
X11955212Y-22013518D02*
X11936164Y-22023042D01*
X11936164Y-22023042D02*
X11879021Y-22023042D01*
X11879021Y-22023042D02*
X11859973Y-22013518D01*
X11859973Y-22013518D02*
X11850450Y-22003994D01*
X12059973Y-22003994D02*
X12069497Y-22013518D01*
X12069497Y-22013518D02*
X12059973Y-22023042D01*
X12059973Y-22023042D02*
X12050450Y-22013518D01*
X12050450Y-22013518D02*
X12059973Y-22003994D01*
X12059973Y-22003994D02*
X12059973Y-22023042D01*
X12193307Y-21823042D02*
X12212354Y-21823042D01*
X12212354Y-21823042D02*
X12231402Y-21832566D01*
X12231402Y-21832566D02*
X12240926Y-21842090D01*
X12240926Y-21842090D02*
X12250450Y-21861137D01*
X12250450Y-21861137D02*
X12259973Y-21899232D01*
X12259973Y-21899232D02*
X12259973Y-21946851D01*
X12259973Y-21946851D02*
X12250450Y-21984947D01*
X12250450Y-21984947D02*
X12240926Y-22003994D01*
X12240926Y-22003994D02*
X12231402Y-22013518D01*
X12231402Y-22013518D02*
X12212354Y-22023042D01*
X12212354Y-22023042D02*
X12193307Y-22023042D01*
X12193307Y-22023042D02*
X12174259Y-22013518D01*
X12174259Y-22013518D02*
X12164735Y-22003994D01*
X12164735Y-22003994D02*
X12155212Y-21984947D01*
X12155212Y-21984947D02*
X12145688Y-21946851D01*
X12145688Y-21946851D02*
X12145688Y-21899232D01*
X12145688Y-21899232D02*
X12155212Y-21861137D01*
X12155212Y-21861137D02*
X12164735Y-21842090D01*
X12164735Y-21842090D02*
X12174259Y-21832566D01*
X12174259Y-21832566D02*
X12193307Y-21823042D01*
X12383783Y-21823042D02*
X12402831Y-21823042D01*
X12402831Y-21823042D02*
X12421878Y-21832566D01*
X12421878Y-21832566D02*
X12431402Y-21842090D01*
X12431402Y-21842090D02*
X12440926Y-21861137D01*
X12440926Y-21861137D02*
X12450450Y-21899232D01*
X12450450Y-21899232D02*
X12450450Y-21946851D01*
X12450450Y-21946851D02*
X12440926Y-21984947D01*
X12440926Y-21984947D02*
X12431402Y-22003994D01*
X12431402Y-22003994D02*
X12421878Y-22013518D01*
X12421878Y-22013518D02*
X12402831Y-22023042D01*
X12402831Y-22023042D02*
X12383783Y-22023042D01*
X12383783Y-22023042D02*
X12364735Y-22013518D01*
X12364735Y-22013518D02*
X12355212Y-22003994D01*
X12355212Y-22003994D02*
X12345688Y-21984947D01*
X12345688Y-21984947D02*
X12336164Y-21946851D01*
X12336164Y-21946851D02*
X12336164Y-21899232D01*
X12336164Y-21899232D02*
X12345688Y-21861137D01*
X12345688Y-21861137D02*
X12355212Y-21842090D01*
X12355212Y-21842090D02*
X12364735Y-21832566D01*
X12364735Y-21832566D02*
X12383783Y-21823042D01*
X12574259Y-21823042D02*
X12593307Y-21823042D01*
X12593307Y-21823042D02*
X12612354Y-21832566D01*
X12612354Y-21832566D02*
X12621878Y-21842090D01*
X12621878Y-21842090D02*
X12631402Y-21861137D01*
X12631402Y-21861137D02*
X12640926Y-21899232D01*
X12640926Y-21899232D02*
X12640926Y-21946851D01*
X12640926Y-21946851D02*
X12631402Y-21984947D01*
X12631402Y-21984947D02*
X12621878Y-22003994D01*
X12621878Y-22003994D02*
X12612354Y-22013518D01*
X12612354Y-22013518D02*
X12593307Y-22023042D01*
X12593307Y-22023042D02*
X12574259Y-22023042D01*
X12574259Y-22023042D02*
X12555212Y-22013518D01*
X12555212Y-22013518D02*
X12545688Y-22003994D01*
X12545688Y-22003994D02*
X12536164Y-21984947D01*
X12536164Y-21984947D02*
X12526640Y-21946851D01*
X12526640Y-21946851D02*
X12526640Y-21899232D01*
X12526640Y-21899232D02*
X12536164Y-21861137D01*
X12536164Y-21861137D02*
X12545688Y-21842090D01*
X12545688Y-21842090D02*
X12555212Y-21832566D01*
X12555212Y-21832566D02*
X12574259Y-21823042D01*
X12726640Y-22023042D02*
X12726640Y-21889709D01*
X12726640Y-21908756D02*
X12736164Y-21899232D01*
X12736164Y-21899232D02*
X12755212Y-21889709D01*
X12755212Y-21889709D02*
X12783783Y-21889709D01*
X12783783Y-21889709D02*
X12802831Y-21899232D01*
X12802831Y-21899232D02*
X12812354Y-21918280D01*
X12812354Y-21918280D02*
X12812354Y-22023042D01*
X12812354Y-21918280D02*
X12821878Y-21899232D01*
X12821878Y-21899232D02*
X12840926Y-21889709D01*
X12840926Y-21889709D02*
X12869497Y-21889709D01*
X12869497Y-21889709D02*
X12888545Y-21899232D01*
X12888545Y-21899232D02*
X12898069Y-21918280D01*
X12898069Y-21918280D02*
X12898069Y-22023042D01*
X12993307Y-22023042D02*
X12993307Y-21889709D01*
X12993307Y-21908756D02*
X13002831Y-21899232D01*
X13002831Y-21899232D02*
X13021878Y-21889709D01*
X13021878Y-21889709D02*
X13050450Y-21889709D01*
X13050450Y-21889709D02*
X13069497Y-21899232D01*
X13069497Y-21899232D02*
X13079021Y-21918280D01*
X13079021Y-21918280D02*
X13079021Y-22023042D01*
X13079021Y-21918280D02*
X13088545Y-21899232D01*
X13088545Y-21899232D02*
X13107593Y-21889709D01*
X13107593Y-21889709D02*
X13136164Y-21889709D01*
X13136164Y-21889709D02*
X13155212Y-21899232D01*
X13155212Y-21899232D02*
X13164735Y-21918280D01*
X13164735Y-21918280D02*
X13164735Y-22023042D01*
X13555212Y-21813518D02*
X13383783Y-22070661D01*
X13812355Y-21823042D02*
X13831402Y-21823042D01*
X13831402Y-21823042D02*
X13850450Y-21832566D01*
X13850450Y-21832566D02*
X13859974Y-21842090D01*
X13859974Y-21842090D02*
X13869497Y-21861137D01*
X13869497Y-21861137D02*
X13879021Y-21899232D01*
X13879021Y-21899232D02*
X13879021Y-21946851D01*
X13879021Y-21946851D02*
X13869497Y-21984947D01*
X13869497Y-21984947D02*
X13859974Y-22003994D01*
X13859974Y-22003994D02*
X13850450Y-22013518D01*
X13850450Y-22013518D02*
X13831402Y-22023042D01*
X13831402Y-22023042D02*
X13812355Y-22023042D01*
X13812355Y-22023042D02*
X13793307Y-22013518D01*
X13793307Y-22013518D02*
X13783783Y-22003994D01*
X13783783Y-22003994D02*
X13774259Y-21984947D01*
X13774259Y-21984947D02*
X13764736Y-21946851D01*
X13764736Y-21946851D02*
X13764736Y-21899232D01*
X13764736Y-21899232D02*
X13774259Y-21861137D01*
X13774259Y-21861137D02*
X13783783Y-21842090D01*
X13783783Y-21842090D02*
X13793307Y-21832566D01*
X13793307Y-21832566D02*
X13812355Y-21823042D01*
X13964736Y-22003994D02*
X13974259Y-22013518D01*
X13974259Y-22013518D02*
X13964736Y-22023042D01*
X13964736Y-22023042D02*
X13955212Y-22013518D01*
X13955212Y-22013518D02*
X13964736Y-22003994D01*
X13964736Y-22003994D02*
X13964736Y-22023042D01*
X14164736Y-22023042D02*
X14050450Y-22023042D01*
X14107593Y-22023042D02*
X14107593Y-21823042D01*
X14107593Y-21823042D02*
X14088545Y-21851613D01*
X14088545Y-21851613D02*
X14069497Y-21870661D01*
X14069497Y-21870661D02*
X14050450Y-21880185D01*
X14355212Y-22023042D02*
X14240926Y-22023042D01*
X14298069Y-22023042D02*
X14298069Y-21823042D01*
X14298069Y-21823042D02*
X14279021Y-21851613D01*
X14279021Y-21851613D02*
X14259974Y-21870661D01*
X14259974Y-21870661D02*
X14240926Y-21880185D01*
X14469497Y-21908756D02*
X14450450Y-21899232D01*
X14450450Y-21899232D02*
X14440926Y-21889709D01*
X14440926Y-21889709D02*
X14431402Y-21870661D01*
X14431402Y-21870661D02*
X14431402Y-21861137D01*
X14431402Y-21861137D02*
X14440926Y-21842090D01*
X14440926Y-21842090D02*
X14450450Y-21832566D01*
X14450450Y-21832566D02*
X14469497Y-21823042D01*
X14469497Y-21823042D02*
X14507593Y-21823042D01*
X14507593Y-21823042D02*
X14526640Y-21832566D01*
X14526640Y-21832566D02*
X14536164Y-21842090D01*
X14536164Y-21842090D02*
X14545688Y-21861137D01*
X14545688Y-21861137D02*
X14545688Y-21870661D01*
X14545688Y-21870661D02*
X14536164Y-21889709D01*
X14536164Y-21889709D02*
X14526640Y-21899232D01*
X14526640Y-21899232D02*
X14507593Y-21908756D01*
X14507593Y-21908756D02*
X14469497Y-21908756D01*
X14469497Y-21908756D02*
X14450450Y-21918280D01*
X14450450Y-21918280D02*
X14440926Y-21927804D01*
X14440926Y-21927804D02*
X14431402Y-21946851D01*
X14431402Y-21946851D02*
X14431402Y-21984947D01*
X14431402Y-21984947D02*
X14440926Y-22003994D01*
X14440926Y-22003994D02*
X14450450Y-22013518D01*
X14450450Y-22013518D02*
X14469497Y-22023042D01*
X14469497Y-22023042D02*
X14507593Y-22023042D01*
X14507593Y-22023042D02*
X14526640Y-22013518D01*
X14526640Y-22013518D02*
X14536164Y-22003994D01*
X14536164Y-22003994D02*
X14545688Y-21984947D01*
X14545688Y-21984947D02*
X14545688Y-21946851D01*
X14545688Y-21946851D02*
X14536164Y-21927804D01*
X14536164Y-21927804D02*
X14526640Y-21918280D01*
X14526640Y-21918280D02*
X14507593Y-21908756D01*
X14736164Y-22023042D02*
X14621878Y-22023042D01*
X14679021Y-22023042D02*
X14679021Y-21823042D01*
X14679021Y-21823042D02*
X14659974Y-21851613D01*
X14659974Y-21851613D02*
X14640926Y-21870661D01*
X14640926Y-21870661D02*
X14621878Y-21880185D01*
X14812355Y-21823042D02*
X14812355Y-21861137D01*
X14888545Y-21823042D02*
X14888545Y-21861137D01*
X15183783Y-22099232D02*
X15174259Y-22089709D01*
X15174259Y-22089709D02*
X15155212Y-22061137D01*
X15155212Y-22061137D02*
X15145688Y-22042090D01*
X15145688Y-22042090D02*
X15136164Y-22013518D01*
X15136164Y-22013518D02*
X15126640Y-21965899D01*
X15126640Y-21965899D02*
X15126640Y-21927804D01*
X15126640Y-21927804D02*
X15136164Y-21880185D01*
X15136164Y-21880185D02*
X15145688Y-21851613D01*
X15145688Y-21851613D02*
X15155212Y-21832566D01*
X15155212Y-21832566D02*
X15174259Y-21803994D01*
X15174259Y-21803994D02*
X15183783Y-21794470D01*
X15355212Y-21823042D02*
X15259974Y-21823042D01*
X15259974Y-21823042D02*
X15250450Y-21918280D01*
X15250450Y-21918280D02*
X15259974Y-21908756D01*
X15259974Y-21908756D02*
X15279021Y-21899232D01*
X15279021Y-21899232D02*
X15326640Y-21899232D01*
X15326640Y-21899232D02*
X15345688Y-21908756D01*
X15345688Y-21908756D02*
X15355212Y-21918280D01*
X15355212Y-21918280D02*
X15364736Y-21937328D01*
X15364736Y-21937328D02*
X15364736Y-21984947D01*
X15364736Y-21984947D02*
X15355212Y-22003994D01*
X15355212Y-22003994D02*
X15345688Y-22013518D01*
X15345688Y-22013518D02*
X15326640Y-22023042D01*
X15326640Y-22023042D02*
X15279021Y-22023042D01*
X15279021Y-22023042D02*
X15259974Y-22013518D01*
X15259974Y-22013518D02*
X15250450Y-22003994D01*
X15536164Y-21889709D02*
X15536164Y-22023042D01*
X15488545Y-21813518D02*
X15440926Y-21956375D01*
X15440926Y-21956375D02*
X15564736Y-21956375D01*
X15793307Y-22023042D02*
X15793307Y-21823042D01*
X15879021Y-22023042D02*
X15879021Y-21918280D01*
X15879021Y-21918280D02*
X15869498Y-21899232D01*
X15869498Y-21899232D02*
X15850450Y-21889709D01*
X15850450Y-21889709D02*
X15821879Y-21889709D01*
X15821879Y-21889709D02*
X15802831Y-21899232D01*
X15802831Y-21899232D02*
X15793307Y-21908756D01*
X16002831Y-22023042D02*
X15983783Y-22013518D01*
X15983783Y-22013518D02*
X15974260Y-22003994D01*
X15974260Y-22003994D02*
X15964736Y-21984947D01*
X15964736Y-21984947D02*
X15964736Y-21927804D01*
X15964736Y-21927804D02*
X15974260Y-21908756D01*
X15974260Y-21908756D02*
X15983783Y-21899232D01*
X15983783Y-21899232D02*
X16002831Y-21889709D01*
X16002831Y-21889709D02*
X16031402Y-21889709D01*
X16031402Y-21889709D02*
X16050450Y-21899232D01*
X16050450Y-21899232D02*
X16059974Y-21908756D01*
X16059974Y-21908756D02*
X16069498Y-21927804D01*
X16069498Y-21927804D02*
X16069498Y-21984947D01*
X16069498Y-21984947D02*
X16059974Y-22003994D01*
X16059974Y-22003994D02*
X16050450Y-22013518D01*
X16050450Y-22013518D02*
X16031402Y-22023042D01*
X16031402Y-22023042D02*
X16002831Y-22023042D01*
X16183783Y-22023042D02*
X16164736Y-22013518D01*
X16164736Y-22013518D02*
X16155212Y-21994470D01*
X16155212Y-21994470D02*
X16155212Y-21823042D01*
X16336164Y-22013518D02*
X16317117Y-22023042D01*
X16317117Y-22023042D02*
X16279021Y-22023042D01*
X16279021Y-22023042D02*
X16259974Y-22013518D01*
X16259974Y-22013518D02*
X16250450Y-21994470D01*
X16250450Y-21994470D02*
X16250450Y-21918280D01*
X16250450Y-21918280D02*
X16259974Y-21899232D01*
X16259974Y-21899232D02*
X16279021Y-21889709D01*
X16279021Y-21889709D02*
X16317117Y-21889709D01*
X16317117Y-21889709D02*
X16336164Y-21899232D01*
X16336164Y-21899232D02*
X16345688Y-21918280D01*
X16345688Y-21918280D02*
X16345688Y-21937328D01*
X16345688Y-21937328D02*
X16250450Y-21956375D01*
X16421879Y-22013518D02*
X16440926Y-22023042D01*
X16440926Y-22023042D02*
X16479021Y-22023042D01*
X16479021Y-22023042D02*
X16498069Y-22013518D01*
X16498069Y-22013518D02*
X16507593Y-21994470D01*
X16507593Y-21994470D02*
X16507593Y-21984947D01*
X16507593Y-21984947D02*
X16498069Y-21965899D01*
X16498069Y-21965899D02*
X16479021Y-21956375D01*
X16479021Y-21956375D02*
X16450450Y-21956375D01*
X16450450Y-21956375D02*
X16431402Y-21946851D01*
X16431402Y-21946851D02*
X16421879Y-21927804D01*
X16421879Y-21927804D02*
X16421879Y-21918280D01*
X16421879Y-21918280D02*
X16431402Y-21899232D01*
X16431402Y-21899232D02*
X16450450Y-21889709D01*
X16450450Y-21889709D02*
X16479021Y-21889709D01*
X16479021Y-21889709D02*
X16498069Y-21899232D01*
X16574260Y-22099232D02*
X16583783Y-22089709D01*
X16583783Y-22089709D02*
X16602831Y-22061137D01*
X16602831Y-22061137D02*
X16612355Y-22042090D01*
X16612355Y-22042090D02*
X16621879Y-22013518D01*
X16621879Y-22013518D02*
X16631402Y-21965899D01*
X16631402Y-21965899D02*
X16631402Y-21927804D01*
X16631402Y-21927804D02*
X16621879Y-21880185D01*
X16621879Y-21880185D02*
X16612355Y-21851613D01*
X16612355Y-21851613D02*
X16602831Y-21832566D01*
X16602831Y-21832566D02*
X16583783Y-21803994D01*
X16583783Y-21803994D02*
X16574260Y-21794470D01*
X16936165Y-22099232D02*
X16926641Y-22089709D01*
X16926641Y-22089709D02*
X16907593Y-22061137D01*
X16907593Y-22061137D02*
X16898069Y-22042090D01*
X16898069Y-22042090D02*
X16888545Y-22013518D01*
X16888545Y-22013518D02*
X16879022Y-21965899D01*
X16879022Y-21965899D02*
X16879022Y-21927804D01*
X16879022Y-21927804D02*
X16888545Y-21880185D01*
X16888545Y-21880185D02*
X16898069Y-21851613D01*
X16898069Y-21851613D02*
X16907593Y-21832566D01*
X16907593Y-21832566D02*
X16926641Y-21803994D01*
X16926641Y-21803994D02*
X16936165Y-21794470D01*
X17012355Y-21889709D02*
X17012355Y-22023042D01*
X17012355Y-21908756D02*
X17021879Y-21899232D01*
X17021879Y-21899232D02*
X17040926Y-21889709D01*
X17040926Y-21889709D02*
X17069498Y-21889709D01*
X17069498Y-21889709D02*
X17088545Y-21899232D01*
X17088545Y-21899232D02*
X17098069Y-21918280D01*
X17098069Y-21918280D02*
X17098069Y-22023042D01*
X17221879Y-22023042D02*
X17202831Y-22013518D01*
X17202831Y-22013518D02*
X17193307Y-22003994D01*
X17193307Y-22003994D02*
X17183784Y-21984947D01*
X17183784Y-21984947D02*
X17183784Y-21927804D01*
X17183784Y-21927804D02*
X17193307Y-21908756D01*
X17193307Y-21908756D02*
X17202831Y-21899232D01*
X17202831Y-21899232D02*
X17221879Y-21889709D01*
X17221879Y-21889709D02*
X17250450Y-21889709D01*
X17250450Y-21889709D02*
X17269498Y-21899232D01*
X17269498Y-21899232D02*
X17279022Y-21908756D01*
X17279022Y-21908756D02*
X17288545Y-21927804D01*
X17288545Y-21927804D02*
X17288545Y-21984947D01*
X17288545Y-21984947D02*
X17279022Y-22003994D01*
X17279022Y-22003994D02*
X17269498Y-22013518D01*
X17269498Y-22013518D02*
X17250450Y-22023042D01*
X17250450Y-22023042D02*
X17221879Y-22023042D01*
X17345688Y-21889709D02*
X17421879Y-21889709D01*
X17374260Y-21823042D02*
X17374260Y-21994470D01*
X17374260Y-21994470D02*
X17383784Y-22013518D01*
X17383784Y-22013518D02*
X17402831Y-22023042D01*
X17402831Y-22023042D02*
X17421879Y-22023042D01*
X17640926Y-21889709D02*
X17640926Y-22089709D01*
X17640926Y-21899232D02*
X17659974Y-21889709D01*
X17659974Y-21889709D02*
X17698069Y-21889709D01*
X17698069Y-21889709D02*
X17717117Y-21899232D01*
X17717117Y-21899232D02*
X17726641Y-21908756D01*
X17726641Y-21908756D02*
X17736165Y-21927804D01*
X17736165Y-21927804D02*
X17736165Y-21984947D01*
X17736165Y-21984947D02*
X17726641Y-22003994D01*
X17726641Y-22003994D02*
X17717117Y-22013518D01*
X17717117Y-22013518D02*
X17698069Y-22023042D01*
X17698069Y-22023042D02*
X17659974Y-22023042D01*
X17659974Y-22023042D02*
X17640926Y-22013518D01*
X17850450Y-22023042D02*
X17831403Y-22013518D01*
X17831403Y-22013518D02*
X17821879Y-21994470D01*
X17821879Y-21994470D02*
X17821879Y-21823042D01*
X18012355Y-22023042D02*
X18012355Y-21918280D01*
X18012355Y-21918280D02*
X18002831Y-21899232D01*
X18002831Y-21899232D02*
X17983784Y-21889709D01*
X17983784Y-21889709D02*
X17945688Y-21889709D01*
X17945688Y-21889709D02*
X17926641Y-21899232D01*
X18012355Y-22013518D02*
X17993307Y-22023042D01*
X17993307Y-22023042D02*
X17945688Y-22023042D01*
X17945688Y-22023042D02*
X17926641Y-22013518D01*
X17926641Y-22013518D02*
X17917117Y-21994470D01*
X17917117Y-21994470D02*
X17917117Y-21975423D01*
X17917117Y-21975423D02*
X17926641Y-21956375D01*
X17926641Y-21956375D02*
X17945688Y-21946851D01*
X17945688Y-21946851D02*
X17993307Y-21946851D01*
X17993307Y-21946851D02*
X18012355Y-21937328D01*
X18079022Y-21889709D02*
X18155212Y-21889709D01*
X18107593Y-21823042D02*
X18107593Y-21994470D01*
X18107593Y-21994470D02*
X18117117Y-22013518D01*
X18117117Y-22013518D02*
X18136165Y-22023042D01*
X18136165Y-22023042D02*
X18155212Y-22023042D01*
X18298069Y-22013518D02*
X18279022Y-22023042D01*
X18279022Y-22023042D02*
X18240926Y-22023042D01*
X18240926Y-22023042D02*
X18221879Y-22013518D01*
X18221879Y-22013518D02*
X18212355Y-21994470D01*
X18212355Y-21994470D02*
X18212355Y-21918280D01*
X18212355Y-21918280D02*
X18221879Y-21899232D01*
X18221879Y-21899232D02*
X18240926Y-21889709D01*
X18240926Y-21889709D02*
X18279022Y-21889709D01*
X18279022Y-21889709D02*
X18298069Y-21899232D01*
X18298069Y-21899232D02*
X18307593Y-21918280D01*
X18307593Y-21918280D02*
X18307593Y-21937328D01*
X18307593Y-21937328D02*
X18212355Y-21956375D01*
X18479022Y-22023042D02*
X18479022Y-21823042D01*
X18479022Y-22013518D02*
X18459974Y-22023042D01*
X18459974Y-22023042D02*
X18421879Y-22023042D01*
X18421879Y-22023042D02*
X18402831Y-22013518D01*
X18402831Y-22013518D02*
X18393307Y-22003994D01*
X18393307Y-22003994D02*
X18383784Y-21984947D01*
X18383784Y-21984947D02*
X18383784Y-21927804D01*
X18383784Y-21927804D02*
X18393307Y-21908756D01*
X18393307Y-21908756D02*
X18402831Y-21899232D01*
X18402831Y-21899232D02*
X18421879Y-21889709D01*
X18421879Y-21889709D02*
X18459974Y-21889709D01*
X18459974Y-21889709D02*
X18479022Y-21899232D01*
X18555212Y-22099232D02*
X18564736Y-22089709D01*
X18564736Y-22089709D02*
X18583784Y-22061137D01*
X18583784Y-22061137D02*
X18593307Y-22042090D01*
X18593307Y-22042090D02*
X18602831Y-22013518D01*
X18602831Y-22013518D02*
X18612355Y-21965899D01*
X18612355Y-21965899D02*
X18612355Y-21927804D01*
X18612355Y-21927804D02*
X18602831Y-21880185D01*
X18602831Y-21880185D02*
X18593307Y-21851613D01*
X18593307Y-21851613D02*
X18583784Y-21832566D01*
X18583784Y-21832566D02*
X18564736Y-21803994D01*
X18564736Y-21803994D02*
X18555212Y-21794470D01*
X11579432Y-22322270D02*
X11579432Y-22180847D01*
X11438009Y-22180847D01*
X11438009Y-22322270D01*
X11579432Y-22322270D01*
X11955212Y-22209709D02*
X11955212Y-22343042D01*
X11907592Y-22133518D02*
X11859973Y-22276375D01*
X11859973Y-22276375D02*
X11983783Y-22276375D01*
X12059973Y-22323994D02*
X12069497Y-22333518D01*
X12069497Y-22333518D02*
X12059973Y-22343042D01*
X12059973Y-22343042D02*
X12050450Y-22333518D01*
X12050450Y-22333518D02*
X12059973Y-22323994D01*
X12059973Y-22323994D02*
X12059973Y-22343042D01*
X12259973Y-22343042D02*
X12145688Y-22343042D01*
X12202831Y-22343042D02*
X12202831Y-22143042D01*
X12202831Y-22143042D02*
X12183783Y-22171613D01*
X12183783Y-22171613D02*
X12164735Y-22190661D01*
X12164735Y-22190661D02*
X12145688Y-22200185D01*
X12383783Y-22143042D02*
X12402831Y-22143042D01*
X12402831Y-22143042D02*
X12421878Y-22152566D01*
X12421878Y-22152566D02*
X12431402Y-22162090D01*
X12431402Y-22162090D02*
X12440926Y-22181137D01*
X12440926Y-22181137D02*
X12450450Y-22219232D01*
X12450450Y-22219232D02*
X12450450Y-22266851D01*
X12450450Y-22266851D02*
X12440926Y-22304947D01*
X12440926Y-22304947D02*
X12431402Y-22323994D01*
X12431402Y-22323994D02*
X12421878Y-22333518D01*
X12421878Y-22333518D02*
X12402831Y-22343042D01*
X12402831Y-22343042D02*
X12383783Y-22343042D01*
X12383783Y-22343042D02*
X12364735Y-22333518D01*
X12364735Y-22333518D02*
X12355212Y-22323994D01*
X12355212Y-22323994D02*
X12345688Y-22304947D01*
X12345688Y-22304947D02*
X12336164Y-22266851D01*
X12336164Y-22266851D02*
X12336164Y-22219232D01*
X12336164Y-22219232D02*
X12345688Y-22181137D01*
X12345688Y-22181137D02*
X12355212Y-22162090D01*
X12355212Y-22162090D02*
X12364735Y-22152566D01*
X12364735Y-22152566D02*
X12383783Y-22143042D01*
X12574259Y-22143042D02*
X12593307Y-22143042D01*
X12593307Y-22143042D02*
X12612354Y-22152566D01*
X12612354Y-22152566D02*
X12621878Y-22162090D01*
X12621878Y-22162090D02*
X12631402Y-22181137D01*
X12631402Y-22181137D02*
X12640926Y-22219232D01*
X12640926Y-22219232D02*
X12640926Y-22266851D01*
X12640926Y-22266851D02*
X12631402Y-22304947D01*
X12631402Y-22304947D02*
X12621878Y-22323994D01*
X12621878Y-22323994D02*
X12612354Y-22333518D01*
X12612354Y-22333518D02*
X12593307Y-22343042D01*
X12593307Y-22343042D02*
X12574259Y-22343042D01*
X12574259Y-22343042D02*
X12555212Y-22333518D01*
X12555212Y-22333518D02*
X12545688Y-22323994D01*
X12545688Y-22323994D02*
X12536164Y-22304947D01*
X12536164Y-22304947D02*
X12526640Y-22266851D01*
X12526640Y-22266851D02*
X12526640Y-22219232D01*
X12526640Y-22219232D02*
X12536164Y-22181137D01*
X12536164Y-22181137D02*
X12545688Y-22162090D01*
X12545688Y-22162090D02*
X12555212Y-22152566D01*
X12555212Y-22152566D02*
X12574259Y-22143042D01*
X12726640Y-22343042D02*
X12726640Y-22209709D01*
X12726640Y-22228756D02*
X12736164Y-22219232D01*
X12736164Y-22219232D02*
X12755212Y-22209709D01*
X12755212Y-22209709D02*
X12783783Y-22209709D01*
X12783783Y-22209709D02*
X12802831Y-22219232D01*
X12802831Y-22219232D02*
X12812354Y-22238280D01*
X12812354Y-22238280D02*
X12812354Y-22343042D01*
X12812354Y-22238280D02*
X12821878Y-22219232D01*
X12821878Y-22219232D02*
X12840926Y-22209709D01*
X12840926Y-22209709D02*
X12869497Y-22209709D01*
X12869497Y-22209709D02*
X12888545Y-22219232D01*
X12888545Y-22219232D02*
X12898069Y-22238280D01*
X12898069Y-22238280D02*
X12898069Y-22343042D01*
X12993307Y-22343042D02*
X12993307Y-22209709D01*
X12993307Y-22228756D02*
X13002831Y-22219232D01*
X13002831Y-22219232D02*
X13021878Y-22209709D01*
X13021878Y-22209709D02*
X13050450Y-22209709D01*
X13050450Y-22209709D02*
X13069497Y-22219232D01*
X13069497Y-22219232D02*
X13079021Y-22238280D01*
X13079021Y-22238280D02*
X13079021Y-22343042D01*
X13079021Y-22238280D02*
X13088545Y-22219232D01*
X13088545Y-22219232D02*
X13107593Y-22209709D01*
X13107593Y-22209709D02*
X13136164Y-22209709D01*
X13136164Y-22209709D02*
X13155212Y-22219232D01*
X13155212Y-22219232D02*
X13164735Y-22238280D01*
X13164735Y-22238280D02*
X13164735Y-22343042D01*
X13555212Y-22133518D02*
X13383783Y-22390661D01*
X13812355Y-22143042D02*
X13831402Y-22143042D01*
X13831402Y-22143042D02*
X13850450Y-22152566D01*
X13850450Y-22152566D02*
X13859974Y-22162090D01*
X13859974Y-22162090D02*
X13869497Y-22181137D01*
X13869497Y-22181137D02*
X13879021Y-22219232D01*
X13879021Y-22219232D02*
X13879021Y-22266851D01*
X13879021Y-22266851D02*
X13869497Y-22304947D01*
X13869497Y-22304947D02*
X13859974Y-22323994D01*
X13859974Y-22323994D02*
X13850450Y-22333518D01*
X13850450Y-22333518D02*
X13831402Y-22343042D01*
X13831402Y-22343042D02*
X13812355Y-22343042D01*
X13812355Y-22343042D02*
X13793307Y-22333518D01*
X13793307Y-22333518D02*
X13783783Y-22323994D01*
X13783783Y-22323994D02*
X13774259Y-22304947D01*
X13774259Y-22304947D02*
X13764736Y-22266851D01*
X13764736Y-22266851D02*
X13764736Y-22219232D01*
X13764736Y-22219232D02*
X13774259Y-22181137D01*
X13774259Y-22181137D02*
X13783783Y-22162090D01*
X13783783Y-22162090D02*
X13793307Y-22152566D01*
X13793307Y-22152566D02*
X13812355Y-22143042D01*
X13964736Y-22323994D02*
X13974259Y-22333518D01*
X13974259Y-22333518D02*
X13964736Y-22343042D01*
X13964736Y-22343042D02*
X13955212Y-22333518D01*
X13955212Y-22333518D02*
X13964736Y-22323994D01*
X13964736Y-22323994D02*
X13964736Y-22343042D01*
X14164736Y-22343042D02*
X14050450Y-22343042D01*
X14107593Y-22343042D02*
X14107593Y-22143042D01*
X14107593Y-22143042D02*
X14088545Y-22171613D01*
X14088545Y-22171613D02*
X14069497Y-22190661D01*
X14069497Y-22190661D02*
X14050450Y-22200185D01*
X14336164Y-22143042D02*
X14298069Y-22143042D01*
X14298069Y-22143042D02*
X14279021Y-22152566D01*
X14279021Y-22152566D02*
X14269497Y-22162090D01*
X14269497Y-22162090D02*
X14250450Y-22190661D01*
X14250450Y-22190661D02*
X14240926Y-22228756D01*
X14240926Y-22228756D02*
X14240926Y-22304947D01*
X14240926Y-22304947D02*
X14250450Y-22323994D01*
X14250450Y-22323994D02*
X14259974Y-22333518D01*
X14259974Y-22333518D02*
X14279021Y-22343042D01*
X14279021Y-22343042D02*
X14317117Y-22343042D01*
X14317117Y-22343042D02*
X14336164Y-22333518D01*
X14336164Y-22333518D02*
X14345688Y-22323994D01*
X14345688Y-22323994D02*
X14355212Y-22304947D01*
X14355212Y-22304947D02*
X14355212Y-22257328D01*
X14355212Y-22257328D02*
X14345688Y-22238280D01*
X14345688Y-22238280D02*
X14336164Y-22228756D01*
X14336164Y-22228756D02*
X14317117Y-22219232D01*
X14317117Y-22219232D02*
X14279021Y-22219232D01*
X14279021Y-22219232D02*
X14259974Y-22228756D01*
X14259974Y-22228756D02*
X14250450Y-22238280D01*
X14250450Y-22238280D02*
X14240926Y-22257328D01*
X14545688Y-22343042D02*
X14431402Y-22343042D01*
X14488545Y-22343042D02*
X14488545Y-22143042D01*
X14488545Y-22143042D02*
X14469497Y-22171613D01*
X14469497Y-22171613D02*
X14450450Y-22190661D01*
X14450450Y-22190661D02*
X14431402Y-22200185D01*
X14717117Y-22209709D02*
X14717117Y-22343042D01*
X14669497Y-22133518D02*
X14621878Y-22276375D01*
X14621878Y-22276375D02*
X14745688Y-22276375D01*
X14812355Y-22143042D02*
X14812355Y-22181137D01*
X14888545Y-22143042D02*
X14888545Y-22181137D01*
X15183783Y-22419232D02*
X15174259Y-22409708D01*
X15174259Y-22409708D02*
X15155212Y-22381137D01*
X15155212Y-22381137D02*
X15145688Y-22362090D01*
X15145688Y-22362090D02*
X15136164Y-22333518D01*
X15136164Y-22333518D02*
X15126640Y-22285899D01*
X15126640Y-22285899D02*
X15126640Y-22247804D01*
X15126640Y-22247804D02*
X15136164Y-22200185D01*
X15136164Y-22200185D02*
X15145688Y-22171613D01*
X15145688Y-22171613D02*
X15155212Y-22152566D01*
X15155212Y-22152566D02*
X15174259Y-22123994D01*
X15174259Y-22123994D02*
X15183783Y-22114470D01*
X15250450Y-22162090D02*
X15259974Y-22152566D01*
X15259974Y-22152566D02*
X15279021Y-22143042D01*
X15279021Y-22143042D02*
X15326640Y-22143042D01*
X15326640Y-22143042D02*
X15345688Y-22152566D01*
X15345688Y-22152566D02*
X15355212Y-22162090D01*
X15355212Y-22162090D02*
X15364736Y-22181137D01*
X15364736Y-22181137D02*
X15364736Y-22200185D01*
X15364736Y-22200185D02*
X15355212Y-22228756D01*
X15355212Y-22228756D02*
X15240926Y-22343042D01*
X15240926Y-22343042D02*
X15364736Y-22343042D01*
X15431402Y-22143042D02*
X15564736Y-22143042D01*
X15564736Y-22143042D02*
X15479021Y-22343042D01*
X15793307Y-22343042D02*
X15793307Y-22143042D01*
X15879021Y-22343042D02*
X15879021Y-22238280D01*
X15879021Y-22238280D02*
X15869498Y-22219232D01*
X15869498Y-22219232D02*
X15850450Y-22209709D01*
X15850450Y-22209709D02*
X15821879Y-22209709D01*
X15821879Y-22209709D02*
X15802831Y-22219232D01*
X15802831Y-22219232D02*
X15793307Y-22228756D01*
X16002831Y-22343042D02*
X15983783Y-22333518D01*
X15983783Y-22333518D02*
X15974260Y-22323994D01*
X15974260Y-22323994D02*
X15964736Y-22304947D01*
X15964736Y-22304947D02*
X15964736Y-22247804D01*
X15964736Y-22247804D02*
X15974260Y-22228756D01*
X15974260Y-22228756D02*
X15983783Y-22219232D01*
X15983783Y-22219232D02*
X16002831Y-22209709D01*
X16002831Y-22209709D02*
X16031402Y-22209709D01*
X16031402Y-22209709D02*
X16050450Y-22219232D01*
X16050450Y-22219232D02*
X16059974Y-22228756D01*
X16059974Y-22228756D02*
X16069498Y-22247804D01*
X16069498Y-22247804D02*
X16069498Y-22304947D01*
X16069498Y-22304947D02*
X16059974Y-22323994D01*
X16059974Y-22323994D02*
X16050450Y-22333518D01*
X16050450Y-22333518D02*
X16031402Y-22343042D01*
X16031402Y-22343042D02*
X16002831Y-22343042D01*
X16183783Y-22343042D02*
X16164736Y-22333518D01*
X16164736Y-22333518D02*
X16155212Y-22314470D01*
X16155212Y-22314470D02*
X16155212Y-22143042D01*
X16336164Y-22333518D02*
X16317117Y-22343042D01*
X16317117Y-22343042D02*
X16279021Y-22343042D01*
X16279021Y-22343042D02*
X16259974Y-22333518D01*
X16259974Y-22333518D02*
X16250450Y-22314470D01*
X16250450Y-22314470D02*
X16250450Y-22238280D01*
X16250450Y-22238280D02*
X16259974Y-22219232D01*
X16259974Y-22219232D02*
X16279021Y-22209709D01*
X16279021Y-22209709D02*
X16317117Y-22209709D01*
X16317117Y-22209709D02*
X16336164Y-22219232D01*
X16336164Y-22219232D02*
X16345688Y-22238280D01*
X16345688Y-22238280D02*
X16345688Y-22257328D01*
X16345688Y-22257328D02*
X16250450Y-22276375D01*
X16421879Y-22333518D02*
X16440926Y-22343042D01*
X16440926Y-22343042D02*
X16479021Y-22343042D01*
X16479021Y-22343042D02*
X16498069Y-22333518D01*
X16498069Y-22333518D02*
X16507593Y-22314470D01*
X16507593Y-22314470D02*
X16507593Y-22304947D01*
X16507593Y-22304947D02*
X16498069Y-22285899D01*
X16498069Y-22285899D02*
X16479021Y-22276375D01*
X16479021Y-22276375D02*
X16450450Y-22276375D01*
X16450450Y-22276375D02*
X16431402Y-22266851D01*
X16431402Y-22266851D02*
X16421879Y-22247804D01*
X16421879Y-22247804D02*
X16421879Y-22238280D01*
X16421879Y-22238280D02*
X16431402Y-22219232D01*
X16431402Y-22219232D02*
X16450450Y-22209709D01*
X16450450Y-22209709D02*
X16479021Y-22209709D01*
X16479021Y-22209709D02*
X16498069Y-22219232D01*
X16574260Y-22419232D02*
X16583783Y-22409708D01*
X16583783Y-22409708D02*
X16602831Y-22381137D01*
X16602831Y-22381137D02*
X16612355Y-22362090D01*
X16612355Y-22362090D02*
X16621879Y-22333518D01*
X16621879Y-22333518D02*
X16631402Y-22285899D01*
X16631402Y-22285899D02*
X16631402Y-22247804D01*
X16631402Y-22247804D02*
X16621879Y-22200185D01*
X16621879Y-22200185D02*
X16612355Y-22171613D01*
X16612355Y-22171613D02*
X16602831Y-22152566D01*
X16602831Y-22152566D02*
X16583783Y-22123994D01*
X16583783Y-22123994D02*
X16574260Y-22114470D01*
X16936165Y-22419232D02*
X16926641Y-22409708D01*
X16926641Y-22409708D02*
X16907593Y-22381137D01*
X16907593Y-22381137D02*
X16898069Y-22362090D01*
X16898069Y-22362090D02*
X16888545Y-22333518D01*
X16888545Y-22333518D02*
X16879022Y-22285899D01*
X16879022Y-22285899D02*
X16879022Y-22247804D01*
X16879022Y-22247804D02*
X16888545Y-22200185D01*
X16888545Y-22200185D02*
X16898069Y-22171613D01*
X16898069Y-22171613D02*
X16907593Y-22152566D01*
X16907593Y-22152566D02*
X16926641Y-22123994D01*
X16926641Y-22123994D02*
X16936165Y-22114470D01*
X17012355Y-22209709D02*
X17012355Y-22343042D01*
X17012355Y-22228756D02*
X17021879Y-22219232D01*
X17021879Y-22219232D02*
X17040926Y-22209709D01*
X17040926Y-22209709D02*
X17069498Y-22209709D01*
X17069498Y-22209709D02*
X17088545Y-22219232D01*
X17088545Y-22219232D02*
X17098069Y-22238280D01*
X17098069Y-22238280D02*
X17098069Y-22343042D01*
X17221879Y-22343042D02*
X17202831Y-22333518D01*
X17202831Y-22333518D02*
X17193307Y-22323994D01*
X17193307Y-22323994D02*
X17183784Y-22304947D01*
X17183784Y-22304947D02*
X17183784Y-22247804D01*
X17183784Y-22247804D02*
X17193307Y-22228756D01*
X17193307Y-22228756D02*
X17202831Y-22219232D01*
X17202831Y-22219232D02*
X17221879Y-22209709D01*
X17221879Y-22209709D02*
X17250450Y-22209709D01*
X17250450Y-22209709D02*
X17269498Y-22219232D01*
X17269498Y-22219232D02*
X17279022Y-22228756D01*
X17279022Y-22228756D02*
X17288545Y-22247804D01*
X17288545Y-22247804D02*
X17288545Y-22304947D01*
X17288545Y-22304947D02*
X17279022Y-22323994D01*
X17279022Y-22323994D02*
X17269498Y-22333518D01*
X17269498Y-22333518D02*
X17250450Y-22343042D01*
X17250450Y-22343042D02*
X17221879Y-22343042D01*
X17345688Y-22209709D02*
X17421879Y-22209709D01*
X17374260Y-22143042D02*
X17374260Y-22314470D01*
X17374260Y-22314470D02*
X17383784Y-22333518D01*
X17383784Y-22333518D02*
X17402831Y-22343042D01*
X17402831Y-22343042D02*
X17421879Y-22343042D01*
X17640926Y-22209709D02*
X17640926Y-22409708D01*
X17640926Y-22219232D02*
X17659974Y-22209709D01*
X17659974Y-22209709D02*
X17698069Y-22209709D01*
X17698069Y-22209709D02*
X17717117Y-22219232D01*
X17717117Y-22219232D02*
X17726641Y-22228756D01*
X17726641Y-22228756D02*
X17736165Y-22247804D01*
X17736165Y-22247804D02*
X17736165Y-22304947D01*
X17736165Y-22304947D02*
X17726641Y-22323994D01*
X17726641Y-22323994D02*
X17717117Y-22333518D01*
X17717117Y-22333518D02*
X17698069Y-22343042D01*
X17698069Y-22343042D02*
X17659974Y-22343042D01*
X17659974Y-22343042D02*
X17640926Y-22333518D01*
X17850450Y-22343042D02*
X17831403Y-22333518D01*
X17831403Y-22333518D02*
X17821879Y-22314470D01*
X17821879Y-22314470D02*
X17821879Y-22143042D01*
X18012355Y-22343042D02*
X18012355Y-22238280D01*
X18012355Y-22238280D02*
X18002831Y-22219232D01*
X18002831Y-22219232D02*
X17983784Y-22209709D01*
X17983784Y-22209709D02*
X17945688Y-22209709D01*
X17945688Y-22209709D02*
X17926641Y-22219232D01*
X18012355Y-22333518D02*
X17993307Y-22343042D01*
X17993307Y-22343042D02*
X17945688Y-22343042D01*
X17945688Y-22343042D02*
X17926641Y-22333518D01*
X17926641Y-22333518D02*
X17917117Y-22314470D01*
X17917117Y-22314470D02*
X17917117Y-22295423D01*
X17917117Y-22295423D02*
X17926641Y-22276375D01*
X17926641Y-22276375D02*
X17945688Y-22266851D01*
X17945688Y-22266851D02*
X17993307Y-22266851D01*
X17993307Y-22266851D02*
X18012355Y-22257328D01*
X18079022Y-22209709D02*
X18155212Y-22209709D01*
X18107593Y-22143042D02*
X18107593Y-22314470D01*
X18107593Y-22314470D02*
X18117117Y-22333518D01*
X18117117Y-22333518D02*
X18136165Y-22343042D01*
X18136165Y-22343042D02*
X18155212Y-22343042D01*
X18298069Y-22333518D02*
X18279022Y-22343042D01*
X18279022Y-22343042D02*
X18240926Y-22343042D01*
X18240926Y-22343042D02*
X18221879Y-22333518D01*
X18221879Y-22333518D02*
X18212355Y-22314470D01*
X18212355Y-22314470D02*
X18212355Y-22238280D01*
X18212355Y-22238280D02*
X18221879Y-22219232D01*
X18221879Y-22219232D02*
X18240926Y-22209709D01*
X18240926Y-22209709D02*
X18279022Y-22209709D01*
X18279022Y-22209709D02*
X18298069Y-22219232D01*
X18298069Y-22219232D02*
X18307593Y-22238280D01*
X18307593Y-22238280D02*
X18307593Y-22257328D01*
X18307593Y-22257328D02*
X18212355Y-22276375D01*
X18479022Y-22343042D02*
X18479022Y-22143042D01*
X18479022Y-22333518D02*
X18459974Y-22343042D01*
X18459974Y-22343042D02*
X18421879Y-22343042D01*
X18421879Y-22343042D02*
X18402831Y-22333518D01*
X18402831Y-22333518D02*
X18393307Y-22323994D01*
X18393307Y-22323994D02*
X18383784Y-22304947D01*
X18383784Y-22304947D02*
X18383784Y-22247804D01*
X18383784Y-22247804D02*
X18393307Y-22228756D01*
X18393307Y-22228756D02*
X18402831Y-22219232D01*
X18402831Y-22219232D02*
X18421879Y-22209709D01*
X18421879Y-22209709D02*
X18459974Y-22209709D01*
X18459974Y-22209709D02*
X18479022Y-22219232D01*
X18555212Y-22419232D02*
X18564736Y-22409708D01*
X18564736Y-22409708D02*
X18583784Y-22381137D01*
X18583784Y-22381137D02*
X18593307Y-22362090D01*
X18593307Y-22362090D02*
X18602831Y-22333518D01*
X18602831Y-22333518D02*
X18612355Y-22285899D01*
X18612355Y-22285899D02*
X18612355Y-22247804D01*
X18612355Y-22247804D02*
X18602831Y-22200185D01*
X18602831Y-22200185D02*
X18593307Y-22171613D01*
X18593307Y-22171613D02*
X18583784Y-22152566D01*
X18583784Y-22152566D02*
X18564736Y-22123994D01*
X18564736Y-22123994D02*
X18555212Y-22114470D01*
M02*
