%TF.GenerationSoftware,KiCad,Pcbnew,9.0.0*%
%TF.CreationDate,2025-04-09T21:01:40+02:00*%
%TF.ProjectId,left,6c656674-2e6b-4696-9361-645f70636258,1*%
%TF.SameCoordinates,Original*%
%TF.FileFunction,Legend,Top*%
%TF.FilePolarity,Positive*%
%FSLAX46Y46*%
G04 Gerber Fmt 4.6, Leading zero omitted, Abs format (unit mm)*
G04 Created by KiCad (PCBNEW 9.0.0) date 2025-04-09 21:01:40*
%MOMM*%
%LPD*%
G01*
G04 APERTURE LIST*
%ADD10C,0.600000*%
%ADD11C,0.300000*%
%ADD12C,0.150000*%
%ADD13C,0.100000*%
%ADD14C,0.120000*%
G04 APERTURE END LIST*
D10*
G36*
X186170856Y-157746076D02*
G01*
X186244866Y-157820085D01*
X186334279Y-157998911D01*
X186334279Y-158714414D01*
X186244866Y-158893240D01*
X186170856Y-158967250D01*
X185992030Y-159056663D01*
X185562242Y-159056663D01*
X185505707Y-159028395D01*
X185505707Y-157684930D01*
X185562242Y-157656663D01*
X185992030Y-157656663D01*
X186170856Y-157746076D01*
G37*
G36*
X190599428Y-157746076D02*
G01*
X190673438Y-157820085D01*
X190762851Y-157998911D01*
X190762851Y-158714414D01*
X190673438Y-158893240D01*
X190599428Y-158967250D01*
X190420602Y-159056663D01*
X190133671Y-159056663D01*
X189954844Y-158967250D01*
X189880835Y-158893240D01*
X189791422Y-158714414D01*
X189791422Y-157998911D01*
X189880835Y-157820085D01*
X189954843Y-157746076D01*
X190133671Y-157656663D01*
X190420602Y-157656663D01*
X190599428Y-157746076D01*
G37*
G36*
X202170857Y-157746076D02*
G01*
X202244867Y-157820085D01*
X202334280Y-157998911D01*
X202334280Y-158714414D01*
X202244867Y-158893240D01*
X202170857Y-158967250D01*
X201992031Y-159056663D01*
X201562243Y-159056663D01*
X201505708Y-159028395D01*
X201505708Y-157684930D01*
X201562243Y-157656663D01*
X201992031Y-157656663D01*
X202170857Y-157746076D01*
G37*
G36*
X204905709Y-157684930D02*
G01*
X204905709Y-159028395D01*
X204849174Y-159056663D01*
X204419386Y-159056663D01*
X204240559Y-158967250D01*
X204166550Y-158893240D01*
X204077137Y-158714414D01*
X204077137Y-157998911D01*
X204166550Y-157820085D01*
X204240558Y-157746076D01*
X204419386Y-157656663D01*
X204849174Y-157656663D01*
X204905709Y-157684930D01*
G37*
G36*
X205839042Y-160989241D02*
G01*
X178000946Y-160989241D01*
X178000946Y-156356663D01*
X178334279Y-156356663D01*
X178334279Y-159356663D01*
X178336846Y-159395821D01*
X178357115Y-159471468D01*
X178396273Y-159539291D01*
X178451651Y-159594669D01*
X178519474Y-159633827D01*
X178595121Y-159654096D01*
X178673437Y-159654096D01*
X178749084Y-159633827D01*
X178816907Y-159594669D01*
X178872285Y-159539291D01*
X178911443Y-159471468D01*
X178931712Y-159395821D01*
X178934279Y-159356663D01*
X178934279Y-158732852D01*
X179537136Y-159536663D01*
X179562684Y-159566449D01*
X179624288Y-159614805D01*
X179696308Y-159645569D01*
X179773837Y-159656645D01*
X179851590Y-159647277D01*
X179924269Y-159618104D01*
X179986922Y-159571115D01*
X180035278Y-159509511D01*
X180066042Y-159437491D01*
X180077118Y-159359962D01*
X180067750Y-159282209D01*
X180038577Y-159209530D01*
X180017136Y-159176663D01*
X179316106Y-158241956D01*
X179989268Y-157568795D01*
X180015142Y-157539291D01*
X180054300Y-157471468D01*
X180074569Y-157395821D01*
X180074569Y-157356663D01*
X180762850Y-157356663D01*
X180762850Y-159356663D01*
X180765417Y-159395821D01*
X180785686Y-159471468D01*
X180824844Y-159539291D01*
X180880222Y-159594669D01*
X180948045Y-159633827D01*
X181023692Y-159654096D01*
X181102008Y-159654096D01*
X181177655Y-159633827D01*
X181245478Y-159594669D01*
X181300856Y-159539291D01*
X181340014Y-159471468D01*
X181360283Y-159395821D01*
X181362850Y-159356663D01*
X181362850Y-157998911D01*
X181452262Y-157820085D01*
X181526272Y-157746076D01*
X181705099Y-157656663D01*
X181919993Y-157656663D01*
X181959151Y-157654096D01*
X182034798Y-157633827D01*
X182102621Y-157594669D01*
X182157999Y-157539291D01*
X182197157Y-157471468D01*
X182217426Y-157395821D01*
X182217426Y-157341767D01*
X182334649Y-157341767D01*
X182341004Y-157419824D01*
X182351756Y-157457564D01*
X183027859Y-159350651D01*
X182807175Y-159902358D01*
X182742284Y-159967250D01*
X182500115Y-160088335D01*
X182466239Y-160108143D01*
X182407643Y-160160102D01*
X182364492Y-160225458D01*
X182339726Y-160299755D01*
X182335034Y-160377930D01*
X182350735Y-160454655D01*
X182385759Y-160524703D01*
X182437718Y-160583299D01*
X182503074Y-160626450D01*
X182577371Y-160651216D01*
X182655546Y-160655908D01*
X182732271Y-160640207D01*
X182768443Y-160624991D01*
X183054157Y-160482134D01*
X183088033Y-160462326D01*
X183094794Y-160456330D01*
X183102622Y-160451811D01*
X183132126Y-160425937D01*
X183274983Y-160283079D01*
X183276620Y-160281211D01*
X183277553Y-160280478D01*
X183279232Y-160278233D01*
X183300856Y-160253575D01*
X183311594Y-160234974D01*
X183324467Y-160217769D01*
X183338619Y-160188168D01*
X183340014Y-160185752D01*
X183340319Y-160184610D01*
X183341393Y-160182366D01*
X183627108Y-159468080D01*
X183628850Y-159462733D01*
X183631088Y-159457564D01*
X184345373Y-157457564D01*
X184356125Y-157419824D01*
X184361267Y-157356663D01*
X184905707Y-157356663D01*
X184905707Y-160356663D01*
X184908274Y-160395821D01*
X184928543Y-160471468D01*
X184967701Y-160539291D01*
X185023079Y-160594669D01*
X185090902Y-160633827D01*
X185166549Y-160654096D01*
X185244865Y-160654096D01*
X185320512Y-160633827D01*
X185388335Y-160594669D01*
X185443713Y-160539291D01*
X185482871Y-160471468D01*
X185503140Y-160395821D01*
X185505707Y-160356663D01*
X185505707Y-159656663D01*
X186062850Y-159656663D01*
X186079027Y-159655602D01*
X186084117Y-159655908D01*
X186088712Y-159654967D01*
X186102008Y-159654096D01*
X186131220Y-159646268D01*
X186160842Y-159640207D01*
X186173120Y-159635042D01*
X186177655Y-159633827D01*
X186182074Y-159631275D01*
X186197014Y-159624991D01*
X186482728Y-159482134D01*
X186516604Y-159462326D01*
X186523364Y-159456331D01*
X186531192Y-159451812D01*
X186560696Y-159425938D01*
X186703554Y-159283080D01*
X186729428Y-159253576D01*
X186733947Y-159245748D01*
X186739942Y-159238988D01*
X186759750Y-159205112D01*
X186902607Y-158919398D01*
X186908891Y-158904458D01*
X186911443Y-158900039D01*
X186912658Y-158895504D01*
X186917823Y-158883226D01*
X186923884Y-158853604D01*
X186931712Y-158824392D01*
X186932583Y-158811096D01*
X186933524Y-158806501D01*
X186933218Y-158801411D01*
X186934279Y-158785234D01*
X186934279Y-157928091D01*
X186933218Y-157911913D01*
X186933524Y-157906824D01*
X186932583Y-157902228D01*
X186931712Y-157888933D01*
X186923884Y-157859720D01*
X186917823Y-157830099D01*
X186912658Y-157817820D01*
X186911443Y-157813286D01*
X186908891Y-157808866D01*
X186902607Y-157793927D01*
X186759750Y-157508213D01*
X186739942Y-157474337D01*
X186733946Y-157467575D01*
X186729427Y-157459748D01*
X186703553Y-157430244D01*
X186590813Y-157317505D01*
X187193989Y-157317505D01*
X187193989Y-157395821D01*
X187214258Y-157471468D01*
X187253416Y-157539291D01*
X187308794Y-157594669D01*
X187376617Y-157633827D01*
X187452264Y-157654096D01*
X187491422Y-157656663D01*
X187619993Y-157656663D01*
X187619993Y-158928091D01*
X187621053Y-158944267D01*
X187620748Y-158949357D01*
X187621688Y-158953952D01*
X187622560Y-158967249D01*
X187630387Y-158996462D01*
X187636449Y-159026083D01*
X187641613Y-159038361D01*
X187642829Y-159042896D01*
X187645380Y-159047315D01*
X187651665Y-159062255D01*
X187794522Y-159347970D01*
X187814330Y-159381846D01*
X187826282Y-159395325D01*
X187836214Y-159410367D01*
X187852154Y-159424501D01*
X187866289Y-159440442D01*
X187881330Y-159450373D01*
X187894810Y-159462326D01*
X187928686Y-159482134D01*
X188214401Y-159624991D01*
X188229340Y-159631275D01*
X188233760Y-159633827D01*
X188238294Y-159635042D01*
X188250573Y-159640207D01*
X188280193Y-159646268D01*
X188309407Y-159654096D01*
X188322703Y-159654967D01*
X188327299Y-159655908D01*
X188332388Y-159655602D01*
X188348565Y-159656663D01*
X188634279Y-159656663D01*
X188673437Y-159654096D01*
X188749084Y-159633827D01*
X188816907Y-159594669D01*
X188872285Y-159539291D01*
X188911443Y-159471468D01*
X188931712Y-159395821D01*
X188931712Y-159317505D01*
X188911443Y-159241858D01*
X188872285Y-159174035D01*
X188816907Y-159118657D01*
X188749084Y-159079499D01*
X188673437Y-159059230D01*
X188634279Y-159056663D01*
X188419385Y-159056663D01*
X188286456Y-158990199D01*
X188219993Y-158857271D01*
X188219993Y-157928091D01*
X189191422Y-157928091D01*
X189191422Y-158785234D01*
X189192482Y-158801411D01*
X189192177Y-158806501D01*
X189193117Y-158811096D01*
X189193989Y-158824392D01*
X189201816Y-158853604D01*
X189207878Y-158883226D01*
X189213042Y-158895504D01*
X189214258Y-158900039D01*
X189216809Y-158904458D01*
X189223094Y-158919398D01*
X189365951Y-159205112D01*
X189385759Y-159238988D01*
X189391755Y-159245750D01*
X189396273Y-159253575D01*
X189422146Y-159283079D01*
X189565003Y-159425937D01*
X189594507Y-159451811D01*
X189602334Y-159456330D01*
X189609096Y-159462326D01*
X189642972Y-159482134D01*
X189928687Y-159624991D01*
X189943626Y-159631275D01*
X189948046Y-159633827D01*
X189952580Y-159635042D01*
X189964859Y-159640207D01*
X189994479Y-159646268D01*
X190023693Y-159654096D01*
X190036989Y-159654967D01*
X190041585Y-159655908D01*
X190046674Y-159655602D01*
X190062851Y-159656663D01*
X190491422Y-159656663D01*
X190507599Y-159655602D01*
X190512689Y-159655908D01*
X190517284Y-159654967D01*
X190530580Y-159654096D01*
X190559792Y-159646268D01*
X190589414Y-159640207D01*
X190601692Y-159635042D01*
X190606227Y-159633827D01*
X190610646Y-159631275D01*
X190625586Y-159624991D01*
X190911300Y-159482134D01*
X190945176Y-159462326D01*
X190951936Y-159456331D01*
X190959764Y-159451812D01*
X190989268Y-159425938D01*
X191132126Y-159283080D01*
X191158000Y-159253576D01*
X191162519Y-159245748D01*
X191168514Y-159238988D01*
X191188322Y-159205112D01*
X191331179Y-158919398D01*
X191337463Y-158904458D01*
X191340015Y-158900039D01*
X191341230Y-158895504D01*
X191346395Y-158883226D01*
X191352456Y-158853604D01*
X191360284Y-158824392D01*
X191361155Y-158811096D01*
X191362096Y-158806501D01*
X191361790Y-158801411D01*
X191362851Y-158785234D01*
X191362851Y-157928091D01*
X191361790Y-157911913D01*
X191362096Y-157906824D01*
X191361155Y-157902228D01*
X191360284Y-157888933D01*
X191352456Y-157859720D01*
X191346395Y-157830099D01*
X191341230Y-157817820D01*
X191340015Y-157813286D01*
X191337463Y-157808866D01*
X191331179Y-157793927D01*
X191188322Y-157508213D01*
X191168514Y-157474337D01*
X191162518Y-157467575D01*
X191157999Y-157459748D01*
X191132125Y-157430244D01*
X191058543Y-157356663D01*
X192048565Y-157356663D01*
X192048565Y-159356663D01*
X192051132Y-159395821D01*
X192071401Y-159471468D01*
X192110559Y-159539291D01*
X192165937Y-159594669D01*
X192233760Y-159633827D01*
X192309407Y-159654096D01*
X192387723Y-159654096D01*
X192463370Y-159633827D01*
X192531193Y-159594669D01*
X192586571Y-159539291D01*
X192625729Y-159471468D01*
X192645998Y-159395821D01*
X192648565Y-159356663D01*
X192648565Y-157766641D01*
X192669129Y-157746076D01*
X192847957Y-157656663D01*
X193134888Y-157656663D01*
X193267815Y-157723126D01*
X193334280Y-157856054D01*
X193334280Y-159356663D01*
X193336847Y-159395821D01*
X193357116Y-159471468D01*
X193396274Y-159539291D01*
X193451652Y-159594669D01*
X193519475Y-159633827D01*
X193595122Y-159654096D01*
X193673438Y-159654096D01*
X193749085Y-159633827D01*
X193816908Y-159594669D01*
X193872286Y-159539291D01*
X193911444Y-159471468D01*
X193931713Y-159395821D01*
X193934280Y-159356663D01*
X193934280Y-158174648D01*
X194765418Y-158174648D01*
X194765418Y-158252964D01*
X194785687Y-158328611D01*
X194824845Y-158396434D01*
X194880223Y-158451812D01*
X194948046Y-158490970D01*
X195023693Y-158511239D01*
X195062851Y-158513806D01*
X197348566Y-158513806D01*
X197387724Y-158511239D01*
X197463371Y-158490970D01*
X197531194Y-158451812D01*
X197586572Y-158396434D01*
X197625730Y-158328611D01*
X197645999Y-158252964D01*
X197645999Y-158174648D01*
X197625730Y-158099001D01*
X197586572Y-158031178D01*
X197531194Y-157975800D01*
X197463371Y-157936642D01*
X197387724Y-157916373D01*
X197348566Y-157913806D01*
X195062851Y-157913806D01*
X195023693Y-157916373D01*
X194948046Y-157936642D01*
X194880223Y-157975800D01*
X194824845Y-158031178D01*
X194785687Y-158099001D01*
X194765418Y-158174648D01*
X193934280Y-158174648D01*
X193934280Y-157785234D01*
X193933219Y-157769056D01*
X193933525Y-157763966D01*
X193932584Y-157759370D01*
X193931713Y-157746076D01*
X193923886Y-157716866D01*
X193917824Y-157687241D01*
X193912658Y-157674960D01*
X193911444Y-157670429D01*
X193908894Y-157666012D01*
X193902608Y-157651069D01*
X193759750Y-157365355D01*
X193739942Y-157331479D01*
X193727986Y-157317996D01*
X193718058Y-157302959D01*
X193702118Y-157288824D01*
X193687982Y-157272883D01*
X193672941Y-157262952D01*
X193659462Y-157251000D01*
X193625586Y-157231192D01*
X193339872Y-157088335D01*
X193324932Y-157082050D01*
X193320513Y-157079499D01*
X193315978Y-157078283D01*
X193303700Y-157073119D01*
X193274078Y-157067057D01*
X193244866Y-157059230D01*
X193231570Y-157058358D01*
X193226975Y-157057418D01*
X193221885Y-157057723D01*
X193205708Y-157056663D01*
X192777137Y-157056663D01*
X192760960Y-157057723D01*
X192755871Y-157057418D01*
X192751275Y-157058358D01*
X192737979Y-157059230D01*
X192708765Y-157067057D01*
X192679145Y-157073119D01*
X192666866Y-157078283D01*
X192662332Y-157079499D01*
X192657912Y-157082050D01*
X192642973Y-157088335D01*
X192548238Y-157135702D01*
X192531193Y-157118657D01*
X192463370Y-157079499D01*
X192387723Y-157059230D01*
X192309407Y-157059230D01*
X192233760Y-157079499D01*
X192165937Y-157118657D01*
X192110559Y-157174035D01*
X192071401Y-157241858D01*
X192051132Y-157317505D01*
X192048565Y-157356663D01*
X191058543Y-157356663D01*
X190989267Y-157287387D01*
X190959763Y-157261514D01*
X190951938Y-157256996D01*
X190945176Y-157251000D01*
X190911300Y-157231192D01*
X190625586Y-157088335D01*
X190610646Y-157082050D01*
X190606227Y-157079499D01*
X190601692Y-157078283D01*
X190589414Y-157073119D01*
X190559792Y-157067057D01*
X190530580Y-157059230D01*
X190517284Y-157058358D01*
X190512689Y-157057418D01*
X190507599Y-157057723D01*
X190491422Y-157056663D01*
X190062851Y-157056663D01*
X190046674Y-157057723D01*
X190041585Y-157057418D01*
X190036989Y-157058358D01*
X190023693Y-157059230D01*
X189994479Y-157067057D01*
X189964859Y-157073119D01*
X189952580Y-157078283D01*
X189948046Y-157079499D01*
X189943626Y-157082050D01*
X189928687Y-157088335D01*
X189642972Y-157231192D01*
X189609096Y-157251000D01*
X189602335Y-157256994D01*
X189594508Y-157261514D01*
X189565004Y-157287388D01*
X189422147Y-157430245D01*
X189396273Y-157459749D01*
X189391753Y-157467576D01*
X189385759Y-157474337D01*
X189365951Y-157508213D01*
X189223094Y-157793927D01*
X189216809Y-157808866D01*
X189214258Y-157813286D01*
X189213042Y-157817820D01*
X189207878Y-157830099D01*
X189201816Y-157859720D01*
X189193989Y-157888933D01*
X189193117Y-157902228D01*
X189192177Y-157906824D01*
X189192482Y-157911913D01*
X189191422Y-157928091D01*
X188219993Y-157928091D01*
X188219993Y-157656663D01*
X188634279Y-157656663D01*
X188673437Y-157654096D01*
X188749084Y-157633827D01*
X188816907Y-157594669D01*
X188872285Y-157539291D01*
X188911443Y-157471468D01*
X188931712Y-157395821D01*
X188931712Y-157317505D01*
X188911443Y-157241858D01*
X188872285Y-157174035D01*
X188816907Y-157118657D01*
X188749084Y-157079499D01*
X188673437Y-157059230D01*
X188634279Y-157056663D01*
X188219993Y-157056663D01*
X188219993Y-156356663D01*
X198477137Y-156356663D01*
X198477137Y-159356663D01*
X198479704Y-159395821D01*
X198499973Y-159471468D01*
X198539131Y-159539291D01*
X198594509Y-159594669D01*
X198662332Y-159633827D01*
X198737979Y-159654096D01*
X198816295Y-159654096D01*
X198891942Y-159633827D01*
X198959765Y-159594669D01*
X199015143Y-159539291D01*
X199054301Y-159471468D01*
X199074570Y-159395821D01*
X199077137Y-159356663D01*
X199077137Y-158732852D01*
X199679994Y-159536663D01*
X199705542Y-159566449D01*
X199767146Y-159614805D01*
X199839166Y-159645569D01*
X199916695Y-159656645D01*
X199994448Y-159647277D01*
X200067127Y-159618104D01*
X200129780Y-159571115D01*
X200178136Y-159509511D01*
X200208900Y-159437491D01*
X200219976Y-159359962D01*
X200210608Y-159282209D01*
X200181435Y-159209530D01*
X200159994Y-159176663D01*
X199458964Y-158241956D01*
X200132126Y-157568795D01*
X200158000Y-157539291D01*
X200197158Y-157471468D01*
X200217427Y-157395821D01*
X200217427Y-157317505D01*
X200197158Y-157241858D01*
X200158000Y-157174035D01*
X200102622Y-157118657D01*
X200034799Y-157079499D01*
X199959152Y-157059230D01*
X199880836Y-157059230D01*
X199805189Y-157079499D01*
X199737366Y-157118657D01*
X199707862Y-157144531D01*
X199077137Y-157775256D01*
X199077137Y-156356663D01*
X200905708Y-156356663D01*
X200905708Y-159356663D01*
X200908275Y-159395821D01*
X200928544Y-159471468D01*
X200967702Y-159539291D01*
X201023080Y-159594669D01*
X201090903Y-159633827D01*
X201166550Y-159654096D01*
X201244866Y-159654096D01*
X201320513Y-159633827D01*
X201345768Y-159619245D01*
X201357259Y-159624991D01*
X201372198Y-159631275D01*
X201376618Y-159633827D01*
X201381152Y-159635042D01*
X201393431Y-159640207D01*
X201423051Y-159646268D01*
X201452265Y-159654096D01*
X201465561Y-159654967D01*
X201470157Y-159655908D01*
X201475246Y-159655602D01*
X201491423Y-159656663D01*
X202062851Y-159656663D01*
X202079028Y-159655602D01*
X202084118Y-159655908D01*
X202088713Y-159654967D01*
X202102009Y-159654096D01*
X202131221Y-159646268D01*
X202160843Y-159640207D01*
X202173121Y-159635042D01*
X202177656Y-159633827D01*
X202182075Y-159631275D01*
X202197015Y-159624991D01*
X202482729Y-159482134D01*
X202516605Y-159462326D01*
X202523365Y-159456331D01*
X202531193Y-159451812D01*
X202560697Y-159425938D01*
X202703555Y-159283080D01*
X202729429Y-159253576D01*
X202733948Y-159245748D01*
X202739943Y-159238988D01*
X202759751Y-159205112D01*
X202902608Y-158919398D01*
X202908892Y-158904458D01*
X202911444Y-158900039D01*
X202912659Y-158895504D01*
X202917824Y-158883226D01*
X202923885Y-158853604D01*
X202931713Y-158824392D01*
X202932584Y-158811096D01*
X202933525Y-158806501D01*
X202933219Y-158801411D01*
X202934280Y-158785234D01*
X202934280Y-157928091D01*
X203477137Y-157928091D01*
X203477137Y-158785234D01*
X203478197Y-158801411D01*
X203477892Y-158806501D01*
X203478832Y-158811096D01*
X203479704Y-158824392D01*
X203487531Y-158853604D01*
X203493593Y-158883226D01*
X203498757Y-158895504D01*
X203499973Y-158900039D01*
X203502524Y-158904458D01*
X203508809Y-158919398D01*
X203651666Y-159205112D01*
X203671474Y-159238988D01*
X203677470Y-159245750D01*
X203681988Y-159253575D01*
X203707861Y-159283079D01*
X203850718Y-159425937D01*
X203880222Y-159451811D01*
X203888049Y-159456330D01*
X203894811Y-159462326D01*
X203928687Y-159482134D01*
X204214402Y-159624991D01*
X204229341Y-159631275D01*
X204233761Y-159633827D01*
X204238295Y-159635042D01*
X204250574Y-159640207D01*
X204280194Y-159646268D01*
X204309408Y-159654096D01*
X204322704Y-159654967D01*
X204327300Y-159655908D01*
X204332389Y-159655602D01*
X204348566Y-159656663D01*
X204919994Y-159656663D01*
X204936170Y-159655602D01*
X204941260Y-159655908D01*
X204945855Y-159654967D01*
X204959152Y-159654096D01*
X204988365Y-159646268D01*
X205017986Y-159640207D01*
X205030264Y-159635042D01*
X205034799Y-159633827D01*
X205039218Y-159631275D01*
X205054158Y-159624991D01*
X205065648Y-159619245D01*
X205090904Y-159633827D01*
X205166551Y-159654096D01*
X205244867Y-159654096D01*
X205320514Y-159633827D01*
X205388337Y-159594669D01*
X205443715Y-159539291D01*
X205482873Y-159471468D01*
X205503142Y-159395821D01*
X205505709Y-159356663D01*
X205505709Y-156356663D01*
X205503142Y-156317505D01*
X205482873Y-156241858D01*
X205443715Y-156174035D01*
X205388337Y-156118657D01*
X205320514Y-156079499D01*
X205244867Y-156059230D01*
X205166551Y-156059230D01*
X205090904Y-156079499D01*
X205023081Y-156118657D01*
X204967703Y-156174035D01*
X204928545Y-156241858D01*
X204908276Y-156317505D01*
X204905709Y-156356663D01*
X204905709Y-157056663D01*
X204348566Y-157056663D01*
X204332389Y-157057723D01*
X204327300Y-157057418D01*
X204322704Y-157058358D01*
X204309408Y-157059230D01*
X204280194Y-157067057D01*
X204250574Y-157073119D01*
X204238295Y-157078283D01*
X204233761Y-157079499D01*
X204229341Y-157082050D01*
X204214402Y-157088335D01*
X203928687Y-157231192D01*
X203894811Y-157251000D01*
X203888050Y-157256994D01*
X203880223Y-157261514D01*
X203850719Y-157287388D01*
X203707862Y-157430245D01*
X203681988Y-157459749D01*
X203677468Y-157467576D01*
X203671474Y-157474337D01*
X203651666Y-157508213D01*
X203508809Y-157793927D01*
X203502524Y-157808866D01*
X203499973Y-157813286D01*
X203498757Y-157817820D01*
X203493593Y-157830099D01*
X203487531Y-157859720D01*
X203479704Y-157888933D01*
X203478832Y-157902228D01*
X203477892Y-157906824D01*
X203478197Y-157911913D01*
X203477137Y-157928091D01*
X202934280Y-157928091D01*
X202933219Y-157911913D01*
X202933525Y-157906824D01*
X202932584Y-157902228D01*
X202931713Y-157888933D01*
X202923885Y-157859720D01*
X202917824Y-157830099D01*
X202912659Y-157817820D01*
X202911444Y-157813286D01*
X202908892Y-157808866D01*
X202902608Y-157793927D01*
X202759751Y-157508213D01*
X202739943Y-157474337D01*
X202733947Y-157467575D01*
X202729428Y-157459748D01*
X202703554Y-157430244D01*
X202560696Y-157287387D01*
X202531192Y-157261514D01*
X202523367Y-157256996D01*
X202516605Y-157251000D01*
X202482729Y-157231192D01*
X202197015Y-157088335D01*
X202182075Y-157082050D01*
X202177656Y-157079499D01*
X202173121Y-157078283D01*
X202160843Y-157073119D01*
X202131221Y-157067057D01*
X202102009Y-157059230D01*
X202088713Y-157058358D01*
X202084118Y-157057418D01*
X202079028Y-157057723D01*
X202062851Y-157056663D01*
X201505708Y-157056663D01*
X201505708Y-156356663D01*
X201503141Y-156317505D01*
X201482872Y-156241858D01*
X201443714Y-156174035D01*
X201388336Y-156118657D01*
X201320513Y-156079499D01*
X201244866Y-156059230D01*
X201166550Y-156059230D01*
X201090903Y-156079499D01*
X201023080Y-156118657D01*
X200967702Y-156174035D01*
X200928544Y-156241858D01*
X200908275Y-156317505D01*
X200905708Y-156356663D01*
X199077137Y-156356663D01*
X199074570Y-156317505D01*
X199054301Y-156241858D01*
X199015143Y-156174035D01*
X198959765Y-156118657D01*
X198891942Y-156079499D01*
X198816295Y-156059230D01*
X198737979Y-156059230D01*
X198662332Y-156079499D01*
X198594509Y-156118657D01*
X198539131Y-156174035D01*
X198499973Y-156241858D01*
X198479704Y-156317505D01*
X198477137Y-156356663D01*
X188219993Y-156356663D01*
X188217426Y-156317505D01*
X188197157Y-156241858D01*
X188157999Y-156174035D01*
X188102621Y-156118657D01*
X188034798Y-156079499D01*
X187959151Y-156059230D01*
X187880835Y-156059230D01*
X187805188Y-156079499D01*
X187737365Y-156118657D01*
X187681987Y-156174035D01*
X187642829Y-156241858D01*
X187622560Y-156317505D01*
X187619993Y-156356663D01*
X187619993Y-157056663D01*
X187491422Y-157056663D01*
X187452264Y-157059230D01*
X187376617Y-157079499D01*
X187308794Y-157118657D01*
X187253416Y-157174035D01*
X187214258Y-157241858D01*
X187193989Y-157317505D01*
X186590813Y-157317505D01*
X186560695Y-157287387D01*
X186531191Y-157261514D01*
X186523366Y-157256996D01*
X186516604Y-157251000D01*
X186482728Y-157231192D01*
X186197014Y-157088335D01*
X186182074Y-157082050D01*
X186177655Y-157079499D01*
X186173120Y-157078283D01*
X186160842Y-157073119D01*
X186131220Y-157067057D01*
X186102008Y-157059230D01*
X186088712Y-157058358D01*
X186084117Y-157057418D01*
X186079027Y-157057723D01*
X186062850Y-157056663D01*
X185491422Y-157056663D01*
X185475245Y-157057723D01*
X185470156Y-157057418D01*
X185465560Y-157058358D01*
X185452264Y-157059230D01*
X185423050Y-157067057D01*
X185393430Y-157073119D01*
X185381151Y-157078283D01*
X185376617Y-157079499D01*
X185372197Y-157082050D01*
X185357258Y-157088335D01*
X185345767Y-157094080D01*
X185320512Y-157079499D01*
X185244865Y-157059230D01*
X185166549Y-157059230D01*
X185090902Y-157079499D01*
X185023079Y-157118657D01*
X184967701Y-157174035D01*
X184928543Y-157241858D01*
X184908274Y-157317505D01*
X184905707Y-157356663D01*
X184361267Y-157356663D01*
X184362480Y-157341766D01*
X184348415Y-157264724D01*
X184314889Y-157193947D01*
X184264187Y-157134259D01*
X184199764Y-157089728D01*
X184126011Y-157063387D01*
X184047954Y-157057033D01*
X183970912Y-157071098D01*
X183900134Y-157104624D01*
X183840446Y-157155326D01*
X183795915Y-157219749D01*
X183780327Y-157255762D01*
X183348564Y-158464698D01*
X182916802Y-157255762D01*
X182901214Y-157219749D01*
X182856683Y-157155326D01*
X182796995Y-157104624D01*
X182726217Y-157071098D01*
X182649175Y-157057033D01*
X182571118Y-157063388D01*
X182497365Y-157089728D01*
X182432942Y-157134259D01*
X182382240Y-157193947D01*
X182348714Y-157264725D01*
X182334649Y-157341767D01*
X182217426Y-157341767D01*
X182217426Y-157317505D01*
X182197157Y-157241858D01*
X182157999Y-157174035D01*
X182102621Y-157118657D01*
X182034798Y-157079499D01*
X181959151Y-157059230D01*
X181919993Y-157056663D01*
X181634279Y-157056663D01*
X181618101Y-157057723D01*
X181613012Y-157057418D01*
X181608416Y-157058358D01*
X181595121Y-157059230D01*
X181565908Y-157067057D01*
X181536287Y-157073119D01*
X181524008Y-157078283D01*
X181519474Y-157079499D01*
X181515054Y-157082050D01*
X181500115Y-157088335D01*
X181307096Y-157184844D01*
X181300856Y-157174035D01*
X181245478Y-157118657D01*
X181177655Y-157079499D01*
X181102008Y-157059230D01*
X181023692Y-157059230D01*
X180948045Y-157079499D01*
X180880222Y-157118657D01*
X180824844Y-157174035D01*
X180785686Y-157241858D01*
X180765417Y-157317505D01*
X180762850Y-157356663D01*
X180074569Y-157356663D01*
X180074569Y-157317505D01*
X180054300Y-157241858D01*
X180015142Y-157174035D01*
X179959764Y-157118657D01*
X179891941Y-157079499D01*
X179816294Y-157059230D01*
X179737978Y-157059230D01*
X179662331Y-157079499D01*
X179594508Y-157118657D01*
X179565004Y-157144531D01*
X178934279Y-157775256D01*
X178934279Y-156356663D01*
X178931712Y-156317505D01*
X178911443Y-156241858D01*
X178872285Y-156174035D01*
X178816907Y-156118657D01*
X178749084Y-156079499D01*
X178673437Y-156059230D01*
X178595121Y-156059230D01*
X178519474Y-156079499D01*
X178451651Y-156118657D01*
X178396273Y-156174035D01*
X178357115Y-156241858D01*
X178336846Y-156317505D01*
X178334279Y-156356663D01*
X178000946Y-156356663D01*
X178000946Y-155725897D01*
X205839042Y-155725897D01*
X205839042Y-160989241D01*
G37*
D11*
G36*
X210246646Y-183891821D02*
G01*
X208901908Y-183891821D01*
X208901908Y-182075154D01*
X209068575Y-182075154D01*
X209068575Y-183575154D01*
X209071457Y-183604418D01*
X209093855Y-183658490D01*
X209135239Y-183699874D01*
X209189311Y-183722272D01*
X209218575Y-183725154D01*
X209932861Y-183725154D01*
X209962125Y-183722272D01*
X210016197Y-183699874D01*
X210057581Y-183658490D01*
X210079979Y-183604418D01*
X210079979Y-183545890D01*
X210057581Y-183491818D01*
X210016197Y-183450434D01*
X209962125Y-183428036D01*
X209932861Y-183425154D01*
X209368575Y-183425154D01*
X209368575Y-182075154D01*
X209365693Y-182045890D01*
X209343295Y-181991818D01*
X209301911Y-181950434D01*
X209247839Y-181928036D01*
X209189311Y-181928036D01*
X209135239Y-181950434D01*
X209093855Y-181991818D01*
X209071457Y-182045890D01*
X209068575Y-182075154D01*
X208901908Y-182075154D01*
X208901908Y-181761369D01*
X210246646Y-181761369D01*
X210246646Y-183891821D01*
G37*
D12*
X248176185Y-94544821D02*
X247842852Y-94068630D01*
X247604757Y-94544821D02*
X247604757Y-93544821D01*
X247604757Y-93544821D02*
X247985709Y-93544821D01*
X247985709Y-93544821D02*
X248080947Y-93592440D01*
X248080947Y-93592440D02*
X248128566Y-93640059D01*
X248128566Y-93640059D02*
X248176185Y-93735297D01*
X248176185Y-93735297D02*
X248176185Y-93878154D01*
X248176185Y-93878154D02*
X248128566Y-93973392D01*
X248128566Y-93973392D02*
X248080947Y-94021011D01*
X248080947Y-94021011D02*
X247985709Y-94068630D01*
X247985709Y-94068630D02*
X247604757Y-94068630D01*
X248604757Y-94021011D02*
X248938090Y-94021011D01*
X249080947Y-94544821D02*
X248604757Y-94544821D01*
X248604757Y-94544821D02*
X248604757Y-93544821D01*
X248604757Y-93544821D02*
X249080947Y-93544821D01*
X249271424Y-94640059D02*
X250033328Y-94640059D01*
X250842852Y-94449582D02*
X250795233Y-94497202D01*
X250795233Y-94497202D02*
X250652376Y-94544821D01*
X250652376Y-94544821D02*
X250557138Y-94544821D01*
X250557138Y-94544821D02*
X250414281Y-94497202D01*
X250414281Y-94497202D02*
X250319043Y-94401963D01*
X250319043Y-94401963D02*
X250271424Y-94306725D01*
X250271424Y-94306725D02*
X250223805Y-94116249D01*
X250223805Y-94116249D02*
X250223805Y-93973392D01*
X250223805Y-93973392D02*
X250271424Y-93782916D01*
X250271424Y-93782916D02*
X250319043Y-93687678D01*
X250319043Y-93687678D02*
X250414281Y-93592440D01*
X250414281Y-93592440D02*
X250557138Y-93544821D01*
X250557138Y-93544821D02*
X250652376Y-93544821D01*
X250652376Y-93544821D02*
X250795233Y-93592440D01*
X250795233Y-93592440D02*
X250842852Y-93640059D01*
X248438090Y-85972440D02*
X248342852Y-85924821D01*
X248342852Y-85924821D02*
X248199995Y-85924821D01*
X248199995Y-85924821D02*
X248057138Y-85972440D01*
X248057138Y-85972440D02*
X247961900Y-86067678D01*
X247961900Y-86067678D02*
X247914281Y-86162916D01*
X247914281Y-86162916D02*
X247866662Y-86353392D01*
X247866662Y-86353392D02*
X247866662Y-86496249D01*
X247866662Y-86496249D02*
X247914281Y-86686725D01*
X247914281Y-86686725D02*
X247961900Y-86781963D01*
X247961900Y-86781963D02*
X248057138Y-86877202D01*
X248057138Y-86877202D02*
X248199995Y-86924821D01*
X248199995Y-86924821D02*
X248295233Y-86924821D01*
X248295233Y-86924821D02*
X248438090Y-86877202D01*
X248438090Y-86877202D02*
X248485709Y-86829582D01*
X248485709Y-86829582D02*
X248485709Y-86496249D01*
X248485709Y-86496249D02*
X248295233Y-86496249D01*
X248914281Y-86924821D02*
X248914281Y-85924821D01*
X248914281Y-85924821D02*
X249485709Y-86924821D01*
X249485709Y-86924821D02*
X249485709Y-85924821D01*
X249961900Y-86924821D02*
X249961900Y-85924821D01*
X249961900Y-85924821D02*
X250199995Y-85924821D01*
X250199995Y-85924821D02*
X250342852Y-85972440D01*
X250342852Y-85972440D02*
X250438090Y-86067678D01*
X250438090Y-86067678D02*
X250485709Y-86162916D01*
X250485709Y-86162916D02*
X250533328Y-86353392D01*
X250533328Y-86353392D02*
X250533328Y-86496249D01*
X250533328Y-86496249D02*
X250485709Y-86686725D01*
X250485709Y-86686725D02*
X250438090Y-86781963D01*
X250438090Y-86781963D02*
X250342852Y-86877202D01*
X250342852Y-86877202D02*
X250199995Y-86924821D01*
X250199995Y-86924821D02*
X249961900Y-86924821D01*
X257592375Y-84384821D02*
X257259042Y-83908630D01*
X257020947Y-84384821D02*
X257020947Y-83384821D01*
X257020947Y-83384821D02*
X257401899Y-83384821D01*
X257401899Y-83384821D02*
X257497137Y-83432440D01*
X257497137Y-83432440D02*
X257544756Y-83480059D01*
X257544756Y-83480059D02*
X257592375Y-83575297D01*
X257592375Y-83575297D02*
X257592375Y-83718154D01*
X257592375Y-83718154D02*
X257544756Y-83813392D01*
X257544756Y-83813392D02*
X257497137Y-83861011D01*
X257497137Y-83861011D02*
X257401899Y-83908630D01*
X257401899Y-83908630D02*
X257020947Y-83908630D01*
X257973328Y-84337202D02*
X258116185Y-84384821D01*
X258116185Y-84384821D02*
X258354280Y-84384821D01*
X258354280Y-84384821D02*
X258449518Y-84337202D01*
X258449518Y-84337202D02*
X258497137Y-84289582D01*
X258497137Y-84289582D02*
X258544756Y-84194344D01*
X258544756Y-84194344D02*
X258544756Y-84099106D01*
X258544756Y-84099106D02*
X258497137Y-84003868D01*
X258497137Y-84003868D02*
X258449518Y-83956249D01*
X258449518Y-83956249D02*
X258354280Y-83908630D01*
X258354280Y-83908630D02*
X258163804Y-83861011D01*
X258163804Y-83861011D02*
X258068566Y-83813392D01*
X258068566Y-83813392D02*
X258020947Y-83765773D01*
X258020947Y-83765773D02*
X257973328Y-83670535D01*
X257973328Y-83670535D02*
X257973328Y-83575297D01*
X257973328Y-83575297D02*
X258020947Y-83480059D01*
X258020947Y-83480059D02*
X258068566Y-83432440D01*
X258068566Y-83432440D02*
X258163804Y-83384821D01*
X258163804Y-83384821D02*
X258401899Y-83384821D01*
X258401899Y-83384821D02*
X258544756Y-83432440D01*
X258830471Y-83384821D02*
X259401899Y-83384821D01*
X259116185Y-84384821D02*
X259116185Y-83384821D01*
X257187613Y-104657202D02*
X257092375Y-104704821D01*
X257092375Y-104704821D02*
X256901899Y-104704821D01*
X256901899Y-104704821D02*
X256806661Y-104657202D01*
X256806661Y-104657202D02*
X256759042Y-104609582D01*
X256759042Y-104609582D02*
X256711423Y-104514344D01*
X256711423Y-104514344D02*
X256711423Y-104228630D01*
X256711423Y-104228630D02*
X256759042Y-104133392D01*
X256759042Y-104133392D02*
X256806661Y-104085773D01*
X256806661Y-104085773D02*
X256901899Y-104038154D01*
X256901899Y-104038154D02*
X257092375Y-104038154D01*
X257092375Y-104038154D02*
X257187613Y-104085773D01*
X257759042Y-104704821D02*
X257663804Y-104657202D01*
X257663804Y-104657202D02*
X257616185Y-104609582D01*
X257616185Y-104609582D02*
X257568566Y-104514344D01*
X257568566Y-104514344D02*
X257568566Y-104228630D01*
X257568566Y-104228630D02*
X257616185Y-104133392D01*
X257616185Y-104133392D02*
X257663804Y-104085773D01*
X257663804Y-104085773D02*
X257759042Y-104038154D01*
X257759042Y-104038154D02*
X257901899Y-104038154D01*
X257901899Y-104038154D02*
X257997137Y-104085773D01*
X257997137Y-104085773D02*
X258044756Y-104133392D01*
X258044756Y-104133392D02*
X258092375Y-104228630D01*
X258092375Y-104228630D02*
X258092375Y-104514344D01*
X258092375Y-104514344D02*
X258044756Y-104609582D01*
X258044756Y-104609582D02*
X257997137Y-104657202D01*
X257997137Y-104657202D02*
X257901899Y-104704821D01*
X257901899Y-104704821D02*
X257759042Y-104704821D01*
X258663804Y-104704821D02*
X258568566Y-104657202D01*
X258568566Y-104657202D02*
X258520947Y-104561963D01*
X258520947Y-104561963D02*
X258520947Y-103704821D01*
X258997138Y-103800059D02*
X259044757Y-103752440D01*
X259044757Y-103752440D02*
X259139995Y-103704821D01*
X259139995Y-103704821D02*
X259378090Y-103704821D01*
X259378090Y-103704821D02*
X259473328Y-103752440D01*
X259473328Y-103752440D02*
X259520947Y-103800059D01*
X259520947Y-103800059D02*
X259568566Y-103895297D01*
X259568566Y-103895297D02*
X259568566Y-103990535D01*
X259568566Y-103990535D02*
X259520947Y-104133392D01*
X259520947Y-104133392D02*
X258949519Y-104704821D01*
X258949519Y-104704821D02*
X259568566Y-104704821D01*
X248438090Y-83432440D02*
X248342852Y-83384821D01*
X248342852Y-83384821D02*
X248199995Y-83384821D01*
X248199995Y-83384821D02*
X248057138Y-83432440D01*
X248057138Y-83432440D02*
X247961900Y-83527678D01*
X247961900Y-83527678D02*
X247914281Y-83622916D01*
X247914281Y-83622916D02*
X247866662Y-83813392D01*
X247866662Y-83813392D02*
X247866662Y-83956249D01*
X247866662Y-83956249D02*
X247914281Y-84146725D01*
X247914281Y-84146725D02*
X247961900Y-84241963D01*
X247961900Y-84241963D02*
X248057138Y-84337202D01*
X248057138Y-84337202D02*
X248199995Y-84384821D01*
X248199995Y-84384821D02*
X248295233Y-84384821D01*
X248295233Y-84384821D02*
X248438090Y-84337202D01*
X248438090Y-84337202D02*
X248485709Y-84289582D01*
X248485709Y-84289582D02*
X248485709Y-83956249D01*
X248485709Y-83956249D02*
X248295233Y-83956249D01*
X248914281Y-84384821D02*
X248914281Y-83384821D01*
X248914281Y-83384821D02*
X249485709Y-84384821D01*
X249485709Y-84384821D02*
X249485709Y-83384821D01*
X249961900Y-84384821D02*
X249961900Y-83384821D01*
X249961900Y-83384821D02*
X250199995Y-83384821D01*
X250199995Y-83384821D02*
X250342852Y-83432440D01*
X250342852Y-83432440D02*
X250438090Y-83527678D01*
X250438090Y-83527678D02*
X250485709Y-83622916D01*
X250485709Y-83622916D02*
X250533328Y-83813392D01*
X250533328Y-83813392D02*
X250533328Y-83956249D01*
X250533328Y-83956249D02*
X250485709Y-84146725D01*
X250485709Y-84146725D02*
X250438090Y-84241963D01*
X250438090Y-84241963D02*
X250342852Y-84337202D01*
X250342852Y-84337202D02*
X250199995Y-84384821D01*
X250199995Y-84384821D02*
X249961900Y-84384821D01*
X248009519Y-89417202D02*
X248152376Y-89464821D01*
X248152376Y-89464821D02*
X248390471Y-89464821D01*
X248390471Y-89464821D02*
X248485709Y-89417202D01*
X248485709Y-89417202D02*
X248533328Y-89369582D01*
X248533328Y-89369582D02*
X248580947Y-89274344D01*
X248580947Y-89274344D02*
X248580947Y-89179106D01*
X248580947Y-89179106D02*
X248533328Y-89083868D01*
X248533328Y-89083868D02*
X248485709Y-89036249D01*
X248485709Y-89036249D02*
X248390471Y-88988630D01*
X248390471Y-88988630D02*
X248199995Y-88941011D01*
X248199995Y-88941011D02*
X248104757Y-88893392D01*
X248104757Y-88893392D02*
X248057138Y-88845773D01*
X248057138Y-88845773D02*
X248009519Y-88750535D01*
X248009519Y-88750535D02*
X248009519Y-88655297D01*
X248009519Y-88655297D02*
X248057138Y-88560059D01*
X248057138Y-88560059D02*
X248104757Y-88512440D01*
X248104757Y-88512440D02*
X248199995Y-88464821D01*
X248199995Y-88464821D02*
X248438090Y-88464821D01*
X248438090Y-88464821D02*
X248580947Y-88512440D01*
X249580947Y-89369582D02*
X249533328Y-89417202D01*
X249533328Y-89417202D02*
X249390471Y-89464821D01*
X249390471Y-89464821D02*
X249295233Y-89464821D01*
X249295233Y-89464821D02*
X249152376Y-89417202D01*
X249152376Y-89417202D02*
X249057138Y-89321963D01*
X249057138Y-89321963D02*
X249009519Y-89226725D01*
X249009519Y-89226725D02*
X248961900Y-89036249D01*
X248961900Y-89036249D02*
X248961900Y-88893392D01*
X248961900Y-88893392D02*
X249009519Y-88702916D01*
X249009519Y-88702916D02*
X249057138Y-88607678D01*
X249057138Y-88607678D02*
X249152376Y-88512440D01*
X249152376Y-88512440D02*
X249295233Y-88464821D01*
X249295233Y-88464821D02*
X249390471Y-88464821D01*
X249390471Y-88464821D02*
X249533328Y-88512440D01*
X249533328Y-88512440D02*
X249580947Y-88560059D01*
X250485709Y-89464821D02*
X250009519Y-89464821D01*
X250009519Y-89464821D02*
X250009519Y-88464821D01*
X257187613Y-89464821D02*
X256854280Y-88988630D01*
X256616185Y-89464821D02*
X256616185Y-88464821D01*
X256616185Y-88464821D02*
X256997137Y-88464821D01*
X256997137Y-88464821D02*
X257092375Y-88512440D01*
X257092375Y-88512440D02*
X257139994Y-88560059D01*
X257139994Y-88560059D02*
X257187613Y-88655297D01*
X257187613Y-88655297D02*
X257187613Y-88798154D01*
X257187613Y-88798154D02*
X257139994Y-88893392D01*
X257139994Y-88893392D02*
X257092375Y-88941011D01*
X257092375Y-88941011D02*
X256997137Y-88988630D01*
X256997137Y-88988630D02*
X256616185Y-88988630D01*
X257616185Y-88941011D02*
X257949518Y-88941011D01*
X258092375Y-89464821D02*
X257616185Y-89464821D01*
X257616185Y-89464821D02*
X257616185Y-88464821D01*
X257616185Y-88464821D02*
X258092375Y-88464821D01*
X258282852Y-89560059D02*
X259044756Y-89560059D01*
X259235233Y-89179106D02*
X259711423Y-89179106D01*
X259139995Y-89464821D02*
X259473328Y-88464821D01*
X259473328Y-88464821D02*
X259806661Y-89464821D01*
X247628567Y-92004821D02*
X247628567Y-91004821D01*
X247628567Y-91004821D02*
X247961900Y-91719106D01*
X247961900Y-91719106D02*
X248295233Y-91004821D01*
X248295233Y-91004821D02*
X248295233Y-92004821D01*
X248961900Y-91004821D02*
X249152376Y-91004821D01*
X249152376Y-91004821D02*
X249247614Y-91052440D01*
X249247614Y-91052440D02*
X249342852Y-91147678D01*
X249342852Y-91147678D02*
X249390471Y-91338154D01*
X249390471Y-91338154D02*
X249390471Y-91671487D01*
X249390471Y-91671487D02*
X249342852Y-91861963D01*
X249342852Y-91861963D02*
X249247614Y-91957202D01*
X249247614Y-91957202D02*
X249152376Y-92004821D01*
X249152376Y-92004821D02*
X248961900Y-92004821D01*
X248961900Y-92004821D02*
X248866662Y-91957202D01*
X248866662Y-91957202D02*
X248771424Y-91861963D01*
X248771424Y-91861963D02*
X248723805Y-91671487D01*
X248723805Y-91671487D02*
X248723805Y-91338154D01*
X248723805Y-91338154D02*
X248771424Y-91147678D01*
X248771424Y-91147678D02*
X248866662Y-91052440D01*
X248866662Y-91052440D02*
X248961900Y-91004821D01*
X249771424Y-91957202D02*
X249914281Y-92004821D01*
X249914281Y-92004821D02*
X250152376Y-92004821D01*
X250152376Y-92004821D02*
X250247614Y-91957202D01*
X250247614Y-91957202D02*
X250295233Y-91909582D01*
X250295233Y-91909582D02*
X250342852Y-91814344D01*
X250342852Y-91814344D02*
X250342852Y-91719106D01*
X250342852Y-91719106D02*
X250295233Y-91623868D01*
X250295233Y-91623868D02*
X250247614Y-91576249D01*
X250247614Y-91576249D02*
X250152376Y-91528630D01*
X250152376Y-91528630D02*
X249961900Y-91481011D01*
X249961900Y-91481011D02*
X249866662Y-91433392D01*
X249866662Y-91433392D02*
X249819043Y-91385773D01*
X249819043Y-91385773D02*
X249771424Y-91290535D01*
X249771424Y-91290535D02*
X249771424Y-91195297D01*
X249771424Y-91195297D02*
X249819043Y-91100059D01*
X249819043Y-91100059D02*
X249866662Y-91052440D01*
X249866662Y-91052440D02*
X249961900Y-91004821D01*
X249961900Y-91004821D02*
X250199995Y-91004821D01*
X250199995Y-91004821D02*
X250342852Y-91052440D01*
X250771424Y-92004821D02*
X250771424Y-91004821D01*
X257187613Y-91957202D02*
X257092375Y-92004821D01*
X257092375Y-92004821D02*
X256901899Y-92004821D01*
X256901899Y-92004821D02*
X256806661Y-91957202D01*
X256806661Y-91957202D02*
X256759042Y-91909582D01*
X256759042Y-91909582D02*
X256711423Y-91814344D01*
X256711423Y-91814344D02*
X256711423Y-91528630D01*
X256711423Y-91528630D02*
X256759042Y-91433392D01*
X256759042Y-91433392D02*
X256806661Y-91385773D01*
X256806661Y-91385773D02*
X256901899Y-91338154D01*
X256901899Y-91338154D02*
X257092375Y-91338154D01*
X257092375Y-91338154D02*
X257187613Y-91385773D01*
X257759042Y-92004821D02*
X257663804Y-91957202D01*
X257663804Y-91957202D02*
X257616185Y-91909582D01*
X257616185Y-91909582D02*
X257568566Y-91814344D01*
X257568566Y-91814344D02*
X257568566Y-91528630D01*
X257568566Y-91528630D02*
X257616185Y-91433392D01*
X257616185Y-91433392D02*
X257663804Y-91385773D01*
X257663804Y-91385773D02*
X257759042Y-91338154D01*
X257759042Y-91338154D02*
X257901899Y-91338154D01*
X257901899Y-91338154D02*
X257997137Y-91385773D01*
X257997137Y-91385773D02*
X258044756Y-91433392D01*
X258044756Y-91433392D02*
X258092375Y-91528630D01*
X258092375Y-91528630D02*
X258092375Y-91814344D01*
X258092375Y-91814344D02*
X258044756Y-91909582D01*
X258044756Y-91909582D02*
X257997137Y-91957202D01*
X257997137Y-91957202D02*
X257901899Y-92004821D01*
X257901899Y-92004821D02*
X257759042Y-92004821D01*
X258663804Y-92004821D02*
X258568566Y-91957202D01*
X258568566Y-91957202D02*
X258520947Y-91861963D01*
X258520947Y-91861963D02*
X258520947Y-91004821D01*
X258949519Y-91004821D02*
X259616185Y-91004821D01*
X259616185Y-91004821D02*
X259187614Y-92004821D01*
X257187613Y-94497202D02*
X257092375Y-94544821D01*
X257092375Y-94544821D02*
X256901899Y-94544821D01*
X256901899Y-94544821D02*
X256806661Y-94497202D01*
X256806661Y-94497202D02*
X256759042Y-94449582D01*
X256759042Y-94449582D02*
X256711423Y-94354344D01*
X256711423Y-94354344D02*
X256711423Y-94068630D01*
X256711423Y-94068630D02*
X256759042Y-93973392D01*
X256759042Y-93973392D02*
X256806661Y-93925773D01*
X256806661Y-93925773D02*
X256901899Y-93878154D01*
X256901899Y-93878154D02*
X257092375Y-93878154D01*
X257092375Y-93878154D02*
X257187613Y-93925773D01*
X257759042Y-94544821D02*
X257663804Y-94497202D01*
X257663804Y-94497202D02*
X257616185Y-94449582D01*
X257616185Y-94449582D02*
X257568566Y-94354344D01*
X257568566Y-94354344D02*
X257568566Y-94068630D01*
X257568566Y-94068630D02*
X257616185Y-93973392D01*
X257616185Y-93973392D02*
X257663804Y-93925773D01*
X257663804Y-93925773D02*
X257759042Y-93878154D01*
X257759042Y-93878154D02*
X257901899Y-93878154D01*
X257901899Y-93878154D02*
X257997137Y-93925773D01*
X257997137Y-93925773D02*
X258044756Y-93973392D01*
X258044756Y-93973392D02*
X258092375Y-94068630D01*
X258092375Y-94068630D02*
X258092375Y-94354344D01*
X258092375Y-94354344D02*
X258044756Y-94449582D01*
X258044756Y-94449582D02*
X257997137Y-94497202D01*
X257997137Y-94497202D02*
X257901899Y-94544821D01*
X257901899Y-94544821D02*
X257759042Y-94544821D01*
X258663804Y-94544821D02*
X258568566Y-94497202D01*
X258568566Y-94497202D02*
X258520947Y-94401963D01*
X258520947Y-94401963D02*
X258520947Y-93544821D01*
X259473328Y-93544821D02*
X259282852Y-93544821D01*
X259282852Y-93544821D02*
X259187614Y-93592440D01*
X259187614Y-93592440D02*
X259139995Y-93640059D01*
X259139995Y-93640059D02*
X259044757Y-93782916D01*
X259044757Y-93782916D02*
X258997138Y-93973392D01*
X258997138Y-93973392D02*
X258997138Y-94354344D01*
X258997138Y-94354344D02*
X259044757Y-94449582D01*
X259044757Y-94449582D02*
X259092376Y-94497202D01*
X259092376Y-94497202D02*
X259187614Y-94544821D01*
X259187614Y-94544821D02*
X259378090Y-94544821D01*
X259378090Y-94544821D02*
X259473328Y-94497202D01*
X259473328Y-94497202D02*
X259520947Y-94449582D01*
X259520947Y-94449582D02*
X259568566Y-94354344D01*
X259568566Y-94354344D02*
X259568566Y-94116249D01*
X259568566Y-94116249D02*
X259520947Y-94021011D01*
X259520947Y-94021011D02*
X259473328Y-93973392D01*
X259473328Y-93973392D02*
X259378090Y-93925773D01*
X259378090Y-93925773D02*
X259187614Y-93925773D01*
X259187614Y-93925773D02*
X259092376Y-93973392D01*
X259092376Y-93973392D02*
X259044757Y-94021011D01*
X259044757Y-94021011D02*
X258997138Y-94116249D01*
X247676185Y-99624821D02*
X247676185Y-98958154D01*
X247676185Y-99148630D02*
X247723804Y-99053392D01*
X247723804Y-99053392D02*
X247771423Y-99005773D01*
X247771423Y-99005773D02*
X247866661Y-98958154D01*
X247866661Y-98958154D02*
X247961899Y-98958154D01*
X248438090Y-99624821D02*
X248342852Y-99577202D01*
X248342852Y-99577202D02*
X248295233Y-99529582D01*
X248295233Y-99529582D02*
X248247614Y-99434344D01*
X248247614Y-99434344D02*
X248247614Y-99148630D01*
X248247614Y-99148630D02*
X248295233Y-99053392D01*
X248295233Y-99053392D02*
X248342852Y-99005773D01*
X248342852Y-99005773D02*
X248438090Y-98958154D01*
X248438090Y-98958154D02*
X248580947Y-98958154D01*
X248580947Y-98958154D02*
X248676185Y-99005773D01*
X248676185Y-99005773D02*
X248723804Y-99053392D01*
X248723804Y-99053392D02*
X248771423Y-99148630D01*
X248771423Y-99148630D02*
X248771423Y-99434344D01*
X248771423Y-99434344D02*
X248723804Y-99529582D01*
X248723804Y-99529582D02*
X248676185Y-99577202D01*
X248676185Y-99577202D02*
X248580947Y-99624821D01*
X248580947Y-99624821D02*
X248438090Y-99624821D01*
X249104757Y-98958154D02*
X249295233Y-99624821D01*
X249295233Y-99624821D02*
X249485709Y-99148630D01*
X249485709Y-99148630D02*
X249676185Y-99624821D01*
X249676185Y-99624821D02*
X249866661Y-98958154D01*
X250199995Y-98720059D02*
X250247614Y-98672440D01*
X250247614Y-98672440D02*
X250342852Y-98624821D01*
X250342852Y-98624821D02*
X250580947Y-98624821D01*
X250580947Y-98624821D02*
X250676185Y-98672440D01*
X250676185Y-98672440D02*
X250723804Y-98720059D01*
X250723804Y-98720059D02*
X250771423Y-98815297D01*
X250771423Y-98815297D02*
X250771423Y-98910535D01*
X250771423Y-98910535D02*
X250723804Y-99053392D01*
X250723804Y-99053392D02*
X250152376Y-99624821D01*
X250152376Y-99624821D02*
X250771423Y-99624821D01*
X257187613Y-102117202D02*
X257092375Y-102164821D01*
X257092375Y-102164821D02*
X256901899Y-102164821D01*
X256901899Y-102164821D02*
X256806661Y-102117202D01*
X256806661Y-102117202D02*
X256759042Y-102069582D01*
X256759042Y-102069582D02*
X256711423Y-101974344D01*
X256711423Y-101974344D02*
X256711423Y-101688630D01*
X256711423Y-101688630D02*
X256759042Y-101593392D01*
X256759042Y-101593392D02*
X256806661Y-101545773D01*
X256806661Y-101545773D02*
X256901899Y-101498154D01*
X256901899Y-101498154D02*
X257092375Y-101498154D01*
X257092375Y-101498154D02*
X257187613Y-101545773D01*
X257759042Y-102164821D02*
X257663804Y-102117202D01*
X257663804Y-102117202D02*
X257616185Y-102069582D01*
X257616185Y-102069582D02*
X257568566Y-101974344D01*
X257568566Y-101974344D02*
X257568566Y-101688630D01*
X257568566Y-101688630D02*
X257616185Y-101593392D01*
X257616185Y-101593392D02*
X257663804Y-101545773D01*
X257663804Y-101545773D02*
X257759042Y-101498154D01*
X257759042Y-101498154D02*
X257901899Y-101498154D01*
X257901899Y-101498154D02*
X257997137Y-101545773D01*
X257997137Y-101545773D02*
X258044756Y-101593392D01*
X258044756Y-101593392D02*
X258092375Y-101688630D01*
X258092375Y-101688630D02*
X258092375Y-101974344D01*
X258092375Y-101974344D02*
X258044756Y-102069582D01*
X258044756Y-102069582D02*
X257997137Y-102117202D01*
X257997137Y-102117202D02*
X257901899Y-102164821D01*
X257901899Y-102164821D02*
X257759042Y-102164821D01*
X258663804Y-102164821D02*
X258568566Y-102117202D01*
X258568566Y-102117202D02*
X258520947Y-102021963D01*
X258520947Y-102021963D02*
X258520947Y-101164821D01*
X258949519Y-101164821D02*
X259568566Y-101164821D01*
X259568566Y-101164821D02*
X259235233Y-101545773D01*
X259235233Y-101545773D02*
X259378090Y-101545773D01*
X259378090Y-101545773D02*
X259473328Y-101593392D01*
X259473328Y-101593392D02*
X259520947Y-101641011D01*
X259520947Y-101641011D02*
X259568566Y-101736249D01*
X259568566Y-101736249D02*
X259568566Y-101974344D01*
X259568566Y-101974344D02*
X259520947Y-102069582D01*
X259520947Y-102069582D02*
X259473328Y-102117202D01*
X259473328Y-102117202D02*
X259378090Y-102164821D01*
X259378090Y-102164821D02*
X259092376Y-102164821D01*
X259092376Y-102164821D02*
X258997138Y-102117202D01*
X258997138Y-102117202D02*
X258949519Y-102069582D01*
X247676185Y-107244821D02*
X247676185Y-106578154D01*
X247676185Y-106768630D02*
X247723804Y-106673392D01*
X247723804Y-106673392D02*
X247771423Y-106625773D01*
X247771423Y-106625773D02*
X247866661Y-106578154D01*
X247866661Y-106578154D02*
X247961899Y-106578154D01*
X248438090Y-107244821D02*
X248342852Y-107197202D01*
X248342852Y-107197202D02*
X248295233Y-107149582D01*
X248295233Y-107149582D02*
X248247614Y-107054344D01*
X248247614Y-107054344D02*
X248247614Y-106768630D01*
X248247614Y-106768630D02*
X248295233Y-106673392D01*
X248295233Y-106673392D02*
X248342852Y-106625773D01*
X248342852Y-106625773D02*
X248438090Y-106578154D01*
X248438090Y-106578154D02*
X248580947Y-106578154D01*
X248580947Y-106578154D02*
X248676185Y-106625773D01*
X248676185Y-106625773D02*
X248723804Y-106673392D01*
X248723804Y-106673392D02*
X248771423Y-106768630D01*
X248771423Y-106768630D02*
X248771423Y-107054344D01*
X248771423Y-107054344D02*
X248723804Y-107149582D01*
X248723804Y-107149582D02*
X248676185Y-107197202D01*
X248676185Y-107197202D02*
X248580947Y-107244821D01*
X248580947Y-107244821D02*
X248438090Y-107244821D01*
X249104757Y-106578154D02*
X249295233Y-107244821D01*
X249295233Y-107244821D02*
X249485709Y-106768630D01*
X249485709Y-106768630D02*
X249676185Y-107244821D01*
X249676185Y-107244821D02*
X249866661Y-106578154D01*
X250723804Y-106244821D02*
X250247614Y-106244821D01*
X250247614Y-106244821D02*
X250199995Y-106721011D01*
X250199995Y-106721011D02*
X250247614Y-106673392D01*
X250247614Y-106673392D02*
X250342852Y-106625773D01*
X250342852Y-106625773D02*
X250580947Y-106625773D01*
X250580947Y-106625773D02*
X250676185Y-106673392D01*
X250676185Y-106673392D02*
X250723804Y-106721011D01*
X250723804Y-106721011D02*
X250771423Y-106816249D01*
X250771423Y-106816249D02*
X250771423Y-107054344D01*
X250771423Y-107054344D02*
X250723804Y-107149582D01*
X250723804Y-107149582D02*
X250676185Y-107197202D01*
X250676185Y-107197202D02*
X250580947Y-107244821D01*
X250580947Y-107244821D02*
X250342852Y-107244821D01*
X250342852Y-107244821D02*
X250247614Y-107197202D01*
X250247614Y-107197202D02*
X250199995Y-107149582D01*
X247676185Y-102164821D02*
X247676185Y-101498154D01*
X247676185Y-101688630D02*
X247723804Y-101593392D01*
X247723804Y-101593392D02*
X247771423Y-101545773D01*
X247771423Y-101545773D02*
X247866661Y-101498154D01*
X247866661Y-101498154D02*
X247961899Y-101498154D01*
X248438090Y-102164821D02*
X248342852Y-102117202D01*
X248342852Y-102117202D02*
X248295233Y-102069582D01*
X248295233Y-102069582D02*
X248247614Y-101974344D01*
X248247614Y-101974344D02*
X248247614Y-101688630D01*
X248247614Y-101688630D02*
X248295233Y-101593392D01*
X248295233Y-101593392D02*
X248342852Y-101545773D01*
X248342852Y-101545773D02*
X248438090Y-101498154D01*
X248438090Y-101498154D02*
X248580947Y-101498154D01*
X248580947Y-101498154D02*
X248676185Y-101545773D01*
X248676185Y-101545773D02*
X248723804Y-101593392D01*
X248723804Y-101593392D02*
X248771423Y-101688630D01*
X248771423Y-101688630D02*
X248771423Y-101974344D01*
X248771423Y-101974344D02*
X248723804Y-102069582D01*
X248723804Y-102069582D02*
X248676185Y-102117202D01*
X248676185Y-102117202D02*
X248580947Y-102164821D01*
X248580947Y-102164821D02*
X248438090Y-102164821D01*
X249104757Y-101498154D02*
X249295233Y-102164821D01*
X249295233Y-102164821D02*
X249485709Y-101688630D01*
X249485709Y-101688630D02*
X249676185Y-102164821D01*
X249676185Y-102164821D02*
X249866661Y-101498154D01*
X250152376Y-101164821D02*
X250771423Y-101164821D01*
X250771423Y-101164821D02*
X250438090Y-101545773D01*
X250438090Y-101545773D02*
X250580947Y-101545773D01*
X250580947Y-101545773D02*
X250676185Y-101593392D01*
X250676185Y-101593392D02*
X250723804Y-101641011D01*
X250723804Y-101641011D02*
X250771423Y-101736249D01*
X250771423Y-101736249D02*
X250771423Y-101974344D01*
X250771423Y-101974344D02*
X250723804Y-102069582D01*
X250723804Y-102069582D02*
X250676185Y-102117202D01*
X250676185Y-102117202D02*
X250580947Y-102164821D01*
X250580947Y-102164821D02*
X250295233Y-102164821D01*
X250295233Y-102164821D02*
X250199995Y-102117202D01*
X250199995Y-102117202D02*
X250152376Y-102069582D01*
X256806662Y-85924821D02*
X257139995Y-86924821D01*
X257139995Y-86924821D02*
X257473328Y-85924821D01*
X258378090Y-86829582D02*
X258330471Y-86877202D01*
X258330471Y-86877202D02*
X258187614Y-86924821D01*
X258187614Y-86924821D02*
X258092376Y-86924821D01*
X258092376Y-86924821D02*
X257949519Y-86877202D01*
X257949519Y-86877202D02*
X257854281Y-86781963D01*
X257854281Y-86781963D02*
X257806662Y-86686725D01*
X257806662Y-86686725D02*
X257759043Y-86496249D01*
X257759043Y-86496249D02*
X257759043Y-86353392D01*
X257759043Y-86353392D02*
X257806662Y-86162916D01*
X257806662Y-86162916D02*
X257854281Y-86067678D01*
X257854281Y-86067678D02*
X257949519Y-85972440D01*
X257949519Y-85972440D02*
X258092376Y-85924821D01*
X258092376Y-85924821D02*
X258187614Y-85924821D01*
X258187614Y-85924821D02*
X258330471Y-85972440D01*
X258330471Y-85972440D02*
X258378090Y-86020059D01*
X259378090Y-86829582D02*
X259330471Y-86877202D01*
X259330471Y-86877202D02*
X259187614Y-86924821D01*
X259187614Y-86924821D02*
X259092376Y-86924821D01*
X259092376Y-86924821D02*
X258949519Y-86877202D01*
X258949519Y-86877202D02*
X258854281Y-86781963D01*
X258854281Y-86781963D02*
X258806662Y-86686725D01*
X258806662Y-86686725D02*
X258759043Y-86496249D01*
X258759043Y-86496249D02*
X258759043Y-86353392D01*
X258759043Y-86353392D02*
X258806662Y-86162916D01*
X258806662Y-86162916D02*
X258854281Y-86067678D01*
X258854281Y-86067678D02*
X258949519Y-85972440D01*
X258949519Y-85972440D02*
X259092376Y-85924821D01*
X259092376Y-85924821D02*
X259187614Y-85924821D01*
X259187614Y-85924821D02*
X259330471Y-85972440D01*
X259330471Y-85972440D02*
X259378090Y-86020059D01*
X248461900Y-81844821D02*
X248461900Y-80844821D01*
X248461900Y-80844821D02*
X248842852Y-80844821D01*
X248842852Y-80844821D02*
X248938090Y-80892440D01*
X248938090Y-80892440D02*
X248985709Y-80940059D01*
X248985709Y-80940059D02*
X249033328Y-81035297D01*
X249033328Y-81035297D02*
X249033328Y-81178154D01*
X249033328Y-81178154D02*
X248985709Y-81273392D01*
X248985709Y-81273392D02*
X248938090Y-81321011D01*
X248938090Y-81321011D02*
X248842852Y-81368630D01*
X248842852Y-81368630D02*
X248461900Y-81368630D01*
X249652376Y-80844821D02*
X249747614Y-80844821D01*
X249747614Y-80844821D02*
X249842852Y-80892440D01*
X249842852Y-80892440D02*
X249890471Y-80940059D01*
X249890471Y-80940059D02*
X249938090Y-81035297D01*
X249938090Y-81035297D02*
X249985709Y-81225773D01*
X249985709Y-81225773D02*
X249985709Y-81463868D01*
X249985709Y-81463868D02*
X249938090Y-81654344D01*
X249938090Y-81654344D02*
X249890471Y-81749582D01*
X249890471Y-81749582D02*
X249842852Y-81797202D01*
X249842852Y-81797202D02*
X249747614Y-81844821D01*
X249747614Y-81844821D02*
X249652376Y-81844821D01*
X249652376Y-81844821D02*
X249557138Y-81797202D01*
X249557138Y-81797202D02*
X249509519Y-81749582D01*
X249509519Y-81749582D02*
X249461900Y-81654344D01*
X249461900Y-81654344D02*
X249414281Y-81463868D01*
X249414281Y-81463868D02*
X249414281Y-81225773D01*
X249414281Y-81225773D02*
X249461900Y-81035297D01*
X249461900Y-81035297D02*
X249509519Y-80940059D01*
X249509519Y-80940059D02*
X249557138Y-80892440D01*
X249557138Y-80892440D02*
X249652376Y-80844821D01*
X247676185Y-104704821D02*
X247676185Y-104038154D01*
X247676185Y-104228630D02*
X247723804Y-104133392D01*
X247723804Y-104133392D02*
X247771423Y-104085773D01*
X247771423Y-104085773D02*
X247866661Y-104038154D01*
X247866661Y-104038154D02*
X247961899Y-104038154D01*
X248438090Y-104704821D02*
X248342852Y-104657202D01*
X248342852Y-104657202D02*
X248295233Y-104609582D01*
X248295233Y-104609582D02*
X248247614Y-104514344D01*
X248247614Y-104514344D02*
X248247614Y-104228630D01*
X248247614Y-104228630D02*
X248295233Y-104133392D01*
X248295233Y-104133392D02*
X248342852Y-104085773D01*
X248342852Y-104085773D02*
X248438090Y-104038154D01*
X248438090Y-104038154D02*
X248580947Y-104038154D01*
X248580947Y-104038154D02*
X248676185Y-104085773D01*
X248676185Y-104085773D02*
X248723804Y-104133392D01*
X248723804Y-104133392D02*
X248771423Y-104228630D01*
X248771423Y-104228630D02*
X248771423Y-104514344D01*
X248771423Y-104514344D02*
X248723804Y-104609582D01*
X248723804Y-104609582D02*
X248676185Y-104657202D01*
X248676185Y-104657202D02*
X248580947Y-104704821D01*
X248580947Y-104704821D02*
X248438090Y-104704821D01*
X249104757Y-104038154D02*
X249295233Y-104704821D01*
X249295233Y-104704821D02*
X249485709Y-104228630D01*
X249485709Y-104228630D02*
X249676185Y-104704821D01*
X249676185Y-104704821D02*
X249866661Y-104038154D01*
X250676185Y-104038154D02*
X250676185Y-104704821D01*
X250438090Y-103657202D02*
X250199995Y-104371487D01*
X250199995Y-104371487D02*
X250819042Y-104371487D01*
X257187613Y-99577202D02*
X257092375Y-99624821D01*
X257092375Y-99624821D02*
X256901899Y-99624821D01*
X256901899Y-99624821D02*
X256806661Y-99577202D01*
X256806661Y-99577202D02*
X256759042Y-99529582D01*
X256759042Y-99529582D02*
X256711423Y-99434344D01*
X256711423Y-99434344D02*
X256711423Y-99148630D01*
X256711423Y-99148630D02*
X256759042Y-99053392D01*
X256759042Y-99053392D02*
X256806661Y-99005773D01*
X256806661Y-99005773D02*
X256901899Y-98958154D01*
X256901899Y-98958154D02*
X257092375Y-98958154D01*
X257092375Y-98958154D02*
X257187613Y-99005773D01*
X257759042Y-99624821D02*
X257663804Y-99577202D01*
X257663804Y-99577202D02*
X257616185Y-99529582D01*
X257616185Y-99529582D02*
X257568566Y-99434344D01*
X257568566Y-99434344D02*
X257568566Y-99148630D01*
X257568566Y-99148630D02*
X257616185Y-99053392D01*
X257616185Y-99053392D02*
X257663804Y-99005773D01*
X257663804Y-99005773D02*
X257759042Y-98958154D01*
X257759042Y-98958154D02*
X257901899Y-98958154D01*
X257901899Y-98958154D02*
X257997137Y-99005773D01*
X257997137Y-99005773D02*
X258044756Y-99053392D01*
X258044756Y-99053392D02*
X258092375Y-99148630D01*
X258092375Y-99148630D02*
X258092375Y-99434344D01*
X258092375Y-99434344D02*
X258044756Y-99529582D01*
X258044756Y-99529582D02*
X257997137Y-99577202D01*
X257997137Y-99577202D02*
X257901899Y-99624821D01*
X257901899Y-99624821D02*
X257759042Y-99624821D01*
X258663804Y-99624821D02*
X258568566Y-99577202D01*
X258568566Y-99577202D02*
X258520947Y-99481963D01*
X258520947Y-99481963D02*
X258520947Y-98624821D01*
X259473328Y-98958154D02*
X259473328Y-99624821D01*
X259235233Y-98577202D02*
X258997138Y-99291487D01*
X258997138Y-99291487D02*
X259616185Y-99291487D01*
X257449518Y-79304821D02*
X257116185Y-78828630D01*
X256878090Y-79304821D02*
X256878090Y-78304821D01*
X256878090Y-78304821D02*
X257259042Y-78304821D01*
X257259042Y-78304821D02*
X257354280Y-78352440D01*
X257354280Y-78352440D02*
X257401899Y-78400059D01*
X257401899Y-78400059D02*
X257449518Y-78495297D01*
X257449518Y-78495297D02*
X257449518Y-78638154D01*
X257449518Y-78638154D02*
X257401899Y-78733392D01*
X257401899Y-78733392D02*
X257354280Y-78781011D01*
X257354280Y-78781011D02*
X257259042Y-78828630D01*
X257259042Y-78828630D02*
X256878090Y-78828630D01*
X257830471Y-79019106D02*
X258306661Y-79019106D01*
X257735233Y-79304821D02*
X258068566Y-78304821D01*
X258068566Y-78304821D02*
X258401899Y-79304821D01*
X258639995Y-78304821D02*
X258878090Y-79304821D01*
X258878090Y-79304821D02*
X259068566Y-78590535D01*
X259068566Y-78590535D02*
X259259042Y-79304821D01*
X259259042Y-79304821D02*
X259497138Y-78304821D01*
X257187613Y-107197202D02*
X257092375Y-107244821D01*
X257092375Y-107244821D02*
X256901899Y-107244821D01*
X256901899Y-107244821D02*
X256806661Y-107197202D01*
X256806661Y-107197202D02*
X256759042Y-107149582D01*
X256759042Y-107149582D02*
X256711423Y-107054344D01*
X256711423Y-107054344D02*
X256711423Y-106768630D01*
X256711423Y-106768630D02*
X256759042Y-106673392D01*
X256759042Y-106673392D02*
X256806661Y-106625773D01*
X256806661Y-106625773D02*
X256901899Y-106578154D01*
X256901899Y-106578154D02*
X257092375Y-106578154D01*
X257092375Y-106578154D02*
X257187613Y-106625773D01*
X257759042Y-107244821D02*
X257663804Y-107197202D01*
X257663804Y-107197202D02*
X257616185Y-107149582D01*
X257616185Y-107149582D02*
X257568566Y-107054344D01*
X257568566Y-107054344D02*
X257568566Y-106768630D01*
X257568566Y-106768630D02*
X257616185Y-106673392D01*
X257616185Y-106673392D02*
X257663804Y-106625773D01*
X257663804Y-106625773D02*
X257759042Y-106578154D01*
X257759042Y-106578154D02*
X257901899Y-106578154D01*
X257901899Y-106578154D02*
X257997137Y-106625773D01*
X257997137Y-106625773D02*
X258044756Y-106673392D01*
X258044756Y-106673392D02*
X258092375Y-106768630D01*
X258092375Y-106768630D02*
X258092375Y-107054344D01*
X258092375Y-107054344D02*
X258044756Y-107149582D01*
X258044756Y-107149582D02*
X257997137Y-107197202D01*
X257997137Y-107197202D02*
X257901899Y-107244821D01*
X257901899Y-107244821D02*
X257759042Y-107244821D01*
X258663804Y-107244821D02*
X258568566Y-107197202D01*
X258568566Y-107197202D02*
X258520947Y-107101963D01*
X258520947Y-107101963D02*
X258520947Y-106244821D01*
X259568566Y-107244821D02*
X258997138Y-107244821D01*
X259282852Y-107244821D02*
X259282852Y-106244821D01*
X259282852Y-106244821D02*
X259187614Y-106387678D01*
X259187614Y-106387678D02*
X259092376Y-106482916D01*
X259092376Y-106482916D02*
X258997138Y-106530535D01*
X247676185Y-97084821D02*
X247676185Y-96418154D01*
X247676185Y-96608630D02*
X247723804Y-96513392D01*
X247723804Y-96513392D02*
X247771423Y-96465773D01*
X247771423Y-96465773D02*
X247866661Y-96418154D01*
X247866661Y-96418154D02*
X247961899Y-96418154D01*
X248438090Y-97084821D02*
X248342852Y-97037202D01*
X248342852Y-97037202D02*
X248295233Y-96989582D01*
X248295233Y-96989582D02*
X248247614Y-96894344D01*
X248247614Y-96894344D02*
X248247614Y-96608630D01*
X248247614Y-96608630D02*
X248295233Y-96513392D01*
X248295233Y-96513392D02*
X248342852Y-96465773D01*
X248342852Y-96465773D02*
X248438090Y-96418154D01*
X248438090Y-96418154D02*
X248580947Y-96418154D01*
X248580947Y-96418154D02*
X248676185Y-96465773D01*
X248676185Y-96465773D02*
X248723804Y-96513392D01*
X248723804Y-96513392D02*
X248771423Y-96608630D01*
X248771423Y-96608630D02*
X248771423Y-96894344D01*
X248771423Y-96894344D02*
X248723804Y-96989582D01*
X248723804Y-96989582D02*
X248676185Y-97037202D01*
X248676185Y-97037202D02*
X248580947Y-97084821D01*
X248580947Y-97084821D02*
X248438090Y-97084821D01*
X249104757Y-96418154D02*
X249295233Y-97084821D01*
X249295233Y-97084821D02*
X249485709Y-96608630D01*
X249485709Y-96608630D02*
X249676185Y-97084821D01*
X249676185Y-97084821D02*
X249866661Y-96418154D01*
X250771423Y-97084821D02*
X250199995Y-97084821D01*
X250485709Y-97084821D02*
X250485709Y-96084821D01*
X250485709Y-96084821D02*
X250390471Y-96227678D01*
X250390471Y-96227678D02*
X250295233Y-96322916D01*
X250295233Y-96322916D02*
X250199995Y-96370535D01*
X257378090Y-80892440D02*
X257282852Y-80844821D01*
X257282852Y-80844821D02*
X257139995Y-80844821D01*
X257139995Y-80844821D02*
X256997138Y-80892440D01*
X256997138Y-80892440D02*
X256901900Y-80987678D01*
X256901900Y-80987678D02*
X256854281Y-81082916D01*
X256854281Y-81082916D02*
X256806662Y-81273392D01*
X256806662Y-81273392D02*
X256806662Y-81416249D01*
X256806662Y-81416249D02*
X256854281Y-81606725D01*
X256854281Y-81606725D02*
X256901900Y-81701963D01*
X256901900Y-81701963D02*
X256997138Y-81797202D01*
X256997138Y-81797202D02*
X257139995Y-81844821D01*
X257139995Y-81844821D02*
X257235233Y-81844821D01*
X257235233Y-81844821D02*
X257378090Y-81797202D01*
X257378090Y-81797202D02*
X257425709Y-81749582D01*
X257425709Y-81749582D02*
X257425709Y-81416249D01*
X257425709Y-81416249D02*
X257235233Y-81416249D01*
X257854281Y-81844821D02*
X257854281Y-80844821D01*
X257854281Y-80844821D02*
X258425709Y-81844821D01*
X258425709Y-81844821D02*
X258425709Y-80844821D01*
X258901900Y-81844821D02*
X258901900Y-80844821D01*
X258901900Y-80844821D02*
X259139995Y-80844821D01*
X259139995Y-80844821D02*
X259282852Y-80892440D01*
X259282852Y-80892440D02*
X259378090Y-80987678D01*
X259378090Y-80987678D02*
X259425709Y-81082916D01*
X259425709Y-81082916D02*
X259473328Y-81273392D01*
X259473328Y-81273392D02*
X259473328Y-81416249D01*
X259473328Y-81416249D02*
X259425709Y-81606725D01*
X259425709Y-81606725D02*
X259378090Y-81701963D01*
X259378090Y-81701963D02*
X259282852Y-81797202D01*
X259282852Y-81797202D02*
X259139995Y-81844821D01*
X259139995Y-81844821D02*
X258901900Y-81844821D01*
X257187613Y-97037202D02*
X257092375Y-97084821D01*
X257092375Y-97084821D02*
X256901899Y-97084821D01*
X256901899Y-97084821D02*
X256806661Y-97037202D01*
X256806661Y-97037202D02*
X256759042Y-96989582D01*
X256759042Y-96989582D02*
X256711423Y-96894344D01*
X256711423Y-96894344D02*
X256711423Y-96608630D01*
X256711423Y-96608630D02*
X256759042Y-96513392D01*
X256759042Y-96513392D02*
X256806661Y-96465773D01*
X256806661Y-96465773D02*
X256901899Y-96418154D01*
X256901899Y-96418154D02*
X257092375Y-96418154D01*
X257092375Y-96418154D02*
X257187613Y-96465773D01*
X257759042Y-97084821D02*
X257663804Y-97037202D01*
X257663804Y-97037202D02*
X257616185Y-96989582D01*
X257616185Y-96989582D02*
X257568566Y-96894344D01*
X257568566Y-96894344D02*
X257568566Y-96608630D01*
X257568566Y-96608630D02*
X257616185Y-96513392D01*
X257616185Y-96513392D02*
X257663804Y-96465773D01*
X257663804Y-96465773D02*
X257759042Y-96418154D01*
X257759042Y-96418154D02*
X257901899Y-96418154D01*
X257901899Y-96418154D02*
X257997137Y-96465773D01*
X257997137Y-96465773D02*
X258044756Y-96513392D01*
X258044756Y-96513392D02*
X258092375Y-96608630D01*
X258092375Y-96608630D02*
X258092375Y-96894344D01*
X258092375Y-96894344D02*
X258044756Y-96989582D01*
X258044756Y-96989582D02*
X257997137Y-97037202D01*
X257997137Y-97037202D02*
X257901899Y-97084821D01*
X257901899Y-97084821D02*
X257759042Y-97084821D01*
X258663804Y-97084821D02*
X258568566Y-97037202D01*
X258568566Y-97037202D02*
X258520947Y-96941963D01*
X258520947Y-96941963D02*
X258520947Y-96084821D01*
X259520947Y-96084821D02*
X259044757Y-96084821D01*
X259044757Y-96084821D02*
X258997138Y-96561011D01*
X258997138Y-96561011D02*
X259044757Y-96513392D01*
X259044757Y-96513392D02*
X259139995Y-96465773D01*
X259139995Y-96465773D02*
X259378090Y-96465773D01*
X259378090Y-96465773D02*
X259473328Y-96513392D01*
X259473328Y-96513392D02*
X259520947Y-96561011D01*
X259520947Y-96561011D02*
X259568566Y-96656249D01*
X259568566Y-96656249D02*
X259568566Y-96894344D01*
X259568566Y-96894344D02*
X259520947Y-96989582D01*
X259520947Y-96989582D02*
X259473328Y-97037202D01*
X259473328Y-97037202D02*
X259378090Y-97084821D01*
X259378090Y-97084821D02*
X259139995Y-97084821D01*
X259139995Y-97084821D02*
X259044757Y-97037202D01*
X259044757Y-97037202D02*
X258997138Y-96989582D01*
X249033328Y-79209582D02*
X248985709Y-79257202D01*
X248985709Y-79257202D02*
X248842852Y-79304821D01*
X248842852Y-79304821D02*
X248747614Y-79304821D01*
X248747614Y-79304821D02*
X248604757Y-79257202D01*
X248604757Y-79257202D02*
X248509519Y-79161963D01*
X248509519Y-79161963D02*
X248461900Y-79066725D01*
X248461900Y-79066725D02*
X248414281Y-78876249D01*
X248414281Y-78876249D02*
X248414281Y-78733392D01*
X248414281Y-78733392D02*
X248461900Y-78542916D01*
X248461900Y-78542916D02*
X248509519Y-78447678D01*
X248509519Y-78447678D02*
X248604757Y-78352440D01*
X248604757Y-78352440D02*
X248747614Y-78304821D01*
X248747614Y-78304821D02*
X248842852Y-78304821D01*
X248842852Y-78304821D02*
X248985709Y-78352440D01*
X248985709Y-78352440D02*
X249033328Y-78400059D01*
X249414281Y-79257202D02*
X249557138Y-79304821D01*
X249557138Y-79304821D02*
X249795233Y-79304821D01*
X249795233Y-79304821D02*
X249890471Y-79257202D01*
X249890471Y-79257202D02*
X249938090Y-79209582D01*
X249938090Y-79209582D02*
X249985709Y-79114344D01*
X249985709Y-79114344D02*
X249985709Y-79019106D01*
X249985709Y-79019106D02*
X249938090Y-78923868D01*
X249938090Y-78923868D02*
X249890471Y-78876249D01*
X249890471Y-78876249D02*
X249795233Y-78828630D01*
X249795233Y-78828630D02*
X249604757Y-78781011D01*
X249604757Y-78781011D02*
X249509519Y-78733392D01*
X249509519Y-78733392D02*
X249461900Y-78685773D01*
X249461900Y-78685773D02*
X249414281Y-78590535D01*
X249414281Y-78590535D02*
X249414281Y-78495297D01*
X249414281Y-78495297D02*
X249461900Y-78400059D01*
X249461900Y-78400059D02*
X249509519Y-78352440D01*
X249509519Y-78352440D02*
X249604757Y-78304821D01*
X249604757Y-78304821D02*
X249842852Y-78304821D01*
X249842852Y-78304821D02*
X249985709Y-78352440D01*
X259149571Y-114441546D02*
X259197191Y-114489165D01*
X259197191Y-114489165D02*
X259244810Y-114632022D01*
X259244810Y-114632022D02*
X259244810Y-114727260D01*
X259244810Y-114727260D02*
X259197191Y-114870117D01*
X259197191Y-114870117D02*
X259101952Y-114965355D01*
X259101952Y-114965355D02*
X259006714Y-115012974D01*
X259006714Y-115012974D02*
X258816238Y-115060593D01*
X258816238Y-115060593D02*
X258673381Y-115060593D01*
X258673381Y-115060593D02*
X258482905Y-115012974D01*
X258482905Y-115012974D02*
X258387667Y-114965355D01*
X258387667Y-114965355D02*
X258292429Y-114870117D01*
X258292429Y-114870117D02*
X258244810Y-114727260D01*
X258244810Y-114727260D02*
X258244810Y-114632022D01*
X258244810Y-114632022D02*
X258292429Y-114489165D01*
X258292429Y-114489165D02*
X258340048Y-114441546D01*
X259197191Y-114060593D02*
X259244810Y-113917736D01*
X259244810Y-113917736D02*
X259244810Y-113679641D01*
X259244810Y-113679641D02*
X259197191Y-113584403D01*
X259197191Y-113584403D02*
X259149571Y-113536784D01*
X259149571Y-113536784D02*
X259054333Y-113489165D01*
X259054333Y-113489165D02*
X258959095Y-113489165D01*
X258959095Y-113489165D02*
X258863857Y-113536784D01*
X258863857Y-113536784D02*
X258816238Y-113584403D01*
X258816238Y-113584403D02*
X258768619Y-113679641D01*
X258768619Y-113679641D02*
X258721000Y-113870117D01*
X258721000Y-113870117D02*
X258673381Y-113965355D01*
X258673381Y-113965355D02*
X258625762Y-114012974D01*
X258625762Y-114012974D02*
X258530524Y-114060593D01*
X258530524Y-114060593D02*
X258435286Y-114060593D01*
X258435286Y-114060593D02*
X258340048Y-114012974D01*
X258340048Y-114012974D02*
X258292429Y-113965355D01*
X258292429Y-113965355D02*
X258244810Y-113870117D01*
X258244810Y-113870117D02*
X258244810Y-113632022D01*
X258244810Y-113632022D02*
X258292429Y-113489165D01*
X253274810Y-116060593D02*
X254274810Y-115727260D01*
X254274810Y-115727260D02*
X253274810Y-115393927D01*
X254179571Y-114489165D02*
X254227191Y-114536784D01*
X254227191Y-114536784D02*
X254274810Y-114679641D01*
X254274810Y-114679641D02*
X254274810Y-114774879D01*
X254274810Y-114774879D02*
X254227191Y-114917736D01*
X254227191Y-114917736D02*
X254131952Y-115012974D01*
X254131952Y-115012974D02*
X254036714Y-115060593D01*
X254036714Y-115060593D02*
X253846238Y-115108212D01*
X253846238Y-115108212D02*
X253703381Y-115108212D01*
X253703381Y-115108212D02*
X253512905Y-115060593D01*
X253512905Y-115060593D02*
X253417667Y-115012974D01*
X253417667Y-115012974D02*
X253322429Y-114917736D01*
X253322429Y-114917736D02*
X253274810Y-114774879D01*
X253274810Y-114774879D02*
X253274810Y-114679641D01*
X253274810Y-114679641D02*
X253322429Y-114536784D01*
X253322429Y-114536784D02*
X253370048Y-114489165D01*
X254179571Y-113489165D02*
X254227191Y-113536784D01*
X254227191Y-113536784D02*
X254274810Y-113679641D01*
X254274810Y-113679641D02*
X254274810Y-113774879D01*
X254274810Y-113774879D02*
X254227191Y-113917736D01*
X254227191Y-113917736D02*
X254131952Y-114012974D01*
X254131952Y-114012974D02*
X254036714Y-114060593D01*
X254036714Y-114060593D02*
X253846238Y-114108212D01*
X253846238Y-114108212D02*
X253703381Y-114108212D01*
X253703381Y-114108212D02*
X253512905Y-114060593D01*
X253512905Y-114060593D02*
X253417667Y-114012974D01*
X253417667Y-114012974D02*
X253322429Y-113917736D01*
X253322429Y-113917736D02*
X253274810Y-113774879D01*
X253274810Y-113774879D02*
X253274810Y-113679641D01*
X253274810Y-113679641D02*
X253322429Y-113536784D01*
X253322429Y-113536784D02*
X253370048Y-113489165D01*
X255792429Y-115584403D02*
X255744810Y-115679641D01*
X255744810Y-115679641D02*
X255744810Y-115822498D01*
X255744810Y-115822498D02*
X255792429Y-115965355D01*
X255792429Y-115965355D02*
X255887667Y-116060593D01*
X255887667Y-116060593D02*
X255982905Y-116108212D01*
X255982905Y-116108212D02*
X256173381Y-116155831D01*
X256173381Y-116155831D02*
X256316238Y-116155831D01*
X256316238Y-116155831D02*
X256506714Y-116108212D01*
X256506714Y-116108212D02*
X256601952Y-116060593D01*
X256601952Y-116060593D02*
X256697191Y-115965355D01*
X256697191Y-115965355D02*
X256744810Y-115822498D01*
X256744810Y-115822498D02*
X256744810Y-115727260D01*
X256744810Y-115727260D02*
X256697191Y-115584403D01*
X256697191Y-115584403D02*
X256649571Y-115536784D01*
X256649571Y-115536784D02*
X256316238Y-115536784D01*
X256316238Y-115536784D02*
X256316238Y-115727260D01*
X256744810Y-115108212D02*
X255744810Y-115108212D01*
X255744810Y-115108212D02*
X256744810Y-114536784D01*
X256744810Y-114536784D02*
X255744810Y-114536784D01*
X256744810Y-114060593D02*
X255744810Y-114060593D01*
X255744810Y-114060593D02*
X255744810Y-113822498D01*
X255744810Y-113822498D02*
X255792429Y-113679641D01*
X255792429Y-113679641D02*
X255887667Y-113584403D01*
X255887667Y-113584403D02*
X255982905Y-113536784D01*
X255982905Y-113536784D02*
X256173381Y-113489165D01*
X256173381Y-113489165D02*
X256316238Y-113489165D01*
X256316238Y-113489165D02*
X256506714Y-113536784D01*
X256506714Y-113536784D02*
X256601952Y-113584403D01*
X256601952Y-113584403D02*
X256697191Y-113679641D01*
X256697191Y-113679641D02*
X256744810Y-113822498D01*
X256744810Y-113822498D02*
X256744810Y-114060593D01*
X249044814Y-116679640D02*
X248044814Y-116679640D01*
X248044814Y-116679640D02*
X248759099Y-116346307D01*
X248759099Y-116346307D02*
X248044814Y-116012974D01*
X248044814Y-116012974D02*
X249044814Y-116012974D01*
X248044814Y-115346307D02*
X248044814Y-115155831D01*
X248044814Y-115155831D02*
X248092433Y-115060593D01*
X248092433Y-115060593D02*
X248187671Y-114965355D01*
X248187671Y-114965355D02*
X248378147Y-114917736D01*
X248378147Y-114917736D02*
X248711480Y-114917736D01*
X248711480Y-114917736D02*
X248901956Y-114965355D01*
X248901956Y-114965355D02*
X248997195Y-115060593D01*
X248997195Y-115060593D02*
X249044814Y-115155831D01*
X249044814Y-115155831D02*
X249044814Y-115346307D01*
X249044814Y-115346307D02*
X248997195Y-115441545D01*
X248997195Y-115441545D02*
X248901956Y-115536783D01*
X248901956Y-115536783D02*
X248711480Y-115584402D01*
X248711480Y-115584402D02*
X248378147Y-115584402D01*
X248378147Y-115584402D02*
X248187671Y-115536783D01*
X248187671Y-115536783D02*
X248092433Y-115441545D01*
X248092433Y-115441545D02*
X248044814Y-115346307D01*
X248997195Y-114536783D02*
X249044814Y-114393926D01*
X249044814Y-114393926D02*
X249044814Y-114155831D01*
X249044814Y-114155831D02*
X248997195Y-114060593D01*
X248997195Y-114060593D02*
X248949575Y-114012974D01*
X248949575Y-114012974D02*
X248854337Y-113965355D01*
X248854337Y-113965355D02*
X248759099Y-113965355D01*
X248759099Y-113965355D02*
X248663861Y-114012974D01*
X248663861Y-114012974D02*
X248616242Y-114060593D01*
X248616242Y-114060593D02*
X248568623Y-114155831D01*
X248568623Y-114155831D02*
X248521004Y-114346307D01*
X248521004Y-114346307D02*
X248473385Y-114441545D01*
X248473385Y-114441545D02*
X248425766Y-114489164D01*
X248425766Y-114489164D02*
X248330528Y-114536783D01*
X248330528Y-114536783D02*
X248235290Y-114536783D01*
X248235290Y-114536783D02*
X248140052Y-114489164D01*
X248140052Y-114489164D02*
X248092433Y-114441545D01*
X248092433Y-114441545D02*
X248044814Y-114346307D01*
X248044814Y-114346307D02*
X248044814Y-114108212D01*
X248044814Y-114108212D02*
X248092433Y-113965355D01*
X249044814Y-113536783D02*
X248044814Y-113536783D01*
X251597191Y-115870117D02*
X251644810Y-115727260D01*
X251644810Y-115727260D02*
X251644810Y-115489165D01*
X251644810Y-115489165D02*
X251597191Y-115393927D01*
X251597191Y-115393927D02*
X251549571Y-115346308D01*
X251549571Y-115346308D02*
X251454333Y-115298689D01*
X251454333Y-115298689D02*
X251359095Y-115298689D01*
X251359095Y-115298689D02*
X251263857Y-115346308D01*
X251263857Y-115346308D02*
X251216238Y-115393927D01*
X251216238Y-115393927D02*
X251168619Y-115489165D01*
X251168619Y-115489165D02*
X251121000Y-115679641D01*
X251121000Y-115679641D02*
X251073381Y-115774879D01*
X251073381Y-115774879D02*
X251025762Y-115822498D01*
X251025762Y-115822498D02*
X250930524Y-115870117D01*
X250930524Y-115870117D02*
X250835286Y-115870117D01*
X250835286Y-115870117D02*
X250740048Y-115822498D01*
X250740048Y-115822498D02*
X250692429Y-115774879D01*
X250692429Y-115774879D02*
X250644810Y-115679641D01*
X250644810Y-115679641D02*
X250644810Y-115441546D01*
X250644810Y-115441546D02*
X250692429Y-115298689D01*
X251549571Y-114298689D02*
X251597191Y-114346308D01*
X251597191Y-114346308D02*
X251644810Y-114489165D01*
X251644810Y-114489165D02*
X251644810Y-114584403D01*
X251644810Y-114584403D02*
X251597191Y-114727260D01*
X251597191Y-114727260D02*
X251501952Y-114822498D01*
X251501952Y-114822498D02*
X251406714Y-114870117D01*
X251406714Y-114870117D02*
X251216238Y-114917736D01*
X251216238Y-114917736D02*
X251073381Y-114917736D01*
X251073381Y-114917736D02*
X250882905Y-114870117D01*
X250882905Y-114870117D02*
X250787667Y-114822498D01*
X250787667Y-114822498D02*
X250692429Y-114727260D01*
X250692429Y-114727260D02*
X250644810Y-114584403D01*
X250644810Y-114584403D02*
X250644810Y-114489165D01*
X250644810Y-114489165D02*
X250692429Y-114346308D01*
X250692429Y-114346308D02*
X250740048Y-114298689D01*
X251644810Y-113393927D02*
X251644810Y-113870117D01*
X251644810Y-113870117D02*
X250644810Y-113870117D01*
X242374809Y-77202384D02*
X242374809Y-77011908D01*
X242374809Y-77011908D02*
X242422428Y-76916670D01*
X242422428Y-76916670D02*
X242517666Y-76821432D01*
X242517666Y-76821432D02*
X242708142Y-76773813D01*
X242708142Y-76773813D02*
X243041475Y-76773813D01*
X243041475Y-76773813D02*
X243231951Y-76821432D01*
X243231951Y-76821432D02*
X243327190Y-76916670D01*
X243327190Y-76916670D02*
X243374809Y-77011908D01*
X243374809Y-77011908D02*
X243374809Y-77202384D01*
X243374809Y-77202384D02*
X243327190Y-77297622D01*
X243327190Y-77297622D02*
X243231951Y-77392860D01*
X243231951Y-77392860D02*
X243041475Y-77440479D01*
X243041475Y-77440479D02*
X242708142Y-77440479D01*
X242708142Y-77440479D02*
X242517666Y-77392860D01*
X242517666Y-77392860D02*
X242422428Y-77297622D01*
X242422428Y-77297622D02*
X242374809Y-77202384D01*
X242850999Y-76011908D02*
X242850999Y-76345241D01*
X243374809Y-76345241D02*
X242374809Y-76345241D01*
X242374809Y-76345241D02*
X242374809Y-75869051D01*
X242850999Y-75154765D02*
X242850999Y-75488098D01*
X243374809Y-75488098D02*
X242374809Y-75488098D01*
X242374809Y-75488098D02*
X242374809Y-75011908D01*
X232374809Y-76869051D02*
X232374809Y-76678575D01*
X232374809Y-76678575D02*
X232422428Y-76583337D01*
X232422428Y-76583337D02*
X232517666Y-76488099D01*
X232517666Y-76488099D02*
X232708142Y-76440480D01*
X232708142Y-76440480D02*
X233041475Y-76440480D01*
X233041475Y-76440480D02*
X233231951Y-76488099D01*
X233231951Y-76488099D02*
X233327190Y-76583337D01*
X233327190Y-76583337D02*
X233374809Y-76678575D01*
X233374809Y-76678575D02*
X233374809Y-76869051D01*
X233374809Y-76869051D02*
X233327190Y-76964289D01*
X233327190Y-76964289D02*
X233231951Y-77059527D01*
X233231951Y-77059527D02*
X233041475Y-77107146D01*
X233041475Y-77107146D02*
X232708142Y-77107146D01*
X232708142Y-77107146D02*
X232517666Y-77059527D01*
X232517666Y-77059527D02*
X232422428Y-76964289D01*
X232422428Y-76964289D02*
X232374809Y-76869051D01*
X233374809Y-76011908D02*
X232374809Y-76011908D01*
X232374809Y-76011908D02*
X233374809Y-75440480D01*
X233374809Y-75440480D02*
X232374809Y-75440480D01*
D13*
%TO.C,RST1*%
X222569994Y-75000003D02*
X222569994Y-74750001D01*
X222569994Y-78000003D02*
X222569994Y-78250004D01*
X222819994Y-74750003D02*
X222569994Y-74750001D01*
X222819994Y-78250003D02*
X222569994Y-78250004D01*
X227019994Y-74750003D02*
X227269994Y-74750002D01*
X227019994Y-78250003D02*
X227269994Y-78250005D01*
X227269994Y-75000003D02*
X227269994Y-74750002D01*
X227269994Y-78000003D02*
X227269994Y-78250005D01*
D14*
%TO.C,MCU1*%
X244719995Y-77520002D02*
X244719999Y-108120002D01*
X244719995Y-77520002D02*
X247379995Y-77520002D01*
X244719999Y-108120002D02*
X247379994Y-108120005D01*
X247379995Y-77520002D02*
X247379994Y-108120005D01*
X247379995Y-80120002D02*
X244719995Y-80120002D01*
X259959995Y-77520002D02*
X259959995Y-108120003D01*
X259959995Y-77520002D02*
X262619995Y-77520002D01*
X259959995Y-108120003D02*
X262619988Y-108120002D01*
X262619995Y-77520002D02*
X262619988Y-108120002D01*
%TO.C,DISP1*%
X247259992Y-110070005D02*
X247259991Y-112730005D01*
X260079991Y-110070005D02*
X247259992Y-110070005D01*
X260079991Y-110070005D02*
X260079991Y-112730005D01*
X260079991Y-112730005D02*
X247259991Y-112730005D01*
%TO.C,PWR1*%
X234469990Y-75835004D02*
X234469990Y-76625004D01*
X236519990Y-77675004D02*
X236319990Y-77675004D01*
X239519990Y-77675004D02*
X237819990Y-77675004D01*
X240769990Y-74825004D02*
X235069990Y-74825004D01*
X241369990Y-76625004D02*
X241369990Y-75835004D01*
%TD*%
M02*
