%TF.GenerationSoftware,KiCad,Pcbnew,9.0.0*%
%TF.CreationDate,2025-04-09T21:02:47+02:00*%
%TF.ProjectId,left,6c656674-2e6b-4696-9361-645f70636258,1*%
%TF.SameCoordinates,Original*%
%TF.FileFunction,Drillmap*%
%TF.FilePolarity,Positive*%
%FSLAX45Y45*%
G04 Gerber Fmt 4.5, Leading zero omitted, Abs format (unit mm)*
G04 Created by KiCad (PCBNEW 9.0.0) date 2025-04-09 21:02:47*
%MOMM*%
%LPD*%
G01*
G04 APERTURE LIST*
%ADD10C,0.150000*%
%ADD11C,0.200000*%
%ADD12C,0.100000*%
%ADD13C,0.320000*%
G04 APERTURE END LIST*
D10*
X26766818Y-14059322D02*
X27877222Y-14792705D01*
X13820792Y-10585157D02*
G75*
G02*
X13641990Y-10794901I-199702J-10843D01*
G01*
X24852722Y-19234180D02*
X23127957Y-18539483D01*
X16035545Y-8206420D02*
G75*
G02*
X15846014Y-8407053I-199995J-910D01*
G01*
X26250609Y-20649368D02*
X24921495Y-19280381D01*
X23053234Y-18525000D02*
X20981575Y-18525001D01*
X26479574Y-7432850D02*
G75*
G02*
X26679420Y-7632926I-154J-200000D01*
G01*
X16035544Y-8206420D02*
X16032912Y-7626059D01*
X16032912Y-7626059D02*
G75*
G02*
X16233059Y-7425160I199988J909D01*
G01*
X27967000Y-19137158D02*
G75*
G02*
X27908420Y-19278579I-199990J-3D01*
G01*
X27908420Y-19278579D02*
X26535526Y-20651474D01*
X17022438Y-16235943D02*
G75*
G02*
X17170859Y-16170004I148412J-134047D01*
G01*
X15972378Y-17299859D02*
X12436888Y-17295505D01*
X12436888Y-17295505D02*
G75*
G02*
X12238221Y-17116411I242J200005D01*
G01*
X16233059Y-7425151D02*
X26479574Y-7432850D01*
X23053234Y-18525000D02*
G75*
G02*
X23127957Y-18539483I-4J-200020D01*
G01*
X20577424Y-16170000D02*
G75*
G02*
X20777420Y-16369575I-4J-200000D01*
G01*
X17022438Y-16235943D02*
X16121045Y-17233916D01*
X20577424Y-16170000D02*
X17170859Y-16170000D01*
X27966999Y-14959591D02*
X27967000Y-19137158D01*
X13908706Y-8508583D02*
X15846014Y-8407053D01*
X12238230Y-17116410D02*
X11617316Y-11208809D01*
X11617316Y-11208809D02*
G75*
G02*
X11795316Y-10989005I198894J20909D01*
G01*
X26766818Y-14059322D02*
G75*
G02*
X26677040Y-13892360I110232J166892D01*
G01*
X16121045Y-17233916D02*
G75*
G02*
X15972378Y-17299855I-148415J134056D01*
G01*
X13719468Y-8719153D02*
G75*
G02*
X13908706Y-8508578I199712J10843D01*
G01*
X27877222Y-14792705D02*
G75*
G02*
X27966999Y-14959591I-110222J-166885D01*
G01*
X20981575Y-18525001D02*
G75*
G02*
X20781580Y-18325425I-5J199991D01*
G01*
X24852722Y-19234180D02*
G75*
G02*
X24921495Y-19280381I-74712J-185500D01*
G01*
X26679423Y-7632926D02*
X26677041Y-13892360D01*
X26535526Y-20651474D02*
G75*
G02*
X26250604Y-20649373I-141426J141414D01*
G01*
X13820792Y-10585157D02*
X13719468Y-8719153D01*
X11795315Y-10988998D02*
X13641991Y-10794905D01*
X20781576Y-18325425D02*
X20777423Y-16369575D01*
D11*
D12*
X23551406Y-7944494D02*
X23581406Y-7974494D01*
X23581406Y-7944494D02*
X23551406Y-7974494D01*
X23632072Y-13804494D02*
X23662072Y-13834494D01*
X23662072Y-13804494D02*
X23632072Y-13834494D01*
X23697172Y-15714394D02*
X23727172Y-15744394D01*
X23727172Y-15714394D02*
X23697172Y-15744394D01*
X24151406Y-14112433D02*
X24181406Y-14142433D01*
X24181406Y-14112433D02*
X24151406Y-14142433D01*
X25285000Y-9160000D02*
X25315000Y-9190000D01*
X25315000Y-9160000D02*
X25285000Y-9190000D01*
X25385000Y-9060000D02*
X25415000Y-9090000D01*
X25415000Y-9060000D02*
X25385000Y-9090000D01*
X25485000Y-8960000D02*
X25515000Y-8990000D01*
X25515000Y-8960000D02*
X25485000Y-8990000D01*
X25485000Y-9310000D02*
X25515000Y-9340000D01*
X25515000Y-9310000D02*
X25485000Y-9340000D01*
X25485000Y-9460000D02*
X25515000Y-9490000D01*
X25515000Y-9460000D02*
X25485000Y-9490000D01*
X25585000Y-9210000D02*
X25615000Y-9240000D01*
X25615000Y-9210000D02*
X25585000Y-9240000D01*
X27298839Y-16965000D02*
X27328839Y-16995000D01*
X27328839Y-16965000D02*
X27298839Y-16995000D01*
X26376999Y-15530000D02*
G75*
G02*
X26326999Y-15530000I-25000J0D01*
G01*
X26326999Y-15530000D02*
G75*
G02*
X26376999Y-15530000I25000J0D01*
G01*
X26376999Y-15505000D02*
X26326999Y-15505000D01*
X26326999Y-15555000D02*
G75*
G02*
X26326999Y-15505000I0J25000D01*
G01*
X26326999Y-15555000D02*
X26376999Y-15555000D01*
X26376999Y-15555000D02*
G75*
G03*
X26376999Y-15505000I0J25000D01*
G01*
X26376999Y-16980000D02*
G75*
G02*
X26326999Y-16980000I-25000J0D01*
G01*
X26326999Y-16980000D02*
G75*
G02*
X26376999Y-16980000I25000J0D01*
G01*
X26376999Y-16955000D02*
X26326999Y-16955000D01*
X26326999Y-17005000D02*
G75*
G02*
X26326999Y-16955000I0J25000D01*
G01*
X26326999Y-17005000D02*
X26376999Y-17005000D01*
X26376999Y-17005000D02*
G75*
G03*
X26376999Y-16955000I0J25000D01*
G01*
X26626999Y-15530000D02*
G75*
G02*
X26576999Y-15530000I-25000J0D01*
G01*
X26576999Y-15530000D02*
G75*
G02*
X26626999Y-15530000I25000J0D01*
G01*
X26626999Y-15505000D02*
X26576999Y-15505000D01*
X26576999Y-15555000D02*
G75*
G02*
X26576999Y-15505000I0J25000D01*
G01*
X26576999Y-15555000D02*
X26626999Y-15555000D01*
X26626999Y-15555000D02*
G75*
G03*
X26626999Y-15505000I0J25000D01*
G01*
X26876999Y-15530000D02*
G75*
G02*
X26826999Y-15530000I-25000J0D01*
G01*
X26826999Y-15530000D02*
G75*
G02*
X26876999Y-15530000I25000J0D01*
G01*
X26876999Y-15505000D02*
X26826999Y-15505000D01*
X26826999Y-15555000D02*
G75*
G02*
X26826999Y-15505000I0J25000D01*
G01*
X26826999Y-15555000D02*
X26876999Y-15555000D01*
X26876999Y-15555000D02*
G75*
G03*
X26876999Y-15505000I0J25000D01*
G01*
X26876999Y-16980000D02*
G75*
G02*
X26826999Y-16980000I-25000J0D01*
G01*
X26826999Y-16980000D02*
G75*
G02*
X26876999Y-16980000I25000J0D01*
G01*
X26876999Y-16955000D02*
X26826999Y-16955000D01*
X26826999Y-17005000D02*
G75*
G02*
X26826999Y-16955000I0J25000D01*
G01*
X26826999Y-17005000D02*
X26876999Y-17005000D01*
X26876999Y-17005000D02*
G75*
G03*
X26876999Y-16955000I0J25000D01*
G01*
X24166999Y-12767500D02*
X24166999Y-12842500D01*
X24129499Y-12805000D02*
X24204499Y-12805000D01*
X24166999Y-12567500D02*
X24166999Y-12642500D01*
X24129499Y-12605000D02*
X24204499Y-12605000D01*
X12689589Y-12703406D02*
X12689589Y-12633359D01*
X12619542Y-12633359D01*
X12619542Y-12703406D01*
X12689589Y-12703406D01*
X12888193Y-14592997D02*
X12888193Y-14522951D01*
X12818146Y-14522951D01*
X12818146Y-14592997D01*
X12888193Y-14592997D01*
X13086797Y-16482589D02*
X13086797Y-16412542D01*
X13016751Y-16412542D01*
X13016751Y-16482589D01*
X13086797Y-16482589D01*
X13447414Y-12623755D02*
X13447414Y-12553709D01*
X13377367Y-12553709D01*
X13377367Y-12623755D01*
X13447414Y-12623755D01*
X13646018Y-14513347D02*
X13646018Y-14443300D01*
X13575972Y-14443300D01*
X13575972Y-14513347D01*
X13646018Y-14513347D01*
X13844623Y-16402938D02*
X13844623Y-16332892D01*
X13774576Y-16332892D01*
X13774576Y-16402938D01*
X13844623Y-16402938D01*
X14713533Y-10265678D02*
X14713533Y-10195631D01*
X14643487Y-10195631D01*
X14643487Y-10265678D01*
X14713533Y-10265678D01*
X14812972Y-12163074D02*
X14812972Y-12093027D01*
X14742926Y-12093027D01*
X14742926Y-12163074D01*
X14812972Y-12163074D01*
X14912410Y-14060470D02*
X14912410Y-13990423D01*
X14842364Y-13990423D01*
X14842364Y-14060470D01*
X14912410Y-14060470D01*
X15011849Y-15957866D02*
X15011849Y-15887820D01*
X14941802Y-15887820D01*
X14941802Y-15957866D01*
X15011849Y-15957866D01*
X15474489Y-10225798D02*
X15474489Y-10155751D01*
X15404442Y-10155751D01*
X15404442Y-10225798D01*
X15474489Y-10225798D01*
X15573928Y-12123194D02*
X15573928Y-12053147D01*
X15503881Y-12053147D01*
X15503881Y-12123194D01*
X15573928Y-12123194D01*
X15673366Y-14020590D02*
X15673366Y-13950543D01*
X15603319Y-13950543D01*
X15603319Y-14020590D01*
X15673366Y-14020590D01*
X15772804Y-15917986D02*
X15772804Y-15847940D01*
X15702758Y-15847940D01*
X15702758Y-15917986D01*
X15772804Y-15917986D01*
X16946022Y-15235023D02*
X16946022Y-15164977D01*
X16875976Y-15164977D01*
X16875976Y-15235023D01*
X16946022Y-15235023D01*
X16946022Y-9535024D02*
X16946022Y-9464977D01*
X16875976Y-9464977D01*
X16875976Y-9535024D01*
X16946022Y-9535024D01*
X16946023Y-11435024D02*
X16946023Y-11364977D01*
X16875976Y-11364977D01*
X16875976Y-11435024D01*
X16946023Y-11435024D01*
X16946023Y-13335024D02*
X16946023Y-13264977D01*
X16875977Y-13264977D01*
X16875977Y-13335024D01*
X16946023Y-13335024D01*
X17708022Y-15235023D02*
X17708022Y-15164977D01*
X17637976Y-15164977D01*
X17637976Y-15235023D01*
X17708022Y-15235023D01*
X17708022Y-9535024D02*
X17708022Y-9464977D01*
X17637976Y-9464977D01*
X17637976Y-9535024D01*
X17708022Y-9535024D01*
X17708023Y-11435024D02*
X17708023Y-11364977D01*
X17637976Y-11364977D01*
X17637976Y-11435024D01*
X17708023Y-11435024D01*
X17708023Y-13335024D02*
X17708023Y-13264977D01*
X17637977Y-13264977D01*
X17637977Y-13335024D01*
X17708023Y-13335024D01*
X18846022Y-9235024D02*
X18846022Y-9164978D01*
X18775976Y-9164978D01*
X18775976Y-9235024D01*
X18846022Y-9235024D01*
X18846023Y-11135024D02*
X18846023Y-11064977D01*
X18775976Y-11064977D01*
X18775976Y-11135024D01*
X18846023Y-11135024D01*
X18846023Y-14935023D02*
X18846023Y-14864977D01*
X18775976Y-14864977D01*
X18775976Y-14935023D01*
X18846023Y-14935023D01*
X18846023Y-13035023D02*
X18846023Y-12964976D01*
X18775976Y-12964976D01*
X18775976Y-13035023D01*
X18846023Y-13035023D01*
X19608022Y-9235024D02*
X19608022Y-9164978D01*
X19537976Y-9164978D01*
X19537976Y-9235024D01*
X19608022Y-9235024D01*
X19608023Y-11135024D02*
X19608023Y-11064977D01*
X19537976Y-11064977D01*
X19537976Y-11135024D01*
X19608023Y-11135024D01*
X19608023Y-14935023D02*
X19608023Y-14864977D01*
X19537976Y-14864977D01*
X19537976Y-14935023D01*
X19608023Y-14935023D01*
X19608023Y-13035023D02*
X19608023Y-12964976D01*
X19537976Y-12964976D01*
X19537976Y-13035023D01*
X19608023Y-13035023D01*
X20746022Y-15235024D02*
X20746022Y-15164977D01*
X20675976Y-15164977D01*
X20675976Y-15235024D01*
X20746022Y-15235024D01*
X20746023Y-13335023D02*
X20746023Y-13264976D01*
X20675976Y-13264976D01*
X20675976Y-13335023D01*
X20746023Y-13335023D01*
X20746023Y-9535024D02*
X20746023Y-9464978D01*
X20675976Y-9464978D01*
X20675976Y-9535024D01*
X20746023Y-9535024D01*
X20746023Y-11435023D02*
X20746023Y-11364977D01*
X20675976Y-11364977D01*
X20675976Y-11435023D01*
X20746023Y-11435023D01*
X21508022Y-15235024D02*
X21508022Y-15164977D01*
X21437976Y-15164977D01*
X21437976Y-15235024D01*
X21508022Y-15235024D01*
X21508023Y-13335023D02*
X21508023Y-13264976D01*
X21437976Y-13264976D01*
X21437976Y-13335023D01*
X21508023Y-13335023D01*
X21508023Y-9535024D02*
X21508023Y-9464978D01*
X21437976Y-9464978D01*
X21437976Y-9535024D01*
X21508023Y-9535024D01*
X21508023Y-11435023D02*
X21508023Y-11364977D01*
X21437976Y-11364977D01*
X21437976Y-11435023D01*
X21508023Y-11435023D01*
X21696022Y-17800023D02*
X21696022Y-17729977D01*
X21625976Y-17729977D01*
X21625976Y-17800023D01*
X21696022Y-17800023D01*
X22458022Y-17800023D02*
X22458022Y-17729977D01*
X22387976Y-17729977D01*
X22387976Y-17800023D01*
X22458022Y-17800023D01*
X22646022Y-15535024D02*
X22646022Y-15464977D01*
X22575976Y-15464977D01*
X22575976Y-15535024D01*
X22646022Y-15535024D01*
X22646022Y-11735023D02*
X22646022Y-11664977D01*
X22575976Y-11664977D01*
X22575976Y-11735023D01*
X22646022Y-11735023D01*
X22646022Y-13635023D02*
X22646022Y-13564977D01*
X22575976Y-13564977D01*
X22575976Y-13635023D01*
X22646022Y-13635023D01*
X22646023Y-9835024D02*
X22646023Y-9764977D01*
X22575976Y-9764977D01*
X22575976Y-9835024D01*
X22646023Y-9835024D01*
X23408022Y-15535024D02*
X23408022Y-15464977D01*
X23337976Y-15464977D01*
X23337976Y-15535024D01*
X23408022Y-15535024D01*
X23408022Y-11735023D02*
X23408022Y-11664977D01*
X23337976Y-11664977D01*
X23337976Y-11735023D01*
X23408022Y-11735023D01*
X23408022Y-13635023D02*
X23408022Y-13564977D01*
X23337976Y-13564977D01*
X23337976Y-13635023D01*
X23408022Y-13635023D01*
X23408023Y-9835024D02*
X23408023Y-9764977D01*
X23337976Y-9764977D01*
X23337976Y-9835024D01*
X23408023Y-9835024D01*
X23905945Y-18061408D02*
X23905945Y-17991361D01*
X23835898Y-17991361D01*
X23835898Y-18061408D01*
X23905945Y-18061408D01*
X24546022Y-14535023D02*
X24546022Y-14464976D01*
X24475976Y-14464976D01*
X24475976Y-14535023D01*
X24546022Y-14535023D01*
X24607369Y-18359145D02*
X24607369Y-18289099D01*
X24537323Y-18289099D01*
X24537323Y-18359145D01*
X24607369Y-18359145D01*
X25308022Y-14535023D02*
X25308022Y-14464976D01*
X25237976Y-14464976D01*
X25237976Y-14535023D01*
X25308022Y-14535023D01*
X25838058Y-19165497D02*
X25838058Y-19095451D01*
X25768011Y-19095451D01*
X25768011Y-19165497D01*
X25838058Y-19165497D01*
X26256022Y-17315024D02*
X26256022Y-17244977D01*
X26185976Y-17244977D01*
X26185976Y-17315024D01*
X26256022Y-17315024D01*
X26367388Y-19713634D02*
X26367388Y-19643588D01*
X26297341Y-19643588D01*
X26297341Y-19713634D01*
X26367388Y-19713634D01*
X27018022Y-17315024D02*
X27018022Y-17244977D01*
X26947976Y-17244977D01*
X26947976Y-17315024D01*
X27018022Y-17315024D01*
X24604999Y-7935000D02*
X24654999Y-7885000D01*
X24604999Y-7835000D01*
X24554999Y-7885000D01*
X24604999Y-7935000D01*
X24604999Y-8189000D02*
X24654999Y-8139000D01*
X24604999Y-8089000D01*
X24554999Y-8139000D01*
X24604999Y-8189000D01*
X24604999Y-8443000D02*
X24654999Y-8393000D01*
X24604999Y-8343000D01*
X24554999Y-8393000D01*
X24604999Y-8443000D01*
X24604999Y-8951000D02*
X24654999Y-8901000D01*
X24604999Y-8851000D01*
X24554999Y-8901000D01*
X24604999Y-8951000D01*
X24604999Y-9205000D02*
X24654999Y-9155000D01*
X24604999Y-9105000D01*
X24554999Y-9155000D01*
X24604999Y-9205000D01*
X24604999Y-9459000D02*
X24654999Y-9409000D01*
X24604999Y-9359000D01*
X24554999Y-9409000D01*
X24604999Y-9459000D01*
X24604999Y-9967000D02*
X24654999Y-9917000D01*
X24604999Y-9867000D01*
X24554999Y-9917000D01*
X24604999Y-9967000D01*
X24604999Y-10221000D02*
X24654999Y-10171000D01*
X24604999Y-10121000D01*
X24554999Y-10171000D01*
X24604999Y-10221000D01*
X24604999Y-10475000D02*
X24654999Y-10425000D01*
X24604999Y-10375000D01*
X24554999Y-10425000D01*
X24604999Y-10475000D01*
X24605000Y-8697000D02*
X24655000Y-8647000D01*
X24605000Y-8597000D01*
X24555000Y-8647000D01*
X24605000Y-8697000D01*
X24605000Y-10729000D02*
X24655000Y-10679000D01*
X24605000Y-10629000D01*
X24555000Y-10679000D01*
X24605000Y-10729000D01*
X24605000Y-9713000D02*
X24655000Y-9663000D01*
X24605000Y-9613000D01*
X24555000Y-9663000D01*
X24605000Y-9713000D01*
X24858999Y-11190000D02*
X24908999Y-11140001D01*
X24858999Y-11090001D01*
X24808999Y-11140001D01*
X24858999Y-11190000D01*
X25112999Y-11190000D02*
X25162999Y-11140001D01*
X25112999Y-11090001D01*
X25062999Y-11140001D01*
X25112999Y-11190000D01*
X25366999Y-11190000D02*
X25416999Y-11140001D01*
X25366999Y-11090001D01*
X25316999Y-11140001D01*
X25366999Y-11190000D01*
X25620999Y-11190000D02*
X25670999Y-11140001D01*
X25620999Y-11090001D01*
X25570999Y-11140001D01*
X25620999Y-11190000D01*
X25874999Y-11190000D02*
X25924999Y-11140001D01*
X25874999Y-11090001D01*
X25824999Y-11140001D01*
X25874999Y-11190000D01*
X26128999Y-8697000D02*
X26178999Y-8647000D01*
X26128999Y-8597000D01*
X26078999Y-8647000D01*
X26128999Y-8697000D01*
X26128999Y-9713000D02*
X26178999Y-9663000D01*
X26128999Y-9613000D01*
X26078999Y-9663000D01*
X26128999Y-9713000D01*
X26128999Y-7935000D02*
X26178999Y-7885000D01*
X26128999Y-7835000D01*
X26078999Y-7885000D01*
X26128999Y-7935000D01*
X26128999Y-8189000D02*
X26178999Y-8139000D01*
X26128999Y-8089000D01*
X26078999Y-8139000D01*
X26128999Y-8189000D01*
X26128999Y-8443000D02*
X26178999Y-8393000D01*
X26128999Y-8343000D01*
X26078999Y-8393000D01*
X26128999Y-8443000D01*
X26128999Y-8951000D02*
X26178999Y-8901000D01*
X26128999Y-8851000D01*
X26078999Y-8901000D01*
X26128999Y-8951000D01*
X26128999Y-9205000D02*
X26178999Y-9155000D01*
X26128999Y-9105000D01*
X26078999Y-9155000D01*
X26128999Y-9205000D01*
X26128999Y-9459000D02*
X26178999Y-9409000D01*
X26128999Y-9359000D01*
X26078999Y-9409000D01*
X26128999Y-9459000D01*
X26128999Y-9967000D02*
X26178999Y-9917000D01*
X26128999Y-9867000D01*
X26078999Y-9917000D01*
X26128999Y-9967000D01*
X26128999Y-10221000D02*
X26178999Y-10171000D01*
X26128999Y-10121000D01*
X26078999Y-10171000D01*
X26128999Y-10221000D01*
X26128999Y-10475000D02*
X26178999Y-10425000D01*
X26128999Y-10375000D01*
X26078999Y-10425000D01*
X26128999Y-10475000D01*
X26128999Y-10729000D02*
X26178999Y-10679000D01*
X26128999Y-10629000D01*
X26078999Y-10679000D01*
X26128999Y-10729000D01*
D10*
X25966999Y-16205000D02*
X26116999Y-16355000D01*
X26116999Y-16205000D02*
X25966999Y-16355000D01*
X26116999Y-16280000D02*
G75*
G02*
X25966999Y-16280000I-75000J0D01*
G01*
X25966999Y-16280000D02*
G75*
G02*
X26116999Y-16280000I75000J0D01*
G01*
D12*
X26116999Y-16320000D02*
X26116999Y-16240000D01*
X25966999Y-16240000D02*
G75*
G02*
X26116999Y-16240000I75000J0D01*
G01*
X25966999Y-16240000D02*
X25966999Y-16320000D01*
X25966999Y-16320000D02*
G75*
G03*
X26116999Y-16320000I75000J0D01*
G01*
D10*
X27086999Y-16205000D02*
X27236999Y-16355000D01*
X27236999Y-16205000D02*
X27086999Y-16355000D01*
X27236999Y-16280000D02*
G75*
G02*
X27086999Y-16280000I-75000J0D01*
G01*
X27086999Y-16280000D02*
G75*
G02*
X27236999Y-16280000I75000J0D01*
G01*
D12*
X27236999Y-16320000D02*
X27236999Y-16240000D01*
X27086999Y-16240000D02*
G75*
G02*
X27236999Y-16240000I75000J0D01*
G01*
X27086999Y-16240000D02*
X27086999Y-16320000D01*
X27086999Y-16320000D02*
G75*
G03*
X27236999Y-16320000I75000J0D01*
G01*
D13*
X16181999Y-13590000D02*
X16501999Y-13910000D01*
X16501999Y-13590000D02*
X16181999Y-13910000D01*
X16341999Y-13590000D02*
X16341999Y-13910000D01*
X16181999Y-13750000D02*
X16501999Y-13750000D01*
X16182000Y-9790000D02*
X16502000Y-10110000D01*
X16502000Y-9790000D02*
X16182000Y-10110000D01*
X16342000Y-9790000D02*
X16342000Y-10110000D01*
X16182000Y-9950000D02*
X16502000Y-9950000D01*
X21881999Y-13539999D02*
X22201999Y-13859999D01*
X22201999Y-13539999D02*
X21881999Y-13859999D01*
X22041999Y-13539999D02*
X22041999Y-13859999D01*
X21881999Y-13699999D02*
X22201999Y-13699999D01*
X21882000Y-9740000D02*
X22202000Y-10060000D01*
X22202000Y-9740000D02*
X21882000Y-10060000D01*
X22042000Y-9740000D02*
X22042000Y-10060000D01*
X21882000Y-9900000D02*
X22202000Y-9900000D01*
X27241999Y-17620000D02*
X27561999Y-17940000D01*
X27561999Y-17620000D02*
X27241999Y-17940000D01*
X27401999Y-17620000D02*
X27401999Y-17940000D01*
X27241999Y-17780000D02*
X27561999Y-17780000D01*
D11*
X11869497Y-21029042D02*
X11869497Y-20829042D01*
X11869497Y-20829042D02*
X11917116Y-20829042D01*
X11917116Y-20829042D02*
X11945688Y-20838566D01*
X11945688Y-20838566D02*
X11964735Y-20857613D01*
X11964735Y-20857613D02*
X11974259Y-20876661D01*
X11974259Y-20876661D02*
X11983783Y-20914756D01*
X11983783Y-20914756D02*
X11983783Y-20943328D01*
X11983783Y-20943328D02*
X11974259Y-20981423D01*
X11974259Y-20981423D02*
X11964735Y-21000470D01*
X11964735Y-21000470D02*
X11945688Y-21019518D01*
X11945688Y-21019518D02*
X11917116Y-21029042D01*
X11917116Y-21029042D02*
X11869497Y-21029042D01*
X12069497Y-21029042D02*
X12069497Y-20895709D01*
X12069497Y-20933804D02*
X12079021Y-20914756D01*
X12079021Y-20914756D02*
X12088545Y-20905232D01*
X12088545Y-20905232D02*
X12107592Y-20895709D01*
X12107592Y-20895709D02*
X12126640Y-20895709D01*
X12193307Y-21029042D02*
X12193307Y-20895709D01*
X12193307Y-20829042D02*
X12183783Y-20838566D01*
X12183783Y-20838566D02*
X12193307Y-20848090D01*
X12193307Y-20848090D02*
X12202831Y-20838566D01*
X12202831Y-20838566D02*
X12193307Y-20829042D01*
X12193307Y-20829042D02*
X12193307Y-20848090D01*
X12317116Y-21029042D02*
X12298069Y-21019518D01*
X12298069Y-21019518D02*
X12288545Y-21000470D01*
X12288545Y-21000470D02*
X12288545Y-20829042D01*
X12421878Y-21029042D02*
X12402831Y-21019518D01*
X12402831Y-21019518D02*
X12393307Y-21000470D01*
X12393307Y-21000470D02*
X12393307Y-20829042D01*
X12650450Y-21029042D02*
X12650450Y-20829042D01*
X12650450Y-20829042D02*
X12717116Y-20971899D01*
X12717116Y-20971899D02*
X12783783Y-20829042D01*
X12783783Y-20829042D02*
X12783783Y-21029042D01*
X12964735Y-21029042D02*
X12964735Y-20924280D01*
X12964735Y-20924280D02*
X12955212Y-20905232D01*
X12955212Y-20905232D02*
X12936164Y-20895709D01*
X12936164Y-20895709D02*
X12898069Y-20895709D01*
X12898069Y-20895709D02*
X12879021Y-20905232D01*
X12964735Y-21019518D02*
X12945688Y-21029042D01*
X12945688Y-21029042D02*
X12898069Y-21029042D01*
X12898069Y-21029042D02*
X12879021Y-21019518D01*
X12879021Y-21019518D02*
X12869497Y-21000470D01*
X12869497Y-21000470D02*
X12869497Y-20981423D01*
X12869497Y-20981423D02*
X12879021Y-20962375D01*
X12879021Y-20962375D02*
X12898069Y-20952851D01*
X12898069Y-20952851D02*
X12945688Y-20952851D01*
X12945688Y-20952851D02*
X12964735Y-20943328D01*
X13059973Y-20895709D02*
X13059973Y-21095709D01*
X13059973Y-20905232D02*
X13079021Y-20895709D01*
X13079021Y-20895709D02*
X13117116Y-20895709D01*
X13117116Y-20895709D02*
X13136164Y-20905232D01*
X13136164Y-20905232D02*
X13145688Y-20914756D01*
X13145688Y-20914756D02*
X13155212Y-20933804D01*
X13155212Y-20933804D02*
X13155212Y-20990947D01*
X13155212Y-20990947D02*
X13145688Y-21009994D01*
X13145688Y-21009994D02*
X13136164Y-21019518D01*
X13136164Y-21019518D02*
X13117116Y-21029042D01*
X13117116Y-21029042D02*
X13079021Y-21029042D01*
X13079021Y-21029042D02*
X13059973Y-21019518D01*
X13240926Y-21009994D02*
X13250450Y-21019518D01*
X13250450Y-21019518D02*
X13240926Y-21029042D01*
X13240926Y-21029042D02*
X13231402Y-21019518D01*
X13231402Y-21019518D02*
X13240926Y-21009994D01*
X13240926Y-21009994D02*
X13240926Y-21029042D01*
X13240926Y-20905232D02*
X13250450Y-20914756D01*
X13250450Y-20914756D02*
X13240926Y-20924280D01*
X13240926Y-20924280D02*
X13231402Y-20914756D01*
X13231402Y-20914756D02*
X13240926Y-20905232D01*
X13240926Y-20905232D02*
X13240926Y-20924280D01*
D12*
X11578720Y-21342558D02*
X11608720Y-21372558D01*
X11608720Y-21342558D02*
X11578720Y-21372558D01*
D11*
X11907592Y-21249042D02*
X11926640Y-21249042D01*
X11926640Y-21249042D02*
X11945688Y-21258566D01*
X11945688Y-21258566D02*
X11955212Y-21268090D01*
X11955212Y-21268090D02*
X11964735Y-21287137D01*
X11964735Y-21287137D02*
X11974259Y-21325232D01*
X11974259Y-21325232D02*
X11974259Y-21372851D01*
X11974259Y-21372851D02*
X11964735Y-21410947D01*
X11964735Y-21410947D02*
X11955212Y-21429994D01*
X11955212Y-21429994D02*
X11945688Y-21439518D01*
X11945688Y-21439518D02*
X11926640Y-21449042D01*
X11926640Y-21449042D02*
X11907592Y-21449042D01*
X11907592Y-21449042D02*
X11888545Y-21439518D01*
X11888545Y-21439518D02*
X11879021Y-21429994D01*
X11879021Y-21429994D02*
X11869497Y-21410947D01*
X11869497Y-21410947D02*
X11859973Y-21372851D01*
X11859973Y-21372851D02*
X11859973Y-21325232D01*
X11859973Y-21325232D02*
X11869497Y-21287137D01*
X11869497Y-21287137D02*
X11879021Y-21268090D01*
X11879021Y-21268090D02*
X11888545Y-21258566D01*
X11888545Y-21258566D02*
X11907592Y-21249042D01*
X12059973Y-21429994D02*
X12069497Y-21439518D01*
X12069497Y-21439518D02*
X12059973Y-21449042D01*
X12059973Y-21449042D02*
X12050450Y-21439518D01*
X12050450Y-21439518D02*
X12059973Y-21429994D01*
X12059973Y-21429994D02*
X12059973Y-21449042D01*
X12136164Y-21249042D02*
X12259973Y-21249042D01*
X12259973Y-21249042D02*
X12193307Y-21325232D01*
X12193307Y-21325232D02*
X12221878Y-21325232D01*
X12221878Y-21325232D02*
X12240926Y-21334756D01*
X12240926Y-21334756D02*
X12250450Y-21344280D01*
X12250450Y-21344280D02*
X12259973Y-21363328D01*
X12259973Y-21363328D02*
X12259973Y-21410947D01*
X12259973Y-21410947D02*
X12250450Y-21429994D01*
X12250450Y-21429994D02*
X12240926Y-21439518D01*
X12240926Y-21439518D02*
X12221878Y-21449042D01*
X12221878Y-21449042D02*
X12164735Y-21449042D01*
X12164735Y-21449042D02*
X12145688Y-21439518D01*
X12145688Y-21439518D02*
X12136164Y-21429994D01*
X12383783Y-21249042D02*
X12402831Y-21249042D01*
X12402831Y-21249042D02*
X12421878Y-21258566D01*
X12421878Y-21258566D02*
X12431402Y-21268090D01*
X12431402Y-21268090D02*
X12440926Y-21287137D01*
X12440926Y-21287137D02*
X12450450Y-21325232D01*
X12450450Y-21325232D02*
X12450450Y-21372851D01*
X12450450Y-21372851D02*
X12440926Y-21410947D01*
X12440926Y-21410947D02*
X12431402Y-21429994D01*
X12431402Y-21429994D02*
X12421878Y-21439518D01*
X12421878Y-21439518D02*
X12402831Y-21449042D01*
X12402831Y-21449042D02*
X12383783Y-21449042D01*
X12383783Y-21449042D02*
X12364735Y-21439518D01*
X12364735Y-21439518D02*
X12355212Y-21429994D01*
X12355212Y-21429994D02*
X12345688Y-21410947D01*
X12345688Y-21410947D02*
X12336164Y-21372851D01*
X12336164Y-21372851D02*
X12336164Y-21325232D01*
X12336164Y-21325232D02*
X12345688Y-21287137D01*
X12345688Y-21287137D02*
X12355212Y-21268090D01*
X12355212Y-21268090D02*
X12364735Y-21258566D01*
X12364735Y-21258566D02*
X12383783Y-21249042D01*
X12574259Y-21249042D02*
X12593307Y-21249042D01*
X12593307Y-21249042D02*
X12612354Y-21258566D01*
X12612354Y-21258566D02*
X12621878Y-21268090D01*
X12621878Y-21268090D02*
X12631402Y-21287137D01*
X12631402Y-21287137D02*
X12640926Y-21325232D01*
X12640926Y-21325232D02*
X12640926Y-21372851D01*
X12640926Y-21372851D02*
X12631402Y-21410947D01*
X12631402Y-21410947D02*
X12621878Y-21429994D01*
X12621878Y-21429994D02*
X12612354Y-21439518D01*
X12612354Y-21439518D02*
X12593307Y-21449042D01*
X12593307Y-21449042D02*
X12574259Y-21449042D01*
X12574259Y-21449042D02*
X12555212Y-21439518D01*
X12555212Y-21439518D02*
X12545688Y-21429994D01*
X12545688Y-21429994D02*
X12536164Y-21410947D01*
X12536164Y-21410947D02*
X12526640Y-21372851D01*
X12526640Y-21372851D02*
X12526640Y-21325232D01*
X12526640Y-21325232D02*
X12536164Y-21287137D01*
X12536164Y-21287137D02*
X12545688Y-21268090D01*
X12545688Y-21268090D02*
X12555212Y-21258566D01*
X12555212Y-21258566D02*
X12574259Y-21249042D01*
X12726640Y-21449042D02*
X12726640Y-21315709D01*
X12726640Y-21334756D02*
X12736164Y-21325232D01*
X12736164Y-21325232D02*
X12755212Y-21315709D01*
X12755212Y-21315709D02*
X12783783Y-21315709D01*
X12783783Y-21315709D02*
X12802831Y-21325232D01*
X12802831Y-21325232D02*
X12812354Y-21344280D01*
X12812354Y-21344280D02*
X12812354Y-21449042D01*
X12812354Y-21344280D02*
X12821878Y-21325232D01*
X12821878Y-21325232D02*
X12840926Y-21315709D01*
X12840926Y-21315709D02*
X12869497Y-21315709D01*
X12869497Y-21315709D02*
X12888545Y-21325232D01*
X12888545Y-21325232D02*
X12898069Y-21344280D01*
X12898069Y-21344280D02*
X12898069Y-21449042D01*
X12993307Y-21449042D02*
X12993307Y-21315709D01*
X12993307Y-21334756D02*
X13002831Y-21325232D01*
X13002831Y-21325232D02*
X13021878Y-21315709D01*
X13021878Y-21315709D02*
X13050450Y-21315709D01*
X13050450Y-21315709D02*
X13069497Y-21325232D01*
X13069497Y-21325232D02*
X13079021Y-21344280D01*
X13079021Y-21344280D02*
X13079021Y-21449042D01*
X13079021Y-21344280D02*
X13088545Y-21325232D01*
X13088545Y-21325232D02*
X13107593Y-21315709D01*
X13107593Y-21315709D02*
X13136164Y-21315709D01*
X13136164Y-21315709D02*
X13155212Y-21325232D01*
X13155212Y-21325232D02*
X13164735Y-21344280D01*
X13164735Y-21344280D02*
X13164735Y-21449042D01*
X13555212Y-21239518D02*
X13383783Y-21496661D01*
X13812355Y-21249042D02*
X13831402Y-21249042D01*
X13831402Y-21249042D02*
X13850450Y-21258566D01*
X13850450Y-21258566D02*
X13859974Y-21268090D01*
X13859974Y-21268090D02*
X13869497Y-21287137D01*
X13869497Y-21287137D02*
X13879021Y-21325232D01*
X13879021Y-21325232D02*
X13879021Y-21372851D01*
X13879021Y-21372851D02*
X13869497Y-21410947D01*
X13869497Y-21410947D02*
X13859974Y-21429994D01*
X13859974Y-21429994D02*
X13850450Y-21439518D01*
X13850450Y-21439518D02*
X13831402Y-21449042D01*
X13831402Y-21449042D02*
X13812355Y-21449042D01*
X13812355Y-21449042D02*
X13793307Y-21439518D01*
X13793307Y-21439518D02*
X13783783Y-21429994D01*
X13783783Y-21429994D02*
X13774259Y-21410947D01*
X13774259Y-21410947D02*
X13764736Y-21372851D01*
X13764736Y-21372851D02*
X13764736Y-21325232D01*
X13764736Y-21325232D02*
X13774259Y-21287137D01*
X13774259Y-21287137D02*
X13783783Y-21268090D01*
X13783783Y-21268090D02*
X13793307Y-21258566D01*
X13793307Y-21258566D02*
X13812355Y-21249042D01*
X13964736Y-21429994D02*
X13974259Y-21439518D01*
X13974259Y-21439518D02*
X13964736Y-21449042D01*
X13964736Y-21449042D02*
X13955212Y-21439518D01*
X13955212Y-21439518D02*
X13964736Y-21429994D01*
X13964736Y-21429994D02*
X13964736Y-21449042D01*
X14098069Y-21249042D02*
X14117117Y-21249042D01*
X14117117Y-21249042D02*
X14136164Y-21258566D01*
X14136164Y-21258566D02*
X14145688Y-21268090D01*
X14145688Y-21268090D02*
X14155212Y-21287137D01*
X14155212Y-21287137D02*
X14164736Y-21325232D01*
X14164736Y-21325232D02*
X14164736Y-21372851D01*
X14164736Y-21372851D02*
X14155212Y-21410947D01*
X14155212Y-21410947D02*
X14145688Y-21429994D01*
X14145688Y-21429994D02*
X14136164Y-21439518D01*
X14136164Y-21439518D02*
X14117117Y-21449042D01*
X14117117Y-21449042D02*
X14098069Y-21449042D01*
X14098069Y-21449042D02*
X14079021Y-21439518D01*
X14079021Y-21439518D02*
X14069497Y-21429994D01*
X14069497Y-21429994D02*
X14059974Y-21410947D01*
X14059974Y-21410947D02*
X14050450Y-21372851D01*
X14050450Y-21372851D02*
X14050450Y-21325232D01*
X14050450Y-21325232D02*
X14059974Y-21287137D01*
X14059974Y-21287137D02*
X14069497Y-21268090D01*
X14069497Y-21268090D02*
X14079021Y-21258566D01*
X14079021Y-21258566D02*
X14098069Y-21249042D01*
X14355212Y-21449042D02*
X14240926Y-21449042D01*
X14298069Y-21449042D02*
X14298069Y-21249042D01*
X14298069Y-21249042D02*
X14279021Y-21277613D01*
X14279021Y-21277613D02*
X14259974Y-21296661D01*
X14259974Y-21296661D02*
X14240926Y-21306185D01*
X14545688Y-21449042D02*
X14431402Y-21449042D01*
X14488545Y-21449042D02*
X14488545Y-21249042D01*
X14488545Y-21249042D02*
X14469497Y-21277613D01*
X14469497Y-21277613D02*
X14450450Y-21296661D01*
X14450450Y-21296661D02*
X14431402Y-21306185D01*
X14659974Y-21334756D02*
X14640926Y-21325232D01*
X14640926Y-21325232D02*
X14631402Y-21315709D01*
X14631402Y-21315709D02*
X14621878Y-21296661D01*
X14621878Y-21296661D02*
X14621878Y-21287137D01*
X14621878Y-21287137D02*
X14631402Y-21268090D01*
X14631402Y-21268090D02*
X14640926Y-21258566D01*
X14640926Y-21258566D02*
X14659974Y-21249042D01*
X14659974Y-21249042D02*
X14698069Y-21249042D01*
X14698069Y-21249042D02*
X14717117Y-21258566D01*
X14717117Y-21258566D02*
X14726640Y-21268090D01*
X14726640Y-21268090D02*
X14736164Y-21287137D01*
X14736164Y-21287137D02*
X14736164Y-21296661D01*
X14736164Y-21296661D02*
X14726640Y-21315709D01*
X14726640Y-21315709D02*
X14717117Y-21325232D01*
X14717117Y-21325232D02*
X14698069Y-21334756D01*
X14698069Y-21334756D02*
X14659974Y-21334756D01*
X14659974Y-21334756D02*
X14640926Y-21344280D01*
X14640926Y-21344280D02*
X14631402Y-21353804D01*
X14631402Y-21353804D02*
X14621878Y-21372851D01*
X14621878Y-21372851D02*
X14621878Y-21410947D01*
X14621878Y-21410947D02*
X14631402Y-21429994D01*
X14631402Y-21429994D02*
X14640926Y-21439518D01*
X14640926Y-21439518D02*
X14659974Y-21449042D01*
X14659974Y-21449042D02*
X14698069Y-21449042D01*
X14698069Y-21449042D02*
X14717117Y-21439518D01*
X14717117Y-21439518D02*
X14726640Y-21429994D01*
X14726640Y-21429994D02*
X14736164Y-21410947D01*
X14736164Y-21410947D02*
X14736164Y-21372851D01*
X14736164Y-21372851D02*
X14726640Y-21353804D01*
X14726640Y-21353804D02*
X14717117Y-21344280D01*
X14717117Y-21344280D02*
X14698069Y-21334756D01*
X14812355Y-21249042D02*
X14812355Y-21287137D01*
X14888545Y-21249042D02*
X14888545Y-21287137D01*
X15183783Y-21525232D02*
X15174259Y-21515709D01*
X15174259Y-21515709D02*
X15155212Y-21487137D01*
X15155212Y-21487137D02*
X15145688Y-21468090D01*
X15145688Y-21468090D02*
X15136164Y-21439518D01*
X15136164Y-21439518D02*
X15126640Y-21391899D01*
X15126640Y-21391899D02*
X15126640Y-21353804D01*
X15126640Y-21353804D02*
X15136164Y-21306185D01*
X15136164Y-21306185D02*
X15145688Y-21277613D01*
X15145688Y-21277613D02*
X15155212Y-21258566D01*
X15155212Y-21258566D02*
X15174259Y-21229994D01*
X15174259Y-21229994D02*
X15183783Y-21220470D01*
X15364736Y-21449042D02*
X15250450Y-21449042D01*
X15307593Y-21449042D02*
X15307593Y-21249042D01*
X15307593Y-21249042D02*
X15288545Y-21277613D01*
X15288545Y-21277613D02*
X15269498Y-21296661D01*
X15269498Y-21296661D02*
X15250450Y-21306185D01*
X15555212Y-21449042D02*
X15440926Y-21449042D01*
X15498069Y-21449042D02*
X15498069Y-21249042D01*
X15498069Y-21249042D02*
X15479021Y-21277613D01*
X15479021Y-21277613D02*
X15459974Y-21296661D01*
X15459974Y-21296661D02*
X15440926Y-21306185D01*
X15793307Y-21449042D02*
X15793307Y-21249042D01*
X15879021Y-21449042D02*
X15879021Y-21344280D01*
X15879021Y-21344280D02*
X15869498Y-21325232D01*
X15869498Y-21325232D02*
X15850450Y-21315709D01*
X15850450Y-21315709D02*
X15821879Y-21315709D01*
X15821879Y-21315709D02*
X15802831Y-21325232D01*
X15802831Y-21325232D02*
X15793307Y-21334756D01*
X16002831Y-21449042D02*
X15983783Y-21439518D01*
X15983783Y-21439518D02*
X15974260Y-21429994D01*
X15974260Y-21429994D02*
X15964736Y-21410947D01*
X15964736Y-21410947D02*
X15964736Y-21353804D01*
X15964736Y-21353804D02*
X15974260Y-21334756D01*
X15974260Y-21334756D02*
X15983783Y-21325232D01*
X15983783Y-21325232D02*
X16002831Y-21315709D01*
X16002831Y-21315709D02*
X16031402Y-21315709D01*
X16031402Y-21315709D02*
X16050450Y-21325232D01*
X16050450Y-21325232D02*
X16059974Y-21334756D01*
X16059974Y-21334756D02*
X16069498Y-21353804D01*
X16069498Y-21353804D02*
X16069498Y-21410947D01*
X16069498Y-21410947D02*
X16059974Y-21429994D01*
X16059974Y-21429994D02*
X16050450Y-21439518D01*
X16050450Y-21439518D02*
X16031402Y-21449042D01*
X16031402Y-21449042D02*
X16002831Y-21449042D01*
X16183783Y-21449042D02*
X16164736Y-21439518D01*
X16164736Y-21439518D02*
X16155212Y-21420470D01*
X16155212Y-21420470D02*
X16155212Y-21249042D01*
X16336164Y-21439518D02*
X16317117Y-21449042D01*
X16317117Y-21449042D02*
X16279021Y-21449042D01*
X16279021Y-21449042D02*
X16259974Y-21439518D01*
X16259974Y-21439518D02*
X16250450Y-21420470D01*
X16250450Y-21420470D02*
X16250450Y-21344280D01*
X16250450Y-21344280D02*
X16259974Y-21325232D01*
X16259974Y-21325232D02*
X16279021Y-21315709D01*
X16279021Y-21315709D02*
X16317117Y-21315709D01*
X16317117Y-21315709D02*
X16336164Y-21325232D01*
X16336164Y-21325232D02*
X16345688Y-21344280D01*
X16345688Y-21344280D02*
X16345688Y-21363328D01*
X16345688Y-21363328D02*
X16250450Y-21382375D01*
X16421879Y-21439518D02*
X16440926Y-21449042D01*
X16440926Y-21449042D02*
X16479021Y-21449042D01*
X16479021Y-21449042D02*
X16498069Y-21439518D01*
X16498069Y-21439518D02*
X16507593Y-21420470D01*
X16507593Y-21420470D02*
X16507593Y-21410947D01*
X16507593Y-21410947D02*
X16498069Y-21391899D01*
X16498069Y-21391899D02*
X16479021Y-21382375D01*
X16479021Y-21382375D02*
X16450450Y-21382375D01*
X16450450Y-21382375D02*
X16431402Y-21372851D01*
X16431402Y-21372851D02*
X16421879Y-21353804D01*
X16421879Y-21353804D02*
X16421879Y-21344280D01*
X16421879Y-21344280D02*
X16431402Y-21325232D01*
X16431402Y-21325232D02*
X16450450Y-21315709D01*
X16450450Y-21315709D02*
X16479021Y-21315709D01*
X16479021Y-21315709D02*
X16498069Y-21325232D01*
X16574260Y-21525232D02*
X16583783Y-21515709D01*
X16583783Y-21515709D02*
X16602831Y-21487137D01*
X16602831Y-21487137D02*
X16612355Y-21468090D01*
X16612355Y-21468090D02*
X16621879Y-21439518D01*
X16621879Y-21439518D02*
X16631402Y-21391899D01*
X16631402Y-21391899D02*
X16631402Y-21353804D01*
X16631402Y-21353804D02*
X16621879Y-21306185D01*
X16621879Y-21306185D02*
X16612355Y-21277613D01*
X16612355Y-21277613D02*
X16602831Y-21258566D01*
X16602831Y-21258566D02*
X16583783Y-21229994D01*
X16583783Y-21229994D02*
X16574260Y-21220470D01*
D12*
X11608720Y-21621558D02*
G75*
G02*
X11558720Y-21621558I-25000J0D01*
G01*
X11558720Y-21621558D02*
G75*
G02*
X11608720Y-21621558I25000J0D01*
G01*
D11*
X11907592Y-21513042D02*
X11926640Y-21513042D01*
X11926640Y-21513042D02*
X11945688Y-21522566D01*
X11945688Y-21522566D02*
X11955212Y-21532090D01*
X11955212Y-21532090D02*
X11964735Y-21551137D01*
X11964735Y-21551137D02*
X11974259Y-21589232D01*
X11974259Y-21589232D02*
X11974259Y-21636851D01*
X11974259Y-21636851D02*
X11964735Y-21674947D01*
X11964735Y-21674947D02*
X11955212Y-21693994D01*
X11955212Y-21693994D02*
X11945688Y-21703518D01*
X11945688Y-21703518D02*
X11926640Y-21713042D01*
X11926640Y-21713042D02*
X11907592Y-21713042D01*
X11907592Y-21713042D02*
X11888545Y-21703518D01*
X11888545Y-21703518D02*
X11879021Y-21693994D01*
X11879021Y-21693994D02*
X11869497Y-21674947D01*
X11869497Y-21674947D02*
X11859973Y-21636851D01*
X11859973Y-21636851D02*
X11859973Y-21589232D01*
X11859973Y-21589232D02*
X11869497Y-21551137D01*
X11869497Y-21551137D02*
X11879021Y-21532090D01*
X11879021Y-21532090D02*
X11888545Y-21522566D01*
X11888545Y-21522566D02*
X11907592Y-21513042D01*
X12059973Y-21693994D02*
X12069497Y-21703518D01*
X12069497Y-21703518D02*
X12059973Y-21713042D01*
X12059973Y-21713042D02*
X12050450Y-21703518D01*
X12050450Y-21703518D02*
X12059973Y-21693994D01*
X12059973Y-21693994D02*
X12059973Y-21713042D01*
X12250450Y-21513042D02*
X12155212Y-21513042D01*
X12155212Y-21513042D02*
X12145688Y-21608280D01*
X12145688Y-21608280D02*
X12155212Y-21598756D01*
X12155212Y-21598756D02*
X12174259Y-21589232D01*
X12174259Y-21589232D02*
X12221878Y-21589232D01*
X12221878Y-21589232D02*
X12240926Y-21598756D01*
X12240926Y-21598756D02*
X12250450Y-21608280D01*
X12250450Y-21608280D02*
X12259973Y-21627328D01*
X12259973Y-21627328D02*
X12259973Y-21674947D01*
X12259973Y-21674947D02*
X12250450Y-21693994D01*
X12250450Y-21693994D02*
X12240926Y-21703518D01*
X12240926Y-21703518D02*
X12221878Y-21713042D01*
X12221878Y-21713042D02*
X12174259Y-21713042D01*
X12174259Y-21713042D02*
X12155212Y-21703518D01*
X12155212Y-21703518D02*
X12145688Y-21693994D01*
X12383783Y-21513042D02*
X12402831Y-21513042D01*
X12402831Y-21513042D02*
X12421878Y-21522566D01*
X12421878Y-21522566D02*
X12431402Y-21532090D01*
X12431402Y-21532090D02*
X12440926Y-21551137D01*
X12440926Y-21551137D02*
X12450450Y-21589232D01*
X12450450Y-21589232D02*
X12450450Y-21636851D01*
X12450450Y-21636851D02*
X12440926Y-21674947D01*
X12440926Y-21674947D02*
X12431402Y-21693994D01*
X12431402Y-21693994D02*
X12421878Y-21703518D01*
X12421878Y-21703518D02*
X12402831Y-21713042D01*
X12402831Y-21713042D02*
X12383783Y-21713042D01*
X12383783Y-21713042D02*
X12364735Y-21703518D01*
X12364735Y-21703518D02*
X12355212Y-21693994D01*
X12355212Y-21693994D02*
X12345688Y-21674947D01*
X12345688Y-21674947D02*
X12336164Y-21636851D01*
X12336164Y-21636851D02*
X12336164Y-21589232D01*
X12336164Y-21589232D02*
X12345688Y-21551137D01*
X12345688Y-21551137D02*
X12355212Y-21532090D01*
X12355212Y-21532090D02*
X12364735Y-21522566D01*
X12364735Y-21522566D02*
X12383783Y-21513042D01*
X12574259Y-21513042D02*
X12593307Y-21513042D01*
X12593307Y-21513042D02*
X12612354Y-21522566D01*
X12612354Y-21522566D02*
X12621878Y-21532090D01*
X12621878Y-21532090D02*
X12631402Y-21551137D01*
X12631402Y-21551137D02*
X12640926Y-21589232D01*
X12640926Y-21589232D02*
X12640926Y-21636851D01*
X12640926Y-21636851D02*
X12631402Y-21674947D01*
X12631402Y-21674947D02*
X12621878Y-21693994D01*
X12621878Y-21693994D02*
X12612354Y-21703518D01*
X12612354Y-21703518D02*
X12593307Y-21713042D01*
X12593307Y-21713042D02*
X12574259Y-21713042D01*
X12574259Y-21713042D02*
X12555212Y-21703518D01*
X12555212Y-21703518D02*
X12545688Y-21693994D01*
X12545688Y-21693994D02*
X12536164Y-21674947D01*
X12536164Y-21674947D02*
X12526640Y-21636851D01*
X12526640Y-21636851D02*
X12526640Y-21589232D01*
X12526640Y-21589232D02*
X12536164Y-21551137D01*
X12536164Y-21551137D02*
X12545688Y-21532090D01*
X12545688Y-21532090D02*
X12555212Y-21522566D01*
X12555212Y-21522566D02*
X12574259Y-21513042D01*
X12726640Y-21713042D02*
X12726640Y-21579709D01*
X12726640Y-21598756D02*
X12736164Y-21589232D01*
X12736164Y-21589232D02*
X12755212Y-21579709D01*
X12755212Y-21579709D02*
X12783783Y-21579709D01*
X12783783Y-21579709D02*
X12802831Y-21589232D01*
X12802831Y-21589232D02*
X12812354Y-21608280D01*
X12812354Y-21608280D02*
X12812354Y-21713042D01*
X12812354Y-21608280D02*
X12821878Y-21589232D01*
X12821878Y-21589232D02*
X12840926Y-21579709D01*
X12840926Y-21579709D02*
X12869497Y-21579709D01*
X12869497Y-21579709D02*
X12888545Y-21589232D01*
X12888545Y-21589232D02*
X12898069Y-21608280D01*
X12898069Y-21608280D02*
X12898069Y-21713042D01*
X12993307Y-21713042D02*
X12993307Y-21579709D01*
X12993307Y-21598756D02*
X13002831Y-21589232D01*
X13002831Y-21589232D02*
X13021878Y-21579709D01*
X13021878Y-21579709D02*
X13050450Y-21579709D01*
X13050450Y-21579709D02*
X13069497Y-21589232D01*
X13069497Y-21589232D02*
X13079021Y-21608280D01*
X13079021Y-21608280D02*
X13079021Y-21713042D01*
X13079021Y-21608280D02*
X13088545Y-21589232D01*
X13088545Y-21589232D02*
X13107593Y-21579709D01*
X13107593Y-21579709D02*
X13136164Y-21579709D01*
X13136164Y-21579709D02*
X13155212Y-21589232D01*
X13155212Y-21589232D02*
X13164735Y-21608280D01*
X13164735Y-21608280D02*
X13164735Y-21713042D01*
X13555212Y-21503518D02*
X13383783Y-21760661D01*
X13812355Y-21513042D02*
X13831402Y-21513042D01*
X13831402Y-21513042D02*
X13850450Y-21522566D01*
X13850450Y-21522566D02*
X13859974Y-21532090D01*
X13859974Y-21532090D02*
X13869497Y-21551137D01*
X13869497Y-21551137D02*
X13879021Y-21589232D01*
X13879021Y-21589232D02*
X13879021Y-21636851D01*
X13879021Y-21636851D02*
X13869497Y-21674947D01*
X13869497Y-21674947D02*
X13859974Y-21693994D01*
X13859974Y-21693994D02*
X13850450Y-21703518D01*
X13850450Y-21703518D02*
X13831402Y-21713042D01*
X13831402Y-21713042D02*
X13812355Y-21713042D01*
X13812355Y-21713042D02*
X13793307Y-21703518D01*
X13793307Y-21703518D02*
X13783783Y-21693994D01*
X13783783Y-21693994D02*
X13774259Y-21674947D01*
X13774259Y-21674947D02*
X13764736Y-21636851D01*
X13764736Y-21636851D02*
X13764736Y-21589232D01*
X13764736Y-21589232D02*
X13774259Y-21551137D01*
X13774259Y-21551137D02*
X13783783Y-21532090D01*
X13783783Y-21532090D02*
X13793307Y-21522566D01*
X13793307Y-21522566D02*
X13812355Y-21513042D01*
X13964736Y-21693994D02*
X13974259Y-21703518D01*
X13974259Y-21703518D02*
X13964736Y-21713042D01*
X13964736Y-21713042D02*
X13955212Y-21703518D01*
X13955212Y-21703518D02*
X13964736Y-21693994D01*
X13964736Y-21693994D02*
X13964736Y-21713042D01*
X14098069Y-21513042D02*
X14117117Y-21513042D01*
X14117117Y-21513042D02*
X14136164Y-21522566D01*
X14136164Y-21522566D02*
X14145688Y-21532090D01*
X14145688Y-21532090D02*
X14155212Y-21551137D01*
X14155212Y-21551137D02*
X14164736Y-21589232D01*
X14164736Y-21589232D02*
X14164736Y-21636851D01*
X14164736Y-21636851D02*
X14155212Y-21674947D01*
X14155212Y-21674947D02*
X14145688Y-21693994D01*
X14145688Y-21693994D02*
X14136164Y-21703518D01*
X14136164Y-21703518D02*
X14117117Y-21713042D01*
X14117117Y-21713042D02*
X14098069Y-21713042D01*
X14098069Y-21713042D02*
X14079021Y-21703518D01*
X14079021Y-21703518D02*
X14069497Y-21693994D01*
X14069497Y-21693994D02*
X14059974Y-21674947D01*
X14059974Y-21674947D02*
X14050450Y-21636851D01*
X14050450Y-21636851D02*
X14050450Y-21589232D01*
X14050450Y-21589232D02*
X14059974Y-21551137D01*
X14059974Y-21551137D02*
X14069497Y-21532090D01*
X14069497Y-21532090D02*
X14079021Y-21522566D01*
X14079021Y-21522566D02*
X14098069Y-21513042D01*
X14355212Y-21713042D02*
X14240926Y-21713042D01*
X14298069Y-21713042D02*
X14298069Y-21513042D01*
X14298069Y-21513042D02*
X14279021Y-21541613D01*
X14279021Y-21541613D02*
X14259974Y-21560661D01*
X14259974Y-21560661D02*
X14240926Y-21570185D01*
X14450450Y-21713042D02*
X14488545Y-21713042D01*
X14488545Y-21713042D02*
X14507593Y-21703518D01*
X14507593Y-21703518D02*
X14517117Y-21693994D01*
X14517117Y-21693994D02*
X14536164Y-21665423D01*
X14536164Y-21665423D02*
X14545688Y-21627328D01*
X14545688Y-21627328D02*
X14545688Y-21551137D01*
X14545688Y-21551137D02*
X14536164Y-21532090D01*
X14536164Y-21532090D02*
X14526640Y-21522566D01*
X14526640Y-21522566D02*
X14507593Y-21513042D01*
X14507593Y-21513042D02*
X14469497Y-21513042D01*
X14469497Y-21513042D02*
X14450450Y-21522566D01*
X14450450Y-21522566D02*
X14440926Y-21532090D01*
X14440926Y-21532090D02*
X14431402Y-21551137D01*
X14431402Y-21551137D02*
X14431402Y-21598756D01*
X14431402Y-21598756D02*
X14440926Y-21617804D01*
X14440926Y-21617804D02*
X14450450Y-21627328D01*
X14450450Y-21627328D02*
X14469497Y-21636851D01*
X14469497Y-21636851D02*
X14507593Y-21636851D01*
X14507593Y-21636851D02*
X14526640Y-21627328D01*
X14526640Y-21627328D02*
X14536164Y-21617804D01*
X14536164Y-21617804D02*
X14545688Y-21598756D01*
X14612355Y-21513042D02*
X14745688Y-21513042D01*
X14745688Y-21513042D02*
X14659974Y-21713042D01*
X14812355Y-21513042D02*
X14812355Y-21551137D01*
X14888545Y-21513042D02*
X14888545Y-21551137D01*
X15183783Y-21789232D02*
X15174259Y-21779709D01*
X15174259Y-21779709D02*
X15155212Y-21751137D01*
X15155212Y-21751137D02*
X15145688Y-21732090D01*
X15145688Y-21732090D02*
X15136164Y-21703518D01*
X15136164Y-21703518D02*
X15126640Y-21655899D01*
X15126640Y-21655899D02*
X15126640Y-21617804D01*
X15126640Y-21617804D02*
X15136164Y-21570185D01*
X15136164Y-21570185D02*
X15145688Y-21541613D01*
X15145688Y-21541613D02*
X15155212Y-21522566D01*
X15155212Y-21522566D02*
X15174259Y-21493994D01*
X15174259Y-21493994D02*
X15183783Y-21484470D01*
X15298069Y-21513042D02*
X15317117Y-21513042D01*
X15317117Y-21513042D02*
X15336164Y-21522566D01*
X15336164Y-21522566D02*
X15345688Y-21532090D01*
X15345688Y-21532090D02*
X15355212Y-21551137D01*
X15355212Y-21551137D02*
X15364736Y-21589232D01*
X15364736Y-21589232D02*
X15364736Y-21636851D01*
X15364736Y-21636851D02*
X15355212Y-21674947D01*
X15355212Y-21674947D02*
X15345688Y-21693994D01*
X15345688Y-21693994D02*
X15336164Y-21703518D01*
X15336164Y-21703518D02*
X15317117Y-21713042D01*
X15317117Y-21713042D02*
X15298069Y-21713042D01*
X15298069Y-21713042D02*
X15279021Y-21703518D01*
X15279021Y-21703518D02*
X15269498Y-21693994D01*
X15269498Y-21693994D02*
X15259974Y-21674947D01*
X15259974Y-21674947D02*
X15250450Y-21636851D01*
X15250450Y-21636851D02*
X15250450Y-21589232D01*
X15250450Y-21589232D02*
X15259974Y-21551137D01*
X15259974Y-21551137D02*
X15269498Y-21532090D01*
X15269498Y-21532090D02*
X15279021Y-21522566D01*
X15279021Y-21522566D02*
X15298069Y-21513042D01*
X15602831Y-21713042D02*
X15602831Y-21513042D01*
X15688545Y-21713042D02*
X15688545Y-21608280D01*
X15688545Y-21608280D02*
X15679021Y-21589232D01*
X15679021Y-21589232D02*
X15659974Y-21579709D01*
X15659974Y-21579709D02*
X15631402Y-21579709D01*
X15631402Y-21579709D02*
X15612355Y-21589232D01*
X15612355Y-21589232D02*
X15602831Y-21598756D01*
X15812355Y-21713042D02*
X15793307Y-21703518D01*
X15793307Y-21703518D02*
X15783783Y-21693994D01*
X15783783Y-21693994D02*
X15774260Y-21674947D01*
X15774260Y-21674947D02*
X15774260Y-21617804D01*
X15774260Y-21617804D02*
X15783783Y-21598756D01*
X15783783Y-21598756D02*
X15793307Y-21589232D01*
X15793307Y-21589232D02*
X15812355Y-21579709D01*
X15812355Y-21579709D02*
X15840926Y-21579709D01*
X15840926Y-21579709D02*
X15859974Y-21589232D01*
X15859974Y-21589232D02*
X15869498Y-21598756D01*
X15869498Y-21598756D02*
X15879021Y-21617804D01*
X15879021Y-21617804D02*
X15879021Y-21674947D01*
X15879021Y-21674947D02*
X15869498Y-21693994D01*
X15869498Y-21693994D02*
X15859974Y-21703518D01*
X15859974Y-21703518D02*
X15840926Y-21713042D01*
X15840926Y-21713042D02*
X15812355Y-21713042D01*
X15993307Y-21713042D02*
X15974260Y-21703518D01*
X15974260Y-21703518D02*
X15964736Y-21684470D01*
X15964736Y-21684470D02*
X15964736Y-21513042D01*
X16145688Y-21703518D02*
X16126641Y-21713042D01*
X16126641Y-21713042D02*
X16088545Y-21713042D01*
X16088545Y-21713042D02*
X16069498Y-21703518D01*
X16069498Y-21703518D02*
X16059974Y-21684470D01*
X16059974Y-21684470D02*
X16059974Y-21608280D01*
X16059974Y-21608280D02*
X16069498Y-21589232D01*
X16069498Y-21589232D02*
X16088545Y-21579709D01*
X16088545Y-21579709D02*
X16126641Y-21579709D01*
X16126641Y-21579709D02*
X16145688Y-21589232D01*
X16145688Y-21589232D02*
X16155212Y-21608280D01*
X16155212Y-21608280D02*
X16155212Y-21627328D01*
X16155212Y-21627328D02*
X16059974Y-21646375D01*
X16231402Y-21703518D02*
X16250450Y-21713042D01*
X16250450Y-21713042D02*
X16288545Y-21713042D01*
X16288545Y-21713042D02*
X16307593Y-21703518D01*
X16307593Y-21703518D02*
X16317117Y-21684470D01*
X16317117Y-21684470D02*
X16317117Y-21674947D01*
X16317117Y-21674947D02*
X16307593Y-21655899D01*
X16307593Y-21655899D02*
X16288545Y-21646375D01*
X16288545Y-21646375D02*
X16259974Y-21646375D01*
X16259974Y-21646375D02*
X16240926Y-21636851D01*
X16240926Y-21636851D02*
X16231402Y-21617804D01*
X16231402Y-21617804D02*
X16231402Y-21608280D01*
X16231402Y-21608280D02*
X16240926Y-21589232D01*
X16240926Y-21589232D02*
X16259974Y-21579709D01*
X16259974Y-21579709D02*
X16288545Y-21579709D01*
X16288545Y-21579709D02*
X16307593Y-21589232D01*
X16555212Y-21636851D02*
X16707593Y-21636851D01*
X16631403Y-21713042D02*
X16631403Y-21560661D01*
X17050450Y-21513042D02*
X16955212Y-21513042D01*
X16955212Y-21513042D02*
X16945688Y-21608280D01*
X16945688Y-21608280D02*
X16955212Y-21598756D01*
X16955212Y-21598756D02*
X16974260Y-21589232D01*
X16974260Y-21589232D02*
X17021879Y-21589232D01*
X17021879Y-21589232D02*
X17040926Y-21598756D01*
X17040926Y-21598756D02*
X17050450Y-21608280D01*
X17050450Y-21608280D02*
X17059974Y-21627328D01*
X17059974Y-21627328D02*
X17059974Y-21674947D01*
X17059974Y-21674947D02*
X17050450Y-21693994D01*
X17050450Y-21693994D02*
X17040926Y-21703518D01*
X17040926Y-21703518D02*
X17021879Y-21713042D01*
X17021879Y-21713042D02*
X16974260Y-21713042D01*
X16974260Y-21713042D02*
X16955212Y-21703518D01*
X16955212Y-21703518D02*
X16945688Y-21693994D01*
X17288546Y-21703518D02*
X17307593Y-21713042D01*
X17307593Y-21713042D02*
X17345688Y-21713042D01*
X17345688Y-21713042D02*
X17364736Y-21703518D01*
X17364736Y-21703518D02*
X17374260Y-21684470D01*
X17374260Y-21684470D02*
X17374260Y-21674947D01*
X17374260Y-21674947D02*
X17364736Y-21655899D01*
X17364736Y-21655899D02*
X17345688Y-21646375D01*
X17345688Y-21646375D02*
X17317117Y-21646375D01*
X17317117Y-21646375D02*
X17298069Y-21636851D01*
X17298069Y-21636851D02*
X17288546Y-21617804D01*
X17288546Y-21617804D02*
X17288546Y-21608280D01*
X17288546Y-21608280D02*
X17298069Y-21589232D01*
X17298069Y-21589232D02*
X17317117Y-21579709D01*
X17317117Y-21579709D02*
X17345688Y-21579709D01*
X17345688Y-21579709D02*
X17364736Y-21589232D01*
X17488546Y-21713042D02*
X17469498Y-21703518D01*
X17469498Y-21703518D02*
X17459974Y-21684470D01*
X17459974Y-21684470D02*
X17459974Y-21513042D01*
X17593307Y-21713042D02*
X17574260Y-21703518D01*
X17574260Y-21703518D02*
X17564736Y-21693994D01*
X17564736Y-21693994D02*
X17555212Y-21674947D01*
X17555212Y-21674947D02*
X17555212Y-21617804D01*
X17555212Y-21617804D02*
X17564736Y-21598756D01*
X17564736Y-21598756D02*
X17574260Y-21589232D01*
X17574260Y-21589232D02*
X17593307Y-21579709D01*
X17593307Y-21579709D02*
X17621879Y-21579709D01*
X17621879Y-21579709D02*
X17640927Y-21589232D01*
X17640927Y-21589232D02*
X17650450Y-21598756D01*
X17650450Y-21598756D02*
X17659974Y-21617804D01*
X17659974Y-21617804D02*
X17659974Y-21674947D01*
X17659974Y-21674947D02*
X17650450Y-21693994D01*
X17650450Y-21693994D02*
X17640927Y-21703518D01*
X17640927Y-21703518D02*
X17621879Y-21713042D01*
X17621879Y-21713042D02*
X17593307Y-21713042D01*
X17717117Y-21579709D02*
X17793307Y-21579709D01*
X17745688Y-21513042D02*
X17745688Y-21684470D01*
X17745688Y-21684470D02*
X17755212Y-21703518D01*
X17755212Y-21703518D02*
X17774260Y-21713042D01*
X17774260Y-21713042D02*
X17793307Y-21713042D01*
X17850450Y-21703518D02*
X17869498Y-21713042D01*
X17869498Y-21713042D02*
X17907593Y-21713042D01*
X17907593Y-21713042D02*
X17926641Y-21703518D01*
X17926641Y-21703518D02*
X17936165Y-21684470D01*
X17936165Y-21684470D02*
X17936165Y-21674947D01*
X17936165Y-21674947D02*
X17926641Y-21655899D01*
X17926641Y-21655899D02*
X17907593Y-21646375D01*
X17907593Y-21646375D02*
X17879022Y-21646375D01*
X17879022Y-21646375D02*
X17859974Y-21636851D01*
X17859974Y-21636851D02*
X17850450Y-21617804D01*
X17850450Y-21617804D02*
X17850450Y-21608280D01*
X17850450Y-21608280D02*
X17859974Y-21589232D01*
X17859974Y-21589232D02*
X17879022Y-21579709D01*
X17879022Y-21579709D02*
X17907593Y-21579709D01*
X17907593Y-21579709D02*
X17926641Y-21589232D01*
X18002831Y-21789232D02*
X18012355Y-21779709D01*
X18012355Y-21779709D02*
X18031403Y-21751137D01*
X18031403Y-21751137D02*
X18040927Y-21732090D01*
X18040927Y-21732090D02*
X18050450Y-21703518D01*
X18050450Y-21703518D02*
X18059974Y-21655899D01*
X18059974Y-21655899D02*
X18059974Y-21617804D01*
X18059974Y-21617804D02*
X18050450Y-21570185D01*
X18050450Y-21570185D02*
X18040927Y-21541613D01*
X18040927Y-21541613D02*
X18031403Y-21522566D01*
X18031403Y-21522566D02*
X18012355Y-21493994D01*
X18012355Y-21493994D02*
X18002831Y-21484470D01*
D12*
X11571220Y-21848058D02*
X11571220Y-21923058D01*
X11533720Y-21885558D02*
X11608720Y-21885558D01*
D11*
X11907592Y-21777042D02*
X11926640Y-21777042D01*
X11926640Y-21777042D02*
X11945688Y-21786566D01*
X11945688Y-21786566D02*
X11955212Y-21796090D01*
X11955212Y-21796090D02*
X11964735Y-21815137D01*
X11964735Y-21815137D02*
X11974259Y-21853232D01*
X11974259Y-21853232D02*
X11974259Y-21900851D01*
X11974259Y-21900851D02*
X11964735Y-21938947D01*
X11964735Y-21938947D02*
X11955212Y-21957994D01*
X11955212Y-21957994D02*
X11945688Y-21967518D01*
X11945688Y-21967518D02*
X11926640Y-21977042D01*
X11926640Y-21977042D02*
X11907592Y-21977042D01*
X11907592Y-21977042D02*
X11888545Y-21967518D01*
X11888545Y-21967518D02*
X11879021Y-21957994D01*
X11879021Y-21957994D02*
X11869497Y-21938947D01*
X11869497Y-21938947D02*
X11859973Y-21900851D01*
X11859973Y-21900851D02*
X11859973Y-21853232D01*
X11859973Y-21853232D02*
X11869497Y-21815137D01*
X11869497Y-21815137D02*
X11879021Y-21796090D01*
X11879021Y-21796090D02*
X11888545Y-21786566D01*
X11888545Y-21786566D02*
X11907592Y-21777042D01*
X12059973Y-21957994D02*
X12069497Y-21967518D01*
X12069497Y-21967518D02*
X12059973Y-21977042D01*
X12059973Y-21977042D02*
X12050450Y-21967518D01*
X12050450Y-21967518D02*
X12059973Y-21957994D01*
X12059973Y-21957994D02*
X12059973Y-21977042D01*
X12136164Y-21777042D02*
X12269497Y-21777042D01*
X12269497Y-21777042D02*
X12183783Y-21977042D01*
X12440926Y-21777042D02*
X12345688Y-21777042D01*
X12345688Y-21777042D02*
X12336164Y-21872280D01*
X12336164Y-21872280D02*
X12345688Y-21862756D01*
X12345688Y-21862756D02*
X12364735Y-21853232D01*
X12364735Y-21853232D02*
X12412354Y-21853232D01*
X12412354Y-21853232D02*
X12431402Y-21862756D01*
X12431402Y-21862756D02*
X12440926Y-21872280D01*
X12440926Y-21872280D02*
X12450450Y-21891328D01*
X12450450Y-21891328D02*
X12450450Y-21938947D01*
X12450450Y-21938947D02*
X12440926Y-21957994D01*
X12440926Y-21957994D02*
X12431402Y-21967518D01*
X12431402Y-21967518D02*
X12412354Y-21977042D01*
X12412354Y-21977042D02*
X12364735Y-21977042D01*
X12364735Y-21977042D02*
X12345688Y-21967518D01*
X12345688Y-21967518D02*
X12336164Y-21957994D01*
X12574259Y-21777042D02*
X12593307Y-21777042D01*
X12593307Y-21777042D02*
X12612354Y-21786566D01*
X12612354Y-21786566D02*
X12621878Y-21796090D01*
X12621878Y-21796090D02*
X12631402Y-21815137D01*
X12631402Y-21815137D02*
X12640926Y-21853232D01*
X12640926Y-21853232D02*
X12640926Y-21900851D01*
X12640926Y-21900851D02*
X12631402Y-21938947D01*
X12631402Y-21938947D02*
X12621878Y-21957994D01*
X12621878Y-21957994D02*
X12612354Y-21967518D01*
X12612354Y-21967518D02*
X12593307Y-21977042D01*
X12593307Y-21977042D02*
X12574259Y-21977042D01*
X12574259Y-21977042D02*
X12555212Y-21967518D01*
X12555212Y-21967518D02*
X12545688Y-21957994D01*
X12545688Y-21957994D02*
X12536164Y-21938947D01*
X12536164Y-21938947D02*
X12526640Y-21900851D01*
X12526640Y-21900851D02*
X12526640Y-21853232D01*
X12526640Y-21853232D02*
X12536164Y-21815137D01*
X12536164Y-21815137D02*
X12545688Y-21796090D01*
X12545688Y-21796090D02*
X12555212Y-21786566D01*
X12555212Y-21786566D02*
X12574259Y-21777042D01*
X12726640Y-21977042D02*
X12726640Y-21843709D01*
X12726640Y-21862756D02*
X12736164Y-21853232D01*
X12736164Y-21853232D02*
X12755212Y-21843709D01*
X12755212Y-21843709D02*
X12783783Y-21843709D01*
X12783783Y-21843709D02*
X12802831Y-21853232D01*
X12802831Y-21853232D02*
X12812354Y-21872280D01*
X12812354Y-21872280D02*
X12812354Y-21977042D01*
X12812354Y-21872280D02*
X12821878Y-21853232D01*
X12821878Y-21853232D02*
X12840926Y-21843709D01*
X12840926Y-21843709D02*
X12869497Y-21843709D01*
X12869497Y-21843709D02*
X12888545Y-21853232D01*
X12888545Y-21853232D02*
X12898069Y-21872280D01*
X12898069Y-21872280D02*
X12898069Y-21977042D01*
X12993307Y-21977042D02*
X12993307Y-21843709D01*
X12993307Y-21862756D02*
X13002831Y-21853232D01*
X13002831Y-21853232D02*
X13021878Y-21843709D01*
X13021878Y-21843709D02*
X13050450Y-21843709D01*
X13050450Y-21843709D02*
X13069497Y-21853232D01*
X13069497Y-21853232D02*
X13079021Y-21872280D01*
X13079021Y-21872280D02*
X13079021Y-21977042D01*
X13079021Y-21872280D02*
X13088545Y-21853232D01*
X13088545Y-21853232D02*
X13107593Y-21843709D01*
X13107593Y-21843709D02*
X13136164Y-21843709D01*
X13136164Y-21843709D02*
X13155212Y-21853232D01*
X13155212Y-21853232D02*
X13164735Y-21872280D01*
X13164735Y-21872280D02*
X13164735Y-21977042D01*
X13555212Y-21767518D02*
X13383783Y-22024661D01*
X13812355Y-21777042D02*
X13831402Y-21777042D01*
X13831402Y-21777042D02*
X13850450Y-21786566D01*
X13850450Y-21786566D02*
X13859974Y-21796090D01*
X13859974Y-21796090D02*
X13869497Y-21815137D01*
X13869497Y-21815137D02*
X13879021Y-21853232D01*
X13879021Y-21853232D02*
X13879021Y-21900851D01*
X13879021Y-21900851D02*
X13869497Y-21938947D01*
X13869497Y-21938947D02*
X13859974Y-21957994D01*
X13859974Y-21957994D02*
X13850450Y-21967518D01*
X13850450Y-21967518D02*
X13831402Y-21977042D01*
X13831402Y-21977042D02*
X13812355Y-21977042D01*
X13812355Y-21977042D02*
X13793307Y-21967518D01*
X13793307Y-21967518D02*
X13783783Y-21957994D01*
X13783783Y-21957994D02*
X13774259Y-21938947D01*
X13774259Y-21938947D02*
X13764736Y-21900851D01*
X13764736Y-21900851D02*
X13764736Y-21853232D01*
X13764736Y-21853232D02*
X13774259Y-21815137D01*
X13774259Y-21815137D02*
X13783783Y-21796090D01*
X13783783Y-21796090D02*
X13793307Y-21786566D01*
X13793307Y-21786566D02*
X13812355Y-21777042D01*
X13964736Y-21957994D02*
X13974259Y-21967518D01*
X13974259Y-21967518D02*
X13964736Y-21977042D01*
X13964736Y-21977042D02*
X13955212Y-21967518D01*
X13955212Y-21967518D02*
X13964736Y-21957994D01*
X13964736Y-21957994D02*
X13964736Y-21977042D01*
X14098069Y-21777042D02*
X14117117Y-21777042D01*
X14117117Y-21777042D02*
X14136164Y-21786566D01*
X14136164Y-21786566D02*
X14145688Y-21796090D01*
X14145688Y-21796090D02*
X14155212Y-21815137D01*
X14155212Y-21815137D02*
X14164736Y-21853232D01*
X14164736Y-21853232D02*
X14164736Y-21900851D01*
X14164736Y-21900851D02*
X14155212Y-21938947D01*
X14155212Y-21938947D02*
X14145688Y-21957994D01*
X14145688Y-21957994D02*
X14136164Y-21967518D01*
X14136164Y-21967518D02*
X14117117Y-21977042D01*
X14117117Y-21977042D02*
X14098069Y-21977042D01*
X14098069Y-21977042D02*
X14079021Y-21967518D01*
X14079021Y-21967518D02*
X14069497Y-21957994D01*
X14069497Y-21957994D02*
X14059974Y-21938947D01*
X14059974Y-21938947D02*
X14050450Y-21900851D01*
X14050450Y-21900851D02*
X14050450Y-21853232D01*
X14050450Y-21853232D02*
X14059974Y-21815137D01*
X14059974Y-21815137D02*
X14069497Y-21796090D01*
X14069497Y-21796090D02*
X14079021Y-21786566D01*
X14079021Y-21786566D02*
X14098069Y-21777042D01*
X14240926Y-21796090D02*
X14250450Y-21786566D01*
X14250450Y-21786566D02*
X14269497Y-21777042D01*
X14269497Y-21777042D02*
X14317117Y-21777042D01*
X14317117Y-21777042D02*
X14336164Y-21786566D01*
X14336164Y-21786566D02*
X14345688Y-21796090D01*
X14345688Y-21796090D02*
X14355212Y-21815137D01*
X14355212Y-21815137D02*
X14355212Y-21834185D01*
X14355212Y-21834185D02*
X14345688Y-21862756D01*
X14345688Y-21862756D02*
X14231402Y-21977042D01*
X14231402Y-21977042D02*
X14355212Y-21977042D01*
X14450450Y-21977042D02*
X14488545Y-21977042D01*
X14488545Y-21977042D02*
X14507593Y-21967518D01*
X14507593Y-21967518D02*
X14517117Y-21957994D01*
X14517117Y-21957994D02*
X14536164Y-21929423D01*
X14536164Y-21929423D02*
X14545688Y-21891328D01*
X14545688Y-21891328D02*
X14545688Y-21815137D01*
X14545688Y-21815137D02*
X14536164Y-21796090D01*
X14536164Y-21796090D02*
X14526640Y-21786566D01*
X14526640Y-21786566D02*
X14507593Y-21777042D01*
X14507593Y-21777042D02*
X14469497Y-21777042D01*
X14469497Y-21777042D02*
X14450450Y-21786566D01*
X14450450Y-21786566D02*
X14440926Y-21796090D01*
X14440926Y-21796090D02*
X14431402Y-21815137D01*
X14431402Y-21815137D02*
X14431402Y-21862756D01*
X14431402Y-21862756D02*
X14440926Y-21881804D01*
X14440926Y-21881804D02*
X14450450Y-21891328D01*
X14450450Y-21891328D02*
X14469497Y-21900851D01*
X14469497Y-21900851D02*
X14507593Y-21900851D01*
X14507593Y-21900851D02*
X14526640Y-21891328D01*
X14526640Y-21891328D02*
X14536164Y-21881804D01*
X14536164Y-21881804D02*
X14545688Y-21862756D01*
X14726640Y-21777042D02*
X14631402Y-21777042D01*
X14631402Y-21777042D02*
X14621878Y-21872280D01*
X14621878Y-21872280D02*
X14631402Y-21862756D01*
X14631402Y-21862756D02*
X14650450Y-21853232D01*
X14650450Y-21853232D02*
X14698069Y-21853232D01*
X14698069Y-21853232D02*
X14717117Y-21862756D01*
X14717117Y-21862756D02*
X14726640Y-21872280D01*
X14726640Y-21872280D02*
X14736164Y-21891328D01*
X14736164Y-21891328D02*
X14736164Y-21938947D01*
X14736164Y-21938947D02*
X14726640Y-21957994D01*
X14726640Y-21957994D02*
X14717117Y-21967518D01*
X14717117Y-21967518D02*
X14698069Y-21977042D01*
X14698069Y-21977042D02*
X14650450Y-21977042D01*
X14650450Y-21977042D02*
X14631402Y-21967518D01*
X14631402Y-21967518D02*
X14621878Y-21957994D01*
X14812355Y-21777042D02*
X14812355Y-21815137D01*
X14888545Y-21777042D02*
X14888545Y-21815137D01*
X15183783Y-22053232D02*
X15174259Y-22043709D01*
X15174259Y-22043709D02*
X15155212Y-22015137D01*
X15155212Y-22015137D02*
X15145688Y-21996090D01*
X15145688Y-21996090D02*
X15136164Y-21967518D01*
X15136164Y-21967518D02*
X15126640Y-21919899D01*
X15126640Y-21919899D02*
X15126640Y-21881804D01*
X15126640Y-21881804D02*
X15136164Y-21834185D01*
X15136164Y-21834185D02*
X15145688Y-21805613D01*
X15145688Y-21805613D02*
X15155212Y-21786566D01*
X15155212Y-21786566D02*
X15174259Y-21757994D01*
X15174259Y-21757994D02*
X15183783Y-21748470D01*
X15250450Y-21796090D02*
X15259974Y-21786566D01*
X15259974Y-21786566D02*
X15279021Y-21777042D01*
X15279021Y-21777042D02*
X15326640Y-21777042D01*
X15326640Y-21777042D02*
X15345688Y-21786566D01*
X15345688Y-21786566D02*
X15355212Y-21796090D01*
X15355212Y-21796090D02*
X15364736Y-21815137D01*
X15364736Y-21815137D02*
X15364736Y-21834185D01*
X15364736Y-21834185D02*
X15355212Y-21862756D01*
X15355212Y-21862756D02*
X15240926Y-21977042D01*
X15240926Y-21977042D02*
X15364736Y-21977042D01*
X15602831Y-21977042D02*
X15602831Y-21777042D01*
X15688545Y-21977042D02*
X15688545Y-21872280D01*
X15688545Y-21872280D02*
X15679021Y-21853232D01*
X15679021Y-21853232D02*
X15659974Y-21843709D01*
X15659974Y-21843709D02*
X15631402Y-21843709D01*
X15631402Y-21843709D02*
X15612355Y-21853232D01*
X15612355Y-21853232D02*
X15602831Y-21862756D01*
X15812355Y-21977042D02*
X15793307Y-21967518D01*
X15793307Y-21967518D02*
X15783783Y-21957994D01*
X15783783Y-21957994D02*
X15774260Y-21938947D01*
X15774260Y-21938947D02*
X15774260Y-21881804D01*
X15774260Y-21881804D02*
X15783783Y-21862756D01*
X15783783Y-21862756D02*
X15793307Y-21853232D01*
X15793307Y-21853232D02*
X15812355Y-21843709D01*
X15812355Y-21843709D02*
X15840926Y-21843709D01*
X15840926Y-21843709D02*
X15859974Y-21853232D01*
X15859974Y-21853232D02*
X15869498Y-21862756D01*
X15869498Y-21862756D02*
X15879021Y-21881804D01*
X15879021Y-21881804D02*
X15879021Y-21938947D01*
X15879021Y-21938947D02*
X15869498Y-21957994D01*
X15869498Y-21957994D02*
X15859974Y-21967518D01*
X15859974Y-21967518D02*
X15840926Y-21977042D01*
X15840926Y-21977042D02*
X15812355Y-21977042D01*
X15993307Y-21977042D02*
X15974260Y-21967518D01*
X15974260Y-21967518D02*
X15964736Y-21948470D01*
X15964736Y-21948470D02*
X15964736Y-21777042D01*
X16145688Y-21967518D02*
X16126641Y-21977042D01*
X16126641Y-21977042D02*
X16088545Y-21977042D01*
X16088545Y-21977042D02*
X16069498Y-21967518D01*
X16069498Y-21967518D02*
X16059974Y-21948470D01*
X16059974Y-21948470D02*
X16059974Y-21872280D01*
X16059974Y-21872280D02*
X16069498Y-21853232D01*
X16069498Y-21853232D02*
X16088545Y-21843709D01*
X16088545Y-21843709D02*
X16126641Y-21843709D01*
X16126641Y-21843709D02*
X16145688Y-21853232D01*
X16145688Y-21853232D02*
X16155212Y-21872280D01*
X16155212Y-21872280D02*
X16155212Y-21891328D01*
X16155212Y-21891328D02*
X16059974Y-21910375D01*
X16231402Y-21967518D02*
X16250450Y-21977042D01*
X16250450Y-21977042D02*
X16288545Y-21977042D01*
X16288545Y-21977042D02*
X16307593Y-21967518D01*
X16307593Y-21967518D02*
X16317117Y-21948470D01*
X16317117Y-21948470D02*
X16317117Y-21938947D01*
X16317117Y-21938947D02*
X16307593Y-21919899D01*
X16307593Y-21919899D02*
X16288545Y-21910375D01*
X16288545Y-21910375D02*
X16259974Y-21910375D01*
X16259974Y-21910375D02*
X16240926Y-21900851D01*
X16240926Y-21900851D02*
X16231402Y-21881804D01*
X16231402Y-21881804D02*
X16231402Y-21872280D01*
X16231402Y-21872280D02*
X16240926Y-21853232D01*
X16240926Y-21853232D02*
X16259974Y-21843709D01*
X16259974Y-21843709D02*
X16288545Y-21843709D01*
X16288545Y-21843709D02*
X16307593Y-21853232D01*
X16383783Y-22053232D02*
X16393307Y-22043709D01*
X16393307Y-22043709D02*
X16412355Y-22015137D01*
X16412355Y-22015137D02*
X16421879Y-21996090D01*
X16421879Y-21996090D02*
X16431402Y-21967518D01*
X16431402Y-21967518D02*
X16440926Y-21919899D01*
X16440926Y-21919899D02*
X16440926Y-21881804D01*
X16440926Y-21881804D02*
X16431402Y-21834185D01*
X16431402Y-21834185D02*
X16421879Y-21805613D01*
X16421879Y-21805613D02*
X16412355Y-21786566D01*
X16412355Y-21786566D02*
X16393307Y-21757994D01*
X16393307Y-21757994D02*
X16383783Y-21748470D01*
D12*
X11594214Y-22184581D02*
X11594214Y-22114535D01*
X11524167Y-22114535D01*
X11524167Y-22184581D01*
X11594214Y-22184581D01*
D11*
X11907592Y-22041042D02*
X11926640Y-22041042D01*
X11926640Y-22041042D02*
X11945688Y-22050566D01*
X11945688Y-22050566D02*
X11955212Y-22060090D01*
X11955212Y-22060090D02*
X11964735Y-22079137D01*
X11964735Y-22079137D02*
X11974259Y-22117232D01*
X11974259Y-22117232D02*
X11974259Y-22164851D01*
X11974259Y-22164851D02*
X11964735Y-22202947D01*
X11964735Y-22202947D02*
X11955212Y-22221994D01*
X11955212Y-22221994D02*
X11945688Y-22231518D01*
X11945688Y-22231518D02*
X11926640Y-22241042D01*
X11926640Y-22241042D02*
X11907592Y-22241042D01*
X11907592Y-22241042D02*
X11888545Y-22231518D01*
X11888545Y-22231518D02*
X11879021Y-22221994D01*
X11879021Y-22221994D02*
X11869497Y-22202947D01*
X11869497Y-22202947D02*
X11859973Y-22164851D01*
X11859973Y-22164851D02*
X11859973Y-22117232D01*
X11859973Y-22117232D02*
X11869497Y-22079137D01*
X11869497Y-22079137D02*
X11879021Y-22060090D01*
X11879021Y-22060090D02*
X11888545Y-22050566D01*
X11888545Y-22050566D02*
X11907592Y-22041042D01*
X12059973Y-22221994D02*
X12069497Y-22231518D01*
X12069497Y-22231518D02*
X12059973Y-22241042D01*
X12059973Y-22241042D02*
X12050450Y-22231518D01*
X12050450Y-22231518D02*
X12059973Y-22221994D01*
X12059973Y-22221994D02*
X12059973Y-22241042D01*
X12164735Y-22241042D02*
X12202831Y-22241042D01*
X12202831Y-22241042D02*
X12221878Y-22231518D01*
X12221878Y-22231518D02*
X12231402Y-22221994D01*
X12231402Y-22221994D02*
X12250450Y-22193423D01*
X12250450Y-22193423D02*
X12259973Y-22155328D01*
X12259973Y-22155328D02*
X12259973Y-22079137D01*
X12259973Y-22079137D02*
X12250450Y-22060090D01*
X12250450Y-22060090D02*
X12240926Y-22050566D01*
X12240926Y-22050566D02*
X12221878Y-22041042D01*
X12221878Y-22041042D02*
X12183783Y-22041042D01*
X12183783Y-22041042D02*
X12164735Y-22050566D01*
X12164735Y-22050566D02*
X12155212Y-22060090D01*
X12155212Y-22060090D02*
X12145688Y-22079137D01*
X12145688Y-22079137D02*
X12145688Y-22126756D01*
X12145688Y-22126756D02*
X12155212Y-22145804D01*
X12155212Y-22145804D02*
X12164735Y-22155328D01*
X12164735Y-22155328D02*
X12183783Y-22164851D01*
X12183783Y-22164851D02*
X12221878Y-22164851D01*
X12221878Y-22164851D02*
X12240926Y-22155328D01*
X12240926Y-22155328D02*
X12250450Y-22145804D01*
X12250450Y-22145804D02*
X12259973Y-22126756D01*
X12355212Y-22241042D02*
X12393307Y-22241042D01*
X12393307Y-22241042D02*
X12412354Y-22231518D01*
X12412354Y-22231518D02*
X12421878Y-22221994D01*
X12421878Y-22221994D02*
X12440926Y-22193423D01*
X12440926Y-22193423D02*
X12450450Y-22155328D01*
X12450450Y-22155328D02*
X12450450Y-22079137D01*
X12450450Y-22079137D02*
X12440926Y-22060090D01*
X12440926Y-22060090D02*
X12431402Y-22050566D01*
X12431402Y-22050566D02*
X12412354Y-22041042D01*
X12412354Y-22041042D02*
X12374259Y-22041042D01*
X12374259Y-22041042D02*
X12355212Y-22050566D01*
X12355212Y-22050566D02*
X12345688Y-22060090D01*
X12345688Y-22060090D02*
X12336164Y-22079137D01*
X12336164Y-22079137D02*
X12336164Y-22126756D01*
X12336164Y-22126756D02*
X12345688Y-22145804D01*
X12345688Y-22145804D02*
X12355212Y-22155328D01*
X12355212Y-22155328D02*
X12374259Y-22164851D01*
X12374259Y-22164851D02*
X12412354Y-22164851D01*
X12412354Y-22164851D02*
X12431402Y-22155328D01*
X12431402Y-22155328D02*
X12440926Y-22145804D01*
X12440926Y-22145804D02*
X12450450Y-22126756D01*
X12640926Y-22241042D02*
X12526640Y-22241042D01*
X12583783Y-22241042D02*
X12583783Y-22041042D01*
X12583783Y-22041042D02*
X12564735Y-22069613D01*
X12564735Y-22069613D02*
X12545688Y-22088661D01*
X12545688Y-22088661D02*
X12526640Y-22098185D01*
X12726640Y-22241042D02*
X12726640Y-22107709D01*
X12726640Y-22126756D02*
X12736164Y-22117232D01*
X12736164Y-22117232D02*
X12755212Y-22107709D01*
X12755212Y-22107709D02*
X12783783Y-22107709D01*
X12783783Y-22107709D02*
X12802831Y-22117232D01*
X12802831Y-22117232D02*
X12812354Y-22136280D01*
X12812354Y-22136280D02*
X12812354Y-22241042D01*
X12812354Y-22136280D02*
X12821878Y-22117232D01*
X12821878Y-22117232D02*
X12840926Y-22107709D01*
X12840926Y-22107709D02*
X12869497Y-22107709D01*
X12869497Y-22107709D02*
X12888545Y-22117232D01*
X12888545Y-22117232D02*
X12898069Y-22136280D01*
X12898069Y-22136280D02*
X12898069Y-22241042D01*
X12993307Y-22241042D02*
X12993307Y-22107709D01*
X12993307Y-22126756D02*
X13002831Y-22117232D01*
X13002831Y-22117232D02*
X13021878Y-22107709D01*
X13021878Y-22107709D02*
X13050450Y-22107709D01*
X13050450Y-22107709D02*
X13069497Y-22117232D01*
X13069497Y-22117232D02*
X13079021Y-22136280D01*
X13079021Y-22136280D02*
X13079021Y-22241042D01*
X13079021Y-22136280D02*
X13088545Y-22117232D01*
X13088545Y-22117232D02*
X13107593Y-22107709D01*
X13107593Y-22107709D02*
X13136164Y-22107709D01*
X13136164Y-22107709D02*
X13155212Y-22117232D01*
X13155212Y-22117232D02*
X13164735Y-22136280D01*
X13164735Y-22136280D02*
X13164735Y-22241042D01*
X13555212Y-22031518D02*
X13383783Y-22288661D01*
X13812355Y-22041042D02*
X13831402Y-22041042D01*
X13831402Y-22041042D02*
X13850450Y-22050566D01*
X13850450Y-22050566D02*
X13859974Y-22060090D01*
X13859974Y-22060090D02*
X13869497Y-22079137D01*
X13869497Y-22079137D02*
X13879021Y-22117232D01*
X13879021Y-22117232D02*
X13879021Y-22164851D01*
X13879021Y-22164851D02*
X13869497Y-22202947D01*
X13869497Y-22202947D02*
X13859974Y-22221994D01*
X13859974Y-22221994D02*
X13850450Y-22231518D01*
X13850450Y-22231518D02*
X13831402Y-22241042D01*
X13831402Y-22241042D02*
X13812355Y-22241042D01*
X13812355Y-22241042D02*
X13793307Y-22231518D01*
X13793307Y-22231518D02*
X13783783Y-22221994D01*
X13783783Y-22221994D02*
X13774259Y-22202947D01*
X13774259Y-22202947D02*
X13764736Y-22164851D01*
X13764736Y-22164851D02*
X13764736Y-22117232D01*
X13764736Y-22117232D02*
X13774259Y-22079137D01*
X13774259Y-22079137D02*
X13783783Y-22060090D01*
X13783783Y-22060090D02*
X13793307Y-22050566D01*
X13793307Y-22050566D02*
X13812355Y-22041042D01*
X13964736Y-22221994D02*
X13974259Y-22231518D01*
X13974259Y-22231518D02*
X13964736Y-22241042D01*
X13964736Y-22241042D02*
X13955212Y-22231518D01*
X13955212Y-22231518D02*
X13964736Y-22221994D01*
X13964736Y-22221994D02*
X13964736Y-22241042D01*
X14098069Y-22041042D02*
X14117117Y-22041042D01*
X14117117Y-22041042D02*
X14136164Y-22050566D01*
X14136164Y-22050566D02*
X14145688Y-22060090D01*
X14145688Y-22060090D02*
X14155212Y-22079137D01*
X14155212Y-22079137D02*
X14164736Y-22117232D01*
X14164736Y-22117232D02*
X14164736Y-22164851D01*
X14164736Y-22164851D02*
X14155212Y-22202947D01*
X14155212Y-22202947D02*
X14145688Y-22221994D01*
X14145688Y-22221994D02*
X14136164Y-22231518D01*
X14136164Y-22231518D02*
X14117117Y-22241042D01*
X14117117Y-22241042D02*
X14098069Y-22241042D01*
X14098069Y-22241042D02*
X14079021Y-22231518D01*
X14079021Y-22231518D02*
X14069497Y-22221994D01*
X14069497Y-22221994D02*
X14059974Y-22202947D01*
X14059974Y-22202947D02*
X14050450Y-22164851D01*
X14050450Y-22164851D02*
X14050450Y-22117232D01*
X14050450Y-22117232D02*
X14059974Y-22079137D01*
X14059974Y-22079137D02*
X14069497Y-22060090D01*
X14069497Y-22060090D02*
X14079021Y-22050566D01*
X14079021Y-22050566D02*
X14098069Y-22041042D01*
X14231402Y-22041042D02*
X14355212Y-22041042D01*
X14355212Y-22041042D02*
X14288545Y-22117232D01*
X14288545Y-22117232D02*
X14317117Y-22117232D01*
X14317117Y-22117232D02*
X14336164Y-22126756D01*
X14336164Y-22126756D02*
X14345688Y-22136280D01*
X14345688Y-22136280D02*
X14355212Y-22155328D01*
X14355212Y-22155328D02*
X14355212Y-22202947D01*
X14355212Y-22202947D02*
X14345688Y-22221994D01*
X14345688Y-22221994D02*
X14336164Y-22231518D01*
X14336164Y-22231518D02*
X14317117Y-22241042D01*
X14317117Y-22241042D02*
X14259974Y-22241042D01*
X14259974Y-22241042D02*
X14240926Y-22231518D01*
X14240926Y-22231518D02*
X14231402Y-22221994D01*
X14450450Y-22241042D02*
X14488545Y-22241042D01*
X14488545Y-22241042D02*
X14507593Y-22231518D01*
X14507593Y-22231518D02*
X14517117Y-22221994D01*
X14517117Y-22221994D02*
X14536164Y-22193423D01*
X14536164Y-22193423D02*
X14545688Y-22155328D01*
X14545688Y-22155328D02*
X14545688Y-22079137D01*
X14545688Y-22079137D02*
X14536164Y-22060090D01*
X14536164Y-22060090D02*
X14526640Y-22050566D01*
X14526640Y-22050566D02*
X14507593Y-22041042D01*
X14507593Y-22041042D02*
X14469497Y-22041042D01*
X14469497Y-22041042D02*
X14450450Y-22050566D01*
X14450450Y-22050566D02*
X14440926Y-22060090D01*
X14440926Y-22060090D02*
X14431402Y-22079137D01*
X14431402Y-22079137D02*
X14431402Y-22126756D01*
X14431402Y-22126756D02*
X14440926Y-22145804D01*
X14440926Y-22145804D02*
X14450450Y-22155328D01*
X14450450Y-22155328D02*
X14469497Y-22164851D01*
X14469497Y-22164851D02*
X14507593Y-22164851D01*
X14507593Y-22164851D02*
X14526640Y-22155328D01*
X14526640Y-22155328D02*
X14536164Y-22145804D01*
X14536164Y-22145804D02*
X14545688Y-22126756D01*
X14669497Y-22041042D02*
X14688545Y-22041042D01*
X14688545Y-22041042D02*
X14707593Y-22050566D01*
X14707593Y-22050566D02*
X14717117Y-22060090D01*
X14717117Y-22060090D02*
X14726640Y-22079137D01*
X14726640Y-22079137D02*
X14736164Y-22117232D01*
X14736164Y-22117232D02*
X14736164Y-22164851D01*
X14736164Y-22164851D02*
X14726640Y-22202947D01*
X14726640Y-22202947D02*
X14717117Y-22221994D01*
X14717117Y-22221994D02*
X14707593Y-22231518D01*
X14707593Y-22231518D02*
X14688545Y-22241042D01*
X14688545Y-22241042D02*
X14669497Y-22241042D01*
X14669497Y-22241042D02*
X14650450Y-22231518D01*
X14650450Y-22231518D02*
X14640926Y-22221994D01*
X14640926Y-22221994D02*
X14631402Y-22202947D01*
X14631402Y-22202947D02*
X14621878Y-22164851D01*
X14621878Y-22164851D02*
X14621878Y-22117232D01*
X14621878Y-22117232D02*
X14631402Y-22079137D01*
X14631402Y-22079137D02*
X14640926Y-22060090D01*
X14640926Y-22060090D02*
X14650450Y-22050566D01*
X14650450Y-22050566D02*
X14669497Y-22041042D01*
X14812355Y-22041042D02*
X14812355Y-22079137D01*
X14888545Y-22041042D02*
X14888545Y-22079137D01*
X15183783Y-22317232D02*
X15174259Y-22307709D01*
X15174259Y-22307709D02*
X15155212Y-22279137D01*
X15155212Y-22279137D02*
X15145688Y-22260090D01*
X15145688Y-22260090D02*
X15136164Y-22231518D01*
X15136164Y-22231518D02*
X15126640Y-22183899D01*
X15126640Y-22183899D02*
X15126640Y-22145804D01*
X15126640Y-22145804D02*
X15136164Y-22098185D01*
X15136164Y-22098185D02*
X15145688Y-22069613D01*
X15145688Y-22069613D02*
X15155212Y-22050566D01*
X15155212Y-22050566D02*
X15174259Y-22021994D01*
X15174259Y-22021994D02*
X15183783Y-22012470D01*
X15355212Y-22041042D02*
X15259974Y-22041042D01*
X15259974Y-22041042D02*
X15250450Y-22136280D01*
X15250450Y-22136280D02*
X15259974Y-22126756D01*
X15259974Y-22126756D02*
X15279021Y-22117232D01*
X15279021Y-22117232D02*
X15326640Y-22117232D01*
X15326640Y-22117232D02*
X15345688Y-22126756D01*
X15345688Y-22126756D02*
X15355212Y-22136280D01*
X15355212Y-22136280D02*
X15364736Y-22155328D01*
X15364736Y-22155328D02*
X15364736Y-22202947D01*
X15364736Y-22202947D02*
X15355212Y-22221994D01*
X15355212Y-22221994D02*
X15345688Y-22231518D01*
X15345688Y-22231518D02*
X15326640Y-22241042D01*
X15326640Y-22241042D02*
X15279021Y-22241042D01*
X15279021Y-22241042D02*
X15259974Y-22231518D01*
X15259974Y-22231518D02*
X15250450Y-22221994D01*
X15536164Y-22041042D02*
X15498069Y-22041042D01*
X15498069Y-22041042D02*
X15479021Y-22050566D01*
X15479021Y-22050566D02*
X15469498Y-22060090D01*
X15469498Y-22060090D02*
X15450450Y-22088661D01*
X15450450Y-22088661D02*
X15440926Y-22126756D01*
X15440926Y-22126756D02*
X15440926Y-22202947D01*
X15440926Y-22202947D02*
X15450450Y-22221994D01*
X15450450Y-22221994D02*
X15459974Y-22231518D01*
X15459974Y-22231518D02*
X15479021Y-22241042D01*
X15479021Y-22241042D02*
X15517117Y-22241042D01*
X15517117Y-22241042D02*
X15536164Y-22231518D01*
X15536164Y-22231518D02*
X15545688Y-22221994D01*
X15545688Y-22221994D02*
X15555212Y-22202947D01*
X15555212Y-22202947D02*
X15555212Y-22155328D01*
X15555212Y-22155328D02*
X15545688Y-22136280D01*
X15545688Y-22136280D02*
X15536164Y-22126756D01*
X15536164Y-22126756D02*
X15517117Y-22117232D01*
X15517117Y-22117232D02*
X15479021Y-22117232D01*
X15479021Y-22117232D02*
X15459974Y-22126756D01*
X15459974Y-22126756D02*
X15450450Y-22136280D01*
X15450450Y-22136280D02*
X15440926Y-22155328D01*
X15793307Y-22241042D02*
X15793307Y-22041042D01*
X15879021Y-22241042D02*
X15879021Y-22136280D01*
X15879021Y-22136280D02*
X15869498Y-22117232D01*
X15869498Y-22117232D02*
X15850450Y-22107709D01*
X15850450Y-22107709D02*
X15821879Y-22107709D01*
X15821879Y-22107709D02*
X15802831Y-22117232D01*
X15802831Y-22117232D02*
X15793307Y-22126756D01*
X16002831Y-22241042D02*
X15983783Y-22231518D01*
X15983783Y-22231518D02*
X15974260Y-22221994D01*
X15974260Y-22221994D02*
X15964736Y-22202947D01*
X15964736Y-22202947D02*
X15964736Y-22145804D01*
X15964736Y-22145804D02*
X15974260Y-22126756D01*
X15974260Y-22126756D02*
X15983783Y-22117232D01*
X15983783Y-22117232D02*
X16002831Y-22107709D01*
X16002831Y-22107709D02*
X16031402Y-22107709D01*
X16031402Y-22107709D02*
X16050450Y-22117232D01*
X16050450Y-22117232D02*
X16059974Y-22126756D01*
X16059974Y-22126756D02*
X16069498Y-22145804D01*
X16069498Y-22145804D02*
X16069498Y-22202947D01*
X16069498Y-22202947D02*
X16059974Y-22221994D01*
X16059974Y-22221994D02*
X16050450Y-22231518D01*
X16050450Y-22231518D02*
X16031402Y-22241042D01*
X16031402Y-22241042D02*
X16002831Y-22241042D01*
X16183783Y-22241042D02*
X16164736Y-22231518D01*
X16164736Y-22231518D02*
X16155212Y-22212470D01*
X16155212Y-22212470D02*
X16155212Y-22041042D01*
X16336164Y-22231518D02*
X16317117Y-22241042D01*
X16317117Y-22241042D02*
X16279021Y-22241042D01*
X16279021Y-22241042D02*
X16259974Y-22231518D01*
X16259974Y-22231518D02*
X16250450Y-22212470D01*
X16250450Y-22212470D02*
X16250450Y-22136280D01*
X16250450Y-22136280D02*
X16259974Y-22117232D01*
X16259974Y-22117232D02*
X16279021Y-22107709D01*
X16279021Y-22107709D02*
X16317117Y-22107709D01*
X16317117Y-22107709D02*
X16336164Y-22117232D01*
X16336164Y-22117232D02*
X16345688Y-22136280D01*
X16345688Y-22136280D02*
X16345688Y-22155328D01*
X16345688Y-22155328D02*
X16250450Y-22174375D01*
X16421879Y-22231518D02*
X16440926Y-22241042D01*
X16440926Y-22241042D02*
X16479021Y-22241042D01*
X16479021Y-22241042D02*
X16498069Y-22231518D01*
X16498069Y-22231518D02*
X16507593Y-22212470D01*
X16507593Y-22212470D02*
X16507593Y-22202947D01*
X16507593Y-22202947D02*
X16498069Y-22183899D01*
X16498069Y-22183899D02*
X16479021Y-22174375D01*
X16479021Y-22174375D02*
X16450450Y-22174375D01*
X16450450Y-22174375D02*
X16431402Y-22164851D01*
X16431402Y-22164851D02*
X16421879Y-22145804D01*
X16421879Y-22145804D02*
X16421879Y-22136280D01*
X16421879Y-22136280D02*
X16431402Y-22117232D01*
X16431402Y-22117232D02*
X16450450Y-22107709D01*
X16450450Y-22107709D02*
X16479021Y-22107709D01*
X16479021Y-22107709D02*
X16498069Y-22117232D01*
X16574260Y-22317232D02*
X16583783Y-22307709D01*
X16583783Y-22307709D02*
X16602831Y-22279137D01*
X16602831Y-22279137D02*
X16612355Y-22260090D01*
X16612355Y-22260090D02*
X16621879Y-22231518D01*
X16621879Y-22231518D02*
X16631402Y-22183899D01*
X16631402Y-22183899D02*
X16631402Y-22145804D01*
X16631402Y-22145804D02*
X16621879Y-22098185D01*
X16621879Y-22098185D02*
X16612355Y-22069613D01*
X16612355Y-22069613D02*
X16602831Y-22050566D01*
X16602831Y-22050566D02*
X16583783Y-22021994D01*
X16583783Y-22021994D02*
X16574260Y-22012470D01*
D12*
X11558720Y-22463558D02*
X11608720Y-22413558D01*
X11558720Y-22363558D01*
X11508720Y-22413558D01*
X11558720Y-22463558D01*
D11*
X11974259Y-22505042D02*
X11859973Y-22505042D01*
X11917116Y-22505042D02*
X11917116Y-22305042D01*
X11917116Y-22305042D02*
X11898069Y-22333613D01*
X11898069Y-22333613D02*
X11879021Y-22352661D01*
X11879021Y-22352661D02*
X11859973Y-22362185D01*
X12059973Y-22485994D02*
X12069497Y-22495518D01*
X12069497Y-22495518D02*
X12059973Y-22505042D01*
X12059973Y-22505042D02*
X12050450Y-22495518D01*
X12050450Y-22495518D02*
X12059973Y-22485994D01*
X12059973Y-22485994D02*
X12059973Y-22505042D01*
X12193307Y-22305042D02*
X12212354Y-22305042D01*
X12212354Y-22305042D02*
X12231402Y-22314566D01*
X12231402Y-22314566D02*
X12240926Y-22324090D01*
X12240926Y-22324090D02*
X12250450Y-22343137D01*
X12250450Y-22343137D02*
X12259973Y-22381232D01*
X12259973Y-22381232D02*
X12259973Y-22428851D01*
X12259973Y-22428851D02*
X12250450Y-22466947D01*
X12250450Y-22466947D02*
X12240926Y-22485994D01*
X12240926Y-22485994D02*
X12231402Y-22495518D01*
X12231402Y-22495518D02*
X12212354Y-22505042D01*
X12212354Y-22505042D02*
X12193307Y-22505042D01*
X12193307Y-22505042D02*
X12174259Y-22495518D01*
X12174259Y-22495518D02*
X12164735Y-22485994D01*
X12164735Y-22485994D02*
X12155212Y-22466947D01*
X12155212Y-22466947D02*
X12145688Y-22428851D01*
X12145688Y-22428851D02*
X12145688Y-22381232D01*
X12145688Y-22381232D02*
X12155212Y-22343137D01*
X12155212Y-22343137D02*
X12164735Y-22324090D01*
X12164735Y-22324090D02*
X12174259Y-22314566D01*
X12174259Y-22314566D02*
X12193307Y-22305042D01*
X12383783Y-22305042D02*
X12402831Y-22305042D01*
X12402831Y-22305042D02*
X12421878Y-22314566D01*
X12421878Y-22314566D02*
X12431402Y-22324090D01*
X12431402Y-22324090D02*
X12440926Y-22343137D01*
X12440926Y-22343137D02*
X12450450Y-22381232D01*
X12450450Y-22381232D02*
X12450450Y-22428851D01*
X12450450Y-22428851D02*
X12440926Y-22466947D01*
X12440926Y-22466947D02*
X12431402Y-22485994D01*
X12431402Y-22485994D02*
X12421878Y-22495518D01*
X12421878Y-22495518D02*
X12402831Y-22505042D01*
X12402831Y-22505042D02*
X12383783Y-22505042D01*
X12383783Y-22505042D02*
X12364735Y-22495518D01*
X12364735Y-22495518D02*
X12355212Y-22485994D01*
X12355212Y-22485994D02*
X12345688Y-22466947D01*
X12345688Y-22466947D02*
X12336164Y-22428851D01*
X12336164Y-22428851D02*
X12336164Y-22381232D01*
X12336164Y-22381232D02*
X12345688Y-22343137D01*
X12345688Y-22343137D02*
X12355212Y-22324090D01*
X12355212Y-22324090D02*
X12364735Y-22314566D01*
X12364735Y-22314566D02*
X12383783Y-22305042D01*
X12574259Y-22305042D02*
X12593307Y-22305042D01*
X12593307Y-22305042D02*
X12612354Y-22314566D01*
X12612354Y-22314566D02*
X12621878Y-22324090D01*
X12621878Y-22324090D02*
X12631402Y-22343137D01*
X12631402Y-22343137D02*
X12640926Y-22381232D01*
X12640926Y-22381232D02*
X12640926Y-22428851D01*
X12640926Y-22428851D02*
X12631402Y-22466947D01*
X12631402Y-22466947D02*
X12621878Y-22485994D01*
X12621878Y-22485994D02*
X12612354Y-22495518D01*
X12612354Y-22495518D02*
X12593307Y-22505042D01*
X12593307Y-22505042D02*
X12574259Y-22505042D01*
X12574259Y-22505042D02*
X12555212Y-22495518D01*
X12555212Y-22495518D02*
X12545688Y-22485994D01*
X12545688Y-22485994D02*
X12536164Y-22466947D01*
X12536164Y-22466947D02*
X12526640Y-22428851D01*
X12526640Y-22428851D02*
X12526640Y-22381232D01*
X12526640Y-22381232D02*
X12536164Y-22343137D01*
X12536164Y-22343137D02*
X12545688Y-22324090D01*
X12545688Y-22324090D02*
X12555212Y-22314566D01*
X12555212Y-22314566D02*
X12574259Y-22305042D01*
X12726640Y-22505042D02*
X12726640Y-22371708D01*
X12726640Y-22390756D02*
X12736164Y-22381232D01*
X12736164Y-22381232D02*
X12755212Y-22371708D01*
X12755212Y-22371708D02*
X12783783Y-22371708D01*
X12783783Y-22371708D02*
X12802831Y-22381232D01*
X12802831Y-22381232D02*
X12812354Y-22400280D01*
X12812354Y-22400280D02*
X12812354Y-22505042D01*
X12812354Y-22400280D02*
X12821878Y-22381232D01*
X12821878Y-22381232D02*
X12840926Y-22371708D01*
X12840926Y-22371708D02*
X12869497Y-22371708D01*
X12869497Y-22371708D02*
X12888545Y-22381232D01*
X12888545Y-22381232D02*
X12898069Y-22400280D01*
X12898069Y-22400280D02*
X12898069Y-22505042D01*
X12993307Y-22505042D02*
X12993307Y-22371708D01*
X12993307Y-22390756D02*
X13002831Y-22381232D01*
X13002831Y-22381232D02*
X13021878Y-22371708D01*
X13021878Y-22371708D02*
X13050450Y-22371708D01*
X13050450Y-22371708D02*
X13069497Y-22381232D01*
X13069497Y-22381232D02*
X13079021Y-22400280D01*
X13079021Y-22400280D02*
X13079021Y-22505042D01*
X13079021Y-22400280D02*
X13088545Y-22381232D01*
X13088545Y-22381232D02*
X13107593Y-22371708D01*
X13107593Y-22371708D02*
X13136164Y-22371708D01*
X13136164Y-22371708D02*
X13155212Y-22381232D01*
X13155212Y-22381232D02*
X13164735Y-22400280D01*
X13164735Y-22400280D02*
X13164735Y-22505042D01*
X13555212Y-22295518D02*
X13383783Y-22552661D01*
X13812355Y-22305042D02*
X13831402Y-22305042D01*
X13831402Y-22305042D02*
X13850450Y-22314566D01*
X13850450Y-22314566D02*
X13859974Y-22324090D01*
X13859974Y-22324090D02*
X13869497Y-22343137D01*
X13869497Y-22343137D02*
X13879021Y-22381232D01*
X13879021Y-22381232D02*
X13879021Y-22428851D01*
X13879021Y-22428851D02*
X13869497Y-22466947D01*
X13869497Y-22466947D02*
X13859974Y-22485994D01*
X13859974Y-22485994D02*
X13850450Y-22495518D01*
X13850450Y-22495518D02*
X13831402Y-22505042D01*
X13831402Y-22505042D02*
X13812355Y-22505042D01*
X13812355Y-22505042D02*
X13793307Y-22495518D01*
X13793307Y-22495518D02*
X13783783Y-22485994D01*
X13783783Y-22485994D02*
X13774259Y-22466947D01*
X13774259Y-22466947D02*
X13764736Y-22428851D01*
X13764736Y-22428851D02*
X13764736Y-22381232D01*
X13764736Y-22381232D02*
X13774259Y-22343137D01*
X13774259Y-22343137D02*
X13783783Y-22324090D01*
X13783783Y-22324090D02*
X13793307Y-22314566D01*
X13793307Y-22314566D02*
X13812355Y-22305042D01*
X13964736Y-22485994D02*
X13974259Y-22495518D01*
X13974259Y-22495518D02*
X13964736Y-22505042D01*
X13964736Y-22505042D02*
X13955212Y-22495518D01*
X13955212Y-22495518D02*
X13964736Y-22485994D01*
X13964736Y-22485994D02*
X13964736Y-22505042D01*
X14098069Y-22305042D02*
X14117117Y-22305042D01*
X14117117Y-22305042D02*
X14136164Y-22314566D01*
X14136164Y-22314566D02*
X14145688Y-22324090D01*
X14145688Y-22324090D02*
X14155212Y-22343137D01*
X14155212Y-22343137D02*
X14164736Y-22381232D01*
X14164736Y-22381232D02*
X14164736Y-22428851D01*
X14164736Y-22428851D02*
X14155212Y-22466947D01*
X14155212Y-22466947D02*
X14145688Y-22485994D01*
X14145688Y-22485994D02*
X14136164Y-22495518D01*
X14136164Y-22495518D02*
X14117117Y-22505042D01*
X14117117Y-22505042D02*
X14098069Y-22505042D01*
X14098069Y-22505042D02*
X14079021Y-22495518D01*
X14079021Y-22495518D02*
X14069497Y-22485994D01*
X14069497Y-22485994D02*
X14059974Y-22466947D01*
X14059974Y-22466947D02*
X14050450Y-22428851D01*
X14050450Y-22428851D02*
X14050450Y-22381232D01*
X14050450Y-22381232D02*
X14059974Y-22343137D01*
X14059974Y-22343137D02*
X14069497Y-22324090D01*
X14069497Y-22324090D02*
X14079021Y-22314566D01*
X14079021Y-22314566D02*
X14098069Y-22305042D01*
X14231402Y-22305042D02*
X14355212Y-22305042D01*
X14355212Y-22305042D02*
X14288545Y-22381232D01*
X14288545Y-22381232D02*
X14317117Y-22381232D01*
X14317117Y-22381232D02*
X14336164Y-22390756D01*
X14336164Y-22390756D02*
X14345688Y-22400280D01*
X14345688Y-22400280D02*
X14355212Y-22419328D01*
X14355212Y-22419328D02*
X14355212Y-22466947D01*
X14355212Y-22466947D02*
X14345688Y-22485994D01*
X14345688Y-22485994D02*
X14336164Y-22495518D01*
X14336164Y-22495518D02*
X14317117Y-22505042D01*
X14317117Y-22505042D02*
X14259974Y-22505042D01*
X14259974Y-22505042D02*
X14240926Y-22495518D01*
X14240926Y-22495518D02*
X14231402Y-22485994D01*
X14450450Y-22505042D02*
X14488545Y-22505042D01*
X14488545Y-22505042D02*
X14507593Y-22495518D01*
X14507593Y-22495518D02*
X14517117Y-22485994D01*
X14517117Y-22485994D02*
X14536164Y-22457423D01*
X14536164Y-22457423D02*
X14545688Y-22419328D01*
X14545688Y-22419328D02*
X14545688Y-22343137D01*
X14545688Y-22343137D02*
X14536164Y-22324090D01*
X14536164Y-22324090D02*
X14526640Y-22314566D01*
X14526640Y-22314566D02*
X14507593Y-22305042D01*
X14507593Y-22305042D02*
X14469497Y-22305042D01*
X14469497Y-22305042D02*
X14450450Y-22314566D01*
X14450450Y-22314566D02*
X14440926Y-22324090D01*
X14440926Y-22324090D02*
X14431402Y-22343137D01*
X14431402Y-22343137D02*
X14431402Y-22390756D01*
X14431402Y-22390756D02*
X14440926Y-22409804D01*
X14440926Y-22409804D02*
X14450450Y-22419328D01*
X14450450Y-22419328D02*
X14469497Y-22428851D01*
X14469497Y-22428851D02*
X14507593Y-22428851D01*
X14507593Y-22428851D02*
X14526640Y-22419328D01*
X14526640Y-22419328D02*
X14536164Y-22409804D01*
X14536164Y-22409804D02*
X14545688Y-22390756D01*
X14717117Y-22371708D02*
X14717117Y-22505042D01*
X14669497Y-22295518D02*
X14621878Y-22438375D01*
X14621878Y-22438375D02*
X14745688Y-22438375D01*
X14812355Y-22305042D02*
X14812355Y-22343137D01*
X14888545Y-22305042D02*
X14888545Y-22343137D01*
X15183783Y-22581232D02*
X15174259Y-22571708D01*
X15174259Y-22571708D02*
X15155212Y-22543137D01*
X15155212Y-22543137D02*
X15145688Y-22524089D01*
X15145688Y-22524089D02*
X15136164Y-22495518D01*
X15136164Y-22495518D02*
X15126640Y-22447899D01*
X15126640Y-22447899D02*
X15126640Y-22409804D01*
X15126640Y-22409804D02*
X15136164Y-22362185D01*
X15136164Y-22362185D02*
X15145688Y-22333613D01*
X15145688Y-22333613D02*
X15155212Y-22314566D01*
X15155212Y-22314566D02*
X15174259Y-22285994D01*
X15174259Y-22285994D02*
X15183783Y-22276470D01*
X15250450Y-22324090D02*
X15259974Y-22314566D01*
X15259974Y-22314566D02*
X15279021Y-22305042D01*
X15279021Y-22305042D02*
X15326640Y-22305042D01*
X15326640Y-22305042D02*
X15345688Y-22314566D01*
X15345688Y-22314566D02*
X15355212Y-22324090D01*
X15355212Y-22324090D02*
X15364736Y-22343137D01*
X15364736Y-22343137D02*
X15364736Y-22362185D01*
X15364736Y-22362185D02*
X15355212Y-22390756D01*
X15355212Y-22390756D02*
X15240926Y-22505042D01*
X15240926Y-22505042D02*
X15364736Y-22505042D01*
X15459974Y-22505042D02*
X15498069Y-22505042D01*
X15498069Y-22505042D02*
X15517117Y-22495518D01*
X15517117Y-22495518D02*
X15526640Y-22485994D01*
X15526640Y-22485994D02*
X15545688Y-22457423D01*
X15545688Y-22457423D02*
X15555212Y-22419328D01*
X15555212Y-22419328D02*
X15555212Y-22343137D01*
X15555212Y-22343137D02*
X15545688Y-22324090D01*
X15545688Y-22324090D02*
X15536164Y-22314566D01*
X15536164Y-22314566D02*
X15517117Y-22305042D01*
X15517117Y-22305042D02*
X15479021Y-22305042D01*
X15479021Y-22305042D02*
X15459974Y-22314566D01*
X15459974Y-22314566D02*
X15450450Y-22324090D01*
X15450450Y-22324090D02*
X15440926Y-22343137D01*
X15440926Y-22343137D02*
X15440926Y-22390756D01*
X15440926Y-22390756D02*
X15450450Y-22409804D01*
X15450450Y-22409804D02*
X15459974Y-22419328D01*
X15459974Y-22419328D02*
X15479021Y-22428851D01*
X15479021Y-22428851D02*
X15517117Y-22428851D01*
X15517117Y-22428851D02*
X15536164Y-22419328D01*
X15536164Y-22419328D02*
X15545688Y-22409804D01*
X15545688Y-22409804D02*
X15555212Y-22390756D01*
X15793307Y-22505042D02*
X15793307Y-22305042D01*
X15879021Y-22505042D02*
X15879021Y-22400280D01*
X15879021Y-22400280D02*
X15869498Y-22381232D01*
X15869498Y-22381232D02*
X15850450Y-22371708D01*
X15850450Y-22371708D02*
X15821879Y-22371708D01*
X15821879Y-22371708D02*
X15802831Y-22381232D01*
X15802831Y-22381232D02*
X15793307Y-22390756D01*
X16002831Y-22505042D02*
X15983783Y-22495518D01*
X15983783Y-22495518D02*
X15974260Y-22485994D01*
X15974260Y-22485994D02*
X15964736Y-22466947D01*
X15964736Y-22466947D02*
X15964736Y-22409804D01*
X15964736Y-22409804D02*
X15974260Y-22390756D01*
X15974260Y-22390756D02*
X15983783Y-22381232D01*
X15983783Y-22381232D02*
X16002831Y-22371708D01*
X16002831Y-22371708D02*
X16031402Y-22371708D01*
X16031402Y-22371708D02*
X16050450Y-22381232D01*
X16050450Y-22381232D02*
X16059974Y-22390756D01*
X16059974Y-22390756D02*
X16069498Y-22409804D01*
X16069498Y-22409804D02*
X16069498Y-22466947D01*
X16069498Y-22466947D02*
X16059974Y-22485994D01*
X16059974Y-22485994D02*
X16050450Y-22495518D01*
X16050450Y-22495518D02*
X16031402Y-22505042D01*
X16031402Y-22505042D02*
X16002831Y-22505042D01*
X16183783Y-22505042D02*
X16164736Y-22495518D01*
X16164736Y-22495518D02*
X16155212Y-22476470D01*
X16155212Y-22476470D02*
X16155212Y-22305042D01*
X16336164Y-22495518D02*
X16317117Y-22505042D01*
X16317117Y-22505042D02*
X16279021Y-22505042D01*
X16279021Y-22505042D02*
X16259974Y-22495518D01*
X16259974Y-22495518D02*
X16250450Y-22476470D01*
X16250450Y-22476470D02*
X16250450Y-22400280D01*
X16250450Y-22400280D02*
X16259974Y-22381232D01*
X16259974Y-22381232D02*
X16279021Y-22371708D01*
X16279021Y-22371708D02*
X16317117Y-22371708D01*
X16317117Y-22371708D02*
X16336164Y-22381232D01*
X16336164Y-22381232D02*
X16345688Y-22400280D01*
X16345688Y-22400280D02*
X16345688Y-22419328D01*
X16345688Y-22419328D02*
X16250450Y-22438375D01*
X16421879Y-22495518D02*
X16440926Y-22505042D01*
X16440926Y-22505042D02*
X16479021Y-22505042D01*
X16479021Y-22505042D02*
X16498069Y-22495518D01*
X16498069Y-22495518D02*
X16507593Y-22476470D01*
X16507593Y-22476470D02*
X16507593Y-22466947D01*
X16507593Y-22466947D02*
X16498069Y-22447899D01*
X16498069Y-22447899D02*
X16479021Y-22438375D01*
X16479021Y-22438375D02*
X16450450Y-22438375D01*
X16450450Y-22438375D02*
X16431402Y-22428851D01*
X16431402Y-22428851D02*
X16421879Y-22409804D01*
X16421879Y-22409804D02*
X16421879Y-22400280D01*
X16421879Y-22400280D02*
X16431402Y-22381232D01*
X16431402Y-22381232D02*
X16450450Y-22371708D01*
X16450450Y-22371708D02*
X16479021Y-22371708D01*
X16479021Y-22371708D02*
X16498069Y-22381232D01*
X16574260Y-22581232D02*
X16583783Y-22571708D01*
X16583783Y-22571708D02*
X16602831Y-22543137D01*
X16602831Y-22543137D02*
X16612355Y-22524089D01*
X16612355Y-22524089D02*
X16621879Y-22495518D01*
X16621879Y-22495518D02*
X16631402Y-22447899D01*
X16631402Y-22447899D02*
X16631402Y-22409804D01*
X16631402Y-22409804D02*
X16621879Y-22362185D01*
X16621879Y-22362185D02*
X16612355Y-22333613D01*
X16612355Y-22333613D02*
X16602831Y-22314566D01*
X16602831Y-22314566D02*
X16583783Y-22285994D01*
X16583783Y-22285994D02*
X16574260Y-22276470D01*
D10*
X11458720Y-22602558D02*
X11608720Y-22752558D01*
X11608720Y-22602558D02*
X11458720Y-22752558D01*
X11608720Y-22677558D02*
G75*
G02*
X11458720Y-22677558I-75000J0D01*
G01*
X11458720Y-22677558D02*
G75*
G02*
X11608720Y-22677558I75000J0D01*
G01*
D11*
X11974259Y-22769042D02*
X11859973Y-22769042D01*
X11917116Y-22769042D02*
X11917116Y-22569042D01*
X11917116Y-22569042D02*
X11898069Y-22597613D01*
X11898069Y-22597613D02*
X11879021Y-22616661D01*
X11879021Y-22616661D02*
X11859973Y-22626185D01*
X12059973Y-22749994D02*
X12069497Y-22759518D01*
X12069497Y-22759518D02*
X12059973Y-22769042D01*
X12059973Y-22769042D02*
X12050450Y-22759518D01*
X12050450Y-22759518D02*
X12059973Y-22749994D01*
X12059973Y-22749994D02*
X12059973Y-22769042D01*
X12250450Y-22569042D02*
X12155212Y-22569042D01*
X12155212Y-22569042D02*
X12145688Y-22664280D01*
X12145688Y-22664280D02*
X12155212Y-22654756D01*
X12155212Y-22654756D02*
X12174259Y-22645232D01*
X12174259Y-22645232D02*
X12221878Y-22645232D01*
X12221878Y-22645232D02*
X12240926Y-22654756D01*
X12240926Y-22654756D02*
X12250450Y-22664280D01*
X12250450Y-22664280D02*
X12259973Y-22683328D01*
X12259973Y-22683328D02*
X12259973Y-22730947D01*
X12259973Y-22730947D02*
X12250450Y-22749994D01*
X12250450Y-22749994D02*
X12240926Y-22759518D01*
X12240926Y-22759518D02*
X12221878Y-22769042D01*
X12221878Y-22769042D02*
X12174259Y-22769042D01*
X12174259Y-22769042D02*
X12155212Y-22759518D01*
X12155212Y-22759518D02*
X12145688Y-22749994D01*
X12383783Y-22569042D02*
X12402831Y-22569042D01*
X12402831Y-22569042D02*
X12421878Y-22578566D01*
X12421878Y-22578566D02*
X12431402Y-22588089D01*
X12431402Y-22588089D02*
X12440926Y-22607137D01*
X12440926Y-22607137D02*
X12450450Y-22645232D01*
X12450450Y-22645232D02*
X12450450Y-22692851D01*
X12450450Y-22692851D02*
X12440926Y-22730947D01*
X12440926Y-22730947D02*
X12431402Y-22749994D01*
X12431402Y-22749994D02*
X12421878Y-22759518D01*
X12421878Y-22759518D02*
X12402831Y-22769042D01*
X12402831Y-22769042D02*
X12383783Y-22769042D01*
X12383783Y-22769042D02*
X12364735Y-22759518D01*
X12364735Y-22759518D02*
X12355212Y-22749994D01*
X12355212Y-22749994D02*
X12345688Y-22730947D01*
X12345688Y-22730947D02*
X12336164Y-22692851D01*
X12336164Y-22692851D02*
X12336164Y-22645232D01*
X12336164Y-22645232D02*
X12345688Y-22607137D01*
X12345688Y-22607137D02*
X12355212Y-22588089D01*
X12355212Y-22588089D02*
X12364735Y-22578566D01*
X12364735Y-22578566D02*
X12383783Y-22569042D01*
X12574259Y-22569042D02*
X12593307Y-22569042D01*
X12593307Y-22569042D02*
X12612354Y-22578566D01*
X12612354Y-22578566D02*
X12621878Y-22588089D01*
X12621878Y-22588089D02*
X12631402Y-22607137D01*
X12631402Y-22607137D02*
X12640926Y-22645232D01*
X12640926Y-22645232D02*
X12640926Y-22692851D01*
X12640926Y-22692851D02*
X12631402Y-22730947D01*
X12631402Y-22730947D02*
X12621878Y-22749994D01*
X12621878Y-22749994D02*
X12612354Y-22759518D01*
X12612354Y-22759518D02*
X12593307Y-22769042D01*
X12593307Y-22769042D02*
X12574259Y-22769042D01*
X12574259Y-22769042D02*
X12555212Y-22759518D01*
X12555212Y-22759518D02*
X12545688Y-22749994D01*
X12545688Y-22749994D02*
X12536164Y-22730947D01*
X12536164Y-22730947D02*
X12526640Y-22692851D01*
X12526640Y-22692851D02*
X12526640Y-22645232D01*
X12526640Y-22645232D02*
X12536164Y-22607137D01*
X12536164Y-22607137D02*
X12545688Y-22588089D01*
X12545688Y-22588089D02*
X12555212Y-22578566D01*
X12555212Y-22578566D02*
X12574259Y-22569042D01*
X12726640Y-22769042D02*
X12726640Y-22635708D01*
X12726640Y-22654756D02*
X12736164Y-22645232D01*
X12736164Y-22645232D02*
X12755212Y-22635708D01*
X12755212Y-22635708D02*
X12783783Y-22635708D01*
X12783783Y-22635708D02*
X12802831Y-22645232D01*
X12802831Y-22645232D02*
X12812354Y-22664280D01*
X12812354Y-22664280D02*
X12812354Y-22769042D01*
X12812354Y-22664280D02*
X12821878Y-22645232D01*
X12821878Y-22645232D02*
X12840926Y-22635708D01*
X12840926Y-22635708D02*
X12869497Y-22635708D01*
X12869497Y-22635708D02*
X12888545Y-22645232D01*
X12888545Y-22645232D02*
X12898069Y-22664280D01*
X12898069Y-22664280D02*
X12898069Y-22769042D01*
X12993307Y-22769042D02*
X12993307Y-22635708D01*
X12993307Y-22654756D02*
X13002831Y-22645232D01*
X13002831Y-22645232D02*
X13021878Y-22635708D01*
X13021878Y-22635708D02*
X13050450Y-22635708D01*
X13050450Y-22635708D02*
X13069497Y-22645232D01*
X13069497Y-22645232D02*
X13079021Y-22664280D01*
X13079021Y-22664280D02*
X13079021Y-22769042D01*
X13079021Y-22664280D02*
X13088545Y-22645232D01*
X13088545Y-22645232D02*
X13107593Y-22635708D01*
X13107593Y-22635708D02*
X13136164Y-22635708D01*
X13136164Y-22635708D02*
X13155212Y-22645232D01*
X13155212Y-22645232D02*
X13164735Y-22664280D01*
X13164735Y-22664280D02*
X13164735Y-22769042D01*
X13555212Y-22559518D02*
X13383783Y-22816661D01*
X13812355Y-22569042D02*
X13831402Y-22569042D01*
X13831402Y-22569042D02*
X13850450Y-22578566D01*
X13850450Y-22578566D02*
X13859974Y-22588089D01*
X13859974Y-22588089D02*
X13869497Y-22607137D01*
X13869497Y-22607137D02*
X13879021Y-22645232D01*
X13879021Y-22645232D02*
X13879021Y-22692851D01*
X13879021Y-22692851D02*
X13869497Y-22730947D01*
X13869497Y-22730947D02*
X13859974Y-22749994D01*
X13859974Y-22749994D02*
X13850450Y-22759518D01*
X13850450Y-22759518D02*
X13831402Y-22769042D01*
X13831402Y-22769042D02*
X13812355Y-22769042D01*
X13812355Y-22769042D02*
X13793307Y-22759518D01*
X13793307Y-22759518D02*
X13783783Y-22749994D01*
X13783783Y-22749994D02*
X13774259Y-22730947D01*
X13774259Y-22730947D02*
X13764736Y-22692851D01*
X13764736Y-22692851D02*
X13764736Y-22645232D01*
X13764736Y-22645232D02*
X13774259Y-22607137D01*
X13774259Y-22607137D02*
X13783783Y-22588089D01*
X13783783Y-22588089D02*
X13793307Y-22578566D01*
X13793307Y-22578566D02*
X13812355Y-22569042D01*
X13964736Y-22749994D02*
X13974259Y-22759518D01*
X13974259Y-22759518D02*
X13964736Y-22769042D01*
X13964736Y-22769042D02*
X13955212Y-22759518D01*
X13955212Y-22759518D02*
X13964736Y-22749994D01*
X13964736Y-22749994D02*
X13964736Y-22769042D01*
X14098069Y-22569042D02*
X14117117Y-22569042D01*
X14117117Y-22569042D02*
X14136164Y-22578566D01*
X14136164Y-22578566D02*
X14145688Y-22588089D01*
X14145688Y-22588089D02*
X14155212Y-22607137D01*
X14155212Y-22607137D02*
X14164736Y-22645232D01*
X14164736Y-22645232D02*
X14164736Y-22692851D01*
X14164736Y-22692851D02*
X14155212Y-22730947D01*
X14155212Y-22730947D02*
X14145688Y-22749994D01*
X14145688Y-22749994D02*
X14136164Y-22759518D01*
X14136164Y-22759518D02*
X14117117Y-22769042D01*
X14117117Y-22769042D02*
X14098069Y-22769042D01*
X14098069Y-22769042D02*
X14079021Y-22759518D01*
X14079021Y-22759518D02*
X14069497Y-22749994D01*
X14069497Y-22749994D02*
X14059974Y-22730947D01*
X14059974Y-22730947D02*
X14050450Y-22692851D01*
X14050450Y-22692851D02*
X14050450Y-22645232D01*
X14050450Y-22645232D02*
X14059974Y-22607137D01*
X14059974Y-22607137D02*
X14069497Y-22588089D01*
X14069497Y-22588089D02*
X14079021Y-22578566D01*
X14079021Y-22578566D02*
X14098069Y-22569042D01*
X14345688Y-22569042D02*
X14250450Y-22569042D01*
X14250450Y-22569042D02*
X14240926Y-22664280D01*
X14240926Y-22664280D02*
X14250450Y-22654756D01*
X14250450Y-22654756D02*
X14269497Y-22645232D01*
X14269497Y-22645232D02*
X14317117Y-22645232D01*
X14317117Y-22645232D02*
X14336164Y-22654756D01*
X14336164Y-22654756D02*
X14345688Y-22664280D01*
X14345688Y-22664280D02*
X14355212Y-22683328D01*
X14355212Y-22683328D02*
X14355212Y-22730947D01*
X14355212Y-22730947D02*
X14345688Y-22749994D01*
X14345688Y-22749994D02*
X14336164Y-22759518D01*
X14336164Y-22759518D02*
X14317117Y-22769042D01*
X14317117Y-22769042D02*
X14269497Y-22769042D01*
X14269497Y-22769042D02*
X14250450Y-22759518D01*
X14250450Y-22759518D02*
X14240926Y-22749994D01*
X14450450Y-22769042D02*
X14488545Y-22769042D01*
X14488545Y-22769042D02*
X14507593Y-22759518D01*
X14507593Y-22759518D02*
X14517117Y-22749994D01*
X14517117Y-22749994D02*
X14536164Y-22721423D01*
X14536164Y-22721423D02*
X14545688Y-22683328D01*
X14545688Y-22683328D02*
X14545688Y-22607137D01*
X14545688Y-22607137D02*
X14536164Y-22588089D01*
X14536164Y-22588089D02*
X14526640Y-22578566D01*
X14526640Y-22578566D02*
X14507593Y-22569042D01*
X14507593Y-22569042D02*
X14469497Y-22569042D01*
X14469497Y-22569042D02*
X14450450Y-22578566D01*
X14450450Y-22578566D02*
X14440926Y-22588089D01*
X14440926Y-22588089D02*
X14431402Y-22607137D01*
X14431402Y-22607137D02*
X14431402Y-22654756D01*
X14431402Y-22654756D02*
X14440926Y-22673804D01*
X14440926Y-22673804D02*
X14450450Y-22683328D01*
X14450450Y-22683328D02*
X14469497Y-22692851D01*
X14469497Y-22692851D02*
X14507593Y-22692851D01*
X14507593Y-22692851D02*
X14526640Y-22683328D01*
X14526640Y-22683328D02*
X14536164Y-22673804D01*
X14536164Y-22673804D02*
X14545688Y-22654756D01*
X14736164Y-22769042D02*
X14621878Y-22769042D01*
X14679021Y-22769042D02*
X14679021Y-22569042D01*
X14679021Y-22569042D02*
X14659974Y-22597613D01*
X14659974Y-22597613D02*
X14640926Y-22616661D01*
X14640926Y-22616661D02*
X14621878Y-22626185D01*
X14812355Y-22569042D02*
X14812355Y-22607137D01*
X14888545Y-22569042D02*
X14888545Y-22607137D01*
X15183783Y-22845232D02*
X15174259Y-22835708D01*
X15174259Y-22835708D02*
X15155212Y-22807137D01*
X15155212Y-22807137D02*
X15145688Y-22788089D01*
X15145688Y-22788089D02*
X15136164Y-22759518D01*
X15136164Y-22759518D02*
X15126640Y-22711899D01*
X15126640Y-22711899D02*
X15126640Y-22673804D01*
X15126640Y-22673804D02*
X15136164Y-22626185D01*
X15136164Y-22626185D02*
X15145688Y-22597613D01*
X15145688Y-22597613D02*
X15155212Y-22578566D01*
X15155212Y-22578566D02*
X15174259Y-22549994D01*
X15174259Y-22549994D02*
X15183783Y-22540470D01*
X15298069Y-22569042D02*
X15317117Y-22569042D01*
X15317117Y-22569042D02*
X15336164Y-22578566D01*
X15336164Y-22578566D02*
X15345688Y-22588089D01*
X15345688Y-22588089D02*
X15355212Y-22607137D01*
X15355212Y-22607137D02*
X15364736Y-22645232D01*
X15364736Y-22645232D02*
X15364736Y-22692851D01*
X15364736Y-22692851D02*
X15355212Y-22730947D01*
X15355212Y-22730947D02*
X15345688Y-22749994D01*
X15345688Y-22749994D02*
X15336164Y-22759518D01*
X15336164Y-22759518D02*
X15317117Y-22769042D01*
X15317117Y-22769042D02*
X15298069Y-22769042D01*
X15298069Y-22769042D02*
X15279021Y-22759518D01*
X15279021Y-22759518D02*
X15269498Y-22749994D01*
X15269498Y-22749994D02*
X15259974Y-22730947D01*
X15259974Y-22730947D02*
X15250450Y-22692851D01*
X15250450Y-22692851D02*
X15250450Y-22645232D01*
X15250450Y-22645232D02*
X15259974Y-22607137D01*
X15259974Y-22607137D02*
X15269498Y-22588089D01*
X15269498Y-22588089D02*
X15279021Y-22578566D01*
X15279021Y-22578566D02*
X15298069Y-22569042D01*
X15602831Y-22769042D02*
X15602831Y-22569042D01*
X15688545Y-22769042D02*
X15688545Y-22664280D01*
X15688545Y-22664280D02*
X15679021Y-22645232D01*
X15679021Y-22645232D02*
X15659974Y-22635708D01*
X15659974Y-22635708D02*
X15631402Y-22635708D01*
X15631402Y-22635708D02*
X15612355Y-22645232D01*
X15612355Y-22645232D02*
X15602831Y-22654756D01*
X15812355Y-22769042D02*
X15793307Y-22759518D01*
X15793307Y-22759518D02*
X15783783Y-22749994D01*
X15783783Y-22749994D02*
X15774260Y-22730947D01*
X15774260Y-22730947D02*
X15774260Y-22673804D01*
X15774260Y-22673804D02*
X15783783Y-22654756D01*
X15783783Y-22654756D02*
X15793307Y-22645232D01*
X15793307Y-22645232D02*
X15812355Y-22635708D01*
X15812355Y-22635708D02*
X15840926Y-22635708D01*
X15840926Y-22635708D02*
X15859974Y-22645232D01*
X15859974Y-22645232D02*
X15869498Y-22654756D01*
X15869498Y-22654756D02*
X15879021Y-22673804D01*
X15879021Y-22673804D02*
X15879021Y-22730947D01*
X15879021Y-22730947D02*
X15869498Y-22749994D01*
X15869498Y-22749994D02*
X15859974Y-22759518D01*
X15859974Y-22759518D02*
X15840926Y-22769042D01*
X15840926Y-22769042D02*
X15812355Y-22769042D01*
X15993307Y-22769042D02*
X15974260Y-22759518D01*
X15974260Y-22759518D02*
X15964736Y-22740470D01*
X15964736Y-22740470D02*
X15964736Y-22569042D01*
X16145688Y-22759518D02*
X16126641Y-22769042D01*
X16126641Y-22769042D02*
X16088545Y-22769042D01*
X16088545Y-22769042D02*
X16069498Y-22759518D01*
X16069498Y-22759518D02*
X16059974Y-22740470D01*
X16059974Y-22740470D02*
X16059974Y-22664280D01*
X16059974Y-22664280D02*
X16069498Y-22645232D01*
X16069498Y-22645232D02*
X16088545Y-22635708D01*
X16088545Y-22635708D02*
X16126641Y-22635708D01*
X16126641Y-22635708D02*
X16145688Y-22645232D01*
X16145688Y-22645232D02*
X16155212Y-22664280D01*
X16155212Y-22664280D02*
X16155212Y-22683328D01*
X16155212Y-22683328D02*
X16059974Y-22702375D01*
X16231402Y-22759518D02*
X16250450Y-22769042D01*
X16250450Y-22769042D02*
X16288545Y-22769042D01*
X16288545Y-22769042D02*
X16307593Y-22759518D01*
X16307593Y-22759518D02*
X16317117Y-22740470D01*
X16317117Y-22740470D02*
X16317117Y-22730947D01*
X16317117Y-22730947D02*
X16307593Y-22711899D01*
X16307593Y-22711899D02*
X16288545Y-22702375D01*
X16288545Y-22702375D02*
X16259974Y-22702375D01*
X16259974Y-22702375D02*
X16240926Y-22692851D01*
X16240926Y-22692851D02*
X16231402Y-22673804D01*
X16231402Y-22673804D02*
X16231402Y-22664280D01*
X16231402Y-22664280D02*
X16240926Y-22645232D01*
X16240926Y-22645232D02*
X16259974Y-22635708D01*
X16259974Y-22635708D02*
X16288545Y-22635708D01*
X16288545Y-22635708D02*
X16307593Y-22645232D01*
X16555212Y-22692851D02*
X16707593Y-22692851D01*
X16631403Y-22769042D02*
X16631403Y-22616661D01*
X16945688Y-22588089D02*
X16955212Y-22578566D01*
X16955212Y-22578566D02*
X16974260Y-22569042D01*
X16974260Y-22569042D02*
X17021879Y-22569042D01*
X17021879Y-22569042D02*
X17040926Y-22578566D01*
X17040926Y-22578566D02*
X17050450Y-22588089D01*
X17050450Y-22588089D02*
X17059974Y-22607137D01*
X17059974Y-22607137D02*
X17059974Y-22626185D01*
X17059974Y-22626185D02*
X17050450Y-22654756D01*
X17050450Y-22654756D02*
X16936165Y-22769042D01*
X16936165Y-22769042D02*
X17059974Y-22769042D01*
X17288546Y-22759518D02*
X17307593Y-22769042D01*
X17307593Y-22769042D02*
X17345688Y-22769042D01*
X17345688Y-22769042D02*
X17364736Y-22759518D01*
X17364736Y-22759518D02*
X17374260Y-22740470D01*
X17374260Y-22740470D02*
X17374260Y-22730947D01*
X17374260Y-22730947D02*
X17364736Y-22711899D01*
X17364736Y-22711899D02*
X17345688Y-22702375D01*
X17345688Y-22702375D02*
X17317117Y-22702375D01*
X17317117Y-22702375D02*
X17298069Y-22692851D01*
X17298069Y-22692851D02*
X17288546Y-22673804D01*
X17288546Y-22673804D02*
X17288546Y-22664280D01*
X17288546Y-22664280D02*
X17298069Y-22645232D01*
X17298069Y-22645232D02*
X17317117Y-22635708D01*
X17317117Y-22635708D02*
X17345688Y-22635708D01*
X17345688Y-22635708D02*
X17364736Y-22645232D01*
X17488546Y-22769042D02*
X17469498Y-22759518D01*
X17469498Y-22759518D02*
X17459974Y-22740470D01*
X17459974Y-22740470D02*
X17459974Y-22569042D01*
X17593307Y-22769042D02*
X17574260Y-22759518D01*
X17574260Y-22759518D02*
X17564736Y-22749994D01*
X17564736Y-22749994D02*
X17555212Y-22730947D01*
X17555212Y-22730947D02*
X17555212Y-22673804D01*
X17555212Y-22673804D02*
X17564736Y-22654756D01*
X17564736Y-22654756D02*
X17574260Y-22645232D01*
X17574260Y-22645232D02*
X17593307Y-22635708D01*
X17593307Y-22635708D02*
X17621879Y-22635708D01*
X17621879Y-22635708D02*
X17640927Y-22645232D01*
X17640927Y-22645232D02*
X17650450Y-22654756D01*
X17650450Y-22654756D02*
X17659974Y-22673804D01*
X17659974Y-22673804D02*
X17659974Y-22730947D01*
X17659974Y-22730947D02*
X17650450Y-22749994D01*
X17650450Y-22749994D02*
X17640927Y-22759518D01*
X17640927Y-22759518D02*
X17621879Y-22769042D01*
X17621879Y-22769042D02*
X17593307Y-22769042D01*
X17717117Y-22635708D02*
X17793307Y-22635708D01*
X17745688Y-22569042D02*
X17745688Y-22740470D01*
X17745688Y-22740470D02*
X17755212Y-22759518D01*
X17755212Y-22759518D02*
X17774260Y-22769042D01*
X17774260Y-22769042D02*
X17793307Y-22769042D01*
X17850450Y-22759518D02*
X17869498Y-22769042D01*
X17869498Y-22769042D02*
X17907593Y-22769042D01*
X17907593Y-22769042D02*
X17926641Y-22759518D01*
X17926641Y-22759518D02*
X17936165Y-22740470D01*
X17936165Y-22740470D02*
X17936165Y-22730947D01*
X17936165Y-22730947D02*
X17926641Y-22711899D01*
X17926641Y-22711899D02*
X17907593Y-22702375D01*
X17907593Y-22702375D02*
X17879022Y-22702375D01*
X17879022Y-22702375D02*
X17859974Y-22692851D01*
X17859974Y-22692851D02*
X17850450Y-22673804D01*
X17850450Y-22673804D02*
X17850450Y-22664280D01*
X17850450Y-22664280D02*
X17859974Y-22645232D01*
X17859974Y-22645232D02*
X17879022Y-22635708D01*
X17879022Y-22635708D02*
X17907593Y-22635708D01*
X17907593Y-22635708D02*
X17926641Y-22645232D01*
X18002831Y-22845232D02*
X18012355Y-22835708D01*
X18012355Y-22835708D02*
X18031403Y-22807137D01*
X18031403Y-22807137D02*
X18040927Y-22788089D01*
X18040927Y-22788089D02*
X18050450Y-22759518D01*
X18050450Y-22759518D02*
X18059974Y-22711899D01*
X18059974Y-22711899D02*
X18059974Y-22673804D01*
X18059974Y-22673804D02*
X18050450Y-22626185D01*
X18050450Y-22626185D02*
X18040927Y-22597613D01*
X18040927Y-22597613D02*
X18031403Y-22578566D01*
X18031403Y-22578566D02*
X18012355Y-22549994D01*
X18012355Y-22549994D02*
X18002831Y-22540470D01*
X11408720Y-22847558D02*
X11608720Y-23047558D01*
X11608720Y-22847558D02*
X11408720Y-23047558D01*
X11508720Y-22847558D02*
X11508720Y-23047558D01*
X11408720Y-22947558D02*
X11608720Y-22947558D01*
X11850450Y-22839042D02*
X11974259Y-22839042D01*
X11974259Y-22839042D02*
X11907592Y-22915232D01*
X11907592Y-22915232D02*
X11936164Y-22915232D01*
X11936164Y-22915232D02*
X11955212Y-22924756D01*
X11955212Y-22924756D02*
X11964735Y-22934280D01*
X11964735Y-22934280D02*
X11974259Y-22953328D01*
X11974259Y-22953328D02*
X11974259Y-23000947D01*
X11974259Y-23000947D02*
X11964735Y-23019994D01*
X11964735Y-23019994D02*
X11955212Y-23029518D01*
X11955212Y-23029518D02*
X11936164Y-23039042D01*
X11936164Y-23039042D02*
X11879021Y-23039042D01*
X11879021Y-23039042D02*
X11859973Y-23029518D01*
X11859973Y-23029518D02*
X11850450Y-23019994D01*
X12059973Y-23019994D02*
X12069497Y-23029518D01*
X12069497Y-23029518D02*
X12059973Y-23039042D01*
X12059973Y-23039042D02*
X12050450Y-23029518D01*
X12050450Y-23029518D02*
X12059973Y-23019994D01*
X12059973Y-23019994D02*
X12059973Y-23039042D01*
X12145688Y-22858089D02*
X12155212Y-22848566D01*
X12155212Y-22848566D02*
X12174259Y-22839042D01*
X12174259Y-22839042D02*
X12221878Y-22839042D01*
X12221878Y-22839042D02*
X12240926Y-22848566D01*
X12240926Y-22848566D02*
X12250450Y-22858089D01*
X12250450Y-22858089D02*
X12259973Y-22877137D01*
X12259973Y-22877137D02*
X12259973Y-22896185D01*
X12259973Y-22896185D02*
X12250450Y-22924756D01*
X12250450Y-22924756D02*
X12136164Y-23039042D01*
X12136164Y-23039042D02*
X12259973Y-23039042D01*
X12383783Y-22839042D02*
X12402831Y-22839042D01*
X12402831Y-22839042D02*
X12421878Y-22848566D01*
X12421878Y-22848566D02*
X12431402Y-22858089D01*
X12431402Y-22858089D02*
X12440926Y-22877137D01*
X12440926Y-22877137D02*
X12450450Y-22915232D01*
X12450450Y-22915232D02*
X12450450Y-22962851D01*
X12450450Y-22962851D02*
X12440926Y-23000947D01*
X12440926Y-23000947D02*
X12431402Y-23019994D01*
X12431402Y-23019994D02*
X12421878Y-23029518D01*
X12421878Y-23029518D02*
X12402831Y-23039042D01*
X12402831Y-23039042D02*
X12383783Y-23039042D01*
X12383783Y-23039042D02*
X12364735Y-23029518D01*
X12364735Y-23029518D02*
X12355212Y-23019994D01*
X12355212Y-23019994D02*
X12345688Y-23000947D01*
X12345688Y-23000947D02*
X12336164Y-22962851D01*
X12336164Y-22962851D02*
X12336164Y-22915232D01*
X12336164Y-22915232D02*
X12345688Y-22877137D01*
X12345688Y-22877137D02*
X12355212Y-22858089D01*
X12355212Y-22858089D02*
X12364735Y-22848566D01*
X12364735Y-22848566D02*
X12383783Y-22839042D01*
X12574259Y-22839042D02*
X12593307Y-22839042D01*
X12593307Y-22839042D02*
X12612354Y-22848566D01*
X12612354Y-22848566D02*
X12621878Y-22858089D01*
X12621878Y-22858089D02*
X12631402Y-22877137D01*
X12631402Y-22877137D02*
X12640926Y-22915232D01*
X12640926Y-22915232D02*
X12640926Y-22962851D01*
X12640926Y-22962851D02*
X12631402Y-23000947D01*
X12631402Y-23000947D02*
X12621878Y-23019994D01*
X12621878Y-23019994D02*
X12612354Y-23029518D01*
X12612354Y-23029518D02*
X12593307Y-23039042D01*
X12593307Y-23039042D02*
X12574259Y-23039042D01*
X12574259Y-23039042D02*
X12555212Y-23029518D01*
X12555212Y-23029518D02*
X12545688Y-23019994D01*
X12545688Y-23019994D02*
X12536164Y-23000947D01*
X12536164Y-23000947D02*
X12526640Y-22962851D01*
X12526640Y-22962851D02*
X12526640Y-22915232D01*
X12526640Y-22915232D02*
X12536164Y-22877137D01*
X12536164Y-22877137D02*
X12545688Y-22858089D01*
X12545688Y-22858089D02*
X12555212Y-22848566D01*
X12555212Y-22848566D02*
X12574259Y-22839042D01*
X12726640Y-23039042D02*
X12726640Y-22905708D01*
X12726640Y-22924756D02*
X12736164Y-22915232D01*
X12736164Y-22915232D02*
X12755212Y-22905708D01*
X12755212Y-22905708D02*
X12783783Y-22905708D01*
X12783783Y-22905708D02*
X12802831Y-22915232D01*
X12802831Y-22915232D02*
X12812354Y-22934280D01*
X12812354Y-22934280D02*
X12812354Y-23039042D01*
X12812354Y-22934280D02*
X12821878Y-22915232D01*
X12821878Y-22915232D02*
X12840926Y-22905708D01*
X12840926Y-22905708D02*
X12869497Y-22905708D01*
X12869497Y-22905708D02*
X12888545Y-22915232D01*
X12888545Y-22915232D02*
X12898069Y-22934280D01*
X12898069Y-22934280D02*
X12898069Y-23039042D01*
X12993307Y-23039042D02*
X12993307Y-22905708D01*
X12993307Y-22924756D02*
X13002831Y-22915232D01*
X13002831Y-22915232D02*
X13021878Y-22905708D01*
X13021878Y-22905708D02*
X13050450Y-22905708D01*
X13050450Y-22905708D02*
X13069497Y-22915232D01*
X13069497Y-22915232D02*
X13079021Y-22934280D01*
X13079021Y-22934280D02*
X13079021Y-23039042D01*
X13079021Y-22934280D02*
X13088545Y-22915232D01*
X13088545Y-22915232D02*
X13107593Y-22905708D01*
X13107593Y-22905708D02*
X13136164Y-22905708D01*
X13136164Y-22905708D02*
X13155212Y-22915232D01*
X13155212Y-22915232D02*
X13164735Y-22934280D01*
X13164735Y-22934280D02*
X13164735Y-23039042D01*
X13555212Y-22829518D02*
X13383783Y-23086661D01*
X13812355Y-22839042D02*
X13831402Y-22839042D01*
X13831402Y-22839042D02*
X13850450Y-22848566D01*
X13850450Y-22848566D02*
X13859974Y-22858089D01*
X13859974Y-22858089D02*
X13869497Y-22877137D01*
X13869497Y-22877137D02*
X13879021Y-22915232D01*
X13879021Y-22915232D02*
X13879021Y-22962851D01*
X13879021Y-22962851D02*
X13869497Y-23000947D01*
X13869497Y-23000947D02*
X13859974Y-23019994D01*
X13859974Y-23019994D02*
X13850450Y-23029518D01*
X13850450Y-23029518D02*
X13831402Y-23039042D01*
X13831402Y-23039042D02*
X13812355Y-23039042D01*
X13812355Y-23039042D02*
X13793307Y-23029518D01*
X13793307Y-23029518D02*
X13783783Y-23019994D01*
X13783783Y-23019994D02*
X13774259Y-23000947D01*
X13774259Y-23000947D02*
X13764736Y-22962851D01*
X13764736Y-22962851D02*
X13764736Y-22915232D01*
X13764736Y-22915232D02*
X13774259Y-22877137D01*
X13774259Y-22877137D02*
X13783783Y-22858089D01*
X13783783Y-22858089D02*
X13793307Y-22848566D01*
X13793307Y-22848566D02*
X13812355Y-22839042D01*
X13964736Y-23019994D02*
X13974259Y-23029518D01*
X13974259Y-23029518D02*
X13964736Y-23039042D01*
X13964736Y-23039042D02*
X13955212Y-23029518D01*
X13955212Y-23029518D02*
X13964736Y-23019994D01*
X13964736Y-23019994D02*
X13964736Y-23039042D01*
X14164736Y-23039042D02*
X14050450Y-23039042D01*
X14107593Y-23039042D02*
X14107593Y-22839042D01*
X14107593Y-22839042D02*
X14088545Y-22867613D01*
X14088545Y-22867613D02*
X14069497Y-22886661D01*
X14069497Y-22886661D02*
X14050450Y-22896185D01*
X14240926Y-22858089D02*
X14250450Y-22848566D01*
X14250450Y-22848566D02*
X14269497Y-22839042D01*
X14269497Y-22839042D02*
X14317117Y-22839042D01*
X14317117Y-22839042D02*
X14336164Y-22848566D01*
X14336164Y-22848566D02*
X14345688Y-22858089D01*
X14345688Y-22858089D02*
X14355212Y-22877137D01*
X14355212Y-22877137D02*
X14355212Y-22896185D01*
X14355212Y-22896185D02*
X14345688Y-22924756D01*
X14345688Y-22924756D02*
X14231402Y-23039042D01*
X14231402Y-23039042D02*
X14355212Y-23039042D01*
X14526640Y-22839042D02*
X14488545Y-22839042D01*
X14488545Y-22839042D02*
X14469497Y-22848566D01*
X14469497Y-22848566D02*
X14459974Y-22858089D01*
X14459974Y-22858089D02*
X14440926Y-22886661D01*
X14440926Y-22886661D02*
X14431402Y-22924756D01*
X14431402Y-22924756D02*
X14431402Y-23000947D01*
X14431402Y-23000947D02*
X14440926Y-23019994D01*
X14440926Y-23019994D02*
X14450450Y-23029518D01*
X14450450Y-23029518D02*
X14469497Y-23039042D01*
X14469497Y-23039042D02*
X14507593Y-23039042D01*
X14507593Y-23039042D02*
X14526640Y-23029518D01*
X14526640Y-23029518D02*
X14536164Y-23019994D01*
X14536164Y-23019994D02*
X14545688Y-23000947D01*
X14545688Y-23000947D02*
X14545688Y-22953328D01*
X14545688Y-22953328D02*
X14536164Y-22934280D01*
X14536164Y-22934280D02*
X14526640Y-22924756D01*
X14526640Y-22924756D02*
X14507593Y-22915232D01*
X14507593Y-22915232D02*
X14469497Y-22915232D01*
X14469497Y-22915232D02*
X14450450Y-22924756D01*
X14450450Y-22924756D02*
X14440926Y-22934280D01*
X14440926Y-22934280D02*
X14431402Y-22953328D01*
X14669497Y-22839042D02*
X14688545Y-22839042D01*
X14688545Y-22839042D02*
X14707593Y-22848566D01*
X14707593Y-22848566D02*
X14717117Y-22858089D01*
X14717117Y-22858089D02*
X14726640Y-22877137D01*
X14726640Y-22877137D02*
X14736164Y-22915232D01*
X14736164Y-22915232D02*
X14736164Y-22962851D01*
X14736164Y-22962851D02*
X14726640Y-23000947D01*
X14726640Y-23000947D02*
X14717117Y-23019994D01*
X14717117Y-23019994D02*
X14707593Y-23029518D01*
X14707593Y-23029518D02*
X14688545Y-23039042D01*
X14688545Y-23039042D02*
X14669497Y-23039042D01*
X14669497Y-23039042D02*
X14650450Y-23029518D01*
X14650450Y-23029518D02*
X14640926Y-23019994D01*
X14640926Y-23019994D02*
X14631402Y-23000947D01*
X14631402Y-23000947D02*
X14621878Y-22962851D01*
X14621878Y-22962851D02*
X14621878Y-22915232D01*
X14621878Y-22915232D02*
X14631402Y-22877137D01*
X14631402Y-22877137D02*
X14640926Y-22858089D01*
X14640926Y-22858089D02*
X14650450Y-22848566D01*
X14650450Y-22848566D02*
X14669497Y-22839042D01*
X14812355Y-22839042D02*
X14812355Y-22877137D01*
X14888545Y-22839042D02*
X14888545Y-22877137D01*
X15183783Y-23115232D02*
X15174259Y-23105708D01*
X15174259Y-23105708D02*
X15155212Y-23077137D01*
X15155212Y-23077137D02*
X15145688Y-23058089D01*
X15145688Y-23058089D02*
X15136164Y-23029518D01*
X15136164Y-23029518D02*
X15126640Y-22981899D01*
X15126640Y-22981899D02*
X15126640Y-22943804D01*
X15126640Y-22943804D02*
X15136164Y-22896185D01*
X15136164Y-22896185D02*
X15145688Y-22867613D01*
X15145688Y-22867613D02*
X15155212Y-22848566D01*
X15155212Y-22848566D02*
X15174259Y-22819994D01*
X15174259Y-22819994D02*
X15183783Y-22810470D01*
X15355212Y-22839042D02*
X15259974Y-22839042D01*
X15259974Y-22839042D02*
X15250450Y-22934280D01*
X15250450Y-22934280D02*
X15259974Y-22924756D01*
X15259974Y-22924756D02*
X15279021Y-22915232D01*
X15279021Y-22915232D02*
X15326640Y-22915232D01*
X15326640Y-22915232D02*
X15345688Y-22924756D01*
X15345688Y-22924756D02*
X15355212Y-22934280D01*
X15355212Y-22934280D02*
X15364736Y-22953328D01*
X15364736Y-22953328D02*
X15364736Y-23000947D01*
X15364736Y-23000947D02*
X15355212Y-23019994D01*
X15355212Y-23019994D02*
X15345688Y-23029518D01*
X15345688Y-23029518D02*
X15326640Y-23039042D01*
X15326640Y-23039042D02*
X15279021Y-23039042D01*
X15279021Y-23039042D02*
X15259974Y-23029518D01*
X15259974Y-23029518D02*
X15250450Y-23019994D01*
X15602831Y-23039042D02*
X15602831Y-22839042D01*
X15688545Y-23039042D02*
X15688545Y-22934280D01*
X15688545Y-22934280D02*
X15679021Y-22915232D01*
X15679021Y-22915232D02*
X15659974Y-22905708D01*
X15659974Y-22905708D02*
X15631402Y-22905708D01*
X15631402Y-22905708D02*
X15612355Y-22915232D01*
X15612355Y-22915232D02*
X15602831Y-22924756D01*
X15812355Y-23039042D02*
X15793307Y-23029518D01*
X15793307Y-23029518D02*
X15783783Y-23019994D01*
X15783783Y-23019994D02*
X15774260Y-23000947D01*
X15774260Y-23000947D02*
X15774260Y-22943804D01*
X15774260Y-22943804D02*
X15783783Y-22924756D01*
X15783783Y-22924756D02*
X15793307Y-22915232D01*
X15793307Y-22915232D02*
X15812355Y-22905708D01*
X15812355Y-22905708D02*
X15840926Y-22905708D01*
X15840926Y-22905708D02*
X15859974Y-22915232D01*
X15859974Y-22915232D02*
X15869498Y-22924756D01*
X15869498Y-22924756D02*
X15879021Y-22943804D01*
X15879021Y-22943804D02*
X15879021Y-23000947D01*
X15879021Y-23000947D02*
X15869498Y-23019994D01*
X15869498Y-23019994D02*
X15859974Y-23029518D01*
X15859974Y-23029518D02*
X15840926Y-23039042D01*
X15840926Y-23039042D02*
X15812355Y-23039042D01*
X15993307Y-23039042D02*
X15974260Y-23029518D01*
X15974260Y-23029518D02*
X15964736Y-23010470D01*
X15964736Y-23010470D02*
X15964736Y-22839042D01*
X16145688Y-23029518D02*
X16126641Y-23039042D01*
X16126641Y-23039042D02*
X16088545Y-23039042D01*
X16088545Y-23039042D02*
X16069498Y-23029518D01*
X16069498Y-23029518D02*
X16059974Y-23010470D01*
X16059974Y-23010470D02*
X16059974Y-22934280D01*
X16059974Y-22934280D02*
X16069498Y-22915232D01*
X16069498Y-22915232D02*
X16088545Y-22905708D01*
X16088545Y-22905708D02*
X16126641Y-22905708D01*
X16126641Y-22905708D02*
X16145688Y-22915232D01*
X16145688Y-22915232D02*
X16155212Y-22934280D01*
X16155212Y-22934280D02*
X16155212Y-22953328D01*
X16155212Y-22953328D02*
X16059974Y-22972375D01*
X16231402Y-23029518D02*
X16250450Y-23039042D01*
X16250450Y-23039042D02*
X16288545Y-23039042D01*
X16288545Y-23039042D02*
X16307593Y-23029518D01*
X16307593Y-23029518D02*
X16317117Y-23010470D01*
X16317117Y-23010470D02*
X16317117Y-23000947D01*
X16317117Y-23000947D02*
X16307593Y-22981899D01*
X16307593Y-22981899D02*
X16288545Y-22972375D01*
X16288545Y-22972375D02*
X16259974Y-22972375D01*
X16259974Y-22972375D02*
X16240926Y-22962851D01*
X16240926Y-22962851D02*
X16231402Y-22943804D01*
X16231402Y-22943804D02*
X16231402Y-22934280D01*
X16231402Y-22934280D02*
X16240926Y-22915232D01*
X16240926Y-22915232D02*
X16259974Y-22905708D01*
X16259974Y-22905708D02*
X16288545Y-22905708D01*
X16288545Y-22905708D02*
X16307593Y-22915232D01*
X16383783Y-23115232D02*
X16393307Y-23105708D01*
X16393307Y-23105708D02*
X16412355Y-23077137D01*
X16412355Y-23077137D02*
X16421879Y-23058089D01*
X16421879Y-23058089D02*
X16431402Y-23029518D01*
X16431402Y-23029518D02*
X16440926Y-22981899D01*
X16440926Y-22981899D02*
X16440926Y-22943804D01*
X16440926Y-22943804D02*
X16431402Y-22896185D01*
X16431402Y-22896185D02*
X16421879Y-22867613D01*
X16421879Y-22867613D02*
X16412355Y-22848566D01*
X16412355Y-22848566D02*
X16393307Y-22819994D01*
X16393307Y-22819994D02*
X16383783Y-22810470D01*
M02*
