%TF.GenerationSoftware,KiCad,Pcbnew,9.0.0*%
%TF.CreationDate,2025-04-09T21:01:40+02:00*%
%TF.ProjectId,left,6c656674-2e6b-4696-9361-645f70636258,1*%
%TF.SameCoordinates,Original*%
%TF.FileFunction,Paste,Bot*%
%TF.FilePolarity,Positive*%
%FSLAX46Y46*%
G04 Gerber Fmt 4.6, Leading zero omitted, Abs format (unit mm)*
G04 Created by KiCad (PCBNEW 9.0.0) date 2025-04-09 21:01:40*
%MOMM*%
%LPD*%
G01*
G04 APERTURE LIST*
G04 Aperture macros list*
%AMRotRect*
0 Rectangle, with rotation*
0 The origin of the aperture is its center*
0 $1 length*
0 $2 width*
0 $3 Rotation angle, in degrees counterclockwise*
0 Add horizontal line*
21,1,$1,$2,0,0,$3*%
G04 Aperture macros list end*
%ADD10R,2.550000X2.500000*%
%ADD11R,0.900000X1.200000*%
%ADD12RotRect,2.550000X2.500000X6.000000*%
%ADD13RotRect,0.900000X1.200000X3.000000*%
%ADD14RotRect,2.550000X2.500000X3.000000*%
%ADD15RotRect,2.550000X2.500000X314.000000*%
%ADD16RotRect,0.900000X1.200000X314.000000*%
%ADD17RotRect,2.550000X2.500000X337.000000*%
%ADD18RotRect,0.900000X1.200000X6.000000*%
%ADD19RotRect,0.900000X1.200000X337.000000*%
G04 APERTURE END LIST*
D10*
%TO.C,S13*%
X184834992Y-122459996D03*
X197761992Y-119919996D03*
%TD*%
%TO.C,S25*%
X213334996Y-170110005D03*
X226261996Y-167570005D03*
%TD*%
D11*
%TO.C,D9*%
X171270000Y-133000004D03*
X174570000Y-133000004D03*
%TD*%
D12*
%TO.C,S3*%
X122500445Y-119527458D03*
X135091127Y-115650131D03*
%TD*%
D11*
%TO.C,D19*%
X209269994Y-95000008D03*
X212569994Y-95000008D03*
%TD*%
%TO.C,D17*%
X209269992Y-132999993D03*
X212569992Y-132999993D03*
%TD*%
D13*
%TO.C,D4*%
X151925293Y-159115385D03*
X155220771Y-158942677D03*
%TD*%
D14*
%TO.C,S5*%
X145108741Y-132896198D03*
X157885092Y-129683132D03*
%TD*%
D11*
%TO.C,D18*%
X209269994Y-113999999D03*
X212569994Y-113999999D03*
%TD*%
%TO.C,D21*%
X228269991Y-136000001D03*
X231569991Y-136000001D03*
%TD*%
D14*
%TO.C,S4*%
X146103125Y-151870162D03*
X158879476Y-148657096D03*
%TD*%
D15*
%TO.C,S27*%
X261179162Y-183711181D03*
X271986133Y-191245655D03*
%TD*%
D10*
%TO.C,S14*%
X184834994Y-103460000D03*
X197761994Y-100920000D03*
%TD*%
D11*
%TO.C,D13*%
X190269995Y-129999998D03*
X193569995Y-129999998D03*
%TD*%
D14*
%TO.C,S7*%
X143119977Y-94948286D03*
X155896328Y-91735220D03*
%TD*%
D11*
%TO.C,D25*%
X218769991Y-177650000D03*
X222069991Y-177650000D03*
%TD*%
%TO.C,D8*%
X171269989Y-152000000D03*
X174569989Y-152000000D03*
%TD*%
D16*
%TO.C,D27*%
X259530810Y-192858513D03*
X261823182Y-195232335D03*
%TD*%
D11*
%TO.C,D14*%
X190269993Y-111000002D03*
X193569993Y-111000002D03*
%TD*%
%TO.C,D24*%
X247269991Y-144999995D03*
X250569991Y-144999995D03*
%TD*%
D17*
%TO.C,S26*%
X238640673Y-172043592D03*
X251532496Y-174756492D03*
%TD*%
D10*
%TO.C,S20*%
X222834988Y-147459999D03*
X235761988Y-144919999D03*
%TD*%
D11*
%TO.C,D10*%
X171269997Y-114000004D03*
X174569997Y-114000004D03*
%TD*%
%TO.C,D28*%
X264369989Y-172800004D03*
X267669989Y-172800004D03*
%TD*%
D10*
%TO.C,S15*%
X184834991Y-84460005D03*
X197761991Y-81920005D03*
%TD*%
D18*
%TO.C,D1*%
X132665905Y-164249873D03*
X135947827Y-163904929D03*
%TD*%
D10*
%TO.C,S24*%
X241834992Y-137460007D03*
X254761992Y-134920007D03*
%TD*%
D11*
%TO.C,D11*%
X171269990Y-95000003D03*
X174569990Y-95000003D03*
%TD*%
%TO.C,D16*%
X209269991Y-152000008D03*
X212569991Y-152000008D03*
%TD*%
D13*
%TO.C,D7*%
X148942140Y-102193500D03*
X152237618Y-102020792D03*
%TD*%
D10*
%TO.C,S18*%
X203834997Y-106460002D03*
X216761997Y-103920002D03*
%TD*%
D11*
%TO.C,D15*%
X190269988Y-92000009D03*
X193569988Y-92000009D03*
%TD*%
D10*
%TO.C,S9*%
X165834994Y-125460006D03*
X178761994Y-122920006D03*
%TD*%
%TO.C,S8*%
X165834993Y-144459999D03*
X178761993Y-141919999D03*
%TD*%
D11*
%TO.C,D22*%
X228269991Y-117000000D03*
X231569991Y-117000000D03*
%TD*%
D10*
%TO.C,S10*%
X165834993Y-106460001D03*
X178761993Y-103920001D03*
%TD*%
D14*
%TO.C,S6*%
X144114354Y-113922243D03*
X156890705Y-110709177D03*
%TD*%
D11*
%TO.C,D23*%
X228269993Y-98000003D03*
X231569993Y-98000003D03*
%TD*%
D10*
%TO.C,S22*%
X222834994Y-109460001D03*
X235761994Y-106920001D03*
%TD*%
%TO.C,S21*%
X222834997Y-128460002D03*
X235761997Y-125920002D03*
%TD*%
%TO.C,S11*%
X165834994Y-87460009D03*
X178761994Y-84920009D03*
%TD*%
%TO.C,S23*%
X222834989Y-90460004D03*
X235761989Y-87920004D03*
%TD*%
D18*
%TO.C,D3*%
X128693819Y-126458046D03*
X131975741Y-126113102D03*
%TD*%
D12*
%TO.C,S2*%
X124486494Y-138423373D03*
X137077176Y-134546046D03*
%TD*%
D18*
%TO.C,D2*%
X130679864Y-145353961D03*
X133961786Y-145009017D03*
%TD*%
D11*
%TO.C,D20*%
X228269989Y-155000007D03*
X231569989Y-155000007D03*
%TD*%
D10*
%TO.C,S16*%
X203834992Y-144460003D03*
X216761992Y-141920003D03*
%TD*%
%TO.C,S19*%
X203834988Y-87460001D03*
X216761988Y-84920001D03*
%TD*%
D19*
%TO.C,D26*%
X240697504Y-181107825D03*
X243735170Y-182397237D03*
%TD*%
D13*
%TO.C,D5*%
X150930909Y-140141421D03*
X154226387Y-139968713D03*
%TD*%
D11*
%TO.C,D12*%
X190269993Y-148999999D03*
X193569993Y-148999999D03*
%TD*%
D13*
%TO.C,D6*%
X149936529Y-121167461D03*
X153232007Y-120994753D03*
%TD*%
D12*
%TO.C,S1*%
X126472530Y-157319286D03*
X139063212Y-153441959D03*
%TD*%
D10*
%TO.C,S12*%
X184834990Y-141459997D03*
X197761990Y-138919997D03*
%TD*%
%TO.C,S17*%
X203835000Y-125460000D03*
X216762000Y-122920000D03*
%TD*%
M02*
