M48
; DRILL file {KiCad 9.0.0} date 2025-04-09T21:05:46+0200
; FORMAT={-:-/ absolute / metric / decimal}
; #@! TF.CreationDate,2025-04-09T21:05:46+02:00
; #@! TF.GenerationSoftware,Kicad,Pcbnew,9.0.0
; #@! TF.FileFunction,Plated,1,2,PTH
FMAT,2
METRIC
; #@! TA.AperFunction,Plated,PTH,ViaDrill
T1C0.300
; #@! TA.AperFunction,Plated,PTH,ComponentDrill
T2C0.500
; #@! TA.AperFunction,Plated,PTH,ComponentDrill
T3C0.750
; #@! TA.AperFunction,Plated,PTH,ComponentDrill
T4C0.991
; #@! TA.AperFunction,Plated,PTH,ComponentDrill
T5C1.000
; #@! TA.AperFunction,Plated,PTH,ComponentDrill
T6C1.500
; #@! TA.AperFunction,Plated,PTH,ComponentDrill
T7C3.200
%
G90
G05
T1
X151.846Y-177.474
X152.346Y-119.095
X157.0Y-82.5
X157.0Y-85.0
X157.0Y-88.0
X157.0Y-90.5
X157.0Y-93.0
X164.772Y-156.991
X165.25Y-117.949
T3
X169.33Y-128.041
X169.33Y-130.041
T4
X141.17Y-174.791
X147.676Y-198.777
X148.79Y-174.791
X152.97Y-193.296
X158.27Y-146.991
X165.277Y-185.232
X165.89Y-146.991
X172.291Y-182.255
X177.27Y-99.991
X177.27Y-137.991
X177.27Y-156.991
X177.27Y-118.991
X184.89Y-99.991
X184.89Y-137.991
X184.89Y-156.991
X184.89Y-118.991
X186.77Y-179.641
X194.39Y-179.641
X196.27Y-96.991
X196.27Y-115.991
X196.27Y-153.991
X196.27Y-134.991
X203.89Y-96.991
X203.89Y-115.991
X203.89Y-153.991
X203.89Y-134.991
X215.27Y-150.991
X215.27Y-131.991
X215.27Y-112.991
X215.27Y-93.991
X222.89Y-150.991
X222.89Y-131.991
X222.89Y-112.991
X222.89Y-93.991
X234.27Y-96.991
X234.27Y-134.991
X234.27Y-115.991
X234.27Y-153.991
X241.89Y-96.991
X241.89Y-134.991
X241.89Y-115.991
X241.89Y-153.991
X253.622Y-160.821
X254.617Y-141.847
X255.611Y-122.873
X256.605Y-103.899
X261.232Y-161.22
X262.226Y-142.246
X263.221Y-123.272
X264.215Y-104.298
X272.904Y-165.67
X274.89Y-146.775
X276.876Y-127.879
X280.482Y-166.467
X282.468Y-147.571
X284.454Y-128.675
T5
X149.71Y-80.841
X149.71Y-83.381
X149.71Y-85.921
X149.71Y-88.461
X149.71Y-91.001
X149.71Y-93.541
X149.71Y-96.081
X149.71Y-101.161
X149.71Y-103.701
X149.71Y-106.241
X149.71Y-108.781
X149.71Y-98.621
X152.25Y-113.391
X154.79Y-113.391
X157.33Y-113.391
X159.87Y-113.391
X162.41Y-113.391
X164.95Y-108.781
X164.95Y-88.461
X164.95Y-80.841
X164.95Y-83.381
X164.95Y-85.921
X164.95Y-91.001
X164.95Y-93.541
X164.95Y-96.081
X164.95Y-98.621
X164.95Y-101.161
X164.95Y-103.701
X164.95Y-106.241
T7
X136.98Y-179.791
X190.58Y-100.991
X190.58Y-138.991
X247.58Y-139.491
X247.58Y-101.491
T2
G00X142.73Y-157.291
M15
G01X142.23Y-157.291
M16
G05
G00X142.73Y-171.791
M15
G01X142.23Y-171.791
M16
G05
G00X145.23Y-157.291
M15
G01X144.73Y-157.291
M16
G05
G00X147.73Y-157.291
M15
G01X147.23Y-157.291
M16
G05
G00X147.73Y-171.791
M15
G01X147.23Y-171.791
M16
G05
T6
G00X139.38Y-165.191
M15
G01X139.38Y-164.391
M16
G05
G00X150.58Y-165.191
M15
G01X150.58Y-164.391
M16
G05
M30
