%TF.GenerationSoftware,KiCad,Pcbnew,9.0.0*%
%TF.CreationDate,2025-04-09T21:05:37+02:00*%
%TF.ProjectId,right,72696768-742e-46b6-9963-61645f706362,1*%
%TF.SameCoordinates,Original*%
%TF.FileFunction,Profile,NP*%
%FSLAX46Y46*%
G04 Gerber Fmt 4.6, Leading zero omitted, Abs format (unit mm)*
G04 Created by KiCad (PCBNEW 9.0.0) date 2025-04-09 21:05:37*
%MOMM*%
%LPD*%
G01*
G04 APERTURE LIST*
%TA.AperFunction,Profile*%
%ADD10C,0.150000*%
%TD*%
G04 APERTURE END LIST*
D10*
X131915868Y-194777060D02*
X145644811Y-208506008D01*
X248669473Y-76242787D02*
X146204333Y-76319778D01*
X272792160Y-107842835D02*
X273805391Y-89182802D01*
X161785116Y-194795079D02*
G75*
G02*
X162472846Y-194333063I1434884J-1393021D01*
G01*
X131915868Y-194777060D02*
G75*
G02*
X131330113Y-193362848I1414432J1414260D01*
G01*
X293046918Y-111881253D02*
G75*
G02*
X294826942Y-114079365I-209018J-1989047D01*
G01*
X203225841Y-165687023D02*
G75*
G02*
X205225836Y-163691336I1999959J-4277D01*
G01*
X252539939Y-86061801D02*
G75*
G02*
X250644579Y-84055471I104661J1997301D01*
G01*
X205225836Y-163691272D02*
X239291483Y-163691273D01*
X203184317Y-185245518D02*
X203225841Y-165687023D01*
X144205837Y-78320530D02*
X144229664Y-140914867D01*
X131330075Y-151587191D02*
X131330072Y-193362848D01*
X248669473Y-76242787D02*
G75*
G02*
X250670993Y-78251854I1527J-2000013D01*
G01*
X271913009Y-87077097D02*
X252539939Y-86061801D01*
X148493980Y-208484952D02*
X161785116Y-194795079D01*
X288617765Y-173155368D02*
G75*
G02*
X286631185Y-174946311I-1988965J208968D01*
G01*
X239291483Y-163691273D02*
G75*
G02*
X240775659Y-164350735I17J-1999827D01*
G01*
X148493981Y-208484951D02*
G75*
G02*
X145644789Y-208506030I-1434981J1393151D01*
G01*
X250644632Y-84055471D02*
X250670955Y-78251854D01*
X144205837Y-78320530D02*
G75*
G02*
X146204333Y-76319837I1999963J730D01*
G01*
X179720500Y-187386106D02*
G75*
G02*
X180467724Y-187241287I747200J-1855194D01*
G01*
X271913009Y-87077097D02*
G75*
G02*
X273805406Y-89182803I-104709J-1997303D01*
G01*
X131330075Y-151587191D02*
G75*
G02*
X132227856Y-149918329I1999825J91D01*
G01*
X144229664Y-140914867D02*
G75*
G02*
X143331916Y-142584525I-1999964J-833D01*
G01*
X143331894Y-142584492D02*
X132227854Y-149918326D01*
X203184317Y-185245518D02*
G75*
G02*
X201184327Y-187241321I-2000017J4218D01*
G01*
X251276289Y-174989866D02*
X286631185Y-174946309D01*
X274580158Y-109940323D02*
G75*
G02*
X272792166Y-107842835I209042J1989023D01*
G01*
X240775688Y-164350709D02*
X249789623Y-174330442D01*
X293046918Y-111881253D02*
X274580158Y-109940323D01*
X162472849Y-194333071D02*
X179720500Y-187386106D01*
X180467724Y-187241275D02*
X201184327Y-187241275D01*
X288617765Y-173155368D02*
X294826907Y-114079361D01*
X251276289Y-174989866D02*
G75*
G02*
X249789641Y-174330426I-2489J1999866D01*
G01*
M02*
