%TF.GenerationSoftware,KiCad,Pcbnew,9.0.0*%
%TF.CreationDate,2025-04-09T21:05:37+02:00*%
%TF.ProjectId,right,72696768-742e-46b6-9963-61645f706362,1*%
%TF.SameCoordinates,Original*%
%TF.FileFunction,Paste,Bot*%
%TF.FilePolarity,Positive*%
%FSLAX46Y46*%
G04 Gerber Fmt 4.6, Leading zero omitted, Abs format (unit mm)*
G04 Created by KiCad (PCBNEW 9.0.0) date 2025-04-09 21:05:37*
%MOMM*%
%LPD*%
G01*
G04 APERTURE LIST*
G04 Aperture macros list*
%AMRotRect*
0 Rectangle, with rotation*
0 The origin of the aperture is its center*
0 $1 length*
0 $2 width*
0 $3 Rotation angle, in degrees counterclockwise*
0 Add horizontal line*
21,1,$1,$2,0,0,$3*%
G04 Aperture macros list end*
%ADD10R,2.550000X2.500000*%
%ADD11RotRect,0.900000X1.200000X357.000000*%
%ADD12R,0.900000X1.200000*%
%ADD13RotRect,2.550000X2.500000X46.000000*%
%ADD14RotRect,2.550000X2.500000X354.000000*%
%ADD15RotRect,0.900000X1.200000X46.000000*%
%ADD16RotRect,0.900000X1.200000X23.000000*%
%ADD17RotRect,2.550000X2.500000X357.000000*%
%ADD18RotRect,0.900000X1.200000X354.000000*%
%ADD19RotRect,2.550000X2.500000X23.000000*%
G04 APERTURE END LIST*
D10*
%TO.C,S25*%
X183495077Y-172101275D03*
X196422077Y-169561275D03*
%TD*%
%TO.C,S23*%
X173995078Y-92451275D03*
X186922078Y-89911275D03*
%TD*%
%TO.C,S13*%
X211995076Y-124451274D03*
X224922076Y-121911274D03*
%TD*%
%TO.C,S9*%
X230995072Y-127451272D03*
X243922072Y-124911272D03*
%TD*%
D11*
%TO.C,D5*%
X256773687Y-141959984D03*
X260069165Y-142132692D03*
%TD*%
D12*
%TO.C,D20*%
X179430075Y-156991269D03*
X182730075Y-156991269D03*
%TD*%
D10*
%TO.C,S20*%
X173995086Y-149451272D03*
X186922086Y-146911272D03*
%TD*%
%TO.C,S24*%
X154995077Y-139451276D03*
X167922077Y-136911276D03*
%TD*%
D11*
%TO.C,D6*%
X257768069Y-122986026D03*
X261063547Y-123158734D03*
%TD*%
D13*
%TO.C,S27*%
X139977595Y-195895504D03*
X147130321Y-184832166D03*
%TD*%
D12*
%TO.C,D15*%
X217430083Y-93991274D03*
X220730083Y-93991274D03*
%TD*%
D14*
%TO.C,S3*%
X274407247Y-120037565D03*
X287528934Y-118862719D03*
%TD*%
D12*
%TO.C,D12*%
X217430078Y-150991271D03*
X220730078Y-150991271D03*
%TD*%
%TO.C,D10*%
X236430076Y-115991272D03*
X239730076Y-115991272D03*
%TD*%
%TO.C,D28*%
X143330077Y-174791276D03*
X146630077Y-174791276D03*
%TD*%
D15*
%TO.C,D27*%
X149176892Y-197223612D03*
X151469264Y-194849790D03*
%TD*%
D12*
%TO.C,D13*%
X217430079Y-131991276D03*
X220730079Y-131991276D03*
%TD*%
D16*
%TO.C,D26*%
X167264898Y-184388503D03*
X170302564Y-183099091D03*
%TD*%
D10*
%TO.C,S8*%
X230995079Y-146451278D03*
X243922079Y-143911278D03*
%TD*%
%TO.C,S12*%
X211995083Y-143451273D03*
X224922083Y-140911273D03*
%TD*%
D12*
%TO.C,D21*%
X179430074Y-137991274D03*
X182730074Y-137991274D03*
%TD*%
D14*
%TO.C,S2*%
X272421204Y-138933476D03*
X285542891Y-137758630D03*
%TD*%
%TO.C,S1*%
X270435164Y-157829393D03*
X283556851Y-156654547D03*
%TD*%
D11*
%TO.C,D7*%
X258762447Y-104012066D03*
X262057925Y-104184774D03*
%TD*%
D17*
%TO.C,S4*%
X250746360Y-153119832D03*
X263788577Y-151259860D03*
%TD*%
D10*
%TO.C,S17*%
X192995082Y-127451279D03*
X205922082Y-124911279D03*
%TD*%
D18*
%TO.C,D2*%
X277038283Y-147000282D03*
X280320205Y-147345226D03*
%TD*%
D10*
%TO.C,S22*%
X173995074Y-111451275D03*
X186922074Y-108911275D03*
%TD*%
D11*
%TO.C,D4*%
X255779303Y-160933943D03*
X259074781Y-161106651D03*
%TD*%
D12*
%TO.C,D22*%
X179430086Y-118991275D03*
X182730086Y-118991275D03*
%TD*%
D19*
%TO.C,S26*%
X159315847Y-179571524D03*
X170222756Y-172182460D03*
%TD*%
D12*
%TO.C,D8*%
X236430082Y-153991277D03*
X239730082Y-153991277D03*
%TD*%
%TO.C,D24*%
X160430081Y-146991271D03*
X163730081Y-146991271D03*
%TD*%
D10*
%TO.C,S19*%
X192995076Y-89451273D03*
X205922076Y-86911273D03*
%TD*%
%TO.C,S21*%
X173995077Y-130451277D03*
X186922077Y-127911277D03*
%TD*%
D18*
%TO.C,D3*%
X279024323Y-128104369D03*
X282306245Y-128449313D03*
%TD*%
D12*
%TO.C,D16*%
X198430076Y-153991276D03*
X201730076Y-153991276D03*
%TD*%
D10*
%TO.C,S10*%
X230995081Y-108451274D03*
X243922081Y-105911274D03*
%TD*%
D12*
%TO.C,D14*%
X217430080Y-112991271D03*
X220730080Y-112991271D03*
%TD*%
%TO.C,D17*%
X198430078Y-134991274D03*
X201730078Y-134991274D03*
%TD*%
%TO.C,D9*%
X236430075Y-134991272D03*
X239730075Y-134991272D03*
%TD*%
D10*
%TO.C,S14*%
X211995076Y-105451270D03*
X224922076Y-102911270D03*
%TD*%
D18*
%TO.C,D1*%
X275052240Y-165896197D03*
X278334162Y-166241141D03*
%TD*%
D12*
%TO.C,D11*%
X236430071Y-96991277D03*
X239730071Y-96991277D03*
%TD*%
D10*
%TO.C,S15*%
X211995073Y-86451271D03*
X224922073Y-83911271D03*
%TD*%
D12*
%TO.C,D18*%
X198430076Y-115991277D03*
X201730076Y-115991277D03*
%TD*%
D10*
%TO.C,S18*%
X192995080Y-108451274D03*
X205922080Y-105911274D03*
%TD*%
D12*
%TO.C,D23*%
X179430072Y-99991274D03*
X182730072Y-99991274D03*
%TD*%
D17*
%TO.C,S5*%
X251740747Y-134145875D03*
X264782964Y-132285903D03*
%TD*%
D12*
%TO.C,D25*%
X188930081Y-179641281D03*
X192230081Y-179641281D03*
%TD*%
D17*
%TO.C,S7*%
X253729509Y-96197954D03*
X266771726Y-94337982D03*
%TD*%
D10*
%TO.C,S11*%
X230995074Y-89451271D03*
X243922074Y-86911271D03*
%TD*%
D17*
%TO.C,S6*%
X252735128Y-115171912D03*
X265777345Y-113311940D03*
%TD*%
D10*
%TO.C,S16*%
X192995074Y-146451269D03*
X205922074Y-143911269D03*
%TD*%
D12*
%TO.C,D19*%
X198430076Y-96991278D03*
X201730076Y-96991278D03*
%TD*%
M02*
