%TF.GenerationSoftware,KiCad,Pcbnew,9.0.0*%
%TF.CreationDate,2025-04-09T21:05:46+02:00*%
%TF.ProjectId,right,72696768-742e-46b6-9963-61645f706362,1*%
%TF.SameCoordinates,Original*%
%TF.FileFunction,Drillmap*%
%TF.FilePolarity,Positive*%
%FSLAX45Y45*%
G04 Gerber Fmt 4.5, Leading zero omitted, Abs format (unit mm)*
G04 Created by KiCad (PCBNEW 9.0.0) date 2025-04-09 21:05:46*
%MOMM*%
%LPD*%
G01*
G04 APERTURE LIST*
%ADD10C,0.150000*%
%ADD11C,0.200000*%
%ADD12C,0.100000*%
%ADD13C,0.320000*%
G04 APERTURE END LIST*
D10*
X13191587Y-19477706D02*
X14564481Y-20850601D01*
X24866947Y-7624279D02*
X14620433Y-7631978D01*
X27279216Y-10784284D02*
X27380539Y-8918280D01*
X16178512Y-19479508D02*
G75*
G02*
X16247285Y-19433306I143488J-139302D01*
G01*
X13191587Y-19477706D02*
G75*
G02*
X13133011Y-19336285I141443J141426D01*
G01*
X29304692Y-11188125D02*
G75*
G02*
X29482694Y-11407936I-20902J-198905D01*
G01*
X20322584Y-16568702D02*
G75*
G02*
X20522584Y-16369134I199996J-428D01*
G01*
X25253994Y-8606180D02*
G75*
G02*
X25064458Y-8405547I10466J199730D01*
G01*
X20522584Y-16369127D02*
X23929148Y-16369127D01*
X20318432Y-18524552D02*
X20322584Y-16568702D01*
X14420584Y-7832053D02*
X14422966Y-14091487D01*
X13133007Y-15158719D02*
X13133007Y-19336285D01*
X24866947Y-7624279D02*
G75*
G02*
X25067099Y-7825185I153J-200001D01*
G01*
X27191301Y-8707710D02*
X25253994Y-8606180D01*
X14849398Y-20848495D02*
X16178512Y-19479508D01*
X28861776Y-17315537D02*
G75*
G02*
X28663118Y-17494631I-198897J20897D01*
G01*
X23929148Y-16369127D02*
G75*
G02*
X24077566Y-16435073I2J-199983D01*
G01*
X14849398Y-20848495D02*
G75*
G02*
X14564479Y-20850603I-143498J139315D01*
G01*
X25064463Y-8405547D02*
X25067095Y-7825185D01*
X14420584Y-7832053D02*
G75*
G02*
X14620433Y-7631984I199996J73D01*
G01*
X17972050Y-18738611D02*
G75*
G02*
X18046772Y-18724129I74720J-185519D01*
G01*
X27191301Y-8707710D02*
G75*
G02*
X27380541Y-8918280I-10471J-199730D01*
G01*
X13133007Y-15158719D02*
G75*
G02*
X13222786Y-14991833I199983J9D01*
G01*
X14422966Y-14091487D02*
G75*
G02*
X14333192Y-14258452I-199996J-83D01*
G01*
X14333189Y-14258449D02*
X13222785Y-14991833D01*
X20318432Y-18524552D02*
G75*
G02*
X20118433Y-18724132I-200002J422D01*
G01*
X25127629Y-17498987D02*
X28663118Y-17494631D01*
X27458016Y-10994032D02*
G75*
G02*
X27279217Y-10784284I20904J198902D01*
G01*
X24077569Y-16435071D02*
X24978962Y-17433044D01*
X29304692Y-11188125D02*
X27458016Y-10994032D01*
X16247285Y-19433307D02*
X17972050Y-18738611D01*
X18046772Y-18724128D02*
X20118433Y-18724128D01*
X28861776Y-17315537D02*
X29482691Y-11407936D01*
X25127629Y-17498987D02*
G75*
G02*
X24978964Y-17433043I-249J199987D01*
G01*
D11*
D12*
X15169557Y-17732427D02*
X15199557Y-17762427D01*
X15199557Y-17732427D02*
X15169557Y-17762427D01*
X15219557Y-11894506D02*
X15249557Y-11924506D01*
X15249557Y-11894506D02*
X15219557Y-11924506D01*
X15685000Y-8235000D02*
X15715000Y-8265000D01*
X15715000Y-8235000D02*
X15685000Y-8265000D01*
X15685000Y-8485000D02*
X15715000Y-8515000D01*
X15715000Y-8485000D02*
X15685000Y-8515000D01*
X15685000Y-8785000D02*
X15715000Y-8815000D01*
X15715000Y-8785000D02*
X15685000Y-8815000D01*
X15685000Y-9035000D02*
X15715000Y-9065000D01*
X15715000Y-9035000D02*
X15685000Y-9065000D01*
X15685000Y-9285000D02*
X15715000Y-9315000D01*
X15715000Y-9285000D02*
X15685000Y-9315000D01*
X16462242Y-15684127D02*
X16492242Y-15714127D01*
X16492242Y-15684127D02*
X16462242Y-15714127D01*
X16509980Y-11779949D02*
X16539980Y-11809949D01*
X16539980Y-11779949D02*
X16509980Y-11809949D01*
X14273008Y-15729128D02*
G75*
G02*
X14223008Y-15729128I-25000J0D01*
G01*
X14223008Y-15729128D02*
G75*
G02*
X14273008Y-15729128I25000J0D01*
G01*
X14273008Y-15704128D02*
X14223008Y-15704128D01*
X14223008Y-15754128D02*
G75*
G02*
X14223008Y-15704128I0J25000D01*
G01*
X14223008Y-15754128D02*
X14273008Y-15754128D01*
X14273008Y-15754128D02*
G75*
G03*
X14273008Y-15704128I0J25000D01*
G01*
X14273008Y-17179128D02*
G75*
G02*
X14223008Y-17179128I-25000J0D01*
G01*
X14223008Y-17179128D02*
G75*
G02*
X14273008Y-17179128I25000J0D01*
G01*
X14273008Y-17154128D02*
X14223008Y-17154128D01*
X14223008Y-17204128D02*
G75*
G02*
X14223008Y-17154128I0J25000D01*
G01*
X14223008Y-17204128D02*
X14273008Y-17204128D01*
X14273008Y-17204128D02*
G75*
G03*
X14273008Y-17154128I0J25000D01*
G01*
X14523008Y-15729128D02*
G75*
G02*
X14473008Y-15729128I-25000J0D01*
G01*
X14473008Y-15729128D02*
G75*
G02*
X14523008Y-15729128I25000J0D01*
G01*
X14523008Y-15704128D02*
X14473008Y-15704128D01*
X14473008Y-15754128D02*
G75*
G02*
X14473008Y-15704128I0J25000D01*
G01*
X14473008Y-15754128D02*
X14523008Y-15754128D01*
X14523008Y-15754128D02*
G75*
G03*
X14523008Y-15704128I0J25000D01*
G01*
X14773008Y-15729128D02*
G75*
G02*
X14723008Y-15729128I-25000J0D01*
G01*
X14723008Y-15729128D02*
G75*
G02*
X14773008Y-15729128I25000J0D01*
G01*
X14773008Y-15704128D02*
X14723008Y-15704128D01*
X14723008Y-15754128D02*
G75*
G02*
X14723008Y-15704128I0J25000D01*
G01*
X14723008Y-15754128D02*
X14773008Y-15754128D01*
X14773008Y-15754128D02*
G75*
G03*
X14773008Y-15704128I0J25000D01*
G01*
X14773008Y-17179128D02*
G75*
G02*
X14723008Y-17179128I-25000J0D01*
G01*
X14723008Y-17179128D02*
G75*
G02*
X14773008Y-17179128I25000J0D01*
G01*
X14773008Y-17154128D02*
X14723008Y-17154128D01*
X14723008Y-17204128D02*
G75*
G02*
X14723008Y-17154128I0J25000D01*
G01*
X14723008Y-17204128D02*
X14773008Y-17204128D01*
X14773008Y-17204128D02*
G75*
G03*
X14773008Y-17154128I0J25000D01*
G01*
X16933008Y-12766628D02*
X16933008Y-12841628D01*
X16895508Y-12804128D02*
X16970508Y-12804128D01*
X16933008Y-12966628D02*
X16933008Y-13041628D01*
X16895508Y-13004128D02*
X16970508Y-13004128D01*
X14152031Y-17514151D02*
X14152031Y-17444104D01*
X14081984Y-17444104D01*
X14081984Y-17514151D01*
X14152031Y-17514151D01*
X14802666Y-19912762D02*
X14802666Y-19842715D01*
X14732620Y-19842715D01*
X14732620Y-19912762D01*
X14802666Y-19912762D01*
X14914031Y-17514151D02*
X14914031Y-17444104D01*
X14843984Y-17444104D01*
X14843984Y-17514151D01*
X14914031Y-17514151D01*
X15331996Y-19364625D02*
X15331996Y-19294578D01*
X15261949Y-19294578D01*
X15261949Y-19364625D01*
X15331996Y-19364625D01*
X15862031Y-14734150D02*
X15862031Y-14664104D01*
X15791985Y-14664104D01*
X15791985Y-14734150D01*
X15862031Y-14734150D01*
X16562684Y-18558272D02*
X16562684Y-18488225D01*
X16492637Y-18488225D01*
X16492637Y-18558272D01*
X16562684Y-18558272D01*
X16624031Y-14734150D02*
X16624031Y-14664104D01*
X16553985Y-14664104D01*
X16553985Y-14734150D01*
X16624031Y-14734150D01*
X17264109Y-18260534D02*
X17264109Y-18190488D01*
X17194062Y-18190488D01*
X17194062Y-18260534D01*
X17264109Y-18260534D01*
X17762031Y-10034151D02*
X17762031Y-9964104D01*
X17691984Y-9964104D01*
X17691984Y-10034151D01*
X17762031Y-10034151D01*
X17762031Y-13834151D02*
X17762031Y-13764104D01*
X17691984Y-13764104D01*
X17691984Y-13834151D01*
X17762031Y-13834151D01*
X17762031Y-15734150D02*
X17762031Y-15664104D01*
X17691984Y-15664104D01*
X17691984Y-15734150D01*
X17762031Y-15734150D01*
X17762032Y-11934151D02*
X17762032Y-11864104D01*
X17691985Y-11864104D01*
X17691985Y-11934151D01*
X17762032Y-11934151D01*
X18524031Y-10034151D02*
X18524031Y-9964104D01*
X18453984Y-9964104D01*
X18453984Y-10034151D01*
X18524031Y-10034151D01*
X18524031Y-13834151D02*
X18524031Y-13764104D01*
X18453984Y-13764104D01*
X18453984Y-13834151D01*
X18524031Y-13834151D01*
X18524031Y-15734150D02*
X18524031Y-15664104D01*
X18453984Y-15664104D01*
X18453984Y-15734150D01*
X18524031Y-15734150D01*
X18524032Y-11934151D02*
X18524032Y-11864104D01*
X18453985Y-11864104D01*
X18453985Y-11934151D01*
X18524032Y-11934151D01*
X18712031Y-17999151D02*
X18712031Y-17929105D01*
X18641985Y-17929105D01*
X18641985Y-17999151D01*
X18712031Y-17999151D01*
X19474031Y-17999151D02*
X19474031Y-17929105D01*
X19403985Y-17929105D01*
X19403985Y-17999151D01*
X19474031Y-17999151D01*
X19662031Y-9734151D02*
X19662031Y-9664105D01*
X19591984Y-9664105D01*
X19591984Y-9734151D01*
X19662031Y-9734151D01*
X19662031Y-11634151D02*
X19662031Y-11564104D01*
X19591984Y-11564104D01*
X19591984Y-11634151D01*
X19662031Y-11634151D01*
X19662031Y-15434151D02*
X19662031Y-15364104D01*
X19591984Y-15364104D01*
X19591984Y-15434151D01*
X19662031Y-15434151D01*
X19662031Y-13534151D02*
X19662031Y-13464104D01*
X19591985Y-13464104D01*
X19591985Y-13534151D01*
X19662031Y-13534151D01*
X20424031Y-9734151D02*
X20424031Y-9664105D01*
X20353984Y-9664105D01*
X20353984Y-9734151D01*
X20424031Y-9734151D01*
X20424031Y-11634151D02*
X20424031Y-11564104D01*
X20353984Y-11564104D01*
X20353984Y-11634151D01*
X20424031Y-11634151D01*
X20424031Y-15434151D02*
X20424031Y-15364104D01*
X20353984Y-15364104D01*
X20353984Y-15434151D01*
X20424031Y-15434151D01*
X20424031Y-13534151D02*
X20424031Y-13464104D01*
X20353985Y-13464104D01*
X20353985Y-13534151D01*
X20424031Y-13534151D01*
X21562031Y-15134150D02*
X21562031Y-15064104D01*
X21491985Y-15064104D01*
X21491985Y-15134150D01*
X21562031Y-15134150D01*
X21562031Y-13234151D02*
X21562031Y-13164104D01*
X21491985Y-13164104D01*
X21491985Y-13234151D01*
X21562031Y-13234151D01*
X21562031Y-11334150D02*
X21562031Y-11264104D01*
X21491985Y-11264104D01*
X21491985Y-11334150D01*
X21562031Y-11334150D01*
X21562032Y-9434151D02*
X21562032Y-9364104D01*
X21491985Y-9364104D01*
X21491985Y-9434151D01*
X21562032Y-9434151D01*
X22324031Y-15134150D02*
X22324031Y-15064104D01*
X22253985Y-15064104D01*
X22253985Y-15134150D01*
X22324031Y-15134150D01*
X22324031Y-13234151D02*
X22324031Y-13164104D01*
X22253985Y-13164104D01*
X22253985Y-13234151D01*
X22324031Y-13234151D01*
X22324031Y-11334150D02*
X22324031Y-11264104D01*
X22253985Y-11264104D01*
X22253985Y-11334150D01*
X22324031Y-11334150D01*
X22324032Y-9434151D02*
X22324032Y-9364104D01*
X22253985Y-9364104D01*
X22253985Y-9434151D01*
X22324032Y-9434151D01*
X23462030Y-9734151D02*
X23462030Y-9664104D01*
X23391984Y-9664104D01*
X23391984Y-9734151D01*
X23462030Y-9734151D01*
X23462031Y-13534150D02*
X23462031Y-13464104D01*
X23391984Y-13464104D01*
X23391984Y-13534150D01*
X23462031Y-13534150D01*
X23462031Y-11634150D02*
X23462031Y-11564104D01*
X23391984Y-11564104D01*
X23391984Y-11634150D01*
X23462031Y-11634150D01*
X23462031Y-15434151D02*
X23462031Y-15364104D01*
X23391985Y-15364104D01*
X23391985Y-15434151D01*
X23462031Y-15434151D01*
X24224030Y-9734151D02*
X24224030Y-9664104D01*
X24153984Y-9664104D01*
X24153984Y-9734151D01*
X24224030Y-9734151D01*
X24224031Y-13534150D02*
X24224031Y-13464104D01*
X24153984Y-13464104D01*
X24153984Y-13534150D01*
X24224031Y-13534150D01*
X24224031Y-11634150D02*
X24224031Y-11564104D01*
X24153984Y-11564104D01*
X24153984Y-11634150D01*
X24224031Y-11634150D01*
X24224031Y-15434151D02*
X24224031Y-15364104D01*
X24153985Y-15364104D01*
X24153985Y-15434151D01*
X24224031Y-15434151D01*
X25397250Y-16117113D02*
X25397250Y-16047066D01*
X25327203Y-16047066D01*
X25327203Y-16117113D01*
X25397250Y-16117113D01*
X25496688Y-14219717D02*
X25496688Y-14149670D01*
X25426641Y-14149670D01*
X25426641Y-14219717D01*
X25496688Y-14219717D01*
X25596126Y-12322321D02*
X25596126Y-12252275D01*
X25526080Y-12252275D01*
X25526080Y-12322321D01*
X25596126Y-12322321D01*
X25695564Y-10424925D02*
X25695564Y-10354879D01*
X25625517Y-10354879D01*
X25625517Y-10424925D01*
X25695564Y-10424925D01*
X26158205Y-16156993D02*
X26158205Y-16086946D01*
X26088159Y-16086946D01*
X26088159Y-16156993D01*
X26158205Y-16156993D01*
X26257644Y-14259597D02*
X26257644Y-14189550D01*
X26187597Y-14189550D01*
X26187597Y-14259597D01*
X26257644Y-14259597D01*
X26357082Y-12362201D02*
X26357082Y-12292155D01*
X26287035Y-12292155D01*
X26287035Y-12362201D01*
X26357082Y-12362201D01*
X26456520Y-10464805D02*
X26456520Y-10394759D01*
X26386473Y-10394759D01*
X26386473Y-10464805D01*
X26456520Y-10464805D01*
X27325431Y-16602065D02*
X27325431Y-16532018D01*
X27255384Y-16532018D01*
X27255384Y-16602065D01*
X27325431Y-16602065D01*
X27524035Y-14712473D02*
X27524035Y-14642427D01*
X27453988Y-14642427D01*
X27453988Y-14712473D01*
X27524035Y-14712473D01*
X27722639Y-12822882D02*
X27722639Y-12752836D01*
X27652592Y-12752836D01*
X27652592Y-12822882D01*
X27722639Y-12822882D01*
X28083256Y-16681715D02*
X28083256Y-16611669D01*
X28013209Y-16611669D01*
X28013209Y-16681715D01*
X28083256Y-16681715D01*
X28281860Y-14792124D02*
X28281860Y-14722077D01*
X28211814Y-14722077D01*
X28211814Y-14792124D01*
X28281860Y-14792124D01*
X28480464Y-12902533D02*
X28480464Y-12832486D01*
X28410418Y-12832486D01*
X28410418Y-12902533D01*
X28480464Y-12902533D01*
X14971008Y-8134128D02*
X15021008Y-8084128D01*
X14971008Y-8034128D01*
X14921008Y-8084128D01*
X14971008Y-8134128D01*
X14971008Y-8388128D02*
X15021008Y-8338128D01*
X14971008Y-8288128D01*
X14921008Y-8338128D01*
X14971008Y-8388128D01*
X14971008Y-8642128D02*
X15021008Y-8592128D01*
X14971008Y-8542128D01*
X14921008Y-8592128D01*
X14971008Y-8642128D01*
X14971008Y-8896128D02*
X15021008Y-8846128D01*
X14971008Y-8796128D01*
X14921008Y-8846128D01*
X14971008Y-8896128D01*
X14971008Y-9150128D02*
X15021008Y-9100128D01*
X14971008Y-9050128D01*
X14921008Y-9100128D01*
X14971008Y-9150128D01*
X14971008Y-9404128D02*
X15021008Y-9354128D01*
X14971008Y-9304128D01*
X14921008Y-9354128D01*
X14971008Y-9404128D01*
X14971008Y-9658128D02*
X15021008Y-9608128D01*
X14971008Y-9558128D01*
X14921008Y-9608128D01*
X14971008Y-9658128D01*
X14971008Y-10166128D02*
X15021008Y-10116128D01*
X14971008Y-10066128D01*
X14921008Y-10116128D01*
X14971008Y-10166128D01*
X14971008Y-10420128D02*
X15021008Y-10370128D01*
X14971008Y-10320128D01*
X14921008Y-10370128D01*
X14971008Y-10420128D01*
X14971008Y-10674128D02*
X15021008Y-10624128D01*
X14971008Y-10574128D01*
X14921008Y-10624128D01*
X14971008Y-10674128D01*
X14971008Y-10928128D02*
X15021008Y-10878128D01*
X14971008Y-10828128D01*
X14921008Y-10878128D01*
X14971008Y-10928128D01*
X14971008Y-9912128D02*
X15021008Y-9862128D01*
X14971008Y-9812128D01*
X14921008Y-9862128D01*
X14971008Y-9912128D01*
X15225007Y-11389127D02*
X15275007Y-11339127D01*
X15225007Y-11289127D01*
X15175007Y-11339127D01*
X15225007Y-11389127D01*
X15479008Y-11389127D02*
X15529008Y-11339127D01*
X15479008Y-11289127D01*
X15429008Y-11339127D01*
X15479008Y-11389127D01*
X15733008Y-11389127D02*
X15783008Y-11339127D01*
X15733008Y-11289127D01*
X15683008Y-11339127D01*
X15733008Y-11389127D01*
X15987008Y-11389127D02*
X16037008Y-11339127D01*
X15987008Y-11289127D01*
X15937008Y-11339127D01*
X15987008Y-11389127D01*
X16241008Y-11389127D02*
X16291008Y-11339127D01*
X16241008Y-11289127D01*
X16191008Y-11339127D01*
X16241008Y-11389127D01*
X16495008Y-10928128D02*
X16545008Y-10878128D01*
X16495008Y-10828128D01*
X16445008Y-10878128D01*
X16495008Y-10928128D01*
X16495008Y-8896128D02*
X16545008Y-8846128D01*
X16495008Y-8796128D01*
X16445008Y-8846128D01*
X16495008Y-8896128D01*
X16495008Y-8134128D02*
X16545008Y-8084128D01*
X16495008Y-8034128D01*
X16445008Y-8084128D01*
X16495008Y-8134128D01*
X16495008Y-8388128D02*
X16545008Y-8338128D01*
X16495008Y-8288128D01*
X16445008Y-8338128D01*
X16495008Y-8388128D01*
X16495008Y-8642128D02*
X16545008Y-8592128D01*
X16495008Y-8542128D01*
X16445008Y-8592128D01*
X16495008Y-8642128D01*
X16495008Y-9150128D02*
X16545008Y-9100128D01*
X16495008Y-9050128D01*
X16445008Y-9100128D01*
X16495008Y-9150128D01*
X16495008Y-9404128D02*
X16545008Y-9354128D01*
X16495008Y-9304128D01*
X16445008Y-9354128D01*
X16495008Y-9404128D01*
X16495008Y-9658128D02*
X16545008Y-9608128D01*
X16495008Y-9558128D01*
X16445008Y-9608128D01*
X16495008Y-9658128D01*
X16495008Y-9912128D02*
X16545008Y-9862128D01*
X16495008Y-9812128D01*
X16445008Y-9862128D01*
X16495008Y-9912128D01*
X16495008Y-10166128D02*
X16545008Y-10116128D01*
X16495008Y-10066128D01*
X16445008Y-10116128D01*
X16495008Y-10166128D01*
X16495008Y-10420128D02*
X16545008Y-10370128D01*
X16495008Y-10320128D01*
X16445008Y-10370128D01*
X16495008Y-10420128D01*
X16495008Y-10674128D02*
X16545008Y-10624128D01*
X16495008Y-10574128D01*
X16445008Y-10624128D01*
X16495008Y-10674128D01*
D10*
X13863008Y-16404128D02*
X14013008Y-16554128D01*
X14013008Y-16404128D02*
X13863008Y-16554128D01*
X14013008Y-16479128D02*
G75*
G02*
X13863008Y-16479128I-75000J0D01*
G01*
X13863008Y-16479128D02*
G75*
G02*
X14013008Y-16479128I75000J0D01*
G01*
D12*
X14013008Y-16519128D02*
X14013008Y-16439128D01*
X13863008Y-16439128D02*
G75*
G02*
X14013008Y-16439128I75000J0D01*
G01*
X13863008Y-16439128D02*
X13863008Y-16519128D01*
X13863008Y-16519128D02*
G75*
G03*
X14013008Y-16519128I75000J0D01*
G01*
D10*
X14983008Y-16404128D02*
X15133008Y-16554128D01*
X15133008Y-16404128D02*
X14983008Y-16554128D01*
X15133008Y-16479128D02*
G75*
G02*
X14983008Y-16479128I-75000J0D01*
G01*
X14983008Y-16479128D02*
G75*
G02*
X15133008Y-16479128I75000J0D01*
G01*
D12*
X15133008Y-16519128D02*
X15133008Y-16439128D01*
X14983008Y-16439128D02*
G75*
G02*
X15133008Y-16439128I75000J0D01*
G01*
X14983008Y-16439128D02*
X14983008Y-16519128D01*
X14983008Y-16519128D02*
G75*
G03*
X15133008Y-16519128I75000J0D01*
G01*
D13*
X13538008Y-17819127D02*
X13858008Y-18139127D01*
X13858008Y-17819127D02*
X13538008Y-18139127D01*
X13698008Y-17819127D02*
X13698008Y-18139127D01*
X13538008Y-17979127D02*
X13858008Y-17979127D01*
X18898008Y-9939127D02*
X19218008Y-10259127D01*
X19218008Y-9939127D02*
X18898008Y-10259127D01*
X19058008Y-9939127D02*
X19058008Y-10259127D01*
X18898008Y-10099127D02*
X19218008Y-10099127D01*
X18898008Y-13739127D02*
X19218008Y-14059127D01*
X19218008Y-13739127D02*
X18898008Y-14059127D01*
X19058008Y-13739127D02*
X19058008Y-14059127D01*
X18898008Y-13899127D02*
X19218008Y-13899127D01*
X24598007Y-13789127D02*
X24918007Y-14109127D01*
X24918007Y-13789127D02*
X24598007Y-14109127D01*
X24758007Y-13789127D02*
X24758007Y-14109127D01*
X24598007Y-13949127D02*
X24918007Y-13949127D01*
X24598008Y-9989128D02*
X24918008Y-10309128D01*
X24918008Y-9989128D02*
X24598008Y-10309128D01*
X24758008Y-9989128D02*
X24758008Y-10309128D01*
X24598008Y-10149128D02*
X24918008Y-10149128D01*
D11*
X13386284Y-21228165D02*
X13386284Y-21028165D01*
X13386284Y-21028165D02*
X13433903Y-21028165D01*
X13433903Y-21028165D02*
X13462474Y-21037689D01*
X13462474Y-21037689D02*
X13481522Y-21056736D01*
X13481522Y-21056736D02*
X13491046Y-21075784D01*
X13491046Y-21075784D02*
X13500570Y-21113879D01*
X13500570Y-21113879D02*
X13500570Y-21142451D01*
X13500570Y-21142451D02*
X13491046Y-21180546D01*
X13491046Y-21180546D02*
X13481522Y-21199593D01*
X13481522Y-21199593D02*
X13462474Y-21218641D01*
X13462474Y-21218641D02*
X13433903Y-21228165D01*
X13433903Y-21228165D02*
X13386284Y-21228165D01*
X13586284Y-21228165D02*
X13586284Y-21094831D01*
X13586284Y-21132927D02*
X13595808Y-21113879D01*
X13595808Y-21113879D02*
X13605332Y-21104355D01*
X13605332Y-21104355D02*
X13624379Y-21094831D01*
X13624379Y-21094831D02*
X13643427Y-21094831D01*
X13710093Y-21228165D02*
X13710093Y-21094831D01*
X13710093Y-21028165D02*
X13700570Y-21037689D01*
X13700570Y-21037689D02*
X13710093Y-21047212D01*
X13710093Y-21047212D02*
X13719617Y-21037689D01*
X13719617Y-21037689D02*
X13710093Y-21028165D01*
X13710093Y-21028165D02*
X13710093Y-21047212D01*
X13833903Y-21228165D02*
X13814855Y-21218641D01*
X13814855Y-21218641D02*
X13805332Y-21199593D01*
X13805332Y-21199593D02*
X13805332Y-21028165D01*
X13938665Y-21228165D02*
X13919617Y-21218641D01*
X13919617Y-21218641D02*
X13910093Y-21199593D01*
X13910093Y-21199593D02*
X13910093Y-21028165D01*
X14167236Y-21228165D02*
X14167236Y-21028165D01*
X14167236Y-21028165D02*
X14233903Y-21171022D01*
X14233903Y-21171022D02*
X14300570Y-21028165D01*
X14300570Y-21028165D02*
X14300570Y-21228165D01*
X14481522Y-21228165D02*
X14481522Y-21123403D01*
X14481522Y-21123403D02*
X14471998Y-21104355D01*
X14471998Y-21104355D02*
X14452951Y-21094831D01*
X14452951Y-21094831D02*
X14414855Y-21094831D01*
X14414855Y-21094831D02*
X14395808Y-21104355D01*
X14481522Y-21218641D02*
X14462474Y-21228165D01*
X14462474Y-21228165D02*
X14414855Y-21228165D01*
X14414855Y-21228165D02*
X14395808Y-21218641D01*
X14395808Y-21218641D02*
X14386284Y-21199593D01*
X14386284Y-21199593D02*
X14386284Y-21180546D01*
X14386284Y-21180546D02*
X14395808Y-21161498D01*
X14395808Y-21161498D02*
X14414855Y-21151974D01*
X14414855Y-21151974D02*
X14462474Y-21151974D01*
X14462474Y-21151974D02*
X14481522Y-21142451D01*
X14576760Y-21094831D02*
X14576760Y-21294831D01*
X14576760Y-21104355D02*
X14595808Y-21094831D01*
X14595808Y-21094831D02*
X14633903Y-21094831D01*
X14633903Y-21094831D02*
X14652951Y-21104355D01*
X14652951Y-21104355D02*
X14662474Y-21113879D01*
X14662474Y-21113879D02*
X14671998Y-21132927D01*
X14671998Y-21132927D02*
X14671998Y-21190070D01*
X14671998Y-21190070D02*
X14662474Y-21209117D01*
X14662474Y-21209117D02*
X14652951Y-21218641D01*
X14652951Y-21218641D02*
X14633903Y-21228165D01*
X14633903Y-21228165D02*
X14595808Y-21228165D01*
X14595808Y-21228165D02*
X14576760Y-21218641D01*
X14757713Y-21209117D02*
X14767236Y-21218641D01*
X14767236Y-21218641D02*
X14757713Y-21228165D01*
X14757713Y-21228165D02*
X14748189Y-21218641D01*
X14748189Y-21218641D02*
X14757713Y-21209117D01*
X14757713Y-21209117D02*
X14757713Y-21228165D01*
X14757713Y-21104355D02*
X14767236Y-21113879D01*
X14767236Y-21113879D02*
X14757713Y-21123403D01*
X14757713Y-21123403D02*
X14748189Y-21113879D01*
X14748189Y-21113879D02*
X14757713Y-21104355D01*
X14757713Y-21104355D02*
X14757713Y-21123403D01*
D12*
X13095507Y-21541681D02*
X13125507Y-21571681D01*
X13125507Y-21541681D02*
X13095507Y-21571681D01*
D11*
X13424379Y-21448165D02*
X13443427Y-21448165D01*
X13443427Y-21448165D02*
X13462474Y-21457689D01*
X13462474Y-21457689D02*
X13471998Y-21467212D01*
X13471998Y-21467212D02*
X13481522Y-21486260D01*
X13481522Y-21486260D02*
X13491046Y-21524355D01*
X13491046Y-21524355D02*
X13491046Y-21571974D01*
X13491046Y-21571974D02*
X13481522Y-21610070D01*
X13481522Y-21610070D02*
X13471998Y-21629117D01*
X13471998Y-21629117D02*
X13462474Y-21638641D01*
X13462474Y-21638641D02*
X13443427Y-21648165D01*
X13443427Y-21648165D02*
X13424379Y-21648165D01*
X13424379Y-21648165D02*
X13405332Y-21638641D01*
X13405332Y-21638641D02*
X13395808Y-21629117D01*
X13395808Y-21629117D02*
X13386284Y-21610070D01*
X13386284Y-21610070D02*
X13376760Y-21571974D01*
X13376760Y-21571974D02*
X13376760Y-21524355D01*
X13376760Y-21524355D02*
X13386284Y-21486260D01*
X13386284Y-21486260D02*
X13395808Y-21467212D01*
X13395808Y-21467212D02*
X13405332Y-21457689D01*
X13405332Y-21457689D02*
X13424379Y-21448165D01*
X13576760Y-21629117D02*
X13586284Y-21638641D01*
X13586284Y-21638641D02*
X13576760Y-21648165D01*
X13576760Y-21648165D02*
X13567236Y-21638641D01*
X13567236Y-21638641D02*
X13576760Y-21629117D01*
X13576760Y-21629117D02*
X13576760Y-21648165D01*
X13652951Y-21448165D02*
X13776760Y-21448165D01*
X13776760Y-21448165D02*
X13710093Y-21524355D01*
X13710093Y-21524355D02*
X13738665Y-21524355D01*
X13738665Y-21524355D02*
X13757713Y-21533879D01*
X13757713Y-21533879D02*
X13767236Y-21543403D01*
X13767236Y-21543403D02*
X13776760Y-21562451D01*
X13776760Y-21562451D02*
X13776760Y-21610070D01*
X13776760Y-21610070D02*
X13767236Y-21629117D01*
X13767236Y-21629117D02*
X13757713Y-21638641D01*
X13757713Y-21638641D02*
X13738665Y-21648165D01*
X13738665Y-21648165D02*
X13681522Y-21648165D01*
X13681522Y-21648165D02*
X13662474Y-21638641D01*
X13662474Y-21638641D02*
X13652951Y-21629117D01*
X13900570Y-21448165D02*
X13919617Y-21448165D01*
X13919617Y-21448165D02*
X13938665Y-21457689D01*
X13938665Y-21457689D02*
X13948189Y-21467212D01*
X13948189Y-21467212D02*
X13957713Y-21486260D01*
X13957713Y-21486260D02*
X13967236Y-21524355D01*
X13967236Y-21524355D02*
X13967236Y-21571974D01*
X13967236Y-21571974D02*
X13957713Y-21610070D01*
X13957713Y-21610070D02*
X13948189Y-21629117D01*
X13948189Y-21629117D02*
X13938665Y-21638641D01*
X13938665Y-21638641D02*
X13919617Y-21648165D01*
X13919617Y-21648165D02*
X13900570Y-21648165D01*
X13900570Y-21648165D02*
X13881522Y-21638641D01*
X13881522Y-21638641D02*
X13871998Y-21629117D01*
X13871998Y-21629117D02*
X13862474Y-21610070D01*
X13862474Y-21610070D02*
X13852951Y-21571974D01*
X13852951Y-21571974D02*
X13852951Y-21524355D01*
X13852951Y-21524355D02*
X13862474Y-21486260D01*
X13862474Y-21486260D02*
X13871998Y-21467212D01*
X13871998Y-21467212D02*
X13881522Y-21457689D01*
X13881522Y-21457689D02*
X13900570Y-21448165D01*
X14091046Y-21448165D02*
X14110094Y-21448165D01*
X14110094Y-21448165D02*
X14129141Y-21457689D01*
X14129141Y-21457689D02*
X14138665Y-21467212D01*
X14138665Y-21467212D02*
X14148189Y-21486260D01*
X14148189Y-21486260D02*
X14157713Y-21524355D01*
X14157713Y-21524355D02*
X14157713Y-21571974D01*
X14157713Y-21571974D02*
X14148189Y-21610070D01*
X14148189Y-21610070D02*
X14138665Y-21629117D01*
X14138665Y-21629117D02*
X14129141Y-21638641D01*
X14129141Y-21638641D02*
X14110094Y-21648165D01*
X14110094Y-21648165D02*
X14091046Y-21648165D01*
X14091046Y-21648165D02*
X14071998Y-21638641D01*
X14071998Y-21638641D02*
X14062474Y-21629117D01*
X14062474Y-21629117D02*
X14052951Y-21610070D01*
X14052951Y-21610070D02*
X14043427Y-21571974D01*
X14043427Y-21571974D02*
X14043427Y-21524355D01*
X14043427Y-21524355D02*
X14052951Y-21486260D01*
X14052951Y-21486260D02*
X14062474Y-21467212D01*
X14062474Y-21467212D02*
X14071998Y-21457689D01*
X14071998Y-21457689D02*
X14091046Y-21448165D01*
X14243427Y-21648165D02*
X14243427Y-21514831D01*
X14243427Y-21533879D02*
X14252951Y-21524355D01*
X14252951Y-21524355D02*
X14271998Y-21514831D01*
X14271998Y-21514831D02*
X14300570Y-21514831D01*
X14300570Y-21514831D02*
X14319617Y-21524355D01*
X14319617Y-21524355D02*
X14329141Y-21543403D01*
X14329141Y-21543403D02*
X14329141Y-21648165D01*
X14329141Y-21543403D02*
X14338665Y-21524355D01*
X14338665Y-21524355D02*
X14357713Y-21514831D01*
X14357713Y-21514831D02*
X14386284Y-21514831D01*
X14386284Y-21514831D02*
X14405332Y-21524355D01*
X14405332Y-21524355D02*
X14414855Y-21543403D01*
X14414855Y-21543403D02*
X14414855Y-21648165D01*
X14510094Y-21648165D02*
X14510094Y-21514831D01*
X14510094Y-21533879D02*
X14519617Y-21524355D01*
X14519617Y-21524355D02*
X14538665Y-21514831D01*
X14538665Y-21514831D02*
X14567236Y-21514831D01*
X14567236Y-21514831D02*
X14586284Y-21524355D01*
X14586284Y-21524355D02*
X14595808Y-21543403D01*
X14595808Y-21543403D02*
X14595808Y-21648165D01*
X14595808Y-21543403D02*
X14605332Y-21524355D01*
X14605332Y-21524355D02*
X14624379Y-21514831D01*
X14624379Y-21514831D02*
X14652951Y-21514831D01*
X14652951Y-21514831D02*
X14671998Y-21524355D01*
X14671998Y-21524355D02*
X14681522Y-21543403D01*
X14681522Y-21543403D02*
X14681522Y-21648165D01*
X15071998Y-21438641D02*
X14900570Y-21695784D01*
X15329141Y-21448165D02*
X15348189Y-21448165D01*
X15348189Y-21448165D02*
X15367237Y-21457689D01*
X15367237Y-21457689D02*
X15376760Y-21467212D01*
X15376760Y-21467212D02*
X15386284Y-21486260D01*
X15386284Y-21486260D02*
X15395808Y-21524355D01*
X15395808Y-21524355D02*
X15395808Y-21571974D01*
X15395808Y-21571974D02*
X15386284Y-21610070D01*
X15386284Y-21610070D02*
X15376760Y-21629117D01*
X15376760Y-21629117D02*
X15367237Y-21638641D01*
X15367237Y-21638641D02*
X15348189Y-21648165D01*
X15348189Y-21648165D02*
X15329141Y-21648165D01*
X15329141Y-21648165D02*
X15310094Y-21638641D01*
X15310094Y-21638641D02*
X15300570Y-21629117D01*
X15300570Y-21629117D02*
X15291046Y-21610070D01*
X15291046Y-21610070D02*
X15281522Y-21571974D01*
X15281522Y-21571974D02*
X15281522Y-21524355D01*
X15281522Y-21524355D02*
X15291046Y-21486260D01*
X15291046Y-21486260D02*
X15300570Y-21467212D01*
X15300570Y-21467212D02*
X15310094Y-21457689D01*
X15310094Y-21457689D02*
X15329141Y-21448165D01*
X15481522Y-21629117D02*
X15491046Y-21638641D01*
X15491046Y-21638641D02*
X15481522Y-21648165D01*
X15481522Y-21648165D02*
X15471998Y-21638641D01*
X15471998Y-21638641D02*
X15481522Y-21629117D01*
X15481522Y-21629117D02*
X15481522Y-21648165D01*
X15614856Y-21448165D02*
X15633903Y-21448165D01*
X15633903Y-21448165D02*
X15652951Y-21457689D01*
X15652951Y-21457689D02*
X15662475Y-21467212D01*
X15662475Y-21467212D02*
X15671998Y-21486260D01*
X15671998Y-21486260D02*
X15681522Y-21524355D01*
X15681522Y-21524355D02*
X15681522Y-21571974D01*
X15681522Y-21571974D02*
X15671998Y-21610070D01*
X15671998Y-21610070D02*
X15662475Y-21629117D01*
X15662475Y-21629117D02*
X15652951Y-21638641D01*
X15652951Y-21638641D02*
X15633903Y-21648165D01*
X15633903Y-21648165D02*
X15614856Y-21648165D01*
X15614856Y-21648165D02*
X15595808Y-21638641D01*
X15595808Y-21638641D02*
X15586284Y-21629117D01*
X15586284Y-21629117D02*
X15576760Y-21610070D01*
X15576760Y-21610070D02*
X15567237Y-21571974D01*
X15567237Y-21571974D02*
X15567237Y-21524355D01*
X15567237Y-21524355D02*
X15576760Y-21486260D01*
X15576760Y-21486260D02*
X15586284Y-21467212D01*
X15586284Y-21467212D02*
X15595808Y-21457689D01*
X15595808Y-21457689D02*
X15614856Y-21448165D01*
X15871998Y-21648165D02*
X15757713Y-21648165D01*
X15814856Y-21648165D02*
X15814856Y-21448165D01*
X15814856Y-21448165D02*
X15795808Y-21476736D01*
X15795808Y-21476736D02*
X15776760Y-21495784D01*
X15776760Y-21495784D02*
X15757713Y-21505308D01*
X16062475Y-21648165D02*
X15948189Y-21648165D01*
X16005332Y-21648165D02*
X16005332Y-21448165D01*
X16005332Y-21448165D02*
X15986284Y-21476736D01*
X15986284Y-21476736D02*
X15967237Y-21495784D01*
X15967237Y-21495784D02*
X15948189Y-21505308D01*
X16176760Y-21533879D02*
X16157713Y-21524355D01*
X16157713Y-21524355D02*
X16148189Y-21514831D01*
X16148189Y-21514831D02*
X16138665Y-21495784D01*
X16138665Y-21495784D02*
X16138665Y-21486260D01*
X16138665Y-21486260D02*
X16148189Y-21467212D01*
X16148189Y-21467212D02*
X16157713Y-21457689D01*
X16157713Y-21457689D02*
X16176760Y-21448165D01*
X16176760Y-21448165D02*
X16214856Y-21448165D01*
X16214856Y-21448165D02*
X16233903Y-21457689D01*
X16233903Y-21457689D02*
X16243427Y-21467212D01*
X16243427Y-21467212D02*
X16252951Y-21486260D01*
X16252951Y-21486260D02*
X16252951Y-21495784D01*
X16252951Y-21495784D02*
X16243427Y-21514831D01*
X16243427Y-21514831D02*
X16233903Y-21524355D01*
X16233903Y-21524355D02*
X16214856Y-21533879D01*
X16214856Y-21533879D02*
X16176760Y-21533879D01*
X16176760Y-21533879D02*
X16157713Y-21543403D01*
X16157713Y-21543403D02*
X16148189Y-21552927D01*
X16148189Y-21552927D02*
X16138665Y-21571974D01*
X16138665Y-21571974D02*
X16138665Y-21610070D01*
X16138665Y-21610070D02*
X16148189Y-21629117D01*
X16148189Y-21629117D02*
X16157713Y-21638641D01*
X16157713Y-21638641D02*
X16176760Y-21648165D01*
X16176760Y-21648165D02*
X16214856Y-21648165D01*
X16214856Y-21648165D02*
X16233903Y-21638641D01*
X16233903Y-21638641D02*
X16243427Y-21629117D01*
X16243427Y-21629117D02*
X16252951Y-21610070D01*
X16252951Y-21610070D02*
X16252951Y-21571974D01*
X16252951Y-21571974D02*
X16243427Y-21552927D01*
X16243427Y-21552927D02*
X16233903Y-21543403D01*
X16233903Y-21543403D02*
X16214856Y-21533879D01*
X16329141Y-21448165D02*
X16329141Y-21486260D01*
X16405332Y-21448165D02*
X16405332Y-21486260D01*
X16700570Y-21724355D02*
X16691046Y-21714831D01*
X16691046Y-21714831D02*
X16671999Y-21686260D01*
X16671999Y-21686260D02*
X16662475Y-21667212D01*
X16662475Y-21667212D02*
X16652951Y-21638641D01*
X16652951Y-21638641D02*
X16643427Y-21591022D01*
X16643427Y-21591022D02*
X16643427Y-21552927D01*
X16643427Y-21552927D02*
X16652951Y-21505308D01*
X16652951Y-21505308D02*
X16662475Y-21476736D01*
X16662475Y-21476736D02*
X16671999Y-21457689D01*
X16671999Y-21457689D02*
X16691046Y-21429117D01*
X16691046Y-21429117D02*
X16700570Y-21419593D01*
X16786284Y-21648165D02*
X16824380Y-21648165D01*
X16824380Y-21648165D02*
X16843427Y-21638641D01*
X16843427Y-21638641D02*
X16852951Y-21629117D01*
X16852951Y-21629117D02*
X16871999Y-21600546D01*
X16871999Y-21600546D02*
X16881522Y-21562451D01*
X16881522Y-21562451D02*
X16881522Y-21486260D01*
X16881522Y-21486260D02*
X16871999Y-21467212D01*
X16871999Y-21467212D02*
X16862475Y-21457689D01*
X16862475Y-21457689D02*
X16843427Y-21448165D01*
X16843427Y-21448165D02*
X16805332Y-21448165D01*
X16805332Y-21448165D02*
X16786284Y-21457689D01*
X16786284Y-21457689D02*
X16776760Y-21467212D01*
X16776760Y-21467212D02*
X16767237Y-21486260D01*
X16767237Y-21486260D02*
X16767237Y-21533879D01*
X16767237Y-21533879D02*
X16776760Y-21552927D01*
X16776760Y-21552927D02*
X16786284Y-21562451D01*
X16786284Y-21562451D02*
X16805332Y-21571974D01*
X16805332Y-21571974D02*
X16843427Y-21571974D01*
X16843427Y-21571974D02*
X16862475Y-21562451D01*
X16862475Y-21562451D02*
X16871999Y-21552927D01*
X16871999Y-21552927D02*
X16881522Y-21533879D01*
X17119618Y-21648165D02*
X17119618Y-21448165D01*
X17205332Y-21648165D02*
X17205332Y-21543403D01*
X17205332Y-21543403D02*
X17195808Y-21524355D01*
X17195808Y-21524355D02*
X17176761Y-21514831D01*
X17176761Y-21514831D02*
X17148189Y-21514831D01*
X17148189Y-21514831D02*
X17129142Y-21524355D01*
X17129142Y-21524355D02*
X17119618Y-21533879D01*
X17329142Y-21648165D02*
X17310094Y-21638641D01*
X17310094Y-21638641D02*
X17300570Y-21629117D01*
X17300570Y-21629117D02*
X17291046Y-21610070D01*
X17291046Y-21610070D02*
X17291046Y-21552927D01*
X17291046Y-21552927D02*
X17300570Y-21533879D01*
X17300570Y-21533879D02*
X17310094Y-21524355D01*
X17310094Y-21524355D02*
X17329142Y-21514831D01*
X17329142Y-21514831D02*
X17357713Y-21514831D01*
X17357713Y-21514831D02*
X17376761Y-21524355D01*
X17376761Y-21524355D02*
X17386284Y-21533879D01*
X17386284Y-21533879D02*
X17395808Y-21552927D01*
X17395808Y-21552927D02*
X17395808Y-21610070D01*
X17395808Y-21610070D02*
X17386284Y-21629117D01*
X17386284Y-21629117D02*
X17376761Y-21638641D01*
X17376761Y-21638641D02*
X17357713Y-21648165D01*
X17357713Y-21648165D02*
X17329142Y-21648165D01*
X17510094Y-21648165D02*
X17491046Y-21638641D01*
X17491046Y-21638641D02*
X17481523Y-21619593D01*
X17481523Y-21619593D02*
X17481523Y-21448165D01*
X17662475Y-21638641D02*
X17643427Y-21648165D01*
X17643427Y-21648165D02*
X17605332Y-21648165D01*
X17605332Y-21648165D02*
X17586284Y-21638641D01*
X17586284Y-21638641D02*
X17576761Y-21619593D01*
X17576761Y-21619593D02*
X17576761Y-21543403D01*
X17576761Y-21543403D02*
X17586284Y-21524355D01*
X17586284Y-21524355D02*
X17605332Y-21514831D01*
X17605332Y-21514831D02*
X17643427Y-21514831D01*
X17643427Y-21514831D02*
X17662475Y-21524355D01*
X17662475Y-21524355D02*
X17671999Y-21543403D01*
X17671999Y-21543403D02*
X17671999Y-21562451D01*
X17671999Y-21562451D02*
X17576761Y-21581498D01*
X17748189Y-21638641D02*
X17767237Y-21648165D01*
X17767237Y-21648165D02*
X17805332Y-21648165D01*
X17805332Y-21648165D02*
X17824380Y-21638641D01*
X17824380Y-21638641D02*
X17833904Y-21619593D01*
X17833904Y-21619593D02*
X17833904Y-21610070D01*
X17833904Y-21610070D02*
X17824380Y-21591022D01*
X17824380Y-21591022D02*
X17805332Y-21581498D01*
X17805332Y-21581498D02*
X17776761Y-21581498D01*
X17776761Y-21581498D02*
X17757713Y-21571974D01*
X17757713Y-21571974D02*
X17748189Y-21552927D01*
X17748189Y-21552927D02*
X17748189Y-21543403D01*
X17748189Y-21543403D02*
X17757713Y-21524355D01*
X17757713Y-21524355D02*
X17776761Y-21514831D01*
X17776761Y-21514831D02*
X17805332Y-21514831D01*
X17805332Y-21514831D02*
X17824380Y-21524355D01*
X17900570Y-21724355D02*
X17910094Y-21714831D01*
X17910094Y-21714831D02*
X17929142Y-21686260D01*
X17929142Y-21686260D02*
X17938665Y-21667212D01*
X17938665Y-21667212D02*
X17948189Y-21638641D01*
X17948189Y-21638641D02*
X17957713Y-21591022D01*
X17957713Y-21591022D02*
X17957713Y-21552927D01*
X17957713Y-21552927D02*
X17948189Y-21505308D01*
X17948189Y-21505308D02*
X17938665Y-21476736D01*
X17938665Y-21476736D02*
X17929142Y-21457689D01*
X17929142Y-21457689D02*
X17910094Y-21429117D01*
X17910094Y-21429117D02*
X17900570Y-21419593D01*
D12*
X13125507Y-21820681D02*
G75*
G02*
X13075507Y-21820681I-25000J0D01*
G01*
X13075507Y-21820681D02*
G75*
G02*
X13125507Y-21820681I25000J0D01*
G01*
D11*
X13424379Y-21712165D02*
X13443427Y-21712165D01*
X13443427Y-21712165D02*
X13462474Y-21721689D01*
X13462474Y-21721689D02*
X13471998Y-21731212D01*
X13471998Y-21731212D02*
X13481522Y-21750260D01*
X13481522Y-21750260D02*
X13491046Y-21788355D01*
X13491046Y-21788355D02*
X13491046Y-21835974D01*
X13491046Y-21835974D02*
X13481522Y-21874070D01*
X13481522Y-21874070D02*
X13471998Y-21893117D01*
X13471998Y-21893117D02*
X13462474Y-21902641D01*
X13462474Y-21902641D02*
X13443427Y-21912165D01*
X13443427Y-21912165D02*
X13424379Y-21912165D01*
X13424379Y-21912165D02*
X13405332Y-21902641D01*
X13405332Y-21902641D02*
X13395808Y-21893117D01*
X13395808Y-21893117D02*
X13386284Y-21874070D01*
X13386284Y-21874070D02*
X13376760Y-21835974D01*
X13376760Y-21835974D02*
X13376760Y-21788355D01*
X13376760Y-21788355D02*
X13386284Y-21750260D01*
X13386284Y-21750260D02*
X13395808Y-21731212D01*
X13395808Y-21731212D02*
X13405332Y-21721689D01*
X13405332Y-21721689D02*
X13424379Y-21712165D01*
X13576760Y-21893117D02*
X13586284Y-21902641D01*
X13586284Y-21902641D02*
X13576760Y-21912165D01*
X13576760Y-21912165D02*
X13567236Y-21902641D01*
X13567236Y-21902641D02*
X13576760Y-21893117D01*
X13576760Y-21893117D02*
X13576760Y-21912165D01*
X13767236Y-21712165D02*
X13671998Y-21712165D01*
X13671998Y-21712165D02*
X13662474Y-21807403D01*
X13662474Y-21807403D02*
X13671998Y-21797879D01*
X13671998Y-21797879D02*
X13691046Y-21788355D01*
X13691046Y-21788355D02*
X13738665Y-21788355D01*
X13738665Y-21788355D02*
X13757713Y-21797879D01*
X13757713Y-21797879D02*
X13767236Y-21807403D01*
X13767236Y-21807403D02*
X13776760Y-21826451D01*
X13776760Y-21826451D02*
X13776760Y-21874070D01*
X13776760Y-21874070D02*
X13767236Y-21893117D01*
X13767236Y-21893117D02*
X13757713Y-21902641D01*
X13757713Y-21902641D02*
X13738665Y-21912165D01*
X13738665Y-21912165D02*
X13691046Y-21912165D01*
X13691046Y-21912165D02*
X13671998Y-21902641D01*
X13671998Y-21902641D02*
X13662474Y-21893117D01*
X13900570Y-21712165D02*
X13919617Y-21712165D01*
X13919617Y-21712165D02*
X13938665Y-21721689D01*
X13938665Y-21721689D02*
X13948189Y-21731212D01*
X13948189Y-21731212D02*
X13957713Y-21750260D01*
X13957713Y-21750260D02*
X13967236Y-21788355D01*
X13967236Y-21788355D02*
X13967236Y-21835974D01*
X13967236Y-21835974D02*
X13957713Y-21874070D01*
X13957713Y-21874070D02*
X13948189Y-21893117D01*
X13948189Y-21893117D02*
X13938665Y-21902641D01*
X13938665Y-21902641D02*
X13919617Y-21912165D01*
X13919617Y-21912165D02*
X13900570Y-21912165D01*
X13900570Y-21912165D02*
X13881522Y-21902641D01*
X13881522Y-21902641D02*
X13871998Y-21893117D01*
X13871998Y-21893117D02*
X13862474Y-21874070D01*
X13862474Y-21874070D02*
X13852951Y-21835974D01*
X13852951Y-21835974D02*
X13852951Y-21788355D01*
X13852951Y-21788355D02*
X13862474Y-21750260D01*
X13862474Y-21750260D02*
X13871998Y-21731212D01*
X13871998Y-21731212D02*
X13881522Y-21721689D01*
X13881522Y-21721689D02*
X13900570Y-21712165D01*
X14091046Y-21712165D02*
X14110094Y-21712165D01*
X14110094Y-21712165D02*
X14129141Y-21721689D01*
X14129141Y-21721689D02*
X14138665Y-21731212D01*
X14138665Y-21731212D02*
X14148189Y-21750260D01*
X14148189Y-21750260D02*
X14157713Y-21788355D01*
X14157713Y-21788355D02*
X14157713Y-21835974D01*
X14157713Y-21835974D02*
X14148189Y-21874070D01*
X14148189Y-21874070D02*
X14138665Y-21893117D01*
X14138665Y-21893117D02*
X14129141Y-21902641D01*
X14129141Y-21902641D02*
X14110094Y-21912165D01*
X14110094Y-21912165D02*
X14091046Y-21912165D01*
X14091046Y-21912165D02*
X14071998Y-21902641D01*
X14071998Y-21902641D02*
X14062474Y-21893117D01*
X14062474Y-21893117D02*
X14052951Y-21874070D01*
X14052951Y-21874070D02*
X14043427Y-21835974D01*
X14043427Y-21835974D02*
X14043427Y-21788355D01*
X14043427Y-21788355D02*
X14052951Y-21750260D01*
X14052951Y-21750260D02*
X14062474Y-21731212D01*
X14062474Y-21731212D02*
X14071998Y-21721689D01*
X14071998Y-21721689D02*
X14091046Y-21712165D01*
X14243427Y-21912165D02*
X14243427Y-21778831D01*
X14243427Y-21797879D02*
X14252951Y-21788355D01*
X14252951Y-21788355D02*
X14271998Y-21778831D01*
X14271998Y-21778831D02*
X14300570Y-21778831D01*
X14300570Y-21778831D02*
X14319617Y-21788355D01*
X14319617Y-21788355D02*
X14329141Y-21807403D01*
X14329141Y-21807403D02*
X14329141Y-21912165D01*
X14329141Y-21807403D02*
X14338665Y-21788355D01*
X14338665Y-21788355D02*
X14357713Y-21778831D01*
X14357713Y-21778831D02*
X14386284Y-21778831D01*
X14386284Y-21778831D02*
X14405332Y-21788355D01*
X14405332Y-21788355D02*
X14414855Y-21807403D01*
X14414855Y-21807403D02*
X14414855Y-21912165D01*
X14510094Y-21912165D02*
X14510094Y-21778831D01*
X14510094Y-21797879D02*
X14519617Y-21788355D01*
X14519617Y-21788355D02*
X14538665Y-21778831D01*
X14538665Y-21778831D02*
X14567236Y-21778831D01*
X14567236Y-21778831D02*
X14586284Y-21788355D01*
X14586284Y-21788355D02*
X14595808Y-21807403D01*
X14595808Y-21807403D02*
X14595808Y-21912165D01*
X14595808Y-21807403D02*
X14605332Y-21788355D01*
X14605332Y-21788355D02*
X14624379Y-21778831D01*
X14624379Y-21778831D02*
X14652951Y-21778831D01*
X14652951Y-21778831D02*
X14671998Y-21788355D01*
X14671998Y-21788355D02*
X14681522Y-21807403D01*
X14681522Y-21807403D02*
X14681522Y-21912165D01*
X15071998Y-21702641D02*
X14900570Y-21959784D01*
X15329141Y-21712165D02*
X15348189Y-21712165D01*
X15348189Y-21712165D02*
X15367237Y-21721689D01*
X15367237Y-21721689D02*
X15376760Y-21731212D01*
X15376760Y-21731212D02*
X15386284Y-21750260D01*
X15386284Y-21750260D02*
X15395808Y-21788355D01*
X15395808Y-21788355D02*
X15395808Y-21835974D01*
X15395808Y-21835974D02*
X15386284Y-21874070D01*
X15386284Y-21874070D02*
X15376760Y-21893117D01*
X15376760Y-21893117D02*
X15367237Y-21902641D01*
X15367237Y-21902641D02*
X15348189Y-21912165D01*
X15348189Y-21912165D02*
X15329141Y-21912165D01*
X15329141Y-21912165D02*
X15310094Y-21902641D01*
X15310094Y-21902641D02*
X15300570Y-21893117D01*
X15300570Y-21893117D02*
X15291046Y-21874070D01*
X15291046Y-21874070D02*
X15281522Y-21835974D01*
X15281522Y-21835974D02*
X15281522Y-21788355D01*
X15281522Y-21788355D02*
X15291046Y-21750260D01*
X15291046Y-21750260D02*
X15300570Y-21731212D01*
X15300570Y-21731212D02*
X15310094Y-21721689D01*
X15310094Y-21721689D02*
X15329141Y-21712165D01*
X15481522Y-21893117D02*
X15491046Y-21902641D01*
X15491046Y-21902641D02*
X15481522Y-21912165D01*
X15481522Y-21912165D02*
X15471998Y-21902641D01*
X15471998Y-21902641D02*
X15481522Y-21893117D01*
X15481522Y-21893117D02*
X15481522Y-21912165D01*
X15614856Y-21712165D02*
X15633903Y-21712165D01*
X15633903Y-21712165D02*
X15652951Y-21721689D01*
X15652951Y-21721689D02*
X15662475Y-21731212D01*
X15662475Y-21731212D02*
X15671998Y-21750260D01*
X15671998Y-21750260D02*
X15681522Y-21788355D01*
X15681522Y-21788355D02*
X15681522Y-21835974D01*
X15681522Y-21835974D02*
X15671998Y-21874070D01*
X15671998Y-21874070D02*
X15662475Y-21893117D01*
X15662475Y-21893117D02*
X15652951Y-21902641D01*
X15652951Y-21902641D02*
X15633903Y-21912165D01*
X15633903Y-21912165D02*
X15614856Y-21912165D01*
X15614856Y-21912165D02*
X15595808Y-21902641D01*
X15595808Y-21902641D02*
X15586284Y-21893117D01*
X15586284Y-21893117D02*
X15576760Y-21874070D01*
X15576760Y-21874070D02*
X15567237Y-21835974D01*
X15567237Y-21835974D02*
X15567237Y-21788355D01*
X15567237Y-21788355D02*
X15576760Y-21750260D01*
X15576760Y-21750260D02*
X15586284Y-21731212D01*
X15586284Y-21731212D02*
X15595808Y-21721689D01*
X15595808Y-21721689D02*
X15614856Y-21712165D01*
X15871998Y-21912165D02*
X15757713Y-21912165D01*
X15814856Y-21912165D02*
X15814856Y-21712165D01*
X15814856Y-21712165D02*
X15795808Y-21740736D01*
X15795808Y-21740736D02*
X15776760Y-21759784D01*
X15776760Y-21759784D02*
X15757713Y-21769308D01*
X15967237Y-21912165D02*
X16005332Y-21912165D01*
X16005332Y-21912165D02*
X16024379Y-21902641D01*
X16024379Y-21902641D02*
X16033903Y-21893117D01*
X16033903Y-21893117D02*
X16052951Y-21864546D01*
X16052951Y-21864546D02*
X16062475Y-21826451D01*
X16062475Y-21826451D02*
X16062475Y-21750260D01*
X16062475Y-21750260D02*
X16052951Y-21731212D01*
X16052951Y-21731212D02*
X16043427Y-21721689D01*
X16043427Y-21721689D02*
X16024379Y-21712165D01*
X16024379Y-21712165D02*
X15986284Y-21712165D01*
X15986284Y-21712165D02*
X15967237Y-21721689D01*
X15967237Y-21721689D02*
X15957713Y-21731212D01*
X15957713Y-21731212D02*
X15948189Y-21750260D01*
X15948189Y-21750260D02*
X15948189Y-21797879D01*
X15948189Y-21797879D02*
X15957713Y-21816927D01*
X15957713Y-21816927D02*
X15967237Y-21826451D01*
X15967237Y-21826451D02*
X15986284Y-21835974D01*
X15986284Y-21835974D02*
X16024379Y-21835974D01*
X16024379Y-21835974D02*
X16043427Y-21826451D01*
X16043427Y-21826451D02*
X16052951Y-21816927D01*
X16052951Y-21816927D02*
X16062475Y-21797879D01*
X16129141Y-21712165D02*
X16262475Y-21712165D01*
X16262475Y-21712165D02*
X16176760Y-21912165D01*
X16329141Y-21712165D02*
X16329141Y-21750260D01*
X16405332Y-21712165D02*
X16405332Y-21750260D01*
X16700570Y-21988355D02*
X16691046Y-21978831D01*
X16691046Y-21978831D02*
X16671999Y-21950260D01*
X16671999Y-21950260D02*
X16662475Y-21931212D01*
X16662475Y-21931212D02*
X16652951Y-21902641D01*
X16652951Y-21902641D02*
X16643427Y-21855022D01*
X16643427Y-21855022D02*
X16643427Y-21816927D01*
X16643427Y-21816927D02*
X16652951Y-21769308D01*
X16652951Y-21769308D02*
X16662475Y-21740736D01*
X16662475Y-21740736D02*
X16671999Y-21721689D01*
X16671999Y-21721689D02*
X16691046Y-21693117D01*
X16691046Y-21693117D02*
X16700570Y-21683593D01*
X16814856Y-21712165D02*
X16833903Y-21712165D01*
X16833903Y-21712165D02*
X16852951Y-21721689D01*
X16852951Y-21721689D02*
X16862475Y-21731212D01*
X16862475Y-21731212D02*
X16871999Y-21750260D01*
X16871999Y-21750260D02*
X16881522Y-21788355D01*
X16881522Y-21788355D02*
X16881522Y-21835974D01*
X16881522Y-21835974D02*
X16871999Y-21874070D01*
X16871999Y-21874070D02*
X16862475Y-21893117D01*
X16862475Y-21893117D02*
X16852951Y-21902641D01*
X16852951Y-21902641D02*
X16833903Y-21912165D01*
X16833903Y-21912165D02*
X16814856Y-21912165D01*
X16814856Y-21912165D02*
X16795808Y-21902641D01*
X16795808Y-21902641D02*
X16786284Y-21893117D01*
X16786284Y-21893117D02*
X16776760Y-21874070D01*
X16776760Y-21874070D02*
X16767237Y-21835974D01*
X16767237Y-21835974D02*
X16767237Y-21788355D01*
X16767237Y-21788355D02*
X16776760Y-21750260D01*
X16776760Y-21750260D02*
X16786284Y-21731212D01*
X16786284Y-21731212D02*
X16795808Y-21721689D01*
X16795808Y-21721689D02*
X16814856Y-21712165D01*
X17119618Y-21912165D02*
X17119618Y-21712165D01*
X17205332Y-21912165D02*
X17205332Y-21807403D01*
X17205332Y-21807403D02*
X17195808Y-21788355D01*
X17195808Y-21788355D02*
X17176761Y-21778831D01*
X17176761Y-21778831D02*
X17148189Y-21778831D01*
X17148189Y-21778831D02*
X17129142Y-21788355D01*
X17129142Y-21788355D02*
X17119618Y-21797879D01*
X17329142Y-21912165D02*
X17310094Y-21902641D01*
X17310094Y-21902641D02*
X17300570Y-21893117D01*
X17300570Y-21893117D02*
X17291046Y-21874070D01*
X17291046Y-21874070D02*
X17291046Y-21816927D01*
X17291046Y-21816927D02*
X17300570Y-21797879D01*
X17300570Y-21797879D02*
X17310094Y-21788355D01*
X17310094Y-21788355D02*
X17329142Y-21778831D01*
X17329142Y-21778831D02*
X17357713Y-21778831D01*
X17357713Y-21778831D02*
X17376761Y-21788355D01*
X17376761Y-21788355D02*
X17386284Y-21797879D01*
X17386284Y-21797879D02*
X17395808Y-21816927D01*
X17395808Y-21816927D02*
X17395808Y-21874070D01*
X17395808Y-21874070D02*
X17386284Y-21893117D01*
X17386284Y-21893117D02*
X17376761Y-21902641D01*
X17376761Y-21902641D02*
X17357713Y-21912165D01*
X17357713Y-21912165D02*
X17329142Y-21912165D01*
X17510094Y-21912165D02*
X17491046Y-21902641D01*
X17491046Y-21902641D02*
X17481523Y-21883593D01*
X17481523Y-21883593D02*
X17481523Y-21712165D01*
X17662475Y-21902641D02*
X17643427Y-21912165D01*
X17643427Y-21912165D02*
X17605332Y-21912165D01*
X17605332Y-21912165D02*
X17586284Y-21902641D01*
X17586284Y-21902641D02*
X17576761Y-21883593D01*
X17576761Y-21883593D02*
X17576761Y-21807403D01*
X17576761Y-21807403D02*
X17586284Y-21788355D01*
X17586284Y-21788355D02*
X17605332Y-21778831D01*
X17605332Y-21778831D02*
X17643427Y-21778831D01*
X17643427Y-21778831D02*
X17662475Y-21788355D01*
X17662475Y-21788355D02*
X17671999Y-21807403D01*
X17671999Y-21807403D02*
X17671999Y-21826451D01*
X17671999Y-21826451D02*
X17576761Y-21845498D01*
X17748189Y-21902641D02*
X17767237Y-21912165D01*
X17767237Y-21912165D02*
X17805332Y-21912165D01*
X17805332Y-21912165D02*
X17824380Y-21902641D01*
X17824380Y-21902641D02*
X17833904Y-21883593D01*
X17833904Y-21883593D02*
X17833904Y-21874070D01*
X17833904Y-21874070D02*
X17824380Y-21855022D01*
X17824380Y-21855022D02*
X17805332Y-21845498D01*
X17805332Y-21845498D02*
X17776761Y-21845498D01*
X17776761Y-21845498D02*
X17757713Y-21835974D01*
X17757713Y-21835974D02*
X17748189Y-21816927D01*
X17748189Y-21816927D02*
X17748189Y-21807403D01*
X17748189Y-21807403D02*
X17757713Y-21788355D01*
X17757713Y-21788355D02*
X17776761Y-21778831D01*
X17776761Y-21778831D02*
X17805332Y-21778831D01*
X17805332Y-21778831D02*
X17824380Y-21788355D01*
X18071999Y-21835974D02*
X18224380Y-21835974D01*
X18148189Y-21912165D02*
X18148189Y-21759784D01*
X18567237Y-21712165D02*
X18471999Y-21712165D01*
X18471999Y-21712165D02*
X18462475Y-21807403D01*
X18462475Y-21807403D02*
X18471999Y-21797879D01*
X18471999Y-21797879D02*
X18491046Y-21788355D01*
X18491046Y-21788355D02*
X18538666Y-21788355D01*
X18538666Y-21788355D02*
X18557713Y-21797879D01*
X18557713Y-21797879D02*
X18567237Y-21807403D01*
X18567237Y-21807403D02*
X18576761Y-21826451D01*
X18576761Y-21826451D02*
X18576761Y-21874070D01*
X18576761Y-21874070D02*
X18567237Y-21893117D01*
X18567237Y-21893117D02*
X18557713Y-21902641D01*
X18557713Y-21902641D02*
X18538666Y-21912165D01*
X18538666Y-21912165D02*
X18491046Y-21912165D01*
X18491046Y-21912165D02*
X18471999Y-21902641D01*
X18471999Y-21902641D02*
X18462475Y-21893117D01*
X18805332Y-21902641D02*
X18824380Y-21912165D01*
X18824380Y-21912165D02*
X18862475Y-21912165D01*
X18862475Y-21912165D02*
X18881523Y-21902641D01*
X18881523Y-21902641D02*
X18891047Y-21883593D01*
X18891047Y-21883593D02*
X18891047Y-21874070D01*
X18891047Y-21874070D02*
X18881523Y-21855022D01*
X18881523Y-21855022D02*
X18862475Y-21845498D01*
X18862475Y-21845498D02*
X18833904Y-21845498D01*
X18833904Y-21845498D02*
X18814856Y-21835974D01*
X18814856Y-21835974D02*
X18805332Y-21816927D01*
X18805332Y-21816927D02*
X18805332Y-21807403D01*
X18805332Y-21807403D02*
X18814856Y-21788355D01*
X18814856Y-21788355D02*
X18833904Y-21778831D01*
X18833904Y-21778831D02*
X18862475Y-21778831D01*
X18862475Y-21778831D02*
X18881523Y-21788355D01*
X19005332Y-21912165D02*
X18986285Y-21902641D01*
X18986285Y-21902641D02*
X18976761Y-21883593D01*
X18976761Y-21883593D02*
X18976761Y-21712165D01*
X19110094Y-21912165D02*
X19091047Y-21902641D01*
X19091047Y-21902641D02*
X19081523Y-21893117D01*
X19081523Y-21893117D02*
X19071999Y-21874070D01*
X19071999Y-21874070D02*
X19071999Y-21816927D01*
X19071999Y-21816927D02*
X19081523Y-21797879D01*
X19081523Y-21797879D02*
X19091047Y-21788355D01*
X19091047Y-21788355D02*
X19110094Y-21778831D01*
X19110094Y-21778831D02*
X19138666Y-21778831D01*
X19138666Y-21778831D02*
X19157713Y-21788355D01*
X19157713Y-21788355D02*
X19167237Y-21797879D01*
X19167237Y-21797879D02*
X19176761Y-21816927D01*
X19176761Y-21816927D02*
X19176761Y-21874070D01*
X19176761Y-21874070D02*
X19167237Y-21893117D01*
X19167237Y-21893117D02*
X19157713Y-21902641D01*
X19157713Y-21902641D02*
X19138666Y-21912165D01*
X19138666Y-21912165D02*
X19110094Y-21912165D01*
X19233904Y-21778831D02*
X19310094Y-21778831D01*
X19262475Y-21712165D02*
X19262475Y-21883593D01*
X19262475Y-21883593D02*
X19271999Y-21902641D01*
X19271999Y-21902641D02*
X19291047Y-21912165D01*
X19291047Y-21912165D02*
X19310094Y-21912165D01*
X19367237Y-21902641D02*
X19386285Y-21912165D01*
X19386285Y-21912165D02*
X19424380Y-21912165D01*
X19424380Y-21912165D02*
X19443428Y-21902641D01*
X19443428Y-21902641D02*
X19452951Y-21883593D01*
X19452951Y-21883593D02*
X19452951Y-21874070D01*
X19452951Y-21874070D02*
X19443428Y-21855022D01*
X19443428Y-21855022D02*
X19424380Y-21845498D01*
X19424380Y-21845498D02*
X19395808Y-21845498D01*
X19395808Y-21845498D02*
X19376761Y-21835974D01*
X19376761Y-21835974D02*
X19367237Y-21816927D01*
X19367237Y-21816927D02*
X19367237Y-21807403D01*
X19367237Y-21807403D02*
X19376761Y-21788355D01*
X19376761Y-21788355D02*
X19395808Y-21778831D01*
X19395808Y-21778831D02*
X19424380Y-21778831D01*
X19424380Y-21778831D02*
X19443428Y-21788355D01*
X19519618Y-21988355D02*
X19529142Y-21978831D01*
X19529142Y-21978831D02*
X19548189Y-21950260D01*
X19548189Y-21950260D02*
X19557713Y-21931212D01*
X19557713Y-21931212D02*
X19567237Y-21902641D01*
X19567237Y-21902641D02*
X19576761Y-21855022D01*
X19576761Y-21855022D02*
X19576761Y-21816927D01*
X19576761Y-21816927D02*
X19567237Y-21769308D01*
X19567237Y-21769308D02*
X19557713Y-21740736D01*
X19557713Y-21740736D02*
X19548189Y-21721689D01*
X19548189Y-21721689D02*
X19529142Y-21693117D01*
X19529142Y-21693117D02*
X19519618Y-21683593D01*
D12*
X13088007Y-22047181D02*
X13088007Y-22122181D01*
X13050507Y-22084681D02*
X13125507Y-22084681D01*
D11*
X13424379Y-21976165D02*
X13443427Y-21976165D01*
X13443427Y-21976165D02*
X13462474Y-21985689D01*
X13462474Y-21985689D02*
X13471998Y-21995212D01*
X13471998Y-21995212D02*
X13481522Y-22014260D01*
X13481522Y-22014260D02*
X13491046Y-22052355D01*
X13491046Y-22052355D02*
X13491046Y-22099974D01*
X13491046Y-22099974D02*
X13481522Y-22138070D01*
X13481522Y-22138070D02*
X13471998Y-22157117D01*
X13471998Y-22157117D02*
X13462474Y-22166641D01*
X13462474Y-22166641D02*
X13443427Y-22176165D01*
X13443427Y-22176165D02*
X13424379Y-22176165D01*
X13424379Y-22176165D02*
X13405332Y-22166641D01*
X13405332Y-22166641D02*
X13395808Y-22157117D01*
X13395808Y-22157117D02*
X13386284Y-22138070D01*
X13386284Y-22138070D02*
X13376760Y-22099974D01*
X13376760Y-22099974D02*
X13376760Y-22052355D01*
X13376760Y-22052355D02*
X13386284Y-22014260D01*
X13386284Y-22014260D02*
X13395808Y-21995212D01*
X13395808Y-21995212D02*
X13405332Y-21985689D01*
X13405332Y-21985689D02*
X13424379Y-21976165D01*
X13576760Y-22157117D02*
X13586284Y-22166641D01*
X13586284Y-22166641D02*
X13576760Y-22176165D01*
X13576760Y-22176165D02*
X13567236Y-22166641D01*
X13567236Y-22166641D02*
X13576760Y-22157117D01*
X13576760Y-22157117D02*
X13576760Y-22176165D01*
X13652951Y-21976165D02*
X13786284Y-21976165D01*
X13786284Y-21976165D02*
X13700570Y-22176165D01*
X13957713Y-21976165D02*
X13862474Y-21976165D01*
X13862474Y-21976165D02*
X13852951Y-22071403D01*
X13852951Y-22071403D02*
X13862474Y-22061879D01*
X13862474Y-22061879D02*
X13881522Y-22052355D01*
X13881522Y-22052355D02*
X13929141Y-22052355D01*
X13929141Y-22052355D02*
X13948189Y-22061879D01*
X13948189Y-22061879D02*
X13957713Y-22071403D01*
X13957713Y-22071403D02*
X13967236Y-22090451D01*
X13967236Y-22090451D02*
X13967236Y-22138070D01*
X13967236Y-22138070D02*
X13957713Y-22157117D01*
X13957713Y-22157117D02*
X13948189Y-22166641D01*
X13948189Y-22166641D02*
X13929141Y-22176165D01*
X13929141Y-22176165D02*
X13881522Y-22176165D01*
X13881522Y-22176165D02*
X13862474Y-22166641D01*
X13862474Y-22166641D02*
X13852951Y-22157117D01*
X14091046Y-21976165D02*
X14110094Y-21976165D01*
X14110094Y-21976165D02*
X14129141Y-21985689D01*
X14129141Y-21985689D02*
X14138665Y-21995212D01*
X14138665Y-21995212D02*
X14148189Y-22014260D01*
X14148189Y-22014260D02*
X14157713Y-22052355D01*
X14157713Y-22052355D02*
X14157713Y-22099974D01*
X14157713Y-22099974D02*
X14148189Y-22138070D01*
X14148189Y-22138070D02*
X14138665Y-22157117D01*
X14138665Y-22157117D02*
X14129141Y-22166641D01*
X14129141Y-22166641D02*
X14110094Y-22176165D01*
X14110094Y-22176165D02*
X14091046Y-22176165D01*
X14091046Y-22176165D02*
X14071998Y-22166641D01*
X14071998Y-22166641D02*
X14062474Y-22157117D01*
X14062474Y-22157117D02*
X14052951Y-22138070D01*
X14052951Y-22138070D02*
X14043427Y-22099974D01*
X14043427Y-22099974D02*
X14043427Y-22052355D01*
X14043427Y-22052355D02*
X14052951Y-22014260D01*
X14052951Y-22014260D02*
X14062474Y-21995212D01*
X14062474Y-21995212D02*
X14071998Y-21985689D01*
X14071998Y-21985689D02*
X14091046Y-21976165D01*
X14243427Y-22176165D02*
X14243427Y-22042831D01*
X14243427Y-22061879D02*
X14252951Y-22052355D01*
X14252951Y-22052355D02*
X14271998Y-22042831D01*
X14271998Y-22042831D02*
X14300570Y-22042831D01*
X14300570Y-22042831D02*
X14319617Y-22052355D01*
X14319617Y-22052355D02*
X14329141Y-22071403D01*
X14329141Y-22071403D02*
X14329141Y-22176165D01*
X14329141Y-22071403D02*
X14338665Y-22052355D01*
X14338665Y-22052355D02*
X14357713Y-22042831D01*
X14357713Y-22042831D02*
X14386284Y-22042831D01*
X14386284Y-22042831D02*
X14405332Y-22052355D01*
X14405332Y-22052355D02*
X14414855Y-22071403D01*
X14414855Y-22071403D02*
X14414855Y-22176165D01*
X14510094Y-22176165D02*
X14510094Y-22042831D01*
X14510094Y-22061879D02*
X14519617Y-22052355D01*
X14519617Y-22052355D02*
X14538665Y-22042831D01*
X14538665Y-22042831D02*
X14567236Y-22042831D01*
X14567236Y-22042831D02*
X14586284Y-22052355D01*
X14586284Y-22052355D02*
X14595808Y-22071403D01*
X14595808Y-22071403D02*
X14595808Y-22176165D01*
X14595808Y-22071403D02*
X14605332Y-22052355D01*
X14605332Y-22052355D02*
X14624379Y-22042831D01*
X14624379Y-22042831D02*
X14652951Y-22042831D01*
X14652951Y-22042831D02*
X14671998Y-22052355D01*
X14671998Y-22052355D02*
X14681522Y-22071403D01*
X14681522Y-22071403D02*
X14681522Y-22176165D01*
X15071998Y-21966641D02*
X14900570Y-22223784D01*
X15329141Y-21976165D02*
X15348189Y-21976165D01*
X15348189Y-21976165D02*
X15367237Y-21985689D01*
X15367237Y-21985689D02*
X15376760Y-21995212D01*
X15376760Y-21995212D02*
X15386284Y-22014260D01*
X15386284Y-22014260D02*
X15395808Y-22052355D01*
X15395808Y-22052355D02*
X15395808Y-22099974D01*
X15395808Y-22099974D02*
X15386284Y-22138070D01*
X15386284Y-22138070D02*
X15376760Y-22157117D01*
X15376760Y-22157117D02*
X15367237Y-22166641D01*
X15367237Y-22166641D02*
X15348189Y-22176165D01*
X15348189Y-22176165D02*
X15329141Y-22176165D01*
X15329141Y-22176165D02*
X15310094Y-22166641D01*
X15310094Y-22166641D02*
X15300570Y-22157117D01*
X15300570Y-22157117D02*
X15291046Y-22138070D01*
X15291046Y-22138070D02*
X15281522Y-22099974D01*
X15281522Y-22099974D02*
X15281522Y-22052355D01*
X15281522Y-22052355D02*
X15291046Y-22014260D01*
X15291046Y-22014260D02*
X15300570Y-21995212D01*
X15300570Y-21995212D02*
X15310094Y-21985689D01*
X15310094Y-21985689D02*
X15329141Y-21976165D01*
X15481522Y-22157117D02*
X15491046Y-22166641D01*
X15491046Y-22166641D02*
X15481522Y-22176165D01*
X15481522Y-22176165D02*
X15471998Y-22166641D01*
X15471998Y-22166641D02*
X15481522Y-22157117D01*
X15481522Y-22157117D02*
X15481522Y-22176165D01*
X15614856Y-21976165D02*
X15633903Y-21976165D01*
X15633903Y-21976165D02*
X15652951Y-21985689D01*
X15652951Y-21985689D02*
X15662475Y-21995212D01*
X15662475Y-21995212D02*
X15671998Y-22014260D01*
X15671998Y-22014260D02*
X15681522Y-22052355D01*
X15681522Y-22052355D02*
X15681522Y-22099974D01*
X15681522Y-22099974D02*
X15671998Y-22138070D01*
X15671998Y-22138070D02*
X15662475Y-22157117D01*
X15662475Y-22157117D02*
X15652951Y-22166641D01*
X15652951Y-22166641D02*
X15633903Y-22176165D01*
X15633903Y-22176165D02*
X15614856Y-22176165D01*
X15614856Y-22176165D02*
X15595808Y-22166641D01*
X15595808Y-22166641D02*
X15586284Y-22157117D01*
X15586284Y-22157117D02*
X15576760Y-22138070D01*
X15576760Y-22138070D02*
X15567237Y-22099974D01*
X15567237Y-22099974D02*
X15567237Y-22052355D01*
X15567237Y-22052355D02*
X15576760Y-22014260D01*
X15576760Y-22014260D02*
X15586284Y-21995212D01*
X15586284Y-21995212D02*
X15595808Y-21985689D01*
X15595808Y-21985689D02*
X15614856Y-21976165D01*
X15757713Y-21995212D02*
X15767237Y-21985689D01*
X15767237Y-21985689D02*
X15786284Y-21976165D01*
X15786284Y-21976165D02*
X15833903Y-21976165D01*
X15833903Y-21976165D02*
X15852951Y-21985689D01*
X15852951Y-21985689D02*
X15862475Y-21995212D01*
X15862475Y-21995212D02*
X15871998Y-22014260D01*
X15871998Y-22014260D02*
X15871998Y-22033308D01*
X15871998Y-22033308D02*
X15862475Y-22061879D01*
X15862475Y-22061879D02*
X15748189Y-22176165D01*
X15748189Y-22176165D02*
X15871998Y-22176165D01*
X15967237Y-22176165D02*
X16005332Y-22176165D01*
X16005332Y-22176165D02*
X16024379Y-22166641D01*
X16024379Y-22166641D02*
X16033903Y-22157117D01*
X16033903Y-22157117D02*
X16052951Y-22128546D01*
X16052951Y-22128546D02*
X16062475Y-22090451D01*
X16062475Y-22090451D02*
X16062475Y-22014260D01*
X16062475Y-22014260D02*
X16052951Y-21995212D01*
X16052951Y-21995212D02*
X16043427Y-21985689D01*
X16043427Y-21985689D02*
X16024379Y-21976165D01*
X16024379Y-21976165D02*
X15986284Y-21976165D01*
X15986284Y-21976165D02*
X15967237Y-21985689D01*
X15967237Y-21985689D02*
X15957713Y-21995212D01*
X15957713Y-21995212D02*
X15948189Y-22014260D01*
X15948189Y-22014260D02*
X15948189Y-22061879D01*
X15948189Y-22061879D02*
X15957713Y-22080927D01*
X15957713Y-22080927D02*
X15967237Y-22090451D01*
X15967237Y-22090451D02*
X15986284Y-22099974D01*
X15986284Y-22099974D02*
X16024379Y-22099974D01*
X16024379Y-22099974D02*
X16043427Y-22090451D01*
X16043427Y-22090451D02*
X16052951Y-22080927D01*
X16052951Y-22080927D02*
X16062475Y-22061879D01*
X16243427Y-21976165D02*
X16148189Y-21976165D01*
X16148189Y-21976165D02*
X16138665Y-22071403D01*
X16138665Y-22071403D02*
X16148189Y-22061879D01*
X16148189Y-22061879D02*
X16167237Y-22052355D01*
X16167237Y-22052355D02*
X16214856Y-22052355D01*
X16214856Y-22052355D02*
X16233903Y-22061879D01*
X16233903Y-22061879D02*
X16243427Y-22071403D01*
X16243427Y-22071403D02*
X16252951Y-22090451D01*
X16252951Y-22090451D02*
X16252951Y-22138070D01*
X16252951Y-22138070D02*
X16243427Y-22157117D01*
X16243427Y-22157117D02*
X16233903Y-22166641D01*
X16233903Y-22166641D02*
X16214856Y-22176165D01*
X16214856Y-22176165D02*
X16167237Y-22176165D01*
X16167237Y-22176165D02*
X16148189Y-22166641D01*
X16148189Y-22166641D02*
X16138665Y-22157117D01*
X16329141Y-21976165D02*
X16329141Y-22014260D01*
X16405332Y-21976165D02*
X16405332Y-22014260D01*
X16700570Y-22252355D02*
X16691046Y-22242831D01*
X16691046Y-22242831D02*
X16671999Y-22214260D01*
X16671999Y-22214260D02*
X16662475Y-22195212D01*
X16662475Y-22195212D02*
X16652951Y-22166641D01*
X16652951Y-22166641D02*
X16643427Y-22119022D01*
X16643427Y-22119022D02*
X16643427Y-22080927D01*
X16643427Y-22080927D02*
X16652951Y-22033308D01*
X16652951Y-22033308D02*
X16662475Y-22004736D01*
X16662475Y-22004736D02*
X16671999Y-21985689D01*
X16671999Y-21985689D02*
X16691046Y-21957117D01*
X16691046Y-21957117D02*
X16700570Y-21947593D01*
X16767237Y-21995212D02*
X16776760Y-21985689D01*
X16776760Y-21985689D02*
X16795808Y-21976165D01*
X16795808Y-21976165D02*
X16843427Y-21976165D01*
X16843427Y-21976165D02*
X16862475Y-21985689D01*
X16862475Y-21985689D02*
X16871999Y-21995212D01*
X16871999Y-21995212D02*
X16881522Y-22014260D01*
X16881522Y-22014260D02*
X16881522Y-22033308D01*
X16881522Y-22033308D02*
X16871999Y-22061879D01*
X16871999Y-22061879D02*
X16757713Y-22176165D01*
X16757713Y-22176165D02*
X16881522Y-22176165D01*
X17119618Y-22176165D02*
X17119618Y-21976165D01*
X17205332Y-22176165D02*
X17205332Y-22071403D01*
X17205332Y-22071403D02*
X17195808Y-22052355D01*
X17195808Y-22052355D02*
X17176761Y-22042831D01*
X17176761Y-22042831D02*
X17148189Y-22042831D01*
X17148189Y-22042831D02*
X17129142Y-22052355D01*
X17129142Y-22052355D02*
X17119618Y-22061879D01*
X17329142Y-22176165D02*
X17310094Y-22166641D01*
X17310094Y-22166641D02*
X17300570Y-22157117D01*
X17300570Y-22157117D02*
X17291046Y-22138070D01*
X17291046Y-22138070D02*
X17291046Y-22080927D01*
X17291046Y-22080927D02*
X17300570Y-22061879D01*
X17300570Y-22061879D02*
X17310094Y-22052355D01*
X17310094Y-22052355D02*
X17329142Y-22042831D01*
X17329142Y-22042831D02*
X17357713Y-22042831D01*
X17357713Y-22042831D02*
X17376761Y-22052355D01*
X17376761Y-22052355D02*
X17386284Y-22061879D01*
X17386284Y-22061879D02*
X17395808Y-22080927D01*
X17395808Y-22080927D02*
X17395808Y-22138070D01*
X17395808Y-22138070D02*
X17386284Y-22157117D01*
X17386284Y-22157117D02*
X17376761Y-22166641D01*
X17376761Y-22166641D02*
X17357713Y-22176165D01*
X17357713Y-22176165D02*
X17329142Y-22176165D01*
X17510094Y-22176165D02*
X17491046Y-22166641D01*
X17491046Y-22166641D02*
X17481523Y-22147593D01*
X17481523Y-22147593D02*
X17481523Y-21976165D01*
X17662475Y-22166641D02*
X17643427Y-22176165D01*
X17643427Y-22176165D02*
X17605332Y-22176165D01*
X17605332Y-22176165D02*
X17586284Y-22166641D01*
X17586284Y-22166641D02*
X17576761Y-22147593D01*
X17576761Y-22147593D02*
X17576761Y-22071403D01*
X17576761Y-22071403D02*
X17586284Y-22052355D01*
X17586284Y-22052355D02*
X17605332Y-22042831D01*
X17605332Y-22042831D02*
X17643427Y-22042831D01*
X17643427Y-22042831D02*
X17662475Y-22052355D01*
X17662475Y-22052355D02*
X17671999Y-22071403D01*
X17671999Y-22071403D02*
X17671999Y-22090451D01*
X17671999Y-22090451D02*
X17576761Y-22109498D01*
X17748189Y-22166641D02*
X17767237Y-22176165D01*
X17767237Y-22176165D02*
X17805332Y-22176165D01*
X17805332Y-22176165D02*
X17824380Y-22166641D01*
X17824380Y-22166641D02*
X17833904Y-22147593D01*
X17833904Y-22147593D02*
X17833904Y-22138070D01*
X17833904Y-22138070D02*
X17824380Y-22119022D01*
X17824380Y-22119022D02*
X17805332Y-22109498D01*
X17805332Y-22109498D02*
X17776761Y-22109498D01*
X17776761Y-22109498D02*
X17757713Y-22099974D01*
X17757713Y-22099974D02*
X17748189Y-22080927D01*
X17748189Y-22080927D02*
X17748189Y-22071403D01*
X17748189Y-22071403D02*
X17757713Y-22052355D01*
X17757713Y-22052355D02*
X17776761Y-22042831D01*
X17776761Y-22042831D02*
X17805332Y-22042831D01*
X17805332Y-22042831D02*
X17824380Y-22052355D01*
X17900570Y-22252355D02*
X17910094Y-22242831D01*
X17910094Y-22242831D02*
X17929142Y-22214260D01*
X17929142Y-22214260D02*
X17938665Y-22195212D01*
X17938665Y-22195212D02*
X17948189Y-22166641D01*
X17948189Y-22166641D02*
X17957713Y-22119022D01*
X17957713Y-22119022D02*
X17957713Y-22080927D01*
X17957713Y-22080927D02*
X17948189Y-22033308D01*
X17948189Y-22033308D02*
X17938665Y-22004736D01*
X17938665Y-22004736D02*
X17929142Y-21985689D01*
X17929142Y-21985689D02*
X17910094Y-21957117D01*
X17910094Y-21957117D02*
X17900570Y-21947593D01*
D12*
X13111000Y-22383704D02*
X13111000Y-22313658D01*
X13040954Y-22313658D01*
X13040954Y-22383704D01*
X13111000Y-22383704D01*
D11*
X13424379Y-22240165D02*
X13443427Y-22240165D01*
X13443427Y-22240165D02*
X13462474Y-22249689D01*
X13462474Y-22249689D02*
X13471998Y-22259212D01*
X13471998Y-22259212D02*
X13481522Y-22278260D01*
X13481522Y-22278260D02*
X13491046Y-22316355D01*
X13491046Y-22316355D02*
X13491046Y-22363974D01*
X13491046Y-22363974D02*
X13481522Y-22402069D01*
X13481522Y-22402069D02*
X13471998Y-22421117D01*
X13471998Y-22421117D02*
X13462474Y-22430641D01*
X13462474Y-22430641D02*
X13443427Y-22440165D01*
X13443427Y-22440165D02*
X13424379Y-22440165D01*
X13424379Y-22440165D02*
X13405332Y-22430641D01*
X13405332Y-22430641D02*
X13395808Y-22421117D01*
X13395808Y-22421117D02*
X13386284Y-22402069D01*
X13386284Y-22402069D02*
X13376760Y-22363974D01*
X13376760Y-22363974D02*
X13376760Y-22316355D01*
X13376760Y-22316355D02*
X13386284Y-22278260D01*
X13386284Y-22278260D02*
X13395808Y-22259212D01*
X13395808Y-22259212D02*
X13405332Y-22249689D01*
X13405332Y-22249689D02*
X13424379Y-22240165D01*
X13576760Y-22421117D02*
X13586284Y-22430641D01*
X13586284Y-22430641D02*
X13576760Y-22440165D01*
X13576760Y-22440165D02*
X13567236Y-22430641D01*
X13567236Y-22430641D02*
X13576760Y-22421117D01*
X13576760Y-22421117D02*
X13576760Y-22440165D01*
X13681522Y-22440165D02*
X13719617Y-22440165D01*
X13719617Y-22440165D02*
X13738665Y-22430641D01*
X13738665Y-22430641D02*
X13748189Y-22421117D01*
X13748189Y-22421117D02*
X13767236Y-22392546D01*
X13767236Y-22392546D02*
X13776760Y-22354451D01*
X13776760Y-22354451D02*
X13776760Y-22278260D01*
X13776760Y-22278260D02*
X13767236Y-22259212D01*
X13767236Y-22259212D02*
X13757713Y-22249689D01*
X13757713Y-22249689D02*
X13738665Y-22240165D01*
X13738665Y-22240165D02*
X13700570Y-22240165D01*
X13700570Y-22240165D02*
X13681522Y-22249689D01*
X13681522Y-22249689D02*
X13671998Y-22259212D01*
X13671998Y-22259212D02*
X13662474Y-22278260D01*
X13662474Y-22278260D02*
X13662474Y-22325879D01*
X13662474Y-22325879D02*
X13671998Y-22344927D01*
X13671998Y-22344927D02*
X13681522Y-22354451D01*
X13681522Y-22354451D02*
X13700570Y-22363974D01*
X13700570Y-22363974D02*
X13738665Y-22363974D01*
X13738665Y-22363974D02*
X13757713Y-22354451D01*
X13757713Y-22354451D02*
X13767236Y-22344927D01*
X13767236Y-22344927D02*
X13776760Y-22325879D01*
X13871998Y-22440165D02*
X13910093Y-22440165D01*
X13910093Y-22440165D02*
X13929141Y-22430641D01*
X13929141Y-22430641D02*
X13938665Y-22421117D01*
X13938665Y-22421117D02*
X13957713Y-22392546D01*
X13957713Y-22392546D02*
X13967236Y-22354451D01*
X13967236Y-22354451D02*
X13967236Y-22278260D01*
X13967236Y-22278260D02*
X13957713Y-22259212D01*
X13957713Y-22259212D02*
X13948189Y-22249689D01*
X13948189Y-22249689D02*
X13929141Y-22240165D01*
X13929141Y-22240165D02*
X13891046Y-22240165D01*
X13891046Y-22240165D02*
X13871998Y-22249689D01*
X13871998Y-22249689D02*
X13862474Y-22259212D01*
X13862474Y-22259212D02*
X13852951Y-22278260D01*
X13852951Y-22278260D02*
X13852951Y-22325879D01*
X13852951Y-22325879D02*
X13862474Y-22344927D01*
X13862474Y-22344927D02*
X13871998Y-22354451D01*
X13871998Y-22354451D02*
X13891046Y-22363974D01*
X13891046Y-22363974D02*
X13929141Y-22363974D01*
X13929141Y-22363974D02*
X13948189Y-22354451D01*
X13948189Y-22354451D02*
X13957713Y-22344927D01*
X13957713Y-22344927D02*
X13967236Y-22325879D01*
X14157713Y-22440165D02*
X14043427Y-22440165D01*
X14100570Y-22440165D02*
X14100570Y-22240165D01*
X14100570Y-22240165D02*
X14081522Y-22268736D01*
X14081522Y-22268736D02*
X14062474Y-22287784D01*
X14062474Y-22287784D02*
X14043427Y-22297308D01*
X14243427Y-22440165D02*
X14243427Y-22306831D01*
X14243427Y-22325879D02*
X14252951Y-22316355D01*
X14252951Y-22316355D02*
X14271998Y-22306831D01*
X14271998Y-22306831D02*
X14300570Y-22306831D01*
X14300570Y-22306831D02*
X14319617Y-22316355D01*
X14319617Y-22316355D02*
X14329141Y-22335403D01*
X14329141Y-22335403D02*
X14329141Y-22440165D01*
X14329141Y-22335403D02*
X14338665Y-22316355D01*
X14338665Y-22316355D02*
X14357713Y-22306831D01*
X14357713Y-22306831D02*
X14386284Y-22306831D01*
X14386284Y-22306831D02*
X14405332Y-22316355D01*
X14405332Y-22316355D02*
X14414855Y-22335403D01*
X14414855Y-22335403D02*
X14414855Y-22440165D01*
X14510094Y-22440165D02*
X14510094Y-22306831D01*
X14510094Y-22325879D02*
X14519617Y-22316355D01*
X14519617Y-22316355D02*
X14538665Y-22306831D01*
X14538665Y-22306831D02*
X14567236Y-22306831D01*
X14567236Y-22306831D02*
X14586284Y-22316355D01*
X14586284Y-22316355D02*
X14595808Y-22335403D01*
X14595808Y-22335403D02*
X14595808Y-22440165D01*
X14595808Y-22335403D02*
X14605332Y-22316355D01*
X14605332Y-22316355D02*
X14624379Y-22306831D01*
X14624379Y-22306831D02*
X14652951Y-22306831D01*
X14652951Y-22306831D02*
X14671998Y-22316355D01*
X14671998Y-22316355D02*
X14681522Y-22335403D01*
X14681522Y-22335403D02*
X14681522Y-22440165D01*
X15071998Y-22230641D02*
X14900570Y-22487784D01*
X15329141Y-22240165D02*
X15348189Y-22240165D01*
X15348189Y-22240165D02*
X15367237Y-22249689D01*
X15367237Y-22249689D02*
X15376760Y-22259212D01*
X15376760Y-22259212D02*
X15386284Y-22278260D01*
X15386284Y-22278260D02*
X15395808Y-22316355D01*
X15395808Y-22316355D02*
X15395808Y-22363974D01*
X15395808Y-22363974D02*
X15386284Y-22402069D01*
X15386284Y-22402069D02*
X15376760Y-22421117D01*
X15376760Y-22421117D02*
X15367237Y-22430641D01*
X15367237Y-22430641D02*
X15348189Y-22440165D01*
X15348189Y-22440165D02*
X15329141Y-22440165D01*
X15329141Y-22440165D02*
X15310094Y-22430641D01*
X15310094Y-22430641D02*
X15300570Y-22421117D01*
X15300570Y-22421117D02*
X15291046Y-22402069D01*
X15291046Y-22402069D02*
X15281522Y-22363974D01*
X15281522Y-22363974D02*
X15281522Y-22316355D01*
X15281522Y-22316355D02*
X15291046Y-22278260D01*
X15291046Y-22278260D02*
X15300570Y-22259212D01*
X15300570Y-22259212D02*
X15310094Y-22249689D01*
X15310094Y-22249689D02*
X15329141Y-22240165D01*
X15481522Y-22421117D02*
X15491046Y-22430641D01*
X15491046Y-22430641D02*
X15481522Y-22440165D01*
X15481522Y-22440165D02*
X15471998Y-22430641D01*
X15471998Y-22430641D02*
X15481522Y-22421117D01*
X15481522Y-22421117D02*
X15481522Y-22440165D01*
X15614856Y-22240165D02*
X15633903Y-22240165D01*
X15633903Y-22240165D02*
X15652951Y-22249689D01*
X15652951Y-22249689D02*
X15662475Y-22259212D01*
X15662475Y-22259212D02*
X15671998Y-22278260D01*
X15671998Y-22278260D02*
X15681522Y-22316355D01*
X15681522Y-22316355D02*
X15681522Y-22363974D01*
X15681522Y-22363974D02*
X15671998Y-22402069D01*
X15671998Y-22402069D02*
X15662475Y-22421117D01*
X15662475Y-22421117D02*
X15652951Y-22430641D01*
X15652951Y-22430641D02*
X15633903Y-22440165D01*
X15633903Y-22440165D02*
X15614856Y-22440165D01*
X15614856Y-22440165D02*
X15595808Y-22430641D01*
X15595808Y-22430641D02*
X15586284Y-22421117D01*
X15586284Y-22421117D02*
X15576760Y-22402069D01*
X15576760Y-22402069D02*
X15567237Y-22363974D01*
X15567237Y-22363974D02*
X15567237Y-22316355D01*
X15567237Y-22316355D02*
X15576760Y-22278260D01*
X15576760Y-22278260D02*
X15586284Y-22259212D01*
X15586284Y-22259212D02*
X15595808Y-22249689D01*
X15595808Y-22249689D02*
X15614856Y-22240165D01*
X15748189Y-22240165D02*
X15871998Y-22240165D01*
X15871998Y-22240165D02*
X15805332Y-22316355D01*
X15805332Y-22316355D02*
X15833903Y-22316355D01*
X15833903Y-22316355D02*
X15852951Y-22325879D01*
X15852951Y-22325879D02*
X15862475Y-22335403D01*
X15862475Y-22335403D02*
X15871998Y-22354451D01*
X15871998Y-22354451D02*
X15871998Y-22402069D01*
X15871998Y-22402069D02*
X15862475Y-22421117D01*
X15862475Y-22421117D02*
X15852951Y-22430641D01*
X15852951Y-22430641D02*
X15833903Y-22440165D01*
X15833903Y-22440165D02*
X15776760Y-22440165D01*
X15776760Y-22440165D02*
X15757713Y-22430641D01*
X15757713Y-22430641D02*
X15748189Y-22421117D01*
X15967237Y-22440165D02*
X16005332Y-22440165D01*
X16005332Y-22440165D02*
X16024379Y-22430641D01*
X16024379Y-22430641D02*
X16033903Y-22421117D01*
X16033903Y-22421117D02*
X16052951Y-22392546D01*
X16052951Y-22392546D02*
X16062475Y-22354451D01*
X16062475Y-22354451D02*
X16062475Y-22278260D01*
X16062475Y-22278260D02*
X16052951Y-22259212D01*
X16052951Y-22259212D02*
X16043427Y-22249689D01*
X16043427Y-22249689D02*
X16024379Y-22240165D01*
X16024379Y-22240165D02*
X15986284Y-22240165D01*
X15986284Y-22240165D02*
X15967237Y-22249689D01*
X15967237Y-22249689D02*
X15957713Y-22259212D01*
X15957713Y-22259212D02*
X15948189Y-22278260D01*
X15948189Y-22278260D02*
X15948189Y-22325879D01*
X15948189Y-22325879D02*
X15957713Y-22344927D01*
X15957713Y-22344927D02*
X15967237Y-22354451D01*
X15967237Y-22354451D02*
X15986284Y-22363974D01*
X15986284Y-22363974D02*
X16024379Y-22363974D01*
X16024379Y-22363974D02*
X16043427Y-22354451D01*
X16043427Y-22354451D02*
X16052951Y-22344927D01*
X16052951Y-22344927D02*
X16062475Y-22325879D01*
X16186284Y-22240165D02*
X16205332Y-22240165D01*
X16205332Y-22240165D02*
X16224379Y-22249689D01*
X16224379Y-22249689D02*
X16233903Y-22259212D01*
X16233903Y-22259212D02*
X16243427Y-22278260D01*
X16243427Y-22278260D02*
X16252951Y-22316355D01*
X16252951Y-22316355D02*
X16252951Y-22363974D01*
X16252951Y-22363974D02*
X16243427Y-22402069D01*
X16243427Y-22402069D02*
X16233903Y-22421117D01*
X16233903Y-22421117D02*
X16224379Y-22430641D01*
X16224379Y-22430641D02*
X16205332Y-22440165D01*
X16205332Y-22440165D02*
X16186284Y-22440165D01*
X16186284Y-22440165D02*
X16167237Y-22430641D01*
X16167237Y-22430641D02*
X16157713Y-22421117D01*
X16157713Y-22421117D02*
X16148189Y-22402069D01*
X16148189Y-22402069D02*
X16138665Y-22363974D01*
X16138665Y-22363974D02*
X16138665Y-22316355D01*
X16138665Y-22316355D02*
X16148189Y-22278260D01*
X16148189Y-22278260D02*
X16157713Y-22259212D01*
X16157713Y-22259212D02*
X16167237Y-22249689D01*
X16167237Y-22249689D02*
X16186284Y-22240165D01*
X16329141Y-22240165D02*
X16329141Y-22278260D01*
X16405332Y-22240165D02*
X16405332Y-22278260D01*
X16700570Y-22516355D02*
X16691046Y-22506831D01*
X16691046Y-22506831D02*
X16671999Y-22478260D01*
X16671999Y-22478260D02*
X16662475Y-22459212D01*
X16662475Y-22459212D02*
X16652951Y-22430641D01*
X16652951Y-22430641D02*
X16643427Y-22383022D01*
X16643427Y-22383022D02*
X16643427Y-22344927D01*
X16643427Y-22344927D02*
X16652951Y-22297308D01*
X16652951Y-22297308D02*
X16662475Y-22268736D01*
X16662475Y-22268736D02*
X16671999Y-22249689D01*
X16671999Y-22249689D02*
X16691046Y-22221117D01*
X16691046Y-22221117D02*
X16700570Y-22211593D01*
X16871999Y-22240165D02*
X16776760Y-22240165D01*
X16776760Y-22240165D02*
X16767237Y-22335403D01*
X16767237Y-22335403D02*
X16776760Y-22325879D01*
X16776760Y-22325879D02*
X16795808Y-22316355D01*
X16795808Y-22316355D02*
X16843427Y-22316355D01*
X16843427Y-22316355D02*
X16862475Y-22325879D01*
X16862475Y-22325879D02*
X16871999Y-22335403D01*
X16871999Y-22335403D02*
X16881522Y-22354451D01*
X16881522Y-22354451D02*
X16881522Y-22402069D01*
X16881522Y-22402069D02*
X16871999Y-22421117D01*
X16871999Y-22421117D02*
X16862475Y-22430641D01*
X16862475Y-22430641D02*
X16843427Y-22440165D01*
X16843427Y-22440165D02*
X16795808Y-22440165D01*
X16795808Y-22440165D02*
X16776760Y-22430641D01*
X16776760Y-22430641D02*
X16767237Y-22421117D01*
X17052951Y-22240165D02*
X17014856Y-22240165D01*
X17014856Y-22240165D02*
X16995808Y-22249689D01*
X16995808Y-22249689D02*
X16986284Y-22259212D01*
X16986284Y-22259212D02*
X16967237Y-22287784D01*
X16967237Y-22287784D02*
X16957713Y-22325879D01*
X16957713Y-22325879D02*
X16957713Y-22402069D01*
X16957713Y-22402069D02*
X16967237Y-22421117D01*
X16967237Y-22421117D02*
X16976761Y-22430641D01*
X16976761Y-22430641D02*
X16995808Y-22440165D01*
X16995808Y-22440165D02*
X17033903Y-22440165D01*
X17033903Y-22440165D02*
X17052951Y-22430641D01*
X17052951Y-22430641D02*
X17062475Y-22421117D01*
X17062475Y-22421117D02*
X17071999Y-22402069D01*
X17071999Y-22402069D02*
X17071999Y-22354451D01*
X17071999Y-22354451D02*
X17062475Y-22335403D01*
X17062475Y-22335403D02*
X17052951Y-22325879D01*
X17052951Y-22325879D02*
X17033903Y-22316355D01*
X17033903Y-22316355D02*
X16995808Y-22316355D01*
X16995808Y-22316355D02*
X16976761Y-22325879D01*
X16976761Y-22325879D02*
X16967237Y-22335403D01*
X16967237Y-22335403D02*
X16957713Y-22354451D01*
X17310094Y-22440165D02*
X17310094Y-22240165D01*
X17395808Y-22440165D02*
X17395808Y-22335403D01*
X17395808Y-22335403D02*
X17386284Y-22316355D01*
X17386284Y-22316355D02*
X17367237Y-22306831D01*
X17367237Y-22306831D02*
X17338665Y-22306831D01*
X17338665Y-22306831D02*
X17319618Y-22316355D01*
X17319618Y-22316355D02*
X17310094Y-22325879D01*
X17519618Y-22440165D02*
X17500570Y-22430641D01*
X17500570Y-22430641D02*
X17491046Y-22421117D01*
X17491046Y-22421117D02*
X17481523Y-22402069D01*
X17481523Y-22402069D02*
X17481523Y-22344927D01*
X17481523Y-22344927D02*
X17491046Y-22325879D01*
X17491046Y-22325879D02*
X17500570Y-22316355D01*
X17500570Y-22316355D02*
X17519618Y-22306831D01*
X17519618Y-22306831D02*
X17548189Y-22306831D01*
X17548189Y-22306831D02*
X17567237Y-22316355D01*
X17567237Y-22316355D02*
X17576761Y-22325879D01*
X17576761Y-22325879D02*
X17586284Y-22344927D01*
X17586284Y-22344927D02*
X17586284Y-22402069D01*
X17586284Y-22402069D02*
X17576761Y-22421117D01*
X17576761Y-22421117D02*
X17567237Y-22430641D01*
X17567237Y-22430641D02*
X17548189Y-22440165D01*
X17548189Y-22440165D02*
X17519618Y-22440165D01*
X17700570Y-22440165D02*
X17681523Y-22430641D01*
X17681523Y-22430641D02*
X17671999Y-22411593D01*
X17671999Y-22411593D02*
X17671999Y-22240165D01*
X17852951Y-22430641D02*
X17833904Y-22440165D01*
X17833904Y-22440165D02*
X17795808Y-22440165D01*
X17795808Y-22440165D02*
X17776761Y-22430641D01*
X17776761Y-22430641D02*
X17767237Y-22411593D01*
X17767237Y-22411593D02*
X17767237Y-22335403D01*
X17767237Y-22335403D02*
X17776761Y-22316355D01*
X17776761Y-22316355D02*
X17795808Y-22306831D01*
X17795808Y-22306831D02*
X17833904Y-22306831D01*
X17833904Y-22306831D02*
X17852951Y-22316355D01*
X17852951Y-22316355D02*
X17862475Y-22335403D01*
X17862475Y-22335403D02*
X17862475Y-22354451D01*
X17862475Y-22354451D02*
X17767237Y-22373498D01*
X17938665Y-22430641D02*
X17957713Y-22440165D01*
X17957713Y-22440165D02*
X17995808Y-22440165D01*
X17995808Y-22440165D02*
X18014856Y-22430641D01*
X18014856Y-22430641D02*
X18024380Y-22411593D01*
X18024380Y-22411593D02*
X18024380Y-22402069D01*
X18024380Y-22402069D02*
X18014856Y-22383022D01*
X18014856Y-22383022D02*
X17995808Y-22373498D01*
X17995808Y-22373498D02*
X17967237Y-22373498D01*
X17967237Y-22373498D02*
X17948189Y-22363974D01*
X17948189Y-22363974D02*
X17938665Y-22344927D01*
X17938665Y-22344927D02*
X17938665Y-22335403D01*
X17938665Y-22335403D02*
X17948189Y-22316355D01*
X17948189Y-22316355D02*
X17967237Y-22306831D01*
X17967237Y-22306831D02*
X17995808Y-22306831D01*
X17995808Y-22306831D02*
X18014856Y-22316355D01*
X18091046Y-22516355D02*
X18100570Y-22506831D01*
X18100570Y-22506831D02*
X18119618Y-22478260D01*
X18119618Y-22478260D02*
X18129142Y-22459212D01*
X18129142Y-22459212D02*
X18138665Y-22430641D01*
X18138665Y-22430641D02*
X18148189Y-22383022D01*
X18148189Y-22383022D02*
X18148189Y-22344927D01*
X18148189Y-22344927D02*
X18138665Y-22297308D01*
X18138665Y-22297308D02*
X18129142Y-22268736D01*
X18129142Y-22268736D02*
X18119618Y-22249689D01*
X18119618Y-22249689D02*
X18100570Y-22221117D01*
X18100570Y-22221117D02*
X18091046Y-22211593D01*
D12*
X13075507Y-22662681D02*
X13125507Y-22612681D01*
X13075507Y-22562681D01*
X13025507Y-22612681D01*
X13075507Y-22662681D01*
D11*
X13491046Y-22704165D02*
X13376760Y-22704165D01*
X13433903Y-22704165D02*
X13433903Y-22504165D01*
X13433903Y-22504165D02*
X13414855Y-22532736D01*
X13414855Y-22532736D02*
X13395808Y-22551784D01*
X13395808Y-22551784D02*
X13376760Y-22561308D01*
X13576760Y-22685117D02*
X13586284Y-22694641D01*
X13586284Y-22694641D02*
X13576760Y-22704165D01*
X13576760Y-22704165D02*
X13567236Y-22694641D01*
X13567236Y-22694641D02*
X13576760Y-22685117D01*
X13576760Y-22685117D02*
X13576760Y-22704165D01*
X13710093Y-22504165D02*
X13729141Y-22504165D01*
X13729141Y-22504165D02*
X13748189Y-22513689D01*
X13748189Y-22513689D02*
X13757713Y-22523212D01*
X13757713Y-22523212D02*
X13767236Y-22542260D01*
X13767236Y-22542260D02*
X13776760Y-22580355D01*
X13776760Y-22580355D02*
X13776760Y-22627974D01*
X13776760Y-22627974D02*
X13767236Y-22666069D01*
X13767236Y-22666069D02*
X13757713Y-22685117D01*
X13757713Y-22685117D02*
X13748189Y-22694641D01*
X13748189Y-22694641D02*
X13729141Y-22704165D01*
X13729141Y-22704165D02*
X13710093Y-22704165D01*
X13710093Y-22704165D02*
X13691046Y-22694641D01*
X13691046Y-22694641D02*
X13681522Y-22685117D01*
X13681522Y-22685117D02*
X13671998Y-22666069D01*
X13671998Y-22666069D02*
X13662474Y-22627974D01*
X13662474Y-22627974D02*
X13662474Y-22580355D01*
X13662474Y-22580355D02*
X13671998Y-22542260D01*
X13671998Y-22542260D02*
X13681522Y-22523212D01*
X13681522Y-22523212D02*
X13691046Y-22513689D01*
X13691046Y-22513689D02*
X13710093Y-22504165D01*
X13900570Y-22504165D02*
X13919617Y-22504165D01*
X13919617Y-22504165D02*
X13938665Y-22513689D01*
X13938665Y-22513689D02*
X13948189Y-22523212D01*
X13948189Y-22523212D02*
X13957713Y-22542260D01*
X13957713Y-22542260D02*
X13967236Y-22580355D01*
X13967236Y-22580355D02*
X13967236Y-22627974D01*
X13967236Y-22627974D02*
X13957713Y-22666069D01*
X13957713Y-22666069D02*
X13948189Y-22685117D01*
X13948189Y-22685117D02*
X13938665Y-22694641D01*
X13938665Y-22694641D02*
X13919617Y-22704165D01*
X13919617Y-22704165D02*
X13900570Y-22704165D01*
X13900570Y-22704165D02*
X13881522Y-22694641D01*
X13881522Y-22694641D02*
X13871998Y-22685117D01*
X13871998Y-22685117D02*
X13862474Y-22666069D01*
X13862474Y-22666069D02*
X13852951Y-22627974D01*
X13852951Y-22627974D02*
X13852951Y-22580355D01*
X13852951Y-22580355D02*
X13862474Y-22542260D01*
X13862474Y-22542260D02*
X13871998Y-22523212D01*
X13871998Y-22523212D02*
X13881522Y-22513689D01*
X13881522Y-22513689D02*
X13900570Y-22504165D01*
X14091046Y-22504165D02*
X14110094Y-22504165D01*
X14110094Y-22504165D02*
X14129141Y-22513689D01*
X14129141Y-22513689D02*
X14138665Y-22523212D01*
X14138665Y-22523212D02*
X14148189Y-22542260D01*
X14148189Y-22542260D02*
X14157713Y-22580355D01*
X14157713Y-22580355D02*
X14157713Y-22627974D01*
X14157713Y-22627974D02*
X14148189Y-22666069D01*
X14148189Y-22666069D02*
X14138665Y-22685117D01*
X14138665Y-22685117D02*
X14129141Y-22694641D01*
X14129141Y-22694641D02*
X14110094Y-22704165D01*
X14110094Y-22704165D02*
X14091046Y-22704165D01*
X14091046Y-22704165D02*
X14071998Y-22694641D01*
X14071998Y-22694641D02*
X14062474Y-22685117D01*
X14062474Y-22685117D02*
X14052951Y-22666069D01*
X14052951Y-22666069D02*
X14043427Y-22627974D01*
X14043427Y-22627974D02*
X14043427Y-22580355D01*
X14043427Y-22580355D02*
X14052951Y-22542260D01*
X14052951Y-22542260D02*
X14062474Y-22523212D01*
X14062474Y-22523212D02*
X14071998Y-22513689D01*
X14071998Y-22513689D02*
X14091046Y-22504165D01*
X14243427Y-22704165D02*
X14243427Y-22570831D01*
X14243427Y-22589879D02*
X14252951Y-22580355D01*
X14252951Y-22580355D02*
X14271998Y-22570831D01*
X14271998Y-22570831D02*
X14300570Y-22570831D01*
X14300570Y-22570831D02*
X14319617Y-22580355D01*
X14319617Y-22580355D02*
X14329141Y-22599403D01*
X14329141Y-22599403D02*
X14329141Y-22704165D01*
X14329141Y-22599403D02*
X14338665Y-22580355D01*
X14338665Y-22580355D02*
X14357713Y-22570831D01*
X14357713Y-22570831D02*
X14386284Y-22570831D01*
X14386284Y-22570831D02*
X14405332Y-22580355D01*
X14405332Y-22580355D02*
X14414855Y-22599403D01*
X14414855Y-22599403D02*
X14414855Y-22704165D01*
X14510094Y-22704165D02*
X14510094Y-22570831D01*
X14510094Y-22589879D02*
X14519617Y-22580355D01*
X14519617Y-22580355D02*
X14538665Y-22570831D01*
X14538665Y-22570831D02*
X14567236Y-22570831D01*
X14567236Y-22570831D02*
X14586284Y-22580355D01*
X14586284Y-22580355D02*
X14595808Y-22599403D01*
X14595808Y-22599403D02*
X14595808Y-22704165D01*
X14595808Y-22599403D02*
X14605332Y-22580355D01*
X14605332Y-22580355D02*
X14624379Y-22570831D01*
X14624379Y-22570831D02*
X14652951Y-22570831D01*
X14652951Y-22570831D02*
X14671998Y-22580355D01*
X14671998Y-22580355D02*
X14681522Y-22599403D01*
X14681522Y-22599403D02*
X14681522Y-22704165D01*
X15071998Y-22494641D02*
X14900570Y-22751784D01*
X15329141Y-22504165D02*
X15348189Y-22504165D01*
X15348189Y-22504165D02*
X15367237Y-22513689D01*
X15367237Y-22513689D02*
X15376760Y-22523212D01*
X15376760Y-22523212D02*
X15386284Y-22542260D01*
X15386284Y-22542260D02*
X15395808Y-22580355D01*
X15395808Y-22580355D02*
X15395808Y-22627974D01*
X15395808Y-22627974D02*
X15386284Y-22666069D01*
X15386284Y-22666069D02*
X15376760Y-22685117D01*
X15376760Y-22685117D02*
X15367237Y-22694641D01*
X15367237Y-22694641D02*
X15348189Y-22704165D01*
X15348189Y-22704165D02*
X15329141Y-22704165D01*
X15329141Y-22704165D02*
X15310094Y-22694641D01*
X15310094Y-22694641D02*
X15300570Y-22685117D01*
X15300570Y-22685117D02*
X15291046Y-22666069D01*
X15291046Y-22666069D02*
X15281522Y-22627974D01*
X15281522Y-22627974D02*
X15281522Y-22580355D01*
X15281522Y-22580355D02*
X15291046Y-22542260D01*
X15291046Y-22542260D02*
X15300570Y-22523212D01*
X15300570Y-22523212D02*
X15310094Y-22513689D01*
X15310094Y-22513689D02*
X15329141Y-22504165D01*
X15481522Y-22685117D02*
X15491046Y-22694641D01*
X15491046Y-22694641D02*
X15481522Y-22704165D01*
X15481522Y-22704165D02*
X15471998Y-22694641D01*
X15471998Y-22694641D02*
X15481522Y-22685117D01*
X15481522Y-22685117D02*
X15481522Y-22704165D01*
X15614856Y-22504165D02*
X15633903Y-22504165D01*
X15633903Y-22504165D02*
X15652951Y-22513689D01*
X15652951Y-22513689D02*
X15662475Y-22523212D01*
X15662475Y-22523212D02*
X15671998Y-22542260D01*
X15671998Y-22542260D02*
X15681522Y-22580355D01*
X15681522Y-22580355D02*
X15681522Y-22627974D01*
X15681522Y-22627974D02*
X15671998Y-22666069D01*
X15671998Y-22666069D02*
X15662475Y-22685117D01*
X15662475Y-22685117D02*
X15652951Y-22694641D01*
X15652951Y-22694641D02*
X15633903Y-22704165D01*
X15633903Y-22704165D02*
X15614856Y-22704165D01*
X15614856Y-22704165D02*
X15595808Y-22694641D01*
X15595808Y-22694641D02*
X15586284Y-22685117D01*
X15586284Y-22685117D02*
X15576760Y-22666069D01*
X15576760Y-22666069D02*
X15567237Y-22627974D01*
X15567237Y-22627974D02*
X15567237Y-22580355D01*
X15567237Y-22580355D02*
X15576760Y-22542260D01*
X15576760Y-22542260D02*
X15586284Y-22523212D01*
X15586284Y-22523212D02*
X15595808Y-22513689D01*
X15595808Y-22513689D02*
X15614856Y-22504165D01*
X15748189Y-22504165D02*
X15871998Y-22504165D01*
X15871998Y-22504165D02*
X15805332Y-22580355D01*
X15805332Y-22580355D02*
X15833903Y-22580355D01*
X15833903Y-22580355D02*
X15852951Y-22589879D01*
X15852951Y-22589879D02*
X15862475Y-22599403D01*
X15862475Y-22599403D02*
X15871998Y-22618450D01*
X15871998Y-22618450D02*
X15871998Y-22666069D01*
X15871998Y-22666069D02*
X15862475Y-22685117D01*
X15862475Y-22685117D02*
X15852951Y-22694641D01*
X15852951Y-22694641D02*
X15833903Y-22704165D01*
X15833903Y-22704165D02*
X15776760Y-22704165D01*
X15776760Y-22704165D02*
X15757713Y-22694641D01*
X15757713Y-22694641D02*
X15748189Y-22685117D01*
X15967237Y-22704165D02*
X16005332Y-22704165D01*
X16005332Y-22704165D02*
X16024379Y-22694641D01*
X16024379Y-22694641D02*
X16033903Y-22685117D01*
X16033903Y-22685117D02*
X16052951Y-22656546D01*
X16052951Y-22656546D02*
X16062475Y-22618450D01*
X16062475Y-22618450D02*
X16062475Y-22542260D01*
X16062475Y-22542260D02*
X16052951Y-22523212D01*
X16052951Y-22523212D02*
X16043427Y-22513689D01*
X16043427Y-22513689D02*
X16024379Y-22504165D01*
X16024379Y-22504165D02*
X15986284Y-22504165D01*
X15986284Y-22504165D02*
X15967237Y-22513689D01*
X15967237Y-22513689D02*
X15957713Y-22523212D01*
X15957713Y-22523212D02*
X15948189Y-22542260D01*
X15948189Y-22542260D02*
X15948189Y-22589879D01*
X15948189Y-22589879D02*
X15957713Y-22608927D01*
X15957713Y-22608927D02*
X15967237Y-22618450D01*
X15967237Y-22618450D02*
X15986284Y-22627974D01*
X15986284Y-22627974D02*
X16024379Y-22627974D01*
X16024379Y-22627974D02*
X16043427Y-22618450D01*
X16043427Y-22618450D02*
X16052951Y-22608927D01*
X16052951Y-22608927D02*
X16062475Y-22589879D01*
X16233903Y-22570831D02*
X16233903Y-22704165D01*
X16186284Y-22494641D02*
X16138665Y-22637498D01*
X16138665Y-22637498D02*
X16262475Y-22637498D01*
X16329141Y-22504165D02*
X16329141Y-22542260D01*
X16405332Y-22504165D02*
X16405332Y-22542260D01*
X16700570Y-22780355D02*
X16691046Y-22770831D01*
X16691046Y-22770831D02*
X16671999Y-22742260D01*
X16671999Y-22742260D02*
X16662475Y-22723212D01*
X16662475Y-22723212D02*
X16652951Y-22694641D01*
X16652951Y-22694641D02*
X16643427Y-22647022D01*
X16643427Y-22647022D02*
X16643427Y-22608927D01*
X16643427Y-22608927D02*
X16652951Y-22561308D01*
X16652951Y-22561308D02*
X16662475Y-22532736D01*
X16662475Y-22532736D02*
X16671999Y-22513689D01*
X16671999Y-22513689D02*
X16691046Y-22485117D01*
X16691046Y-22485117D02*
X16700570Y-22475593D01*
X16767237Y-22523212D02*
X16776760Y-22513689D01*
X16776760Y-22513689D02*
X16795808Y-22504165D01*
X16795808Y-22504165D02*
X16843427Y-22504165D01*
X16843427Y-22504165D02*
X16862475Y-22513689D01*
X16862475Y-22513689D02*
X16871999Y-22523212D01*
X16871999Y-22523212D02*
X16881522Y-22542260D01*
X16881522Y-22542260D02*
X16881522Y-22561308D01*
X16881522Y-22561308D02*
X16871999Y-22589879D01*
X16871999Y-22589879D02*
X16757713Y-22704165D01*
X16757713Y-22704165D02*
X16881522Y-22704165D01*
X16976761Y-22704165D02*
X17014856Y-22704165D01*
X17014856Y-22704165D02*
X17033903Y-22694641D01*
X17033903Y-22694641D02*
X17043427Y-22685117D01*
X17043427Y-22685117D02*
X17062475Y-22656546D01*
X17062475Y-22656546D02*
X17071999Y-22618450D01*
X17071999Y-22618450D02*
X17071999Y-22542260D01*
X17071999Y-22542260D02*
X17062475Y-22523212D01*
X17062475Y-22523212D02*
X17052951Y-22513689D01*
X17052951Y-22513689D02*
X17033903Y-22504165D01*
X17033903Y-22504165D02*
X16995808Y-22504165D01*
X16995808Y-22504165D02*
X16976761Y-22513689D01*
X16976761Y-22513689D02*
X16967237Y-22523212D01*
X16967237Y-22523212D02*
X16957713Y-22542260D01*
X16957713Y-22542260D02*
X16957713Y-22589879D01*
X16957713Y-22589879D02*
X16967237Y-22608927D01*
X16967237Y-22608927D02*
X16976761Y-22618450D01*
X16976761Y-22618450D02*
X16995808Y-22627974D01*
X16995808Y-22627974D02*
X17033903Y-22627974D01*
X17033903Y-22627974D02*
X17052951Y-22618450D01*
X17052951Y-22618450D02*
X17062475Y-22608927D01*
X17062475Y-22608927D02*
X17071999Y-22589879D01*
X17310094Y-22704165D02*
X17310094Y-22504165D01*
X17395808Y-22704165D02*
X17395808Y-22599403D01*
X17395808Y-22599403D02*
X17386284Y-22580355D01*
X17386284Y-22580355D02*
X17367237Y-22570831D01*
X17367237Y-22570831D02*
X17338665Y-22570831D01*
X17338665Y-22570831D02*
X17319618Y-22580355D01*
X17319618Y-22580355D02*
X17310094Y-22589879D01*
X17519618Y-22704165D02*
X17500570Y-22694641D01*
X17500570Y-22694641D02*
X17491046Y-22685117D01*
X17491046Y-22685117D02*
X17481523Y-22666069D01*
X17481523Y-22666069D02*
X17481523Y-22608927D01*
X17481523Y-22608927D02*
X17491046Y-22589879D01*
X17491046Y-22589879D02*
X17500570Y-22580355D01*
X17500570Y-22580355D02*
X17519618Y-22570831D01*
X17519618Y-22570831D02*
X17548189Y-22570831D01*
X17548189Y-22570831D02*
X17567237Y-22580355D01*
X17567237Y-22580355D02*
X17576761Y-22589879D01*
X17576761Y-22589879D02*
X17586284Y-22608927D01*
X17586284Y-22608927D02*
X17586284Y-22666069D01*
X17586284Y-22666069D02*
X17576761Y-22685117D01*
X17576761Y-22685117D02*
X17567237Y-22694641D01*
X17567237Y-22694641D02*
X17548189Y-22704165D01*
X17548189Y-22704165D02*
X17519618Y-22704165D01*
X17700570Y-22704165D02*
X17681523Y-22694641D01*
X17681523Y-22694641D02*
X17671999Y-22675593D01*
X17671999Y-22675593D02*
X17671999Y-22504165D01*
X17852951Y-22694641D02*
X17833904Y-22704165D01*
X17833904Y-22704165D02*
X17795808Y-22704165D01*
X17795808Y-22704165D02*
X17776761Y-22694641D01*
X17776761Y-22694641D02*
X17767237Y-22675593D01*
X17767237Y-22675593D02*
X17767237Y-22599403D01*
X17767237Y-22599403D02*
X17776761Y-22580355D01*
X17776761Y-22580355D02*
X17795808Y-22570831D01*
X17795808Y-22570831D02*
X17833904Y-22570831D01*
X17833904Y-22570831D02*
X17852951Y-22580355D01*
X17852951Y-22580355D02*
X17862475Y-22599403D01*
X17862475Y-22599403D02*
X17862475Y-22618450D01*
X17862475Y-22618450D02*
X17767237Y-22637498D01*
X17938665Y-22694641D02*
X17957713Y-22704165D01*
X17957713Y-22704165D02*
X17995808Y-22704165D01*
X17995808Y-22704165D02*
X18014856Y-22694641D01*
X18014856Y-22694641D02*
X18024380Y-22675593D01*
X18024380Y-22675593D02*
X18024380Y-22666069D01*
X18024380Y-22666069D02*
X18014856Y-22647022D01*
X18014856Y-22647022D02*
X17995808Y-22637498D01*
X17995808Y-22637498D02*
X17967237Y-22637498D01*
X17967237Y-22637498D02*
X17948189Y-22627974D01*
X17948189Y-22627974D02*
X17938665Y-22608927D01*
X17938665Y-22608927D02*
X17938665Y-22599403D01*
X17938665Y-22599403D02*
X17948189Y-22580355D01*
X17948189Y-22580355D02*
X17967237Y-22570831D01*
X17967237Y-22570831D02*
X17995808Y-22570831D01*
X17995808Y-22570831D02*
X18014856Y-22580355D01*
X18091046Y-22780355D02*
X18100570Y-22770831D01*
X18100570Y-22770831D02*
X18119618Y-22742260D01*
X18119618Y-22742260D02*
X18129142Y-22723212D01*
X18129142Y-22723212D02*
X18138665Y-22694641D01*
X18138665Y-22694641D02*
X18148189Y-22647022D01*
X18148189Y-22647022D02*
X18148189Y-22608927D01*
X18148189Y-22608927D02*
X18138665Y-22561308D01*
X18138665Y-22561308D02*
X18129142Y-22532736D01*
X18129142Y-22532736D02*
X18119618Y-22513689D01*
X18119618Y-22513689D02*
X18100570Y-22485117D01*
X18100570Y-22485117D02*
X18091046Y-22475593D01*
D10*
X12975507Y-22801681D02*
X13125507Y-22951681D01*
X13125507Y-22801681D02*
X12975507Y-22951681D01*
X13125507Y-22876681D02*
G75*
G02*
X12975507Y-22876681I-75000J0D01*
G01*
X12975507Y-22876681D02*
G75*
G02*
X13125507Y-22876681I75000J0D01*
G01*
D11*
X13491046Y-22968165D02*
X13376760Y-22968165D01*
X13433903Y-22968165D02*
X13433903Y-22768165D01*
X13433903Y-22768165D02*
X13414855Y-22796736D01*
X13414855Y-22796736D02*
X13395808Y-22815784D01*
X13395808Y-22815784D02*
X13376760Y-22825308D01*
X13576760Y-22949117D02*
X13586284Y-22958641D01*
X13586284Y-22958641D02*
X13576760Y-22968165D01*
X13576760Y-22968165D02*
X13567236Y-22958641D01*
X13567236Y-22958641D02*
X13576760Y-22949117D01*
X13576760Y-22949117D02*
X13576760Y-22968165D01*
X13767236Y-22768165D02*
X13671998Y-22768165D01*
X13671998Y-22768165D02*
X13662474Y-22863403D01*
X13662474Y-22863403D02*
X13671998Y-22853879D01*
X13671998Y-22853879D02*
X13691046Y-22844355D01*
X13691046Y-22844355D02*
X13738665Y-22844355D01*
X13738665Y-22844355D02*
X13757713Y-22853879D01*
X13757713Y-22853879D02*
X13767236Y-22863403D01*
X13767236Y-22863403D02*
X13776760Y-22882450D01*
X13776760Y-22882450D02*
X13776760Y-22930069D01*
X13776760Y-22930069D02*
X13767236Y-22949117D01*
X13767236Y-22949117D02*
X13757713Y-22958641D01*
X13757713Y-22958641D02*
X13738665Y-22968165D01*
X13738665Y-22968165D02*
X13691046Y-22968165D01*
X13691046Y-22968165D02*
X13671998Y-22958641D01*
X13671998Y-22958641D02*
X13662474Y-22949117D01*
X13900570Y-22768165D02*
X13919617Y-22768165D01*
X13919617Y-22768165D02*
X13938665Y-22777689D01*
X13938665Y-22777689D02*
X13948189Y-22787212D01*
X13948189Y-22787212D02*
X13957713Y-22806260D01*
X13957713Y-22806260D02*
X13967236Y-22844355D01*
X13967236Y-22844355D02*
X13967236Y-22891974D01*
X13967236Y-22891974D02*
X13957713Y-22930069D01*
X13957713Y-22930069D02*
X13948189Y-22949117D01*
X13948189Y-22949117D02*
X13938665Y-22958641D01*
X13938665Y-22958641D02*
X13919617Y-22968165D01*
X13919617Y-22968165D02*
X13900570Y-22968165D01*
X13900570Y-22968165D02*
X13881522Y-22958641D01*
X13881522Y-22958641D02*
X13871998Y-22949117D01*
X13871998Y-22949117D02*
X13862474Y-22930069D01*
X13862474Y-22930069D02*
X13852951Y-22891974D01*
X13852951Y-22891974D02*
X13852951Y-22844355D01*
X13852951Y-22844355D02*
X13862474Y-22806260D01*
X13862474Y-22806260D02*
X13871998Y-22787212D01*
X13871998Y-22787212D02*
X13881522Y-22777689D01*
X13881522Y-22777689D02*
X13900570Y-22768165D01*
X14091046Y-22768165D02*
X14110094Y-22768165D01*
X14110094Y-22768165D02*
X14129141Y-22777689D01*
X14129141Y-22777689D02*
X14138665Y-22787212D01*
X14138665Y-22787212D02*
X14148189Y-22806260D01*
X14148189Y-22806260D02*
X14157713Y-22844355D01*
X14157713Y-22844355D02*
X14157713Y-22891974D01*
X14157713Y-22891974D02*
X14148189Y-22930069D01*
X14148189Y-22930069D02*
X14138665Y-22949117D01*
X14138665Y-22949117D02*
X14129141Y-22958641D01*
X14129141Y-22958641D02*
X14110094Y-22968165D01*
X14110094Y-22968165D02*
X14091046Y-22968165D01*
X14091046Y-22968165D02*
X14071998Y-22958641D01*
X14071998Y-22958641D02*
X14062474Y-22949117D01*
X14062474Y-22949117D02*
X14052951Y-22930069D01*
X14052951Y-22930069D02*
X14043427Y-22891974D01*
X14043427Y-22891974D02*
X14043427Y-22844355D01*
X14043427Y-22844355D02*
X14052951Y-22806260D01*
X14052951Y-22806260D02*
X14062474Y-22787212D01*
X14062474Y-22787212D02*
X14071998Y-22777689D01*
X14071998Y-22777689D02*
X14091046Y-22768165D01*
X14243427Y-22968165D02*
X14243427Y-22834831D01*
X14243427Y-22853879D02*
X14252951Y-22844355D01*
X14252951Y-22844355D02*
X14271998Y-22834831D01*
X14271998Y-22834831D02*
X14300570Y-22834831D01*
X14300570Y-22834831D02*
X14319617Y-22844355D01*
X14319617Y-22844355D02*
X14329141Y-22863403D01*
X14329141Y-22863403D02*
X14329141Y-22968165D01*
X14329141Y-22863403D02*
X14338665Y-22844355D01*
X14338665Y-22844355D02*
X14357713Y-22834831D01*
X14357713Y-22834831D02*
X14386284Y-22834831D01*
X14386284Y-22834831D02*
X14405332Y-22844355D01*
X14405332Y-22844355D02*
X14414855Y-22863403D01*
X14414855Y-22863403D02*
X14414855Y-22968165D01*
X14510094Y-22968165D02*
X14510094Y-22834831D01*
X14510094Y-22853879D02*
X14519617Y-22844355D01*
X14519617Y-22844355D02*
X14538665Y-22834831D01*
X14538665Y-22834831D02*
X14567236Y-22834831D01*
X14567236Y-22834831D02*
X14586284Y-22844355D01*
X14586284Y-22844355D02*
X14595808Y-22863403D01*
X14595808Y-22863403D02*
X14595808Y-22968165D01*
X14595808Y-22863403D02*
X14605332Y-22844355D01*
X14605332Y-22844355D02*
X14624379Y-22834831D01*
X14624379Y-22834831D02*
X14652951Y-22834831D01*
X14652951Y-22834831D02*
X14671998Y-22844355D01*
X14671998Y-22844355D02*
X14681522Y-22863403D01*
X14681522Y-22863403D02*
X14681522Y-22968165D01*
X15071998Y-22758641D02*
X14900570Y-23015784D01*
X15329141Y-22768165D02*
X15348189Y-22768165D01*
X15348189Y-22768165D02*
X15367237Y-22777689D01*
X15367237Y-22777689D02*
X15376760Y-22787212D01*
X15376760Y-22787212D02*
X15386284Y-22806260D01*
X15386284Y-22806260D02*
X15395808Y-22844355D01*
X15395808Y-22844355D02*
X15395808Y-22891974D01*
X15395808Y-22891974D02*
X15386284Y-22930069D01*
X15386284Y-22930069D02*
X15376760Y-22949117D01*
X15376760Y-22949117D02*
X15367237Y-22958641D01*
X15367237Y-22958641D02*
X15348189Y-22968165D01*
X15348189Y-22968165D02*
X15329141Y-22968165D01*
X15329141Y-22968165D02*
X15310094Y-22958641D01*
X15310094Y-22958641D02*
X15300570Y-22949117D01*
X15300570Y-22949117D02*
X15291046Y-22930069D01*
X15291046Y-22930069D02*
X15281522Y-22891974D01*
X15281522Y-22891974D02*
X15281522Y-22844355D01*
X15281522Y-22844355D02*
X15291046Y-22806260D01*
X15291046Y-22806260D02*
X15300570Y-22787212D01*
X15300570Y-22787212D02*
X15310094Y-22777689D01*
X15310094Y-22777689D02*
X15329141Y-22768165D01*
X15481522Y-22949117D02*
X15491046Y-22958641D01*
X15491046Y-22958641D02*
X15481522Y-22968165D01*
X15481522Y-22968165D02*
X15471998Y-22958641D01*
X15471998Y-22958641D02*
X15481522Y-22949117D01*
X15481522Y-22949117D02*
X15481522Y-22968165D01*
X15614856Y-22768165D02*
X15633903Y-22768165D01*
X15633903Y-22768165D02*
X15652951Y-22777689D01*
X15652951Y-22777689D02*
X15662475Y-22787212D01*
X15662475Y-22787212D02*
X15671998Y-22806260D01*
X15671998Y-22806260D02*
X15681522Y-22844355D01*
X15681522Y-22844355D02*
X15681522Y-22891974D01*
X15681522Y-22891974D02*
X15671998Y-22930069D01*
X15671998Y-22930069D02*
X15662475Y-22949117D01*
X15662475Y-22949117D02*
X15652951Y-22958641D01*
X15652951Y-22958641D02*
X15633903Y-22968165D01*
X15633903Y-22968165D02*
X15614856Y-22968165D01*
X15614856Y-22968165D02*
X15595808Y-22958641D01*
X15595808Y-22958641D02*
X15586284Y-22949117D01*
X15586284Y-22949117D02*
X15576760Y-22930069D01*
X15576760Y-22930069D02*
X15567237Y-22891974D01*
X15567237Y-22891974D02*
X15567237Y-22844355D01*
X15567237Y-22844355D02*
X15576760Y-22806260D01*
X15576760Y-22806260D02*
X15586284Y-22787212D01*
X15586284Y-22787212D02*
X15595808Y-22777689D01*
X15595808Y-22777689D02*
X15614856Y-22768165D01*
X15862475Y-22768165D02*
X15767237Y-22768165D01*
X15767237Y-22768165D02*
X15757713Y-22863403D01*
X15757713Y-22863403D02*
X15767237Y-22853879D01*
X15767237Y-22853879D02*
X15786284Y-22844355D01*
X15786284Y-22844355D02*
X15833903Y-22844355D01*
X15833903Y-22844355D02*
X15852951Y-22853879D01*
X15852951Y-22853879D02*
X15862475Y-22863403D01*
X15862475Y-22863403D02*
X15871998Y-22882450D01*
X15871998Y-22882450D02*
X15871998Y-22930069D01*
X15871998Y-22930069D02*
X15862475Y-22949117D01*
X15862475Y-22949117D02*
X15852951Y-22958641D01*
X15852951Y-22958641D02*
X15833903Y-22968165D01*
X15833903Y-22968165D02*
X15786284Y-22968165D01*
X15786284Y-22968165D02*
X15767237Y-22958641D01*
X15767237Y-22958641D02*
X15757713Y-22949117D01*
X15967237Y-22968165D02*
X16005332Y-22968165D01*
X16005332Y-22968165D02*
X16024379Y-22958641D01*
X16024379Y-22958641D02*
X16033903Y-22949117D01*
X16033903Y-22949117D02*
X16052951Y-22920546D01*
X16052951Y-22920546D02*
X16062475Y-22882450D01*
X16062475Y-22882450D02*
X16062475Y-22806260D01*
X16062475Y-22806260D02*
X16052951Y-22787212D01*
X16052951Y-22787212D02*
X16043427Y-22777689D01*
X16043427Y-22777689D02*
X16024379Y-22768165D01*
X16024379Y-22768165D02*
X15986284Y-22768165D01*
X15986284Y-22768165D02*
X15967237Y-22777689D01*
X15967237Y-22777689D02*
X15957713Y-22787212D01*
X15957713Y-22787212D02*
X15948189Y-22806260D01*
X15948189Y-22806260D02*
X15948189Y-22853879D01*
X15948189Y-22853879D02*
X15957713Y-22872927D01*
X15957713Y-22872927D02*
X15967237Y-22882450D01*
X15967237Y-22882450D02*
X15986284Y-22891974D01*
X15986284Y-22891974D02*
X16024379Y-22891974D01*
X16024379Y-22891974D02*
X16043427Y-22882450D01*
X16043427Y-22882450D02*
X16052951Y-22872927D01*
X16052951Y-22872927D02*
X16062475Y-22853879D01*
X16252951Y-22968165D02*
X16138665Y-22968165D01*
X16195808Y-22968165D02*
X16195808Y-22768165D01*
X16195808Y-22768165D02*
X16176760Y-22796736D01*
X16176760Y-22796736D02*
X16157713Y-22815784D01*
X16157713Y-22815784D02*
X16138665Y-22825308D01*
X16329141Y-22768165D02*
X16329141Y-22806260D01*
X16405332Y-22768165D02*
X16405332Y-22806260D01*
X16700570Y-23044355D02*
X16691046Y-23034831D01*
X16691046Y-23034831D02*
X16671999Y-23006260D01*
X16671999Y-23006260D02*
X16662475Y-22987212D01*
X16662475Y-22987212D02*
X16652951Y-22958641D01*
X16652951Y-22958641D02*
X16643427Y-22911022D01*
X16643427Y-22911022D02*
X16643427Y-22872927D01*
X16643427Y-22872927D02*
X16652951Y-22825308D01*
X16652951Y-22825308D02*
X16662475Y-22796736D01*
X16662475Y-22796736D02*
X16671999Y-22777689D01*
X16671999Y-22777689D02*
X16691046Y-22749117D01*
X16691046Y-22749117D02*
X16700570Y-22739593D01*
X16814856Y-22768165D02*
X16833903Y-22768165D01*
X16833903Y-22768165D02*
X16852951Y-22777689D01*
X16852951Y-22777689D02*
X16862475Y-22787212D01*
X16862475Y-22787212D02*
X16871999Y-22806260D01*
X16871999Y-22806260D02*
X16881522Y-22844355D01*
X16881522Y-22844355D02*
X16881522Y-22891974D01*
X16881522Y-22891974D02*
X16871999Y-22930069D01*
X16871999Y-22930069D02*
X16862475Y-22949117D01*
X16862475Y-22949117D02*
X16852951Y-22958641D01*
X16852951Y-22958641D02*
X16833903Y-22968165D01*
X16833903Y-22968165D02*
X16814856Y-22968165D01*
X16814856Y-22968165D02*
X16795808Y-22958641D01*
X16795808Y-22958641D02*
X16786284Y-22949117D01*
X16786284Y-22949117D02*
X16776760Y-22930069D01*
X16776760Y-22930069D02*
X16767237Y-22891974D01*
X16767237Y-22891974D02*
X16767237Y-22844355D01*
X16767237Y-22844355D02*
X16776760Y-22806260D01*
X16776760Y-22806260D02*
X16786284Y-22787212D01*
X16786284Y-22787212D02*
X16795808Y-22777689D01*
X16795808Y-22777689D02*
X16814856Y-22768165D01*
X17119618Y-22968165D02*
X17119618Y-22768165D01*
X17205332Y-22968165D02*
X17205332Y-22863403D01*
X17205332Y-22863403D02*
X17195808Y-22844355D01*
X17195808Y-22844355D02*
X17176761Y-22834831D01*
X17176761Y-22834831D02*
X17148189Y-22834831D01*
X17148189Y-22834831D02*
X17129142Y-22844355D01*
X17129142Y-22844355D02*
X17119618Y-22853879D01*
X17329142Y-22968165D02*
X17310094Y-22958641D01*
X17310094Y-22958641D02*
X17300570Y-22949117D01*
X17300570Y-22949117D02*
X17291046Y-22930069D01*
X17291046Y-22930069D02*
X17291046Y-22872927D01*
X17291046Y-22872927D02*
X17300570Y-22853879D01*
X17300570Y-22853879D02*
X17310094Y-22844355D01*
X17310094Y-22844355D02*
X17329142Y-22834831D01*
X17329142Y-22834831D02*
X17357713Y-22834831D01*
X17357713Y-22834831D02*
X17376761Y-22844355D01*
X17376761Y-22844355D02*
X17386284Y-22853879D01*
X17386284Y-22853879D02*
X17395808Y-22872927D01*
X17395808Y-22872927D02*
X17395808Y-22930069D01*
X17395808Y-22930069D02*
X17386284Y-22949117D01*
X17386284Y-22949117D02*
X17376761Y-22958641D01*
X17376761Y-22958641D02*
X17357713Y-22968165D01*
X17357713Y-22968165D02*
X17329142Y-22968165D01*
X17510094Y-22968165D02*
X17491046Y-22958641D01*
X17491046Y-22958641D02*
X17481523Y-22939593D01*
X17481523Y-22939593D02*
X17481523Y-22768165D01*
X17662475Y-22958641D02*
X17643427Y-22968165D01*
X17643427Y-22968165D02*
X17605332Y-22968165D01*
X17605332Y-22968165D02*
X17586284Y-22958641D01*
X17586284Y-22958641D02*
X17576761Y-22939593D01*
X17576761Y-22939593D02*
X17576761Y-22863403D01*
X17576761Y-22863403D02*
X17586284Y-22844355D01*
X17586284Y-22844355D02*
X17605332Y-22834831D01*
X17605332Y-22834831D02*
X17643427Y-22834831D01*
X17643427Y-22834831D02*
X17662475Y-22844355D01*
X17662475Y-22844355D02*
X17671999Y-22863403D01*
X17671999Y-22863403D02*
X17671999Y-22882450D01*
X17671999Y-22882450D02*
X17576761Y-22901498D01*
X17748189Y-22958641D02*
X17767237Y-22968165D01*
X17767237Y-22968165D02*
X17805332Y-22968165D01*
X17805332Y-22968165D02*
X17824380Y-22958641D01*
X17824380Y-22958641D02*
X17833904Y-22939593D01*
X17833904Y-22939593D02*
X17833904Y-22930069D01*
X17833904Y-22930069D02*
X17824380Y-22911022D01*
X17824380Y-22911022D02*
X17805332Y-22901498D01*
X17805332Y-22901498D02*
X17776761Y-22901498D01*
X17776761Y-22901498D02*
X17757713Y-22891974D01*
X17757713Y-22891974D02*
X17748189Y-22872927D01*
X17748189Y-22872927D02*
X17748189Y-22863403D01*
X17748189Y-22863403D02*
X17757713Y-22844355D01*
X17757713Y-22844355D02*
X17776761Y-22834831D01*
X17776761Y-22834831D02*
X17805332Y-22834831D01*
X17805332Y-22834831D02*
X17824380Y-22844355D01*
X18071999Y-22891974D02*
X18224380Y-22891974D01*
X18148189Y-22968165D02*
X18148189Y-22815784D01*
X18462475Y-22787212D02*
X18471999Y-22777689D01*
X18471999Y-22777689D02*
X18491046Y-22768165D01*
X18491046Y-22768165D02*
X18538666Y-22768165D01*
X18538666Y-22768165D02*
X18557713Y-22777689D01*
X18557713Y-22777689D02*
X18567237Y-22787212D01*
X18567237Y-22787212D02*
X18576761Y-22806260D01*
X18576761Y-22806260D02*
X18576761Y-22825308D01*
X18576761Y-22825308D02*
X18567237Y-22853879D01*
X18567237Y-22853879D02*
X18452951Y-22968165D01*
X18452951Y-22968165D02*
X18576761Y-22968165D01*
X18805332Y-22958641D02*
X18824380Y-22968165D01*
X18824380Y-22968165D02*
X18862475Y-22968165D01*
X18862475Y-22968165D02*
X18881523Y-22958641D01*
X18881523Y-22958641D02*
X18891047Y-22939593D01*
X18891047Y-22939593D02*
X18891047Y-22930069D01*
X18891047Y-22930069D02*
X18881523Y-22911022D01*
X18881523Y-22911022D02*
X18862475Y-22901498D01*
X18862475Y-22901498D02*
X18833904Y-22901498D01*
X18833904Y-22901498D02*
X18814856Y-22891974D01*
X18814856Y-22891974D02*
X18805332Y-22872927D01*
X18805332Y-22872927D02*
X18805332Y-22863403D01*
X18805332Y-22863403D02*
X18814856Y-22844355D01*
X18814856Y-22844355D02*
X18833904Y-22834831D01*
X18833904Y-22834831D02*
X18862475Y-22834831D01*
X18862475Y-22834831D02*
X18881523Y-22844355D01*
X19005332Y-22968165D02*
X18986285Y-22958641D01*
X18986285Y-22958641D02*
X18976761Y-22939593D01*
X18976761Y-22939593D02*
X18976761Y-22768165D01*
X19110094Y-22968165D02*
X19091047Y-22958641D01*
X19091047Y-22958641D02*
X19081523Y-22949117D01*
X19081523Y-22949117D02*
X19071999Y-22930069D01*
X19071999Y-22930069D02*
X19071999Y-22872927D01*
X19071999Y-22872927D02*
X19081523Y-22853879D01*
X19081523Y-22853879D02*
X19091047Y-22844355D01*
X19091047Y-22844355D02*
X19110094Y-22834831D01*
X19110094Y-22834831D02*
X19138666Y-22834831D01*
X19138666Y-22834831D02*
X19157713Y-22844355D01*
X19157713Y-22844355D02*
X19167237Y-22853879D01*
X19167237Y-22853879D02*
X19176761Y-22872927D01*
X19176761Y-22872927D02*
X19176761Y-22930069D01*
X19176761Y-22930069D02*
X19167237Y-22949117D01*
X19167237Y-22949117D02*
X19157713Y-22958641D01*
X19157713Y-22958641D02*
X19138666Y-22968165D01*
X19138666Y-22968165D02*
X19110094Y-22968165D01*
X19233904Y-22834831D02*
X19310094Y-22834831D01*
X19262475Y-22768165D02*
X19262475Y-22939593D01*
X19262475Y-22939593D02*
X19271999Y-22958641D01*
X19271999Y-22958641D02*
X19291047Y-22968165D01*
X19291047Y-22968165D02*
X19310094Y-22968165D01*
X19367237Y-22958641D02*
X19386285Y-22968165D01*
X19386285Y-22968165D02*
X19424380Y-22968165D01*
X19424380Y-22968165D02*
X19443428Y-22958641D01*
X19443428Y-22958641D02*
X19452951Y-22939593D01*
X19452951Y-22939593D02*
X19452951Y-22930069D01*
X19452951Y-22930069D02*
X19443428Y-22911022D01*
X19443428Y-22911022D02*
X19424380Y-22901498D01*
X19424380Y-22901498D02*
X19395808Y-22901498D01*
X19395808Y-22901498D02*
X19376761Y-22891974D01*
X19376761Y-22891974D02*
X19367237Y-22872927D01*
X19367237Y-22872927D02*
X19367237Y-22863403D01*
X19367237Y-22863403D02*
X19376761Y-22844355D01*
X19376761Y-22844355D02*
X19395808Y-22834831D01*
X19395808Y-22834831D02*
X19424380Y-22834831D01*
X19424380Y-22834831D02*
X19443428Y-22844355D01*
X19519618Y-23044355D02*
X19529142Y-23034831D01*
X19529142Y-23034831D02*
X19548189Y-23006260D01*
X19548189Y-23006260D02*
X19557713Y-22987212D01*
X19557713Y-22987212D02*
X19567237Y-22958641D01*
X19567237Y-22958641D02*
X19576761Y-22911022D01*
X19576761Y-22911022D02*
X19576761Y-22872927D01*
X19576761Y-22872927D02*
X19567237Y-22825308D01*
X19567237Y-22825308D02*
X19557713Y-22796736D01*
X19557713Y-22796736D02*
X19548189Y-22777689D01*
X19548189Y-22777689D02*
X19529142Y-22749117D01*
X19529142Y-22749117D02*
X19519618Y-22739593D01*
X12925507Y-23046681D02*
X13125507Y-23246681D01*
X13125507Y-23046681D02*
X12925507Y-23246681D01*
X13025507Y-23046681D02*
X13025507Y-23246681D01*
X12925507Y-23146681D02*
X13125507Y-23146681D01*
X13367236Y-23038165D02*
X13491046Y-23038165D01*
X13491046Y-23038165D02*
X13424379Y-23114355D01*
X13424379Y-23114355D02*
X13452951Y-23114355D01*
X13452951Y-23114355D02*
X13471998Y-23123879D01*
X13471998Y-23123879D02*
X13481522Y-23133403D01*
X13481522Y-23133403D02*
X13491046Y-23152450D01*
X13491046Y-23152450D02*
X13491046Y-23200069D01*
X13491046Y-23200069D02*
X13481522Y-23219117D01*
X13481522Y-23219117D02*
X13471998Y-23228641D01*
X13471998Y-23228641D02*
X13452951Y-23238165D01*
X13452951Y-23238165D02*
X13395808Y-23238165D01*
X13395808Y-23238165D02*
X13376760Y-23228641D01*
X13376760Y-23228641D02*
X13367236Y-23219117D01*
X13576760Y-23219117D02*
X13586284Y-23228641D01*
X13586284Y-23228641D02*
X13576760Y-23238165D01*
X13576760Y-23238165D02*
X13567236Y-23228641D01*
X13567236Y-23228641D02*
X13576760Y-23219117D01*
X13576760Y-23219117D02*
X13576760Y-23238165D01*
X13662474Y-23057212D02*
X13671998Y-23047689D01*
X13671998Y-23047689D02*
X13691046Y-23038165D01*
X13691046Y-23038165D02*
X13738665Y-23038165D01*
X13738665Y-23038165D02*
X13757713Y-23047689D01*
X13757713Y-23047689D02*
X13767236Y-23057212D01*
X13767236Y-23057212D02*
X13776760Y-23076260D01*
X13776760Y-23076260D02*
X13776760Y-23095308D01*
X13776760Y-23095308D02*
X13767236Y-23123879D01*
X13767236Y-23123879D02*
X13652951Y-23238165D01*
X13652951Y-23238165D02*
X13776760Y-23238165D01*
X13900570Y-23038165D02*
X13919617Y-23038165D01*
X13919617Y-23038165D02*
X13938665Y-23047689D01*
X13938665Y-23047689D02*
X13948189Y-23057212D01*
X13948189Y-23057212D02*
X13957713Y-23076260D01*
X13957713Y-23076260D02*
X13967236Y-23114355D01*
X13967236Y-23114355D02*
X13967236Y-23161974D01*
X13967236Y-23161974D02*
X13957713Y-23200069D01*
X13957713Y-23200069D02*
X13948189Y-23219117D01*
X13948189Y-23219117D02*
X13938665Y-23228641D01*
X13938665Y-23228641D02*
X13919617Y-23238165D01*
X13919617Y-23238165D02*
X13900570Y-23238165D01*
X13900570Y-23238165D02*
X13881522Y-23228641D01*
X13881522Y-23228641D02*
X13871998Y-23219117D01*
X13871998Y-23219117D02*
X13862474Y-23200069D01*
X13862474Y-23200069D02*
X13852951Y-23161974D01*
X13852951Y-23161974D02*
X13852951Y-23114355D01*
X13852951Y-23114355D02*
X13862474Y-23076260D01*
X13862474Y-23076260D02*
X13871998Y-23057212D01*
X13871998Y-23057212D02*
X13881522Y-23047689D01*
X13881522Y-23047689D02*
X13900570Y-23038165D01*
X14091046Y-23038165D02*
X14110094Y-23038165D01*
X14110094Y-23038165D02*
X14129141Y-23047689D01*
X14129141Y-23047689D02*
X14138665Y-23057212D01*
X14138665Y-23057212D02*
X14148189Y-23076260D01*
X14148189Y-23076260D02*
X14157713Y-23114355D01*
X14157713Y-23114355D02*
X14157713Y-23161974D01*
X14157713Y-23161974D02*
X14148189Y-23200069D01*
X14148189Y-23200069D02*
X14138665Y-23219117D01*
X14138665Y-23219117D02*
X14129141Y-23228641D01*
X14129141Y-23228641D02*
X14110094Y-23238165D01*
X14110094Y-23238165D02*
X14091046Y-23238165D01*
X14091046Y-23238165D02*
X14071998Y-23228641D01*
X14071998Y-23228641D02*
X14062474Y-23219117D01*
X14062474Y-23219117D02*
X14052951Y-23200069D01*
X14052951Y-23200069D02*
X14043427Y-23161974D01*
X14043427Y-23161974D02*
X14043427Y-23114355D01*
X14043427Y-23114355D02*
X14052951Y-23076260D01*
X14052951Y-23076260D02*
X14062474Y-23057212D01*
X14062474Y-23057212D02*
X14071998Y-23047689D01*
X14071998Y-23047689D02*
X14091046Y-23038165D01*
X14243427Y-23238165D02*
X14243427Y-23104831D01*
X14243427Y-23123879D02*
X14252951Y-23114355D01*
X14252951Y-23114355D02*
X14271998Y-23104831D01*
X14271998Y-23104831D02*
X14300570Y-23104831D01*
X14300570Y-23104831D02*
X14319617Y-23114355D01*
X14319617Y-23114355D02*
X14329141Y-23133403D01*
X14329141Y-23133403D02*
X14329141Y-23238165D01*
X14329141Y-23133403D02*
X14338665Y-23114355D01*
X14338665Y-23114355D02*
X14357713Y-23104831D01*
X14357713Y-23104831D02*
X14386284Y-23104831D01*
X14386284Y-23104831D02*
X14405332Y-23114355D01*
X14405332Y-23114355D02*
X14414855Y-23133403D01*
X14414855Y-23133403D02*
X14414855Y-23238165D01*
X14510094Y-23238165D02*
X14510094Y-23104831D01*
X14510094Y-23123879D02*
X14519617Y-23114355D01*
X14519617Y-23114355D02*
X14538665Y-23104831D01*
X14538665Y-23104831D02*
X14567236Y-23104831D01*
X14567236Y-23104831D02*
X14586284Y-23114355D01*
X14586284Y-23114355D02*
X14595808Y-23133403D01*
X14595808Y-23133403D02*
X14595808Y-23238165D01*
X14595808Y-23133403D02*
X14605332Y-23114355D01*
X14605332Y-23114355D02*
X14624379Y-23104831D01*
X14624379Y-23104831D02*
X14652951Y-23104831D01*
X14652951Y-23104831D02*
X14671998Y-23114355D01*
X14671998Y-23114355D02*
X14681522Y-23133403D01*
X14681522Y-23133403D02*
X14681522Y-23238165D01*
X15071998Y-23028641D02*
X14900570Y-23285784D01*
X15329141Y-23038165D02*
X15348189Y-23038165D01*
X15348189Y-23038165D02*
X15367237Y-23047689D01*
X15367237Y-23047689D02*
X15376760Y-23057212D01*
X15376760Y-23057212D02*
X15386284Y-23076260D01*
X15386284Y-23076260D02*
X15395808Y-23114355D01*
X15395808Y-23114355D02*
X15395808Y-23161974D01*
X15395808Y-23161974D02*
X15386284Y-23200069D01*
X15386284Y-23200069D02*
X15376760Y-23219117D01*
X15376760Y-23219117D02*
X15367237Y-23228641D01*
X15367237Y-23228641D02*
X15348189Y-23238165D01*
X15348189Y-23238165D02*
X15329141Y-23238165D01*
X15329141Y-23238165D02*
X15310094Y-23228641D01*
X15310094Y-23228641D02*
X15300570Y-23219117D01*
X15300570Y-23219117D02*
X15291046Y-23200069D01*
X15291046Y-23200069D02*
X15281522Y-23161974D01*
X15281522Y-23161974D02*
X15281522Y-23114355D01*
X15281522Y-23114355D02*
X15291046Y-23076260D01*
X15291046Y-23076260D02*
X15300570Y-23057212D01*
X15300570Y-23057212D02*
X15310094Y-23047689D01*
X15310094Y-23047689D02*
X15329141Y-23038165D01*
X15481522Y-23219117D02*
X15491046Y-23228641D01*
X15491046Y-23228641D02*
X15481522Y-23238165D01*
X15481522Y-23238165D02*
X15471998Y-23228641D01*
X15471998Y-23228641D02*
X15481522Y-23219117D01*
X15481522Y-23219117D02*
X15481522Y-23238165D01*
X15681522Y-23238165D02*
X15567237Y-23238165D01*
X15624379Y-23238165D02*
X15624379Y-23038165D01*
X15624379Y-23038165D02*
X15605332Y-23066736D01*
X15605332Y-23066736D02*
X15586284Y-23085784D01*
X15586284Y-23085784D02*
X15567237Y-23095308D01*
X15757713Y-23057212D02*
X15767237Y-23047689D01*
X15767237Y-23047689D02*
X15786284Y-23038165D01*
X15786284Y-23038165D02*
X15833903Y-23038165D01*
X15833903Y-23038165D02*
X15852951Y-23047689D01*
X15852951Y-23047689D02*
X15862475Y-23057212D01*
X15862475Y-23057212D02*
X15871998Y-23076260D01*
X15871998Y-23076260D02*
X15871998Y-23095308D01*
X15871998Y-23095308D02*
X15862475Y-23123879D01*
X15862475Y-23123879D02*
X15748189Y-23238165D01*
X15748189Y-23238165D02*
X15871998Y-23238165D01*
X16043427Y-23038165D02*
X16005332Y-23038165D01*
X16005332Y-23038165D02*
X15986284Y-23047689D01*
X15986284Y-23047689D02*
X15976760Y-23057212D01*
X15976760Y-23057212D02*
X15957713Y-23085784D01*
X15957713Y-23085784D02*
X15948189Y-23123879D01*
X15948189Y-23123879D02*
X15948189Y-23200069D01*
X15948189Y-23200069D02*
X15957713Y-23219117D01*
X15957713Y-23219117D02*
X15967237Y-23228641D01*
X15967237Y-23228641D02*
X15986284Y-23238165D01*
X15986284Y-23238165D02*
X16024379Y-23238165D01*
X16024379Y-23238165D02*
X16043427Y-23228641D01*
X16043427Y-23228641D02*
X16052951Y-23219117D01*
X16052951Y-23219117D02*
X16062475Y-23200069D01*
X16062475Y-23200069D02*
X16062475Y-23152450D01*
X16062475Y-23152450D02*
X16052951Y-23133403D01*
X16052951Y-23133403D02*
X16043427Y-23123879D01*
X16043427Y-23123879D02*
X16024379Y-23114355D01*
X16024379Y-23114355D02*
X15986284Y-23114355D01*
X15986284Y-23114355D02*
X15967237Y-23123879D01*
X15967237Y-23123879D02*
X15957713Y-23133403D01*
X15957713Y-23133403D02*
X15948189Y-23152450D01*
X16186284Y-23038165D02*
X16205332Y-23038165D01*
X16205332Y-23038165D02*
X16224379Y-23047689D01*
X16224379Y-23047689D02*
X16233903Y-23057212D01*
X16233903Y-23057212D02*
X16243427Y-23076260D01*
X16243427Y-23076260D02*
X16252951Y-23114355D01*
X16252951Y-23114355D02*
X16252951Y-23161974D01*
X16252951Y-23161974D02*
X16243427Y-23200069D01*
X16243427Y-23200069D02*
X16233903Y-23219117D01*
X16233903Y-23219117D02*
X16224379Y-23228641D01*
X16224379Y-23228641D02*
X16205332Y-23238165D01*
X16205332Y-23238165D02*
X16186284Y-23238165D01*
X16186284Y-23238165D02*
X16167237Y-23228641D01*
X16167237Y-23228641D02*
X16157713Y-23219117D01*
X16157713Y-23219117D02*
X16148189Y-23200069D01*
X16148189Y-23200069D02*
X16138665Y-23161974D01*
X16138665Y-23161974D02*
X16138665Y-23114355D01*
X16138665Y-23114355D02*
X16148189Y-23076260D01*
X16148189Y-23076260D02*
X16157713Y-23057212D01*
X16157713Y-23057212D02*
X16167237Y-23047689D01*
X16167237Y-23047689D02*
X16186284Y-23038165D01*
X16329141Y-23038165D02*
X16329141Y-23076260D01*
X16405332Y-23038165D02*
X16405332Y-23076260D01*
X16700570Y-23314355D02*
X16691046Y-23304831D01*
X16691046Y-23304831D02*
X16671999Y-23276260D01*
X16671999Y-23276260D02*
X16662475Y-23257212D01*
X16662475Y-23257212D02*
X16652951Y-23228641D01*
X16652951Y-23228641D02*
X16643427Y-23181022D01*
X16643427Y-23181022D02*
X16643427Y-23142927D01*
X16643427Y-23142927D02*
X16652951Y-23095308D01*
X16652951Y-23095308D02*
X16662475Y-23066736D01*
X16662475Y-23066736D02*
X16671999Y-23047689D01*
X16671999Y-23047689D02*
X16691046Y-23019117D01*
X16691046Y-23019117D02*
X16700570Y-23009593D01*
X16871999Y-23038165D02*
X16776760Y-23038165D01*
X16776760Y-23038165D02*
X16767237Y-23133403D01*
X16767237Y-23133403D02*
X16776760Y-23123879D01*
X16776760Y-23123879D02*
X16795808Y-23114355D01*
X16795808Y-23114355D02*
X16843427Y-23114355D01*
X16843427Y-23114355D02*
X16862475Y-23123879D01*
X16862475Y-23123879D02*
X16871999Y-23133403D01*
X16871999Y-23133403D02*
X16881522Y-23152450D01*
X16881522Y-23152450D02*
X16881522Y-23200069D01*
X16881522Y-23200069D02*
X16871999Y-23219117D01*
X16871999Y-23219117D02*
X16862475Y-23228641D01*
X16862475Y-23228641D02*
X16843427Y-23238165D01*
X16843427Y-23238165D02*
X16795808Y-23238165D01*
X16795808Y-23238165D02*
X16776760Y-23228641D01*
X16776760Y-23228641D02*
X16767237Y-23219117D01*
X17119618Y-23238165D02*
X17119618Y-23038165D01*
X17205332Y-23238165D02*
X17205332Y-23133403D01*
X17205332Y-23133403D02*
X17195808Y-23114355D01*
X17195808Y-23114355D02*
X17176761Y-23104831D01*
X17176761Y-23104831D02*
X17148189Y-23104831D01*
X17148189Y-23104831D02*
X17129142Y-23114355D01*
X17129142Y-23114355D02*
X17119618Y-23123879D01*
X17329142Y-23238165D02*
X17310094Y-23228641D01*
X17310094Y-23228641D02*
X17300570Y-23219117D01*
X17300570Y-23219117D02*
X17291046Y-23200069D01*
X17291046Y-23200069D02*
X17291046Y-23142927D01*
X17291046Y-23142927D02*
X17300570Y-23123879D01*
X17300570Y-23123879D02*
X17310094Y-23114355D01*
X17310094Y-23114355D02*
X17329142Y-23104831D01*
X17329142Y-23104831D02*
X17357713Y-23104831D01*
X17357713Y-23104831D02*
X17376761Y-23114355D01*
X17376761Y-23114355D02*
X17386284Y-23123879D01*
X17386284Y-23123879D02*
X17395808Y-23142927D01*
X17395808Y-23142927D02*
X17395808Y-23200069D01*
X17395808Y-23200069D02*
X17386284Y-23219117D01*
X17386284Y-23219117D02*
X17376761Y-23228641D01*
X17376761Y-23228641D02*
X17357713Y-23238165D01*
X17357713Y-23238165D02*
X17329142Y-23238165D01*
X17510094Y-23238165D02*
X17491046Y-23228641D01*
X17491046Y-23228641D02*
X17481523Y-23209593D01*
X17481523Y-23209593D02*
X17481523Y-23038165D01*
X17662475Y-23228641D02*
X17643427Y-23238165D01*
X17643427Y-23238165D02*
X17605332Y-23238165D01*
X17605332Y-23238165D02*
X17586284Y-23228641D01*
X17586284Y-23228641D02*
X17576761Y-23209593D01*
X17576761Y-23209593D02*
X17576761Y-23133403D01*
X17576761Y-23133403D02*
X17586284Y-23114355D01*
X17586284Y-23114355D02*
X17605332Y-23104831D01*
X17605332Y-23104831D02*
X17643427Y-23104831D01*
X17643427Y-23104831D02*
X17662475Y-23114355D01*
X17662475Y-23114355D02*
X17671999Y-23133403D01*
X17671999Y-23133403D02*
X17671999Y-23152450D01*
X17671999Y-23152450D02*
X17576761Y-23171498D01*
X17748189Y-23228641D02*
X17767237Y-23238165D01*
X17767237Y-23238165D02*
X17805332Y-23238165D01*
X17805332Y-23238165D02*
X17824380Y-23228641D01*
X17824380Y-23228641D02*
X17833904Y-23209593D01*
X17833904Y-23209593D02*
X17833904Y-23200069D01*
X17833904Y-23200069D02*
X17824380Y-23181022D01*
X17824380Y-23181022D02*
X17805332Y-23171498D01*
X17805332Y-23171498D02*
X17776761Y-23171498D01*
X17776761Y-23171498D02*
X17757713Y-23161974D01*
X17757713Y-23161974D02*
X17748189Y-23142927D01*
X17748189Y-23142927D02*
X17748189Y-23133403D01*
X17748189Y-23133403D02*
X17757713Y-23114355D01*
X17757713Y-23114355D02*
X17776761Y-23104831D01*
X17776761Y-23104831D02*
X17805332Y-23104831D01*
X17805332Y-23104831D02*
X17824380Y-23114355D01*
X17900570Y-23314355D02*
X17910094Y-23304831D01*
X17910094Y-23304831D02*
X17929142Y-23276260D01*
X17929142Y-23276260D02*
X17938665Y-23257212D01*
X17938665Y-23257212D02*
X17948189Y-23228641D01*
X17948189Y-23228641D02*
X17957713Y-23181022D01*
X17957713Y-23181022D02*
X17957713Y-23142927D01*
X17957713Y-23142927D02*
X17948189Y-23095308D01*
X17948189Y-23095308D02*
X17938665Y-23066736D01*
X17938665Y-23066736D02*
X17929142Y-23047689D01*
X17929142Y-23047689D02*
X17910094Y-23019117D01*
X17910094Y-23019117D02*
X17900570Y-23009593D01*
M02*
