M48
; DRILL file {KiCad 9.0.0} date 2025-04-09T21:05:46+0200
; FORMAT={-:-/ absolute / metric / decimal}
; #@! TF.CreationDate,2025-04-09T21:05:46+02:00
; #@! TF.GenerationSoftware,Kicad,Pcbnew,9.0.0
; #@! TF.FileFunction,NonPlated,1,2,NPTH
FMAT,2
METRIC
; #@! TA.AperFunction,NonPlated,NPTH,ComponentDrill
T1C0.900
; #@! TA.AperFunction,NonPlated,NPTH,ComponentDrill
T2C1.900
; #@! TA.AperFunction,NonPlated,NPTH,ComponentDrill
T3C3.000
; #@! TA.AperFunction,NonPlated,NPTH,ComponentDrill
T4C4.100
%
G90
G05
T1
X171.58Y-78.216
X174.58Y-78.216
T2
X143.198Y-196.218
X150.255Y-188.909
X157.0Y-141.991
X162.154Y-181.126
X167.16Y-141.991
X171.506Y-177.156
X176.0Y-113.991
X176.0Y-132.991
X176.0Y-94.991
X176.0Y-151.991
X185.5Y-174.641
X186.16Y-113.991
X186.16Y-132.991
X186.16Y-94.991
X186.16Y-151.991
X195.0Y-148.991
X195.0Y-91.991
X195.0Y-110.991
X195.0Y-129.991
X195.66Y-174.641
X205.16Y-148.991
X205.16Y-91.991
X205.16Y-110.991
X205.16Y-129.991
X214.0Y-88.991
X214.0Y-107.991
X214.0Y-126.991
X214.0Y-145.991
X224.16Y-88.991
X224.16Y-107.991
X224.16Y-126.991
X224.16Y-145.991
X233.0Y-129.991
X233.0Y-91.991
X233.0Y-148.991
X233.0Y-110.991
X243.16Y-129.991
X243.16Y-91.991
X243.16Y-148.991
X243.16Y-110.991
X252.616Y-155.761
X253.61Y-136.787
X254.604Y-117.813
X255.599Y-98.839
X262.762Y-156.293
X263.756Y-137.319
X264.751Y-118.345
X265.745Y-99.371
X272.164Y-160.565
X274.15Y-141.669
X276.136Y-122.773
X282.268Y-161.627
X284.254Y-142.731
X286.24Y-123.835
T3
X142.253Y-193.54
X144.837Y-187.207
X158.27Y-139.451
X162.331Y-178.292
X164.62Y-136.911
X167.183Y-173.473
X177.27Y-111.451
X177.27Y-130.451
X177.27Y-92.451
X177.27Y-149.451
X183.62Y-108.911
X183.62Y-127.911
X183.62Y-89.911
X183.62Y-146.911
X186.77Y-172.101
X193.12Y-169.561
X196.27Y-146.451
X196.27Y-89.451
X196.27Y-108.451
X196.27Y-127.451
X202.62Y-143.911
X202.62Y-86.911
X202.62Y-105.911
X202.62Y-124.911
X215.27Y-86.451
X215.27Y-105.451
X215.27Y-124.451
X215.27Y-143.451
X221.62Y-83.911
X221.62Y-102.911
X221.62Y-121.911
X221.62Y-140.911
X234.27Y-127.451
X234.27Y-89.451
X234.27Y-146.451
X234.27Y-108.451
X240.62Y-124.911
X240.62Y-86.911
X240.62Y-143.911
X240.62Y-105.911
X254.017Y-153.291
X255.011Y-134.317
X256.006Y-115.343
X257.0Y-96.369
X260.491Y-151.087
X261.485Y-132.113
X262.48Y-113.139
X263.474Y-94.165
X273.692Y-158.172
X275.678Y-139.276
X277.664Y-120.38
X280.273Y-156.309
X282.259Y-137.413
X284.245Y-118.518
T4
X146.726Y-192.563
X162.08Y-141.991
X166.83Y-179.141
X181.08Y-113.991
X181.08Y-132.991
X181.08Y-94.991
X181.08Y-151.991
X190.58Y-174.641
X200.08Y-148.991
X200.08Y-91.991
X200.08Y-110.991
X200.08Y-129.991
X219.08Y-88.991
X219.08Y-107.991
X219.08Y-126.991
X219.08Y-145.991
X238.08Y-129.991
X238.08Y-91.991
X238.08Y-148.991
X238.08Y-110.991
X257.689Y-156.027
X258.683Y-137.053
X259.677Y-118.079
X260.672Y-99.105
X277.216Y-161.096
X279.202Y-142.2
X281.188Y-123.304
M30
