%TF.GenerationSoftware,KiCad,Pcbnew,9.0.0*%
%TF.CreationDate,2025-04-09T21:05:37+02:00*%
%TF.ProjectId,right,72696768-742e-46b6-9963-61645f706362,1*%
%TF.SameCoordinates,Original*%
%TF.FileFunction,Soldermask,Top*%
%TF.FilePolarity,Negative*%
%FSLAX46Y46*%
G04 Gerber Fmt 4.6, Leading zero omitted, Abs format (unit mm)*
G04 Created by KiCad (PCBNEW 9.0.0) date 2025-04-09 21:05:37*
%MOMM*%
%LPD*%
G01*
G04 APERTURE LIST*
G04 Aperture macros list*
%AMRoundRect*
0 Rectangle with rounded corners*
0 $1 Rounding radius*
0 $2 $3 $4 $5 $6 $7 $8 $9 X,Y pos of 4 corners*
0 Add a 4 corners polygon primitive as box body*
4,1,4,$2,$3,$4,$5,$6,$7,$8,$9,$2,$3,0*
0 Add four circle primitives for the rounded corners*
1,1,$1+$1,$2,$3*
1,1,$1+$1,$4,$5*
1,1,$1+$1,$6,$7*
1,1,$1+$1,$8,$9*
0 Add four rect primitives between the rounded corners*
20,1,$1+$1,$2,$3,$4,$5,0*
20,1,$1+$1,$4,$5,$6,$7,0*
20,1,$1+$1,$6,$7,$8,$9,0*
20,1,$1+$1,$8,$9,$2,$3,0*%
%AMFreePoly0*
4,1,15,1.095355,1.135355,1.535355,0.695355,1.550000,0.660000,1.550000,-1.100000,1.535355,-1.135355,1.500000,-1.150000,-1.500000,-1.150000,-1.535355,-1.135355,-1.550000,-1.100000,-1.550000,0.660000,-1.535355,0.695355,-1.095355,1.135355,-1.060000,1.150000,1.060000,1.150000,1.095355,1.135355,1.095355,1.135355,$1*%
%AMFreePoly1*
4,1,15,1.535355,1.135355,1.550000,1.100000,1.550000,-0.660000,1.535355,-0.695355,1.095355,-1.135355,1.060000,-1.150000,-1.060000,-1.150000,-1.095355,-1.135355,-1.535355,-0.695355,-1.550000,-0.660000,-1.550000,1.100000,-1.535355,1.135355,-1.500000,1.150000,1.500000,1.150000,1.535355,1.135355,1.535355,1.135355,$1*%
G04 Aperture macros list end*
%ADD10C,7.300000*%
%ADD11C,1.800000*%
%ADD12RoundRect,0.050000X0.500000X0.400000X-0.500000X0.400000X-0.500000X-0.400000X0.500000X-0.400000X0*%
%ADD13C,1.000000*%
%ADD14RoundRect,0.050000X0.350000X0.750000X-0.350000X0.750000X-0.350000X-0.750000X0.350000X-0.750000X0*%
%ADD15RoundRect,0.050000X0.775000X0.500000X-0.775000X0.500000X-0.775000X-0.500000X0.775000X-0.500000X0*%
%ADD16FreePoly0,90.000000*%
%ADD17FreePoly1,90.000000*%
%ADD18O,1.700000X1.200000*%
%ADD19O,1.800000X1.800000*%
%ADD20C,2.000000*%
%ADD21C,3.100000*%
%ADD22C,4.200000*%
%ADD23RoundRect,0.050000X-0.934308X-0.841255X0.841255X-0.934308X0.934308X0.841255X-0.841255X0.934308X0*%
%ADD24C,2.005000*%
%ADD25RoundRect,0.050000X-0.889000X-0.889000X0.889000X-0.889000X0.889000X0.889000X-0.889000X0.889000X0*%
%ADD26RoundRect,0.050000X0.021942X-1.257044X1.257044X0.021942X-0.021942X1.257044X-1.257044X-0.021942X0*%
%ADD27RoundRect,0.050000X-0.470969X-1.165689X1.165689X-0.470969X0.470969X1.165689X-1.165689X0.470969X0*%
%ADD28RoundRect,0.260000X-0.665000X0.390000X-0.665000X-0.390000X0.665000X-0.390000X0.665000X0.390000X0*%
%ADD29O,1.850000X1.300000*%
%ADD30RoundRect,0.050000X-0.977056X-0.791204X0.791204X-0.977056X0.977056X0.791204X-0.791204X0.977056X0*%
G04 APERTURE END LIST*
D10*
%TO.C,H2*%
X247580075Y-139491273D03*
%TD*%
D11*
%TO.C,MCU1*%
X164950083Y-80841280D03*
X164950083Y-83381280D03*
X164950083Y-85921280D03*
X164950082Y-88461280D03*
X164950083Y-91001280D03*
X164950083Y-93541280D03*
X164950083Y-96081280D03*
X164950083Y-98621280D03*
X164950083Y-101161280D03*
X164950083Y-103701280D03*
X164950083Y-106241280D03*
X164950081Y-108781279D03*
X149710083Y-108781279D03*
X149710083Y-106241280D03*
X149710083Y-103701280D03*
X149710083Y-101161280D03*
X149710084Y-98621280D03*
X149710083Y-96081280D03*
X149710083Y-93541280D03*
X149710083Y-91001280D03*
X149710083Y-88461280D03*
X149710083Y-85921280D03*
X149710083Y-83381280D03*
X149710083Y-80841280D03*
%TD*%
D10*
%TO.C,H5*%
X136980077Y-179791272D03*
%TD*%
D12*
%TO.C,PWR1*%
X169430078Y-79326277D03*
X176730078Y-79326277D03*
D13*
X174580077Y-78216278D03*
X171580078Y-78216277D03*
D12*
X176730078Y-77116277D03*
X169430078Y-77116276D03*
D14*
X175330078Y-79976277D03*
X172330078Y-79976276D03*
X170830077Y-79976278D03*
%TD*%
D10*
%TO.C,H3*%
X190580076Y-100991274D03*
%TD*%
%TO.C,H4*%
X190580080Y-138991273D03*
%TD*%
%TO.C,H1*%
X247580079Y-101491278D03*
%TD*%
D15*
%TO.C,RST1*%
X188705069Y-77641271D03*
X188705069Y-79341271D03*
X183455069Y-77641271D03*
X183455069Y-79341271D03*
%TD*%
D16*
%TO.C,RE1*%
X150580078Y-164791276D03*
D17*
X139380078Y-164791276D03*
D18*
X142480078Y-157291276D03*
X144980078Y-157291276D03*
X147480078Y-157291276D03*
X147480078Y-171791276D03*
X142480079Y-171791275D03*
%TD*%
D19*
%TO.C,DISP1*%
X152250075Y-113391275D03*
X154790076Y-113391275D03*
X157330076Y-113391275D03*
X159870077Y-113391274D03*
D11*
X162410077Y-113391275D03*
%TD*%
D20*
%TO.C,S25*%
X185500077Y-174641275D03*
D21*
X186770076Y-172101275D03*
D22*
X190580077Y-174641275D03*
D21*
X193120077Y-169561275D03*
D20*
X195660077Y-174641275D03*
%TD*%
%TO.C,S23*%
X176000078Y-94991275D03*
D21*
X177270077Y-92451275D03*
D22*
X181080078Y-94991275D03*
D21*
X183620078Y-89911275D03*
D20*
X186160078Y-94991275D03*
%TD*%
%TO.C,S13*%
X214000076Y-126991274D03*
D21*
X215270075Y-124451274D03*
D22*
X219080076Y-126991274D03*
D21*
X221620076Y-121911274D03*
D20*
X224160076Y-126991274D03*
%TD*%
%TO.C,S9*%
X233000072Y-129991272D03*
D21*
X234270071Y-127451272D03*
D22*
X238080072Y-129991272D03*
D21*
X240620072Y-124911272D03*
D20*
X243160072Y-129991272D03*
%TD*%
D23*
%TO.C,D5*%
X254616647Y-141846938D03*
D24*
X262226205Y-142245738D03*
%TD*%
D25*
%TO.C,D20*%
X177270075Y-156991269D03*
D24*
X184890075Y-156991269D03*
%TD*%
D20*
%TO.C,S20*%
X176000086Y-151991272D03*
D21*
X177270085Y-149451272D03*
D22*
X181080086Y-151991272D03*
D21*
X183620086Y-146911272D03*
D20*
X186160086Y-151991272D03*
%TD*%
%TO.C,S24*%
X157000077Y-141991276D03*
D21*
X158270076Y-139451276D03*
D22*
X162080077Y-141991276D03*
D21*
X164620077Y-136911276D03*
D20*
X167160077Y-141991276D03*
%TD*%
D23*
%TO.C,D6*%
X255611029Y-122872980D03*
D24*
X263220587Y-123271780D03*
%TD*%
D20*
%TO.C,S27*%
X143197508Y-196217660D03*
D21*
X142252602Y-193539666D03*
D22*
X146726373Y-192563414D03*
D21*
X144836558Y-187207425D03*
D20*
X150255238Y-188909168D03*
%TD*%
D25*
%TO.C,D15*%
X215270083Y-93991274D03*
D24*
X222890083Y-93991274D03*
%TD*%
D20*
%TO.C,S3*%
X276135762Y-122773229D03*
D21*
X277664305Y-120379896D03*
D22*
X281187932Y-123304235D03*
D21*
X284245022Y-118517566D03*
D20*
X286240102Y-123835241D03*
%TD*%
D25*
%TO.C,D12*%
X215270078Y-150991271D03*
D24*
X222890078Y-150991271D03*
%TD*%
D25*
%TO.C,D10*%
X234270076Y-115991272D03*
D24*
X241890076Y-115991272D03*
%TD*%
D25*
%TO.C,D28*%
X141170077Y-174791276D03*
D24*
X148790077Y-174791276D03*
%TD*%
D26*
%TO.C,D27*%
X147676430Y-198777386D03*
D24*
X152969726Y-193296016D03*
%TD*%
D25*
%TO.C,D13*%
X215270079Y-131991276D03*
D24*
X222890079Y-131991276D03*
%TD*%
D27*
%TO.C,D26*%
X165276608Y-185232484D03*
D24*
X172290854Y-182255110D03*
%TD*%
D20*
%TO.C,S8*%
X233000079Y-148991278D03*
D21*
X234270078Y-146451278D03*
D22*
X238080079Y-148991278D03*
D21*
X240620079Y-143911278D03*
D20*
X243160079Y-148991278D03*
%TD*%
%TO.C,S12*%
X214000083Y-145991273D03*
D21*
X215270082Y-143451273D03*
D22*
X219080083Y-145991273D03*
D21*
X221620083Y-140911273D03*
D20*
X224160083Y-145991273D03*
%TD*%
D25*
%TO.C,D21*%
X177270074Y-137991274D03*
D24*
X184890074Y-137991274D03*
%TD*%
D20*
%TO.C,S2*%
X274149719Y-141669140D03*
D21*
X275678262Y-139275807D03*
D22*
X279201889Y-142200146D03*
D21*
X282258979Y-137413477D03*
D20*
X284254059Y-142731152D03*
%TD*%
%TO.C,S1*%
X272163679Y-160565057D03*
D21*
X273692222Y-158171724D03*
D22*
X277215849Y-161096063D03*
D21*
X280272939Y-156309394D03*
D20*
X282268019Y-161627069D03*
%TD*%
D28*
%TO.C,JST1*%
X169330077Y-130041276D03*
D29*
X169330077Y-128041276D03*
%TD*%
D23*
%TO.C,D7*%
X256605407Y-103899020D03*
D24*
X264214965Y-104297820D03*
%TD*%
D20*
%TO.C,S4*%
X252615679Y-155761284D03*
D21*
X254016871Y-153291232D03*
D22*
X257688717Y-156027151D03*
D21*
X260491103Y-151087046D03*
D20*
X262761755Y-156293018D03*
%TD*%
%TO.C,S17*%
X195000082Y-129991279D03*
D21*
X196270081Y-127451279D03*
D22*
X200080082Y-129991279D03*
D21*
X202620082Y-124911279D03*
D20*
X205160082Y-129991279D03*
%TD*%
D30*
%TO.C,D2*%
X274890117Y-146774502D03*
D24*
X282468371Y-147571006D03*
%TD*%
D20*
%TO.C,S22*%
X176000074Y-113991275D03*
D21*
X177270073Y-111451275D03*
D22*
X181080074Y-113991275D03*
D21*
X183620074Y-108911275D03*
D20*
X186160074Y-113991275D03*
%TD*%
D23*
%TO.C,D4*%
X253622263Y-160820897D03*
D24*
X261231821Y-161219697D03*
%TD*%
D25*
%TO.C,D22*%
X177270086Y-118991275D03*
D24*
X184890086Y-118991275D03*
%TD*%
D20*
%TO.C,S26*%
X162153916Y-181126190D03*
D21*
X162330500Y-178291879D03*
D22*
X166830081Y-179141276D03*
D21*
X167183249Y-173472654D03*
D20*
X171506246Y-177156362D03*
%TD*%
D25*
%TO.C,D8*%
X234270082Y-153991277D03*
D24*
X241890082Y-153991277D03*
%TD*%
D25*
%TO.C,D24*%
X158270081Y-146991271D03*
D24*
X165890081Y-146991271D03*
%TD*%
D20*
%TO.C,S19*%
X195000076Y-91991273D03*
D21*
X196270075Y-89451273D03*
D22*
X200080076Y-91991273D03*
D21*
X202620076Y-86911273D03*
D20*
X205160076Y-91991273D03*
%TD*%
%TO.C,S21*%
X176000077Y-132991277D03*
D21*
X177270076Y-130451277D03*
D22*
X181080077Y-132991277D03*
D21*
X183620077Y-127911277D03*
D20*
X186160077Y-132991277D03*
%TD*%
D30*
%TO.C,D3*%
X276876157Y-127878589D03*
D24*
X284454411Y-128675093D03*
%TD*%
D25*
%TO.C,D16*%
X196270076Y-153991276D03*
D24*
X203890076Y-153991276D03*
%TD*%
D20*
%TO.C,S10*%
X233000081Y-110991274D03*
D21*
X234270080Y-108451274D03*
D22*
X238080081Y-110991274D03*
D21*
X240620081Y-105911274D03*
D20*
X243160081Y-110991274D03*
%TD*%
D25*
%TO.C,D14*%
X215270080Y-112991271D03*
D24*
X222890080Y-112991271D03*
%TD*%
D25*
%TO.C,D17*%
X196270078Y-134991274D03*
D24*
X203890078Y-134991274D03*
%TD*%
D25*
%TO.C,D9*%
X234270075Y-134991272D03*
D24*
X241890075Y-134991272D03*
%TD*%
D20*
%TO.C,S14*%
X214000076Y-107991270D03*
D21*
X215270075Y-105451270D03*
D22*
X219080076Y-107991270D03*
D21*
X221620076Y-102911270D03*
D20*
X224160076Y-107991270D03*
%TD*%
D30*
%TO.C,D1*%
X272904074Y-165670417D03*
D24*
X280482328Y-166466921D03*
%TD*%
D25*
%TO.C,D11*%
X234270071Y-96991277D03*
D24*
X241890071Y-96991277D03*
%TD*%
D20*
%TO.C,S15*%
X214000073Y-88991271D03*
D21*
X215270072Y-86451271D03*
D22*
X219080073Y-88991271D03*
D21*
X221620073Y-83911271D03*
D20*
X224160073Y-88991271D03*
%TD*%
D25*
%TO.C,D18*%
X196270076Y-115991277D03*
D24*
X203890076Y-115991277D03*
%TD*%
D20*
%TO.C,S18*%
X195000080Y-110991274D03*
D21*
X196270079Y-108451274D03*
D22*
X200080080Y-110991274D03*
D21*
X202620080Y-105911274D03*
D20*
X205160080Y-110991274D03*
%TD*%
D25*
%TO.C,D23*%
X177270072Y-99991274D03*
D24*
X184890072Y-99991274D03*
%TD*%
D20*
%TO.C,S5*%
X253610066Y-136787327D03*
D21*
X255011258Y-134317275D03*
D22*
X258683104Y-137053194D03*
D21*
X261485490Y-132113089D03*
D20*
X263756142Y-137319061D03*
%TD*%
D25*
%TO.C,D25*%
X186770081Y-179641281D03*
D24*
X194390081Y-179641281D03*
%TD*%
D20*
%TO.C,S7*%
X255598828Y-98839406D03*
D21*
X257000020Y-96369354D03*
D22*
X260671866Y-99105273D03*
D21*
X263474252Y-94165168D03*
D20*
X265744904Y-99371140D03*
%TD*%
%TO.C,S11*%
X233000074Y-91991271D03*
D21*
X234270073Y-89451271D03*
D22*
X238080074Y-91991271D03*
D21*
X240620074Y-86911271D03*
D20*
X243160074Y-91991271D03*
%TD*%
%TO.C,S6*%
X254604447Y-117813364D03*
D21*
X256005639Y-115343312D03*
D22*
X259677485Y-118079231D03*
D21*
X262479871Y-113139126D03*
D20*
X264750523Y-118345098D03*
%TD*%
%TO.C,S16*%
X195000074Y-148991269D03*
D21*
X196270073Y-146451269D03*
D22*
X200080074Y-148991269D03*
D21*
X202620074Y-143911269D03*
D20*
X205160074Y-148991269D03*
%TD*%
D25*
%TO.C,D19*%
X196270076Y-96991278D03*
D24*
X203890076Y-96991278D03*
%TD*%
M02*
