%TF.GenerationSoftware,KiCad,Pcbnew,9.0.0*%
%TF.CreationDate,2025-04-09T21:05:37+02:00*%
%TF.ProjectId,right,72696768-742e-46b6-9963-61645f706362,1*%
%TF.SameCoordinates,Original*%
%TF.FileFunction,Legend,Bot*%
%TF.FilePolarity,Positive*%
%FSLAX46Y46*%
G04 Gerber Fmt 4.6, Leading zero omitted, Abs format (unit mm)*
G04 Created by KiCad (PCBNEW 9.0.0) date 2025-04-09 21:05:37*
%MOMM*%
%LPD*%
G01*
G04 APERTURE LIST*
%ADD10C,0.300000*%
%ADD11C,0.400000*%
%ADD12C,0.100000*%
%ADD13C,0.120000*%
G04 APERTURE END LIST*
D10*
X238540526Y-160268487D02*
X238957192Y-159673249D01*
X239254811Y-160268487D02*
X239254811Y-159018487D01*
X239254811Y-159018487D02*
X238778621Y-159018487D01*
X238778621Y-159018487D02*
X238659573Y-159078011D01*
X238659573Y-159078011D02*
X238600050Y-159137535D01*
X238600050Y-159137535D02*
X238540526Y-159256583D01*
X238540526Y-159256583D02*
X238540526Y-159435154D01*
X238540526Y-159435154D02*
X238600050Y-159554202D01*
X238600050Y-159554202D02*
X238659573Y-159613725D01*
X238659573Y-159613725D02*
X238778621Y-159673249D01*
X238778621Y-159673249D02*
X239254811Y-159673249D01*
X237528621Y-160208964D02*
X237647669Y-160268487D01*
X237647669Y-160268487D02*
X237885764Y-160268487D01*
X237885764Y-160268487D02*
X238004811Y-160208964D01*
X238004811Y-160208964D02*
X238064335Y-160089916D01*
X238064335Y-160089916D02*
X238064335Y-159613725D01*
X238064335Y-159613725D02*
X238004811Y-159494678D01*
X238004811Y-159494678D02*
X237885764Y-159435154D01*
X237885764Y-159435154D02*
X237647669Y-159435154D01*
X237647669Y-159435154D02*
X237528621Y-159494678D01*
X237528621Y-159494678D02*
X237469097Y-159613725D01*
X237469097Y-159613725D02*
X237469097Y-159732773D01*
X237469097Y-159732773D02*
X238064335Y-159851821D01*
X237052430Y-159435154D02*
X236754811Y-160268487D01*
X236754811Y-160268487D02*
X236457192Y-159435154D01*
X235326240Y-160268487D02*
X236040525Y-160268487D01*
X235683382Y-160268487D02*
X235683382Y-159018487D01*
X235683382Y-159018487D02*
X235802430Y-159197059D01*
X235802430Y-159197059D02*
X235921478Y-159316106D01*
X235921478Y-159316106D02*
X236040525Y-159375630D01*
X238719097Y-161447584D02*
X238719097Y-162459489D01*
X238719097Y-162459489D02*
X238778621Y-162578536D01*
X238778621Y-162578536D02*
X238838145Y-162638060D01*
X238838145Y-162638060D02*
X238957192Y-162697584D01*
X238957192Y-162697584D02*
X239135764Y-162697584D01*
X239135764Y-162697584D02*
X239254811Y-162638060D01*
X238719097Y-162221394D02*
X238838145Y-162280917D01*
X238838145Y-162280917D02*
X239076240Y-162280917D01*
X239076240Y-162280917D02*
X239195288Y-162221394D01*
X239195288Y-162221394D02*
X239254811Y-162161870D01*
X239254811Y-162161870D02*
X239314335Y-162042822D01*
X239314335Y-162042822D02*
X239314335Y-161685679D01*
X239314335Y-161685679D02*
X239254811Y-161566632D01*
X239254811Y-161566632D02*
X239195288Y-161507108D01*
X239195288Y-161507108D02*
X239076240Y-161447584D01*
X239076240Y-161447584D02*
X238838145Y-161447584D01*
X238838145Y-161447584D02*
X238719097Y-161507108D01*
X238123859Y-162280917D02*
X238123859Y-161447584D01*
X238123859Y-161030917D02*
X238183383Y-161090441D01*
X238183383Y-161090441D02*
X238123859Y-161149965D01*
X238123859Y-161149965D02*
X238064336Y-161090441D01*
X238064336Y-161090441D02*
X238123859Y-161030917D01*
X238123859Y-161030917D02*
X238123859Y-161149965D01*
X237707193Y-161447584D02*
X237231002Y-161447584D01*
X237528621Y-161030917D02*
X237528621Y-162102346D01*
X237528621Y-162102346D02*
X237469098Y-162221394D01*
X237469098Y-162221394D02*
X237350050Y-162280917D01*
X237350050Y-162280917D02*
X237231002Y-162280917D01*
X236814335Y-162280917D02*
X236814335Y-161030917D01*
X236278621Y-162280917D02*
X236278621Y-161626155D01*
X236278621Y-161626155D02*
X236338145Y-161507108D01*
X236338145Y-161507108D02*
X236457193Y-161447584D01*
X236457193Y-161447584D02*
X236635764Y-161447584D01*
X236635764Y-161447584D02*
X236754812Y-161507108D01*
X236754812Y-161507108D02*
X236814335Y-161566632D01*
X235147669Y-161447584D02*
X235147669Y-162280917D01*
X235683383Y-161447584D02*
X235683383Y-162102346D01*
X235683383Y-162102346D02*
X235623860Y-162221394D01*
X235623860Y-162221394D02*
X235504812Y-162280917D01*
X235504812Y-162280917D02*
X235326241Y-162280917D01*
X235326241Y-162280917D02*
X235207193Y-162221394D01*
X235207193Y-162221394D02*
X235147669Y-162161870D01*
X234552431Y-162280917D02*
X234552431Y-161030917D01*
X234552431Y-161507108D02*
X234433384Y-161447584D01*
X234433384Y-161447584D02*
X234195289Y-161447584D01*
X234195289Y-161447584D02*
X234076241Y-161507108D01*
X234076241Y-161507108D02*
X234016717Y-161566632D01*
X234016717Y-161566632D02*
X233957193Y-161685679D01*
X233957193Y-161685679D02*
X233957193Y-162042822D01*
X233957193Y-162042822D02*
X234016717Y-162161870D01*
X234016717Y-162161870D02*
X234076241Y-162221394D01*
X234076241Y-162221394D02*
X234195289Y-162280917D01*
X234195289Y-162280917D02*
X234433384Y-162280917D01*
X234433384Y-162280917D02*
X234552431Y-162221394D01*
X233421479Y-162161870D02*
X233361956Y-162221394D01*
X233361956Y-162221394D02*
X233421479Y-162280917D01*
X233421479Y-162280917D02*
X233481003Y-162221394D01*
X233481003Y-162221394D02*
X233421479Y-162161870D01*
X233421479Y-162161870D02*
X233421479Y-162280917D01*
X232290527Y-162221394D02*
X232409575Y-162280917D01*
X232409575Y-162280917D02*
X232647670Y-162280917D01*
X232647670Y-162280917D02*
X232766718Y-162221394D01*
X232766718Y-162221394D02*
X232826241Y-162161870D01*
X232826241Y-162161870D02*
X232885765Y-162042822D01*
X232885765Y-162042822D02*
X232885765Y-161685679D01*
X232885765Y-161685679D02*
X232826241Y-161566632D01*
X232826241Y-161566632D02*
X232766718Y-161507108D01*
X232766718Y-161507108D02*
X232647670Y-161447584D01*
X232647670Y-161447584D02*
X232409575Y-161447584D01*
X232409575Y-161447584D02*
X232290527Y-161507108D01*
X231576241Y-162280917D02*
X231695289Y-162221394D01*
X231695289Y-162221394D02*
X231754812Y-162161870D01*
X231754812Y-162161870D02*
X231814336Y-162042822D01*
X231814336Y-162042822D02*
X231814336Y-161685679D01*
X231814336Y-161685679D02*
X231754812Y-161566632D01*
X231754812Y-161566632D02*
X231695289Y-161507108D01*
X231695289Y-161507108D02*
X231576241Y-161447584D01*
X231576241Y-161447584D02*
X231397670Y-161447584D01*
X231397670Y-161447584D02*
X231278622Y-161507108D01*
X231278622Y-161507108D02*
X231219098Y-161566632D01*
X231219098Y-161566632D02*
X231159574Y-161685679D01*
X231159574Y-161685679D02*
X231159574Y-162042822D01*
X231159574Y-162042822D02*
X231219098Y-162161870D01*
X231219098Y-162161870D02*
X231278622Y-162221394D01*
X231278622Y-162221394D02*
X231397670Y-162280917D01*
X231397670Y-162280917D02*
X231576241Y-162280917D01*
X230623860Y-162280917D02*
X230623860Y-161447584D01*
X230623860Y-161566632D02*
X230564337Y-161507108D01*
X230564337Y-161507108D02*
X230445289Y-161447584D01*
X230445289Y-161447584D02*
X230266718Y-161447584D01*
X230266718Y-161447584D02*
X230147670Y-161507108D01*
X230147670Y-161507108D02*
X230088146Y-161626155D01*
X230088146Y-161626155D02*
X230088146Y-162280917D01*
X230088146Y-161626155D02*
X230028622Y-161507108D01*
X230028622Y-161507108D02*
X229909575Y-161447584D01*
X229909575Y-161447584D02*
X229731003Y-161447584D01*
X229731003Y-161447584D02*
X229611956Y-161507108D01*
X229611956Y-161507108D02*
X229552432Y-161626155D01*
X229552432Y-161626155D02*
X229552432Y-162280917D01*
X228064336Y-160971394D02*
X229135765Y-162578536D01*
X227647669Y-162280917D02*
X227647669Y-161447584D01*
X227647669Y-161566632D02*
X227588146Y-161507108D01*
X227588146Y-161507108D02*
X227469098Y-161447584D01*
X227469098Y-161447584D02*
X227290527Y-161447584D01*
X227290527Y-161447584D02*
X227171479Y-161507108D01*
X227171479Y-161507108D02*
X227111955Y-161626155D01*
X227111955Y-161626155D02*
X227111955Y-162280917D01*
X227111955Y-161626155D02*
X227052431Y-161507108D01*
X227052431Y-161507108D02*
X226933384Y-161447584D01*
X226933384Y-161447584D02*
X226754812Y-161447584D01*
X226754812Y-161447584D02*
X226635765Y-161507108D01*
X226635765Y-161507108D02*
X226576241Y-161626155D01*
X226576241Y-161626155D02*
X226576241Y-162280917D01*
X225981002Y-162280917D02*
X225981002Y-161447584D01*
X225981002Y-161685679D02*
X225921479Y-161566632D01*
X225921479Y-161566632D02*
X225861955Y-161507108D01*
X225861955Y-161507108D02*
X225742907Y-161447584D01*
X225742907Y-161447584D02*
X225623860Y-161447584D01*
X225028621Y-162280917D02*
X225147669Y-162221394D01*
X225147669Y-162221394D02*
X225207192Y-162161870D01*
X225207192Y-162161870D02*
X225266716Y-162042822D01*
X225266716Y-162042822D02*
X225266716Y-161685679D01*
X225266716Y-161685679D02*
X225207192Y-161566632D01*
X225207192Y-161566632D02*
X225147669Y-161507108D01*
X225147669Y-161507108D02*
X225028621Y-161447584D01*
X225028621Y-161447584D02*
X224850050Y-161447584D01*
X224850050Y-161447584D02*
X224731002Y-161507108D01*
X224731002Y-161507108D02*
X224671478Y-161566632D01*
X224671478Y-161566632D02*
X224611954Y-161685679D01*
X224611954Y-161685679D02*
X224611954Y-162042822D01*
X224611954Y-162042822D02*
X224671478Y-162161870D01*
X224671478Y-162161870D02*
X224731002Y-162221394D01*
X224731002Y-162221394D02*
X224850050Y-162280917D01*
X224850050Y-162280917D02*
X225028621Y-162280917D01*
X223600050Y-162221394D02*
X223719098Y-162280917D01*
X223719098Y-162280917D02*
X223957193Y-162280917D01*
X223957193Y-162280917D02*
X224076240Y-162221394D01*
X224076240Y-162221394D02*
X224135764Y-162102346D01*
X224135764Y-162102346D02*
X224135764Y-161626155D01*
X224135764Y-161626155D02*
X224076240Y-161507108D01*
X224076240Y-161507108D02*
X223957193Y-161447584D01*
X223957193Y-161447584D02*
X223719098Y-161447584D01*
X223719098Y-161447584D02*
X223600050Y-161507108D01*
X223600050Y-161507108D02*
X223540526Y-161626155D01*
X223540526Y-161626155D02*
X223540526Y-161745203D01*
X223540526Y-161745203D02*
X224135764Y-161864251D01*
X223183383Y-161447584D02*
X222707192Y-161447584D01*
X223004811Y-161030917D02*
X223004811Y-162102346D01*
X223004811Y-162102346D02*
X222945288Y-162221394D01*
X222945288Y-162221394D02*
X222826240Y-162280917D01*
X222826240Y-162280917D02*
X222707192Y-162280917D01*
X222350049Y-162221394D02*
X222231002Y-162280917D01*
X222231002Y-162280917D02*
X221992906Y-162280917D01*
X221992906Y-162280917D02*
X221873859Y-162221394D01*
X221873859Y-162221394D02*
X221814335Y-162102346D01*
X221814335Y-162102346D02*
X221814335Y-162042822D01*
X221814335Y-162042822D02*
X221873859Y-161923774D01*
X221873859Y-161923774D02*
X221992906Y-161864251D01*
X221992906Y-161864251D02*
X222171478Y-161864251D01*
X222171478Y-161864251D02*
X222290525Y-161804727D01*
X222290525Y-161804727D02*
X222350049Y-161685679D01*
X222350049Y-161685679D02*
X222350049Y-161626155D01*
X222350049Y-161626155D02*
X222290525Y-161507108D01*
X222290525Y-161507108D02*
X222171478Y-161447584D01*
X222171478Y-161447584D02*
X221992906Y-161447584D01*
X221992906Y-161447584D02*
X221873859Y-161507108D01*
X220742906Y-162221394D02*
X220861954Y-162280917D01*
X220861954Y-162280917D02*
X221100049Y-162280917D01*
X221100049Y-162280917D02*
X221219097Y-162221394D01*
X221219097Y-162221394D02*
X221278620Y-162161870D01*
X221278620Y-162161870D02*
X221338144Y-162042822D01*
X221338144Y-162042822D02*
X221338144Y-161685679D01*
X221338144Y-161685679D02*
X221278620Y-161566632D01*
X221278620Y-161566632D02*
X221219097Y-161507108D01*
X221219097Y-161507108D02*
X221100049Y-161447584D01*
X221100049Y-161447584D02*
X220861954Y-161447584D01*
X220861954Y-161447584D02*
X220742906Y-161507108D01*
X219314334Y-160971394D02*
X220385763Y-162578536D01*
X218897667Y-162280917D02*
X218897667Y-161030917D01*
X218778620Y-161804727D02*
X218421477Y-162280917D01*
X218421477Y-161447584D02*
X218897667Y-161923774D01*
X217885762Y-162280917D02*
X217885762Y-161447584D01*
X217885762Y-161685679D02*
X217826239Y-161566632D01*
X217826239Y-161566632D02*
X217766715Y-161507108D01*
X217766715Y-161507108D02*
X217647667Y-161447584D01*
X217647667Y-161447584D02*
X217528620Y-161447584D01*
X217231000Y-161447584D02*
X216933381Y-162280917D01*
X216635762Y-161447584D02*
X216933381Y-162280917D01*
X216933381Y-162280917D02*
X217052429Y-162578536D01*
X217052429Y-162578536D02*
X217111952Y-162638060D01*
X217111952Y-162638060D02*
X217231000Y-162697584D01*
X216159571Y-161447584D02*
X216159571Y-162697584D01*
X216159571Y-161507108D02*
X216040524Y-161447584D01*
X216040524Y-161447584D02*
X215802429Y-161447584D01*
X215802429Y-161447584D02*
X215683381Y-161507108D01*
X215683381Y-161507108D02*
X215623857Y-161566632D01*
X215623857Y-161566632D02*
X215564333Y-161685679D01*
X215564333Y-161685679D02*
X215564333Y-162042822D01*
X215564333Y-162042822D02*
X215623857Y-162161870D01*
X215623857Y-162161870D02*
X215683381Y-162221394D01*
X215683381Y-162221394D02*
X215802429Y-162280917D01*
X215802429Y-162280917D02*
X216040524Y-162280917D01*
X216040524Y-162280917D02*
X216159571Y-162221394D01*
X215207191Y-161447584D02*
X214731000Y-161447584D01*
X215028619Y-161030917D02*
X215028619Y-162102346D01*
X215028619Y-162102346D02*
X214969096Y-162221394D01*
X214969096Y-162221394D02*
X214850048Y-162280917D01*
X214850048Y-162280917D02*
X214731000Y-162280917D01*
X214135762Y-162280917D02*
X214254810Y-162221394D01*
X214254810Y-162221394D02*
X214314333Y-162161870D01*
X214314333Y-162161870D02*
X214373857Y-162042822D01*
X214373857Y-162042822D02*
X214373857Y-161685679D01*
X214373857Y-161685679D02*
X214314333Y-161566632D01*
X214314333Y-161566632D02*
X214254810Y-161507108D01*
X214254810Y-161507108D02*
X214135762Y-161447584D01*
X214135762Y-161447584D02*
X213957191Y-161447584D01*
X213957191Y-161447584D02*
X213838143Y-161507108D01*
X213838143Y-161507108D02*
X213778619Y-161566632D01*
X213778619Y-161566632D02*
X213719095Y-161685679D01*
X213719095Y-161685679D02*
X213719095Y-162042822D01*
X213719095Y-162042822D02*
X213778619Y-162161870D01*
X213778619Y-162161870D02*
X213838143Y-162221394D01*
X213838143Y-162221394D02*
X213957191Y-162280917D01*
X213957191Y-162280917D02*
X214135762Y-162280917D01*
X213183381Y-161447584D02*
X213183381Y-162280917D01*
X213183381Y-161566632D02*
X213123858Y-161507108D01*
X213123858Y-161507108D02*
X213004810Y-161447584D01*
X213004810Y-161447584D02*
X212826239Y-161447584D01*
X212826239Y-161447584D02*
X212707191Y-161507108D01*
X212707191Y-161507108D02*
X212647667Y-161626155D01*
X212647667Y-161626155D02*
X212647667Y-162280917D01*
X212052429Y-161804727D02*
X211100049Y-161804727D01*
X210504810Y-162280917D02*
X210504810Y-161030917D01*
X210385763Y-161804727D02*
X210028620Y-162280917D01*
X210028620Y-161447584D02*
X210504810Y-161923774D01*
X209492905Y-162280917D02*
X209492905Y-161030917D01*
X209492905Y-161507108D02*
X209373858Y-161447584D01*
X209373858Y-161447584D02*
X209135763Y-161447584D01*
X209135763Y-161447584D02*
X209016715Y-161507108D01*
X209016715Y-161507108D02*
X208957191Y-161566632D01*
X208957191Y-161566632D02*
X208897667Y-161685679D01*
X208897667Y-161685679D02*
X208897667Y-162042822D01*
X208897667Y-162042822D02*
X208957191Y-162161870D01*
X208957191Y-162161870D02*
X209016715Y-162221394D01*
X209016715Y-162221394D02*
X209135763Y-162280917D01*
X209135763Y-162280917D02*
X209373858Y-162280917D01*
X209373858Y-162280917D02*
X209492905Y-162221394D01*
X207826239Y-162280917D02*
X207826239Y-161030917D01*
X207826239Y-162221394D02*
X207945287Y-162280917D01*
X207945287Y-162280917D02*
X208183382Y-162280917D01*
X208183382Y-162280917D02*
X208302430Y-162221394D01*
X208302430Y-162221394D02*
X208361953Y-162161870D01*
X208361953Y-162161870D02*
X208421477Y-162042822D01*
X208421477Y-162042822D02*
X208421477Y-161685679D01*
X208421477Y-161685679D02*
X208361953Y-161566632D01*
X208361953Y-161566632D02*
X208302430Y-161507108D01*
X208302430Y-161507108D02*
X208183382Y-161447584D01*
X208183382Y-161447584D02*
X207945287Y-161447584D01*
X207945287Y-161447584D02*
X207826239Y-161507108D01*
D11*
%TO.C,S25*%
X191330077Y-168141275D02*
X191030077Y-168591275D01*
X190880078Y-168991275D01*
X190830077Y-169241275D01*
X190830078Y-169591275D01*
X190830077Y-169891276D01*
X190930077Y-170291275D01*
X191080077Y-170641275D01*
X191230077Y-170891275D01*
X191530077Y-171241275D01*
X191780077Y-171441275D01*
X192230077Y-171691275D01*
X190180077Y-171691274D01*
X189680077Y-171741275D01*
X189330077Y-171841276D01*
X189080077Y-172041274D01*
X189030078Y-171591276D01*
X188830077Y-171041274D01*
X188430077Y-170491275D01*
X188130077Y-170241275D01*
X187630077Y-169941275D01*
X187030077Y-169791275D01*
X186530078Y-169791275D01*
X186080077Y-169891275D01*
X185830077Y-169991275D01*
X185380077Y-170241276D01*
X185230078Y-170141274D01*
X185080077Y-170041275D01*
X185080077Y-169641275D01*
X185180077Y-169241275D01*
X185330077Y-168991275D01*
X185480078Y-168791276D01*
X185630077Y-168641275D01*
X185830077Y-168491275D01*
X185980077Y-168391276D01*
X186180076Y-168291275D01*
X186480077Y-168191275D01*
X186780077Y-168141275D01*
X186980077Y-168141272D01*
X191330077Y-168141275D01*
G36*
X191330077Y-168141275D02*
G01*
X191030077Y-168591275D01*
X190880078Y-168991275D01*
X190830077Y-169241275D01*
X190830078Y-169591275D01*
X190830077Y-169891276D01*
X190930077Y-170291275D01*
X191080077Y-170641275D01*
X191230077Y-170891275D01*
X191530077Y-171241275D01*
X191780077Y-171441275D01*
X192230077Y-171691275D01*
X190180077Y-171691274D01*
X189680077Y-171741275D01*
X189330077Y-171841276D01*
X189080077Y-172041274D01*
X189030078Y-171591276D01*
X188830077Y-171041274D01*
X188430077Y-170491275D01*
X188130077Y-170241275D01*
X187630077Y-169941275D01*
X187030077Y-169791275D01*
X186530078Y-169791275D01*
X186080077Y-169891275D01*
X185830077Y-169991275D01*
X185380077Y-170241276D01*
X185230078Y-170141274D01*
X185080077Y-170041275D01*
X185080077Y-169641275D01*
X185180077Y-169241275D01*
X185330077Y-168991275D01*
X185480078Y-168791276D01*
X185630077Y-168641275D01*
X185830077Y-168491275D01*
X185980077Y-168391276D01*
X186180076Y-168291275D01*
X186480077Y-168191275D01*
X186780077Y-168141275D01*
X186980077Y-168141272D01*
X191330077Y-168141275D01*
G37*
%TO.C,S23*%
X181830078Y-88491275D02*
X181530078Y-88941275D01*
X181380079Y-89341275D01*
X181330078Y-89591275D01*
X181330079Y-89941275D01*
X181330078Y-90241276D01*
X181430078Y-90641275D01*
X181580078Y-90991275D01*
X181730078Y-91241275D01*
X182030078Y-91591275D01*
X182280078Y-91791275D01*
X182730078Y-92041275D01*
X180680078Y-92041274D01*
X180180078Y-92091275D01*
X179830078Y-92191276D01*
X179580078Y-92391274D01*
X179530079Y-91941276D01*
X179330078Y-91391274D01*
X178930078Y-90841275D01*
X178630078Y-90591275D01*
X178130078Y-90291275D01*
X177530078Y-90141275D01*
X177030079Y-90141275D01*
X176580078Y-90241275D01*
X176330078Y-90341275D01*
X175880078Y-90591276D01*
X175730079Y-90491274D01*
X175580078Y-90391275D01*
X175580078Y-89991275D01*
X175680078Y-89591275D01*
X175830078Y-89341275D01*
X175980079Y-89141276D01*
X176130078Y-88991275D01*
X176330078Y-88841275D01*
X176480078Y-88741276D01*
X176680077Y-88641275D01*
X176980078Y-88541275D01*
X177280078Y-88491275D01*
X177480078Y-88491272D01*
X181830078Y-88491275D01*
G36*
X181830078Y-88491275D02*
G01*
X181530078Y-88941275D01*
X181380079Y-89341275D01*
X181330078Y-89591275D01*
X181330079Y-89941275D01*
X181330078Y-90241276D01*
X181430078Y-90641275D01*
X181580078Y-90991275D01*
X181730078Y-91241275D01*
X182030078Y-91591275D01*
X182280078Y-91791275D01*
X182730078Y-92041275D01*
X180680078Y-92041274D01*
X180180078Y-92091275D01*
X179830078Y-92191276D01*
X179580078Y-92391274D01*
X179530079Y-91941276D01*
X179330078Y-91391274D01*
X178930078Y-90841275D01*
X178630078Y-90591275D01*
X178130078Y-90291275D01*
X177530078Y-90141275D01*
X177030079Y-90141275D01*
X176580078Y-90241275D01*
X176330078Y-90341275D01*
X175880078Y-90591276D01*
X175730079Y-90491274D01*
X175580078Y-90391275D01*
X175580078Y-89991275D01*
X175680078Y-89591275D01*
X175830078Y-89341275D01*
X175980079Y-89141276D01*
X176130078Y-88991275D01*
X176330078Y-88841275D01*
X176480078Y-88741276D01*
X176680077Y-88641275D01*
X176980078Y-88541275D01*
X177280078Y-88491275D01*
X177480078Y-88491272D01*
X181830078Y-88491275D01*
G37*
%TO.C,S13*%
X219830076Y-120491274D02*
X219530076Y-120941274D01*
X219380077Y-121341274D01*
X219330076Y-121591274D01*
X219330077Y-121941274D01*
X219330076Y-122241275D01*
X219430076Y-122641274D01*
X219580076Y-122991274D01*
X219730076Y-123241274D01*
X220030076Y-123591274D01*
X220280076Y-123791274D01*
X220730076Y-124041274D01*
X218680076Y-124041273D01*
X218180076Y-124091274D01*
X217830076Y-124191275D01*
X217580076Y-124391273D01*
X217530077Y-123941275D01*
X217330076Y-123391273D01*
X216930076Y-122841274D01*
X216630076Y-122591274D01*
X216130076Y-122291274D01*
X215530076Y-122141274D01*
X215030077Y-122141274D01*
X214580076Y-122241274D01*
X214330076Y-122341274D01*
X213880076Y-122591275D01*
X213730077Y-122491273D01*
X213580076Y-122391274D01*
X213580076Y-121991274D01*
X213680076Y-121591274D01*
X213830076Y-121341274D01*
X213980077Y-121141275D01*
X214130076Y-120991274D01*
X214330076Y-120841274D01*
X214480076Y-120741275D01*
X214680075Y-120641274D01*
X214980076Y-120541274D01*
X215280076Y-120491274D01*
X215480076Y-120491271D01*
X219830076Y-120491274D01*
G36*
X219830076Y-120491274D02*
G01*
X219530076Y-120941274D01*
X219380077Y-121341274D01*
X219330076Y-121591274D01*
X219330077Y-121941274D01*
X219330076Y-122241275D01*
X219430076Y-122641274D01*
X219580076Y-122991274D01*
X219730076Y-123241274D01*
X220030076Y-123591274D01*
X220280076Y-123791274D01*
X220730076Y-124041274D01*
X218680076Y-124041273D01*
X218180076Y-124091274D01*
X217830076Y-124191275D01*
X217580076Y-124391273D01*
X217530077Y-123941275D01*
X217330076Y-123391273D01*
X216930076Y-122841274D01*
X216630076Y-122591274D01*
X216130076Y-122291274D01*
X215530076Y-122141274D01*
X215030077Y-122141274D01*
X214580076Y-122241274D01*
X214330076Y-122341274D01*
X213880076Y-122591275D01*
X213730077Y-122491273D01*
X213580076Y-122391274D01*
X213580076Y-121991274D01*
X213680076Y-121591274D01*
X213830076Y-121341274D01*
X213980077Y-121141275D01*
X214130076Y-120991274D01*
X214330076Y-120841274D01*
X214480076Y-120741275D01*
X214680075Y-120641274D01*
X214980076Y-120541274D01*
X215280076Y-120491274D01*
X215480076Y-120491271D01*
X219830076Y-120491274D01*
G37*
%TO.C,S9*%
X238830072Y-123491272D02*
X238530072Y-123941272D01*
X238380073Y-124341272D01*
X238330072Y-124591272D01*
X238330073Y-124941272D01*
X238330072Y-125241273D01*
X238430072Y-125641272D01*
X238580072Y-125991272D01*
X238730072Y-126241272D01*
X239030072Y-126591272D01*
X239280072Y-126791272D01*
X239730072Y-127041272D01*
X237680072Y-127041271D01*
X237180072Y-127091272D01*
X236830072Y-127191273D01*
X236580072Y-127391271D01*
X236530073Y-126941273D01*
X236330072Y-126391271D01*
X235930072Y-125841272D01*
X235630072Y-125591272D01*
X235130072Y-125291272D01*
X234530072Y-125141272D01*
X234030073Y-125141272D01*
X233580072Y-125241272D01*
X233330072Y-125341272D01*
X232880072Y-125591273D01*
X232730073Y-125491271D01*
X232580072Y-125391272D01*
X232580072Y-124991272D01*
X232680072Y-124591272D01*
X232830072Y-124341272D01*
X232980073Y-124141273D01*
X233130072Y-123991272D01*
X233330072Y-123841272D01*
X233480072Y-123741273D01*
X233680071Y-123641272D01*
X233980072Y-123541272D01*
X234280072Y-123491272D01*
X234480072Y-123491269D01*
X238830072Y-123491272D01*
G36*
X238830072Y-123491272D02*
G01*
X238530072Y-123941272D01*
X238380073Y-124341272D01*
X238330072Y-124591272D01*
X238330073Y-124941272D01*
X238330072Y-125241273D01*
X238430072Y-125641272D01*
X238580072Y-125991272D01*
X238730072Y-126241272D01*
X239030072Y-126591272D01*
X239280072Y-126791272D01*
X239730072Y-127041272D01*
X237680072Y-127041271D01*
X237180072Y-127091272D01*
X236830072Y-127191273D01*
X236580072Y-127391271D01*
X236530073Y-126941273D01*
X236330072Y-126391271D01*
X235930072Y-125841272D01*
X235630072Y-125591272D01*
X235130072Y-125291272D01*
X234530072Y-125141272D01*
X234030073Y-125141272D01*
X233580072Y-125241272D01*
X233330072Y-125341272D01*
X232880072Y-125591273D01*
X232730073Y-125491271D01*
X232580072Y-125391272D01*
X232580072Y-124991272D01*
X232680072Y-124591272D01*
X232830072Y-124341272D01*
X232980073Y-124141273D01*
X233130072Y-123991272D01*
X233330072Y-123841272D01*
X233480072Y-123741273D01*
X233680071Y-123641272D01*
X233980072Y-123541272D01*
X234280072Y-123491272D01*
X234480072Y-123491269D01*
X238830072Y-123491272D01*
G37*
D12*
%TO.C,D5*%
X257672454Y-142007086D02*
X258071906Y-142028019D01*
X258071906Y-142028019D02*
X258043121Y-142577267D01*
X258071906Y-142028019D02*
X258100692Y-141478775D01*
X258071906Y-142028019D02*
X258692018Y-141659971D01*
X258650149Y-142458874D02*
X258071906Y-142028019D01*
X258671083Y-142059422D02*
X259170398Y-142085590D01*
X258692018Y-141659971D02*
X258650149Y-142458874D01*
%TO.C,D20*%
X180330075Y-156991269D02*
X180730075Y-156991269D01*
X180730075Y-156991269D02*
X180730074Y-156441266D01*
X180730075Y-156991269D02*
X180730076Y-157541270D01*
X180730075Y-156991269D02*
X181330075Y-156591269D01*
X181330075Y-156591269D02*
X181330075Y-157391269D01*
X181330075Y-157391269D02*
X180730075Y-156991269D01*
X181330076Y-156991270D02*
X181830075Y-156991269D01*
D11*
%TO.C,S20*%
X181830086Y-145491272D02*
X181530086Y-145941272D01*
X181380087Y-146341272D01*
X181330086Y-146591272D01*
X181330087Y-146941272D01*
X181330086Y-147241273D01*
X181430086Y-147641272D01*
X181580086Y-147991272D01*
X181730086Y-148241272D01*
X182030086Y-148591272D01*
X182280086Y-148791272D01*
X182730086Y-149041272D01*
X180680086Y-149041271D01*
X180180086Y-149091272D01*
X179830086Y-149191273D01*
X179580086Y-149391271D01*
X179530087Y-148941273D01*
X179330086Y-148391271D01*
X178930086Y-147841272D01*
X178630086Y-147591272D01*
X178130086Y-147291272D01*
X177530086Y-147141272D01*
X177030087Y-147141272D01*
X176580086Y-147241272D01*
X176330086Y-147341272D01*
X175880086Y-147591273D01*
X175730087Y-147491271D01*
X175580086Y-147391272D01*
X175580086Y-146991272D01*
X175680086Y-146591272D01*
X175830086Y-146341272D01*
X175980087Y-146141273D01*
X176130086Y-145991272D01*
X176330086Y-145841272D01*
X176480086Y-145741273D01*
X176680085Y-145641272D01*
X176980086Y-145541272D01*
X177280086Y-145491272D01*
X177480086Y-145491269D01*
X181830086Y-145491272D01*
G36*
X181830086Y-145491272D02*
G01*
X181530086Y-145941272D01*
X181380087Y-146341272D01*
X181330086Y-146591272D01*
X181330087Y-146941272D01*
X181330086Y-147241273D01*
X181430086Y-147641272D01*
X181580086Y-147991272D01*
X181730086Y-148241272D01*
X182030086Y-148591272D01*
X182280086Y-148791272D01*
X182730086Y-149041272D01*
X180680086Y-149041271D01*
X180180086Y-149091272D01*
X179830086Y-149191273D01*
X179580086Y-149391271D01*
X179530087Y-148941273D01*
X179330086Y-148391271D01*
X178930086Y-147841272D01*
X178630086Y-147591272D01*
X178130086Y-147291272D01*
X177530086Y-147141272D01*
X177030087Y-147141272D01*
X176580086Y-147241272D01*
X176330086Y-147341272D01*
X175880086Y-147591273D01*
X175730087Y-147491271D01*
X175580086Y-147391272D01*
X175580086Y-146991272D01*
X175680086Y-146591272D01*
X175830086Y-146341272D01*
X175980087Y-146141273D01*
X176130086Y-145991272D01*
X176330086Y-145841272D01*
X176480086Y-145741273D01*
X176680085Y-145641272D01*
X176980086Y-145541272D01*
X177280086Y-145491272D01*
X177480086Y-145491269D01*
X181830086Y-145491272D01*
G37*
%TO.C,S24*%
X162830077Y-135491276D02*
X162530077Y-135941276D01*
X162380078Y-136341276D01*
X162330077Y-136591276D01*
X162330078Y-136941276D01*
X162330077Y-137241277D01*
X162430077Y-137641276D01*
X162580077Y-137991276D01*
X162730077Y-138241276D01*
X163030077Y-138591276D01*
X163280077Y-138791276D01*
X163730077Y-139041276D01*
X161680077Y-139041275D01*
X161180077Y-139091276D01*
X160830077Y-139191277D01*
X160580077Y-139391275D01*
X160530078Y-138941277D01*
X160330077Y-138391275D01*
X159930077Y-137841276D01*
X159630077Y-137591276D01*
X159130077Y-137291276D01*
X158530077Y-137141276D01*
X158030078Y-137141276D01*
X157580077Y-137241276D01*
X157330077Y-137341276D01*
X156880077Y-137591277D01*
X156730078Y-137491275D01*
X156580077Y-137391276D01*
X156580077Y-136991276D01*
X156680077Y-136591276D01*
X156830077Y-136341276D01*
X156980078Y-136141277D01*
X157130077Y-135991276D01*
X157330077Y-135841276D01*
X157480077Y-135741277D01*
X157680076Y-135641276D01*
X157980077Y-135541276D01*
X158280077Y-135491276D01*
X158480077Y-135491273D01*
X162830077Y-135491276D01*
G36*
X162830077Y-135491276D02*
G01*
X162530077Y-135941276D01*
X162380078Y-136341276D01*
X162330077Y-136591276D01*
X162330078Y-136941276D01*
X162330077Y-137241277D01*
X162430077Y-137641276D01*
X162580077Y-137991276D01*
X162730077Y-138241276D01*
X163030077Y-138591276D01*
X163280077Y-138791276D01*
X163730077Y-139041276D01*
X161680077Y-139041275D01*
X161180077Y-139091276D01*
X160830077Y-139191277D01*
X160580077Y-139391275D01*
X160530078Y-138941277D01*
X160330077Y-138391275D01*
X159930077Y-137841276D01*
X159630077Y-137591276D01*
X159130077Y-137291276D01*
X158530077Y-137141276D01*
X158030078Y-137141276D01*
X157580077Y-137241276D01*
X157330077Y-137341276D01*
X156880077Y-137591277D01*
X156730078Y-137491275D01*
X156580077Y-137391276D01*
X156580077Y-136991276D01*
X156680077Y-136591276D01*
X156830077Y-136341276D01*
X156980078Y-136141277D01*
X157130077Y-135991276D01*
X157330077Y-135841276D01*
X157480077Y-135741277D01*
X157680076Y-135641276D01*
X157980077Y-135541276D01*
X158280077Y-135491276D01*
X158480077Y-135491273D01*
X162830077Y-135491276D01*
G37*
D12*
%TO.C,D6*%
X258666836Y-123033128D02*
X259066288Y-123054061D01*
X259066288Y-123054061D02*
X259037503Y-123603309D01*
X259066288Y-123054061D02*
X259095074Y-122504817D01*
X259066288Y-123054061D02*
X259686400Y-122686013D01*
X259644531Y-123484916D02*
X259066288Y-123054061D01*
X259665465Y-123085464D02*
X260164780Y-123111632D01*
X259686400Y-122686013D02*
X259644531Y-123484916D01*
D11*
%TO.C,S27*%
X142686962Y-188037028D02*
X142870501Y-188422792D01*
X143015603Y-188632424D01*
X143267374Y-188875555D01*
X143483174Y-189083953D01*
X143840375Y-189289881D01*
X144196343Y-189425111D01*
X144480377Y-189490874D01*
X144940543Y-189518204D01*
X145258076Y-189477299D01*
X145750507Y-189327261D01*
X144326457Y-190801909D01*
X144015097Y-191196311D01*
X143843898Y-191517545D01*
X143814102Y-191836312D01*
X143455668Y-191559684D01*
X142921098Y-191321489D01*
X142247597Y-191227162D01*
X141859365Y-191269300D01*
X141296233Y-191420573D01*
X140771538Y-191747977D01*
X140424209Y-192107647D01*
X140183546Y-192500816D01*
X140081813Y-192750117D01*
X139949054Y-193247484D01*
X139772923Y-193285921D01*
X139596789Y-193324354D01*
X139309052Y-193046491D01*
X139090783Y-192696694D01*
X139015146Y-192415129D01*
X138975476Y-192168296D01*
X138971775Y-191956196D01*
X139002806Y-191708129D01*
X139035071Y-191530762D01*
X139102068Y-191317428D01*
X139238531Y-191032160D01*
X139410962Y-190781626D01*
X139549894Y-190637756D01*
X142571658Y-187508630D01*
X142686962Y-188037028D01*
G36*
X142686962Y-188037028D02*
G01*
X142870501Y-188422792D01*
X143015603Y-188632424D01*
X143267374Y-188875555D01*
X143483174Y-189083953D01*
X143840375Y-189289881D01*
X144196343Y-189425111D01*
X144480377Y-189490874D01*
X144940543Y-189518204D01*
X145258076Y-189477299D01*
X145750507Y-189327261D01*
X144326457Y-190801909D01*
X144015097Y-191196311D01*
X143843898Y-191517545D01*
X143814102Y-191836312D01*
X143455668Y-191559684D01*
X142921098Y-191321489D01*
X142247597Y-191227162D01*
X141859365Y-191269300D01*
X141296233Y-191420573D01*
X140771538Y-191747977D01*
X140424209Y-192107647D01*
X140183546Y-192500816D01*
X140081813Y-192750117D01*
X139949054Y-193247484D01*
X139772923Y-193285921D01*
X139596789Y-193324354D01*
X139309052Y-193046491D01*
X139090783Y-192696694D01*
X139015146Y-192415129D01*
X138975476Y-192168296D01*
X138971775Y-191956196D01*
X139002806Y-191708129D01*
X139035071Y-191530762D01*
X139102068Y-191317428D01*
X139238531Y-191032160D01*
X139410962Y-190781626D01*
X139549894Y-190637756D01*
X142571658Y-187508630D01*
X142686962Y-188037028D01*
G37*
D12*
%TO.C,D15*%
X218330083Y-93991274D02*
X218730083Y-93991274D01*
X218730083Y-93991274D02*
X218730082Y-93441271D01*
X218730083Y-93991274D02*
X218730084Y-94541275D01*
X218730083Y-93991274D02*
X219330083Y-93591274D01*
X219330083Y-93591274D02*
X219330083Y-94391274D01*
X219330083Y-94391274D02*
X218730083Y-93991274D01*
X219330084Y-93991275D02*
X219830083Y-93991274D01*
D11*
%TO.C,S3*%
X278287088Y-116463540D02*
X282613258Y-116918239D01*
X282267864Y-117334415D01*
X282076874Y-117716545D01*
X282001016Y-117959949D01*
X281964432Y-118308033D01*
X281933073Y-118606387D01*
X281990714Y-119014650D01*
X282103307Y-119378412D01*
X282226353Y-119642721D01*
X282488125Y-120022163D01*
X282715849Y-120247200D01*
X283137252Y-120542867D01*
X281098482Y-120328584D01*
X280595994Y-120326046D01*
X280237459Y-120388913D01*
X279967923Y-120561686D01*
X279965235Y-120108924D01*
X279823821Y-119541030D01*
X279483503Y-118952233D01*
X279211280Y-118672245D01*
X278745376Y-118321623D01*
X278164340Y-118109727D01*
X277667081Y-118057465D01*
X277209094Y-118109878D01*
X276950010Y-118183198D01*
X276476343Y-118384791D01*
X276337618Y-118269659D01*
X276198894Y-118154528D01*
X276240704Y-117756719D01*
X276381967Y-117369363D01*
X276557278Y-117136412D01*
X276727362Y-116953188D01*
X276892219Y-116819688D01*
X277106803Y-116691415D01*
X277266434Y-116607645D01*
X277475790Y-116529097D01*
X277784601Y-116461002D01*
X278088184Y-116442635D01*
X278287088Y-116463540D01*
G36*
X278287088Y-116463540D02*
G01*
X282613258Y-116918239D01*
X282267864Y-117334415D01*
X282076874Y-117716545D01*
X282001016Y-117959949D01*
X281964432Y-118308033D01*
X281933073Y-118606387D01*
X281990714Y-119014650D01*
X282103307Y-119378412D01*
X282226353Y-119642721D01*
X282488125Y-120022163D01*
X282715849Y-120247200D01*
X283137252Y-120542867D01*
X281098482Y-120328584D01*
X280595994Y-120326046D01*
X280237459Y-120388913D01*
X279967923Y-120561686D01*
X279965235Y-120108924D01*
X279823821Y-119541030D01*
X279483503Y-118952233D01*
X279211280Y-118672245D01*
X278745376Y-118321623D01*
X278164340Y-118109727D01*
X277667081Y-118057465D01*
X277209094Y-118109878D01*
X276950010Y-118183198D01*
X276476343Y-118384791D01*
X276337618Y-118269659D01*
X276198894Y-118154528D01*
X276240704Y-117756719D01*
X276381967Y-117369363D01*
X276557278Y-117136412D01*
X276727362Y-116953188D01*
X276892219Y-116819688D01*
X277106803Y-116691415D01*
X277266434Y-116607645D01*
X277475790Y-116529097D01*
X277784601Y-116461002D01*
X278088184Y-116442635D01*
X278287088Y-116463540D01*
G37*
D12*
%TO.C,D12*%
X218330078Y-150991271D02*
X218730078Y-150991271D01*
X218730078Y-150991271D02*
X218730077Y-150441268D01*
X218730078Y-150991271D02*
X218730079Y-151541272D01*
X218730078Y-150991271D02*
X219330078Y-150591271D01*
X219330078Y-150591271D02*
X219330078Y-151391271D01*
X219330078Y-151391271D02*
X218730078Y-150991271D01*
X219330079Y-150991272D02*
X219830078Y-150991271D01*
%TO.C,D10*%
X237330076Y-115991272D02*
X237730076Y-115991272D01*
X237730076Y-115991272D02*
X237730075Y-115441269D01*
X237730076Y-115991272D02*
X237730077Y-116541273D01*
X237730076Y-115991272D02*
X238330076Y-115591272D01*
X238330076Y-115591272D02*
X238330076Y-116391272D01*
X238330076Y-116391272D02*
X237730076Y-115991272D01*
X238330077Y-115991273D02*
X238830076Y-115991272D01*
%TO.C,D28*%
X144230077Y-174791276D02*
X144630077Y-174791276D01*
X144630077Y-174791276D02*
X144630076Y-174241273D01*
X144630077Y-174791276D02*
X144630078Y-175341277D01*
X144630077Y-174791276D02*
X145230077Y-174391276D01*
X145230077Y-174391276D02*
X145230077Y-175191276D01*
X145230077Y-175191276D02*
X144630077Y-174791276D01*
X145230078Y-174791277D02*
X145730077Y-174791276D01*
%TO.C,D27*%
X149802084Y-196576206D02*
X150079949Y-196288471D01*
X150079949Y-196288471D02*
X149684311Y-195906408D01*
X150079949Y-196288471D02*
X150209007Y-195579003D01*
X150079949Y-196288471D02*
X150475586Y-196670532D01*
X150209007Y-195579003D02*
X150784479Y-196134729D01*
X150496743Y-195856866D02*
X150844072Y-195497196D01*
X150784479Y-196134729D02*
X150079949Y-196288471D01*
%TO.C,D13*%
X218330079Y-131991276D02*
X218730079Y-131991276D01*
X218730079Y-131991276D02*
X218730078Y-131441273D01*
X218730079Y-131991276D02*
X218730080Y-132541277D01*
X218730079Y-131991276D02*
X219330079Y-131591276D01*
X219330079Y-131591276D02*
X219330079Y-132391276D01*
X219330079Y-132391276D02*
X218730079Y-131991276D01*
X219330080Y-131991277D02*
X219830079Y-131991276D01*
%TO.C,D26*%
X168093352Y-184036845D02*
X168461554Y-183880553D01*
X168461554Y-183880553D02*
X168246653Y-183374275D01*
X168461554Y-183880553D02*
X168676456Y-184386831D01*
X168461554Y-183880553D02*
X168857564Y-183277914D01*
X168857564Y-183277914D02*
X169170149Y-184014317D01*
X169013857Y-183646114D02*
X169474110Y-183450749D01*
X169170149Y-184014317D02*
X168461554Y-183880553D01*
D11*
%TO.C,S8*%
X238830079Y-142491278D02*
X238530079Y-142941278D01*
X238380080Y-143341278D01*
X238330079Y-143591278D01*
X238330080Y-143941278D01*
X238330079Y-144241279D01*
X238430079Y-144641278D01*
X238580079Y-144991278D01*
X238730079Y-145241278D01*
X239030079Y-145591278D01*
X239280079Y-145791278D01*
X239730079Y-146041278D01*
X237680079Y-146041277D01*
X237180079Y-146091278D01*
X236830079Y-146191279D01*
X236580079Y-146391277D01*
X236530080Y-145941279D01*
X236330079Y-145391277D01*
X235930079Y-144841278D01*
X235630079Y-144591278D01*
X235130079Y-144291278D01*
X234530079Y-144141278D01*
X234030080Y-144141278D01*
X233580079Y-144241278D01*
X233330079Y-144341278D01*
X232880079Y-144591279D01*
X232730080Y-144491277D01*
X232580079Y-144391278D01*
X232580079Y-143991278D01*
X232680079Y-143591278D01*
X232830079Y-143341278D01*
X232980080Y-143141279D01*
X233130079Y-142991278D01*
X233330079Y-142841278D01*
X233480079Y-142741279D01*
X233680078Y-142641278D01*
X233980079Y-142541278D01*
X234280079Y-142491278D01*
X234480079Y-142491275D01*
X238830079Y-142491278D01*
G36*
X238830079Y-142491278D02*
G01*
X238530079Y-142941278D01*
X238380080Y-143341278D01*
X238330079Y-143591278D01*
X238330080Y-143941278D01*
X238330079Y-144241279D01*
X238430079Y-144641278D01*
X238580079Y-144991278D01*
X238730079Y-145241278D01*
X239030079Y-145591278D01*
X239280079Y-145791278D01*
X239730079Y-146041278D01*
X237680079Y-146041277D01*
X237180079Y-146091278D01*
X236830079Y-146191279D01*
X236580079Y-146391277D01*
X236530080Y-145941279D01*
X236330079Y-145391277D01*
X235930079Y-144841278D01*
X235630079Y-144591278D01*
X235130079Y-144291278D01*
X234530079Y-144141278D01*
X234030080Y-144141278D01*
X233580079Y-144241278D01*
X233330079Y-144341278D01*
X232880079Y-144591279D01*
X232730080Y-144491277D01*
X232580079Y-144391278D01*
X232580079Y-143991278D01*
X232680079Y-143591278D01*
X232830079Y-143341278D01*
X232980080Y-143141279D01*
X233130079Y-142991278D01*
X233330079Y-142841278D01*
X233480079Y-142741279D01*
X233680078Y-142641278D01*
X233980079Y-142541278D01*
X234280079Y-142491278D01*
X234480079Y-142491275D01*
X238830079Y-142491278D01*
G37*
%TO.C,S12*%
X219830083Y-139491273D02*
X219530083Y-139941273D01*
X219380084Y-140341273D01*
X219330083Y-140591273D01*
X219330084Y-140941273D01*
X219330083Y-141241274D01*
X219430083Y-141641273D01*
X219580083Y-141991273D01*
X219730083Y-142241273D01*
X220030083Y-142591273D01*
X220280083Y-142791273D01*
X220730083Y-143041273D01*
X218680083Y-143041272D01*
X218180083Y-143091273D01*
X217830083Y-143191274D01*
X217580083Y-143391272D01*
X217530084Y-142941274D01*
X217330083Y-142391272D01*
X216930083Y-141841273D01*
X216630083Y-141591273D01*
X216130083Y-141291273D01*
X215530083Y-141141273D01*
X215030084Y-141141273D01*
X214580083Y-141241273D01*
X214330083Y-141341273D01*
X213880083Y-141591274D01*
X213730084Y-141491272D01*
X213580083Y-141391273D01*
X213580083Y-140991273D01*
X213680083Y-140591273D01*
X213830083Y-140341273D01*
X213980084Y-140141274D01*
X214130083Y-139991273D01*
X214330083Y-139841273D01*
X214480083Y-139741274D01*
X214680082Y-139641273D01*
X214980083Y-139541273D01*
X215280083Y-139491273D01*
X215480083Y-139491270D01*
X219830083Y-139491273D01*
G36*
X219830083Y-139491273D02*
G01*
X219530083Y-139941273D01*
X219380084Y-140341273D01*
X219330083Y-140591273D01*
X219330084Y-140941273D01*
X219330083Y-141241274D01*
X219430083Y-141641273D01*
X219580083Y-141991273D01*
X219730083Y-142241273D01*
X220030083Y-142591273D01*
X220280083Y-142791273D01*
X220730083Y-143041273D01*
X218680083Y-143041272D01*
X218180083Y-143091273D01*
X217830083Y-143191274D01*
X217580083Y-143391272D01*
X217530084Y-142941274D01*
X217330083Y-142391272D01*
X216930083Y-141841273D01*
X216630083Y-141591273D01*
X216130083Y-141291273D01*
X215530083Y-141141273D01*
X215030084Y-141141273D01*
X214580083Y-141241273D01*
X214330083Y-141341273D01*
X213880083Y-141591274D01*
X213730084Y-141491272D01*
X213580083Y-141391273D01*
X213580083Y-140991273D01*
X213680083Y-140591273D01*
X213830083Y-140341273D01*
X213980084Y-140141274D01*
X214130083Y-139991273D01*
X214330083Y-139841273D01*
X214480083Y-139741274D01*
X214680082Y-139641273D01*
X214980083Y-139541273D01*
X215280083Y-139491273D01*
X215480083Y-139491270D01*
X219830083Y-139491273D01*
G37*
D12*
%TO.C,D21*%
X180330074Y-137991274D02*
X180730074Y-137991274D01*
X180730074Y-137991274D02*
X180730073Y-137441271D01*
X180730074Y-137991274D02*
X180730075Y-138541275D01*
X180730074Y-137991274D02*
X181330074Y-137591274D01*
X181330074Y-137591274D02*
X181330074Y-138391274D01*
X181330074Y-138391274D02*
X180730074Y-137991274D01*
X181330075Y-137991275D02*
X181830074Y-137991274D01*
D11*
%TO.C,S2*%
X276301045Y-135359451D02*
X280627215Y-135814150D01*
X280281821Y-136230326D01*
X280090831Y-136612456D01*
X280014973Y-136855860D01*
X279978389Y-137203944D01*
X279947030Y-137502298D01*
X280004671Y-137910561D01*
X280117264Y-138274323D01*
X280240310Y-138538632D01*
X280502082Y-138918074D01*
X280729806Y-139143111D01*
X281151209Y-139438778D01*
X279112439Y-139224495D01*
X278609951Y-139221957D01*
X278251416Y-139284824D01*
X277981880Y-139457597D01*
X277979192Y-139004835D01*
X277837778Y-138436941D01*
X277497460Y-137848144D01*
X277225237Y-137568156D01*
X276759333Y-137217534D01*
X276178297Y-137005638D01*
X275681038Y-136953376D01*
X275223051Y-137005789D01*
X274963967Y-137079109D01*
X274490300Y-137280702D01*
X274351575Y-137165570D01*
X274212851Y-137050439D01*
X274254661Y-136652630D01*
X274395924Y-136265274D01*
X274571235Y-136032323D01*
X274741319Y-135849099D01*
X274906176Y-135715599D01*
X275120760Y-135587326D01*
X275280391Y-135503556D01*
X275489747Y-135425008D01*
X275798558Y-135356913D01*
X276102141Y-135338546D01*
X276301045Y-135359451D01*
G36*
X276301045Y-135359451D02*
G01*
X280627215Y-135814150D01*
X280281821Y-136230326D01*
X280090831Y-136612456D01*
X280014973Y-136855860D01*
X279978389Y-137203944D01*
X279947030Y-137502298D01*
X280004671Y-137910561D01*
X280117264Y-138274323D01*
X280240310Y-138538632D01*
X280502082Y-138918074D01*
X280729806Y-139143111D01*
X281151209Y-139438778D01*
X279112439Y-139224495D01*
X278609951Y-139221957D01*
X278251416Y-139284824D01*
X277981880Y-139457597D01*
X277979192Y-139004835D01*
X277837778Y-138436941D01*
X277497460Y-137848144D01*
X277225237Y-137568156D01*
X276759333Y-137217534D01*
X276178297Y-137005638D01*
X275681038Y-136953376D01*
X275223051Y-137005789D01*
X274963967Y-137079109D01*
X274490300Y-137280702D01*
X274351575Y-137165570D01*
X274212851Y-137050439D01*
X274254661Y-136652630D01*
X274395924Y-136265274D01*
X274571235Y-136032323D01*
X274741319Y-135849099D01*
X274906176Y-135715599D01*
X275120760Y-135587326D01*
X275280391Y-135503556D01*
X275489747Y-135425008D01*
X275798558Y-135356913D01*
X276102141Y-135338546D01*
X276301045Y-135359451D01*
G37*
%TO.C,S1*%
X274315005Y-154255368D02*
X278641175Y-154710067D01*
X278295781Y-155126243D01*
X278104791Y-155508373D01*
X278028933Y-155751777D01*
X277992349Y-156099861D01*
X277960990Y-156398215D01*
X278018631Y-156806478D01*
X278131224Y-157170240D01*
X278254270Y-157434549D01*
X278516042Y-157813991D01*
X278743766Y-158039028D01*
X279165169Y-158334695D01*
X277126399Y-158120412D01*
X276623911Y-158117874D01*
X276265376Y-158180741D01*
X275995840Y-158353514D01*
X275993152Y-157900752D01*
X275851738Y-157332858D01*
X275511420Y-156744061D01*
X275239197Y-156464073D01*
X274773293Y-156113451D01*
X274192257Y-155901555D01*
X273694998Y-155849293D01*
X273237011Y-155901706D01*
X272977927Y-155975026D01*
X272504260Y-156176619D01*
X272365535Y-156061487D01*
X272226811Y-155946356D01*
X272268621Y-155548547D01*
X272409884Y-155161191D01*
X272585195Y-154928240D01*
X272755279Y-154745016D01*
X272920136Y-154611516D01*
X273134720Y-154483243D01*
X273294351Y-154399473D01*
X273503707Y-154320925D01*
X273812518Y-154252830D01*
X274116101Y-154234463D01*
X274315005Y-154255368D01*
G36*
X274315005Y-154255368D02*
G01*
X278641175Y-154710067D01*
X278295781Y-155126243D01*
X278104791Y-155508373D01*
X278028933Y-155751777D01*
X277992349Y-156099861D01*
X277960990Y-156398215D01*
X278018631Y-156806478D01*
X278131224Y-157170240D01*
X278254270Y-157434549D01*
X278516042Y-157813991D01*
X278743766Y-158039028D01*
X279165169Y-158334695D01*
X277126399Y-158120412D01*
X276623911Y-158117874D01*
X276265376Y-158180741D01*
X275995840Y-158353514D01*
X275993152Y-157900752D01*
X275851738Y-157332858D01*
X275511420Y-156744061D01*
X275239197Y-156464073D01*
X274773293Y-156113451D01*
X274192257Y-155901555D01*
X273694998Y-155849293D01*
X273237011Y-155901706D01*
X272977927Y-155975026D01*
X272504260Y-156176619D01*
X272365535Y-156061487D01*
X272226811Y-155946356D01*
X272268621Y-155548547D01*
X272409884Y-155161191D01*
X272585195Y-154928240D01*
X272755279Y-154745016D01*
X272920136Y-154611516D01*
X273134720Y-154483243D01*
X273294351Y-154399473D01*
X273503707Y-154320925D01*
X273812518Y-154252830D01*
X274116101Y-154234463D01*
X274315005Y-154255368D01*
G37*
D12*
%TO.C,JST1*%
X161930077Y-127541276D02*
X161930077Y-128541276D01*
X161930077Y-130541276D02*
X161930077Y-129541276D01*
X162430077Y-128041276D02*
X161430077Y-128041277D01*
D13*
X162970077Y-125981275D02*
X163970077Y-125981276D01*
X162970077Y-126901276D02*
X162970077Y-125981275D01*
X162970077Y-131181277D02*
X162970077Y-132101276D01*
X162970077Y-132101276D02*
X163970077Y-132101276D01*
X170790074Y-125981276D02*
X169790076Y-125981276D01*
X170790076Y-132101276D02*
X169790077Y-132101276D01*
X170790077Y-131181276D02*
X170790076Y-132101276D01*
X170790078Y-126981275D02*
X170790074Y-125981276D01*
D12*
%TO.C,D7*%
X259661214Y-104059168D02*
X260060666Y-104080101D01*
X260060666Y-104080101D02*
X260031881Y-104629349D01*
X260060666Y-104080101D02*
X260089452Y-103530857D01*
X260060666Y-104080101D02*
X260680778Y-103712053D01*
X260638909Y-104510956D02*
X260060666Y-104080101D01*
X260659843Y-104111504D02*
X261159158Y-104137672D01*
X260680778Y-103712053D02*
X260638909Y-104510956D01*
D11*
%TO.C,S4*%
X254433834Y-149347650D02*
X258777873Y-149575311D01*
X258454733Y-150008991D01*
X258284004Y-150400595D01*
X258220989Y-150647636D01*
X258202672Y-150997157D01*
X258186970Y-151296746D01*
X258265899Y-151701430D01*
X258397376Y-152058801D01*
X258534086Y-152316309D01*
X258815357Y-152681530D01*
X259054548Y-152894343D01*
X259490847Y-153167548D01*
X257443656Y-153060259D01*
X256941724Y-153084025D01*
X256586971Y-153165569D01*
X256326846Y-153352211D01*
X256300466Y-152900210D01*
X256129525Y-152340496D01*
X255758858Y-151770316D01*
X255472355Y-151504960D01*
X254988739Y-151179201D01*
X254397411Y-150998006D01*
X253898098Y-150971837D01*
X253443480Y-151048149D01*
X253188589Y-151134928D01*
X252726122Y-151361035D01*
X252581562Y-151253320D01*
X252437000Y-151145607D01*
X252457934Y-150746156D01*
X252578732Y-150351937D01*
X252741610Y-150110130D01*
X252901875Y-149918256D01*
X253059517Y-149776311D01*
X253267093Y-149636984D01*
X253422121Y-149544972D01*
X253627080Y-149455576D01*
X253931903Y-149371413D01*
X254234106Y-149337182D01*
X254433834Y-149347650D01*
G36*
X254433834Y-149347650D02*
G01*
X258777873Y-149575311D01*
X258454733Y-150008991D01*
X258284004Y-150400595D01*
X258220989Y-150647636D01*
X258202672Y-150997157D01*
X258186970Y-151296746D01*
X258265899Y-151701430D01*
X258397376Y-152058801D01*
X258534086Y-152316309D01*
X258815357Y-152681530D01*
X259054548Y-152894343D01*
X259490847Y-153167548D01*
X257443656Y-153060259D01*
X256941724Y-153084025D01*
X256586971Y-153165569D01*
X256326846Y-153352211D01*
X256300466Y-152900210D01*
X256129525Y-152340496D01*
X255758858Y-151770316D01*
X255472355Y-151504960D01*
X254988739Y-151179201D01*
X254397411Y-150998006D01*
X253898098Y-150971837D01*
X253443480Y-151048149D01*
X253188589Y-151134928D01*
X252726122Y-151361035D01*
X252581562Y-151253320D01*
X252437000Y-151145607D01*
X252457934Y-150746156D01*
X252578732Y-150351937D01*
X252741610Y-150110130D01*
X252901875Y-149918256D01*
X253059517Y-149776311D01*
X253267093Y-149636984D01*
X253422121Y-149544972D01*
X253627080Y-149455576D01*
X253931903Y-149371413D01*
X254234106Y-149337182D01*
X254433834Y-149347650D01*
G37*
%TO.C,S17*%
X200830082Y-123491279D02*
X200530082Y-123941279D01*
X200380083Y-124341279D01*
X200330082Y-124591279D01*
X200330083Y-124941279D01*
X200330082Y-125241280D01*
X200430082Y-125641279D01*
X200580082Y-125991279D01*
X200730082Y-126241279D01*
X201030082Y-126591279D01*
X201280082Y-126791279D01*
X201730082Y-127041279D01*
X199680082Y-127041278D01*
X199180082Y-127091279D01*
X198830082Y-127191280D01*
X198580082Y-127391278D01*
X198530083Y-126941280D01*
X198330082Y-126391278D01*
X197930082Y-125841279D01*
X197630082Y-125591279D01*
X197130082Y-125291279D01*
X196530082Y-125141279D01*
X196030083Y-125141279D01*
X195580082Y-125241279D01*
X195330082Y-125341279D01*
X194880082Y-125591280D01*
X194730083Y-125491278D01*
X194580082Y-125391279D01*
X194580082Y-124991279D01*
X194680082Y-124591279D01*
X194830082Y-124341279D01*
X194980083Y-124141280D01*
X195130082Y-123991279D01*
X195330082Y-123841279D01*
X195480082Y-123741280D01*
X195680081Y-123641279D01*
X195980082Y-123541279D01*
X196280082Y-123491279D01*
X196480082Y-123491276D01*
X200830082Y-123491279D01*
G36*
X200830082Y-123491279D02*
G01*
X200530082Y-123941279D01*
X200380083Y-124341279D01*
X200330082Y-124591279D01*
X200330083Y-124941279D01*
X200330082Y-125241280D01*
X200430082Y-125641279D01*
X200580082Y-125991279D01*
X200730082Y-126241279D01*
X201030082Y-126591279D01*
X201280082Y-126791279D01*
X201730082Y-127041279D01*
X199680082Y-127041278D01*
X199180082Y-127091279D01*
X198830082Y-127191280D01*
X198580082Y-127391278D01*
X198530083Y-126941280D01*
X198330082Y-126391278D01*
X197930082Y-125841279D01*
X197630082Y-125591279D01*
X197130082Y-125291279D01*
X196530082Y-125141279D01*
X196030083Y-125141279D01*
X195580082Y-125241279D01*
X195330082Y-125341279D01*
X194880082Y-125591280D01*
X194730083Y-125491278D01*
X194580082Y-125391279D01*
X194580082Y-124991279D01*
X194680082Y-124591279D01*
X194830082Y-124341279D01*
X194980083Y-124141280D01*
X195130082Y-123991279D01*
X195330082Y-123841279D01*
X195480082Y-123741280D01*
X195680081Y-123641279D01*
X195980082Y-123541279D01*
X196280082Y-123491279D01*
X196480082Y-123491276D01*
X200830082Y-123491279D01*
G37*
D12*
%TO.C,D2*%
X277933353Y-147094358D02*
X278331164Y-147136168D01*
X278331164Y-147136168D02*
X278273672Y-147683156D01*
X278331164Y-147136168D02*
X278388651Y-146589182D01*
X278331164Y-147136168D02*
X278969686Y-146801078D01*
X278886063Y-147596695D02*
X278331164Y-147136168D01*
X278927874Y-147198886D02*
X279425135Y-147251150D01*
X278969686Y-146801078D02*
X278886063Y-147596695D01*
D11*
%TO.C,S22*%
X181830074Y-107491275D02*
X181530074Y-107941275D01*
X181380075Y-108341275D01*
X181330074Y-108591275D01*
X181330075Y-108941275D01*
X181330074Y-109241276D01*
X181430074Y-109641275D01*
X181580074Y-109991275D01*
X181730074Y-110241275D01*
X182030074Y-110591275D01*
X182280074Y-110791275D01*
X182730074Y-111041275D01*
X180680074Y-111041274D01*
X180180074Y-111091275D01*
X179830074Y-111191276D01*
X179580074Y-111391274D01*
X179530075Y-110941276D01*
X179330074Y-110391274D01*
X178930074Y-109841275D01*
X178630074Y-109591275D01*
X178130074Y-109291275D01*
X177530074Y-109141275D01*
X177030075Y-109141275D01*
X176580074Y-109241275D01*
X176330074Y-109341275D01*
X175880074Y-109591276D01*
X175730075Y-109491274D01*
X175580074Y-109391275D01*
X175580074Y-108991275D01*
X175680074Y-108591275D01*
X175830074Y-108341275D01*
X175980075Y-108141276D01*
X176130074Y-107991275D01*
X176330074Y-107841275D01*
X176480074Y-107741276D01*
X176680073Y-107641275D01*
X176980074Y-107541275D01*
X177280074Y-107491275D01*
X177480074Y-107491272D01*
X181830074Y-107491275D01*
G36*
X181830074Y-107491275D02*
G01*
X181530074Y-107941275D01*
X181380075Y-108341275D01*
X181330074Y-108591275D01*
X181330075Y-108941275D01*
X181330074Y-109241276D01*
X181430074Y-109641275D01*
X181580074Y-109991275D01*
X181730074Y-110241275D01*
X182030074Y-110591275D01*
X182280074Y-110791275D01*
X182730074Y-111041275D01*
X180680074Y-111041274D01*
X180180074Y-111091275D01*
X179830074Y-111191276D01*
X179580074Y-111391274D01*
X179530075Y-110941276D01*
X179330074Y-110391274D01*
X178930074Y-109841275D01*
X178630074Y-109591275D01*
X178130074Y-109291275D01*
X177530074Y-109141275D01*
X177030075Y-109141275D01*
X176580074Y-109241275D01*
X176330074Y-109341275D01*
X175880074Y-109591276D01*
X175730075Y-109491274D01*
X175580074Y-109391275D01*
X175580074Y-108991275D01*
X175680074Y-108591275D01*
X175830074Y-108341275D01*
X175980075Y-108141276D01*
X176130074Y-107991275D01*
X176330074Y-107841275D01*
X176480074Y-107741276D01*
X176680073Y-107641275D01*
X176980074Y-107541275D01*
X177280074Y-107491275D01*
X177480074Y-107491272D01*
X181830074Y-107491275D01*
G37*
D12*
%TO.C,D4*%
X256678070Y-160981045D02*
X257077522Y-161001978D01*
X257077522Y-161001978D02*
X257048737Y-161551226D01*
X257077522Y-161001978D02*
X257106308Y-160452734D01*
X257077522Y-161001978D02*
X257697634Y-160633930D01*
X257655765Y-161432833D02*
X257077522Y-161001978D01*
X257676699Y-161033381D02*
X258176014Y-161059549D01*
X257697634Y-160633930D02*
X257655765Y-161432833D01*
%TO.C,D22*%
X180330086Y-118991275D02*
X180730086Y-118991275D01*
X180730086Y-118991275D02*
X180730085Y-118441272D01*
X180730086Y-118991275D02*
X180730087Y-119541276D01*
X180730086Y-118991275D02*
X181330086Y-118591275D01*
X181330086Y-118591275D02*
X181330086Y-119391275D01*
X181330086Y-119391275D02*
X180730086Y-118991275D01*
X181330087Y-118991276D02*
X181830086Y-118991275D01*
D11*
%TO.C,S26*%
X164880385Y-173396393D02*
X164898602Y-173823205D01*
X164950259Y-174072867D01*
X165087016Y-174395044D01*
X165204234Y-174671195D01*
X165452577Y-175000324D01*
X165727409Y-175263891D01*
X165963167Y-175435408D01*
X166376075Y-175640365D01*
X166684347Y-175726784D01*
X167196257Y-175781080D01*
X165309222Y-176582079D01*
X164868506Y-176823470D01*
X164585401Y-177052276D01*
X164433423Y-177334060D01*
X164211569Y-176939369D01*
X163812565Y-176511238D01*
X163229461Y-176161253D01*
X162855627Y-176048346D01*
X162278155Y-175967560D01*
X161667243Y-176063923D01*
X161206989Y-176259289D01*
X160831836Y-176527168D01*
X160640784Y-176716902D01*
X160324239Y-177122857D01*
X160147091Y-177089416D01*
X159969941Y-177055974D01*
X159813649Y-176687773D01*
X159749407Y-176280498D01*
X159789800Y-175991762D01*
X159849730Y-175749052D01*
X159929195Y-175552366D01*
X160054687Y-175336144D01*
X160153689Y-175185484D01*
X160298718Y-175015287D01*
X160535794Y-174806018D01*
X160792412Y-174642773D01*
X160976510Y-174564626D01*
X164980707Y-172864946D01*
X164880385Y-173396393D01*
G36*
X164880385Y-173396393D02*
G01*
X164898602Y-173823205D01*
X164950259Y-174072867D01*
X165087016Y-174395044D01*
X165204234Y-174671195D01*
X165452577Y-175000324D01*
X165727409Y-175263891D01*
X165963167Y-175435408D01*
X166376075Y-175640365D01*
X166684347Y-175726784D01*
X167196257Y-175781080D01*
X165309222Y-176582079D01*
X164868506Y-176823470D01*
X164585401Y-177052276D01*
X164433423Y-177334060D01*
X164211569Y-176939369D01*
X163812565Y-176511238D01*
X163229461Y-176161253D01*
X162855627Y-176048346D01*
X162278155Y-175967560D01*
X161667243Y-176063923D01*
X161206989Y-176259289D01*
X160831836Y-176527168D01*
X160640784Y-176716902D01*
X160324239Y-177122857D01*
X160147091Y-177089416D01*
X159969941Y-177055974D01*
X159813649Y-176687773D01*
X159749407Y-176280498D01*
X159789800Y-175991762D01*
X159849730Y-175749052D01*
X159929195Y-175552366D01*
X160054687Y-175336144D01*
X160153689Y-175185484D01*
X160298718Y-175015287D01*
X160535794Y-174806018D01*
X160792412Y-174642773D01*
X160976510Y-174564626D01*
X164980707Y-172864946D01*
X164880385Y-173396393D01*
G37*
D12*
%TO.C,D8*%
X237330082Y-153991277D02*
X237730082Y-153991277D01*
X237730082Y-153991277D02*
X237730081Y-153441274D01*
X237730082Y-153991277D02*
X237730083Y-154541278D01*
X237730082Y-153991277D02*
X238330082Y-153591277D01*
X238330082Y-153591277D02*
X238330082Y-154391277D01*
X238330082Y-154391277D02*
X237730082Y-153991277D01*
X238330083Y-153991278D02*
X238830082Y-153991277D01*
%TO.C,D24*%
X161330081Y-146991271D02*
X161730081Y-146991271D01*
X161730081Y-146991271D02*
X161730080Y-146441268D01*
X161730081Y-146991271D02*
X161730082Y-147541272D01*
X161730081Y-146991271D02*
X162330081Y-146591271D01*
X162330081Y-146591271D02*
X162330081Y-147391271D01*
X162330081Y-147391271D02*
X161730081Y-146991271D01*
X162330082Y-146991272D02*
X162830081Y-146991271D01*
D11*
%TO.C,S19*%
X200830076Y-85491273D02*
X200530076Y-85941273D01*
X200380077Y-86341273D01*
X200330076Y-86591273D01*
X200330077Y-86941273D01*
X200330076Y-87241274D01*
X200430076Y-87641273D01*
X200580076Y-87991273D01*
X200730076Y-88241273D01*
X201030076Y-88591273D01*
X201280076Y-88791273D01*
X201730076Y-89041273D01*
X199680076Y-89041272D01*
X199180076Y-89091273D01*
X198830076Y-89191274D01*
X198580076Y-89391272D01*
X198530077Y-88941274D01*
X198330076Y-88391272D01*
X197930076Y-87841273D01*
X197630076Y-87591273D01*
X197130076Y-87291273D01*
X196530076Y-87141273D01*
X196030077Y-87141273D01*
X195580076Y-87241273D01*
X195330076Y-87341273D01*
X194880076Y-87591274D01*
X194730077Y-87491272D01*
X194580076Y-87391273D01*
X194580076Y-86991273D01*
X194680076Y-86591273D01*
X194830076Y-86341273D01*
X194980077Y-86141274D01*
X195130076Y-85991273D01*
X195330076Y-85841273D01*
X195480076Y-85741274D01*
X195680075Y-85641273D01*
X195980076Y-85541273D01*
X196280076Y-85491273D01*
X196480076Y-85491270D01*
X200830076Y-85491273D01*
G36*
X200830076Y-85491273D02*
G01*
X200530076Y-85941273D01*
X200380077Y-86341273D01*
X200330076Y-86591273D01*
X200330077Y-86941273D01*
X200330076Y-87241274D01*
X200430076Y-87641273D01*
X200580076Y-87991273D01*
X200730076Y-88241273D01*
X201030076Y-88591273D01*
X201280076Y-88791273D01*
X201730076Y-89041273D01*
X199680076Y-89041272D01*
X199180076Y-89091273D01*
X198830076Y-89191274D01*
X198580076Y-89391272D01*
X198530077Y-88941274D01*
X198330076Y-88391272D01*
X197930076Y-87841273D01*
X197630076Y-87591273D01*
X197130076Y-87291273D01*
X196530076Y-87141273D01*
X196030077Y-87141273D01*
X195580076Y-87241273D01*
X195330076Y-87341273D01*
X194880076Y-87591274D01*
X194730077Y-87491272D01*
X194580076Y-87391273D01*
X194580076Y-86991273D01*
X194680076Y-86591273D01*
X194830076Y-86341273D01*
X194980077Y-86141274D01*
X195130076Y-85991273D01*
X195330076Y-85841273D01*
X195480076Y-85741274D01*
X195680075Y-85641273D01*
X195980076Y-85541273D01*
X196280076Y-85491273D01*
X196480076Y-85491270D01*
X200830076Y-85491273D01*
G37*
%TO.C,S21*%
X181830077Y-126491277D02*
X181530077Y-126941277D01*
X181380078Y-127341277D01*
X181330077Y-127591277D01*
X181330078Y-127941277D01*
X181330077Y-128241278D01*
X181430077Y-128641277D01*
X181580077Y-128991277D01*
X181730077Y-129241277D01*
X182030077Y-129591277D01*
X182280077Y-129791277D01*
X182730077Y-130041277D01*
X180680077Y-130041276D01*
X180180077Y-130091277D01*
X179830077Y-130191278D01*
X179580077Y-130391276D01*
X179530078Y-129941278D01*
X179330077Y-129391276D01*
X178930077Y-128841277D01*
X178630077Y-128591277D01*
X178130077Y-128291277D01*
X177530077Y-128141277D01*
X177030078Y-128141277D01*
X176580077Y-128241277D01*
X176330077Y-128341277D01*
X175880077Y-128591278D01*
X175730078Y-128491276D01*
X175580077Y-128391277D01*
X175580077Y-127991277D01*
X175680077Y-127591277D01*
X175830077Y-127341277D01*
X175980078Y-127141278D01*
X176130077Y-126991277D01*
X176330077Y-126841277D01*
X176480077Y-126741278D01*
X176680076Y-126641277D01*
X176980077Y-126541277D01*
X177280077Y-126491277D01*
X177480077Y-126491274D01*
X181830077Y-126491277D01*
G36*
X181830077Y-126491277D02*
G01*
X181530077Y-126941277D01*
X181380078Y-127341277D01*
X181330077Y-127591277D01*
X181330078Y-127941277D01*
X181330077Y-128241278D01*
X181430077Y-128641277D01*
X181580077Y-128991277D01*
X181730077Y-129241277D01*
X182030077Y-129591277D01*
X182280077Y-129791277D01*
X182730077Y-130041277D01*
X180680077Y-130041276D01*
X180180077Y-130091277D01*
X179830077Y-130191278D01*
X179580077Y-130391276D01*
X179530078Y-129941278D01*
X179330077Y-129391276D01*
X178930077Y-128841277D01*
X178630077Y-128591277D01*
X178130077Y-128291277D01*
X177530077Y-128141277D01*
X177030078Y-128141277D01*
X176580077Y-128241277D01*
X176330077Y-128341277D01*
X175880077Y-128591278D01*
X175730078Y-128491276D01*
X175580077Y-128391277D01*
X175580077Y-127991277D01*
X175680077Y-127591277D01*
X175830077Y-127341277D01*
X175980078Y-127141278D01*
X176130077Y-126991277D01*
X176330077Y-126841277D01*
X176480077Y-126741278D01*
X176680076Y-126641277D01*
X176980077Y-126541277D01*
X177280077Y-126491277D01*
X177480077Y-126491274D01*
X181830077Y-126491277D01*
G37*
D12*
%TO.C,D3*%
X279919393Y-128198445D02*
X280317204Y-128240255D01*
X280317204Y-128240255D02*
X280259712Y-128787243D01*
X280317204Y-128240255D02*
X280374691Y-127693269D01*
X280317204Y-128240255D02*
X280955726Y-127905165D01*
X280872103Y-128700782D02*
X280317204Y-128240255D01*
X280913914Y-128302973D02*
X281411175Y-128355237D01*
X280955726Y-127905165D02*
X280872103Y-128700782D01*
%TO.C,D16*%
X199330076Y-153991276D02*
X199730076Y-153991276D01*
X199730076Y-153991276D02*
X199730075Y-153441273D01*
X199730076Y-153991276D02*
X199730077Y-154541277D01*
X199730076Y-153991276D02*
X200330076Y-153591276D01*
X200330076Y-153591276D02*
X200330076Y-154391276D01*
X200330076Y-154391276D02*
X199730076Y-153991276D01*
X200330077Y-153991277D02*
X200830076Y-153991276D01*
D11*
%TO.C,S10*%
X238830081Y-104491274D02*
X238530081Y-104941274D01*
X238380082Y-105341274D01*
X238330081Y-105591274D01*
X238330082Y-105941274D01*
X238330081Y-106241275D01*
X238430081Y-106641274D01*
X238580081Y-106991274D01*
X238730081Y-107241274D01*
X239030081Y-107591274D01*
X239280081Y-107791274D01*
X239730081Y-108041274D01*
X237680081Y-108041273D01*
X237180081Y-108091274D01*
X236830081Y-108191275D01*
X236580081Y-108391273D01*
X236530082Y-107941275D01*
X236330081Y-107391273D01*
X235930081Y-106841274D01*
X235630081Y-106591274D01*
X235130081Y-106291274D01*
X234530081Y-106141274D01*
X234030082Y-106141274D01*
X233580081Y-106241274D01*
X233330081Y-106341274D01*
X232880081Y-106591275D01*
X232730082Y-106491273D01*
X232580081Y-106391274D01*
X232580081Y-105991274D01*
X232680081Y-105591274D01*
X232830081Y-105341274D01*
X232980082Y-105141275D01*
X233130081Y-104991274D01*
X233330081Y-104841274D01*
X233480081Y-104741275D01*
X233680080Y-104641274D01*
X233980081Y-104541274D01*
X234280081Y-104491274D01*
X234480081Y-104491271D01*
X238830081Y-104491274D01*
G36*
X238830081Y-104491274D02*
G01*
X238530081Y-104941274D01*
X238380082Y-105341274D01*
X238330081Y-105591274D01*
X238330082Y-105941274D01*
X238330081Y-106241275D01*
X238430081Y-106641274D01*
X238580081Y-106991274D01*
X238730081Y-107241274D01*
X239030081Y-107591274D01*
X239280081Y-107791274D01*
X239730081Y-108041274D01*
X237680081Y-108041273D01*
X237180081Y-108091274D01*
X236830081Y-108191275D01*
X236580081Y-108391273D01*
X236530082Y-107941275D01*
X236330081Y-107391273D01*
X235930081Y-106841274D01*
X235630081Y-106591274D01*
X235130081Y-106291274D01*
X234530081Y-106141274D01*
X234030082Y-106141274D01*
X233580081Y-106241274D01*
X233330081Y-106341274D01*
X232880081Y-106591275D01*
X232730082Y-106491273D01*
X232580081Y-106391274D01*
X232580081Y-105991274D01*
X232680081Y-105591274D01*
X232830081Y-105341274D01*
X232980082Y-105141275D01*
X233130081Y-104991274D01*
X233330081Y-104841274D01*
X233480081Y-104741275D01*
X233680080Y-104641274D01*
X233980081Y-104541274D01*
X234280081Y-104491274D01*
X234480081Y-104491271D01*
X238830081Y-104491274D01*
G37*
D12*
%TO.C,D14*%
X218330080Y-112991271D02*
X218730080Y-112991271D01*
X218730080Y-112991271D02*
X218730079Y-112441268D01*
X218730080Y-112991271D02*
X218730081Y-113541272D01*
X218730080Y-112991271D02*
X219330080Y-112591271D01*
X219330080Y-112591271D02*
X219330080Y-113391271D01*
X219330080Y-113391271D02*
X218730080Y-112991271D01*
X219330081Y-112991272D02*
X219830080Y-112991271D01*
%TO.C,D17*%
X199330078Y-134991274D02*
X199730078Y-134991274D01*
X199730078Y-134991274D02*
X199730077Y-134441271D01*
X199730078Y-134991274D02*
X199730079Y-135541275D01*
X199730078Y-134991274D02*
X200330078Y-134591274D01*
X200330078Y-134591274D02*
X200330078Y-135391274D01*
X200330078Y-135391274D02*
X199730078Y-134991274D01*
X200330079Y-134991275D02*
X200830078Y-134991274D01*
%TO.C,D9*%
X237330075Y-134991272D02*
X237730075Y-134991272D01*
X237730075Y-134991272D02*
X237730074Y-134441269D01*
X237730075Y-134991272D02*
X237730076Y-135541273D01*
X237730075Y-134991272D02*
X238330075Y-134591272D01*
X238330075Y-134591272D02*
X238330075Y-135391272D01*
X238330075Y-135391272D02*
X237730075Y-134991272D01*
X238330076Y-134991273D02*
X238830075Y-134991272D01*
D11*
%TO.C,S14*%
X219830076Y-101491270D02*
X219530076Y-101941270D01*
X219380077Y-102341270D01*
X219330076Y-102591270D01*
X219330077Y-102941270D01*
X219330076Y-103241271D01*
X219430076Y-103641270D01*
X219580076Y-103991270D01*
X219730076Y-104241270D01*
X220030076Y-104591270D01*
X220280076Y-104791270D01*
X220730076Y-105041270D01*
X218680076Y-105041269D01*
X218180076Y-105091270D01*
X217830076Y-105191271D01*
X217580076Y-105391269D01*
X217530077Y-104941271D01*
X217330076Y-104391269D01*
X216930076Y-103841270D01*
X216630076Y-103591270D01*
X216130076Y-103291270D01*
X215530076Y-103141270D01*
X215030077Y-103141270D01*
X214580076Y-103241270D01*
X214330076Y-103341270D01*
X213880076Y-103591271D01*
X213730077Y-103491269D01*
X213580076Y-103391270D01*
X213580076Y-102991270D01*
X213680076Y-102591270D01*
X213830076Y-102341270D01*
X213980077Y-102141271D01*
X214130076Y-101991270D01*
X214330076Y-101841270D01*
X214480076Y-101741271D01*
X214680075Y-101641270D01*
X214980076Y-101541270D01*
X215280076Y-101491270D01*
X215480076Y-101491267D01*
X219830076Y-101491270D01*
G36*
X219830076Y-101491270D02*
G01*
X219530076Y-101941270D01*
X219380077Y-102341270D01*
X219330076Y-102591270D01*
X219330077Y-102941270D01*
X219330076Y-103241271D01*
X219430076Y-103641270D01*
X219580076Y-103991270D01*
X219730076Y-104241270D01*
X220030076Y-104591270D01*
X220280076Y-104791270D01*
X220730076Y-105041270D01*
X218680076Y-105041269D01*
X218180076Y-105091270D01*
X217830076Y-105191271D01*
X217580076Y-105391269D01*
X217530077Y-104941271D01*
X217330076Y-104391269D01*
X216930076Y-103841270D01*
X216630076Y-103591270D01*
X216130076Y-103291270D01*
X215530076Y-103141270D01*
X215030077Y-103141270D01*
X214580076Y-103241270D01*
X214330076Y-103341270D01*
X213880076Y-103591271D01*
X213730077Y-103491269D01*
X213580076Y-103391270D01*
X213580076Y-102991270D01*
X213680076Y-102591270D01*
X213830076Y-102341270D01*
X213980077Y-102141271D01*
X214130076Y-101991270D01*
X214330076Y-101841270D01*
X214480076Y-101741271D01*
X214680075Y-101641270D01*
X214980076Y-101541270D01*
X215280076Y-101491270D01*
X215480076Y-101491267D01*
X219830076Y-101491270D01*
G37*
D12*
%TO.C,D1*%
X275947310Y-165990273D02*
X276345121Y-166032083D01*
X276345121Y-166032083D02*
X276287629Y-166579071D01*
X276345121Y-166032083D02*
X276402608Y-165485097D01*
X276345121Y-166032083D02*
X276983643Y-165696993D01*
X276900020Y-166492610D02*
X276345121Y-166032083D01*
X276941831Y-166094801D02*
X277439092Y-166147065D01*
X276983643Y-165696993D02*
X276900020Y-166492610D01*
%TO.C,D11*%
X237330071Y-96991277D02*
X237730071Y-96991277D01*
X237730071Y-96991277D02*
X237730070Y-96441274D01*
X237730071Y-96991277D02*
X237730072Y-97541278D01*
X237730071Y-96991277D02*
X238330071Y-96591277D01*
X238330071Y-96591277D02*
X238330071Y-97391277D01*
X238330071Y-97391277D02*
X237730071Y-96991277D01*
X238330072Y-96991278D02*
X238830071Y-96991277D01*
D11*
%TO.C,S15*%
X219830073Y-82491271D02*
X219530073Y-82941271D01*
X219380074Y-83341271D01*
X219330073Y-83591271D01*
X219330074Y-83941271D01*
X219330073Y-84241272D01*
X219430073Y-84641271D01*
X219580073Y-84991271D01*
X219730073Y-85241271D01*
X220030073Y-85591271D01*
X220280073Y-85791271D01*
X220730073Y-86041271D01*
X218680073Y-86041270D01*
X218180073Y-86091271D01*
X217830073Y-86191272D01*
X217580073Y-86391270D01*
X217530074Y-85941272D01*
X217330073Y-85391270D01*
X216930073Y-84841271D01*
X216630073Y-84591271D01*
X216130073Y-84291271D01*
X215530073Y-84141271D01*
X215030074Y-84141271D01*
X214580073Y-84241271D01*
X214330073Y-84341271D01*
X213880073Y-84591272D01*
X213730074Y-84491270D01*
X213580073Y-84391271D01*
X213580073Y-83991271D01*
X213680073Y-83591271D01*
X213830073Y-83341271D01*
X213980074Y-83141272D01*
X214130073Y-82991271D01*
X214330073Y-82841271D01*
X214480073Y-82741272D01*
X214680072Y-82641271D01*
X214980073Y-82541271D01*
X215280073Y-82491271D01*
X215480073Y-82491268D01*
X219830073Y-82491271D01*
G36*
X219830073Y-82491271D02*
G01*
X219530073Y-82941271D01*
X219380074Y-83341271D01*
X219330073Y-83591271D01*
X219330074Y-83941271D01*
X219330073Y-84241272D01*
X219430073Y-84641271D01*
X219580073Y-84991271D01*
X219730073Y-85241271D01*
X220030073Y-85591271D01*
X220280073Y-85791271D01*
X220730073Y-86041271D01*
X218680073Y-86041270D01*
X218180073Y-86091271D01*
X217830073Y-86191272D01*
X217580073Y-86391270D01*
X217530074Y-85941272D01*
X217330073Y-85391270D01*
X216930073Y-84841271D01*
X216630073Y-84591271D01*
X216130073Y-84291271D01*
X215530073Y-84141271D01*
X215030074Y-84141271D01*
X214580073Y-84241271D01*
X214330073Y-84341271D01*
X213880073Y-84591272D01*
X213730074Y-84491270D01*
X213580073Y-84391271D01*
X213580073Y-83991271D01*
X213680073Y-83591271D01*
X213830073Y-83341271D01*
X213980074Y-83141272D01*
X214130073Y-82991271D01*
X214330073Y-82841271D01*
X214480073Y-82741272D01*
X214680072Y-82641271D01*
X214980073Y-82541271D01*
X215280073Y-82491271D01*
X215480073Y-82491268D01*
X219830073Y-82491271D01*
G37*
D12*
%TO.C,D18*%
X199330076Y-115991277D02*
X199730076Y-115991277D01*
X199730076Y-115991277D02*
X199730075Y-115441274D01*
X199730076Y-115991277D02*
X199730077Y-116541278D01*
X199730076Y-115991277D02*
X200330076Y-115591277D01*
X200330076Y-115591277D02*
X200330076Y-116391277D01*
X200330076Y-116391277D02*
X199730076Y-115991277D01*
X200330077Y-115991278D02*
X200830076Y-115991277D01*
D11*
%TO.C,S18*%
X200830080Y-104491274D02*
X200530080Y-104941274D01*
X200380081Y-105341274D01*
X200330080Y-105591274D01*
X200330081Y-105941274D01*
X200330080Y-106241275D01*
X200430080Y-106641274D01*
X200580080Y-106991274D01*
X200730080Y-107241274D01*
X201030080Y-107591274D01*
X201280080Y-107791274D01*
X201730080Y-108041274D01*
X199680080Y-108041273D01*
X199180080Y-108091274D01*
X198830080Y-108191275D01*
X198580080Y-108391273D01*
X198530081Y-107941275D01*
X198330080Y-107391273D01*
X197930080Y-106841274D01*
X197630080Y-106591274D01*
X197130080Y-106291274D01*
X196530080Y-106141274D01*
X196030081Y-106141274D01*
X195580080Y-106241274D01*
X195330080Y-106341274D01*
X194880080Y-106591275D01*
X194730081Y-106491273D01*
X194580080Y-106391274D01*
X194580080Y-105991274D01*
X194680080Y-105591274D01*
X194830080Y-105341274D01*
X194980081Y-105141275D01*
X195130080Y-104991274D01*
X195330080Y-104841274D01*
X195480080Y-104741275D01*
X195680079Y-104641274D01*
X195980080Y-104541274D01*
X196280080Y-104491274D01*
X196480080Y-104491271D01*
X200830080Y-104491274D01*
G36*
X200830080Y-104491274D02*
G01*
X200530080Y-104941274D01*
X200380081Y-105341274D01*
X200330080Y-105591274D01*
X200330081Y-105941274D01*
X200330080Y-106241275D01*
X200430080Y-106641274D01*
X200580080Y-106991274D01*
X200730080Y-107241274D01*
X201030080Y-107591274D01*
X201280080Y-107791274D01*
X201730080Y-108041274D01*
X199680080Y-108041273D01*
X199180080Y-108091274D01*
X198830080Y-108191275D01*
X198580080Y-108391273D01*
X198530081Y-107941275D01*
X198330080Y-107391273D01*
X197930080Y-106841274D01*
X197630080Y-106591274D01*
X197130080Y-106291274D01*
X196530080Y-106141274D01*
X196030081Y-106141274D01*
X195580080Y-106241274D01*
X195330080Y-106341274D01*
X194880080Y-106591275D01*
X194730081Y-106491273D01*
X194580080Y-106391274D01*
X194580080Y-105991274D01*
X194680080Y-105591274D01*
X194830080Y-105341274D01*
X194980081Y-105141275D01*
X195130080Y-104991274D01*
X195330080Y-104841274D01*
X195480080Y-104741275D01*
X195680079Y-104641274D01*
X195980080Y-104541274D01*
X196280080Y-104491274D01*
X196480080Y-104491271D01*
X200830080Y-104491274D01*
G37*
D12*
%TO.C,D23*%
X180330072Y-99991274D02*
X180730072Y-99991274D01*
X180730072Y-99991274D02*
X180730071Y-99441271D01*
X180730072Y-99991274D02*
X180730073Y-100541275D01*
X180730072Y-99991274D02*
X181330072Y-99591274D01*
X181330072Y-99591274D02*
X181330072Y-100391274D01*
X181330072Y-100391274D02*
X180730072Y-99991274D01*
X181330073Y-99991275D02*
X181830072Y-99991274D01*
D11*
%TO.C,S5*%
X255428221Y-130373693D02*
X259772260Y-130601354D01*
X259449120Y-131035034D01*
X259278391Y-131426638D01*
X259215376Y-131673679D01*
X259197059Y-132023200D01*
X259181357Y-132322789D01*
X259260286Y-132727473D01*
X259391763Y-133084844D01*
X259528473Y-133342352D01*
X259809744Y-133707573D01*
X260048935Y-133920386D01*
X260485234Y-134193591D01*
X258438043Y-134086302D01*
X257936111Y-134110068D01*
X257581358Y-134191612D01*
X257321233Y-134378254D01*
X257294853Y-133926253D01*
X257123912Y-133366539D01*
X256753245Y-132796359D01*
X256466742Y-132531003D01*
X255983126Y-132205244D01*
X255391798Y-132024049D01*
X254892485Y-131997880D01*
X254437867Y-132074192D01*
X254182976Y-132160971D01*
X253720509Y-132387078D01*
X253575949Y-132279363D01*
X253431387Y-132171650D01*
X253452321Y-131772199D01*
X253573119Y-131377980D01*
X253735997Y-131136173D01*
X253896262Y-130944299D01*
X254053904Y-130802354D01*
X254261480Y-130663027D01*
X254416508Y-130571015D01*
X254621467Y-130481619D01*
X254926290Y-130397456D01*
X255228493Y-130363225D01*
X255428221Y-130373693D01*
G36*
X255428221Y-130373693D02*
G01*
X259772260Y-130601354D01*
X259449120Y-131035034D01*
X259278391Y-131426638D01*
X259215376Y-131673679D01*
X259197059Y-132023200D01*
X259181357Y-132322789D01*
X259260286Y-132727473D01*
X259391763Y-133084844D01*
X259528473Y-133342352D01*
X259809744Y-133707573D01*
X260048935Y-133920386D01*
X260485234Y-134193591D01*
X258438043Y-134086302D01*
X257936111Y-134110068D01*
X257581358Y-134191612D01*
X257321233Y-134378254D01*
X257294853Y-133926253D01*
X257123912Y-133366539D01*
X256753245Y-132796359D01*
X256466742Y-132531003D01*
X255983126Y-132205244D01*
X255391798Y-132024049D01*
X254892485Y-131997880D01*
X254437867Y-132074192D01*
X254182976Y-132160971D01*
X253720509Y-132387078D01*
X253575949Y-132279363D01*
X253431387Y-132171650D01*
X253452321Y-131772199D01*
X253573119Y-131377980D01*
X253735997Y-131136173D01*
X253896262Y-130944299D01*
X254053904Y-130802354D01*
X254261480Y-130663027D01*
X254416508Y-130571015D01*
X254621467Y-130481619D01*
X254926290Y-130397456D01*
X255228493Y-130363225D01*
X255428221Y-130373693D01*
G37*
D12*
%TO.C,D25*%
X189830081Y-179641281D02*
X190230081Y-179641281D01*
X190230081Y-179641281D02*
X190230080Y-179091278D01*
X190230081Y-179641281D02*
X190230082Y-180191282D01*
X190230081Y-179641281D02*
X190830081Y-179241281D01*
X190830081Y-179241281D02*
X190830081Y-180041281D01*
X190830081Y-180041281D02*
X190230081Y-179641281D01*
X190830082Y-179641282D02*
X191330081Y-179641281D01*
D11*
%TO.C,S7*%
X257416983Y-92425772D02*
X261761022Y-92653433D01*
X261437882Y-93087113D01*
X261267153Y-93478717D01*
X261204138Y-93725758D01*
X261185821Y-94075279D01*
X261170119Y-94374868D01*
X261249048Y-94779552D01*
X261380525Y-95136923D01*
X261517235Y-95394431D01*
X261798506Y-95759652D01*
X262037697Y-95972465D01*
X262473996Y-96245670D01*
X260426805Y-96138381D01*
X259924873Y-96162147D01*
X259570120Y-96243691D01*
X259309995Y-96430333D01*
X259283615Y-95978332D01*
X259112674Y-95418618D01*
X258742007Y-94848438D01*
X258455504Y-94583082D01*
X257971888Y-94257323D01*
X257380560Y-94076128D01*
X256881247Y-94049959D01*
X256426629Y-94126271D01*
X256171738Y-94213050D01*
X255709271Y-94439157D01*
X255564711Y-94331442D01*
X255420149Y-94223729D01*
X255441083Y-93824278D01*
X255561881Y-93430059D01*
X255724759Y-93188252D01*
X255885024Y-92996378D01*
X256042666Y-92854433D01*
X256250242Y-92715106D01*
X256405270Y-92623094D01*
X256610229Y-92533698D01*
X256915052Y-92449535D01*
X257217255Y-92415304D01*
X257416983Y-92425772D01*
G36*
X257416983Y-92425772D02*
G01*
X261761022Y-92653433D01*
X261437882Y-93087113D01*
X261267153Y-93478717D01*
X261204138Y-93725758D01*
X261185821Y-94075279D01*
X261170119Y-94374868D01*
X261249048Y-94779552D01*
X261380525Y-95136923D01*
X261517235Y-95394431D01*
X261798506Y-95759652D01*
X262037697Y-95972465D01*
X262473996Y-96245670D01*
X260426805Y-96138381D01*
X259924873Y-96162147D01*
X259570120Y-96243691D01*
X259309995Y-96430333D01*
X259283615Y-95978332D01*
X259112674Y-95418618D01*
X258742007Y-94848438D01*
X258455504Y-94583082D01*
X257971888Y-94257323D01*
X257380560Y-94076128D01*
X256881247Y-94049959D01*
X256426629Y-94126271D01*
X256171738Y-94213050D01*
X255709271Y-94439157D01*
X255564711Y-94331442D01*
X255420149Y-94223729D01*
X255441083Y-93824278D01*
X255561881Y-93430059D01*
X255724759Y-93188252D01*
X255885024Y-92996378D01*
X256042666Y-92854433D01*
X256250242Y-92715106D01*
X256405270Y-92623094D01*
X256610229Y-92533698D01*
X256915052Y-92449535D01*
X257217255Y-92415304D01*
X257416983Y-92425772D01*
G37*
%TO.C,S11*%
X238830074Y-85491271D02*
X238530074Y-85941271D01*
X238380075Y-86341271D01*
X238330074Y-86591271D01*
X238330075Y-86941271D01*
X238330074Y-87241272D01*
X238430074Y-87641271D01*
X238580074Y-87991271D01*
X238730074Y-88241271D01*
X239030074Y-88591271D01*
X239280074Y-88791271D01*
X239730074Y-89041271D01*
X237680074Y-89041270D01*
X237180074Y-89091271D01*
X236830074Y-89191272D01*
X236580074Y-89391270D01*
X236530075Y-88941272D01*
X236330074Y-88391270D01*
X235930074Y-87841271D01*
X235630074Y-87591271D01*
X235130074Y-87291271D01*
X234530074Y-87141271D01*
X234030075Y-87141271D01*
X233580074Y-87241271D01*
X233330074Y-87341271D01*
X232880074Y-87591272D01*
X232730075Y-87491270D01*
X232580074Y-87391271D01*
X232580074Y-86991271D01*
X232680074Y-86591271D01*
X232830074Y-86341271D01*
X232980075Y-86141272D01*
X233130074Y-85991271D01*
X233330074Y-85841271D01*
X233480074Y-85741272D01*
X233680073Y-85641271D01*
X233980074Y-85541271D01*
X234280074Y-85491271D01*
X234480074Y-85491268D01*
X238830074Y-85491271D01*
G36*
X238830074Y-85491271D02*
G01*
X238530074Y-85941271D01*
X238380075Y-86341271D01*
X238330074Y-86591271D01*
X238330075Y-86941271D01*
X238330074Y-87241272D01*
X238430074Y-87641271D01*
X238580074Y-87991271D01*
X238730074Y-88241271D01*
X239030074Y-88591271D01*
X239280074Y-88791271D01*
X239730074Y-89041271D01*
X237680074Y-89041270D01*
X237180074Y-89091271D01*
X236830074Y-89191272D01*
X236580074Y-89391270D01*
X236530075Y-88941272D01*
X236330074Y-88391270D01*
X235930074Y-87841271D01*
X235630074Y-87591271D01*
X235130074Y-87291271D01*
X234530074Y-87141271D01*
X234030075Y-87141271D01*
X233580074Y-87241271D01*
X233330074Y-87341271D01*
X232880074Y-87591272D01*
X232730075Y-87491270D01*
X232580074Y-87391271D01*
X232580074Y-86991271D01*
X232680074Y-86591271D01*
X232830074Y-86341271D01*
X232980075Y-86141272D01*
X233130074Y-85991271D01*
X233330074Y-85841271D01*
X233480074Y-85741272D01*
X233680073Y-85641271D01*
X233980074Y-85541271D01*
X234280074Y-85491271D01*
X234480074Y-85491268D01*
X238830074Y-85491271D01*
G37*
%TO.C,S6*%
X256422602Y-111399730D02*
X260766641Y-111627391D01*
X260443501Y-112061071D01*
X260272772Y-112452675D01*
X260209757Y-112699716D01*
X260191440Y-113049237D01*
X260175738Y-113348826D01*
X260254667Y-113753510D01*
X260386144Y-114110881D01*
X260522854Y-114368389D01*
X260804125Y-114733610D01*
X261043316Y-114946423D01*
X261479615Y-115219628D01*
X259432424Y-115112339D01*
X258930492Y-115136105D01*
X258575739Y-115217649D01*
X258315614Y-115404291D01*
X258289234Y-114952290D01*
X258118293Y-114392576D01*
X257747626Y-113822396D01*
X257461123Y-113557040D01*
X256977507Y-113231281D01*
X256386179Y-113050086D01*
X255886866Y-113023917D01*
X255432248Y-113100229D01*
X255177357Y-113187008D01*
X254714890Y-113413115D01*
X254570330Y-113305400D01*
X254425768Y-113197687D01*
X254446702Y-112798236D01*
X254567500Y-112404017D01*
X254730378Y-112162210D01*
X254890643Y-111970336D01*
X255048285Y-111828391D01*
X255255861Y-111689064D01*
X255410889Y-111597052D01*
X255615848Y-111507656D01*
X255920671Y-111423493D01*
X256222874Y-111389262D01*
X256422602Y-111399730D01*
G36*
X256422602Y-111399730D02*
G01*
X260766641Y-111627391D01*
X260443501Y-112061071D01*
X260272772Y-112452675D01*
X260209757Y-112699716D01*
X260191440Y-113049237D01*
X260175738Y-113348826D01*
X260254667Y-113753510D01*
X260386144Y-114110881D01*
X260522854Y-114368389D01*
X260804125Y-114733610D01*
X261043316Y-114946423D01*
X261479615Y-115219628D01*
X259432424Y-115112339D01*
X258930492Y-115136105D01*
X258575739Y-115217649D01*
X258315614Y-115404291D01*
X258289234Y-114952290D01*
X258118293Y-114392576D01*
X257747626Y-113822396D01*
X257461123Y-113557040D01*
X256977507Y-113231281D01*
X256386179Y-113050086D01*
X255886866Y-113023917D01*
X255432248Y-113100229D01*
X255177357Y-113187008D01*
X254714890Y-113413115D01*
X254570330Y-113305400D01*
X254425768Y-113197687D01*
X254446702Y-112798236D01*
X254567500Y-112404017D01*
X254730378Y-112162210D01*
X254890643Y-111970336D01*
X255048285Y-111828391D01*
X255255861Y-111689064D01*
X255410889Y-111597052D01*
X255615848Y-111507656D01*
X255920671Y-111423493D01*
X256222874Y-111389262D01*
X256422602Y-111399730D01*
G37*
%TO.C,S16*%
X200830074Y-142491269D02*
X200530074Y-142941269D01*
X200380075Y-143341269D01*
X200330074Y-143591269D01*
X200330075Y-143941269D01*
X200330074Y-144241270D01*
X200430074Y-144641269D01*
X200580074Y-144991269D01*
X200730074Y-145241269D01*
X201030074Y-145591269D01*
X201280074Y-145791269D01*
X201730074Y-146041269D01*
X199680074Y-146041268D01*
X199180074Y-146091269D01*
X198830074Y-146191270D01*
X198580074Y-146391268D01*
X198530075Y-145941270D01*
X198330074Y-145391268D01*
X197930074Y-144841269D01*
X197630074Y-144591269D01*
X197130074Y-144291269D01*
X196530074Y-144141269D01*
X196030075Y-144141269D01*
X195580074Y-144241269D01*
X195330074Y-144341269D01*
X194880074Y-144591270D01*
X194730075Y-144491268D01*
X194580074Y-144391269D01*
X194580074Y-143991269D01*
X194680074Y-143591269D01*
X194830074Y-143341269D01*
X194980075Y-143141270D01*
X195130074Y-142991269D01*
X195330074Y-142841269D01*
X195480074Y-142741270D01*
X195680073Y-142641269D01*
X195980074Y-142541269D01*
X196280074Y-142491269D01*
X196480074Y-142491266D01*
X200830074Y-142491269D01*
G36*
X200830074Y-142491269D02*
G01*
X200530074Y-142941269D01*
X200380075Y-143341269D01*
X200330074Y-143591269D01*
X200330075Y-143941269D01*
X200330074Y-144241270D01*
X200430074Y-144641269D01*
X200580074Y-144991269D01*
X200730074Y-145241269D01*
X201030074Y-145591269D01*
X201280074Y-145791269D01*
X201730074Y-146041269D01*
X199680074Y-146041268D01*
X199180074Y-146091269D01*
X198830074Y-146191270D01*
X198580074Y-146391268D01*
X198530075Y-145941270D01*
X198330074Y-145391268D01*
X197930074Y-144841269D01*
X197630074Y-144591269D01*
X197130074Y-144291269D01*
X196530074Y-144141269D01*
X196030075Y-144141269D01*
X195580074Y-144241269D01*
X195330074Y-144341269D01*
X194880074Y-144591270D01*
X194730075Y-144491268D01*
X194580074Y-144391269D01*
X194580074Y-143991269D01*
X194680074Y-143591269D01*
X194830074Y-143341269D01*
X194980075Y-143141270D01*
X195130074Y-142991269D01*
X195330074Y-142841269D01*
X195480074Y-142741270D01*
X195680073Y-142641269D01*
X195980074Y-142541269D01*
X196280074Y-142491269D01*
X196480074Y-142491266D01*
X200830074Y-142491269D01*
G37*
D12*
%TO.C,D19*%
X199330076Y-96991278D02*
X199730076Y-96991278D01*
X199730076Y-96991278D02*
X199730075Y-96441275D01*
X199730076Y-96991278D02*
X199730077Y-97541279D01*
X199730076Y-96991278D02*
X200330076Y-96591278D01*
X200330076Y-96591278D02*
X200330076Y-97391278D01*
X200330076Y-97391278D02*
X199730076Y-96991278D01*
X200330077Y-96991279D02*
X200830076Y-96991278D01*
%TD*%
M02*
