%TF.GenerationSoftware,KiCad,Pcbnew,9.0.0*%
%TF.CreationDate,2025-04-09T21:05:46+02:00*%
%TF.ProjectId,right,72696768-742e-46b6-9963-61645f706362,1*%
%TF.SameCoordinates,Original*%
%TF.FileFunction,Drillmap*%
%TF.FilePolarity,Positive*%
%FSLAX45Y45*%
G04 Gerber Fmt 4.5, Leading zero omitted, Abs format (unit mm)*
G04 Created by KiCad (PCBNEW 9.0.0) date 2025-04-09 21:05:46*
%MOMM*%
%LPD*%
G01*
G04 APERTURE LIST*
%ADD10C,0.150000*%
%ADD11C,0.200000*%
%ADD12C,0.100000*%
%ADD13C,0.190000*%
%ADD14C,0.300000*%
%ADD15C,0.410000*%
G04 APERTURE END LIST*
D10*
X13191587Y-19477706D02*
X14564481Y-20850601D01*
X24866947Y-7624279D02*
X14620433Y-7631978D01*
X27279216Y-10784284D02*
X27380539Y-8918280D01*
X16178512Y-19479508D02*
G75*
G02*
X16247285Y-19433306I143488J-139302D01*
G01*
X13191587Y-19477706D02*
G75*
G02*
X13133011Y-19336285I141443J141426D01*
G01*
X29304692Y-11188125D02*
G75*
G02*
X29482694Y-11407936I-20902J-198905D01*
G01*
X20322584Y-16568702D02*
G75*
G02*
X20522584Y-16369134I199996J-428D01*
G01*
X25253994Y-8606180D02*
G75*
G02*
X25064458Y-8405547I10466J199730D01*
G01*
X20522584Y-16369127D02*
X23929148Y-16369127D01*
X20318432Y-18524552D02*
X20322584Y-16568702D01*
X14420584Y-7832053D02*
X14422966Y-14091487D01*
X13133007Y-15158719D02*
X13133007Y-19336285D01*
X24866947Y-7624279D02*
G75*
G02*
X25067099Y-7825185I153J-200001D01*
G01*
X27191301Y-8707710D02*
X25253994Y-8606180D01*
X14849398Y-20848495D02*
X16178512Y-19479508D01*
X28861776Y-17315537D02*
G75*
G02*
X28663118Y-17494631I-198897J20897D01*
G01*
X23929148Y-16369127D02*
G75*
G02*
X24077566Y-16435073I2J-199983D01*
G01*
X14849398Y-20848495D02*
G75*
G02*
X14564479Y-20850603I-143498J139315D01*
G01*
X25064463Y-8405547D02*
X25067095Y-7825185D01*
X14420584Y-7832053D02*
G75*
G02*
X14620433Y-7631984I199996J73D01*
G01*
X17972050Y-18738611D02*
G75*
G02*
X18046772Y-18724129I74720J-185519D01*
G01*
X27191301Y-8707710D02*
G75*
G02*
X27380541Y-8918280I-10471J-199730D01*
G01*
X13133007Y-15158719D02*
G75*
G02*
X13222786Y-14991833I199983J9D01*
G01*
X14422966Y-14091487D02*
G75*
G02*
X14333192Y-14258452I-199996J-83D01*
G01*
X14333189Y-14258449D02*
X13222785Y-14991833D01*
X20318432Y-18524552D02*
G75*
G02*
X20118433Y-18724132I-200002J422D01*
G01*
X25127629Y-17498987D02*
X28663118Y-17494631D01*
X27458016Y-10994032D02*
G75*
G02*
X27279217Y-10784284I20904J198902D01*
G01*
X24077569Y-16435071D02*
X24978962Y-17433044D01*
X29304692Y-11188125D02*
X27458016Y-10994032D01*
X16247285Y-19433307D02*
X17972050Y-18738611D01*
X18046772Y-18724128D02*
X20118433Y-18724128D01*
X28861776Y-17315537D02*
X29482691Y-11407936D01*
X25127629Y-17498987D02*
G75*
G02*
X24978964Y-17433043I-249J199987D01*
G01*
D11*
D12*
X17113008Y-7776628D02*
X17203008Y-7866628D01*
X17203008Y-7776628D02*
X17113008Y-7866628D01*
X17413008Y-7776628D02*
X17503008Y-7866628D01*
X17503008Y-7776628D02*
X17413008Y-7866628D01*
D13*
X14414751Y-19621766D02*
G75*
G02*
X14224751Y-19621766I-95000J0D01*
G01*
X14224751Y-19621766D02*
G75*
G02*
X14414751Y-19621766I95000J0D01*
G01*
X15120524Y-18890917D02*
G75*
G02*
X14930524Y-18890917I-95000J0D01*
G01*
X14930524Y-18890917D02*
G75*
G02*
X15120524Y-18890917I95000J0D01*
G01*
X15795008Y-14199128D02*
G75*
G02*
X15605008Y-14199128I-95000J0D01*
G01*
X15605008Y-14199128D02*
G75*
G02*
X15795008Y-14199128I95000J0D01*
G01*
X16310392Y-18112619D02*
G75*
G02*
X16120392Y-18112619I-95000J0D01*
G01*
X16120392Y-18112619D02*
G75*
G02*
X16310392Y-18112619I95000J0D01*
G01*
X16811008Y-14199128D02*
G75*
G02*
X16621008Y-14199128I-95000J0D01*
G01*
X16621008Y-14199128D02*
G75*
G02*
X16811008Y-14199128I95000J0D01*
G01*
X17245625Y-17715636D02*
G75*
G02*
X17055625Y-17715636I-95000J0D01*
G01*
X17055625Y-17715636D02*
G75*
G02*
X17245625Y-17715636I95000J0D01*
G01*
X17695007Y-11399127D02*
G75*
G02*
X17505007Y-11399127I-95000J0D01*
G01*
X17505007Y-11399127D02*
G75*
G02*
X17695007Y-11399127I95000J0D01*
G01*
X17695008Y-13299128D02*
G75*
G02*
X17505008Y-13299128I-95000J0D01*
G01*
X17505008Y-13299128D02*
G75*
G02*
X17695008Y-13299128I95000J0D01*
G01*
X17695008Y-9499128D02*
G75*
G02*
X17505008Y-9499128I-95000J0D01*
G01*
X17505008Y-9499128D02*
G75*
G02*
X17695008Y-9499128I95000J0D01*
G01*
X17695009Y-15199127D02*
G75*
G02*
X17505009Y-15199127I-95000J0D01*
G01*
X17505009Y-15199127D02*
G75*
G02*
X17695009Y-15199127I95000J0D01*
G01*
X18645008Y-17464128D02*
G75*
G02*
X18455008Y-17464128I-95000J0D01*
G01*
X18455008Y-17464128D02*
G75*
G02*
X18645008Y-17464128I95000J0D01*
G01*
X18711007Y-11399127D02*
G75*
G02*
X18521007Y-11399127I-95000J0D01*
G01*
X18521007Y-11399127D02*
G75*
G02*
X18711007Y-11399127I95000J0D01*
G01*
X18711008Y-13299128D02*
G75*
G02*
X18521008Y-13299128I-95000J0D01*
G01*
X18521008Y-13299128D02*
G75*
G02*
X18711008Y-13299128I95000J0D01*
G01*
X18711008Y-9499128D02*
G75*
G02*
X18521008Y-9499128I-95000J0D01*
G01*
X18521008Y-9499128D02*
G75*
G02*
X18711008Y-9499128I95000J0D01*
G01*
X18711009Y-15199127D02*
G75*
G02*
X18521009Y-15199127I-95000J0D01*
G01*
X18521009Y-15199127D02*
G75*
G02*
X18711009Y-15199127I95000J0D01*
G01*
X19595007Y-14899127D02*
G75*
G02*
X19405007Y-14899127I-95000J0D01*
G01*
X19405007Y-14899127D02*
G75*
G02*
X19595007Y-14899127I95000J0D01*
G01*
X19595008Y-9199127D02*
G75*
G02*
X19405008Y-9199127I-95000J0D01*
G01*
X19405008Y-9199127D02*
G75*
G02*
X19595008Y-9199127I95000J0D01*
G01*
X19595008Y-11099127D02*
G75*
G02*
X19405008Y-11099127I-95000J0D01*
G01*
X19405008Y-11099127D02*
G75*
G02*
X19595008Y-11099127I95000J0D01*
G01*
X19595008Y-12999128D02*
G75*
G02*
X19405008Y-12999128I-95000J0D01*
G01*
X19405008Y-12999128D02*
G75*
G02*
X19595008Y-12999128I95000J0D01*
G01*
X19661008Y-17464128D02*
G75*
G02*
X19471008Y-17464128I-95000J0D01*
G01*
X19471008Y-17464128D02*
G75*
G02*
X19661008Y-17464128I95000J0D01*
G01*
X20611007Y-14899127D02*
G75*
G02*
X20421007Y-14899127I-95000J0D01*
G01*
X20421007Y-14899127D02*
G75*
G02*
X20611007Y-14899127I95000J0D01*
G01*
X20611008Y-9199127D02*
G75*
G02*
X20421008Y-9199127I-95000J0D01*
G01*
X20421008Y-9199127D02*
G75*
G02*
X20611008Y-9199127I95000J0D01*
G01*
X20611008Y-11099127D02*
G75*
G02*
X20421008Y-11099127I-95000J0D01*
G01*
X20421008Y-11099127D02*
G75*
G02*
X20611008Y-11099127I95000J0D01*
G01*
X20611008Y-12999128D02*
G75*
G02*
X20421008Y-12999128I-95000J0D01*
G01*
X20421008Y-12999128D02*
G75*
G02*
X20611008Y-12999128I95000J0D01*
G01*
X21495007Y-8899127D02*
G75*
G02*
X21305007Y-8899127I-95000J0D01*
G01*
X21305007Y-8899127D02*
G75*
G02*
X21495007Y-8899127I95000J0D01*
G01*
X21495008Y-10799127D02*
G75*
G02*
X21305008Y-10799127I-95000J0D01*
G01*
X21305008Y-10799127D02*
G75*
G02*
X21495008Y-10799127I95000J0D01*
G01*
X21495008Y-12699127D02*
G75*
G02*
X21305008Y-12699127I-95000J0D01*
G01*
X21305008Y-12699127D02*
G75*
G02*
X21495008Y-12699127I95000J0D01*
G01*
X21495008Y-14599127D02*
G75*
G02*
X21305008Y-14599127I-95000J0D01*
G01*
X21305008Y-14599127D02*
G75*
G02*
X21495008Y-14599127I95000J0D01*
G01*
X22511007Y-8899127D02*
G75*
G02*
X22321007Y-8899127I-95000J0D01*
G01*
X22321007Y-8899127D02*
G75*
G02*
X22511007Y-8899127I95000J0D01*
G01*
X22511008Y-10799127D02*
G75*
G02*
X22321008Y-10799127I-95000J0D01*
G01*
X22321008Y-10799127D02*
G75*
G02*
X22511008Y-10799127I95000J0D01*
G01*
X22511008Y-12699127D02*
G75*
G02*
X22321008Y-12699127I-95000J0D01*
G01*
X22321008Y-12699127D02*
G75*
G02*
X22511008Y-12699127I95000J0D01*
G01*
X22511008Y-14599127D02*
G75*
G02*
X22321008Y-14599127I-95000J0D01*
G01*
X22321008Y-14599127D02*
G75*
G02*
X22511008Y-14599127I95000J0D01*
G01*
X23395007Y-12999127D02*
G75*
G02*
X23205007Y-12999127I-95000J0D01*
G01*
X23205007Y-12999127D02*
G75*
G02*
X23395007Y-12999127I95000J0D01*
G01*
X23395007Y-9199127D02*
G75*
G02*
X23205007Y-9199127I-95000J0D01*
G01*
X23205007Y-9199127D02*
G75*
G02*
X23395007Y-9199127I95000J0D01*
G01*
X23395008Y-14899128D02*
G75*
G02*
X23205008Y-14899128I-95000J0D01*
G01*
X23205008Y-14899128D02*
G75*
G02*
X23395008Y-14899128I95000J0D01*
G01*
X23395008Y-11099127D02*
G75*
G02*
X23205008Y-11099127I-95000J0D01*
G01*
X23205008Y-11099127D02*
G75*
G02*
X23395008Y-11099127I95000J0D01*
G01*
X24411007Y-12999127D02*
G75*
G02*
X24221007Y-12999127I-95000J0D01*
G01*
X24221007Y-12999127D02*
G75*
G02*
X24411007Y-12999127I95000J0D01*
G01*
X24411007Y-9199127D02*
G75*
G02*
X24221007Y-9199127I-95000J0D01*
G01*
X24221007Y-9199127D02*
G75*
G02*
X24411007Y-9199127I95000J0D01*
G01*
X24411008Y-14899128D02*
G75*
G02*
X24221008Y-14899128I-95000J0D01*
G01*
X24221008Y-14899128D02*
G75*
G02*
X24411008Y-14899128I95000J0D01*
G01*
X24411008Y-11099127D02*
G75*
G02*
X24221008Y-11099127I-95000J0D01*
G01*
X24221008Y-11099127D02*
G75*
G02*
X24411008Y-11099127I95000J0D01*
G01*
X25356568Y-15576128D02*
G75*
G02*
X25166568Y-15576128I-95000J0D01*
G01*
X25166568Y-15576128D02*
G75*
G02*
X25356568Y-15576128I95000J0D01*
G01*
X25456007Y-13678733D02*
G75*
G02*
X25266007Y-13678733I-95000J0D01*
G01*
X25266007Y-13678733D02*
G75*
G02*
X25456007Y-13678733I95000J0D01*
G01*
X25555445Y-11781336D02*
G75*
G02*
X25365445Y-11781336I-95000J0D01*
G01*
X25365445Y-11781336D02*
G75*
G02*
X25555445Y-11781336I95000J0D01*
G01*
X25654883Y-9883941D02*
G75*
G02*
X25464883Y-9883941I-95000J0D01*
G01*
X25464883Y-9883941D02*
G75*
G02*
X25654883Y-9883941I95000J0D01*
G01*
X26371175Y-15629302D02*
G75*
G02*
X26181175Y-15629302I-95000J0D01*
G01*
X26181175Y-15629302D02*
G75*
G02*
X26371175Y-15629302I95000J0D01*
G01*
X26470614Y-13731906D02*
G75*
G02*
X26280614Y-13731906I-95000J0D01*
G01*
X26280614Y-13731906D02*
G75*
G02*
X26470614Y-13731906I95000J0D01*
G01*
X26570052Y-11834510D02*
G75*
G02*
X26380052Y-11834510I-95000J0D01*
G01*
X26380052Y-11834510D02*
G75*
G02*
X26570052Y-11834510I95000J0D01*
G01*
X26669490Y-9937114D02*
G75*
G02*
X26479490Y-9937114I-95000J0D01*
G01*
X26479490Y-9937114D02*
G75*
G02*
X26669490Y-9937114I95000J0D01*
G01*
X27311368Y-16056506D02*
G75*
G02*
X27121368Y-16056506I-95000J0D01*
G01*
X27121368Y-16056506D02*
G75*
G02*
X27311368Y-16056506I95000J0D01*
G01*
X27509972Y-14166914D02*
G75*
G02*
X27319972Y-14166914I-95000J0D01*
G01*
X27319972Y-14166914D02*
G75*
G02*
X27509972Y-14166914I95000J0D01*
G01*
X27708576Y-12277323D02*
G75*
G02*
X27518576Y-12277323I-95000J0D01*
G01*
X27518576Y-12277323D02*
G75*
G02*
X27708576Y-12277323I95000J0D01*
G01*
X28321802Y-16162707D02*
G75*
G02*
X28131802Y-16162707I-95000J0D01*
G01*
X28131802Y-16162707D02*
G75*
G02*
X28321802Y-16162707I95000J0D01*
G01*
X28520406Y-14273115D02*
G75*
G02*
X28330406Y-14273115I-95000J0D01*
G01*
X28330406Y-14273115D02*
G75*
G02*
X28520406Y-14273115I95000J0D01*
G01*
X28719010Y-12383524D02*
G75*
G02*
X28529010Y-12383524I-95000J0D01*
G01*
X28529010Y-12383524D02*
G75*
G02*
X28719010Y-12383524I95000J0D01*
G01*
D14*
X14225260Y-19203967D02*
X14225260Y-19503967D01*
X14075260Y-19353967D02*
X14375260Y-19353967D01*
X14483656Y-18570743D02*
X14483656Y-18870743D01*
X14333656Y-18720743D02*
X14633656Y-18720743D01*
X15827008Y-13795128D02*
X15827008Y-14095128D01*
X15677008Y-13945128D02*
X15977008Y-13945128D01*
X16233050Y-17679188D02*
X16233050Y-17979188D01*
X16083050Y-17829188D02*
X16383050Y-17829188D01*
X16462008Y-13541128D02*
X16462008Y-13841128D01*
X16312008Y-13691128D02*
X16612008Y-13691128D01*
X16718325Y-17197265D02*
X16718325Y-17497265D01*
X16568325Y-17347265D02*
X16868325Y-17347265D01*
X17727007Y-10995128D02*
X17727007Y-11295127D01*
X17577007Y-11145128D02*
X17877007Y-11145128D01*
X17727008Y-12895128D02*
X17727008Y-13195128D01*
X17577008Y-13045128D02*
X17877008Y-13045128D01*
X17727008Y-9095128D02*
X17727008Y-9395128D01*
X17577008Y-9245128D02*
X17877008Y-9245128D01*
X17727009Y-14795127D02*
X17727009Y-15095127D01*
X17577009Y-14945127D02*
X17877009Y-14945127D01*
X18362007Y-10741128D02*
X18362007Y-11041128D01*
X18212007Y-10891128D02*
X18512007Y-10891128D01*
X18362008Y-12641128D02*
X18362008Y-12941128D01*
X18212008Y-12791128D02*
X18512008Y-12791128D01*
X18362008Y-8841128D02*
X18362008Y-9141128D01*
X18212008Y-8991128D02*
X18512008Y-8991128D01*
X18362009Y-14541127D02*
X18362009Y-14841127D01*
X18212009Y-14691127D02*
X18512009Y-14691127D01*
X18677008Y-17060128D02*
X18677008Y-17360128D01*
X18527008Y-17210128D02*
X18827008Y-17210128D01*
X19312008Y-16806128D02*
X19312008Y-17106128D01*
X19162008Y-16956128D02*
X19462008Y-16956128D01*
X19627007Y-14495127D02*
X19627007Y-14795127D01*
X19477007Y-14645127D02*
X19777007Y-14645127D01*
X19627008Y-8795127D02*
X19627008Y-9095127D01*
X19477008Y-8945127D02*
X19777008Y-8945127D01*
X19627008Y-10695127D02*
X19627008Y-10995127D01*
X19477008Y-10845127D02*
X19777008Y-10845127D01*
X19627008Y-12595128D02*
X19627008Y-12895128D01*
X19477008Y-12745128D02*
X19777008Y-12745128D01*
X20262007Y-14241127D02*
X20262007Y-14541127D01*
X20112007Y-14391127D02*
X20412007Y-14391127D01*
X20262008Y-8541127D02*
X20262008Y-8841127D01*
X20112008Y-8691127D02*
X20412008Y-8691127D01*
X20262008Y-10441127D02*
X20262008Y-10741127D01*
X20112008Y-10591127D02*
X20412008Y-10591127D01*
X20262008Y-12341128D02*
X20262008Y-12641128D01*
X20112008Y-12491128D02*
X20412008Y-12491128D01*
X21527007Y-8495127D02*
X21527007Y-8795127D01*
X21377007Y-8645127D02*
X21677007Y-8645127D01*
X21527008Y-10395127D02*
X21527008Y-10695127D01*
X21377008Y-10545127D02*
X21677008Y-10545127D01*
X21527008Y-12295127D02*
X21527008Y-12595127D01*
X21377008Y-12445127D02*
X21677008Y-12445127D01*
X21527008Y-14195127D02*
X21527008Y-14495127D01*
X21377008Y-14345127D02*
X21677008Y-14345127D01*
X22162007Y-8241127D02*
X22162007Y-8541127D01*
X22012007Y-8391127D02*
X22312007Y-8391127D01*
X22162008Y-10141127D02*
X22162008Y-10441127D01*
X22012008Y-10291127D02*
X22312008Y-10291127D01*
X22162008Y-12041127D02*
X22162008Y-12341127D01*
X22012008Y-12191127D02*
X22312008Y-12191127D01*
X22162008Y-13941127D02*
X22162008Y-14241127D01*
X22012008Y-14091127D02*
X22312008Y-14091127D01*
X23427007Y-12595127D02*
X23427007Y-12895127D01*
X23277007Y-12745127D02*
X23577007Y-12745127D01*
X23427007Y-8795127D02*
X23427007Y-9095127D01*
X23277007Y-8945127D02*
X23577007Y-8945127D01*
X23427008Y-14495128D02*
X23427008Y-14795128D01*
X23277008Y-14645128D02*
X23577008Y-14645128D01*
X23427008Y-10695127D02*
X23427008Y-10995127D01*
X23277008Y-10845127D02*
X23577008Y-10845127D01*
X24062007Y-12341127D02*
X24062007Y-12641127D01*
X23912007Y-12491127D02*
X24212007Y-12491127D01*
X24062007Y-8541127D02*
X24062007Y-8841127D01*
X23912007Y-8691127D02*
X24212007Y-8691127D01*
X24062008Y-14241128D02*
X24062008Y-14541128D01*
X23912008Y-14391128D02*
X24212008Y-14391128D01*
X24062008Y-10441127D02*
X24062008Y-10741127D01*
X23912008Y-10591127D02*
X24212008Y-10591127D01*
X25401687Y-15179123D02*
X25401687Y-15479123D01*
X25251687Y-15329123D02*
X25551687Y-15329123D01*
X25501126Y-13281727D02*
X25501126Y-13581727D01*
X25351126Y-13431727D02*
X25651126Y-13431727D01*
X25600564Y-11384331D02*
X25600564Y-11684331D01*
X25450564Y-11534331D02*
X25750564Y-11534331D01*
X25700002Y-9486935D02*
X25700002Y-9786935D01*
X25550002Y-9636935D02*
X25850002Y-9636935D01*
X26049110Y-14958705D02*
X26049110Y-15258705D01*
X25899110Y-15108705D02*
X26199110Y-15108705D01*
X26148549Y-13061309D02*
X26148549Y-13361309D01*
X25998549Y-13211309D02*
X26298549Y-13211309D01*
X26247987Y-11163913D02*
X26247987Y-11463913D01*
X26097987Y-11313913D02*
X26397987Y-11313913D01*
X26347425Y-9266517D02*
X26347425Y-9566517D01*
X26197425Y-9416517D02*
X26497425Y-9416517D01*
X27369222Y-15667172D02*
X27369222Y-15967172D01*
X27219222Y-15817172D02*
X27519222Y-15817172D01*
X27567826Y-13777581D02*
X27567826Y-14077581D01*
X27417826Y-13927581D02*
X27717826Y-13927581D01*
X27766430Y-11887990D02*
X27766430Y-12187990D01*
X27616430Y-12037990D02*
X27916430Y-12037990D01*
X28027294Y-15480939D02*
X28027294Y-15780939D01*
X27877294Y-15630939D02*
X28177294Y-15630939D01*
X28225898Y-13591348D02*
X28225898Y-13891348D01*
X28075898Y-13741348D02*
X28375898Y-13741348D01*
X28424502Y-11701757D02*
X28424502Y-12001757D01*
X28274502Y-11851757D02*
X28574502Y-11851757D01*
D15*
X14817596Y-19401300D02*
X14817596Y-19111383D01*
X14527679Y-19111383D01*
X14527679Y-19401300D01*
X14817596Y-19401300D01*
X16352966Y-14344086D02*
X16352966Y-14054169D01*
X16063049Y-14054169D01*
X16063049Y-14344086D01*
X16352966Y-14344086D01*
X16827966Y-18059086D02*
X16827966Y-17769169D01*
X16538050Y-17769169D01*
X16538050Y-18059086D01*
X16827966Y-18059086D01*
X18252966Y-11544086D02*
X18252966Y-11254169D01*
X17963049Y-11254169D01*
X17963049Y-11544086D01*
X18252966Y-11544086D01*
X18252966Y-13444086D02*
X18252966Y-13154169D01*
X17963049Y-13154169D01*
X17963049Y-13444086D01*
X18252966Y-13444086D01*
X18252966Y-9644086D02*
X18252966Y-9354169D01*
X17963050Y-9354169D01*
X17963050Y-9644086D01*
X18252966Y-9644086D01*
X18252967Y-15344085D02*
X18252967Y-15054169D01*
X17963050Y-15054169D01*
X17963050Y-15344085D01*
X18252967Y-15344085D01*
X19202966Y-17609086D02*
X19202966Y-17319169D01*
X18913049Y-17319169D01*
X18913049Y-17609086D01*
X19202966Y-17609086D01*
X20152966Y-15044085D02*
X20152966Y-14754169D01*
X19863049Y-14754169D01*
X19863049Y-15044085D01*
X20152966Y-15044085D01*
X20152966Y-9344086D02*
X20152966Y-9054169D01*
X19863049Y-9054169D01*
X19863049Y-9344086D01*
X20152966Y-9344086D01*
X20152966Y-11244086D02*
X20152966Y-10954169D01*
X19863050Y-10954169D01*
X19863050Y-11244086D01*
X20152966Y-11244086D01*
X20152967Y-13144086D02*
X20152967Y-12854170D01*
X19863050Y-12854170D01*
X19863050Y-13144086D01*
X20152967Y-13144086D01*
X22052966Y-9044085D02*
X22052966Y-8754169D01*
X21763049Y-8754169D01*
X21763049Y-9044085D01*
X22052966Y-9044085D01*
X22052966Y-10944085D02*
X22052966Y-10654169D01*
X21763049Y-10654169D01*
X21763049Y-10944085D01*
X22052966Y-10944085D01*
X22052966Y-12844086D02*
X22052966Y-12554169D01*
X21763049Y-12554169D01*
X21763049Y-12844086D01*
X22052966Y-12844086D01*
X22052967Y-14744086D02*
X22052967Y-14454169D01*
X21763050Y-14454169D01*
X21763050Y-14744086D01*
X22052967Y-14744086D01*
X23952965Y-13144085D02*
X23952965Y-12854169D01*
X23663049Y-12854169D01*
X23663049Y-13144085D01*
X23952965Y-13144085D01*
X23952966Y-9344085D02*
X23952966Y-9054169D01*
X23663049Y-9054169D01*
X23663049Y-9344085D01*
X23952966Y-9344085D01*
X23952966Y-15044086D02*
X23952966Y-14754169D01*
X23663050Y-14754169D01*
X23663050Y-15044086D01*
X23952966Y-15044086D01*
X23952966Y-11244086D02*
X23952966Y-10954169D01*
X23663050Y-10954169D01*
X23663050Y-11244086D01*
X23952966Y-11244086D01*
X25913830Y-15747673D02*
X25913830Y-15457757D01*
X25623913Y-15457757D01*
X25623913Y-15747673D01*
X25913830Y-15747673D01*
X26013269Y-13850278D02*
X26013269Y-13560361D01*
X25723352Y-13560361D01*
X25723352Y-13850278D01*
X26013269Y-13850278D01*
X26112707Y-11952881D02*
X26112707Y-11662965D01*
X25822790Y-11662965D01*
X25822790Y-11952881D01*
X26112707Y-11952881D01*
X26212145Y-10055486D02*
X26212145Y-9765569D01*
X25922228Y-9765569D01*
X25922228Y-10055486D01*
X26212145Y-10055486D01*
X27866543Y-16254565D02*
X27866543Y-15964648D01*
X27576627Y-15964648D01*
X27576627Y-16254565D01*
X27866543Y-16254565D01*
X28065147Y-14364973D02*
X28065147Y-14075056D01*
X27775231Y-14075056D01*
X27775231Y-14364973D01*
X28065147Y-14364973D01*
X28263751Y-12475382D02*
X28263751Y-12185465D01*
X27973835Y-12185465D01*
X27973835Y-12475382D01*
X28263751Y-12475382D01*
D11*
X13386284Y-21228165D02*
X13386284Y-21028165D01*
X13386284Y-21028165D02*
X13433903Y-21028165D01*
X13433903Y-21028165D02*
X13462474Y-21037689D01*
X13462474Y-21037689D02*
X13481522Y-21056736D01*
X13481522Y-21056736D02*
X13491046Y-21075784D01*
X13491046Y-21075784D02*
X13500570Y-21113879D01*
X13500570Y-21113879D02*
X13500570Y-21142451D01*
X13500570Y-21142451D02*
X13491046Y-21180546D01*
X13491046Y-21180546D02*
X13481522Y-21199593D01*
X13481522Y-21199593D02*
X13462474Y-21218641D01*
X13462474Y-21218641D02*
X13433903Y-21228165D01*
X13433903Y-21228165D02*
X13386284Y-21228165D01*
X13586284Y-21228165D02*
X13586284Y-21094831D01*
X13586284Y-21132927D02*
X13595808Y-21113879D01*
X13595808Y-21113879D02*
X13605332Y-21104355D01*
X13605332Y-21104355D02*
X13624379Y-21094831D01*
X13624379Y-21094831D02*
X13643427Y-21094831D01*
X13710093Y-21228165D02*
X13710093Y-21094831D01*
X13710093Y-21028165D02*
X13700570Y-21037689D01*
X13700570Y-21037689D02*
X13710093Y-21047212D01*
X13710093Y-21047212D02*
X13719617Y-21037689D01*
X13719617Y-21037689D02*
X13710093Y-21028165D01*
X13710093Y-21028165D02*
X13710093Y-21047212D01*
X13833903Y-21228165D02*
X13814855Y-21218641D01*
X13814855Y-21218641D02*
X13805332Y-21199593D01*
X13805332Y-21199593D02*
X13805332Y-21028165D01*
X13938665Y-21228165D02*
X13919617Y-21218641D01*
X13919617Y-21218641D02*
X13910093Y-21199593D01*
X13910093Y-21199593D02*
X13910093Y-21028165D01*
X14167236Y-21228165D02*
X14167236Y-21028165D01*
X14167236Y-21028165D02*
X14233903Y-21171022D01*
X14233903Y-21171022D02*
X14300570Y-21028165D01*
X14300570Y-21028165D02*
X14300570Y-21228165D01*
X14481522Y-21228165D02*
X14481522Y-21123403D01*
X14481522Y-21123403D02*
X14471998Y-21104355D01*
X14471998Y-21104355D02*
X14452951Y-21094831D01*
X14452951Y-21094831D02*
X14414855Y-21094831D01*
X14414855Y-21094831D02*
X14395808Y-21104355D01*
X14481522Y-21218641D02*
X14462474Y-21228165D01*
X14462474Y-21228165D02*
X14414855Y-21228165D01*
X14414855Y-21228165D02*
X14395808Y-21218641D01*
X14395808Y-21218641D02*
X14386284Y-21199593D01*
X14386284Y-21199593D02*
X14386284Y-21180546D01*
X14386284Y-21180546D02*
X14395808Y-21161498D01*
X14395808Y-21161498D02*
X14414855Y-21151974D01*
X14414855Y-21151974D02*
X14462474Y-21151974D01*
X14462474Y-21151974D02*
X14481522Y-21142451D01*
X14576760Y-21094831D02*
X14576760Y-21294831D01*
X14576760Y-21104355D02*
X14595808Y-21094831D01*
X14595808Y-21094831D02*
X14633903Y-21094831D01*
X14633903Y-21094831D02*
X14652951Y-21104355D01*
X14652951Y-21104355D02*
X14662474Y-21113879D01*
X14662474Y-21113879D02*
X14671998Y-21132927D01*
X14671998Y-21132927D02*
X14671998Y-21190070D01*
X14671998Y-21190070D02*
X14662474Y-21209117D01*
X14662474Y-21209117D02*
X14652951Y-21218641D01*
X14652951Y-21218641D02*
X14633903Y-21228165D01*
X14633903Y-21228165D02*
X14595808Y-21228165D01*
X14595808Y-21228165D02*
X14576760Y-21218641D01*
X14757713Y-21209117D02*
X14767236Y-21218641D01*
X14767236Y-21218641D02*
X14757713Y-21228165D01*
X14757713Y-21228165D02*
X14748189Y-21218641D01*
X14748189Y-21218641D02*
X14757713Y-21209117D01*
X14757713Y-21209117D02*
X14757713Y-21228165D01*
X14757713Y-21104355D02*
X14767236Y-21113879D01*
X14767236Y-21113879D02*
X14757713Y-21123403D01*
X14757713Y-21123403D02*
X14748189Y-21113879D01*
X14748189Y-21113879D02*
X14757713Y-21104355D01*
X14757713Y-21104355D02*
X14757713Y-21123403D01*
D12*
X13035507Y-21511681D02*
X13125507Y-21601681D01*
X13125507Y-21511681D02*
X13035507Y-21601681D01*
D11*
X13424379Y-21448165D02*
X13443427Y-21448165D01*
X13443427Y-21448165D02*
X13462474Y-21457689D01*
X13462474Y-21457689D02*
X13471998Y-21467212D01*
X13471998Y-21467212D02*
X13481522Y-21486260D01*
X13481522Y-21486260D02*
X13491046Y-21524355D01*
X13491046Y-21524355D02*
X13491046Y-21571974D01*
X13491046Y-21571974D02*
X13481522Y-21610070D01*
X13481522Y-21610070D02*
X13471998Y-21629117D01*
X13471998Y-21629117D02*
X13462474Y-21638641D01*
X13462474Y-21638641D02*
X13443427Y-21648165D01*
X13443427Y-21648165D02*
X13424379Y-21648165D01*
X13424379Y-21648165D02*
X13405332Y-21638641D01*
X13405332Y-21638641D02*
X13395808Y-21629117D01*
X13395808Y-21629117D02*
X13386284Y-21610070D01*
X13386284Y-21610070D02*
X13376760Y-21571974D01*
X13376760Y-21571974D02*
X13376760Y-21524355D01*
X13376760Y-21524355D02*
X13386284Y-21486260D01*
X13386284Y-21486260D02*
X13395808Y-21467212D01*
X13395808Y-21467212D02*
X13405332Y-21457689D01*
X13405332Y-21457689D02*
X13424379Y-21448165D01*
X13576760Y-21629117D02*
X13586284Y-21638641D01*
X13586284Y-21638641D02*
X13576760Y-21648165D01*
X13576760Y-21648165D02*
X13567236Y-21638641D01*
X13567236Y-21638641D02*
X13576760Y-21629117D01*
X13576760Y-21629117D02*
X13576760Y-21648165D01*
X13681522Y-21648165D02*
X13719617Y-21648165D01*
X13719617Y-21648165D02*
X13738665Y-21638641D01*
X13738665Y-21638641D02*
X13748189Y-21629117D01*
X13748189Y-21629117D02*
X13767236Y-21600546D01*
X13767236Y-21600546D02*
X13776760Y-21562451D01*
X13776760Y-21562451D02*
X13776760Y-21486260D01*
X13776760Y-21486260D02*
X13767236Y-21467212D01*
X13767236Y-21467212D02*
X13757713Y-21457689D01*
X13757713Y-21457689D02*
X13738665Y-21448165D01*
X13738665Y-21448165D02*
X13700570Y-21448165D01*
X13700570Y-21448165D02*
X13681522Y-21457689D01*
X13681522Y-21457689D02*
X13671998Y-21467212D01*
X13671998Y-21467212D02*
X13662474Y-21486260D01*
X13662474Y-21486260D02*
X13662474Y-21533879D01*
X13662474Y-21533879D02*
X13671998Y-21552927D01*
X13671998Y-21552927D02*
X13681522Y-21562451D01*
X13681522Y-21562451D02*
X13700570Y-21571974D01*
X13700570Y-21571974D02*
X13738665Y-21571974D01*
X13738665Y-21571974D02*
X13757713Y-21562451D01*
X13757713Y-21562451D02*
X13767236Y-21552927D01*
X13767236Y-21552927D02*
X13776760Y-21533879D01*
X13900570Y-21448165D02*
X13919617Y-21448165D01*
X13919617Y-21448165D02*
X13938665Y-21457689D01*
X13938665Y-21457689D02*
X13948189Y-21467212D01*
X13948189Y-21467212D02*
X13957713Y-21486260D01*
X13957713Y-21486260D02*
X13967236Y-21524355D01*
X13967236Y-21524355D02*
X13967236Y-21571974D01*
X13967236Y-21571974D02*
X13957713Y-21610070D01*
X13957713Y-21610070D02*
X13948189Y-21629117D01*
X13948189Y-21629117D02*
X13938665Y-21638641D01*
X13938665Y-21638641D02*
X13919617Y-21648165D01*
X13919617Y-21648165D02*
X13900570Y-21648165D01*
X13900570Y-21648165D02*
X13881522Y-21638641D01*
X13881522Y-21638641D02*
X13871998Y-21629117D01*
X13871998Y-21629117D02*
X13862474Y-21610070D01*
X13862474Y-21610070D02*
X13852951Y-21571974D01*
X13852951Y-21571974D02*
X13852951Y-21524355D01*
X13852951Y-21524355D02*
X13862474Y-21486260D01*
X13862474Y-21486260D02*
X13871998Y-21467212D01*
X13871998Y-21467212D02*
X13881522Y-21457689D01*
X13881522Y-21457689D02*
X13900570Y-21448165D01*
X14091046Y-21448165D02*
X14110094Y-21448165D01*
X14110094Y-21448165D02*
X14129141Y-21457689D01*
X14129141Y-21457689D02*
X14138665Y-21467212D01*
X14138665Y-21467212D02*
X14148189Y-21486260D01*
X14148189Y-21486260D02*
X14157713Y-21524355D01*
X14157713Y-21524355D02*
X14157713Y-21571974D01*
X14157713Y-21571974D02*
X14148189Y-21610070D01*
X14148189Y-21610070D02*
X14138665Y-21629117D01*
X14138665Y-21629117D02*
X14129141Y-21638641D01*
X14129141Y-21638641D02*
X14110094Y-21648165D01*
X14110094Y-21648165D02*
X14091046Y-21648165D01*
X14091046Y-21648165D02*
X14071998Y-21638641D01*
X14071998Y-21638641D02*
X14062474Y-21629117D01*
X14062474Y-21629117D02*
X14052951Y-21610070D01*
X14052951Y-21610070D02*
X14043427Y-21571974D01*
X14043427Y-21571974D02*
X14043427Y-21524355D01*
X14043427Y-21524355D02*
X14052951Y-21486260D01*
X14052951Y-21486260D02*
X14062474Y-21467212D01*
X14062474Y-21467212D02*
X14071998Y-21457689D01*
X14071998Y-21457689D02*
X14091046Y-21448165D01*
X14243427Y-21648165D02*
X14243427Y-21514831D01*
X14243427Y-21533879D02*
X14252951Y-21524355D01*
X14252951Y-21524355D02*
X14271998Y-21514831D01*
X14271998Y-21514831D02*
X14300570Y-21514831D01*
X14300570Y-21514831D02*
X14319617Y-21524355D01*
X14319617Y-21524355D02*
X14329141Y-21543403D01*
X14329141Y-21543403D02*
X14329141Y-21648165D01*
X14329141Y-21543403D02*
X14338665Y-21524355D01*
X14338665Y-21524355D02*
X14357713Y-21514831D01*
X14357713Y-21514831D02*
X14386284Y-21514831D01*
X14386284Y-21514831D02*
X14405332Y-21524355D01*
X14405332Y-21524355D02*
X14414855Y-21543403D01*
X14414855Y-21543403D02*
X14414855Y-21648165D01*
X14510094Y-21648165D02*
X14510094Y-21514831D01*
X14510094Y-21533879D02*
X14519617Y-21524355D01*
X14519617Y-21524355D02*
X14538665Y-21514831D01*
X14538665Y-21514831D02*
X14567236Y-21514831D01*
X14567236Y-21514831D02*
X14586284Y-21524355D01*
X14586284Y-21524355D02*
X14595808Y-21543403D01*
X14595808Y-21543403D02*
X14595808Y-21648165D01*
X14595808Y-21543403D02*
X14605332Y-21524355D01*
X14605332Y-21524355D02*
X14624379Y-21514831D01*
X14624379Y-21514831D02*
X14652951Y-21514831D01*
X14652951Y-21514831D02*
X14671998Y-21524355D01*
X14671998Y-21524355D02*
X14681522Y-21543403D01*
X14681522Y-21543403D02*
X14681522Y-21648165D01*
X15071998Y-21438641D02*
X14900570Y-21695784D01*
X15329141Y-21448165D02*
X15348189Y-21448165D01*
X15348189Y-21448165D02*
X15367237Y-21457689D01*
X15367237Y-21457689D02*
X15376760Y-21467212D01*
X15376760Y-21467212D02*
X15386284Y-21486260D01*
X15386284Y-21486260D02*
X15395808Y-21524355D01*
X15395808Y-21524355D02*
X15395808Y-21571974D01*
X15395808Y-21571974D02*
X15386284Y-21610070D01*
X15386284Y-21610070D02*
X15376760Y-21629117D01*
X15376760Y-21629117D02*
X15367237Y-21638641D01*
X15367237Y-21638641D02*
X15348189Y-21648165D01*
X15348189Y-21648165D02*
X15329141Y-21648165D01*
X15329141Y-21648165D02*
X15310094Y-21638641D01*
X15310094Y-21638641D02*
X15300570Y-21629117D01*
X15300570Y-21629117D02*
X15291046Y-21610070D01*
X15291046Y-21610070D02*
X15281522Y-21571974D01*
X15281522Y-21571974D02*
X15281522Y-21524355D01*
X15281522Y-21524355D02*
X15291046Y-21486260D01*
X15291046Y-21486260D02*
X15300570Y-21467212D01*
X15300570Y-21467212D02*
X15310094Y-21457689D01*
X15310094Y-21457689D02*
X15329141Y-21448165D01*
X15481522Y-21629117D02*
X15491046Y-21638641D01*
X15491046Y-21638641D02*
X15481522Y-21648165D01*
X15481522Y-21648165D02*
X15471998Y-21638641D01*
X15471998Y-21638641D02*
X15481522Y-21629117D01*
X15481522Y-21629117D02*
X15481522Y-21648165D01*
X15614856Y-21448165D02*
X15633903Y-21448165D01*
X15633903Y-21448165D02*
X15652951Y-21457689D01*
X15652951Y-21457689D02*
X15662475Y-21467212D01*
X15662475Y-21467212D02*
X15671998Y-21486260D01*
X15671998Y-21486260D02*
X15681522Y-21524355D01*
X15681522Y-21524355D02*
X15681522Y-21571974D01*
X15681522Y-21571974D02*
X15671998Y-21610070D01*
X15671998Y-21610070D02*
X15662475Y-21629117D01*
X15662475Y-21629117D02*
X15652951Y-21638641D01*
X15652951Y-21638641D02*
X15633903Y-21648165D01*
X15633903Y-21648165D02*
X15614856Y-21648165D01*
X15614856Y-21648165D02*
X15595808Y-21638641D01*
X15595808Y-21638641D02*
X15586284Y-21629117D01*
X15586284Y-21629117D02*
X15576760Y-21610070D01*
X15576760Y-21610070D02*
X15567237Y-21571974D01*
X15567237Y-21571974D02*
X15567237Y-21524355D01*
X15567237Y-21524355D02*
X15576760Y-21486260D01*
X15576760Y-21486260D02*
X15586284Y-21467212D01*
X15586284Y-21467212D02*
X15595808Y-21457689D01*
X15595808Y-21457689D02*
X15614856Y-21448165D01*
X15748189Y-21448165D02*
X15871998Y-21448165D01*
X15871998Y-21448165D02*
X15805332Y-21524355D01*
X15805332Y-21524355D02*
X15833903Y-21524355D01*
X15833903Y-21524355D02*
X15852951Y-21533879D01*
X15852951Y-21533879D02*
X15862475Y-21543403D01*
X15862475Y-21543403D02*
X15871998Y-21562451D01*
X15871998Y-21562451D02*
X15871998Y-21610070D01*
X15871998Y-21610070D02*
X15862475Y-21629117D01*
X15862475Y-21629117D02*
X15852951Y-21638641D01*
X15852951Y-21638641D02*
X15833903Y-21648165D01*
X15833903Y-21648165D02*
X15776760Y-21648165D01*
X15776760Y-21648165D02*
X15757713Y-21638641D01*
X15757713Y-21638641D02*
X15748189Y-21629117D01*
X16052951Y-21448165D02*
X15957713Y-21448165D01*
X15957713Y-21448165D02*
X15948189Y-21543403D01*
X15948189Y-21543403D02*
X15957713Y-21533879D01*
X15957713Y-21533879D02*
X15976760Y-21524355D01*
X15976760Y-21524355D02*
X16024379Y-21524355D01*
X16024379Y-21524355D02*
X16043427Y-21533879D01*
X16043427Y-21533879D02*
X16052951Y-21543403D01*
X16052951Y-21543403D02*
X16062475Y-21562451D01*
X16062475Y-21562451D02*
X16062475Y-21610070D01*
X16062475Y-21610070D02*
X16052951Y-21629117D01*
X16052951Y-21629117D02*
X16043427Y-21638641D01*
X16043427Y-21638641D02*
X16024379Y-21648165D01*
X16024379Y-21648165D02*
X15976760Y-21648165D01*
X15976760Y-21648165D02*
X15957713Y-21638641D01*
X15957713Y-21638641D02*
X15948189Y-21629117D01*
X16233903Y-21514831D02*
X16233903Y-21648165D01*
X16186284Y-21438641D02*
X16138665Y-21581498D01*
X16138665Y-21581498D02*
X16262475Y-21581498D01*
X16329141Y-21448165D02*
X16329141Y-21486260D01*
X16405332Y-21448165D02*
X16405332Y-21486260D01*
X16700570Y-21724355D02*
X16691046Y-21714831D01*
X16691046Y-21714831D02*
X16671999Y-21686260D01*
X16671999Y-21686260D02*
X16662475Y-21667212D01*
X16662475Y-21667212D02*
X16652951Y-21638641D01*
X16652951Y-21638641D02*
X16643427Y-21591022D01*
X16643427Y-21591022D02*
X16643427Y-21552927D01*
X16643427Y-21552927D02*
X16652951Y-21505308D01*
X16652951Y-21505308D02*
X16662475Y-21476736D01*
X16662475Y-21476736D02*
X16671999Y-21457689D01*
X16671999Y-21457689D02*
X16691046Y-21429117D01*
X16691046Y-21429117D02*
X16700570Y-21419593D01*
X16767237Y-21467212D02*
X16776760Y-21457689D01*
X16776760Y-21457689D02*
X16795808Y-21448165D01*
X16795808Y-21448165D02*
X16843427Y-21448165D01*
X16843427Y-21448165D02*
X16862475Y-21457689D01*
X16862475Y-21457689D02*
X16871999Y-21467212D01*
X16871999Y-21467212D02*
X16881522Y-21486260D01*
X16881522Y-21486260D02*
X16881522Y-21505308D01*
X16881522Y-21505308D02*
X16871999Y-21533879D01*
X16871999Y-21533879D02*
X16757713Y-21648165D01*
X16757713Y-21648165D02*
X16881522Y-21648165D01*
X17119618Y-21648165D02*
X17119618Y-21448165D01*
X17205332Y-21648165D02*
X17205332Y-21543403D01*
X17205332Y-21543403D02*
X17195808Y-21524355D01*
X17195808Y-21524355D02*
X17176761Y-21514831D01*
X17176761Y-21514831D02*
X17148189Y-21514831D01*
X17148189Y-21514831D02*
X17129142Y-21524355D01*
X17129142Y-21524355D02*
X17119618Y-21533879D01*
X17329142Y-21648165D02*
X17310094Y-21638641D01*
X17310094Y-21638641D02*
X17300570Y-21629117D01*
X17300570Y-21629117D02*
X17291046Y-21610070D01*
X17291046Y-21610070D02*
X17291046Y-21552927D01*
X17291046Y-21552927D02*
X17300570Y-21533879D01*
X17300570Y-21533879D02*
X17310094Y-21524355D01*
X17310094Y-21524355D02*
X17329142Y-21514831D01*
X17329142Y-21514831D02*
X17357713Y-21514831D01*
X17357713Y-21514831D02*
X17376761Y-21524355D01*
X17376761Y-21524355D02*
X17386284Y-21533879D01*
X17386284Y-21533879D02*
X17395808Y-21552927D01*
X17395808Y-21552927D02*
X17395808Y-21610070D01*
X17395808Y-21610070D02*
X17386284Y-21629117D01*
X17386284Y-21629117D02*
X17376761Y-21638641D01*
X17376761Y-21638641D02*
X17357713Y-21648165D01*
X17357713Y-21648165D02*
X17329142Y-21648165D01*
X17510094Y-21648165D02*
X17491046Y-21638641D01*
X17491046Y-21638641D02*
X17481523Y-21619593D01*
X17481523Y-21619593D02*
X17481523Y-21448165D01*
X17662475Y-21638641D02*
X17643427Y-21648165D01*
X17643427Y-21648165D02*
X17605332Y-21648165D01*
X17605332Y-21648165D02*
X17586284Y-21638641D01*
X17586284Y-21638641D02*
X17576761Y-21619593D01*
X17576761Y-21619593D02*
X17576761Y-21543403D01*
X17576761Y-21543403D02*
X17586284Y-21524355D01*
X17586284Y-21524355D02*
X17605332Y-21514831D01*
X17605332Y-21514831D02*
X17643427Y-21514831D01*
X17643427Y-21514831D02*
X17662475Y-21524355D01*
X17662475Y-21524355D02*
X17671999Y-21543403D01*
X17671999Y-21543403D02*
X17671999Y-21562451D01*
X17671999Y-21562451D02*
X17576761Y-21581498D01*
X17748189Y-21638641D02*
X17767237Y-21648165D01*
X17767237Y-21648165D02*
X17805332Y-21648165D01*
X17805332Y-21648165D02*
X17824380Y-21638641D01*
X17824380Y-21638641D02*
X17833904Y-21619593D01*
X17833904Y-21619593D02*
X17833904Y-21610070D01*
X17833904Y-21610070D02*
X17824380Y-21591022D01*
X17824380Y-21591022D02*
X17805332Y-21581498D01*
X17805332Y-21581498D02*
X17776761Y-21581498D01*
X17776761Y-21581498D02*
X17757713Y-21571974D01*
X17757713Y-21571974D02*
X17748189Y-21552927D01*
X17748189Y-21552927D02*
X17748189Y-21543403D01*
X17748189Y-21543403D02*
X17757713Y-21524355D01*
X17757713Y-21524355D02*
X17776761Y-21514831D01*
X17776761Y-21514831D02*
X17805332Y-21514831D01*
X17805332Y-21514831D02*
X17824380Y-21524355D01*
X17900570Y-21724355D02*
X17910094Y-21714831D01*
X17910094Y-21714831D02*
X17929142Y-21686260D01*
X17929142Y-21686260D02*
X17938665Y-21667212D01*
X17938665Y-21667212D02*
X17948189Y-21638641D01*
X17948189Y-21638641D02*
X17957713Y-21591022D01*
X17957713Y-21591022D02*
X17957713Y-21552927D01*
X17957713Y-21552927D02*
X17948189Y-21505308D01*
X17948189Y-21505308D02*
X17938665Y-21476736D01*
X17938665Y-21476736D02*
X17929142Y-21457689D01*
X17929142Y-21457689D02*
X17910094Y-21429117D01*
X17910094Y-21429117D02*
X17900570Y-21419593D01*
X18262475Y-21724355D02*
X18252951Y-21714831D01*
X18252951Y-21714831D02*
X18233904Y-21686260D01*
X18233904Y-21686260D02*
X18224380Y-21667212D01*
X18224380Y-21667212D02*
X18214856Y-21638641D01*
X18214856Y-21638641D02*
X18205332Y-21591022D01*
X18205332Y-21591022D02*
X18205332Y-21552927D01*
X18205332Y-21552927D02*
X18214856Y-21505308D01*
X18214856Y-21505308D02*
X18224380Y-21476736D01*
X18224380Y-21476736D02*
X18233904Y-21457689D01*
X18233904Y-21457689D02*
X18252951Y-21429117D01*
X18252951Y-21429117D02*
X18262475Y-21419593D01*
X18338665Y-21514831D02*
X18338665Y-21648165D01*
X18338665Y-21533879D02*
X18348189Y-21524355D01*
X18348189Y-21524355D02*
X18367237Y-21514831D01*
X18367237Y-21514831D02*
X18395808Y-21514831D01*
X18395808Y-21514831D02*
X18414856Y-21524355D01*
X18414856Y-21524355D02*
X18424380Y-21543403D01*
X18424380Y-21543403D02*
X18424380Y-21648165D01*
X18548189Y-21648165D02*
X18529142Y-21638641D01*
X18529142Y-21638641D02*
X18519618Y-21629117D01*
X18519618Y-21629117D02*
X18510094Y-21610070D01*
X18510094Y-21610070D02*
X18510094Y-21552927D01*
X18510094Y-21552927D02*
X18519618Y-21533879D01*
X18519618Y-21533879D02*
X18529142Y-21524355D01*
X18529142Y-21524355D02*
X18548189Y-21514831D01*
X18548189Y-21514831D02*
X18576761Y-21514831D01*
X18576761Y-21514831D02*
X18595808Y-21524355D01*
X18595808Y-21524355D02*
X18605332Y-21533879D01*
X18605332Y-21533879D02*
X18614856Y-21552927D01*
X18614856Y-21552927D02*
X18614856Y-21610070D01*
X18614856Y-21610070D02*
X18605332Y-21629117D01*
X18605332Y-21629117D02*
X18595808Y-21638641D01*
X18595808Y-21638641D02*
X18576761Y-21648165D01*
X18576761Y-21648165D02*
X18548189Y-21648165D01*
X18671999Y-21514831D02*
X18748189Y-21514831D01*
X18700570Y-21448165D02*
X18700570Y-21619593D01*
X18700570Y-21619593D02*
X18710094Y-21638641D01*
X18710094Y-21638641D02*
X18729142Y-21648165D01*
X18729142Y-21648165D02*
X18748189Y-21648165D01*
X18967237Y-21514831D02*
X18967237Y-21714831D01*
X18967237Y-21524355D02*
X18986285Y-21514831D01*
X18986285Y-21514831D02*
X19024380Y-21514831D01*
X19024380Y-21514831D02*
X19043427Y-21524355D01*
X19043427Y-21524355D02*
X19052951Y-21533879D01*
X19052951Y-21533879D02*
X19062475Y-21552927D01*
X19062475Y-21552927D02*
X19062475Y-21610070D01*
X19062475Y-21610070D02*
X19052951Y-21629117D01*
X19052951Y-21629117D02*
X19043427Y-21638641D01*
X19043427Y-21638641D02*
X19024380Y-21648165D01*
X19024380Y-21648165D02*
X18986285Y-21648165D01*
X18986285Y-21648165D02*
X18967237Y-21638641D01*
X19176761Y-21648165D02*
X19157713Y-21638641D01*
X19157713Y-21638641D02*
X19148189Y-21619593D01*
X19148189Y-21619593D02*
X19148189Y-21448165D01*
X19338666Y-21648165D02*
X19338666Y-21543403D01*
X19338666Y-21543403D02*
X19329142Y-21524355D01*
X19329142Y-21524355D02*
X19310094Y-21514831D01*
X19310094Y-21514831D02*
X19271999Y-21514831D01*
X19271999Y-21514831D02*
X19252951Y-21524355D01*
X19338666Y-21638641D02*
X19319618Y-21648165D01*
X19319618Y-21648165D02*
X19271999Y-21648165D01*
X19271999Y-21648165D02*
X19252951Y-21638641D01*
X19252951Y-21638641D02*
X19243427Y-21619593D01*
X19243427Y-21619593D02*
X19243427Y-21600546D01*
X19243427Y-21600546D02*
X19252951Y-21581498D01*
X19252951Y-21581498D02*
X19271999Y-21571974D01*
X19271999Y-21571974D02*
X19319618Y-21571974D01*
X19319618Y-21571974D02*
X19338666Y-21562451D01*
X19405332Y-21514831D02*
X19481523Y-21514831D01*
X19433904Y-21448165D02*
X19433904Y-21619593D01*
X19433904Y-21619593D02*
X19443427Y-21638641D01*
X19443427Y-21638641D02*
X19462475Y-21648165D01*
X19462475Y-21648165D02*
X19481523Y-21648165D01*
X19624380Y-21638641D02*
X19605332Y-21648165D01*
X19605332Y-21648165D02*
X19567237Y-21648165D01*
X19567237Y-21648165D02*
X19548189Y-21638641D01*
X19548189Y-21638641D02*
X19538666Y-21619593D01*
X19538666Y-21619593D02*
X19538666Y-21543403D01*
X19538666Y-21543403D02*
X19548189Y-21524355D01*
X19548189Y-21524355D02*
X19567237Y-21514831D01*
X19567237Y-21514831D02*
X19605332Y-21514831D01*
X19605332Y-21514831D02*
X19624380Y-21524355D01*
X19624380Y-21524355D02*
X19633904Y-21543403D01*
X19633904Y-21543403D02*
X19633904Y-21562451D01*
X19633904Y-21562451D02*
X19538666Y-21581498D01*
X19805332Y-21648165D02*
X19805332Y-21448165D01*
X19805332Y-21638641D02*
X19786285Y-21648165D01*
X19786285Y-21648165D02*
X19748189Y-21648165D01*
X19748189Y-21648165D02*
X19729142Y-21638641D01*
X19729142Y-21638641D02*
X19719618Y-21629117D01*
X19719618Y-21629117D02*
X19710094Y-21610070D01*
X19710094Y-21610070D02*
X19710094Y-21552927D01*
X19710094Y-21552927D02*
X19719618Y-21533879D01*
X19719618Y-21533879D02*
X19729142Y-21524355D01*
X19729142Y-21524355D02*
X19748189Y-21514831D01*
X19748189Y-21514831D02*
X19786285Y-21514831D01*
X19786285Y-21514831D02*
X19805332Y-21524355D01*
X19881523Y-21724355D02*
X19891047Y-21714831D01*
X19891047Y-21714831D02*
X19910094Y-21686260D01*
X19910094Y-21686260D02*
X19919618Y-21667212D01*
X19919618Y-21667212D02*
X19929142Y-21638641D01*
X19929142Y-21638641D02*
X19938666Y-21591022D01*
X19938666Y-21591022D02*
X19938666Y-21552927D01*
X19938666Y-21552927D02*
X19929142Y-21505308D01*
X19929142Y-21505308D02*
X19919618Y-21476736D01*
X19919618Y-21476736D02*
X19910094Y-21457689D01*
X19910094Y-21457689D02*
X19891047Y-21429117D01*
X19891047Y-21429117D02*
X19881523Y-21419593D01*
D13*
X13125507Y-21820681D02*
G75*
G02*
X12935507Y-21820681I-95000J0D01*
G01*
X12935507Y-21820681D02*
G75*
G02*
X13125507Y-21820681I95000J0D01*
G01*
D11*
X13491046Y-21912165D02*
X13376760Y-21912165D01*
X13433903Y-21912165D02*
X13433903Y-21712165D01*
X13433903Y-21712165D02*
X13414855Y-21740736D01*
X13414855Y-21740736D02*
X13395808Y-21759784D01*
X13395808Y-21759784D02*
X13376760Y-21769308D01*
X13576760Y-21893117D02*
X13586284Y-21902641D01*
X13586284Y-21902641D02*
X13576760Y-21912165D01*
X13576760Y-21912165D02*
X13567236Y-21902641D01*
X13567236Y-21902641D02*
X13576760Y-21893117D01*
X13576760Y-21893117D02*
X13576760Y-21912165D01*
X13681522Y-21912165D02*
X13719617Y-21912165D01*
X13719617Y-21912165D02*
X13738665Y-21902641D01*
X13738665Y-21902641D02*
X13748189Y-21893117D01*
X13748189Y-21893117D02*
X13767236Y-21864546D01*
X13767236Y-21864546D02*
X13776760Y-21826451D01*
X13776760Y-21826451D02*
X13776760Y-21750260D01*
X13776760Y-21750260D02*
X13767236Y-21731212D01*
X13767236Y-21731212D02*
X13757713Y-21721689D01*
X13757713Y-21721689D02*
X13738665Y-21712165D01*
X13738665Y-21712165D02*
X13700570Y-21712165D01*
X13700570Y-21712165D02*
X13681522Y-21721689D01*
X13681522Y-21721689D02*
X13671998Y-21731212D01*
X13671998Y-21731212D02*
X13662474Y-21750260D01*
X13662474Y-21750260D02*
X13662474Y-21797879D01*
X13662474Y-21797879D02*
X13671998Y-21816927D01*
X13671998Y-21816927D02*
X13681522Y-21826451D01*
X13681522Y-21826451D02*
X13700570Y-21835974D01*
X13700570Y-21835974D02*
X13738665Y-21835974D01*
X13738665Y-21835974D02*
X13757713Y-21826451D01*
X13757713Y-21826451D02*
X13767236Y-21816927D01*
X13767236Y-21816927D02*
X13776760Y-21797879D01*
X13900570Y-21712165D02*
X13919617Y-21712165D01*
X13919617Y-21712165D02*
X13938665Y-21721689D01*
X13938665Y-21721689D02*
X13948189Y-21731212D01*
X13948189Y-21731212D02*
X13957713Y-21750260D01*
X13957713Y-21750260D02*
X13967236Y-21788355D01*
X13967236Y-21788355D02*
X13967236Y-21835974D01*
X13967236Y-21835974D02*
X13957713Y-21874070D01*
X13957713Y-21874070D02*
X13948189Y-21893117D01*
X13948189Y-21893117D02*
X13938665Y-21902641D01*
X13938665Y-21902641D02*
X13919617Y-21912165D01*
X13919617Y-21912165D02*
X13900570Y-21912165D01*
X13900570Y-21912165D02*
X13881522Y-21902641D01*
X13881522Y-21902641D02*
X13871998Y-21893117D01*
X13871998Y-21893117D02*
X13862474Y-21874070D01*
X13862474Y-21874070D02*
X13852951Y-21835974D01*
X13852951Y-21835974D02*
X13852951Y-21788355D01*
X13852951Y-21788355D02*
X13862474Y-21750260D01*
X13862474Y-21750260D02*
X13871998Y-21731212D01*
X13871998Y-21731212D02*
X13881522Y-21721689D01*
X13881522Y-21721689D02*
X13900570Y-21712165D01*
X14091046Y-21712165D02*
X14110094Y-21712165D01*
X14110094Y-21712165D02*
X14129141Y-21721689D01*
X14129141Y-21721689D02*
X14138665Y-21731212D01*
X14138665Y-21731212D02*
X14148189Y-21750260D01*
X14148189Y-21750260D02*
X14157713Y-21788355D01*
X14157713Y-21788355D02*
X14157713Y-21835974D01*
X14157713Y-21835974D02*
X14148189Y-21874070D01*
X14148189Y-21874070D02*
X14138665Y-21893117D01*
X14138665Y-21893117D02*
X14129141Y-21902641D01*
X14129141Y-21902641D02*
X14110094Y-21912165D01*
X14110094Y-21912165D02*
X14091046Y-21912165D01*
X14091046Y-21912165D02*
X14071998Y-21902641D01*
X14071998Y-21902641D02*
X14062474Y-21893117D01*
X14062474Y-21893117D02*
X14052951Y-21874070D01*
X14052951Y-21874070D02*
X14043427Y-21835974D01*
X14043427Y-21835974D02*
X14043427Y-21788355D01*
X14043427Y-21788355D02*
X14052951Y-21750260D01*
X14052951Y-21750260D02*
X14062474Y-21731212D01*
X14062474Y-21731212D02*
X14071998Y-21721689D01*
X14071998Y-21721689D02*
X14091046Y-21712165D01*
X14243427Y-21912165D02*
X14243427Y-21778831D01*
X14243427Y-21797879D02*
X14252951Y-21788355D01*
X14252951Y-21788355D02*
X14271998Y-21778831D01*
X14271998Y-21778831D02*
X14300570Y-21778831D01*
X14300570Y-21778831D02*
X14319617Y-21788355D01*
X14319617Y-21788355D02*
X14329141Y-21807403D01*
X14329141Y-21807403D02*
X14329141Y-21912165D01*
X14329141Y-21807403D02*
X14338665Y-21788355D01*
X14338665Y-21788355D02*
X14357713Y-21778831D01*
X14357713Y-21778831D02*
X14386284Y-21778831D01*
X14386284Y-21778831D02*
X14405332Y-21788355D01*
X14405332Y-21788355D02*
X14414855Y-21807403D01*
X14414855Y-21807403D02*
X14414855Y-21912165D01*
X14510094Y-21912165D02*
X14510094Y-21778831D01*
X14510094Y-21797879D02*
X14519617Y-21788355D01*
X14519617Y-21788355D02*
X14538665Y-21778831D01*
X14538665Y-21778831D02*
X14567236Y-21778831D01*
X14567236Y-21778831D02*
X14586284Y-21788355D01*
X14586284Y-21788355D02*
X14595808Y-21807403D01*
X14595808Y-21807403D02*
X14595808Y-21912165D01*
X14595808Y-21807403D02*
X14605332Y-21788355D01*
X14605332Y-21788355D02*
X14624379Y-21778831D01*
X14624379Y-21778831D02*
X14652951Y-21778831D01*
X14652951Y-21778831D02*
X14671998Y-21788355D01*
X14671998Y-21788355D02*
X14681522Y-21807403D01*
X14681522Y-21807403D02*
X14681522Y-21912165D01*
X15071998Y-21702641D02*
X14900570Y-21959784D01*
X15329141Y-21712165D02*
X15348189Y-21712165D01*
X15348189Y-21712165D02*
X15367237Y-21721689D01*
X15367237Y-21721689D02*
X15376760Y-21731212D01*
X15376760Y-21731212D02*
X15386284Y-21750260D01*
X15386284Y-21750260D02*
X15395808Y-21788355D01*
X15395808Y-21788355D02*
X15395808Y-21835974D01*
X15395808Y-21835974D02*
X15386284Y-21874070D01*
X15386284Y-21874070D02*
X15376760Y-21893117D01*
X15376760Y-21893117D02*
X15367237Y-21902641D01*
X15367237Y-21902641D02*
X15348189Y-21912165D01*
X15348189Y-21912165D02*
X15329141Y-21912165D01*
X15329141Y-21912165D02*
X15310094Y-21902641D01*
X15310094Y-21902641D02*
X15300570Y-21893117D01*
X15300570Y-21893117D02*
X15291046Y-21874070D01*
X15291046Y-21874070D02*
X15281522Y-21835974D01*
X15281522Y-21835974D02*
X15281522Y-21788355D01*
X15281522Y-21788355D02*
X15291046Y-21750260D01*
X15291046Y-21750260D02*
X15300570Y-21731212D01*
X15300570Y-21731212D02*
X15310094Y-21721689D01*
X15310094Y-21721689D02*
X15329141Y-21712165D01*
X15481522Y-21893117D02*
X15491046Y-21902641D01*
X15491046Y-21902641D02*
X15481522Y-21912165D01*
X15481522Y-21912165D02*
X15471998Y-21902641D01*
X15471998Y-21902641D02*
X15481522Y-21893117D01*
X15481522Y-21893117D02*
X15481522Y-21912165D01*
X15614856Y-21712165D02*
X15633903Y-21712165D01*
X15633903Y-21712165D02*
X15652951Y-21721689D01*
X15652951Y-21721689D02*
X15662475Y-21731212D01*
X15662475Y-21731212D02*
X15671998Y-21750260D01*
X15671998Y-21750260D02*
X15681522Y-21788355D01*
X15681522Y-21788355D02*
X15681522Y-21835974D01*
X15681522Y-21835974D02*
X15671998Y-21874070D01*
X15671998Y-21874070D02*
X15662475Y-21893117D01*
X15662475Y-21893117D02*
X15652951Y-21902641D01*
X15652951Y-21902641D02*
X15633903Y-21912165D01*
X15633903Y-21912165D02*
X15614856Y-21912165D01*
X15614856Y-21912165D02*
X15595808Y-21902641D01*
X15595808Y-21902641D02*
X15586284Y-21893117D01*
X15586284Y-21893117D02*
X15576760Y-21874070D01*
X15576760Y-21874070D02*
X15567237Y-21835974D01*
X15567237Y-21835974D02*
X15567237Y-21788355D01*
X15567237Y-21788355D02*
X15576760Y-21750260D01*
X15576760Y-21750260D02*
X15586284Y-21731212D01*
X15586284Y-21731212D02*
X15595808Y-21721689D01*
X15595808Y-21721689D02*
X15614856Y-21712165D01*
X15748189Y-21712165D02*
X15881522Y-21712165D01*
X15881522Y-21712165D02*
X15795808Y-21912165D01*
X16043427Y-21778831D02*
X16043427Y-21912165D01*
X15995808Y-21702641D02*
X15948189Y-21845498D01*
X15948189Y-21845498D02*
X16071998Y-21845498D01*
X16176760Y-21797879D02*
X16157713Y-21788355D01*
X16157713Y-21788355D02*
X16148189Y-21778831D01*
X16148189Y-21778831D02*
X16138665Y-21759784D01*
X16138665Y-21759784D02*
X16138665Y-21750260D01*
X16138665Y-21750260D02*
X16148189Y-21731212D01*
X16148189Y-21731212D02*
X16157713Y-21721689D01*
X16157713Y-21721689D02*
X16176760Y-21712165D01*
X16176760Y-21712165D02*
X16214856Y-21712165D01*
X16214856Y-21712165D02*
X16233903Y-21721689D01*
X16233903Y-21721689D02*
X16243427Y-21731212D01*
X16243427Y-21731212D02*
X16252951Y-21750260D01*
X16252951Y-21750260D02*
X16252951Y-21759784D01*
X16252951Y-21759784D02*
X16243427Y-21778831D01*
X16243427Y-21778831D02*
X16233903Y-21788355D01*
X16233903Y-21788355D02*
X16214856Y-21797879D01*
X16214856Y-21797879D02*
X16176760Y-21797879D01*
X16176760Y-21797879D02*
X16157713Y-21807403D01*
X16157713Y-21807403D02*
X16148189Y-21816927D01*
X16148189Y-21816927D02*
X16138665Y-21835974D01*
X16138665Y-21835974D02*
X16138665Y-21874070D01*
X16138665Y-21874070D02*
X16148189Y-21893117D01*
X16148189Y-21893117D02*
X16157713Y-21902641D01*
X16157713Y-21902641D02*
X16176760Y-21912165D01*
X16176760Y-21912165D02*
X16214856Y-21912165D01*
X16214856Y-21912165D02*
X16233903Y-21902641D01*
X16233903Y-21902641D02*
X16243427Y-21893117D01*
X16243427Y-21893117D02*
X16252951Y-21874070D01*
X16252951Y-21874070D02*
X16252951Y-21835974D01*
X16252951Y-21835974D02*
X16243427Y-21816927D01*
X16243427Y-21816927D02*
X16233903Y-21807403D01*
X16233903Y-21807403D02*
X16214856Y-21797879D01*
X16329141Y-21712165D02*
X16329141Y-21750260D01*
X16405332Y-21712165D02*
X16405332Y-21750260D01*
X16700570Y-21988355D02*
X16691046Y-21978831D01*
X16691046Y-21978831D02*
X16671999Y-21950260D01*
X16671999Y-21950260D02*
X16662475Y-21931212D01*
X16662475Y-21931212D02*
X16652951Y-21902641D01*
X16652951Y-21902641D02*
X16643427Y-21855022D01*
X16643427Y-21855022D02*
X16643427Y-21816927D01*
X16643427Y-21816927D02*
X16652951Y-21769308D01*
X16652951Y-21769308D02*
X16662475Y-21740736D01*
X16662475Y-21740736D02*
X16671999Y-21721689D01*
X16671999Y-21721689D02*
X16691046Y-21693117D01*
X16691046Y-21693117D02*
X16700570Y-21683593D01*
X16871999Y-21712165D02*
X16776760Y-21712165D01*
X16776760Y-21712165D02*
X16767237Y-21807403D01*
X16767237Y-21807403D02*
X16776760Y-21797879D01*
X16776760Y-21797879D02*
X16795808Y-21788355D01*
X16795808Y-21788355D02*
X16843427Y-21788355D01*
X16843427Y-21788355D02*
X16862475Y-21797879D01*
X16862475Y-21797879D02*
X16871999Y-21807403D01*
X16871999Y-21807403D02*
X16881522Y-21826451D01*
X16881522Y-21826451D02*
X16881522Y-21874070D01*
X16881522Y-21874070D02*
X16871999Y-21893117D01*
X16871999Y-21893117D02*
X16862475Y-21902641D01*
X16862475Y-21902641D02*
X16843427Y-21912165D01*
X16843427Y-21912165D02*
X16795808Y-21912165D01*
X16795808Y-21912165D02*
X16776760Y-21902641D01*
X16776760Y-21902641D02*
X16767237Y-21893117D01*
X17052951Y-21778831D02*
X17052951Y-21912165D01*
X17005332Y-21702641D02*
X16957713Y-21845498D01*
X16957713Y-21845498D02*
X17081522Y-21845498D01*
X17310094Y-21912165D02*
X17310094Y-21712165D01*
X17395808Y-21912165D02*
X17395808Y-21807403D01*
X17395808Y-21807403D02*
X17386284Y-21788355D01*
X17386284Y-21788355D02*
X17367237Y-21778831D01*
X17367237Y-21778831D02*
X17338665Y-21778831D01*
X17338665Y-21778831D02*
X17319618Y-21788355D01*
X17319618Y-21788355D02*
X17310094Y-21797879D01*
X17519618Y-21912165D02*
X17500570Y-21902641D01*
X17500570Y-21902641D02*
X17491046Y-21893117D01*
X17491046Y-21893117D02*
X17481523Y-21874070D01*
X17481523Y-21874070D02*
X17481523Y-21816927D01*
X17481523Y-21816927D02*
X17491046Y-21797879D01*
X17491046Y-21797879D02*
X17500570Y-21788355D01*
X17500570Y-21788355D02*
X17519618Y-21778831D01*
X17519618Y-21778831D02*
X17548189Y-21778831D01*
X17548189Y-21778831D02*
X17567237Y-21788355D01*
X17567237Y-21788355D02*
X17576761Y-21797879D01*
X17576761Y-21797879D02*
X17586284Y-21816927D01*
X17586284Y-21816927D02*
X17586284Y-21874070D01*
X17586284Y-21874070D02*
X17576761Y-21893117D01*
X17576761Y-21893117D02*
X17567237Y-21902641D01*
X17567237Y-21902641D02*
X17548189Y-21912165D01*
X17548189Y-21912165D02*
X17519618Y-21912165D01*
X17700570Y-21912165D02*
X17681523Y-21902641D01*
X17681523Y-21902641D02*
X17671999Y-21883593D01*
X17671999Y-21883593D02*
X17671999Y-21712165D01*
X17852951Y-21902641D02*
X17833904Y-21912165D01*
X17833904Y-21912165D02*
X17795808Y-21912165D01*
X17795808Y-21912165D02*
X17776761Y-21902641D01*
X17776761Y-21902641D02*
X17767237Y-21883593D01*
X17767237Y-21883593D02*
X17767237Y-21807403D01*
X17767237Y-21807403D02*
X17776761Y-21788355D01*
X17776761Y-21788355D02*
X17795808Y-21778831D01*
X17795808Y-21778831D02*
X17833904Y-21778831D01*
X17833904Y-21778831D02*
X17852951Y-21788355D01*
X17852951Y-21788355D02*
X17862475Y-21807403D01*
X17862475Y-21807403D02*
X17862475Y-21826451D01*
X17862475Y-21826451D02*
X17767237Y-21845498D01*
X17938665Y-21902641D02*
X17957713Y-21912165D01*
X17957713Y-21912165D02*
X17995808Y-21912165D01*
X17995808Y-21912165D02*
X18014856Y-21902641D01*
X18014856Y-21902641D02*
X18024380Y-21883593D01*
X18024380Y-21883593D02*
X18024380Y-21874070D01*
X18024380Y-21874070D02*
X18014856Y-21855022D01*
X18014856Y-21855022D02*
X17995808Y-21845498D01*
X17995808Y-21845498D02*
X17967237Y-21845498D01*
X17967237Y-21845498D02*
X17948189Y-21835974D01*
X17948189Y-21835974D02*
X17938665Y-21816927D01*
X17938665Y-21816927D02*
X17938665Y-21807403D01*
X17938665Y-21807403D02*
X17948189Y-21788355D01*
X17948189Y-21788355D02*
X17967237Y-21778831D01*
X17967237Y-21778831D02*
X17995808Y-21778831D01*
X17995808Y-21778831D02*
X18014856Y-21788355D01*
X18091046Y-21988355D02*
X18100570Y-21978831D01*
X18100570Y-21978831D02*
X18119618Y-21950260D01*
X18119618Y-21950260D02*
X18129142Y-21931212D01*
X18129142Y-21931212D02*
X18138665Y-21902641D01*
X18138665Y-21902641D02*
X18148189Y-21855022D01*
X18148189Y-21855022D02*
X18148189Y-21816927D01*
X18148189Y-21816927D02*
X18138665Y-21769308D01*
X18138665Y-21769308D02*
X18129142Y-21740736D01*
X18129142Y-21740736D02*
X18119618Y-21721689D01*
X18119618Y-21721689D02*
X18100570Y-21693117D01*
X18100570Y-21693117D02*
X18091046Y-21683593D01*
X18452951Y-21988355D02*
X18443427Y-21978831D01*
X18443427Y-21978831D02*
X18424380Y-21950260D01*
X18424380Y-21950260D02*
X18414856Y-21931212D01*
X18414856Y-21931212D02*
X18405332Y-21902641D01*
X18405332Y-21902641D02*
X18395808Y-21855022D01*
X18395808Y-21855022D02*
X18395808Y-21816927D01*
X18395808Y-21816927D02*
X18405332Y-21769308D01*
X18405332Y-21769308D02*
X18414856Y-21740736D01*
X18414856Y-21740736D02*
X18424380Y-21721689D01*
X18424380Y-21721689D02*
X18443427Y-21693117D01*
X18443427Y-21693117D02*
X18452951Y-21683593D01*
X18529142Y-21778831D02*
X18529142Y-21912165D01*
X18529142Y-21797879D02*
X18538665Y-21788355D01*
X18538665Y-21788355D02*
X18557713Y-21778831D01*
X18557713Y-21778831D02*
X18586285Y-21778831D01*
X18586285Y-21778831D02*
X18605332Y-21788355D01*
X18605332Y-21788355D02*
X18614856Y-21807403D01*
X18614856Y-21807403D02*
X18614856Y-21912165D01*
X18738665Y-21912165D02*
X18719618Y-21902641D01*
X18719618Y-21902641D02*
X18710094Y-21893117D01*
X18710094Y-21893117D02*
X18700570Y-21874070D01*
X18700570Y-21874070D02*
X18700570Y-21816927D01*
X18700570Y-21816927D02*
X18710094Y-21797879D01*
X18710094Y-21797879D02*
X18719618Y-21788355D01*
X18719618Y-21788355D02*
X18738665Y-21778831D01*
X18738665Y-21778831D02*
X18767237Y-21778831D01*
X18767237Y-21778831D02*
X18786285Y-21788355D01*
X18786285Y-21788355D02*
X18795808Y-21797879D01*
X18795808Y-21797879D02*
X18805332Y-21816927D01*
X18805332Y-21816927D02*
X18805332Y-21874070D01*
X18805332Y-21874070D02*
X18795808Y-21893117D01*
X18795808Y-21893117D02*
X18786285Y-21902641D01*
X18786285Y-21902641D02*
X18767237Y-21912165D01*
X18767237Y-21912165D02*
X18738665Y-21912165D01*
X18862475Y-21778831D02*
X18938665Y-21778831D01*
X18891046Y-21712165D02*
X18891046Y-21883593D01*
X18891046Y-21883593D02*
X18900570Y-21902641D01*
X18900570Y-21902641D02*
X18919618Y-21912165D01*
X18919618Y-21912165D02*
X18938665Y-21912165D01*
X19157713Y-21778831D02*
X19157713Y-21978831D01*
X19157713Y-21788355D02*
X19176761Y-21778831D01*
X19176761Y-21778831D02*
X19214856Y-21778831D01*
X19214856Y-21778831D02*
X19233904Y-21788355D01*
X19233904Y-21788355D02*
X19243427Y-21797879D01*
X19243427Y-21797879D02*
X19252951Y-21816927D01*
X19252951Y-21816927D02*
X19252951Y-21874070D01*
X19252951Y-21874070D02*
X19243427Y-21893117D01*
X19243427Y-21893117D02*
X19233904Y-21902641D01*
X19233904Y-21902641D02*
X19214856Y-21912165D01*
X19214856Y-21912165D02*
X19176761Y-21912165D01*
X19176761Y-21912165D02*
X19157713Y-21902641D01*
X19367237Y-21912165D02*
X19348189Y-21902641D01*
X19348189Y-21902641D02*
X19338666Y-21883593D01*
X19338666Y-21883593D02*
X19338666Y-21712165D01*
X19529142Y-21912165D02*
X19529142Y-21807403D01*
X19529142Y-21807403D02*
X19519618Y-21788355D01*
X19519618Y-21788355D02*
X19500570Y-21778831D01*
X19500570Y-21778831D02*
X19462475Y-21778831D01*
X19462475Y-21778831D02*
X19443427Y-21788355D01*
X19529142Y-21902641D02*
X19510094Y-21912165D01*
X19510094Y-21912165D02*
X19462475Y-21912165D01*
X19462475Y-21912165D02*
X19443427Y-21902641D01*
X19443427Y-21902641D02*
X19433904Y-21883593D01*
X19433904Y-21883593D02*
X19433904Y-21864546D01*
X19433904Y-21864546D02*
X19443427Y-21845498D01*
X19443427Y-21845498D02*
X19462475Y-21835974D01*
X19462475Y-21835974D02*
X19510094Y-21835974D01*
X19510094Y-21835974D02*
X19529142Y-21826451D01*
X19595808Y-21778831D02*
X19671999Y-21778831D01*
X19624380Y-21712165D02*
X19624380Y-21883593D01*
X19624380Y-21883593D02*
X19633904Y-21902641D01*
X19633904Y-21902641D02*
X19652951Y-21912165D01*
X19652951Y-21912165D02*
X19671999Y-21912165D01*
X19814856Y-21902641D02*
X19795808Y-21912165D01*
X19795808Y-21912165D02*
X19757713Y-21912165D01*
X19757713Y-21912165D02*
X19738666Y-21902641D01*
X19738666Y-21902641D02*
X19729142Y-21883593D01*
X19729142Y-21883593D02*
X19729142Y-21807403D01*
X19729142Y-21807403D02*
X19738666Y-21788355D01*
X19738666Y-21788355D02*
X19757713Y-21778831D01*
X19757713Y-21778831D02*
X19795808Y-21778831D01*
X19795808Y-21778831D02*
X19814856Y-21788355D01*
X19814856Y-21788355D02*
X19824380Y-21807403D01*
X19824380Y-21807403D02*
X19824380Y-21826451D01*
X19824380Y-21826451D02*
X19729142Y-21845498D01*
X19995808Y-21912165D02*
X19995808Y-21712165D01*
X19995808Y-21902641D02*
X19976761Y-21912165D01*
X19976761Y-21912165D02*
X19938666Y-21912165D01*
X19938666Y-21912165D02*
X19919618Y-21902641D01*
X19919618Y-21902641D02*
X19910094Y-21893117D01*
X19910094Y-21893117D02*
X19900570Y-21874070D01*
X19900570Y-21874070D02*
X19900570Y-21816927D01*
X19900570Y-21816927D02*
X19910094Y-21797879D01*
X19910094Y-21797879D02*
X19919618Y-21788355D01*
X19919618Y-21788355D02*
X19938666Y-21778831D01*
X19938666Y-21778831D02*
X19976761Y-21778831D01*
X19976761Y-21778831D02*
X19995808Y-21788355D01*
X20071999Y-21988355D02*
X20081523Y-21978831D01*
X20081523Y-21978831D02*
X20100570Y-21950260D01*
X20100570Y-21950260D02*
X20110094Y-21931212D01*
X20110094Y-21931212D02*
X20119618Y-21902641D01*
X20119618Y-21902641D02*
X20129142Y-21855022D01*
X20129142Y-21855022D02*
X20129142Y-21816927D01*
X20129142Y-21816927D02*
X20119618Y-21769308D01*
X20119618Y-21769308D02*
X20110094Y-21740736D01*
X20110094Y-21740736D02*
X20100570Y-21721689D01*
X20100570Y-21721689D02*
X20081523Y-21693117D01*
X20081523Y-21693117D02*
X20071999Y-21683593D01*
X13025507Y-22030681D02*
X13025507Y-22230681D01*
X12925507Y-22130681D02*
X13125507Y-22130681D01*
X13367236Y-22022165D02*
X13491046Y-22022165D01*
X13491046Y-22022165D02*
X13424379Y-22098355D01*
X13424379Y-22098355D02*
X13452951Y-22098355D01*
X13452951Y-22098355D02*
X13471998Y-22107879D01*
X13471998Y-22107879D02*
X13481522Y-22117403D01*
X13481522Y-22117403D02*
X13491046Y-22136451D01*
X13491046Y-22136451D02*
X13491046Y-22184070D01*
X13491046Y-22184070D02*
X13481522Y-22203117D01*
X13481522Y-22203117D02*
X13471998Y-22212641D01*
X13471998Y-22212641D02*
X13452951Y-22222165D01*
X13452951Y-22222165D02*
X13395808Y-22222165D01*
X13395808Y-22222165D02*
X13376760Y-22212641D01*
X13376760Y-22212641D02*
X13367236Y-22203117D01*
X13576760Y-22203117D02*
X13586284Y-22212641D01*
X13586284Y-22212641D02*
X13576760Y-22222165D01*
X13576760Y-22222165D02*
X13567236Y-22212641D01*
X13567236Y-22212641D02*
X13576760Y-22203117D01*
X13576760Y-22203117D02*
X13576760Y-22222165D01*
X13710093Y-22022165D02*
X13729141Y-22022165D01*
X13729141Y-22022165D02*
X13748189Y-22031689D01*
X13748189Y-22031689D02*
X13757713Y-22041212D01*
X13757713Y-22041212D02*
X13767236Y-22060260D01*
X13767236Y-22060260D02*
X13776760Y-22098355D01*
X13776760Y-22098355D02*
X13776760Y-22145974D01*
X13776760Y-22145974D02*
X13767236Y-22184070D01*
X13767236Y-22184070D02*
X13757713Y-22203117D01*
X13757713Y-22203117D02*
X13748189Y-22212641D01*
X13748189Y-22212641D02*
X13729141Y-22222165D01*
X13729141Y-22222165D02*
X13710093Y-22222165D01*
X13710093Y-22222165D02*
X13691046Y-22212641D01*
X13691046Y-22212641D02*
X13681522Y-22203117D01*
X13681522Y-22203117D02*
X13671998Y-22184070D01*
X13671998Y-22184070D02*
X13662474Y-22145974D01*
X13662474Y-22145974D02*
X13662474Y-22098355D01*
X13662474Y-22098355D02*
X13671998Y-22060260D01*
X13671998Y-22060260D02*
X13681522Y-22041212D01*
X13681522Y-22041212D02*
X13691046Y-22031689D01*
X13691046Y-22031689D02*
X13710093Y-22022165D01*
X13900570Y-22022165D02*
X13919617Y-22022165D01*
X13919617Y-22022165D02*
X13938665Y-22031689D01*
X13938665Y-22031689D02*
X13948189Y-22041212D01*
X13948189Y-22041212D02*
X13957713Y-22060260D01*
X13957713Y-22060260D02*
X13967236Y-22098355D01*
X13967236Y-22098355D02*
X13967236Y-22145974D01*
X13967236Y-22145974D02*
X13957713Y-22184070D01*
X13957713Y-22184070D02*
X13948189Y-22203117D01*
X13948189Y-22203117D02*
X13938665Y-22212641D01*
X13938665Y-22212641D02*
X13919617Y-22222165D01*
X13919617Y-22222165D02*
X13900570Y-22222165D01*
X13900570Y-22222165D02*
X13881522Y-22212641D01*
X13881522Y-22212641D02*
X13871998Y-22203117D01*
X13871998Y-22203117D02*
X13862474Y-22184070D01*
X13862474Y-22184070D02*
X13852951Y-22145974D01*
X13852951Y-22145974D02*
X13852951Y-22098355D01*
X13852951Y-22098355D02*
X13862474Y-22060260D01*
X13862474Y-22060260D02*
X13871998Y-22041212D01*
X13871998Y-22041212D02*
X13881522Y-22031689D01*
X13881522Y-22031689D02*
X13900570Y-22022165D01*
X14091046Y-22022165D02*
X14110094Y-22022165D01*
X14110094Y-22022165D02*
X14129141Y-22031689D01*
X14129141Y-22031689D02*
X14138665Y-22041212D01*
X14138665Y-22041212D02*
X14148189Y-22060260D01*
X14148189Y-22060260D02*
X14157713Y-22098355D01*
X14157713Y-22098355D02*
X14157713Y-22145974D01*
X14157713Y-22145974D02*
X14148189Y-22184070D01*
X14148189Y-22184070D02*
X14138665Y-22203117D01*
X14138665Y-22203117D02*
X14129141Y-22212641D01*
X14129141Y-22212641D02*
X14110094Y-22222165D01*
X14110094Y-22222165D02*
X14091046Y-22222165D01*
X14091046Y-22222165D02*
X14071998Y-22212641D01*
X14071998Y-22212641D02*
X14062474Y-22203117D01*
X14062474Y-22203117D02*
X14052951Y-22184070D01*
X14052951Y-22184070D02*
X14043427Y-22145974D01*
X14043427Y-22145974D02*
X14043427Y-22098355D01*
X14043427Y-22098355D02*
X14052951Y-22060260D01*
X14052951Y-22060260D02*
X14062474Y-22041212D01*
X14062474Y-22041212D02*
X14071998Y-22031689D01*
X14071998Y-22031689D02*
X14091046Y-22022165D01*
X14243427Y-22222165D02*
X14243427Y-22088831D01*
X14243427Y-22107879D02*
X14252951Y-22098355D01*
X14252951Y-22098355D02*
X14271998Y-22088831D01*
X14271998Y-22088831D02*
X14300570Y-22088831D01*
X14300570Y-22088831D02*
X14319617Y-22098355D01*
X14319617Y-22098355D02*
X14329141Y-22117403D01*
X14329141Y-22117403D02*
X14329141Y-22222165D01*
X14329141Y-22117403D02*
X14338665Y-22098355D01*
X14338665Y-22098355D02*
X14357713Y-22088831D01*
X14357713Y-22088831D02*
X14386284Y-22088831D01*
X14386284Y-22088831D02*
X14405332Y-22098355D01*
X14405332Y-22098355D02*
X14414855Y-22117403D01*
X14414855Y-22117403D02*
X14414855Y-22222165D01*
X14510094Y-22222165D02*
X14510094Y-22088831D01*
X14510094Y-22107879D02*
X14519617Y-22098355D01*
X14519617Y-22098355D02*
X14538665Y-22088831D01*
X14538665Y-22088831D02*
X14567236Y-22088831D01*
X14567236Y-22088831D02*
X14586284Y-22098355D01*
X14586284Y-22098355D02*
X14595808Y-22117403D01*
X14595808Y-22117403D02*
X14595808Y-22222165D01*
X14595808Y-22117403D02*
X14605332Y-22098355D01*
X14605332Y-22098355D02*
X14624379Y-22088831D01*
X14624379Y-22088831D02*
X14652951Y-22088831D01*
X14652951Y-22088831D02*
X14671998Y-22098355D01*
X14671998Y-22098355D02*
X14681522Y-22117403D01*
X14681522Y-22117403D02*
X14681522Y-22222165D01*
X15071998Y-22012641D02*
X14900570Y-22269784D01*
X15329141Y-22022165D02*
X15348189Y-22022165D01*
X15348189Y-22022165D02*
X15367237Y-22031689D01*
X15367237Y-22031689D02*
X15376760Y-22041212D01*
X15376760Y-22041212D02*
X15386284Y-22060260D01*
X15386284Y-22060260D02*
X15395808Y-22098355D01*
X15395808Y-22098355D02*
X15395808Y-22145974D01*
X15395808Y-22145974D02*
X15386284Y-22184070D01*
X15386284Y-22184070D02*
X15376760Y-22203117D01*
X15376760Y-22203117D02*
X15367237Y-22212641D01*
X15367237Y-22212641D02*
X15348189Y-22222165D01*
X15348189Y-22222165D02*
X15329141Y-22222165D01*
X15329141Y-22222165D02*
X15310094Y-22212641D01*
X15310094Y-22212641D02*
X15300570Y-22203117D01*
X15300570Y-22203117D02*
X15291046Y-22184070D01*
X15291046Y-22184070D02*
X15281522Y-22145974D01*
X15281522Y-22145974D02*
X15281522Y-22098355D01*
X15281522Y-22098355D02*
X15291046Y-22060260D01*
X15291046Y-22060260D02*
X15300570Y-22041212D01*
X15300570Y-22041212D02*
X15310094Y-22031689D01*
X15310094Y-22031689D02*
X15329141Y-22022165D01*
X15481522Y-22203117D02*
X15491046Y-22212641D01*
X15491046Y-22212641D02*
X15481522Y-22222165D01*
X15481522Y-22222165D02*
X15471998Y-22212641D01*
X15471998Y-22212641D02*
X15481522Y-22203117D01*
X15481522Y-22203117D02*
X15481522Y-22222165D01*
X15681522Y-22222165D02*
X15567237Y-22222165D01*
X15624379Y-22222165D02*
X15624379Y-22022165D01*
X15624379Y-22022165D02*
X15605332Y-22050736D01*
X15605332Y-22050736D02*
X15586284Y-22069784D01*
X15586284Y-22069784D02*
X15567237Y-22079308D01*
X15871998Y-22222165D02*
X15757713Y-22222165D01*
X15814856Y-22222165D02*
X15814856Y-22022165D01*
X15814856Y-22022165D02*
X15795808Y-22050736D01*
X15795808Y-22050736D02*
X15776760Y-22069784D01*
X15776760Y-22069784D02*
X15757713Y-22079308D01*
X15986284Y-22107879D02*
X15967237Y-22098355D01*
X15967237Y-22098355D02*
X15957713Y-22088831D01*
X15957713Y-22088831D02*
X15948189Y-22069784D01*
X15948189Y-22069784D02*
X15948189Y-22060260D01*
X15948189Y-22060260D02*
X15957713Y-22041212D01*
X15957713Y-22041212D02*
X15967237Y-22031689D01*
X15967237Y-22031689D02*
X15986284Y-22022165D01*
X15986284Y-22022165D02*
X16024379Y-22022165D01*
X16024379Y-22022165D02*
X16043427Y-22031689D01*
X16043427Y-22031689D02*
X16052951Y-22041212D01*
X16052951Y-22041212D02*
X16062475Y-22060260D01*
X16062475Y-22060260D02*
X16062475Y-22069784D01*
X16062475Y-22069784D02*
X16052951Y-22088831D01*
X16052951Y-22088831D02*
X16043427Y-22098355D01*
X16043427Y-22098355D02*
X16024379Y-22107879D01*
X16024379Y-22107879D02*
X15986284Y-22107879D01*
X15986284Y-22107879D02*
X15967237Y-22117403D01*
X15967237Y-22117403D02*
X15957713Y-22126927D01*
X15957713Y-22126927D02*
X15948189Y-22145974D01*
X15948189Y-22145974D02*
X15948189Y-22184070D01*
X15948189Y-22184070D02*
X15957713Y-22203117D01*
X15957713Y-22203117D02*
X15967237Y-22212641D01*
X15967237Y-22212641D02*
X15986284Y-22222165D01*
X15986284Y-22222165D02*
X16024379Y-22222165D01*
X16024379Y-22222165D02*
X16043427Y-22212641D01*
X16043427Y-22212641D02*
X16052951Y-22203117D01*
X16052951Y-22203117D02*
X16062475Y-22184070D01*
X16062475Y-22184070D02*
X16062475Y-22145974D01*
X16062475Y-22145974D02*
X16052951Y-22126927D01*
X16052951Y-22126927D02*
X16043427Y-22117403D01*
X16043427Y-22117403D02*
X16024379Y-22107879D01*
X16252951Y-22222165D02*
X16138665Y-22222165D01*
X16195808Y-22222165D02*
X16195808Y-22022165D01*
X16195808Y-22022165D02*
X16176760Y-22050736D01*
X16176760Y-22050736D02*
X16157713Y-22069784D01*
X16157713Y-22069784D02*
X16138665Y-22079308D01*
X16329141Y-22022165D02*
X16329141Y-22060260D01*
X16405332Y-22022165D02*
X16405332Y-22060260D01*
X16700570Y-22298355D02*
X16691046Y-22288831D01*
X16691046Y-22288831D02*
X16671999Y-22260260D01*
X16671999Y-22260260D02*
X16662475Y-22241212D01*
X16662475Y-22241212D02*
X16652951Y-22212641D01*
X16652951Y-22212641D02*
X16643427Y-22165022D01*
X16643427Y-22165022D02*
X16643427Y-22126927D01*
X16643427Y-22126927D02*
X16652951Y-22079308D01*
X16652951Y-22079308D02*
X16662475Y-22050736D01*
X16662475Y-22050736D02*
X16671999Y-22031689D01*
X16671999Y-22031689D02*
X16691046Y-22003117D01*
X16691046Y-22003117D02*
X16700570Y-21993593D01*
X16871999Y-22022165D02*
X16776760Y-22022165D01*
X16776760Y-22022165D02*
X16767237Y-22117403D01*
X16767237Y-22117403D02*
X16776760Y-22107879D01*
X16776760Y-22107879D02*
X16795808Y-22098355D01*
X16795808Y-22098355D02*
X16843427Y-22098355D01*
X16843427Y-22098355D02*
X16862475Y-22107879D01*
X16862475Y-22107879D02*
X16871999Y-22117403D01*
X16871999Y-22117403D02*
X16881522Y-22136451D01*
X16881522Y-22136451D02*
X16881522Y-22184070D01*
X16881522Y-22184070D02*
X16871999Y-22203117D01*
X16871999Y-22203117D02*
X16862475Y-22212641D01*
X16862475Y-22212641D02*
X16843427Y-22222165D01*
X16843427Y-22222165D02*
X16795808Y-22222165D01*
X16795808Y-22222165D02*
X16776760Y-22212641D01*
X16776760Y-22212641D02*
X16767237Y-22203117D01*
X17052951Y-22088831D02*
X17052951Y-22222165D01*
X17005332Y-22012641D02*
X16957713Y-22155498D01*
X16957713Y-22155498D02*
X17081522Y-22155498D01*
X17310094Y-22222165D02*
X17310094Y-22022165D01*
X17395808Y-22222165D02*
X17395808Y-22117403D01*
X17395808Y-22117403D02*
X17386284Y-22098355D01*
X17386284Y-22098355D02*
X17367237Y-22088831D01*
X17367237Y-22088831D02*
X17338665Y-22088831D01*
X17338665Y-22088831D02*
X17319618Y-22098355D01*
X17319618Y-22098355D02*
X17310094Y-22107879D01*
X17519618Y-22222165D02*
X17500570Y-22212641D01*
X17500570Y-22212641D02*
X17491046Y-22203117D01*
X17491046Y-22203117D02*
X17481523Y-22184070D01*
X17481523Y-22184070D02*
X17481523Y-22126927D01*
X17481523Y-22126927D02*
X17491046Y-22107879D01*
X17491046Y-22107879D02*
X17500570Y-22098355D01*
X17500570Y-22098355D02*
X17519618Y-22088831D01*
X17519618Y-22088831D02*
X17548189Y-22088831D01*
X17548189Y-22088831D02*
X17567237Y-22098355D01*
X17567237Y-22098355D02*
X17576761Y-22107879D01*
X17576761Y-22107879D02*
X17586284Y-22126927D01*
X17586284Y-22126927D02*
X17586284Y-22184070D01*
X17586284Y-22184070D02*
X17576761Y-22203117D01*
X17576761Y-22203117D02*
X17567237Y-22212641D01*
X17567237Y-22212641D02*
X17548189Y-22222165D01*
X17548189Y-22222165D02*
X17519618Y-22222165D01*
X17700570Y-22222165D02*
X17681523Y-22212641D01*
X17681523Y-22212641D02*
X17671999Y-22193593D01*
X17671999Y-22193593D02*
X17671999Y-22022165D01*
X17852951Y-22212641D02*
X17833904Y-22222165D01*
X17833904Y-22222165D02*
X17795808Y-22222165D01*
X17795808Y-22222165D02*
X17776761Y-22212641D01*
X17776761Y-22212641D02*
X17767237Y-22193593D01*
X17767237Y-22193593D02*
X17767237Y-22117403D01*
X17767237Y-22117403D02*
X17776761Y-22098355D01*
X17776761Y-22098355D02*
X17795808Y-22088831D01*
X17795808Y-22088831D02*
X17833904Y-22088831D01*
X17833904Y-22088831D02*
X17852951Y-22098355D01*
X17852951Y-22098355D02*
X17862475Y-22117403D01*
X17862475Y-22117403D02*
X17862475Y-22136451D01*
X17862475Y-22136451D02*
X17767237Y-22155498D01*
X17938665Y-22212641D02*
X17957713Y-22222165D01*
X17957713Y-22222165D02*
X17995808Y-22222165D01*
X17995808Y-22222165D02*
X18014856Y-22212641D01*
X18014856Y-22212641D02*
X18024380Y-22193593D01*
X18024380Y-22193593D02*
X18024380Y-22184070D01*
X18024380Y-22184070D02*
X18014856Y-22165022D01*
X18014856Y-22165022D02*
X17995808Y-22155498D01*
X17995808Y-22155498D02*
X17967237Y-22155498D01*
X17967237Y-22155498D02*
X17948189Y-22145974D01*
X17948189Y-22145974D02*
X17938665Y-22126927D01*
X17938665Y-22126927D02*
X17938665Y-22117403D01*
X17938665Y-22117403D02*
X17948189Y-22098355D01*
X17948189Y-22098355D02*
X17967237Y-22088831D01*
X17967237Y-22088831D02*
X17995808Y-22088831D01*
X17995808Y-22088831D02*
X18014856Y-22098355D01*
X18091046Y-22298355D02*
X18100570Y-22288831D01*
X18100570Y-22288831D02*
X18119618Y-22260260D01*
X18119618Y-22260260D02*
X18129142Y-22241212D01*
X18129142Y-22241212D02*
X18138665Y-22212641D01*
X18138665Y-22212641D02*
X18148189Y-22165022D01*
X18148189Y-22165022D02*
X18148189Y-22126927D01*
X18148189Y-22126927D02*
X18138665Y-22079308D01*
X18138665Y-22079308D02*
X18129142Y-22050736D01*
X18129142Y-22050736D02*
X18119618Y-22031689D01*
X18119618Y-22031689D02*
X18100570Y-22003117D01*
X18100570Y-22003117D02*
X18091046Y-21993593D01*
X18452951Y-22298355D02*
X18443427Y-22288831D01*
X18443427Y-22288831D02*
X18424380Y-22260260D01*
X18424380Y-22260260D02*
X18414856Y-22241212D01*
X18414856Y-22241212D02*
X18405332Y-22212641D01*
X18405332Y-22212641D02*
X18395808Y-22165022D01*
X18395808Y-22165022D02*
X18395808Y-22126927D01*
X18395808Y-22126927D02*
X18405332Y-22079308D01*
X18405332Y-22079308D02*
X18414856Y-22050736D01*
X18414856Y-22050736D02*
X18424380Y-22031689D01*
X18424380Y-22031689D02*
X18443427Y-22003117D01*
X18443427Y-22003117D02*
X18452951Y-21993593D01*
X18529142Y-22088831D02*
X18529142Y-22222165D01*
X18529142Y-22107879D02*
X18538665Y-22098355D01*
X18538665Y-22098355D02*
X18557713Y-22088831D01*
X18557713Y-22088831D02*
X18586285Y-22088831D01*
X18586285Y-22088831D02*
X18605332Y-22098355D01*
X18605332Y-22098355D02*
X18614856Y-22117403D01*
X18614856Y-22117403D02*
X18614856Y-22222165D01*
X18738665Y-22222165D02*
X18719618Y-22212641D01*
X18719618Y-22212641D02*
X18710094Y-22203117D01*
X18710094Y-22203117D02*
X18700570Y-22184070D01*
X18700570Y-22184070D02*
X18700570Y-22126927D01*
X18700570Y-22126927D02*
X18710094Y-22107879D01*
X18710094Y-22107879D02*
X18719618Y-22098355D01*
X18719618Y-22098355D02*
X18738665Y-22088831D01*
X18738665Y-22088831D02*
X18767237Y-22088831D01*
X18767237Y-22088831D02*
X18786285Y-22098355D01*
X18786285Y-22098355D02*
X18795808Y-22107879D01*
X18795808Y-22107879D02*
X18805332Y-22126927D01*
X18805332Y-22126927D02*
X18805332Y-22184070D01*
X18805332Y-22184070D02*
X18795808Y-22203117D01*
X18795808Y-22203117D02*
X18786285Y-22212641D01*
X18786285Y-22212641D02*
X18767237Y-22222165D01*
X18767237Y-22222165D02*
X18738665Y-22222165D01*
X18862475Y-22088831D02*
X18938665Y-22088831D01*
X18891046Y-22022165D02*
X18891046Y-22193593D01*
X18891046Y-22193593D02*
X18900570Y-22212641D01*
X18900570Y-22212641D02*
X18919618Y-22222165D01*
X18919618Y-22222165D02*
X18938665Y-22222165D01*
X19157713Y-22088831D02*
X19157713Y-22288831D01*
X19157713Y-22098355D02*
X19176761Y-22088831D01*
X19176761Y-22088831D02*
X19214856Y-22088831D01*
X19214856Y-22088831D02*
X19233904Y-22098355D01*
X19233904Y-22098355D02*
X19243427Y-22107879D01*
X19243427Y-22107879D02*
X19252951Y-22126927D01*
X19252951Y-22126927D02*
X19252951Y-22184070D01*
X19252951Y-22184070D02*
X19243427Y-22203117D01*
X19243427Y-22203117D02*
X19233904Y-22212641D01*
X19233904Y-22212641D02*
X19214856Y-22222165D01*
X19214856Y-22222165D02*
X19176761Y-22222165D01*
X19176761Y-22222165D02*
X19157713Y-22212641D01*
X19367237Y-22222165D02*
X19348189Y-22212641D01*
X19348189Y-22212641D02*
X19338666Y-22193593D01*
X19338666Y-22193593D02*
X19338666Y-22022165D01*
X19529142Y-22222165D02*
X19529142Y-22117403D01*
X19529142Y-22117403D02*
X19519618Y-22098355D01*
X19519618Y-22098355D02*
X19500570Y-22088831D01*
X19500570Y-22088831D02*
X19462475Y-22088831D01*
X19462475Y-22088831D02*
X19443427Y-22098355D01*
X19529142Y-22212641D02*
X19510094Y-22222165D01*
X19510094Y-22222165D02*
X19462475Y-22222165D01*
X19462475Y-22222165D02*
X19443427Y-22212641D01*
X19443427Y-22212641D02*
X19433904Y-22193593D01*
X19433904Y-22193593D02*
X19433904Y-22174546D01*
X19433904Y-22174546D02*
X19443427Y-22155498D01*
X19443427Y-22155498D02*
X19462475Y-22145974D01*
X19462475Y-22145974D02*
X19510094Y-22145974D01*
X19510094Y-22145974D02*
X19529142Y-22136451D01*
X19595808Y-22088831D02*
X19671999Y-22088831D01*
X19624380Y-22022165D02*
X19624380Y-22193593D01*
X19624380Y-22193593D02*
X19633904Y-22212641D01*
X19633904Y-22212641D02*
X19652951Y-22222165D01*
X19652951Y-22222165D02*
X19671999Y-22222165D01*
X19814856Y-22212641D02*
X19795808Y-22222165D01*
X19795808Y-22222165D02*
X19757713Y-22222165D01*
X19757713Y-22222165D02*
X19738666Y-22212641D01*
X19738666Y-22212641D02*
X19729142Y-22193593D01*
X19729142Y-22193593D02*
X19729142Y-22117403D01*
X19729142Y-22117403D02*
X19738666Y-22098355D01*
X19738666Y-22098355D02*
X19757713Y-22088831D01*
X19757713Y-22088831D02*
X19795808Y-22088831D01*
X19795808Y-22088831D02*
X19814856Y-22098355D01*
X19814856Y-22098355D02*
X19824380Y-22117403D01*
X19824380Y-22117403D02*
X19824380Y-22136451D01*
X19824380Y-22136451D02*
X19729142Y-22155498D01*
X19995808Y-22222165D02*
X19995808Y-22022165D01*
X19995808Y-22212641D02*
X19976761Y-22222165D01*
X19976761Y-22222165D02*
X19938666Y-22222165D01*
X19938666Y-22222165D02*
X19919618Y-22212641D01*
X19919618Y-22212641D02*
X19910094Y-22203117D01*
X19910094Y-22203117D02*
X19900570Y-22184070D01*
X19900570Y-22184070D02*
X19900570Y-22126927D01*
X19900570Y-22126927D02*
X19910094Y-22107879D01*
X19910094Y-22107879D02*
X19919618Y-22098355D01*
X19919618Y-22098355D02*
X19938666Y-22088831D01*
X19938666Y-22088831D02*
X19976761Y-22088831D01*
X19976761Y-22088831D02*
X19995808Y-22098355D01*
X20071999Y-22298355D02*
X20081523Y-22288831D01*
X20081523Y-22288831D02*
X20100570Y-22260260D01*
X20100570Y-22260260D02*
X20110094Y-22241212D01*
X20110094Y-22241212D02*
X20119618Y-22212641D01*
X20119618Y-22212641D02*
X20129142Y-22165022D01*
X20129142Y-22165022D02*
X20129142Y-22126927D01*
X20129142Y-22126927D02*
X20119618Y-22079308D01*
X20119618Y-22079308D02*
X20110094Y-22050736D01*
X20110094Y-22050736D02*
X20100570Y-22031689D01*
X20100570Y-22031689D02*
X20081523Y-22003117D01*
X20081523Y-22003117D02*
X20071999Y-21993593D01*
X13096219Y-22521392D02*
X13096219Y-22379970D01*
X12954796Y-22379970D01*
X12954796Y-22521392D01*
X13096219Y-22521392D01*
X13471998Y-22408831D02*
X13471998Y-22542165D01*
X13424379Y-22332641D02*
X13376760Y-22475498D01*
X13376760Y-22475498D02*
X13500570Y-22475498D01*
X13576760Y-22523117D02*
X13586284Y-22532641D01*
X13586284Y-22532641D02*
X13576760Y-22542165D01*
X13576760Y-22542165D02*
X13567236Y-22532641D01*
X13567236Y-22532641D02*
X13576760Y-22523117D01*
X13576760Y-22523117D02*
X13576760Y-22542165D01*
X13776760Y-22542165D02*
X13662474Y-22542165D01*
X13719617Y-22542165D02*
X13719617Y-22342165D01*
X13719617Y-22342165D02*
X13700570Y-22370736D01*
X13700570Y-22370736D02*
X13681522Y-22389784D01*
X13681522Y-22389784D02*
X13662474Y-22399308D01*
X13900570Y-22342165D02*
X13919617Y-22342165D01*
X13919617Y-22342165D02*
X13938665Y-22351689D01*
X13938665Y-22351689D02*
X13948189Y-22361212D01*
X13948189Y-22361212D02*
X13957713Y-22380260D01*
X13957713Y-22380260D02*
X13967236Y-22418355D01*
X13967236Y-22418355D02*
X13967236Y-22465974D01*
X13967236Y-22465974D02*
X13957713Y-22504069D01*
X13957713Y-22504069D02*
X13948189Y-22523117D01*
X13948189Y-22523117D02*
X13938665Y-22532641D01*
X13938665Y-22532641D02*
X13919617Y-22542165D01*
X13919617Y-22542165D02*
X13900570Y-22542165D01*
X13900570Y-22542165D02*
X13881522Y-22532641D01*
X13881522Y-22532641D02*
X13871998Y-22523117D01*
X13871998Y-22523117D02*
X13862474Y-22504069D01*
X13862474Y-22504069D02*
X13852951Y-22465974D01*
X13852951Y-22465974D02*
X13852951Y-22418355D01*
X13852951Y-22418355D02*
X13862474Y-22380260D01*
X13862474Y-22380260D02*
X13871998Y-22361212D01*
X13871998Y-22361212D02*
X13881522Y-22351689D01*
X13881522Y-22351689D02*
X13900570Y-22342165D01*
X14091046Y-22342165D02*
X14110094Y-22342165D01*
X14110094Y-22342165D02*
X14129141Y-22351689D01*
X14129141Y-22351689D02*
X14138665Y-22361212D01*
X14138665Y-22361212D02*
X14148189Y-22380260D01*
X14148189Y-22380260D02*
X14157713Y-22418355D01*
X14157713Y-22418355D02*
X14157713Y-22465974D01*
X14157713Y-22465974D02*
X14148189Y-22504069D01*
X14148189Y-22504069D02*
X14138665Y-22523117D01*
X14138665Y-22523117D02*
X14129141Y-22532641D01*
X14129141Y-22532641D02*
X14110094Y-22542165D01*
X14110094Y-22542165D02*
X14091046Y-22542165D01*
X14091046Y-22542165D02*
X14071998Y-22532641D01*
X14071998Y-22532641D02*
X14062474Y-22523117D01*
X14062474Y-22523117D02*
X14052951Y-22504069D01*
X14052951Y-22504069D02*
X14043427Y-22465974D01*
X14043427Y-22465974D02*
X14043427Y-22418355D01*
X14043427Y-22418355D02*
X14052951Y-22380260D01*
X14052951Y-22380260D02*
X14062474Y-22361212D01*
X14062474Y-22361212D02*
X14071998Y-22351689D01*
X14071998Y-22351689D02*
X14091046Y-22342165D01*
X14243427Y-22542165D02*
X14243427Y-22408831D01*
X14243427Y-22427879D02*
X14252951Y-22418355D01*
X14252951Y-22418355D02*
X14271998Y-22408831D01*
X14271998Y-22408831D02*
X14300570Y-22408831D01*
X14300570Y-22408831D02*
X14319617Y-22418355D01*
X14319617Y-22418355D02*
X14329141Y-22437403D01*
X14329141Y-22437403D02*
X14329141Y-22542165D01*
X14329141Y-22437403D02*
X14338665Y-22418355D01*
X14338665Y-22418355D02*
X14357713Y-22408831D01*
X14357713Y-22408831D02*
X14386284Y-22408831D01*
X14386284Y-22408831D02*
X14405332Y-22418355D01*
X14405332Y-22418355D02*
X14414855Y-22437403D01*
X14414855Y-22437403D02*
X14414855Y-22542165D01*
X14510094Y-22542165D02*
X14510094Y-22408831D01*
X14510094Y-22427879D02*
X14519617Y-22418355D01*
X14519617Y-22418355D02*
X14538665Y-22408831D01*
X14538665Y-22408831D02*
X14567236Y-22408831D01*
X14567236Y-22408831D02*
X14586284Y-22418355D01*
X14586284Y-22418355D02*
X14595808Y-22437403D01*
X14595808Y-22437403D02*
X14595808Y-22542165D01*
X14595808Y-22437403D02*
X14605332Y-22418355D01*
X14605332Y-22418355D02*
X14624379Y-22408831D01*
X14624379Y-22408831D02*
X14652951Y-22408831D01*
X14652951Y-22408831D02*
X14671998Y-22418355D01*
X14671998Y-22418355D02*
X14681522Y-22437403D01*
X14681522Y-22437403D02*
X14681522Y-22542165D01*
X15071998Y-22332641D02*
X14900570Y-22589784D01*
X15329141Y-22342165D02*
X15348189Y-22342165D01*
X15348189Y-22342165D02*
X15367237Y-22351689D01*
X15367237Y-22351689D02*
X15376760Y-22361212D01*
X15376760Y-22361212D02*
X15386284Y-22380260D01*
X15386284Y-22380260D02*
X15395808Y-22418355D01*
X15395808Y-22418355D02*
X15395808Y-22465974D01*
X15395808Y-22465974D02*
X15386284Y-22504069D01*
X15386284Y-22504069D02*
X15376760Y-22523117D01*
X15376760Y-22523117D02*
X15367237Y-22532641D01*
X15367237Y-22532641D02*
X15348189Y-22542165D01*
X15348189Y-22542165D02*
X15329141Y-22542165D01*
X15329141Y-22542165D02*
X15310094Y-22532641D01*
X15310094Y-22532641D02*
X15300570Y-22523117D01*
X15300570Y-22523117D02*
X15291046Y-22504069D01*
X15291046Y-22504069D02*
X15281522Y-22465974D01*
X15281522Y-22465974D02*
X15281522Y-22418355D01*
X15281522Y-22418355D02*
X15291046Y-22380260D01*
X15291046Y-22380260D02*
X15300570Y-22361212D01*
X15300570Y-22361212D02*
X15310094Y-22351689D01*
X15310094Y-22351689D02*
X15329141Y-22342165D01*
X15481522Y-22523117D02*
X15491046Y-22532641D01*
X15491046Y-22532641D02*
X15481522Y-22542165D01*
X15481522Y-22542165D02*
X15471998Y-22532641D01*
X15471998Y-22532641D02*
X15481522Y-22523117D01*
X15481522Y-22523117D02*
X15481522Y-22542165D01*
X15681522Y-22542165D02*
X15567237Y-22542165D01*
X15624379Y-22542165D02*
X15624379Y-22342165D01*
X15624379Y-22342165D02*
X15605332Y-22370736D01*
X15605332Y-22370736D02*
X15586284Y-22389784D01*
X15586284Y-22389784D02*
X15567237Y-22399308D01*
X15852951Y-22342165D02*
X15814856Y-22342165D01*
X15814856Y-22342165D02*
X15795808Y-22351689D01*
X15795808Y-22351689D02*
X15786284Y-22361212D01*
X15786284Y-22361212D02*
X15767237Y-22389784D01*
X15767237Y-22389784D02*
X15757713Y-22427879D01*
X15757713Y-22427879D02*
X15757713Y-22504069D01*
X15757713Y-22504069D02*
X15767237Y-22523117D01*
X15767237Y-22523117D02*
X15776760Y-22532641D01*
X15776760Y-22532641D02*
X15795808Y-22542165D01*
X15795808Y-22542165D02*
X15833903Y-22542165D01*
X15833903Y-22542165D02*
X15852951Y-22532641D01*
X15852951Y-22532641D02*
X15862475Y-22523117D01*
X15862475Y-22523117D02*
X15871998Y-22504069D01*
X15871998Y-22504069D02*
X15871998Y-22456450D01*
X15871998Y-22456450D02*
X15862475Y-22437403D01*
X15862475Y-22437403D02*
X15852951Y-22427879D01*
X15852951Y-22427879D02*
X15833903Y-22418355D01*
X15833903Y-22418355D02*
X15795808Y-22418355D01*
X15795808Y-22418355D02*
X15776760Y-22427879D01*
X15776760Y-22427879D02*
X15767237Y-22437403D01*
X15767237Y-22437403D02*
X15757713Y-22456450D01*
X16062475Y-22542165D02*
X15948189Y-22542165D01*
X16005332Y-22542165D02*
X16005332Y-22342165D01*
X16005332Y-22342165D02*
X15986284Y-22370736D01*
X15986284Y-22370736D02*
X15967237Y-22389784D01*
X15967237Y-22389784D02*
X15948189Y-22399308D01*
X16233903Y-22408831D02*
X16233903Y-22542165D01*
X16186284Y-22332641D02*
X16138665Y-22475498D01*
X16138665Y-22475498D02*
X16262475Y-22475498D01*
X16329141Y-22342165D02*
X16329141Y-22380260D01*
X16405332Y-22342165D02*
X16405332Y-22380260D01*
X16700570Y-22618355D02*
X16691046Y-22608831D01*
X16691046Y-22608831D02*
X16671999Y-22580260D01*
X16671999Y-22580260D02*
X16662475Y-22561212D01*
X16662475Y-22561212D02*
X16652951Y-22532641D01*
X16652951Y-22532641D02*
X16643427Y-22485022D01*
X16643427Y-22485022D02*
X16643427Y-22446927D01*
X16643427Y-22446927D02*
X16652951Y-22399308D01*
X16652951Y-22399308D02*
X16662475Y-22370736D01*
X16662475Y-22370736D02*
X16671999Y-22351689D01*
X16671999Y-22351689D02*
X16691046Y-22323117D01*
X16691046Y-22323117D02*
X16700570Y-22313593D01*
X16767237Y-22361212D02*
X16776760Y-22351689D01*
X16776760Y-22351689D02*
X16795808Y-22342165D01*
X16795808Y-22342165D02*
X16843427Y-22342165D01*
X16843427Y-22342165D02*
X16862475Y-22351689D01*
X16862475Y-22351689D02*
X16871999Y-22361212D01*
X16871999Y-22361212D02*
X16881522Y-22380260D01*
X16881522Y-22380260D02*
X16881522Y-22399308D01*
X16881522Y-22399308D02*
X16871999Y-22427879D01*
X16871999Y-22427879D02*
X16757713Y-22542165D01*
X16757713Y-22542165D02*
X16881522Y-22542165D01*
X16948189Y-22342165D02*
X17081522Y-22342165D01*
X17081522Y-22342165D02*
X16995808Y-22542165D01*
X17310094Y-22542165D02*
X17310094Y-22342165D01*
X17395808Y-22542165D02*
X17395808Y-22437403D01*
X17395808Y-22437403D02*
X17386284Y-22418355D01*
X17386284Y-22418355D02*
X17367237Y-22408831D01*
X17367237Y-22408831D02*
X17338665Y-22408831D01*
X17338665Y-22408831D02*
X17319618Y-22418355D01*
X17319618Y-22418355D02*
X17310094Y-22427879D01*
X17519618Y-22542165D02*
X17500570Y-22532641D01*
X17500570Y-22532641D02*
X17491046Y-22523117D01*
X17491046Y-22523117D02*
X17481523Y-22504069D01*
X17481523Y-22504069D02*
X17481523Y-22446927D01*
X17481523Y-22446927D02*
X17491046Y-22427879D01*
X17491046Y-22427879D02*
X17500570Y-22418355D01*
X17500570Y-22418355D02*
X17519618Y-22408831D01*
X17519618Y-22408831D02*
X17548189Y-22408831D01*
X17548189Y-22408831D02*
X17567237Y-22418355D01*
X17567237Y-22418355D02*
X17576761Y-22427879D01*
X17576761Y-22427879D02*
X17586284Y-22446927D01*
X17586284Y-22446927D02*
X17586284Y-22504069D01*
X17586284Y-22504069D02*
X17576761Y-22523117D01*
X17576761Y-22523117D02*
X17567237Y-22532641D01*
X17567237Y-22532641D02*
X17548189Y-22542165D01*
X17548189Y-22542165D02*
X17519618Y-22542165D01*
X17700570Y-22542165D02*
X17681523Y-22532641D01*
X17681523Y-22532641D02*
X17671999Y-22513593D01*
X17671999Y-22513593D02*
X17671999Y-22342165D01*
X17852951Y-22532641D02*
X17833904Y-22542165D01*
X17833904Y-22542165D02*
X17795808Y-22542165D01*
X17795808Y-22542165D02*
X17776761Y-22532641D01*
X17776761Y-22532641D02*
X17767237Y-22513593D01*
X17767237Y-22513593D02*
X17767237Y-22437403D01*
X17767237Y-22437403D02*
X17776761Y-22418355D01*
X17776761Y-22418355D02*
X17795808Y-22408831D01*
X17795808Y-22408831D02*
X17833904Y-22408831D01*
X17833904Y-22408831D02*
X17852951Y-22418355D01*
X17852951Y-22418355D02*
X17862475Y-22437403D01*
X17862475Y-22437403D02*
X17862475Y-22456450D01*
X17862475Y-22456450D02*
X17767237Y-22475498D01*
X17938665Y-22532641D02*
X17957713Y-22542165D01*
X17957713Y-22542165D02*
X17995808Y-22542165D01*
X17995808Y-22542165D02*
X18014856Y-22532641D01*
X18014856Y-22532641D02*
X18024380Y-22513593D01*
X18024380Y-22513593D02*
X18024380Y-22504069D01*
X18024380Y-22504069D02*
X18014856Y-22485022D01*
X18014856Y-22485022D02*
X17995808Y-22475498D01*
X17995808Y-22475498D02*
X17967237Y-22475498D01*
X17967237Y-22475498D02*
X17948189Y-22465974D01*
X17948189Y-22465974D02*
X17938665Y-22446927D01*
X17938665Y-22446927D02*
X17938665Y-22437403D01*
X17938665Y-22437403D02*
X17948189Y-22418355D01*
X17948189Y-22418355D02*
X17967237Y-22408831D01*
X17967237Y-22408831D02*
X17995808Y-22408831D01*
X17995808Y-22408831D02*
X18014856Y-22418355D01*
X18091046Y-22618355D02*
X18100570Y-22608831D01*
X18100570Y-22608831D02*
X18119618Y-22580260D01*
X18119618Y-22580260D02*
X18129142Y-22561212D01*
X18129142Y-22561212D02*
X18138665Y-22532641D01*
X18138665Y-22532641D02*
X18148189Y-22485022D01*
X18148189Y-22485022D02*
X18148189Y-22446927D01*
X18148189Y-22446927D02*
X18138665Y-22399308D01*
X18138665Y-22399308D02*
X18129142Y-22370736D01*
X18129142Y-22370736D02*
X18119618Y-22351689D01*
X18119618Y-22351689D02*
X18100570Y-22323117D01*
X18100570Y-22323117D02*
X18091046Y-22313593D01*
X18452951Y-22618355D02*
X18443427Y-22608831D01*
X18443427Y-22608831D02*
X18424380Y-22580260D01*
X18424380Y-22580260D02*
X18414856Y-22561212D01*
X18414856Y-22561212D02*
X18405332Y-22532641D01*
X18405332Y-22532641D02*
X18395808Y-22485022D01*
X18395808Y-22485022D02*
X18395808Y-22446927D01*
X18395808Y-22446927D02*
X18405332Y-22399308D01*
X18405332Y-22399308D02*
X18414856Y-22370736D01*
X18414856Y-22370736D02*
X18424380Y-22351689D01*
X18424380Y-22351689D02*
X18443427Y-22323117D01*
X18443427Y-22323117D02*
X18452951Y-22313593D01*
X18529142Y-22408831D02*
X18529142Y-22542165D01*
X18529142Y-22427879D02*
X18538665Y-22418355D01*
X18538665Y-22418355D02*
X18557713Y-22408831D01*
X18557713Y-22408831D02*
X18586285Y-22408831D01*
X18586285Y-22408831D02*
X18605332Y-22418355D01*
X18605332Y-22418355D02*
X18614856Y-22437403D01*
X18614856Y-22437403D02*
X18614856Y-22542165D01*
X18738665Y-22542165D02*
X18719618Y-22532641D01*
X18719618Y-22532641D02*
X18710094Y-22523117D01*
X18710094Y-22523117D02*
X18700570Y-22504069D01*
X18700570Y-22504069D02*
X18700570Y-22446927D01*
X18700570Y-22446927D02*
X18710094Y-22427879D01*
X18710094Y-22427879D02*
X18719618Y-22418355D01*
X18719618Y-22418355D02*
X18738665Y-22408831D01*
X18738665Y-22408831D02*
X18767237Y-22408831D01*
X18767237Y-22408831D02*
X18786285Y-22418355D01*
X18786285Y-22418355D02*
X18795808Y-22427879D01*
X18795808Y-22427879D02*
X18805332Y-22446927D01*
X18805332Y-22446927D02*
X18805332Y-22504069D01*
X18805332Y-22504069D02*
X18795808Y-22523117D01*
X18795808Y-22523117D02*
X18786285Y-22532641D01*
X18786285Y-22532641D02*
X18767237Y-22542165D01*
X18767237Y-22542165D02*
X18738665Y-22542165D01*
X18862475Y-22408831D02*
X18938665Y-22408831D01*
X18891046Y-22342165D02*
X18891046Y-22513593D01*
X18891046Y-22513593D02*
X18900570Y-22532641D01*
X18900570Y-22532641D02*
X18919618Y-22542165D01*
X18919618Y-22542165D02*
X18938665Y-22542165D01*
X19157713Y-22408831D02*
X19157713Y-22608831D01*
X19157713Y-22418355D02*
X19176761Y-22408831D01*
X19176761Y-22408831D02*
X19214856Y-22408831D01*
X19214856Y-22408831D02*
X19233904Y-22418355D01*
X19233904Y-22418355D02*
X19243427Y-22427879D01*
X19243427Y-22427879D02*
X19252951Y-22446927D01*
X19252951Y-22446927D02*
X19252951Y-22504069D01*
X19252951Y-22504069D02*
X19243427Y-22523117D01*
X19243427Y-22523117D02*
X19233904Y-22532641D01*
X19233904Y-22532641D02*
X19214856Y-22542165D01*
X19214856Y-22542165D02*
X19176761Y-22542165D01*
X19176761Y-22542165D02*
X19157713Y-22532641D01*
X19367237Y-22542165D02*
X19348189Y-22532641D01*
X19348189Y-22532641D02*
X19338666Y-22513593D01*
X19338666Y-22513593D02*
X19338666Y-22342165D01*
X19529142Y-22542165D02*
X19529142Y-22437403D01*
X19529142Y-22437403D02*
X19519618Y-22418355D01*
X19519618Y-22418355D02*
X19500570Y-22408831D01*
X19500570Y-22408831D02*
X19462475Y-22408831D01*
X19462475Y-22408831D02*
X19443427Y-22418355D01*
X19529142Y-22532641D02*
X19510094Y-22542165D01*
X19510094Y-22542165D02*
X19462475Y-22542165D01*
X19462475Y-22542165D02*
X19443427Y-22532641D01*
X19443427Y-22532641D02*
X19433904Y-22513593D01*
X19433904Y-22513593D02*
X19433904Y-22494546D01*
X19433904Y-22494546D02*
X19443427Y-22475498D01*
X19443427Y-22475498D02*
X19462475Y-22465974D01*
X19462475Y-22465974D02*
X19510094Y-22465974D01*
X19510094Y-22465974D02*
X19529142Y-22456450D01*
X19595808Y-22408831D02*
X19671999Y-22408831D01*
X19624380Y-22342165D02*
X19624380Y-22513593D01*
X19624380Y-22513593D02*
X19633904Y-22532641D01*
X19633904Y-22532641D02*
X19652951Y-22542165D01*
X19652951Y-22542165D02*
X19671999Y-22542165D01*
X19814856Y-22532641D02*
X19795808Y-22542165D01*
X19795808Y-22542165D02*
X19757713Y-22542165D01*
X19757713Y-22542165D02*
X19738666Y-22532641D01*
X19738666Y-22532641D02*
X19729142Y-22513593D01*
X19729142Y-22513593D02*
X19729142Y-22437403D01*
X19729142Y-22437403D02*
X19738666Y-22418355D01*
X19738666Y-22418355D02*
X19757713Y-22408831D01*
X19757713Y-22408831D02*
X19795808Y-22408831D01*
X19795808Y-22408831D02*
X19814856Y-22418355D01*
X19814856Y-22418355D02*
X19824380Y-22437403D01*
X19824380Y-22437403D02*
X19824380Y-22456450D01*
X19824380Y-22456450D02*
X19729142Y-22475498D01*
X19995808Y-22542165D02*
X19995808Y-22342165D01*
X19995808Y-22532641D02*
X19976761Y-22542165D01*
X19976761Y-22542165D02*
X19938666Y-22542165D01*
X19938666Y-22542165D02*
X19919618Y-22532641D01*
X19919618Y-22532641D02*
X19910094Y-22523117D01*
X19910094Y-22523117D02*
X19900570Y-22504069D01*
X19900570Y-22504069D02*
X19900570Y-22446927D01*
X19900570Y-22446927D02*
X19910094Y-22427879D01*
X19910094Y-22427879D02*
X19919618Y-22418355D01*
X19919618Y-22418355D02*
X19938666Y-22408831D01*
X19938666Y-22408831D02*
X19976761Y-22408831D01*
X19976761Y-22408831D02*
X19995808Y-22418355D01*
X20071999Y-22618355D02*
X20081523Y-22608831D01*
X20081523Y-22608831D02*
X20100570Y-22580260D01*
X20100570Y-22580260D02*
X20110094Y-22561212D01*
X20110094Y-22561212D02*
X20119618Y-22532641D01*
X20119618Y-22532641D02*
X20129142Y-22485022D01*
X20129142Y-22485022D02*
X20129142Y-22446927D01*
X20129142Y-22446927D02*
X20119618Y-22399308D01*
X20119618Y-22399308D02*
X20110094Y-22370736D01*
X20110094Y-22370736D02*
X20100570Y-22351689D01*
X20100570Y-22351689D02*
X20081523Y-22323117D01*
X20081523Y-22323117D02*
X20071999Y-22313593D01*
M02*
